<svg width="60" height="59" viewBox="0 0 60 59" fill="none" xmlns="http://www.w3.org/2000/svg">
<path fill-rule="evenodd" clip-rule="evenodd" d="M59.4821 20.5042V38.5689C59.9231 58.0614 52.217 59.2668 34.6809 58.9644H20.981C4.47585 58.9644 0.579968 55.0387 0.579968 38.5384C0.569617 36.9956 0.557338 35.5142 0.545548 34.0917C0.403182 16.9158 0.332055 8.3345 4.5871 4.08194C8.83551 -0.163995 17.3966 -0.0946799 34.5056 0.0438422C35.9674 0.0556783 37.4917 0.0680197 39.0811 0.0782176C55.5862 0.0782176 59.4821 4.00392 59.4821 20.5042ZM47.4697 18.2698C47.8273 16.1057 45.6561 14.3965 43.6309 15.2476L11.7975 28.6258C9.57774 29.5585 9.464 32.7614 11.7991 33.7276C13.5268 34.4424 15.643 35.0302 17.9255 35.4098C19.1755 35.6179 20.2234 35.4098 22.2304 34.1906C24.5051 32.8086 31.384 27.898 35.6686 24.6681C37.3958 23.3661 38.0618 24.1831 36.5994 25.5972C36.091 26.0887 35.5306 26.626 34.9408 27.1914C31.2109 30.7673 26.3053 35.4704 25.9536 36.8615C25.4772 38.7458 29.3528 41.3927 30.6185 42.2183C33.1532 43.8714 35.9657 45.4531 37.8613 46.4808C40.1267 47.709 42.8386 46.2948 43.2459 43.8303L47.4697 18.2698Z" fill="#1B92D1"/>
</svg>
