<svg width="60" height="59" viewBox="0 0 60 59" fill="none" xmlns="http://www.w3.org/2000/svg">
<path fill-rule="evenodd" clip-rule="evenodd" d="M59.4821 38.5689V20.5042C59.4821 4.00392 55.5863 0.0782176 39.0811 0.0782176C37.4917 0.0680197 35.9674 0.0556783 34.5056 0.0438422C17.3967 -0.0946798 8.83553 -0.163995 4.58711 4.08193C0.332055 8.33448 0.403182 16.9158 0.545548 34.0917C0.557338 35.5142 0.569617 36.9956 0.579968 38.5384C0.579968 55.0387 4.47585 58.9644 20.981 58.9644H34.6809C52.217 59.2668 59.9231 58.0614 59.4821 38.5689ZM27.8176 43.1215L33.0009 37.9383H33.0056C33.3053 37.6488 33.7067 37.4886 34.1233 37.4923C34.54 37.4959 34.9385 37.663 35.2331 37.9576C35.5277 38.2522 35.6948 38.6508 35.6985 39.0674C35.7021 39.484 35.5419 39.8854 35.2525 40.1851L30.0692 45.3684C27.9753 47.4633 25.135 48.6406 22.1731 48.6414C19.2112 48.6421 16.3703 47.4662 14.2754 45.3723C12.1805 43.2785 11.0031 40.4382 11.0024 37.4763C11.0016 34.5144 12.1775 31.6735 14.2714 29.5786L19.4531 24.3905C19.7511 24.0924 20.1552 23.9248 20.5768 23.9246C20.9983 23.9245 21.4026 24.0918 21.7007 24.3897C21.9989 24.6877 22.1665 25.0919 22.1666 25.5134C22.1668 25.9349 21.9995 26.3392 21.7015 26.6374L16.5182 31.8254C15.054 33.3307 14.2413 35.352 14.2559 37.4519C14.2706 39.5519 15.1115 41.5616 16.5966 43.0463C18.0817 44.5311 20.0917 45.3713 22.1917 45.3854C24.2916 45.3995 26.3127 44.5862 27.8176 43.1215ZM42.2506 11.348C43.6059 11.9102 44.8363 12.7357 45.8702 13.7768C47.9606 15.8734 49.1341 18.7134 49.1335 21.674C49.1329 24.6346 47.9582 27.4741 45.8671 29.5698L40.6838 34.7499C40.3856 35.0481 39.9812 35.2156 39.5596 35.2156C39.1379 35.2156 38.7335 35.0481 38.4353 34.7499C38.1372 34.4518 37.9697 34.0474 37.9697 33.6257C37.9697 33.204 38.1372 32.7997 38.4353 32.5015L43.6186 27.3182C44.7357 26.201 45.4964 24.7776 45.8046 23.2281C46.1129 21.6786 45.9548 20.0725 45.3504 18.6128C44.7459 17.1531 43.7223 15.9054 42.4089 15.0273C41.0955 14.1493 39.5512 13.6804 37.9714 13.6799C36.922 13.6772 35.8826 13.8827 34.9132 14.2844C33.9439 14.6862 33.0638 15.2763 32.3241 16.0205L27.136 21.2038C26.8379 21.5017 26.4335 21.669 26.012 21.6689C25.5905 21.6687 25.1863 21.5011 24.8884 21.203C24.5904 20.9048 24.4231 20.5005 24.4233 20.079C24.4234 19.6575 24.591 19.2533 24.8892 18.9553L30.0804 13.7704C31.115 12.731 32.3453 11.9069 33.7003 11.3459C35.0552 10.7848 36.508 10.498 37.9745 10.5019C39.4418 10.4983 40.8953 10.7859 42.2506 11.348ZM24.1791 33.2128L33.713 23.6789C34.0127 23.3894 34.4141 23.2293 34.8307 23.2329C35.2473 23.2365 35.6459 23.4036 35.9405 23.6982C36.2351 23.9928 36.4022 24.3914 36.4058 24.808C36.4095 25.2246 36.2493 25.626 35.9599 25.9257L26.4259 35.4596C26.2793 35.6114 26.104 35.7325 25.9101 35.8157C25.7162 35.899 25.5077 35.9428 25.2968 35.9447C25.0858 35.9465 24.8765 35.9063 24.6813 35.8264C24.486 35.7465 24.3086 35.6285 24.1594 35.4793C24.0102 35.3301 23.8922 35.1527 23.8123 34.9574C23.7324 34.7622 23.6922 34.5529 23.694 34.3419C23.6958 34.131 23.7397 33.9224 23.823 33.7286C23.9062 33.5347 24.0273 33.3594 24.1791 33.2128Z" fill="#FFB64C"/>
</svg>
