<svg width="60" height="59" viewBox="0 0 60 59" fill="none" xmlns="http://www.w3.org/2000/svg">
<path fill-rule="evenodd" clip-rule="evenodd" d="M59.4821 38.5689V20.5042C59.4821 4.00392 55.5863 0.0782176 39.0811 0.0782176C-1.28133 -0.180763 0.309188 -1.82222 0.579968 38.5384C0.579968 55.0387 4.47585 58.9644 20.981 58.9644H34.6809C52.217 59.2668 59.9231 58.0614 59.4821 38.5689ZM48.1317 42.0965H43.8365C42.2106 42.0965 41.7199 40.7773 38.8053 37.864C36.259 35.4102 35.1852 35.1034 34.5412 35.1034C33.6512 35.1034 33.4059 35.3487 33.4059 36.5753V40.4395C33.4059 41.4822 33.0686 42.0958 30.3379 42.0958C25.7973 42.0958 20.7972 39.3352 17.2379 34.2444C11.9 26.7918 10.4579 21.1482 10.4579 20.0135C10.4579 19.3695 10.7032 18.7863 11.9304 18.7863H16.2256C17.3298 18.7863 17.7286 19.277 18.1583 20.4116C19.919 26.1837 25.9501 35.7884 26.0426 30.2566V23.9386C25.8588 21.0557 24.3248 20.8104 24.3248 19.7676C24.3248 19.3074 24.7546 18.7863 25.429 18.7863H32.178C33.0984 18.7863 33.4052 19.2465 33.4052 20.3501V28.8766C33.522 30.9212 34.7939 30.1169 36.0745 28.7847C39.173 25.3497 41.351 20.0129 41.351 20.0129C41.6274 19.3689 42.118 18.7863 43.2223 18.7863H47.5175C48.8062 18.7863 49.0819 19.4304 48.8062 20.3508C48.2845 22.8654 43.0384 30.2262 43.0384 30.2573C42.5782 30.9628 42.3944 31.3311 43.0384 32.1589C44.275 33.6998 53.2852 41.8369 48.1317 42.0965Z" fill="#345E90"/>
</svg>
