<svg width="768" height="1769" viewBox="0 0 768 1769" fill="none" xmlns="http://www.w3.org/2000/svg">
<path d="M70.9922 1739.7C89.778 1754.75 115.913 1764.08 144.814 1764.08C177.42 1764.08 206.506 1752.2 225.489 1733.64C244.166 1755 275.42 1769 310.823 1769C336.65 1769 360.268 1761.55 378.406 1749.23C389.876 1755.49 403.798 1759.16 418.808 1759.16C441.547 1759.16 461.79 1750.74 474.792 1737.63C476.752 1737.76 478.734 1737.83 480.736 1737.83C489.589 1737.83 498.064 1736.55 505.881 1734.22C524.714 1749.59 551.137 1759.16 580.394 1759.16C607.375 1759.16 631.946 1751.02 650.377 1737.7C655.404 1738.59 660.633 1739.06 666.001 1739.06C674.668 1739.06 682.972 1737.84 690.651 1735.6C708.808 1747.98 742.108 1755.87 768 1755.87V13.7403C744.469 13.7403 733.919 20.934 715.969 33.1737L715.63 33.4043C707.951 31.1648 699.647 29.9416 690.98 29.9416C685.613 29.9416 680.384 30.4108 675.357 31.3001C656.926 17.976 632.355 9.84381 605.374 9.84381C576.117 9.84381 549.694 19.4057 530.86 34.7807C523.044 32.4485 514.569 31.172 505.716 31.172C503.714 31.172 501.731 31.2373 499.772 31.3653C486.77 18.2645 466.526 9.84381 443.787 9.84381C428.778 9.84381 414.856 13.5126 403.386 19.7745C385.248 7.45107 361.629 0 335.803 0C300.399 0 269.146 14.0015 250.469 35.362C231.486 16.7983 202.399 4.9219 169.793 4.9219C140.893 4.9219 114.757 14.2521 95.9717 29.2992C87.0201 25.7731 63.744 17.4922 52.608 15C29.568 9.84381 0.000222656 9.84381 0.000222656 9.84381L0 1755.05C20.736 1759 44.928 1755.05 70.9922 1739.7Z" fill="white"/>
</svg>
