<svg width="172" height="67" viewBox="0 0 172 67" fill="none" xmlns="http://www.w3.org/2000/svg">
<path opacity="0.9" d="M156.125 25.0964C159.588 34.3244 165.079 43.4689 171.822 52.2397L166.712 52.5023C164.705 45.6315 161.102 38.7764 157.764 31.9953L162.86 32.1925C162.097 36.5859 163.982 41.5264 165.254 46.0691C165.906 48.3972 160.805 48.0922 159.96 45.8831C156.572 36.8312 149.824 28.3442 141.677 20.2706L146.432 19.5762C149.672 30.9101 155.222 42.1494 160.725 53.3433C161.837 55.6093 157.31 56.2812 155.796 54.0716C148.307 43.0238 142.541 31.2223 130.581 21.3743L135.335 20.6799C138.236 33.6145 145.659 46.4279 154.112 58.856C155.41 60.7702 151.148 61.9079 149.538 60.0161C137.983 46.4103 130.84 31.7521 117.596 18.6047L122.17 17.4446C127.571 30.5743 138.026 42.9133 146.661 55.5403C148.005 57.5 143.886 58.4901 142.087 56.7004C130.711 45.4109 123.488 32.4444 109.221 22.2823L113.499 21.2015C114.108 31.5114 120.218 41.5534 128.141 51.2164C129.871 53.3297 125.729 54.9556 123.895 52.8026C113.468 40.5942 104.712 28.0124 96.1076 15.3741L101.218 15.1114C103.731 29.0846 116.552 41.857 127.441 54.5199C128.919 56.2412 126.035 58.2599 123.676 56.4754C106.336 43.4155 103.1 26.5295 89.015 12.4731L93.7696 11.7786C93.7668 26.4253 105.873 41.2522 114.085 55.4798C115.27 57.5302 111.469 58.3389 109.511 56.6399C93.4054 42.633 86.4623 26.2378 75.3213 10.9405L80.4314 10.6778C82.3838 28.7494 98.7219 46.0094 109.737 63.2197C111.036 65.2588 107.067 66.0675 105.163 64.3798C87.3383 48.6003 82.3769 30.1005 69.4347 13.1554L74.531 13.3526C74.3702 21.3627 79.1543 29.6267 84.2637 37.4084C89.3732 45.1901 95.3468 52.9781 99.3437 61.0029C100.346 62.9964 96.7398 63.9359 94.7696 62.163C74.1682 43.6733 70.9851 20.9967 50.4068 2.52966L55.1614 1.83521C56.0054 12.0886 62.2403 22.335 69.1518 32.1562C76.2958 42.3295 84.515 52.3051 90.8691 62.6481C92.0725 64.6133 88.1172 65.6206 86.2951 63.8082C67.2611 44.9053 62.4678 22.5793 41.9321 4.17478L46.6869 3.48037C47.7612 13.5693 53.2993 23.8095 58.9435 33.6808C64.8983 44.0632 71.625 54.3611 76.8044 64.8451C77.7442 66.7363 73.9933 67.9651 72.2303 66.0051C54.5097 46.4391 44.5943 24.9605 25.2758 5.81896L30.0436 5.5901C28.487 13.7297 33.3888 22.6239 38.9164 30.6727C44.7885 39.2044 52.1602 47.3796 59.3609 55.5717L55.1155 57.1578C40.7521 39.1443 29.9938 20.4582 17.4955 2.07719L22.6055 1.81449C23.8525 23.3485 46.5686 43.5885 57.9597 64.2961C59.0064 66.2101 55.0987 67.3878 53.3855 65.4562C38.5624 48.8218 29.959 30.7733 15.3944 14.1051L20.1622 13.8762C19.4862 31.1735 37.441 48.3157 49.8082 64.2838C51.3625 66.3061 47.0959 67.0691 45.2341 65.4439C28.9862 51.3177 21.9332 34.6499 8.80807 19.6235L13.5758 19.3946C13.2504 34.7734 28.6834 49.8471 36.1468 64.8405C37.2621 67.0895 32.6409 67.8124 31.2173 65.5688C20.9058 49.256 15.0377 32.0045 1.35642 16.3077L6.1242 16.0789C3.62404 28.8047 12.0445 41.653 19.3551 54.3357L14.4257 55.064C10.4252 47.0562 4.46375 39.342 0.463335 31.3341L5.55981 31.5313C4.23553 38.706 8.85894 46.2771 14.1451 53.2244C15.8078 55.3944 10.8552 56.1 9.21566 53.9528C3.44987 46.3693 -1.18454 38.1906 0.269596 30.4029C0.558821 28.7739 4.4848 28.8282 5.36608 30.6001C9.36649 38.608 15.328 46.3221 19.3284 54.33C20.4437 56.579 15.7085 57.3132 14.3989 55.0583C6.6961 41.7224 -1.82982 28.3178 0.807397 14.9448C1.09956 13.5656 4.29395 13.2502 5.57519 14.7159C19.5266 30.7194 25.599 48.1925 36.0933 64.8291L31.164 65.5574C23.2838 49.7632 7.894 34.4852 8.23231 18.2549C8.26811 16.7675 11.8077 16.6682 13.0001 18.026C26.0986 33.0466 33.2013 49.7429 49.4261 63.8464L44.8521 65.0065C31.8508 48.209 14.1262 30.9024 14.8454 12.7422C14.9079 11.2605 18.4244 11.1384 19.6132 12.5132C34.1778 29.1815 42.7812 47.23 57.6043 63.8644L53.0303 65.0245C41.4563 43.993 18.5929 23.5259 17.3379 1.63425C17.2234 -0.330099 21.0612 -0.650595 22.4479 1.37155C34.7563 19.4629 45.264 37.882 59.384 55.5944C61.0611 57.6963 57.0524 59.3507 55.1385 57.1805C47.4828 48.4998 39.69 39.8076 33.5412 30.7365C27.8222 22.273 23.1673 13.0044 24.7765 4.48448C25.06 3.01436 28.1577 2.89196 29.5443 4.25557C48.8628 23.3971 58.7818 44.8587 76.4988 64.4417L71.9248 65.6018C66.6053 54.8565 59.6743 44.3371 53.6328 33.7048C47.9958 23.7995 42.4827 13.4401 41.4121 3.33415C41.2276 1.56845 44.4083 1.05445 46.1668 2.63977C66.7488 21.0898 71.4993 43.3532 90.5296 62.2731L85.9556 63.4332C73.5882 43.247 51.6247 22.8828 49.8868 1.68903C49.7557 -0.0652789 52.8597 -0.613439 54.6413 0.994604C75.2428 19.4844 78.426 42.161 99.0043 60.628L94.4303 61.7881C86.2149 45.3351 68.9382 29.2097 69.2569 12.281C69.3027 10.3509 73.2628 11.0354 74.3534 12.4782C87.0789 29.1279 91.877 47.3437 109.398 62.8448L104.823 64.0048C93.5953 46.4821 77.117 28.9608 75.1529 10.5486C74.9424 8.5104 78.8582 8.34895 80.263 10.286C91.1837 25.3049 97.9405 41.3934 113.769 55.1276L109.195 56.2877C100.793 41.7704 88.5303 26.6255 88.5143 11.6722C88.5183 10.0713 91.5199 9.21647 93.2691 10.9778C107.011 24.6762 110.164 41.5622 126.973 54.2243L123.208 56.1798C111.828 42.9318 98.567 29.6027 95.9394 14.9822C95.565 12.9268 99.7284 12.7826 101.049 14.7196C109.468 27.0512 117.977 39.3489 128.157 51.2732L123.911 52.8593C115.552 42.6226 108.871 31.9784 108.224 21.0552C108.155 19.67 110.61 18.6274 112.503 19.9744C127.184 30.4207 134.629 43.5236 146.325 55.1483L141.751 56.3084C133.085 43.6927 122.661 31.3424 117.26 18.2127C116.488 16.3217 119.873 15.1038 121.834 17.0527C135.074 30.2171 142.221 44.8582 153.777 58.4641L149.202 59.6241C140.559 46.9062 133.041 33.7522 130.064 20.5166C129.63 18.6088 133.135 18.4129 134.819 19.8222C147.063 29.9089 153.035 42.0569 160.718 53.3774L155.789 54.1057C150.152 42.6165 144.473 31.0649 141.13 19.4243C140.622 17.6072 144.34 17.1901 145.885 18.7298C154.66 27.4001 161.573 36.4208 165.217 46.1145L159.922 45.9285C158.555 41.0452 156.724 35.8492 157.532 31.1095C157.821 29.4804 161.774 29.5404 162.629 31.3067C166.097 38.4001 169.859 45.5562 171.938 52.745C172.569 54.9085 168.185 54.7743 166.828 53.0077C159.872 43.9245 154.355 34.5075 150.767 24.9502C149.91 22.6673 155.224 22.893 156.061 25.1361L156.125 25.0964Z" fill="#D4FACB"/>
</svg>
