<svg width="225" height="86" viewBox="0 0 225 86" fill="none" xmlns="http://www.w3.org/2000/svg">
<path opacity="0.9" d="M204.232 32.2133C208.761 44.0582 215.944 55.7958 224.765 67.0539L218.08 67.3911C215.455 58.5718 210.742 49.7727 206.375 41.0686L213.042 41.3217C212.043 46.961 214.51 53.3026 216.174 59.1335C217.026 62.1218 210.353 61.7303 209.248 58.8948C204.816 47.2759 195.989 36.3821 185.331 26.0189L191.551 25.1276C195.79 39.6757 203.05 54.1023 210.249 68.4705C211.704 71.3792 205.782 72.2416 203.801 69.4054C194.004 55.2245 186.461 40.0763 170.816 27.4356L177.035 26.5443C180.83 43.1469 190.54 59.594 201.598 75.5466C203.296 78.0036 197.721 79.4639 195.615 77.0356C180.499 59.5714 171.154 40.7564 153.83 23.8806L159.813 22.3916C166.878 39.2446 180.555 55.0827 191.851 71.2905C193.609 73.8059 188.22 75.0769 185.867 72.7796C170.986 58.2887 161.538 41.645 142.875 28.6011L148.471 27.2138C149.267 40.4475 157.261 53.3372 167.624 65.7405C169.888 68.453 164.469 70.5401 162.071 67.7764C148.431 52.1059 136.976 35.9563 125.72 19.7339L132.405 19.3967C135.693 37.3324 152.464 53.7268 166.709 69.9807C168.643 72.1902 164.869 74.7814 161.783 72.4908C139.101 55.7274 134.867 34.0527 116.442 16.0102L122.662 15.1188C122.658 33.9191 138.495 52.9506 149.237 71.2129C150.788 73.8447 145.815 74.8828 143.254 72.702C122.185 54.7229 113.103 33.6783 98.5289 14.043L105.213 13.7059C107.768 36.9022 129.14 59.0569 143.549 81.1477C145.249 83.7651 140.057 84.803 137.566 82.6368C114.249 62.3825 107.758 38.6365 90.8284 16.8861L97.495 17.1391C97.2846 27.4208 103.543 38.0283 110.227 48.0168C116.911 58.0052 124.725 68.0017 129.953 78.3023C131.264 80.861 126.547 82.0669 123.97 79.7914C97.0203 56.0582 92.8565 26.951 65.9372 3.24702L72.1569 2.35564C73.2609 15.5167 81.4171 28.6688 90.4582 41.2751C99.8036 54.3334 110.555 67.1378 118.868 80.414C120.442 82.9365 115.268 84.2295 112.884 81.9031C87.985 57.6396 81.7147 28.9824 54.8511 5.35868L61.071 4.46734C62.4763 17.4173 69.7209 30.5615 77.1044 43.232C84.8941 56.5587 93.6936 69.7769 100.469 83.234C101.698 85.6615 96.7916 87.2388 94.4854 84.723C71.3044 59.6084 58.3336 32.0389 33.0624 7.46911L39.2993 7.17535C37.263 17.6232 43.6752 29.0396 50.9061 39.371C58.5877 50.322 68.2309 60.8156 77.6504 71.3308L72.0968 73.3668C53.3075 50.245 39.2342 26.2598 22.8846 2.66624L29.5692 2.32905C31.2004 29.9697 60.9162 55.9494 75.8175 82.5294C77.1867 84.9861 72.0748 86.4977 69.8338 84.0184C50.4431 62.6669 39.1886 39.5001 20.1361 18.1051L26.373 17.8112C25.4887 40.0138 48.9761 62.0171 65.1541 82.5135C67.1873 85.1093 61.6061 86.0886 59.1706 84.0026C37.916 65.8704 28.6898 44.4759 11.5202 25.1883L17.7572 24.8946C17.3314 44.6345 37.5199 63.9828 47.2831 83.2281C48.7421 86.1149 42.697 87.0428 40.8346 84.1629C27.3457 63.2241 19.6695 41.0803 1.77243 20.9323L8.00935 20.6386C4.7388 36.9733 15.754 53.465 25.3173 69.7443L18.8688 70.6792C13.6357 60.4004 5.83726 50.4987 0.604154 40.2199L7.27106 40.473C5.5387 49.6823 11.5868 59.4005 18.5019 68.3179C20.6768 71.1033 14.1982 72.009 12.0534 69.2528C4.51096 59.5187 -1.5515 49.0208 0.350716 39.0247C0.729063 36.9336 5.86479 37.0033 7.01762 39.2777C12.2507 49.5565 20.0492 59.4583 25.2823 69.737C26.7413 72.6238 20.5469 73.5661 18.8338 70.6719C8.75748 53.5541 -2.39562 36.3482 1.05423 19.1829C1.43643 17.4125 5.61513 17.0077 7.29117 18.8891C25.5416 39.4309 33.4851 61.8591 47.2131 83.2134L40.7649 84.1483C30.4565 63.8752 10.3245 44.2646 10.7671 23.4316C10.8139 21.5225 15.4442 21.395 17.004 23.1378C34.1386 42.4181 43.43 63.8491 64.6543 81.9521L58.6709 83.4411C41.6633 61.8802 18.4771 39.6657 19.4179 16.3556C19.4997 14.4538 24.0997 14.2971 25.6548 16.0618C44.7073 37.4568 55.9619 60.6236 75.3525 81.9752L69.369 83.4642C54.2287 56.4687 24.3201 30.1974 22.6784 2.09769C22.5287 -0.423709 27.549 -0.835092 29.3631 1.7605C45.4642 24.9822 59.2097 48.6246 77.6806 71.36C79.8745 74.0579 74.6306 76.1815 72.1269 73.3959C62.1122 62.2535 51.9181 51.0964 43.8746 39.4528C36.3933 28.5893 30.3041 16.6922 32.4092 5.7562C32.78 3.86918 36.8322 3.71207 38.6461 5.46237C63.9174 30.0321 76.8929 57.5798 100.069 82.7163L94.0857 84.2053C87.1271 70.4129 78.0604 56.9103 70.1572 43.2629C62.7832 30.5487 55.5714 17.2515 54.1708 4.27966C53.9295 2.01323 58.0902 1.35347 60.3907 3.38835C87.3147 27.0704 93.5291 55.6474 118.423 79.9327L112.44 81.4217C96.2617 55.5111 67.5303 29.3719 65.2569 2.16801C65.0855 -0.0837908 69.1459 -0.787399 71.4765 1.27666C98.4261 25.0098 102.59 54.1171 129.509 77.821L123.526 79.3101C112.779 58.1913 90.1789 37.493 90.5958 15.7637C90.6557 13.2862 95.836 14.1648 97.2627 16.0168C113.909 37.388 120.186 60.7695 143.105 80.6665L137.122 82.1555C122.434 59.6636 100.878 37.1736 98.3086 13.54C98.0332 10.9238 103.156 10.7166 104.993 13.2029C119.279 32.4809 128.118 53.1318 148.824 70.7608L142.84 72.2499C131.849 53.6157 115.808 34.176 115.787 14.9822C115.792 12.9273 119.719 11.8301 122.007 14.0909C139.983 31.6739 144.107 53.3485 166.096 69.6013L161.171 72.1114C146.285 55.1065 128.938 37.9975 125.5 19.2309C125.01 16.5927 130.457 16.4075 132.185 18.8938C143.197 34.7224 154.328 50.5075 167.645 65.8134L162.091 67.8493C151.156 54.7096 142.416 41.0469 141.571 27.0261C141.48 25.2481 144.691 23.9098 147.167 25.6388C166.373 39.0475 176.112 55.8661 191.411 70.7874L185.428 72.2764C174.092 56.0831 160.455 40.2305 153.39 23.3775C152.38 20.9502 156.809 19.387 159.374 21.8885C176.694 38.7861 186.043 57.5792 201.159 75.0434L195.175 76.5324C183.868 60.208 174.034 43.3237 170.14 26.3348C169.573 23.8859 174.157 23.6345 176.36 25.4434C192.378 38.3905 200.189 53.9834 210.24 68.5143L203.791 69.4491C196.418 54.7018 188.989 39.8743 184.616 24.9326C183.951 22.6003 188.815 22.0649 190.836 24.0413C202.315 35.1703 211.358 46.7491 216.124 59.1917L209.199 58.953C207.411 52.6848 205.015 46.0153 206.072 39.9316C206.45 37.8406 211.621 37.9176 212.739 40.1847C217.276 49.2897 222.197 58.4751 224.917 67.7025C225.743 70.4795 220.008 70.3074 218.233 68.0397C209.133 56.3807 201.916 44.2932 197.222 32.0256C196.101 29.0953 203.052 29.385 204.148 32.2642L204.232 32.2133Z" fill="#CFF9C5"/>
</svg>
