<svg width="1000" height="1330" viewBox="0 0 1000 1330" fill="none" xmlns="http://www.w3.org/2000/svg">
<path d="M92.4378 1300.7C116.898 1315.75 150.929 1325.08 188.559 1325.08C231.015 1325.08 268.888 1313.2 293.606 1294.64C317.924 1316 358.619 1330 404.717 1330C438.346 1330 469.099 1322.55 492.717 1310.23C507.651 1316.49 525.779 1320.16 545.322 1320.16C574.93 1320.16 601.289 1311.74 618.219 1298.63C620.77 1298.76 623.352 1298.83 625.958 1298.83C637.486 1298.83 648.521 1297.55 658.699 1295.22C683.221 1310.59 717.626 1320.16 755.721 1320.16C790.853 1320.16 822.846 1312.02 846.845 1298.7C853.391 1299.59 860.199 1300.06 867.188 1300.06C878.473 1300.06 889.286 1298.84 899.285 1296.6C922.926 1308.98 966.285 1316.87 1000 1316.87V13.7403C969.36 13.7403 955.623 20.934 932.25 33.1737L931.81 33.4043C921.811 31.1648 910.999 29.9416 899.714 29.9416C892.724 29.9416 885.916 30.4108 879.37 31.3001C855.372 17.976 823.378 9.84381 788.246 9.84381C750.152 9.84381 715.747 19.4057 691.224 34.7807C681.046 32.4485 670.011 31.172 658.484 31.172C655.877 31.172 653.296 31.2373 650.744 31.3653C633.815 18.2645 607.456 9.84381 577.848 9.84381C558.304 9.84381 540.177 13.5126 525.242 19.7745C501.624 7.45107 470.871 0 437.243 0C391.145 0 350.45 14.0015 326.131 35.362C301.414 16.7983 263.541 4.9219 221.085 4.9219C183.454 4.9219 149.424 14.2521 124.963 29.2992C113.307 25.7731 83 17.4922 68.5 15C38.5 9.84381 0.000289917 9.84381 0.000289917 9.84381L0 1316.05C27 1320 58.5 1316.05 92.4378 1300.7Z" fill="white"/>
</svg>
