<svg width="1920" height="1878" viewBox="0 0 1920 1878" fill="none" xmlns="http://www.w3.org/2000/svg">
<path d="M0 1790.8L0.00126747 1854.84C20.516 1855.86 26.5207 1850.75 38.2648 1838.26C70.1489 1853.02 108.654 1861.65 150.119 1861.65C212.4 1861.65 268.003 1842.19 304.523 1811.71C317.893 1814.93 332.282 1816.69 347.273 1816.69C373.535 1816.69 397.951 1811.31 418.272 1802.08C441.519 1824.13 479.501 1838.49 522.41 1838.49C542.964 1838.49 562.387 1835.19 579.602 1829.34C615.728 1854.33 665.988 1869.83 721.565 1869.83C784.27 1869.83 840.205 1850.1 876.711 1819.27C912.628 1854.74 972.731 1878 1040.81 1878C1090.48 1878 1135.9 1865.62 1170.78 1845.16C1192.84 1855.56 1219.61 1861.65 1248.48 1861.65C1292.21 1861.65 1331.14 1847.66 1356.14 1825.9C1359.91 1826.12 1363.72 1826.23 1367.57 1826.23C1384.6 1826.23 1400.89 1824.11 1415.93 1820.23C1452.14 1845.77 1502.96 1861.65 1559.22 1861.65C1611.11 1861.65 1658.36 1848.14 1693.8 1826.01C1703.47 1827.49 1713.53 1828.27 1723.85 1828.27C1740.52 1828.27 1756.48 1826.24 1771.25 1822.52C1806.17 1843.08 1870.21 1856.2 1920 1856.2V22.8217C1874.75 22.8217 1854.46 34.7699 1819.94 55.0992L1819.29 55.4822C1804.52 51.7627 1788.55 49.7309 1771.89 49.7309C1761.56 49.7309 1751.51 50.5103 1741.84 51.9874C1706.4 29.8569 1659.14 16.3499 1607.26 16.3499C1550.99 16.3499 1500.18 32.2315 1463.96 57.7683C1448.93 53.8948 1432.63 51.7747 1415.61 51.7747C1411.76 51.7747 1407.95 51.8831 1404.18 52.0956C1379.17 30.3362 1340.24 16.3499 1296.51 16.3499C1267.65 16.3499 1240.88 22.4435 1218.82 32.8441C1183.94 12.3757 1138.52 0 1088.85 0C1020.77 0 960.665 23.2556 924.749 58.7339C888.243 27.9009 832.307 8.17495 769.603 8.17495C714.026 8.17495 663.765 23.6718 627.639 48.6639C610.424 42.8074 591.001 39.5122 570.447 39.5122C527.538 39.5122 489.557 53.8733 466.31 75.9198C445.988 66.6915 421.572 61.3121 395.311 61.3121C380.32 61.3121 365.93 63.065 352.56 66.286C316.041 35.8105 260.437 16.3499 198.157 16.3499C156.692 16.3499 118.186 24.9759 86.3023 39.7355C63.4246 25.2264 33.7364 16.3499 0.00169505 16.3499V124.668L0 1790.8Z" fill="white"/>
</svg>
