<svg width="51" height="67" viewBox="0 0 51 67" fill="none" xmlns="http://www.w3.org/2000/svg">
<path d="M50.5582 42.0382C49.4846 39.2697 46.6816 38.3951 44.2282 37.8361C43.7208 37.722 43.2134 37.6041 42.7091 37.49C42.1987 37.3721 41.4933 37.22 40.6858 37.0907C41.2922 36.0754 41.8552 35.0182 42.3843 33.9496C43.2784 32.1395 44.1168 30.2419 44.4417 28.1618C45.0295 24.3781 43.8538 20.5372 43.7455 16.6888C43.6775 14.1904 44.055 11.6387 43.56 9.21637C42.9288 6.12091 40.9116 3.65291 38.585 2.23448C36.2585 0.812241 33.6349 0.310256 31.0484 0.0288506C30.674 -0.0129799 30.2688 -0.0433817 29.944 0.19239C29.6439 0.409149 29.4675 0.812248 29.3097 1.19633C27.8556 4.69488 26.4076 8.24289 25.6218 12.0495C24.443 17.7726 24.969 24.226 26.4788 29.778C26.7139 30.645 27.5864 33.0522 28.7466 35.6C27.277 33.5047 25.8508 31.7935 25.297 31.2459C21.5906 27.5686 16.8508 24.7165 12.077 24.0814C8.89965 23.6593 5.69129 24.089 2.51392 24.5454C2.16741 24.5948 1.79926 24.6557 1.527 24.9257C1.23618 25.2185 1.11555 25.6938 1.01654 26.1425C0.329712 29.2228 -0.19935 32.4171 0.0729077 35.5924C0.345166 38.7677 1.52078 41.9507 3.66481 43.757C5.34168 45.1716 7.41771 45.6241 9.29876 46.5748C12.1977 48.0389 14.7161 50.7351 17.8068 51.3739C19.5053 51.7276 21.2471 51.4234 22.9364 51.0203C23.8552 50.8035 24.7803 50.5487 25.6899 50.2407C24.078 54.4314 24.0285 59.3293 25.3372 64.0106C25.5909 64.9232 25.9498 65.8625 26.6181 66.3721C27.1502 66.7752 27.7999 66.8437 28.4248 66.9007C30.2007 67.0642 32.1282 67.1783 33.5977 65.9462C35.6613 64.2197 35.9398 60.6831 36.0202 57.6181C36.0357 56.9869 36.0542 56.3518 36.0697 55.7205C36.1099 54.1196 36.1501 51.0165 35.6768 48.3013C38.947 51.663 43.331 52.7696 47.7551 51.7885C48.5286 51.6173 49.3392 51.3245 49.8466 50.5906C50.2519 50.005 50.4035 49.2254 50.5427 48.4762C50.9418 46.3429 51.3255 44.0194 50.5582 42.0458V42.0382Z" fill="#F5B02B"/>
<path d="M36.1411 48.5556C36.466 47.9738 36.4536 46.8938 35.9184 45.1179C35.6802 44.3269 35.3553 43.4485 34.9377 42.5472C34.4303 41.4558 33.8734 40.3873 33.2577 39.7028C32.0542 37.3869 30.6217 35.2763 29.4151 34.1165C27.6609 32.428 26.8194 33.508 27.6053 36.459C28.3942 39.4214 30.4856 44.0037 32.5152 46.5744C34.2075 48.7191 35.6368 49.4645 36.1442 48.5595L36.1411 48.5556Z" fill="#F5BEA8"/>
</svg>
