<svg width="551" height="549" viewBox="0 0 551 549" fill="none" xmlns="http://www.w3.org/2000/svg">
<path d="M103.918 115.341C102.231 122.252 99.6983 139.312 99.0566 151.57C98.0262 171.25 89.7559 188.612 84.7888 199.467C82.686 203.949 79.2472 209.992 82.5745 217.501" stroke="#5D7982" stroke-width="3"/>
<path d="M99.5726 28.9974C112.79 29.2919 118.248 41.8067 119.325 48.0273C128.946 42.3822 140.475 34.0195 154.875 44.09C166.841 52.4581 165.392 64.0073 160.885 76.0998C157.048 86.3938 148.899 94.8495 139.685 100.341C130.975 105.532 103.903 118.088 103.277 118.01C102.108 117.865 85.1611 101.395 76.7911 79.6116C69.5224 60.694 73.083 42.3495 77.0878 38.9668C81.0926 35.5841 83.051 28.6292 99.5726 28.9974Z" fill="#E33854" stroke="#E33854" stroke-width="3"/>
<ellipse cx="95.9219" cy="57.9166" rx="13" ry="11.5" transform="rotate(25 95.9219 57.9166)" fill="url(#paint0_radial_173_1195)"/>
<path d="M336.593 369.583C370.916 365.244 399.432 338.621 407.511 304.413C408.511 299.972 409.239 295.468 409.537 290.918C411.849 256.175 392.916 223.19 361.522 208.775C330.128 194.36 292.125 201.937 267.918 227.432C243.711 252.926 237.425 292.406 252.881 323.925C268.318 355.413 302.111 373.938 336.593 369.583Z" fill="#F9F07C"/>
<path fill-rule="evenodd" clip-rule="evenodd" d="M412.389 305.539C420.589 269.235 405.846 231.032 375.45 210.716C345.055 190.4 303.359 192.055 274.127 215.036C244.895 238.016 232.232 278.253 243.529 313.962C254.826 349.67 287.395 374.284 324.034 375.31C360.108 376.312 394.579 353.347 408.159 319.029C409.902 314.627 411.3 310.145 412.389 305.539ZM336.593 369.583C370.916 365.244 399.432 338.621 407.511 304.413C408.511 299.972 409.239 295.468 409.537 290.918C411.849 256.175 392.916 223.19 361.522 208.775C330.128 194.36 292.125 201.937 267.918 227.432C243.711 252.926 237.425 292.406 252.881 323.925C268.318 355.413 302.111 373.938 336.593 369.583Z" fill="#565656"/>
<path d="M295.325 257.941C295.439 257.447 295.559 256.929 295.648 256.429C295.747 255.775 295.852 255.097 295.774 254.429C295.731 254.055 295.675 253.626 295.529 253.253C295.267 252.595 295.079 252.291 294.631 251.771C294.363 251.476 294.029 251.242 293.69 251.034C293.511 250.915 293.29 250.864 293.1 250.794C292.884 250.718 292.675 250.618 292.43 250.561C291.817 250.419 291.092 250.538 290.547 250.881C290.003 251.223 289.555 251.822 289.437 252.445C289.319 253.069 289.386 253.786 289.749 254.339C290.112 254.891 290.639 255.298 291.301 255.451C291.423 255.48 291.546 255.508 291.669 255.536L291.054 255.29C291.201 255.324 291.337 255.407 291.467 255.516L290.935 255.133C291.046 255.21 291.152 255.313 291.233 255.41L290.828 254.926C290.828 254.926 290.965 255.114 291.016 255.229L290.762 254.651C290.826 254.821 290.89 254.992 290.929 255.157L290.821 254.508C290.875 254.833 290.875 255.171 290.831 255.473L290.881 254.808C290.806 255.467 290.652 256.134 290.504 256.776C290.356 257.418 290.477 258.123 290.816 258.669C291.155 259.216 291.749 259.665 292.368 259.782C292.987 259.899 293.7 259.829 294.25 259.462C294.8 259.095 295.207 258.564 295.361 257.897L295.325 257.941Z" fill="#565656"/>
<path d="M359.81 274.302C360.301 275.088 360.889 275.793 361.537 276.46C361.935 276.862 362.364 277.246 362.702 277.686L362.296 277.204C362.434 277.391 362.572 277.579 362.674 277.809L362.419 277.233C362.489 277.378 362.534 277.518 362.574 277.682L362.464 277.036C362.504 277.201 362.489 277.378 362.479 277.531L362.529 276.87C362.529 276.87 362.472 277.116 362.444 277.238C362.296 277.877 362.419 278.578 362.759 279.122C363.08 279.636 363.694 280.114 364.314 280.231C364.933 280.348 365.647 280.281 366.197 279.916C366.747 279.551 367.153 279.024 367.306 278.361C367.613 277.035 367.367 275.633 366.504 274.554C366.122 274.078 365.71 273.621 365.263 273.207C364.908 272.84 364.547 272.498 364.227 272.088L364.634 272.57C364.39 272.281 364.176 271.973 363.988 271.671C363.648 271.127 363.071 270.709 362.433 270.562C361.794 270.414 361.069 270.531 360.549 270.877C360.03 271.223 359.563 271.788 359.44 272.432C359.317 273.076 359.396 273.741 359.755 274.315L359.81 274.302Z" fill="#565656"/>
<path d="M313.365 380.133C313.857 423.626 305.499 466.588 301.939 509.836C301.675 513.118 306.681 512.841 306.963 509.59C310.523 466.342 318.881 423.38 318.389 379.887C318.345 376.587 313.32 376.833 313.365 380.133Z" fill="#565656"/>
<path d="M354.864 374.355C366.78 391.084 374.896 410.383 383.116 429.229C391.336 448.075 398.518 465.7 409.958 481.577C411.839 484.186 416.11 481.485 414.21 478.845C402.608 462.772 394.982 443.931 387.065 425.791C379.148 407.652 370.871 388.156 359.092 371.618C357.217 368.984 352.94 371.71 354.84 374.35L354.864 374.355Z" fill="#565656"/>
<path d="M405.26 337.706C420.772 349.245 439.594 354.294 456.418 363.396C467.906 369.597 476.459 380.102 487.964 386.228C492.552 388.67 498.011 390.035 502.146 386.032C504.478 383.779 500.816 380.351 498.514 382.585C494.639 386.36 486.725 379.707 483.719 377.474C477.652 372.916 472.064 367.739 465.882 363.338C448.346 350.81 426.049 347.019 408.685 334.088C406.119 332.191 402.664 335.829 405.249 337.756L405.26 337.706Z" fill="#565656"/>
<path d="M423.59 290.763C439.409 293.153 455.515 293.622 471.518 292.966C487.52 292.309 502.96 290.61 518.254 286.729C521.398 285.924 519.935 281.021 516.798 281.8C501.92 285.563 486.584 287.152 471.336 287.794C456.089 288.437 440.119 288.053 424.756 285.715C421.599 285.228 420.409 290.27 423.59 290.763Z" fill="#565656"/>
<path d="M380.079 201.691C391.138 190.945 400.112 177.328 405.709 162.851C406.879 159.803 402.513 157.388 401.318 160.43C395.852 174.565 387.246 187.71 376.454 198.2C374.109 200.499 377.74 203.965 380.079 201.691Z" fill="#565656"/>
<path d="M309.758 186.237C312.503 173.896 310.916 160.555 307.875 148.46C305.056 137.314 300.481 124.786 291.615 117.148C289.168 115.054 285.724 118.742 288.165 120.861C296.429 127.964 300.476 139.632 303.088 149.992C305.92 161.195 307.427 173.647 304.884 185.112C304.174 188.298 309.042 189.448 309.758 186.237Z" fill="#565656"/>
<path d="M246.642 231.281C222.574 219.26 194.602 223.135 169.009 217.382C165.879 216.659 164.722 221.558 167.882 222.262C192.927 227.914 220.738 223.95 244.273 235.692C247.159 237.137 249.552 232.731 246.666 231.286L246.642 231.281Z" fill="#565656"/>
<path d="M211.139 284.614C183.022 290.707 154.852 296.921 127.86 307.354C124.844 308.512 126.282 313.401 129.329 312.224C156.296 301.785 184.485 295.602 212.608 289.483C215.771 288.81 214.278 283.934 211.139 284.614Z" fill="#565656"/>
<path d="M258.459 395.584C251.952 408.561 246.487 422.204 240.965 435.648C239.72 438.676 244.128 441.099 245.373 438.071C250.895 424.628 256.329 411.004 262.867 398.007C264.353 395.061 259.939 392.663 258.459 395.584Z" fill="#565656"/>
<path d="M292.629 329.739C295.722 338.473 302.891 345.388 312.25 346.637C321.609 347.886 330.944 343.402 336.742 335.809C338.679 333.262 335.07 329.799 333.103 332.365C328.425 338.472 321.275 342.706 313.38 341.742C305.485 340.779 299.911 335.378 297.404 328.264C296.341 325.232 291.541 326.702 292.623 329.764L292.629 329.739Z" fill="#565656"/>
<defs>
<radialGradient id="paint0_radial_173_1195" cx="0" cy="0" r="1" gradientUnits="userSpaceOnUse" gradientTransform="translate(95.9219 57.9166) rotate(90) scale(11.5 13)">
<stop stop-color="#F96A81"/>
<stop offset="1" stop-color="#E33854"/>
</radialGradient>
</defs>
</svg>
