<svg width="264" height="343" viewBox="0 0 264 343" fill="none" xmlns="http://www.w3.org/2000/svg">
<path d="M206.045 66.7312C206.976 70.5872 208.383 80.1018 208.751 86.9367C209.342 97.9102 213.881 107.602 216.607 113.661C217.761 116.163 219.646 119.537 217.842 123.718" stroke="#5D7982" stroke-width="2"/>
<path d="M207.933 18.6618C200.605 18.8219 197.583 25.7882 196.988 29.2514C191.653 26.1055 185.259 21.4459 177.278 27.0486C170.647 31.7043 171.454 38.135 173.956 44.8693C176.086 50.602 180.606 55.3123 185.716 58.3726C190.547 61.2654 205.559 68.2644 205.905 68.2214C206.554 68.1408 215.944 58.9758 220.577 46.8497C224.601 36.3189 222.622 26.1039 220.401 24.2193C218.18 22.3347 217.092 18.4618 207.933 18.6618Z" fill="#E33854" stroke="#E33854"/>
<ellipse cx="7" cy="6.5" rx="7" ry="6.5" transform="matrix(-0.906308 0.422618 0.422618 0.906308 214 26)" fill="url(#paint0_radial_168_5412)"/>
<path d="M145.035 242.586C164.238 240.237 180.156 225.546 184.626 206.627C185.178 204.171 185.579 201.68 185.739 199.162C186.98 179.938 176.334 161.654 158.743 153.629C141.151 145.604 119.894 149.74 106.385 163.812C92.8766 177.885 89.4186 199.724 98.1165 217.191C106.804 234.641 125.744 244.944 145.035 242.586Z" fill="#F9F07C"/>
<path fill-rule="evenodd" clip-rule="evenodd" d="M187.358 207.258C191.891 187.179 183.582 166.014 166.541 154.725C149.499 143.435 126.167 144.288 109.842 156.962C93.5169 169.635 86.491 191.884 92.8676 211.663C99.2442 231.442 117.509 245.113 138.016 245.737C158.206 246.346 177.462 233.689 185.011 214.717C185.979 212.283 186.755 209.805 187.358 207.258ZM145.035 242.586C164.238 240.237 180.156 225.546 184.626 206.627C185.178 204.171 185.579 201.68 185.739 199.162C186.98 179.938 176.334 161.654 158.743 153.629C141.151 145.604 119.894 149.74 106.385 163.812C92.8766 177.885 89.4186 199.724 98.1165 217.191C106.804 234.641 125.744 244.944 145.035 242.586Z" fill="#565656"/>
<path d="M122.066 180.437C122.13 180.162 122.196 179.874 122.245 179.596C122.3 179.233 122.357 178.856 122.31 178.484C122.285 178.276 122.251 178.037 122.166 177.829C122.015 177.462 121.906 177.292 121.649 177.002C121.495 176.836 121.304 176.705 121.109 176.588C121.007 176.521 120.88 176.492 120.771 176.452C120.648 176.409 120.529 176.353 120.388 176.321C120.038 176.24 119.625 176.303 119.315 176.492C119.006 176.681 118.752 177.012 118.687 177.359C118.622 177.705 118.663 178.104 118.872 178.413C119.081 178.721 119.383 178.95 119.761 179.037C119.831 179.054 119.901 179.07 119.971 179.086L119.62 178.947C119.704 178.966 119.782 179.013 119.856 179.074L119.551 178.859C119.615 178.902 119.676 178.96 119.722 179.014L119.49 178.743C119.49 178.743 119.569 178.848 119.598 178.913L119.451 178.59C119.488 178.685 119.525 178.781 119.548 178.873L119.484 178.511C119.516 178.692 119.517 178.88 119.493 179.048L119.519 178.678C119.479 179.044 119.394 179.415 119.311 179.772C119.229 180.128 119.301 180.521 119.496 180.826C119.691 181.131 120.032 181.383 120.385 181.45C120.739 181.518 121.146 181.482 121.458 181.279C121.771 181.077 122.001 180.783 122.087 180.412L122.066 180.437Z" fill="#565656"/>
<path d="M156.894 190.39C157.167 190.827 157.494 191.218 157.854 191.589C158.075 191.812 158.313 192.026 158.501 192.27L158.276 192.002C158.352 192.106 158.429 192.21 158.486 192.338L158.344 192.018C158.383 192.099 158.408 192.177 158.43 192.268L158.369 191.909C158.391 192 158.383 192.099 158.377 192.184L158.405 191.817C158.405 191.817 158.373 191.953 158.358 192.021C158.276 192.376 158.344 192.766 158.533 193.068C158.711 193.353 159.052 193.619 159.396 193.684C159.741 193.749 160.137 193.711 160.443 193.509C160.748 193.306 160.974 193.013 161.059 192.645C161.229 191.908 161.093 191.129 160.613 190.53C160.401 190.266 160.172 190.012 159.924 189.782C159.726 189.578 159.526 189.388 159.349 189.16L159.574 189.428C159.439 189.267 159.32 189.096 159.215 188.928C159.026 188.626 158.706 188.394 158.352 188.312C157.997 188.23 157.594 188.295 157.305 188.487C157.016 188.679 156.757 188.993 156.689 189.351C156.621 189.709 156.665 190.078 156.864 190.397L156.894 190.39Z" fill="#565656"/>
<path d="M131.65 248.731C132.052 272.779 127.455 296.509 125.568 320.41C125.429 322.224 128.254 322.085 128.404 320.288C130.291 296.387 134.888 272.657 134.486 248.609C134.452 246.784 131.616 246.906 131.65 248.731Z" fill="#565656"/>
<path d="M154.922 245.424C161.519 254.728 166.007 265.466 170.553 275.95C175.1 286.435 179.072 296.241 185.405 305.071C186.446 306.522 188.815 305.017 187.764 303.548C181.341 294.609 177.124 284.126 172.745 274.035C168.366 263.943 163.788 253.097 157.267 243.898C156.229 242.433 153.857 243.953 154.909 245.421L154.922 245.424Z" fill="#565656"/>
<path d="M182.148 225.631C190.849 232.086 201.404 234.916 210.841 240.011C217.284 243.481 222.083 249.356 228.536 252.785C231.11 254.152 234.171 254.917 236.487 252.682C237.794 251.424 235.739 249.506 234.45 250.754C232.279 252.862 227.839 249.14 226.153 247.891C222.749 245.341 219.614 242.445 216.146 239.982C206.31 232.973 193.807 230.845 184.066 223.61C182.627 222.549 180.692 224.58 182.141 225.658L182.148 225.631Z" fill="#565656"/>
<path d="M192.705 197.887C201.524 199.25 210.492 199.587 219.396 199.322C228.301 199.058 236.886 198.232 245.379 196.24C247.124 195.827 246.284 193.198 244.541 193.597C236.28 195.529 227.752 196.295 219.268 196.557C210.784 196.818 201.892 196.527 193.327 195.194C191.567 194.917 190.932 197.606 192.705 197.887Z" fill="#565656"/>
<path d="M168.711 149.273C175.004 143.245 180.101 135.597 183.269 127.458C183.931 125.745 181.433 124.377 180.757 126.087C177.664 134.034 172.775 141.417 166.634 147.301C165.3 148.59 167.38 150.549 168.711 149.273Z" fill="#565656"/>
<path d="M130.448 140.433C131.987 133.515 131.066 126.029 129.323 119.239C127.707 112.982 125.093 105.948 120.052 101.649C118.661 100.471 116.713 102.535 118.101 103.727C122.799 107.724 125.113 114.276 126.61 120.091C128.234 126.38 129.107 133.367 127.682 139.795C127.285 141.581 130.048 142.233 130.448 140.433Z" fill="#565656"/>
<path d="M93.5886 166.222C80.2373 159.614 64.7549 161.675 50.5711 158.486C48.8363 158.085 48.205 160.758 49.9565 161.148C63.8367 164.281 79.2297 162.171 92.2855 168.626C93.8861 169.42 95.2029 167.02 93.6022 166.225L93.5886 166.222Z" fill="#565656"/>
<path d="M74.7432 195.788C59.0963 199.289 43.4193 202.857 28.3884 208.806C26.7088 209.467 27.4984 212.225 29.1949 211.553C44.2121 205.601 59.8995 202.05 75.5497 198.535C77.3103 198.148 76.4901 195.398 74.7432 195.788Z" fill="#565656"/>
<path d="M101.007 257.972C97.4264 265.291 94.4055 272.977 91.3543 280.552C90.6664 282.258 93.0325 283.595 93.7205 281.889C96.7717 274.314 99.776 266.639 103.373 259.309C104.19 257.648 101.821 256.325 101.007 257.972Z" fill="#565656"/>
<path d="M120.248 221.257C121.976 226.067 125.965 229.881 131.164 230.58C136.362 231.278 141.54 228.822 144.75 224.651C145.823 223.252 143.814 221.342 142.725 222.751C140.135 226.106 136.17 228.427 131.785 227.887C127.4 227.348 124.299 224.369 122.898 220.451C122.304 218.781 119.64 219.584 120.245 221.271L120.248 221.257Z" fill="#565656"/>
<defs>
<radialGradient id="paint0_radial_168_5412" cx="0" cy="0" r="1" gradientUnits="userSpaceOnUse" gradientTransform="translate(7 6.5) rotate(90) scale(6.5 7)">
<stop stop-color="#F96A81"/>
<stop offset="1" stop-color="#E33854"/>
</radialGradient>
</defs>
</svg>
