<svg width="116" height="108" viewBox="0 0 116 108" fill="none" xmlns="http://www.w3.org/2000/svg">
<path d="M9.40647 87.6626C9.44573 87.6437 9.45228 87.6122 9.43265 87.5806L9.0596 86.9687C8.94834 86.7858 8.8829 86.6155 8.85018 86.4388C8.824 86.2622 8.83055 86.0982 8.86981 85.9468C8.90908 85.7891 8.98761 85.6503 9.09233 85.5178C9.19704 85.3853 9.33448 85.2781 9.49809 85.1835C9.66171 85.0888 9.82533 85.0321 9.99549 85.0131C10.1656 84.9879 10.3293 85.0005 10.4929 85.0384C10.6565 85.0825 10.807 85.1582 10.951 85.2655C11.095 85.3727 11.2193 85.5178 11.324 85.6944L11.985 86.7795C12.0112 86.8299 12.0047 86.8678 11.9523 86.893L8.26116 88.9874C8.22189 89.0126 8.18262 89 8.15644 88.9495L7.01769 87.0823C6.99151 87.0318 6.99151 87.0003 7.03732 86.975L7.35146 86.7984C7.39727 86.7732 7.43654 86.7858 7.46272 86.8299L8.30698 88.2178C8.32661 88.2493 8.35279 88.2556 8.38551 88.2367L9.40647 87.6626ZM10.8725 85.9531C10.8136 85.8584 10.7416 85.7764 10.6565 85.7197C10.5714 85.6566 10.4798 85.6187 10.3816 85.5935C10.2834 85.5746 10.1853 85.5683 10.0871 85.5809C9.98894 85.5935 9.89077 85.625 9.80569 85.6755C9.57663 85.808 9.43919 85.9657 9.39993 86.1549C9.36066 86.3442 9.39338 86.5334 9.51118 86.7227L9.88423 87.3346C9.90386 87.3661 9.93004 87.3724 9.9693 87.3535L11.2259 86.6407C11.2586 86.6218 11.2651 86.5965 11.2455 86.5587L10.8725 85.9531Z" fill="black"/>
<path d="M6.34688 84.2793C6.36871 84.3118 6.39781 84.3183 6.44148 84.3053L7.37296 83.9084C7.91875 83.6742 8.36994 83.4985 8.74108 83.3749C9.10494 83.2513 9.42514 83.1862 9.68712 83.1667C9.9491 83.1472 10.1747 83.1732 10.3712 83.2513C10.5677 83.3293 10.7642 83.4465 10.9606 83.6091C10.9679 83.6156 10.9825 83.6287 10.9897 83.6482C11.0116 83.6872 10.997 83.7262 10.9606 83.7588L10.7278 83.9735C10.7205 83.9735 10.7205 83.98 10.7132 83.98C10.7132 83.9865 10.7059 83.9865 10.6987 83.9865C10.6768 83.9995 10.6477 83.9995 10.6259 83.9865C10.5968 83.9735 10.5749 83.9605 10.5531 83.9475C10.4585 83.8889 10.3712 83.8369 10.2911 83.7913C10.2111 83.7458 10.1165 83.7197 10.0146 83.7002C9.91271 83.6872 9.789 83.6807 9.65801 83.6937C9.51974 83.7067 9.35964 83.7393 9.17043 83.7978C8.98123 83.8499 8.75564 83.928 8.49366 84.0256C8.23168 84.1232 7.92603 84.2533 7.56945 84.4029L6.20133 84.9885C6.15039 85.0145 6.10672 84.995 6.07761 84.943L5.01515 82.965C4.98604 82.9129 5.00059 82.8804 5.04425 82.8544L9.33781 81.013C9.39603 80.987 9.4397 81 9.4688 81.0521L9.67984 81.4424C9.70167 81.488 9.6944 81.527 9.63618 81.5466L5.83746 83.1797C5.7938 83.1992 5.77926 83.2252 5.80109 83.2578L6.34688 84.2793Z" fill="black"/>
<path d="M8.09494 77.4006C8.1155 77.4535 8.11549 77.4888 8.08123 77.5005L7.25215 77.9999C7.23845 78.0117 7.2316 78.0234 7.2316 78.0352L7.71123 79.1045C7.71808 79.1221 7.72494 79.128 7.73179 79.128C7.73864 79.128 7.7455 79.128 7.75235 79.1339L8.75957 79.0222C8.79383 79.0164 8.82124 79.034 8.84179 79.0869L8.98567 79.4159C8.99938 79.4453 9.00624 79.4747 8.99253 79.4923C8.98568 79.5099 8.95827 79.5217 8.9103 79.5275L4.36067 79.9976C4.33326 80.0034 4.31271 79.9976 4.29215 79.9917C4.2716 79.9858 4.25104 79.9623 4.23734 79.9329L4.01123 79.4218C3.99067 79.3748 3.99752 79.3336 4.03863 79.3101L7.7866 77.0305C7.80715 77.0129 7.83456 77.007 7.86197 77.0011C7.88938 76.9952 7.91679 77.0129 7.93049 77.0481L8.09494 77.4006ZM5.71734 79.3513L7.13567 79.1985C7.16308 79.1926 7.17679 79.1926 7.18364 79.1868C7.19049 79.1809 7.19049 79.1691 7.17678 79.1515L6.80679 78.3172C6.79993 78.2996 6.78623 78.2878 6.77937 78.2819C6.77252 78.2819 6.75197 78.2878 6.73142 78.2996L5.5803 78.9811L4.76493 79.4394C4.75123 79.4453 4.75123 79.457 4.75123 79.4629C4.75123 79.4688 4.75808 79.4747 4.77178 79.4747L5.71734 79.3513Z" fill="black"/>
<path d="M2.5135 74.0542L2.99933 75.376C3.01264 75.4081 3.03259 75.4188 3.07252 75.4081L6.75947 74.5305C6.81937 74.5144 6.85265 74.5305 6.86596 74.5733L6.99241 74.9158C7.01237 74.9586 6.9924 74.9907 6.93916 75.0014L2.75974 75.9968C2.7065 76.0075 2.67322 75.9914 2.65991 75.9486L2.00771 74.1773C1.98774 74.1345 2.0077 74.1023 2.05429 74.0916L2.41367 74.006C2.46026 73.99 2.49353 74.006 2.5135 74.0542Z" fill="black"/>
<path d="M4.30169 69.031C4.51149 68.994 4.70683 68.9879 4.88769 69.0248C5.06855 69.0617 5.22771 69.1233 5.3724 69.2156C5.51709 69.3079 5.63285 69.4248 5.73413 69.5663C5.83541 69.7078 5.90776 69.8678 5.95117 70.0463C5.99458 70.2247 6.00904 70.397 5.99457 70.5632C5.97287 70.7232 5.92946 70.877 5.84264 71.0124C5.76306 71.1477 5.64731 71.2647 5.49539 71.357C5.34346 71.4493 5.1626 71.517 4.94557 71.56L2.68838 71.9723C2.47858 72.0092 2.29049 72.0092 2.10963 71.9723C1.92876 71.9354 1.76959 71.8739 1.6249 71.7816C1.48021 71.6893 1.36446 71.5723 1.26317 71.4308C1.16189 71.2893 1.08955 71.1293 1.04615 70.957C1.00274 70.7847 0.988267 70.6186 1.00997 70.4524C1.03167 70.2924 1.07508 70.1386 1.16189 70.0032C1.24147 69.8678 1.35723 69.7509 1.50916 69.6525C1.66108 69.554 1.84195 69.4863 2.05175 69.4494L4.30169 69.031ZM2.20367 69.997C1.9794 70.0401 1.813 70.1386 1.70448 70.2924C1.58873 70.4462 1.55979 70.6309 1.61767 70.8401C1.67555 71.0554 1.7913 71.2154 1.97217 71.3139C2.15303 71.4123 2.3556 71.4431 2.57264 71.4062L4.80087 70.9939C5.03237 70.9508 5.20601 70.8585 5.31452 70.7109C5.42304 70.5632 5.45198 70.3786 5.3941 70.1509C5.33623 69.9294 5.22048 69.7694 5.04685 69.6709C4.87322 69.5725 4.67064 69.5417 4.43914 69.5848L2.20367 69.997Z" fill="black"/>
<path d="M0.555015 65.0801L0.696983 66.0833C0.704081 66.132 0.725381 66.146 0.767972 66.146L4.82831 65.6096C4.8922 65.6026 4.9277 65.6235 4.9348 65.6792L4.99868 66.146C5.00578 66.2087 4.98449 66.2435 4.9277 66.2504L0.867351 66.7868C0.817661 66.7938 0.803456 66.8147 0.803456 66.8565L0.93833 67.8457C0.945428 67.9084 0.924139 67.9432 0.867351 67.9502L0.484025 67.9989C0.427237 68.0059 0.391745 67.978 0.384646 67.9223L0.00133108 65.1637C-0.00576743 65.101 0.0155255 65.0662 0.0652151 65.0592L0.46273 65.0035C0.519519 64.9896 0.547916 65.0174 0.555015 65.0801Z" fill="black"/>
<path d="M3.35851 61.004C3.57627 60.9907 3.77224 61.0107 3.96096 61.064C4.14242 61.1174 4.30211 61.1974 4.44002 61.3042C4.57793 61.4109 4.6868 61.5443 4.76664 61.7044C4.84648 61.8645 4.89729 62.0379 4.91181 62.238L4.9989 63.6521C5.00616 63.7122 4.97713 63.7388 4.91906 63.7455L0.179342 63.999C0.121275 64.0057 0.0922486 63.979 0.0849902 63.9256L0.00514759 62.6116C-0.0238859 62.218 0.0704694 61.8978 0.273704 61.651C0.476939 61.4109 0.789044 61.2775 1.21003 61.2508C1.29713 61.2441 1.38423 61.2508 1.47133 61.2708C1.56569 61.2908 1.6528 61.3175 1.7399 61.3575C1.827 61.3976 1.90684 61.4442 1.98668 61.4976C2.06652 61.551 2.13185 61.611 2.18992 61.6777C2.21169 61.6844 2.22621 61.6844 2.24798 61.6644C2.3496 61.4576 2.50203 61.2975 2.70527 61.1841C2.90124 61.0774 3.12625 61.0173 3.35851 61.004ZM1.2173 61.8578C1.0068 61.8711 0.839854 61.9379 0.72372 62.0579C0.607586 62.1847 0.556783 62.3581 0.5713 62.5782L0.614849 63.2853C0.614849 63.3253 0.636621 63.3453 0.680171 63.3386L1.97943 63.2719C2.03024 63.2719 2.05201 63.2519 2.04475 63.2119L2.0012 62.4915C1.98668 62.2647 1.90684 62.0979 1.74715 61.9912C1.59473 61.8978 1.42053 61.8511 1.2173 61.8578ZM3.41658 61.611C3.30771 61.6177 3.19883 61.6377 3.08996 61.671C2.98108 61.7044 2.88672 61.7511 2.81414 61.8245C2.73429 61.8912 2.67623 61.9779 2.62542 62.0846C2.58187 62.1913 2.5601 62.3181 2.56735 62.4648L2.6109 63.1986C2.6109 63.2386 2.63993 63.2586 2.67623 63.2519L4.30211 63.1652C4.35291 63.1652 4.37469 63.1452 4.36743 63.1052L4.31663 62.2914C4.30211 62.0646 4.215 61.8978 4.0408 61.7778C3.88838 61.651 3.67063 61.5977 3.41658 61.611Z" fill="black"/>
<path d="M3.68294 56.0432C3.89867 56.0503 4.09284 56.0855 4.25104 56.1702C4.41644 56.2478 4.55307 56.3536 4.66813 56.4877C4.78319 56.6217 4.86947 56.7769 4.91981 56.9603C4.97734 57.1367 5.00611 57.3342 4.99891 57.5459C4.99172 57.7575 4.96296 57.955 4.89824 58.1314C4.83352 58.3078 4.74723 58.463 4.63217 58.597C4.51711 58.731 4.37329 58.8298 4.2007 58.9003C4.02811 58.9709 3.83396 59.0062 3.61103 58.9991L1.31706 58.9568C1.10852 58.9497 0.921552 58.9074 0.756156 58.8298C0.59076 58.7451 0.454128 58.6393 0.33907 58.5053C0.224012 58.3713 0.137718 58.216 0.0801887 58.0326C0.0226598 57.8492 -0.00610517 57.6587 0.00108596 57.4541C0.00827708 57.2496 0.0370411 57.0661 0.101761 56.8827C0.166481 56.7063 0.252771 56.5511 0.367829 56.4171C0.482887 56.2831 0.626714 56.1772 0.799301 56.1067C0.971888 56.0291 1.15886 55.9938 1.38178 56.0009L3.68294 56.0432ZM1.38898 56.6499C1.15886 56.6429 0.971887 56.7134 0.820873 56.8616C0.66986 57.0097 0.590756 57.2072 0.583565 57.4541C0.576374 57.7081 0.648287 57.9127 0.799301 58.0608C0.943123 58.216 1.1301 58.2936 1.35302 58.2936L3.61103 58.336C3.84834 58.343 4.0425 58.2725 4.18632 58.1314C4.33734 57.9903 4.40924 57.7928 4.41643 57.5247C4.42363 57.2637 4.35172 57.0591 4.2079 56.9109C4.06407 56.7628 3.8771 56.6852 3.63979 56.6781L1.38898 56.6499Z" fill="black"/>
<path d="M1.75987 52.0087C1.95773 52.0285 2.14093 52.0812 2.30948 52.1602C2.47802 52.2458 2.61725 52.3512 2.7345 52.483C2.85175 52.6147 2.93969 52.7662 2.99831 52.9374C3.05694 53.1087 3.0716 53.2865 3.04961 53.4841L2.97633 54.1493C2.969 54.1889 2.99099 54.2086 3.04229 54.2152L4.91096 54.3865C4.97691 54.393 5.00623 54.426 4.9989 54.4853L4.9476 54.92C4.94027 54.9792 4.91095 55.0056 4.85233 54.999L0.0817166 54.5511C0.0230915 54.5445 -0.00622149 54.5116 0.00110665 54.4589L0.140343 53.2272C0.162327 53.0165 0.220957 52.832 0.316222 52.674C0.411488 52.5159 0.528731 52.3842 0.675294 52.2788C0.821857 52.1734 0.983081 52.1009 1.17361 52.0548C1.34949 52.0021 1.54735 51.989 1.75987 52.0087ZM0.638651 53.932C0.631323 53.9781 0.653309 53.9979 0.697277 54.0044L2.32412 54.1559C2.37542 54.1625 2.39741 54.1428 2.40473 54.1032L2.47802 53.438C2.50733 53.2141 2.4487 53.023 2.30214 52.8716C2.16291 52.7201 1.9504 52.6279 1.67926 52.6081C1.57666 52.6015 1.47406 52.6015 1.36414 52.6279C1.25422 52.6476 1.15162 52.6871 1.06368 52.7398C0.975747 52.7925 0.895143 52.865 0.82919 52.9572C0.763236 53.0428 0.726593 53.1548 0.711937 53.2799L0.638651 53.932Z" fill="black"/>
<path d="M1.05776 50.1354C1.01079 50.1281 0.990662 50.0918 1.00408 50.0265L1.0846 49.584C1.09131 49.526 1.12486 49.5042 1.17854 49.5115L4.37897 50.1571C4.38568 50.1571 4.3924 50.1571 4.3924 50.1499C4.3924 50.1426 4.38568 50.1354 4.37897 50.1281L1.54085 47.6688C1.51401 47.6325 1.48717 47.6035 1.47375 47.5745C1.45362 47.5454 1.45362 47.4947 1.46704 47.4366L1.52742 47.0739C1.53413 47.0158 1.56768 46.9941 1.62136 47.0013L5.93559 47.8792C5.98927 47.8864 6.00939 47.9299 5.99597 47.988L5.91546 48.4378C5.90875 48.4958 5.86849 48.5176 5.81481 48.5031L2.57412 47.8429C2.5607 47.8429 2.56069 47.8501 2.5674 47.8647C3.03036 48.2564 3.51345 48.6699 4.01666 49.0979C4.51988 49.5332 5.00296 49.9467 5.47263 50.3312C5.5196 50.3675 5.54643 50.3965 5.55314 50.4256C5.55985 50.4473 5.55315 50.4908 5.54644 50.5634L5.48605 50.9189C5.47263 50.9842 5.43908 51.0059 5.3854 50.9987L1.05776 50.1354Z" fill="black"/>
<path d="M3.26683 42.2083L3.00191 43.194C2.98797 43.2363 3.00191 43.2644 3.04374 43.2785L6.92674 44.3416C6.98251 44.3557 7.01039 44.3909 6.99645 44.4472L6.87097 44.9049C6.85703 44.9612 6.82217 44.9894 6.7664 44.9753L2.8834 43.9122C2.84158 43.8981 2.8137 43.9122 2.79975 43.9544L2.53484 44.926C2.5209 44.9823 2.48605 45.0105 2.43028 44.9964L2.0608 44.8978C2.00503 44.8838 1.99109 44.8486 2.00503 44.7852L2.737 42.0746C2.75095 42.0112 2.78581 41.9901 2.83461 42.0042L3.21105 42.1098C3.25985 42.1098 3.28077 42.145 3.26683 42.2083Z" fill="black"/>
<path d="M7.99262 39.6029L7.20568 41.9369C7.186 41.9921 7.15322 42.0128 7.10076 41.9921L3.05459 40.4868C3.00213 40.466 2.98901 40.4315 3.00868 40.3763L3.78251 38.0699C3.80218 38.0078 3.84152 37.9871 3.88743 38.0078L4.22188 38.1321C4.27434 38.1528 4.29402 38.1942 4.27435 38.2495L3.6907 39.9896C3.67758 40.031 3.69069 40.0517 3.72348 40.0655L4.88422 40.5006C4.92356 40.5144 4.94324 40.5075 4.95635 40.473L5.44164 39.0367C5.46131 38.9814 5.4941 38.9607 5.55312 38.9814L5.89412 39.1057C5.94658 39.1264 5.9597 39.161 5.94003 39.2093L5.45474 40.6456C5.44163 40.687 5.45475 40.7077 5.4941 40.7285L6.81222 41.2187C6.85156 41.2325 6.87779 41.2256 6.89091 41.1911L7.48767 39.4234C7.50734 39.3681 7.54013 39.3474 7.5926 39.3681L7.9336 39.4924C7.99262 39.5062 8.0123 39.5476 7.99262 39.6029Z" fill="black"/>
<path d="M5.68023 35.9732C5.66706 36.0083 5.67365 36.0364 5.71314 36.0575L6.56218 36.4645C7.0624 36.7032 7.46389 36.9137 7.77323 37.1032C8.08258 37.2927 8.31952 37.4752 8.48407 37.6507C8.64861 37.8332 8.76708 38.0157 8.81973 38.2122C8.87239 38.4087 8.89872 38.6333 8.88555 38.9C8.88555 38.9141 8.87897 38.9281 8.87239 38.9492C8.85264 38.9913 8.81973 39.0053 8.77365 38.9983L8.47748 38.9702C8.4709 38.9702 8.47089 38.9702 8.46431 38.9702C8.45773 38.9702 8.45115 38.9702 8.45115 38.9702C8.43141 38.9562 8.41166 38.9421 8.40508 38.9141C8.3985 38.886 8.39192 38.8579 8.3985 38.8298C8.39192 38.7175 8.38533 38.6193 8.36559 38.528C8.35243 38.4368 8.31952 38.3455 8.27344 38.2613C8.22737 38.1701 8.16156 38.0859 8.06941 37.9946C7.98385 37.9034 7.85879 37.8051 7.70741 37.7068C7.55603 37.6086 7.36516 37.4893 7.1348 37.37C6.90444 37.2436 6.628 37.1032 6.30549 36.9488L5.04838 36.3452C5.00231 36.3242 4.98914 36.2821 5.00888 36.2259L5.91717 34.0642C5.9435 34.008 5.97641 33.987 6.0159 34.008L9.94521 35.889C9.99786 35.9171 10.011 35.9522 9.99129 36.0083L9.81358 36.4365C9.79383 36.4856 9.75435 36.4996 9.70827 36.4786L6.23309 34.8152C6.1936 34.7941 6.16728 34.8081 6.14754 34.8432L5.68023 35.9732Z" fill="black"/>
<path d="M8.8845 32.3265C8.92601 32.3448 8.95368 32.3387 8.97443 32.3082L9.3826 31.6614C9.49329 31.4845 9.61782 31.3441 9.77002 31.2465C9.9153 31.1428 10.0744 31.0757 10.2404 31.0329C10.4065 30.9963 10.5794 30.9902 10.7593 31.0146C10.9392 31.039 11.1121 31.094 11.2851 31.1794C11.458 31.2648 11.6033 31.3685 11.714 31.4906C11.8247 31.6126 11.9077 31.7529 11.9561 31.9055C12.0046 32.058 12.0115 32.2166 11.9838 32.3814C11.9561 32.5522 11.887 32.717 11.7832 32.8939L11.1191 33.9556C11.0914 34.0044 11.0499 34.0105 10.9945 33.9861L7.03736 32.0519C6.99585 32.0275 6.98893 31.997 7.0166 31.9482L7.23106 31.6004C7.25874 31.5516 7.30025 31.5394 7.34176 31.5638L8.8845 32.3265ZM11.292 32.6559C11.3474 32.5644 11.3889 32.4668 11.4027 32.3692C11.4165 32.2715 11.4027 32.18 11.375 32.0885C11.3404 32.0031 11.292 31.9177 11.2297 31.8444C11.1606 31.7712 11.0845 31.7102 10.9876 31.6675C10.7386 31.5455 10.5172 31.515 10.3165 31.576C10.1159 31.637 9.9568 31.759 9.8392 31.9421L9.46562 32.54C9.44487 32.5705 9.4587 32.5949 9.49329 32.6193L10.8354 33.2783C10.87 33.2966 10.8977 33.2844 10.9253 33.2539L11.292 32.6559Z" fill="black"/>
<path d="M13.985 28.6498L13.747 29.0226C13.7157 29.07 13.6782 29.0836 13.6406 29.0497L12.1441 27.945C12.1128 27.9179 12.0815 27.9247 12.0627 27.9586L11.2362 29.2734C11.2174 29.3072 11.2236 29.3343 11.2549 29.3614L12.7452 30.4593C12.789 30.4932 12.8015 30.5339 12.7702 30.5746L12.5323 30.9541C12.501 31.0015 12.4634 31.0151 12.4258 30.9812L9.03835 28.4872C8.99452 28.4533 8.98826 28.4194 9.01957 28.372L9.2575 27.9993C9.28881 27.9518 9.32012 27.9383 9.35769 27.9654L10.7415 28.9819C10.7728 29.009 10.8041 29.0023 10.8229 28.9684L11.6494 27.6536C11.6682 27.6197 11.6619 27.5926 11.6306 27.5655L10.2531 26.5489C10.2093 26.5151 10.203 26.4812 10.2343 26.4337L10.4722 26.0542C10.5035 26 10.5411 25.9864 10.5787 26.0136L13.9662 28.5075C14.0038 28.5618 14.01 28.6024 13.985 28.6498Z" fill="black"/>
<path d="M13.7639 23.753C13.7977 23.7804 13.8248 23.7804 13.8518 23.753L14.4 23.0865C14.5286 22.9284 14.6707 22.8048 14.8332 22.7223C14.9888 22.6399 15.1512 22.5918 15.3204 22.578C15.4896 22.5643 15.6588 22.5918 15.8212 22.6467C15.9904 22.7086 16.1461 22.7979 16.295 22.9216C16.4438 23.0452 16.5589 23.1895 16.6401 23.3476C16.7213 23.5056 16.7755 23.6705 16.789 23.8492C16.8025 24.0278 16.7822 24.2064 16.7213 24.3851C16.6604 24.5637 16.5589 24.7424 16.4235 24.9142L15.5641 25.9654C15.5302 26.0067 15.4896 26.0135 15.4422 25.9723L12.0314 23.1002C11.9908 23.0659 11.9908 23.0315 12.0246 22.9903L12.3021 22.6467C12.3427 22.5986 12.3765 22.5918 12.4171 22.6261L13.7639 23.753ZM17.9598 22.8941C18.0072 22.9353 18.0139 22.9765 17.9733 23.0178L17.6756 23.3751C17.635 23.4232 17.5943 23.43 17.5537 23.3888L14.1429 20.5167C14.1023 20.4824 14.0955 20.4411 14.1361 20.393L14.4339 20.0357C14.4677 19.9945 14.5083 19.9876 14.5421 20.022L17.9598 22.8941ZM16.004 24.5637C16.0784 24.4675 16.1325 24.3713 16.1664 24.2614C16.2002 24.1515 16.207 24.0484 16.2002 23.9454C16.1867 23.8423 16.1596 23.7392 16.1122 23.6499C16.0649 23.5537 15.9972 23.4781 15.916 23.4094C15.6994 23.2308 15.4896 23.1552 15.2866 23.1895C15.0768 23.2239 14.9008 23.327 14.7519 23.5125L14.2647 24.1034C14.2376 24.1309 14.2444 24.1652 14.2782 24.1927L15.4355 25.1684C15.4693 25.1959 15.4964 25.189 15.5235 25.1546L16.004 24.5637Z" fill="black"/>
<path d="M16.0361 18.3283C16.0145 18.3066 16.0072 18.2921 16 18.2703C16 18.2486 16.0072 18.2268 16.0361 18.1979L16.1518 18.0819C16.1807 18.0529 16.2096 18.0384 16.2241 18.0456C16.2458 18.0456 16.2675 18.0601 16.3036 18.0819C16.4482 18.1544 16.5783 18.1979 16.6867 18.1906C16.8024 18.1906 16.9108 18.1326 17.0192 18.0239C17.2216 17.8209 17.2433 17.5817 17.0771 17.3063C17.0554 17.27 17.0482 17.2483 17.0409 17.2265C17.0337 17.2121 17.0482 17.1831 17.0843 17.1541L17.2 17.0381C17.2289 17.0091 17.2578 16.9946 17.2722 17.0018C17.2939 17.0018 17.3084 17.0163 17.3301 17.0381C17.4168 17.1323 17.4891 17.241 17.5397 17.3643C17.5903 17.4803 17.6192 17.6035 17.6264 17.7195C17.6337 17.8354 17.612 17.9514 17.5686 18.0674C17.5252 18.1834 17.453 18.2848 17.359 18.3863C17.265 18.4733 17.171 18.5385 17.0554 18.582C16.9469 18.6255 16.8241 18.64 16.7084 18.64C16.5927 18.6328 16.4699 18.611 16.3542 18.5603C16.2385 18.4878 16.1301 18.4153 16.0361 18.3283ZM16.3759 19.6186C16.3397 19.5823 16.3397 19.5388 16.3903 19.4953L16.7084 19.1764C16.7518 19.1329 16.7951 19.1329 16.8313 19.1764L19.3035 21.6699C19.3107 21.6771 19.3179 21.6771 19.3179 21.6699C19.3179 21.6627 19.3179 21.6554 19.3179 21.6409L18.183 17.8789C18.1758 17.8354 18.1758 17.7919 18.1758 17.7557C18.1758 17.7195 18.1975 17.6832 18.2481 17.6325L18.5083 17.3715C18.5517 17.328 18.5879 17.328 18.6312 17.3715L21.9709 20.7348C22.0142 20.7783 22.007 20.8218 21.9636 20.8653L21.6383 21.1842C21.595 21.2277 21.5516 21.2205 21.5082 21.177L18.9999 18.6545C18.9854 18.64 18.9854 18.6473 18.9854 18.669C19.1734 19.2706 19.3758 19.9085 19.5782 20.5754C19.7806 21.2422 19.983 21.8801 20.1709 22.4817C20.1926 22.5397 20.1998 22.5832 20.1926 22.605C20.1854 22.6267 20.1565 22.663 20.1059 22.7137L19.8529 22.9674C19.8095 23.0109 19.7589 23.0109 19.7155 22.9674L16.3759 19.6186Z" fill="black"/>
<path d="M25.7746 13.472C25.8774 13.5982 25.9391 13.7442 25.9734 13.9036C26.0076 14.0629 26.0076 14.2222 25.9802 14.3816C25.9528 14.5409 25.898 14.7002 25.8089 14.8529C25.7197 15.0056 25.6101 15.1384 25.473 15.2579C25.4387 15.2911 25.4318 15.3309 25.4592 15.3641L25.6512 15.6097C25.6855 15.6496 25.6786 15.6894 25.6443 15.7159L25.281 15.9815C25.2399 16.008 25.2056 16.008 25.1782 15.9682L24.9794 15.7159C24.9451 15.6761 24.904 15.6695 24.8629 15.7027C24.7121 15.8022 24.5475 15.8753 24.383 15.9151C24.2185 15.9549 24.054 15.9682 23.8895 15.9483C23.725 15.9284 23.5742 15.8819 23.4233 15.8022C23.2794 15.7226 23.1491 15.6164 23.0395 15.4769L22.2649 14.4878C22.1552 14.3484 22.0798 14.2023 22.0387 14.043C21.9975 13.8836 21.9907 13.731 22.0112 13.5783C22.0318 13.4256 22.0866 13.2729 22.1757 13.1202C22.258 12.9741 22.3814 12.8347 22.5253 12.7152C22.5596 12.6887 22.5665 12.6621 22.5459 12.6356L22.4431 12.5094C22.4088 12.4696 22.4157 12.4298 22.4568 12.3966L22.8133 12.131C22.8544 12.0978 22.8955 12.1045 22.9229 12.1443L23.0258 12.2771C23.0463 12.3036 23.0737 12.3103 23.1012 12.2837C23.2725 12.1709 23.4439 12.0912 23.6153 12.0514C23.7867 12.0049 23.958 11.9916 24.1225 12.0049C24.2871 12.0182 24.4447 12.0713 24.5887 12.1509C24.7326 12.2306 24.8629 12.3435 24.9726 12.4829L25.7746 13.472ZM22.9641 13.1401C22.9366 13.1069 22.9024 13.1003 22.8681 13.1268C22.683 13.2729 22.587 13.4389 22.5802 13.6247C22.5665 13.8106 22.6145 13.97 22.7241 14.1027L23.533 15.1384C23.6358 15.2711 23.7866 15.3575 23.9717 15.3906C24.1568 15.4238 24.3488 15.384 24.5407 15.2711C24.575 15.2446 24.5818 15.218 24.5613 15.1848L22.9641 13.1401ZM24.4927 12.8082C24.4379 12.7351 24.3693 12.6754 24.2939 12.6223C24.2185 12.5758 24.1363 12.5426 24.054 12.5227C23.9649 12.5094 23.8689 12.5161 23.7661 12.536C23.6633 12.5625 23.5604 12.6156 23.4439 12.6953C23.4165 12.7152 23.4096 12.7418 23.4302 12.7683L25.0342 14.8131C25.0617 14.8463 25.0959 14.8529 25.1371 14.8197C25.281 14.6803 25.377 14.521 25.425 14.3417C25.4661 14.1625 25.425 13.9899 25.3016 13.8305L24.4927 12.8082Z" fill="black"/>
<path d="M29.7924 12.1351C29.9018 12.2912 29.9702 12.4413 29.9908 12.5914C30.0113 12.7415 29.9976 12.8916 29.9497 13.0297C29.9018 13.1738 29.8197 13.3059 29.7034 13.426C29.5871 13.5521 29.4435 13.6602 29.2656 13.7563C29.0946 13.8523 28.9167 13.9184 28.7388 13.9604C28.561 14.0024 28.3899 14.0084 28.2258 13.9904C28.0547 13.9724 27.8974 13.9184 27.7537 13.8343C27.6101 13.7503 27.4801 13.6302 27.3638 13.4741L26.2008 11.8529C26.0913 11.7028 26.0298 11.5527 26.0092 11.4026C25.9887 11.2525 26.0024 11.1024 26.0503 10.9583C26.0982 10.8142 26.1803 10.6821 26.2966 10.562C26.4129 10.4359 26.5565 10.3278 26.7276 10.2377C26.8917 10.1477 27.0628 10.0816 27.2406 10.0396C27.4185 9.99756 27.5895 9.99156 27.7606 10.0096C27.9316 10.0276 28.0889 10.0816 28.2394 10.1597C28.3899 10.2437 28.5199 10.3638 28.6294 10.5139L29.7924 12.1351ZM28.1026 10.8202C27.9863 10.658 27.829 10.562 27.6306 10.5259C27.4322 10.4899 27.2338 10.5259 27.0286 10.64C26.8233 10.7541 26.6933 10.8982 26.6455 11.0723C26.5976 11.2465 26.6318 11.4146 26.7412 11.5707L27.8837 13.1678C28.0068 13.336 28.1574 13.438 28.3489 13.4741C28.5405 13.5101 28.7457 13.4741 28.9578 13.354C29.1698 13.2399 29.2998 13.0958 29.3477 12.9217C29.3956 12.7535 29.3614 12.5854 29.2382 12.4173L28.1026 10.8202Z" fill="black"/>
<path d="M34.9467 10.8243L34.5115 11.0129C34.4535 11.038 34.41 11.0255 34.3882 10.9815L33.4381 9.35971C33.4164 9.32199 33.3873 9.30942 33.3511 9.32827L31.8352 9.99458C31.799 10.0134 31.7917 10.0386 31.8135 10.0763L32.7563 11.6918C32.7854 11.742 32.7708 11.7798 32.7201 11.7986L32.2849 11.9872C32.2269 12.0123 32.1834 11.9998 32.1616 11.9558L30.0148 8.28483C29.9858 8.24083 30.0003 8.20311 30.0511 8.18425L30.4862 7.99568C30.5442 7.97054 30.5805 7.97682 30.6095 8.02082L31.4871 9.51685C31.5089 9.55457 31.5379 9.56714 31.5741 9.54828L33.09 8.88198C33.1262 8.86312 33.1335 8.83798 33.1117 8.80027L32.2414 7.30423C32.2124 7.26023 32.2269 7.22252 32.2777 7.20366L32.7128 7.01509C32.7781 6.98994 32.8144 6.99623 32.8434 7.03394L34.9902 10.7049C35.012 10.7614 34.9975 10.7992 34.9467 10.8243Z" fill="black"/>
<path d="M36.7991 10.7024C36.8209 10.7652 36.8281 10.8029 36.8136 10.8217C36.7991 10.8405 36.7773 10.8531 36.741 10.8657L36.3999 10.985C36.3636 10.9975 36.3346 11.0038 36.3128 10.9975C36.2911 10.9913 36.2693 10.9724 36.2475 10.9347L35.7613 9.88606C35.7322 9.82326 35.725 9.77931 35.7322 9.75419C35.7468 9.72907 35.7685 9.70395 35.8048 9.66627L35.9137 9.57208C36.0371 9.47789 36.0951 9.33974 36.1024 9.15763C36.1096 8.9818 36.0733 8.7683 35.9935 8.5234C35.95 8.38525 35.9064 8.2471 35.8484 8.09639C35.7976 7.95196 35.7322 7.77613 35.6597 7.58146C35.5871 7.3868 35.4927 7.16073 35.3911 6.89699C35.2823 6.63325 35.1589 6.32555 35.0137 5.96134C34.9992 5.9111 34.992 5.87343 35.0137 5.84831C35.0283 5.82319 35.0573 5.80435 35.1081 5.78551L37.3289 5.01313C37.3725 5.00057 37.4087 4.99429 37.4378 5.00685C37.4668 5.01312 37.4958 5.04453 37.5176 5.08848L39.0562 8.3978C39.0635 8.40408 39.0707 8.41664 39.078 8.4292C39.0925 8.44176 39.107 8.44804 39.1288 8.44176L39.2812 8.38525C39.3393 8.36641 39.3755 8.36641 39.3973 8.37897C39.4191 8.39152 39.4409 8.42292 39.4554 8.46688L39.9779 9.5972C39.9997 9.65999 40.007 9.69767 39.9924 9.71023C39.9779 9.72279 39.9562 9.73535 39.9199 9.74791L39.5933 9.86094C39.557 9.8735 39.5207 9.87978 39.4989 9.8735C39.4772 9.86722 39.4481 9.83582 39.4191 9.78558L39.0853 9.06344C39.0635 9.03832 39.049 9.02576 39.0272 9.02576C39.0054 9.02576 38.9836 9.03204 38.9546 9.0446L36.5306 9.88606C36.487 9.89862 36.4653 9.91746 36.458 9.93001C36.458 9.94257 36.458 9.96769 36.4653 10.0054L36.7991 10.7024ZM35.783 6.09949C35.754 6.10577 35.7468 6.12461 35.7468 6.14345C35.7468 6.16229 35.7468 6.17484 35.754 6.1874C35.8121 6.33811 35.8846 6.50766 35.9572 6.69605C36.0298 6.88443 36.1096 7.07282 36.1895 7.26121C36.2693 7.44959 36.3419 7.63798 36.4072 7.8138C36.4725 7.98963 36.5306 8.1529 36.5741 8.28477C36.5886 8.34757 36.6104 8.42292 36.6322 8.49828C36.654 8.57991 36.6685 8.66155 36.683 8.74946C36.6975 8.83737 36.7048 8.92529 36.712 9.00692C36.712 9.09483 36.712 9.17019 36.6975 9.24554C36.6902 9.27694 36.7048 9.28322 36.7556 9.27066L38.4103 8.69294C38.4175 8.68666 38.4321 8.68038 38.4466 8.6741C38.4611 8.66155 38.4611 8.64271 38.4466 8.61131L37.1039 5.72272C37.0821 5.67248 37.0386 5.65992 36.9733 5.67876L35.783 6.09949Z" fill="black"/>
<path d="M45.1673 3.30198C45.1978 3.32376 45.2161 3.35279 45.2161 3.37457C45.2222 3.39635 45.21 3.43264 45.1856 3.4762L44.9903 3.80286C44.978 3.8319 44.9536 3.83916 44.9292 3.84642C44.8987 3.84642 44.8743 3.83916 44.8499 3.81738C44.7461 3.72301 44.624 3.65768 44.4836 3.62864C44.3432 3.59234 44.2028 3.59961 44.0685 3.64316C43.8609 3.70849 43.7144 3.82464 43.6351 3.99886C43.5557 4.17308 43.5374 4.36907 43.5862 4.59411L44.0746 6.84443C44.1234 7.06221 44.2211 7.22191 44.3737 7.32354C44.5263 7.42517 44.7034 7.44694 44.917 7.38161C45.0513 7.33805 45.1673 7.25821 45.2649 7.14206C45.3626 7.02592 45.442 6.91703 45.4969 6.80088C45.5091 6.76459 45.5274 6.73555 45.5458 6.70651C45.5641 6.68474 45.5946 6.67748 45.6373 6.69925L45.9547 6.87347C45.9731 6.88073 45.9792 6.89525 45.9914 6.91702C45.9975 6.9388 46.0036 6.96784 45.9975 6.98962C45.912 7.22917 45.7838 7.43242 45.619 7.59212C45.4481 7.75182 45.2588 7.86797 45.0452 7.9333C44.8743 7.98412 44.7033 8.0059 44.5446 7.99864C44.3798 7.99138 44.2333 7.94782 44.1051 7.86797C43.9708 7.78812 43.8548 7.67924 43.7572 7.53406C43.6595 7.38887 43.5863 7.21465 43.5374 7.00414L43.043 4.74655C43.0002 4.54329 42.988 4.35455 43.0124 4.17308C43.0369 3.9916 43.0857 3.8319 43.165 3.68671C43.2444 3.54153 43.3482 3.41813 43.4825 3.30924C43.6168 3.20036 43.7633 3.1205 43.9403 3.06969C44.1418 3.01162 44.3432 2.98984 44.5446 3.00436C44.7461 3.02613 44.9536 3.12776 45.1673 3.30198Z" fill="black"/>
<path d="M49.9798 5.36588C50.0113 5.58235 50.005 5.77717 49.9672 5.95035C49.923 6.13074 49.8536 6.28227 49.7589 6.42658C49.6579 6.56368 49.538 6.67913 49.3865 6.77294C49.235 6.86674 49.071 6.93168 48.8816 6.96776C48.6923 7.00384 48.5155 7.01105 48.3514 6.98219C48.1873 6.95333 48.0359 6.90282 47.897 6.80901C47.7582 6.72242 47.6446 6.59976 47.5562 6.44823C47.4678 6.2967 47.4047 6.10909 47.3668 5.89262L47.0197 3.6269C46.9882 3.41765 46.9945 3.22283 47.0387 3.04965C47.0828 2.86926 47.1523 2.71052 47.2532 2.57342C47.3542 2.43632 47.4741 2.32087 47.6256 2.22706C47.7708 2.13326 47.9412 2.06832 48.1179 2.03224C48.2946 1.99616 48.465 1.98895 48.6355 2.01781C48.7995 2.04667 48.951 2.09718 49.0899 2.19099C49.2287 2.27758 49.3423 2.40024 49.437 2.55177C49.5317 2.7033 49.5948 2.8909 49.6264 3.10016L49.9798 5.36588ZM49.0583 3.23004C49.0268 3.00636 48.9321 2.83318 48.7743 2.71773C48.6165 2.59506 48.4335 2.55899 48.2126 2.60228C47.9917 2.64558 47.8213 2.75381 47.714 2.9342C47.6067 3.10738 47.5688 3.30942 47.6004 3.52589L47.9412 5.76274C47.9791 5.99364 48.0674 6.17404 48.2189 6.28949C48.3641 6.40494 48.5597 6.44101 48.7869 6.39772C49.0141 6.35442 49.1846 6.24619 49.2918 6.07302C49.3991 5.90706 49.437 5.70501 49.3991 5.4669L49.0583 3.23004Z" fill="black"/>
<path d="M51.6829 6.80698C51.6829 6.87592 51.6759 6.92417 51.6618 6.93796C51.6478 6.95174 51.6198 6.95864 51.5847 6.96553L51.2341 7C51.192 7 51.1639 7 51.1499 6.98621C51.1359 6.97242 51.1219 6.94485 51.1148 6.90349L51.0026 5.66264C50.9956 5.58682 51.0026 5.53856 51.0237 5.51788C51.0447 5.4972 51.0728 5.46963 51.1148 5.44895L51.2481 5.3869C51.3954 5.31797 51.4935 5.19388 51.5567 5.00776C51.6198 4.82163 51.6548 4.58725 51.6618 4.3115C51.6689 4.15985 51.6689 3.9944 51.6689 3.82895C51.6689 3.65661 51.6618 3.4636 51.6548 3.23611C51.6478 3.00862 51.6408 2.74666 51.6268 2.44335C51.6128 2.14003 51.5987 1.78156 51.5777 1.36105C51.5777 1.30591 51.5917 1.26454 51.6128 1.24386C51.6338 1.22318 51.6689 1.20939 51.718 1.2025L54.0252 1.00259C54.0743 0.995692 54.1094 1.00258 54.1304 1.02327C54.1585 1.04395 54.1725 1.07842 54.1725 1.13356L54.5301 5.02844C54.5301 5.03533 54.5372 5.04912 54.5442 5.0698C54.5512 5.08358 54.5652 5.09737 54.5862 5.09048L54.7475 5.07669C54.8036 5.0698 54.8387 5.07669 54.8527 5.10427C54.8668 5.12495 54.8808 5.15941 54.8808 5.21456L55 6.54502C55 6.61396 54.993 6.65532 54.979 6.66911C54.9579 6.68289 54.9369 6.68979 54.9018 6.68979L54.5652 6.71736C54.5231 6.72425 54.4951 6.71736 54.474 6.70358C54.453 6.68979 54.439 6.65532 54.4249 6.59328L54.3478 5.73847C54.3408 5.70401 54.3268 5.68332 54.3057 5.68332C54.2847 5.68332 54.2636 5.67643 54.2356 5.68332L51.725 5.90392C51.6759 5.91081 51.6548 5.91771 51.6478 5.93149C51.6408 5.94528 51.6338 5.97286 51.6268 6.01422L51.6829 6.80698ZM52.2299 1.68505C52.2018 1.68505 52.1878 1.69884 52.1808 1.71952C52.1738 1.7402 52.1738 1.75399 52.1738 1.76777C52.1808 1.94701 52.1878 2.14003 52.1948 2.36062C52.2018 2.58122 52.2159 2.79492 52.2229 3.0224C52.2299 3.243 52.2369 3.4567 52.2439 3.66351C52.2439 3.87031 52.2509 4.04955 52.2439 4.2081C52.2369 4.27704 52.2369 4.35976 52.2299 4.44937C52.2229 4.53899 52.2089 4.62861 52.1948 4.72512C52.1808 4.82163 52.1598 4.91125 52.1387 5.00776C52.1107 5.09737 52.0826 5.1801 52.0476 5.25593C52.0335 5.29039 52.0476 5.30418 52.0896 5.29729L53.8008 5.14563C53.8078 5.14563 53.8218 5.13874 53.8429 5.13184C53.8639 5.12495 53.8709 5.10426 53.8639 5.0698L53.5553 1.66437C53.5483 1.60233 53.5133 1.57475 53.4431 1.58165L52.2299 1.68505Z" fill="black"/>
<path d="M58.9082 5.98529L56.1315 6C56.0619 6 56.0309 5.97059 56.0309 5.91176L56 1.10294C56 1.04412 56.0309 1.01471 56.1006 1.01471L58.8386 1C58.9082 1 58.9468 1.02941 58.9468 1.08824V1.4853C58.9468 1.55147 58.9159 1.58088 58.8463 1.58088L56.7812 1.59559C56.7348 1.59559 56.7116 1.61765 56.7116 1.66177L56.7193 3.04412C56.7193 3.08823 56.7425 3.1103 56.7812 3.1103L58.4905 3.10294C58.5601 3.10294 58.5911 3.13235 58.5911 3.19853V3.60294C58.5911 3.66176 58.5601 3.69118 58.4983 3.69118L56.7889 3.69853C56.7425 3.69853 56.7193 3.72059 56.7193 3.77206L56.727 5.33823C56.727 5.38971 56.7502 5.41176 56.7889 5.41176L58.8927 5.39706C58.9623 5.39706 58.9933 5.42647 58.9933 5.48529V5.8897C59.0165 5.95588 58.9778 5.98529 58.9082 5.98529Z" fill="black"/>
<path d="M61.3038 1.13791C61.31 1.08916 61.3347 1.0613 61.3904 1.06827L61.7736 1.10308C61.8231 1.11005 61.8478 1.13791 61.8416 1.19362L61.6191 4.56432C61.6191 4.57824 61.6191 4.57825 61.6253 4.57825C61.6315 4.57825 61.6376 4.57128 61.6376 4.55735L63.4304 1.36773C63.4551 1.33291 63.4798 1.30505 63.5045 1.28416C63.5293 1.26326 63.5664 1.2563 63.622 1.2563L63.9311 1.28416C63.9805 1.29112 64.0052 1.31898 63.9991 1.37469L63.7024 5.92234C63.6962 5.97806 63.6714 6.00591 63.6158 5.99895L63.2263 5.96413C63.1769 5.95717 63.1522 5.92931 63.1584 5.86663L63.3809 2.45415C63.3809 2.44022 63.3747 2.44022 63.3623 2.45415C63.078 2.97647 62.7813 3.51968 62.466 4.08378C62.1507 4.65485 61.854 5.19806 61.5696 5.71342C61.5449 5.76913 61.5202 5.79699 61.5016 5.81092C61.4831 5.81788 61.446 5.82485 61.3842 5.81788L61.0751 5.79002C61.0195 5.78306 60.9947 5.7552 61.0009 5.69253L61.3038 1.13791ZM61.9467 0.0793387C61.9467 0.0514817 61.9529 0.0305915 61.9653 0.0166631C61.9776 0.00273456 61.9962 -0.00423267 62.0333 0.00273158L62.1755 0.0166631C62.2125 0.0166631 62.2311 0.0305922 62.2434 0.0445207C62.2496 0.0584492 62.2558 0.0863066 62.2682 0.121128C62.2991 0.274341 62.3486 0.385769 62.4104 0.46934C62.4784 0.552911 62.5711 0.594694 62.7009 0.608623C62.942 0.629516 63.1089 0.490233 63.1954 0.197735C63.2078 0.162914 63.214 0.135056 63.2263 0.121128C63.2325 0.107199 63.2573 0.100232 63.3005 0.107196L63.4427 0.121128C63.4798 0.121128 63.4984 0.135057 63.5107 0.148985C63.5169 0.162914 63.5231 0.183804 63.5169 0.211661C63.5045 0.337018 63.4736 0.455411 63.4242 0.566839C63.3747 0.678267 63.3191 0.775764 63.2449 0.852371C63.1707 0.928977 63.0842 0.991657 62.9914 1.03344C62.8925 1.07523 62.7874 1.08916 62.67 1.08219C62.5649 1.07523 62.466 1.04041 62.3733 0.984693C62.2867 0.928979 62.2064 0.852374 62.1445 0.768803C62.0827 0.678268 62.0333 0.573801 61.9962 0.455409C61.9529 0.330052 61.9406 0.204695 61.9467 0.0793387Z" fill="black"/>
<path d="M67.9735 2.79482C67.9934 2.83098 68 2.85992 68 2.88162C68 2.90332 67.9735 2.93225 67.927 2.96118L67.6152 3.16371C67.5953 3.17818 67.5687 3.18541 67.5355 3.17094C67.5023 3.15647 67.4825 3.13478 67.4692 3.10585C67.4028 2.96841 67.3033 2.85268 67.1706 2.75865C67.0379 2.66462 66.8985 2.59952 66.7526 2.57782C66.5203 2.54166 66.3345 2.57783 66.1952 2.70079C66.0492 2.82375 65.963 2.99734 65.9298 3.22157L65.6046 5.50726C65.5715 5.72425 65.6179 5.91955 65.7307 6.08591C65.8435 6.25227 66.016 6.35353 66.2483 6.39693C66.4009 6.41863 66.5469 6.40417 66.6862 6.3463C66.8255 6.28843 66.945 6.22334 67.0379 6.14377C67.0644 6.11484 67.091 6.09314 67.1241 6.07868C67.1507 6.06421 67.1839 6.07867 67.217 6.11484L67.4692 6.42587C67.4825 6.44033 67.4891 6.46203 67.4891 6.48373C67.4891 6.51266 67.4825 6.53436 67.4692 6.55606C67.2967 6.73689 67.0976 6.85986 66.872 6.93219C66.6464 7.00452 66.4142 7.01899 66.1819 6.97559C65.9895 6.94666 65.817 6.88156 65.6577 6.80199C65.4985 6.7152 65.3658 6.60669 65.2662 6.4765C65.1601 6.3463 65.0871 6.18717 65.0406 6.01358C64.9942 5.83998 64.9876 5.64469 65.0207 5.42769L65.3459 3.13478C65.3724 2.93225 65.4321 2.75142 65.525 2.59952C65.6113 2.44762 65.7241 2.31743 65.8568 2.2234C65.9895 2.12937 66.1421 2.06427 66.308 2.0281C66.4805 1.99194 66.6597 1.99194 66.8521 2.02087C67.071 2.05704 67.2834 2.1366 67.4758 2.2451C67.6483 2.34636 67.8208 2.53442 67.9735 2.79482Z" fill="black"/>
<path d="M72.8072 3.18404L71.8119 2.95365C71.7699 2.94667 71.7418 2.96064 71.7278 2.99555L70.8166 6.92605C70.8026 6.98889 70.7676 7.00983 70.7115 6.99587L70.2489 6.89114C70.1928 6.87718 70.1648 6.84228 70.1788 6.78643L71.09 2.85592C71.097 2.81403 71.083 2.78611 71.0479 2.77214L70.0737 2.54873C70.0176 2.53477 69.9896 2.49987 70.0036 2.44402L70.0877 2.06702C70.1017 2.01117 70.1367 1.99023 70.1998 2.00419L72.9264 2.63251C72.9824 2.64648 73.0104 2.68138 72.9964 2.73025L72.9053 3.11423C72.8983 3.17706 72.8633 3.198 72.8072 3.18404Z" fill="black"/>
<path d="M76.408 7.00049C76.3415 7.20096 76.2456 7.36686 76.1274 7.51202C76.0093 7.65719 75.869 7.76779 75.7066 7.85074C75.5442 7.93369 75.367 7.98208 75.175 7.99591C74.9831 8.00973 74.7837 7.98899 74.5696 7.92678L73.0709 7.48437C73.0118 7.46363 72.9897 7.42907 73.0044 7.37377L74.4515 3.06029C74.4663 3.00499 74.5032 2.99116 74.5622 3.00499L75.9502 3.41283C76.3711 3.53726 76.6664 3.73081 76.8436 4.00041C77.0208 4.27 77.0503 4.59489 76.9174 4.982C76.8879 5.05804 76.851 5.13408 76.7993 5.21012C76.7476 5.28616 76.6812 5.35528 76.6073 5.4175C76.5335 5.47971 76.4523 5.53501 76.3711 5.59031C76.2825 5.6387 76.2013 5.68018 76.1127 5.70783C76.0979 5.72165 76.0905 5.74239 76.1053 5.76313C76.2825 5.92903 76.3932 6.12258 76.4375 6.34379C76.4892 6.56499 76.4818 6.7862 76.408 7.00049ZM75.7583 6.82767C75.7952 6.72399 75.81 6.62029 75.8173 6.5166C75.8247 6.406 75.8026 6.30922 75.7657 6.21245C75.7214 6.11567 75.6549 6.03272 75.5663 5.94977C75.4703 5.86682 75.3522 5.80461 75.1972 5.76313L74.422 5.53501C74.3777 5.52119 74.3555 5.53501 74.3407 5.57649L73.8461 7.05579C73.8313 7.09726 73.8461 7.12492 73.883 7.13874L74.7394 7.39451C74.9757 7.46364 75.1898 7.44981 75.3744 7.33921C75.5516 7.22861 75.6771 7.0627 75.7583 6.82767ZM76.2899 4.78153C76.3563 4.58798 76.3415 4.41516 76.2603 4.26308C76.1717 4.11101 76.0167 4.00041 75.7731 3.93128L75.02 3.71008C74.9757 3.69625 74.9535 3.71008 74.9388 3.75155L74.5401 4.93361C74.5253 4.97509 74.5401 5.00274 74.577 5.01656L75.3375 5.23777C75.5811 5.30689 75.7804 5.29307 75.9502 5.19629C76.12 5.10643 76.2308 4.96126 76.2899 4.78153Z" fill="black"/>
<path d="M78.5147 5.0419C78.533 4.99742 78.5634 4.99107 78.6182 5.01013L78.9714 5.16262C79.0201 5.18168 79.0323 5.21345 79.014 5.26428L77.8937 8.11709C77.8937 8.12344 77.8937 8.12979 77.8937 8.12979C77.8997 8.12979 77.9058 8.12344 77.9119 8.11709L80.4571 5.91871C80.4876 5.89965 80.518 5.88059 80.5484 5.86788C80.5789 5.85517 80.6154 5.86152 80.6641 5.88058L80.9503 6.00131C80.9929 6.02037 81.0112 6.05214 80.9929 6.10297L79.4829 9.9533C79.4646 9.99778 79.4281 10.0105 79.3794 9.99142L79.0262 9.83893C78.9836 9.81987 78.9714 9.78175 78.9897 9.73092L80.1222 6.83999C80.1283 6.82729 80.1222 6.82728 80.1039 6.83364C79.696 7.1958 79.2698 7.57067 78.8192 7.9646C78.3686 8.35853 77.9423 8.73339 77.5344 9.09555C77.4979 9.13368 77.4613 9.15274 77.4431 9.15274C77.4248 9.15274 77.3883 9.14638 77.3335 9.12097L77.0534 9.00025C77.0047 8.98119 76.9864 8.94307 77.0107 8.89224L78.5147 5.0419Z" fill="black"/>
<path d="M82.7984 7.73712C82.8909 7.56385 83.0047 7.41136 83.147 7.30046C83.2822 7.18263 83.4387 7.09946 83.6094 7.05094C83.7802 7.00242 83.9581 6.98856 84.143 7.00936C84.328 7.03015 84.5201 7.09253 84.7193 7.18957L85.9431 7.7995C86 7.82722 86.0142 7.86881 85.9858 7.91733L83.8585 11.9512C83.83 11.9997 83.7944 12.0136 83.7375 11.9859L83.3177 11.7779C83.2608 11.7502 83.2466 11.7086 83.275 11.6532L84.1075 10.0729C84.1288 10.0313 84.1217 10.0036 84.0861 9.98279L83.3889 9.63623C83.3533 9.61544 83.3249 9.60851 83.3106 9.61544C83.2893 9.62237 83.275 9.6293 83.2537 9.65009L81.7027 10.8214C81.66 10.8492 81.6244 10.87 81.596 10.8769C81.5675 10.8838 81.5106 10.87 81.4323 10.8284L81.0979 10.662C81.0695 10.6482 81.041 10.6274 81.0125 10.5997C80.9841 10.5719 81.0054 10.5373 81.0624 10.4888L82.7414 9.23423C82.7557 9.2273 82.7557 9.21344 82.7486 9.18571C82.6561 8.97778 82.6063 8.74906 82.6063 8.49261C82.5991 8.25002 82.6632 7.99357 82.7984 7.73712ZM84.5344 7.71633C84.3992 7.64702 84.2711 7.61236 84.1502 7.60543C84.0292 7.5985 83.9154 7.61929 83.8158 7.65395C83.7162 7.69553 83.6237 7.75098 83.5454 7.82722C83.4671 7.90347 83.4031 7.98664 83.3604 8.06981C83.332 8.12526 83.3035 8.18764 83.2822 8.25695C83.2608 8.32626 83.2466 8.40251 83.2395 8.47875C83.2324 8.55499 83.2323 8.63816 83.2466 8.72133C83.2608 8.80451 83.2893 8.88075 83.332 8.95699C83.3391 8.97085 83.3533 8.99165 83.3675 9.00551C83.3818 9.01937 83.4031 9.03323 83.4244 9.04709L84.3423 9.50454C84.3778 9.52534 84.4063 9.51148 84.4276 9.46989L85.1534 8.0906C85.1747 8.05595 85.1605 8.02823 85.1178 8.00743L84.5344 7.71633Z" fill="black"/>
<path d="M92 12.2649C92 12.3013 92 12.3256 91.9865 12.3437C91.973 12.3619 91.9393 12.3741 91.8921 12.3801L91.5281 12.4165C91.5012 12.4226 91.4742 12.4105 91.454 12.3923C91.4338 12.368 91.4203 12.3437 91.4203 12.3195C91.4135 12.1921 91.3664 12.0648 91.2855 11.9375C91.2046 11.8101 91.1035 11.7131 90.9754 11.6343C90.7799 11.513 90.5912 11.4705 90.4092 11.5069C90.2272 11.5433 90.0789 11.6403 89.9643 11.798L88.7509 13.4049C88.6363 13.5565 88.5959 13.7203 88.6363 13.8961C88.6768 14.0659 88.7914 14.2115 88.9869 14.3327C89.1149 14.4116 89.2565 14.454 89.4048 14.4661C89.5598 14.4783 89.6946 14.4722 89.8092 14.454C89.8497 14.4419 89.8766 14.4419 89.9103 14.4419C89.9373 14.4419 89.9643 14.4601 89.9778 14.5025L90.0856 14.836C90.0924 14.8482 90.0923 14.8664 90.0789 14.8906C90.0654 14.9088 90.0519 14.927 90.0317 14.9331C89.8025 14.9998 89.5666 15.018 89.3306 14.9816C89.0947 14.9452 88.879 14.8664 88.6768 14.7451C88.515 14.6481 88.3734 14.5328 88.2656 14.4055C88.1577 14.2782 88.0768 14.1447 88.0364 14.0053C87.996 13.8658 87.9892 13.7142 88.0162 13.5626C88.0431 13.411 88.1173 13.2594 88.2319 13.1078L89.452 11.5009C89.5598 11.3553 89.6879 11.2462 89.8295 11.1613C89.971 11.0824 90.126 11.0279 90.2811 11.0097C90.4429 10.9915 90.6046 10.9975 90.7732 11.04C90.9417 11.0824 91.1102 11.1491 91.272 11.2522C91.4607 11.3674 91.6225 11.5069 91.7573 11.6706C91.8854 11.798 91.9663 12.0042 92 12.2649Z" fill="black"/>
<path d="M92.0068 17.9768L90.043 16.5127C89.9939 16.4733 89.9868 16.4405 90.0219 16.3945L92.8835 13.033C92.9185 12.9936 92.9606 12.9871 93.0097 13.0265L94.9525 14.4774C95.0016 14.5168 95.0156 14.5562 94.9805 14.5956L94.7421 14.8714C94.7 14.9173 94.6579 14.9239 94.6088 14.8845L93.143 13.7881C93.1079 13.7618 93.0798 13.7684 93.0588 13.7946L92.2382 14.7597C92.2102 14.7926 92.2102 14.8123 92.2382 14.8385L93.4516 15.7446C93.5007 15.7774 93.5077 15.8233 93.4656 15.8693L93.2271 16.1516C93.1921 16.191 93.15 16.1976 93.1079 16.1647L91.8946 15.2587C91.8595 15.2325 91.8314 15.239 91.8034 15.2718L90.8706 16.3683C90.8425 16.4011 90.8425 16.4274 90.8706 16.4536L92.3575 17.5632C92.4065 17.596 92.4136 17.6354 92.3785 17.6814L92.14 17.9637C92.098 18.0096 92.0559 18.0096 92.0068 17.9768Z" fill="black"/>
<path d="M96.7526 21.9691L96.4348 21.6669C96.3933 21.6257 96.3933 21.5913 96.4278 21.5501L98.4592 19.4276C98.4661 19.4208 98.4661 19.4139 98.4661 19.407C98.4661 19.4002 98.4523 19.4002 98.4454 19.4002L97.6024 19.8192L95.7645 20.6778C95.7438 20.6846 95.7231 20.6846 95.6885 20.6915C95.654 20.6984 95.6194 20.6846 95.5918 20.6572L95.3776 20.4511C95.35 20.4236 95.3293 20.3961 95.3223 20.3755C95.3154 20.3481 95.3223 20.3206 95.3362 20.2794L96.1031 18.4798L96.5038 17.5868C96.5038 17.5662 96.4969 17.5593 96.49 17.5731L94.4725 19.6818C94.431 19.723 94.3896 19.7299 94.3481 19.6887L94.0372 19.3933C93.9888 19.3521 93.9888 19.3109 94.0303 19.2697L97.105 16.0551C97.1741 15.9864 97.2362 15.9795 97.3053 16.0482L97.5195 16.2543C97.5748 16.3024 97.6024 16.3367 97.6024 16.3573C97.6024 16.3779 97.5955 16.4123 97.5817 16.4672L96.4417 19.1254L96.0755 19.9222C96.0686 19.9703 96.0824 19.984 96.1169 19.9771C96.2482 19.9153 96.3795 19.8466 96.5177 19.7711C96.6558 19.6955 96.7871 19.6268 96.9184 19.565L99.5163 18.3012C99.5647 18.2874 99.5992 18.2874 99.6269 18.2874C99.6545 18.2943 99.6891 18.3149 99.7236 18.3492L99.9447 18.5622C99.9862 18.6034 100 18.6377 100 18.6652C99.9931 18.6927 99.9793 18.727 99.9516 18.7545L96.877 21.9691C96.8355 22.0103 96.794 22.0103 96.7526 21.9691Z" fill="black"/>
<path d="M98.6057 24.962L97.0299 23.1147C96.99 23.0666 96.99 23.0254 97.0299 22.991L100.295 20.0243C100.334 19.9899 100.374 19.9899 100.414 20.038L101.97 21.8648C102.01 21.9128 102.01 21.954 101.97 21.9952L101.697 22.2425C101.651 22.2837 101.611 22.2768 101.571 22.2356L100.394 20.8552C100.368 20.8278 100.341 20.8209 100.308 20.8484L99.3704 21.6999C99.3438 21.7274 99.3371 21.7549 99.357 21.7823L100.328 22.9224C100.368 22.9704 100.361 23.0116 100.321 23.0528L100.049 23.3001C100.009 23.3344 99.9688 23.3344 99.9355 23.2932L98.9648 22.1532C98.9382 22.1257 98.9116 22.1257 98.8783 22.1532L97.8145 23.1215C97.7813 23.149 97.7746 23.1765 97.8012 23.2039L98.9914 24.6049C99.0313 24.653 99.0313 24.6942 98.9914 24.7285L98.7188 24.9757C98.6855 25.0101 98.6456 25.0101 98.6057 24.962Z" fill="black"/>
<path d="M103.652 23.1621C103.694 23.1362 103.735 23.1426 103.769 23.188L104.024 23.5122C104.058 23.5576 104.051 23.5901 104.01 23.6225L101.335 25.5028C101.328 25.5093 101.328 25.5093 101.328 25.5158C101.335 25.5158 101.342 25.5158 101.356 25.5158L105.042 24.9841C105.083 24.9841 105.124 24.9841 105.159 24.9906C105.193 24.9971 105.227 25.023 105.262 25.0684L105.468 25.3343C105.502 25.3732 105.495 25.4121 105.447 25.4445L101.844 27.9797C101.803 28.0122 101.761 28.0057 101.72 27.9603L101.459 27.6361C101.424 27.5972 101.431 27.5583 101.479 27.5194L104.189 25.6131C104.203 25.6066 104.196 25.6001 104.175 25.5936C103.584 25.6844 102.958 25.7817 102.305 25.8789C101.651 25.9762 101.026 26.067 100.434 26.1642C100.372 26.1772 100.331 26.1772 100.317 26.1642C100.297 26.1512 100.269 26.1253 100.228 26.0734L100.021 25.8141C99.9871 25.7687 99.994 25.7298 100.042 25.6909L103.652 23.1621ZM104.911 23.0259C104.932 23.013 104.952 23.0065 104.966 23C104.987 23 105.007 23.013 105.028 23.0454L105.124 23.1621C105.145 23.1945 105.159 23.214 105.152 23.2334C105.145 23.2529 105.131 23.2723 105.11 23.2983C105.021 23.415 104.966 23.5252 104.952 23.6225C104.938 23.7262 104.973 23.83 105.062 23.9402C105.227 24.1477 105.447 24.1931 105.729 24.0828C105.764 24.0699 105.791 24.0634 105.805 24.0634C105.819 24.0634 105.846 24.0764 105.874 24.1088L105.97 24.2255C105.998 24.2579 106.004 24.2774 105.998 24.2968C105.991 24.3098 105.977 24.3292 105.956 24.3422C105.853 24.407 105.743 24.4589 105.626 24.4848C105.509 24.5173 105.392 24.5237 105.282 24.5173C105.172 24.5043 105.062 24.4784 104.966 24.42C104.863 24.3681 104.773 24.2903 104.698 24.1931C104.629 24.1023 104.581 24.005 104.553 23.9013C104.533 23.7975 104.526 23.6938 104.546 23.5836C104.567 23.4798 104.608 23.3761 104.67 23.2788C104.732 23.188 104.815 23.1037 104.911 23.0259Z" fill="black"/>
<path d="M104.356 31.9523L104.138 31.5561C104.107 31.5004 104.113 31.4657 104.157 31.4309L105.7 30.3811C105.737 30.3603 105.743 30.3255 105.725 30.2908L104.962 28.9003C104.944 28.8655 104.919 28.8586 104.881 28.8864L103.344 29.9292C103.301 29.964 103.263 29.9501 103.238 29.9084L103.02 29.5121C102.988 29.4634 102.995 29.4217 103.038 29.387L106.531 27.0163C106.574 26.9885 106.606 26.9954 106.637 27.0441L106.855 27.4404C106.887 27.496 106.88 27.5307 106.843 27.5585L105.419 28.5249C105.381 28.5458 105.375 28.5805 105.394 28.6153L106.156 30.0057C106.174 30.0405 106.199 30.0474 106.237 30.0196L107.655 29.0533C107.699 29.0254 107.73 29.0324 107.761 29.0811L107.98 29.4773C108.011 29.533 108.005 29.5747 107.968 29.6025L104.475 31.9732C104.419 32.0149 104.381 32.0079 104.356 31.9523Z" fill="black"/>
<path d="M108.161 35.8416C107.961 35.9346 107.769 35.9918 107.578 35.9989C107.393 36.0061 107.209 35.9775 107.046 35.906C106.877 35.8416 106.722 35.7343 106.581 35.6056C106.441 35.4697 106.323 35.3052 106.22 35.1192C106.116 34.9261 106.057 34.7402 106.021 34.547C105.991 34.3611 105.991 34.1823 106.035 34.0106C106.08 33.839 106.153 33.6817 106.279 33.5386C106.397 33.3956 106.559 33.274 106.758 33.1738L108.862 32.1511C109.053 32.0581 109.245 32.0081 109.437 32.0009C109.629 31.9938 109.806 32.0295 109.976 32.0939C110.146 32.1654 110.301 32.2655 110.441 32.3943C110.581 32.5302 110.699 32.6875 110.795 32.8806C110.891 33.0666 110.95 33.2454 110.979 33.4385C111.009 33.6244 111.009 33.8104 110.965 33.982C110.928 34.1537 110.847 34.3182 110.729 34.4612C110.61 34.6043 110.448 34.7259 110.256 34.826L108.161 35.8416ZM109.939 34.2324C110.146 34.1322 110.286 33.982 110.345 33.7746C110.411 33.5744 110.382 33.3598 110.264 33.1309C110.146 32.9021 109.983 32.7519 109.769 32.6804C109.563 32.6088 109.356 32.6303 109.157 32.7233L107.083 33.7317C106.869 33.839 106.722 33.9892 106.655 34.1823C106.589 34.3754 106.618 34.59 106.744 34.8331C106.862 35.0692 107.024 35.2194 107.231 35.2909C107.43 35.3624 107.644 35.3409 107.858 35.2337L109.939 34.2324Z" fill="black"/>
<path d="M108.447 40.9559L108.281 40.5723C108.259 40.5202 108.274 40.4877 108.331 40.4682L111.199 39.4602C111.206 39.4537 111.213 39.4537 111.213 39.4407C111.213 39.4342 111.206 39.4277 111.192 39.4277L110.202 39.4537L108.079 39.4602C108.057 39.4537 108.035 39.4537 107.999 39.4407C107.963 39.4342 107.941 39.4082 107.92 39.3692L107.804 39.1091C107.79 39.0766 107.783 39.0441 107.79 39.0181C107.79 38.992 107.811 38.966 107.848 38.94L109.372 37.698L110.152 37.0932C110.159 37.0737 110.159 37.0672 110.144 37.0737L107.299 38.0751C107.241 38.0946 107.198 38.0816 107.176 38.0296L107.01 37.6524C106.988 37.6004 107.003 37.5614 107.053 37.5419L111.394 36.0137C111.488 35.9812 111.553 36.0072 111.589 36.0852L111.704 36.3453C111.733 36.4104 111.74 36.4494 111.733 36.4689C111.726 36.4884 111.704 36.5144 111.661 36.5534L109.4 38.3743L108.7 38.914C108.671 38.953 108.678 38.9725 108.714 38.979C108.866 38.979 109.025 38.9725 109.191 38.9595C109.357 38.953 109.516 38.9465 109.668 38.94L112.694 38.8945C112.744 38.901 112.78 38.914 112.802 38.927C112.824 38.94 112.845 38.9725 112.867 39.0181L112.983 39.2847C113.004 39.3367 113.004 39.3692 112.99 39.3952C112.968 39.4212 112.947 39.4407 112.903 39.4537L108.563 40.9819C108.512 41.0145 108.469 41.0014 108.447 40.9559Z" fill="black"/>
<path d="M113.323 41.4742C113.342 41.5565 113.336 41.6114 113.29 41.6525L111.079 43.2637C111.066 43.2843 111.066 43.298 111.092 43.3117L113.751 43.3802C113.816 43.3802 113.861 43.4283 113.887 43.5174L113.991 43.8808C114.004 43.9356 114.004 43.9699 113.984 43.9836C113.965 43.9973 113.939 44.0042 113.9 43.9973L110.469 43.8465C110.287 43.8396 110.125 43.8328 109.976 43.819C109.827 43.8053 109.691 43.7779 109.58 43.7368C109.464 43.6956 109.366 43.6271 109.289 43.5379C109.211 43.4488 109.146 43.3254 109.101 43.1609L109.01 42.8386C108.997 42.7838 108.997 42.7495 109.01 42.7358C109.023 42.7152 109.055 42.7015 109.107 42.6878L109.379 42.6055C109.431 42.5918 109.464 42.5849 109.477 42.5918C109.49 42.5987 109.503 42.6261 109.516 42.6604L109.568 42.8455C109.593 42.9415 109.626 43.0169 109.665 43.0717C109.704 43.1266 109.775 43.1677 109.879 43.1883C109.983 43.2157 110.06 43.2226 110.125 43.2157C110.19 43.2089 110.262 43.1814 110.333 43.1266L113.076 41.0354C113.141 40.9806 113.193 40.9875 113.213 41.0697L113.323 41.4742Z" fill="black"/>
<path d="M114.601 48.4856C114.614 48.5658 114.594 48.6259 114.547 48.6526L112.088 49.9348C112.067 49.9549 112.074 49.9682 112.094 49.9882L114.816 50.3823C114.883 50.3889 114.924 50.4424 114.937 50.5359L114.997 50.8965C115.004 50.9499 114.997 50.9833 114.977 50.99C114.957 51.0033 114.93 51.0033 114.89 50.99L111.382 50.4157C111.194 50.3889 111.026 50.3555 110.878 50.3288C110.723 50.3021 110.596 50.2554 110.482 50.2019C110.367 50.1485 110.273 50.0684 110.206 49.9749C110.139 49.8814 110.085 49.7478 110.058 49.5875L110.004 49.2603C109.998 49.2069 109.998 49.1735 110.011 49.1601C110.025 49.1468 110.058 49.1334 110.112 49.1267L110.401 49.08C110.455 49.0733 110.488 49.0733 110.502 49.08C110.515 49.0934 110.529 49.1134 110.535 49.1535L110.569 49.3405C110.582 49.4339 110.609 49.5141 110.643 49.5675C110.676 49.6209 110.744 49.6744 110.844 49.7077C110.945 49.7478 111.033 49.7679 111.1 49.7679C111.167 49.7679 111.241 49.7478 111.328 49.7077L114.399 48.0248C114.473 47.9781 114.52 47.9981 114.534 48.0783L114.601 48.4856Z" fill="black"/>
<path d="M115.516 55.62C115.487 55.6479 115.458 55.6619 115.437 55.6689C115.415 55.6689 115.379 55.6549 115.343 55.613L115.062 55.3476C115.04 55.3267 115.033 55.3057 115.033 55.2708C115.04 55.2359 115.055 55.2079 115.076 55.187C115.184 55.0822 115.271 54.9565 115.336 54.8029C115.393 54.6492 115.415 54.4956 115.401 54.3349C115.379 54.0905 115.285 53.9089 115.134 53.7902C114.982 53.6714 114.788 53.6226 114.564 53.6435L112.264 53.846C112.041 53.867 111.868 53.9508 111.738 54.1114C111.608 54.2651 111.551 54.4676 111.579 54.7121C111.594 54.8727 111.652 55.0124 111.745 55.1451C111.839 55.2778 111.933 55.3825 112.034 55.4593C112.07 55.4803 112.091 55.5082 112.113 55.5292C112.135 55.5501 112.127 55.585 112.106 55.6339L111.875 55.9622C111.868 55.9762 111.846 55.9901 111.825 55.9971C111.796 56.0041 111.774 55.9971 111.753 55.9901C111.536 55.8574 111.363 55.6828 111.233 55.4663C111.104 55.2498 111.032 55.0194 111.01 54.7679C110.988 54.5654 111.003 54.3698 111.046 54.1883C111.089 54.0067 111.161 53.846 111.255 53.7133C111.356 53.5737 111.486 53.4619 111.644 53.3711C111.803 53.2803 111.99 53.2315 112.207 53.2105L114.514 53.008C114.716 52.987 114.91 53.008 115.083 53.0638C115.256 53.1197 115.408 53.2035 115.53 53.3153C115.66 53.427 115.761 53.5667 115.84 53.7343C115.92 53.9019 115.97 54.0835 115.992 54.286C116.013 54.5235 115.992 54.754 115.934 54.9775C115.862 55.18 115.725 55.4035 115.516 55.62Z" fill="black"/>
<path d="M115.421 58.9084L115.399 57.8873C115.399 57.838 115.377 57.8169 115.333 57.8169L111.103 57.8873C111.037 57.8873 111.007 57.8592 111.007 57.8028L111 57.331C111 57.2676 111.029 57.2394 111.088 57.2394L115.318 57.169C115.37 57.169 115.392 57.1479 115.392 57.1056L115.37 56.0986C115.37 56.0352 115.399 56.007 115.457 56.007L115.861 56C115.919 56 115.949 56.0282 115.949 56.0915L116 58.9014C116 58.9648 115.978 58.993 115.919 58.993L115.509 59C115.45 59 115.421 58.9718 115.421 58.9084Z" fill="black"/>
<path d="M114.369 63.9959C114.171 63.9821 113.98 63.9406 113.811 63.8575C113.635 63.7745 113.488 63.6707 113.364 63.5393C113.239 63.4078 113.143 63.2487 113.077 63.0757C113.011 62.8958 112.989 62.709 112.997 62.5083L113.041 61.8095C113.041 61.768 113.019 61.7472 112.975 61.7472L111.095 61.6435C111.029 61.6365 111 61.6089 111 61.5466L111.029 61.0899C111.029 61.0277 111.066 61 111.125 61L115.918 61.256C115.977 61.256 116.006 61.2906 115.999 61.3529L115.918 62.6536C115.903 62.875 115.852 63.0757 115.771 63.2417C115.683 63.4147 115.573 63.5531 115.434 63.6707C115.294 63.7883 115.133 63.8714 114.949 63.9267C114.773 63.989 114.575 64.0097 114.369 63.9959ZM115.39 61.9341C115.39 61.8856 115.375 61.8649 115.331 61.8649L113.694 61.7749C113.643 61.7749 113.621 61.7888 113.621 61.8303L113.577 62.5291C113.562 62.7643 113.628 62.965 113.782 63.1172C113.929 63.2694 114.142 63.3524 114.421 63.3663C114.523 63.3732 114.626 63.3594 114.736 63.3317C114.846 63.304 114.942 63.2625 115.03 63.2002C115.118 63.138 115.191 63.0618 115.25 62.965C115.309 62.8681 115.346 62.7574 115.353 62.626L115.39 61.9341Z" fill="black"/>
<path d="M112.161 67.7159C111.945 67.6899 111.764 67.6315 111.605 67.5405C111.454 67.4496 111.324 67.3391 111.23 67.2027C111.136 67.0662 111.064 66.9168 111.028 66.7479C110.992 66.579 110.992 66.3971 111.021 66.2022C111.05 66.0073 111.107 65.8318 111.187 65.6759C111.266 65.52 111.374 65.3901 111.504 65.2796C111.634 65.1692 111.793 65.0912 111.966 65.0457C112.147 65.0003 112.342 64.9873 112.565 65.0132L114.846 65.2926C115.055 65.3186 115.236 65.3771 115.395 65.468C115.546 65.559 115.676 65.6694 115.77 65.8059C115.864 65.9423 115.936 66.0917 115.972 66.2606C116.008 66.4296 116.008 66.6115 115.979 66.7999C115.95 66.9818 115.9 67.1507 115.813 67.3066C115.734 67.4625 115.626 67.599 115.488 67.7094C115.358 67.8199 115.2 67.9043 115.019 67.9498C114.839 68.0018 114.644 68.0148 114.427 67.9823L112.161 67.7159ZM114.514 67.3976C114.738 67.4236 114.933 67.3781 115.106 67.2611C115.272 67.1442 115.373 66.9688 115.409 66.7414C115.445 66.5075 115.395 66.3191 115.265 66.1632C115.135 66.0073 114.962 65.9163 114.738 65.8903L112.486 65.6174C112.248 65.5915 112.053 65.6304 111.887 65.7409C111.721 65.8513 111.62 66.0268 111.584 66.2736C111.548 66.5075 111.591 66.7024 111.714 66.8583C111.836 67.0078 112.017 67.0987 112.255 67.1312L114.514 67.3976Z" fill="black"/>
<path d="M115.018 70.016C115.066 70.03 115.086 70.0649 115.072 70.1207L114.978 70.5464C114.964 70.6022 114.931 70.6231 114.884 70.6092L111.696 69.8695C111.689 69.8695 111.682 69.8695 111.682 69.8764C111.682 69.8834 111.689 69.8904 111.696 69.8974L114.466 72.3677C114.493 72.4026 114.52 72.4306 114.533 72.4585C114.547 72.4864 114.553 72.5352 114.54 72.5911L114.466 72.933C114.452 72.9888 114.418 73.0098 114.371 72.9958L110.065 71.9979C110.011 71.9839 109.991 71.949 110.004 71.8862L110.098 71.4605C110.112 71.4047 110.146 71.3838 110.206 71.3977L113.441 72.1444C113.455 72.1444 113.455 72.1375 113.448 72.1235C112.996 71.7327 112.525 71.321 112.026 70.8813C111.534 70.4487 111.062 70.03 110.611 69.6392C110.563 69.6043 110.536 69.5694 110.53 69.5485C110.523 69.5275 110.53 69.4787 110.543 69.4159L110.617 69.0739C110.631 69.0111 110.665 68.9902 110.725 69.0041L115.018 70.016ZM115.935 70.8883C115.962 70.8953 115.975 70.9023 115.989 70.9162C116.002 70.9302 116.002 70.9581 115.996 70.993L115.962 71.1465C115.955 71.1884 115.942 71.2093 115.921 71.2163C115.908 71.2233 115.881 71.2303 115.841 71.2303C115.692 71.2442 115.571 71.2791 115.483 71.3419C115.396 71.4047 115.335 71.5024 115.301 71.649C115.241 71.9141 115.349 72.1235 115.618 72.2631C115.652 72.284 115.672 72.298 115.686 72.3049C115.699 72.3189 115.699 72.3468 115.692 72.3887L115.659 72.5422C115.652 72.5841 115.638 72.605 115.618 72.612C115.605 72.619 115.584 72.619 115.558 72.612C115.436 72.5771 115.328 72.5283 115.227 72.4585C115.126 72.3887 115.045 72.3049 114.985 72.2142C114.924 72.1235 114.877 72.0188 114.857 71.9002C114.836 71.7885 114.836 71.6629 114.863 71.5373C114.89 71.4187 114.937 71.314 115.005 71.2233C115.072 71.1326 115.153 71.0558 115.254 71C115.349 70.9441 115.456 70.9023 115.578 70.8813C115.692 70.8604 115.807 70.8604 115.935 70.8883Z" fill="black"/>
<path d="M112.939 76.9859C112.903 76.9977 112.874 77.0036 112.845 76.9977C112.823 76.9918 112.801 76.9681 112.78 76.9268L112.627 76.6312C112.613 76.6076 112.613 76.5839 112.634 76.5603C112.649 76.5366 112.678 76.5189 112.707 76.5071C112.852 76.4598 112.983 76.3889 113.099 76.2884C113.215 76.1879 113.302 76.0697 113.346 75.9455C113.418 75.7446 113.411 75.5791 113.317 75.4372C113.222 75.2953 113.063 75.2008 112.845 75.1416L110.624 74.5801C110.413 74.5269 110.21 74.5387 110.029 74.6215C109.847 74.7042 109.716 74.8402 109.637 75.0412C109.586 75.1712 109.579 75.3012 109.615 75.4313C109.651 75.5613 109.702 75.6736 109.76 75.7682C109.782 75.7978 109.796 75.8214 109.811 75.851C109.818 75.8746 109.804 75.9042 109.76 75.9278L109.412 76.111C109.397 76.1229 109.375 76.1229 109.354 76.117C109.325 76.111 109.303 76.1051 109.288 76.0874C109.136 75.916 109.049 75.7209 109.012 75.514C108.983 75.3072 109.005 75.1003 109.078 74.8993C109.143 74.7338 109.23 74.586 109.339 74.456C109.448 74.3259 109.579 74.2255 109.731 74.1486C109.883 74.0718 110.043 74.0245 110.232 74.0067C110.413 73.989 110.609 74.0067 110.82 74.054L113.048 74.6156C113.244 74.6629 113.418 74.7397 113.556 74.8343C113.694 74.9288 113.803 75.0412 113.876 75.1712C113.948 75.3012 113.992 75.4372 113.999 75.5968C114.006 75.7505 113.977 75.9101 113.919 76.0756C113.846 76.2647 113.738 76.4421 113.592 76.6016C113.433 76.7553 113.222 76.8854 112.939 76.9859Z" fill="black"/>
<path d="M111.456 80.7637L111.825 79.9274C111.839 79.8903 111.832 79.8655 111.797 79.8531L108.064 78.5398C108.008 78.5212 107.987 78.4841 108.008 78.4407L108.182 78.0566C108.203 78.0071 108.244 77.9885 108.293 78.0071L112.027 79.3204C112.068 79.3327 112.096 79.3265 112.11 79.2894L112.479 78.4655C112.499 78.4159 112.541 78.3973 112.59 78.4159L112.944 78.5398C113 78.5584 113.014 78.5956 112.986 78.6451L111.971 80.9434C111.95 80.9929 111.915 81.0115 111.867 80.9929L111.505 80.8628C111.45 80.8505 111.436 80.8195 111.456 80.7637Z" fill="black"/>
<path d="M106.815 84.1087C106.629 84.0218 106.471 83.9149 106.348 83.788C106.224 83.6611 106.135 83.5208 106.073 83.3604C106.011 83.2068 105.99 83.0398 106.004 82.8661C106.018 82.6924 106.066 82.512 106.155 82.3316L106.794 81.0556C106.821 81.0022 106.856 80.9888 106.911 81.0088L110.95 82.9195C110.998 82.9462 111.011 82.9796 110.991 83.0264L110.4 84.2089C110.221 84.563 109.988 84.8035 109.699 84.9237C109.411 85.044 109.088 85.0239 108.724 84.8502C108.649 84.8168 108.58 84.7701 108.518 84.7099C108.449 84.6498 108.394 84.583 108.339 84.5095C108.284 84.436 108.243 84.3559 108.202 84.2757C108.168 84.1955 108.14 84.1087 108.126 84.0285C108.113 84.0085 108.099 84.0085 108.078 84.0151C107.893 84.1488 107.687 84.2223 107.46 84.2289C107.227 84.249 107.014 84.2022 106.815 84.1087ZM107.069 83.5475C107.165 83.5943 107.261 83.6277 107.371 83.6477C107.474 83.6677 107.577 83.6678 107.68 83.641C107.776 83.6143 107.872 83.5675 107.969 83.5007C108.058 83.4273 108.14 83.327 108.202 83.1934L108.532 82.532C108.552 82.4986 108.539 82.4719 108.504 82.4519L107.117 81.7972C107.076 81.7771 107.048 81.7838 107.028 81.8239L106.657 82.5588C106.554 82.7592 106.547 82.9529 106.622 83.1333C106.705 83.307 106.849 83.4473 107.069 83.5475ZM109.006 84.3225C109.184 84.4093 109.356 84.4227 109.514 84.3692C109.672 84.3158 109.802 84.1822 109.905 83.9817L110.228 83.3404C110.249 83.307 110.235 83.2803 110.201 83.2602L109.095 82.7325C109.054 82.7124 109.026 82.7191 109.006 82.7592L108.683 83.4072C108.58 83.6143 108.566 83.7947 108.635 83.955C108.71 84.122 108.834 84.2423 109.006 84.3225Z" fill="black"/>
<path d="M108.73 87.6309C108.686 87.7113 108.628 87.7405 108.569 87.7332L105.602 87.0974C105.573 87.0974 105.565 87.1193 105.573 87.1485L107.585 89.3775C107.636 89.4286 107.636 89.5017 107.585 89.5894L107.379 89.9329C107.35 89.984 107.32 90.0059 107.298 89.9986C107.276 89.9913 107.247 89.9767 107.225 89.9402L104.677 87.017C104.545 86.8635 104.42 86.7247 104.317 86.5931C104.207 86.4616 104.126 86.33 104.075 86.2058C104.016 86.0816 103.994 85.95 104.001 85.8258C104.009 85.6943 104.06 85.5554 104.148 85.3946L104.332 85.0804C104.361 85.0292 104.391 85 104.413 85C104.435 85 104.471 85.0146 104.523 85.0438L104.802 85.2046C104.853 85.2339 104.883 85.2558 104.883 85.2777C104.89 85.2923 104.883 85.3216 104.86 85.3581L104.758 85.5408C104.699 85.6358 104.67 85.7162 104.662 85.7893C104.648 85.8623 104.677 85.95 104.736 86.0523C104.794 86.1547 104.853 86.2277 104.905 86.2789C104.963 86.33 105.037 86.3593 105.14 86.3812L108.899 87.1047C108.995 87.1193 109.024 87.1632 108.98 87.2435L108.73 87.6309Z" fill="black"/>
<path d="M91.4128 31.2545C87.6475 29.1829 83.3395 28 78.7301 28C70.5965 28 63.3272 31.6889 58.5168 37.4963C53.6795 31.6889 46.4102 28 38.2565 28C33.6739 28 29.3659 29.1829 25.5872 31.2545C17.4804 35.732 12 44.3261 12 54.2234C12 57.0502 12.469 59.7567 13.2998 62.2895C17.802 82.5117 58.5168 108 58.5168 108C58.5168 108 99.1779 82.5184 103.7 62.2895C104.538 59.7567 105 57.0435 105 54.2234C105 44.3261 99.5129 35.7387 91.4128 31.2545Z" fill="#BA1D1D"/>
<path d="M63 55H54V67H63V55Z" fill="white"/>
<path d="M43 39.5C43 43.0898 40.0898 46 36.5 46C32.9102 46 30 43.0898 30 39.5C30 35.9102 32.9102 33 36.5 33C40.0966 33 43 35.9102 43 39.5Z" fill="#D7D5D6"/>
<path d="M43 45H31V63H43V45Z" fill="#D7D5D6"/>
<path d="M31 57V74.4488C31 75.8566 32.1205 77 33.5 77C34.8795 77 36 75.8566 36 74.4488V57H31Z" fill="#D7D5D6"/>
<path d="M30.5341 45L23.2991 56.8986C22.7126 57.8587 23.0157 59.1168 23.9712 59.6995C24.9266 60.2888 26.1786 59.9842 26.765 59.0241L34 47.1255L30.5341 45Z" fill="#D7D5D6"/>
<path d="M42.4614 45L49.7007 56.8986C50.2875 57.8587 49.9843 59.1168 49.0282 59.6995C48.0722 60.2888 46.8195 59.9842 46.2393 59.0241L39 47.1255L42.4614 45Z" fill="#D7D5D6"/>
<path d="M37 57V74.4488C37 75.8566 38.1205 77 39.5 77C40.8795 77 42 75.8566 42 74.4488V57H37Z" fill="#D7D5D6"/>
<path d="M86 42.5C86 46.0898 83.0898 49 79.5 49C75.9102 49 73 46.0898 73 42.5C73 38.9102 75.9102 36 79.5 36C83.0898 36 86 38.9102 86 42.5Z" fill="#D7D5D6"/>
<path d="M82.7117 47H80.0195H79.974H77.2818L71 67H79.974H80.0195H89L82.7117 47Z" fill="#D7D5D6"/>
<path d="M83.1729 47L92.4945 57.6226C93.2487 58.4796 93.1468 59.775 92.2703 60.5058C91.3939 61.2432 90.069 61.1435 89.3216 60.2865L80 49.6706L83.1729 47Z" fill="#D7D5D6"/>
<path d="M76.822 46L67.5052 56.6226C66.7514 57.4795 66.8533 58.775 67.7293 59.5058C68.6053 60.2432 69.9295 60.1435 70.6832 59.2865L80 48.6706L76.822 46Z" fill="#D7D5D6"/>
<path d="M74 57V74.4488C74 75.8566 75.1205 77 76.5 77C77.8795 77 79 75.8566 79 74.4488V57H74Z" fill="#D7D5D6"/>
<path d="M81 57V74.4488C81 75.8566 82.1205 77 83.5 77C84.8795 77 86 75.8566 86 74.4488V57H81Z" fill="#D7D5D6"/>
<path d="M63 51C63 53.7627 60.7626 56 58 56C55.2374 56 53 53.7627 53 51C53 48.2374 55.2374 46 58 46C60.7562 46 63 48.2374 63 51Z" fill="white"/>
<path d="M58.1074 54L45.4567 57.1409C44.4366 57.3963 43.8058 58.4524 44.0541 59.5017C44.3024 60.5509 45.3292 61.1998 46.3493 60.9444L59 57.8035L58.1074 54Z" fill="white"/>
<path d="M57.8926 54L70.5433 57.1408C71.5634 57.3963 72.1942 58.4524 71.9459 59.5017C71.6976 60.5509 70.6708 61.1998 69.6507 60.9444L57 57.8035L57.8926 54Z" fill="white"/>
<path d="M54 62V75.9604C54 77.0904 54.8971 78 55.9966 78C57.1029 78 58 77.0836 58 75.9604V62H54Z" fill="white"/>
<path d="M59 62V75.9604C59 77.0904 59.8986 78 61 78C62.1014 78 63 77.0836 63 75.9604V62H59Z" fill="white"/>
<path d="M59.2721 58.205C59.0695 58.0732 58.8354 58 58.5885 58C58.1518 58 57.7594 58.2269 57.5 58.593C57.2405 58.2269 56.8481 58 56.4114 58C56.1645 58 55.9304 58.0732 55.7278 58.205C55.2911 58.4832 55 59.0249 55 59.6398C55 59.8155 55.0253 59.9839 55.0696 60.145C55.3101 61.4041 57.5 63 57.5 63C57.5 63 59.6898 61.4114 59.9303 60.145C59.9746 59.9839 59.9999 59.8155 59.9999 59.6398C60.0062 59.0249 59.7088 58.4905 59.2721 58.205Z" fill="#BA1D1D"/>
<path d="M48.929 81.153C48.929 81.0532 48.9806 81.0066 49.0903 81.0066H49.8194C49.9355 81.0066 50 81.0532 50 81.1397V86.847C50 86.9468 49.9419 87 49.8323 87H49.1032C48.9935 87 48.9355 86.9534 48.9355 86.8537V84.5721C48.9355 84.4656 48.8839 84.4058 48.7742 84.4058H47.2387C47.1677 84.4058 47.129 84.4191 47.1032 84.4523C47.0839 84.4789 47.0774 84.5188 47.0774 84.5721V86.847C47.0774 86.9468 47.0194 87 46.9097 87H46.1806C46.0581 87 46 86.9534 46 86.8537V81.1463C46 81.0466 46.0581 81 46.1806 81H46.9097C46.9613 81 47 81.0066 47.0323 81.0266C47.0645 81.0466 47.0774 81.0798 47.0774 81.133V83.2616C47.0774 83.3348 47.0839 83.3814 47.1032 83.4013C47.1226 83.4279 47.1548 83.4346 47.2129 83.4346H48.7871C48.8452 83.4346 48.8839 83.4213 48.9032 83.4013C48.9226 83.3814 48.9355 83.3348 48.9355 83.2616V81.153H48.929Z" fill="white"/>
<path d="M53.9899 86.7805C54.0021 86.8137 54.0021 86.8537 53.996 86.9069C53.9839 86.9601 53.9414 86.9867 53.8564 86.9867H53.1398C53.0427 86.9867 52.988 86.9468 52.9638 86.8603L52.7573 85.8891C52.7451 85.8359 52.733 85.8027 52.7209 85.7827C52.7087 85.7627 52.6784 85.7561 52.648 85.7561H51.3364C51.2878 85.7561 51.2575 85.7694 51.2453 85.796C51.2332 85.8226 51.221 85.8492 51.2089 85.8825C51.1968 85.9357 51.1785 86.0022 51.1664 86.0887C51.1482 86.1752 51.13 86.2749 51.1057 86.3747C51.0814 86.4745 51.0632 86.5676 51.051 86.6607C51.0328 86.7539 51.0146 86.8204 51.0085 86.867C50.9964 86.9135 50.9721 86.9468 50.9417 86.9667C50.9114 86.9867 50.8749 87 50.8385 87H50.1584C50.0734 87 50.0248 86.98 50.0127 86.9401C50.0006 86.9002 49.9945 86.8537 50.0066 86.8004L51.3 81.133C51.3303 81.0399 51.3911 81 51.4882 81H52.4962C52.5387 81 52.5751 81 52.6055 81.0133C52.6358 81.0266 52.6541 81.0599 52.6662 81.1264L53.9899 86.7805ZM52.2169 83.388L52.0044 82.2705C51.9983 82.2439 51.9861 82.2306 51.974 82.2239C51.9619 82.2173 51.9497 82.2306 51.9436 82.2705L51.7372 83.3681L51.4639 84.7583C51.4579 84.7916 51.4579 84.8115 51.4639 84.8248C51.47 84.8381 51.4882 84.8448 51.5246 84.8448H52.4476C52.5083 84.8448 52.5266 84.8115 52.5023 84.745L52.2169 83.388Z" fill="white"/>
<path d="M56.0065 81.806C56.0065 81.6861 56.0646 81.6296 56.1874 81.6296H56.8853C57.0016 81.6296 57.0533 81.6861 57.0533 81.806V85.672C57.0533 85.6931 57.0598 85.7002 57.0663 85.6931C57.0792 85.6931 57.0856 85.679 57.0921 85.672C57.4216 85.03 57.7383 84.388 58.0485 83.746C58.3651 83.1041 58.6818 82.4691 58.9984 81.8342C59.0372 81.7637 59.0759 81.7143 59.1212 81.679C59.1664 81.6437 59.231 81.6296 59.3086 81.6296H59.832C59.9419 81.6296 60 81.6861 60 81.806V87.8166C60 87.9365 59.9419 87.9929 59.832 87.9929H59.1406C59.0307 87.9929 58.9725 87.9365 58.9725 87.8166V83.9506C58.9725 83.9295 58.9725 83.9224 58.9596 83.9224H58.9467L58.9338 83.9436C58.6107 84.5926 58.2876 85.2346 57.9709 85.8836C57.6478 86.5326 57.3247 87.1746 57.0081 87.8236C56.9628 87.9012 56.9241 87.9506 56.8853 87.9718C56.8465 87.9859 56.7884 88 56.7108 88H56.1809C56.0582 88 56 87.9436 56 87.8236V81.806H56.0065ZM56.8465 80.1623C56.8465 80.1058 56.853 80.0706 56.8724 80.0494C56.8853 80.0282 56.9305 80.0141 57.0016 80.0141H57.3764C57.441 80.0141 57.4798 80.0212 57.4927 80.0423C57.5057 80.0564 57.5186 80.0988 57.5186 80.1482C57.525 80.3245 57.5703 80.4727 57.6607 80.5785C57.7512 80.6914 57.874 80.7407 58.042 80.7407C58.21 80.7407 58.3393 80.6843 58.4297 80.5714C58.5202 80.4586 58.5719 80.3104 58.5977 80.134C58.6042 80.0776 58.6171 80.0423 58.6301 80.0282C58.643 80.0071 58.6882 80 58.7464 80H59.0889C59.147 80 59.1923 80.0071 59.2052 80.0212C59.2246 80.0353 59.231 80.0776 59.231 80.1552C59.2181 80.3316 59.1858 80.5009 59.1341 80.6631C59.0824 80.8254 59.0113 80.9665 58.9144 81.0864C58.8175 81.2064 58.6947 81.3051 58.5525 81.3757C58.4103 81.4462 58.2359 81.4885 58.0356 81.4885C57.8482 81.4885 57.6801 81.4533 57.538 81.3757C57.3958 81.3051 57.2795 81.2063 57.1761 81.0794C57.0727 80.9524 56.9952 80.8183 56.9435 80.6561C56.8853 80.515 56.853 80.3457 56.8465 80.1623Z" fill="white"/>
<path d="M60.9418 87.7973C60.9292 87.886 60.9039 87.9366 60.8786 87.9557C60.847 87.9747 60.8091 87.9873 60.7585 87.9873H60.1833C60.1264 87.9873 60.0758 87.9747 60.0506 87.9557C60.0253 87.9366 60.0063 87.8923 60 87.829V86.1439C60 86.0425 60.0126 85.9728 60.0443 85.9285C60.0695 85.8842 60.1201 85.8525 60.196 85.8208C60.2086 85.8208 60.2339 85.8145 60.2781 85.8018C60.3224 85.7828 60.3477 85.7765 60.3603 85.7765C60.4741 85.7385 60.5626 85.6751 60.6384 85.5864C60.7143 85.4914 60.7712 85.3774 60.8217 85.2317C60.8723 85.086 60.9102 84.9213 60.9355 84.7376C60.9608 84.5538 60.9861 84.3511 61.0114 84.1231C61.024 84.0281 61.0367 83.876 61.0619 83.6543C61.0809 83.4389 61.0999 83.1855 61.1188 82.9131C61.1378 82.6344 61.1504 82.343 61.1694 82.0452C61.1884 81.7412 61.201 81.4624 61.2073 81.2027C61.22 81.114 61.2453 81.057 61.2769 81.038C61.3148 81.0127 61.3654 81 61.4349 81H64.3553C64.4248 81 64.469 81.0127 64.4943 81.038C64.5259 81.0633 64.5386 81.1204 64.5386 81.2027V85.6941C64.5386 85.7068 64.5449 85.7258 64.5512 85.7448C64.5575 85.7638 64.5828 85.7828 64.6144 85.7891H64.8483C64.9242 85.7955 64.9684 85.8145 64.981 85.8525C64.9937 85.8905 65 85.9412 65 85.9982V87.81C64.9937 87.8986 64.9747 87.9493 64.9431 87.9683C64.9115 87.9873 64.8673 88 64.8167 88H64.2352C64.1656 88 64.1214 87.9873 64.0961 87.962C64.0645 87.9367 64.0455 87.886 64.0329 87.8163V86.8154C64.0329 86.7647 64.0139 86.7394 63.9823 86.7267C63.9507 86.7204 63.9128 86.714 63.8875 86.714H61.1188C61.0493 86.714 61.0114 86.7204 60.9924 86.7394C60.9735 86.752 60.9608 86.7964 60.9482 86.8534V87.7973H60.9418ZM62.2187 81.9122C62.1871 81.9122 62.1681 81.9249 62.1555 81.9502C62.1429 81.9756 62.1365 81.9946 62.1365 82.0136C62.1302 82.1276 62.1176 82.2796 62.1049 82.476C62.0923 82.6724 62.0796 82.8688 62.067 83.0842C62.0544 83.2932 62.0417 83.4896 62.0228 83.6796C62.0101 83.8697 61.9975 84.0091 61.9911 84.1104C61.9785 84.2181 61.9659 84.3448 61.9532 84.4905C61.9406 84.6299 61.9216 84.7756 61.8963 84.9213C61.871 85.067 61.8394 85.2063 61.8015 85.3457C61.7636 85.4851 61.713 85.6054 61.6498 85.7131C61.6372 85.7385 61.6372 85.7511 61.6561 85.7575C61.6751 85.7638 61.6877 85.7701 61.7067 85.7701H63.3944C63.4071 85.7701 63.426 85.7638 63.4513 85.7575C63.4766 85.7511 63.4892 85.7258 63.4892 85.6814V82.0262C63.4892 81.9502 63.445 81.9122 63.3502 81.9122H62.2187Z" fill="white"/>
<path d="M67 81.1661C67 81.0532 67.0581 81 67.1806 81H67.8774C67.9935 81 68.0452 81.0532 68.0452 81.1661V84.8073C68.0452 84.8273 68.0516 84.8339 68.0581 84.8272C68.071 84.8272 68.0774 84.814 68.0839 84.8073C68.4129 84.2027 68.729 83.598 69.0452 82.9934C69.3613 82.3887 69.6774 81.7907 70 81.1927C70.0387 81.1263 70.0774 81.0797 70.1226 81.0465C70.1677 81.0133 70.2258 81 70.3097 81H70.8323C70.9419 81 71 81.0532 71 81.1661V86.8272C71 86.9402 70.9484 86.9934 70.8323 86.9934H70.1419C70.0323 86.9934 69.9742 86.9402 69.9742 86.8272V83.1861C69.9742 83.1661 69.9678 83.1595 69.9678 83.1595H69.9548L69.9484 83.1794C69.6258 83.7907 69.3032 84.3953 68.9807 85.0066C68.6581 85.6179 68.3355 86.2226 68.0129 86.8339C67.9677 86.907 67.929 86.9535 67.8903 86.9734C67.8516 86.9867 67.7936 87 67.7097 87H67.1806C67.0645 87 67 86.9468 67 86.8339V81.1661Z" fill="white"/>
<path d="M47.0327 95C46.7292 95 46.4539 94.9611 46.2069 94.8834C45.9599 94.8056 45.7481 94.6955 45.5646 94.5464C45.3811 94.3974 45.247 94.2225 45.1482 94.0151C45.0494 93.8078 45 93.568 45 93.3153V90.6911C45 90.4384 45.0494 90.2117 45.1482 89.9978C45.247 89.7905 45.3811 89.6156 45.5646 89.4665C45.7481 89.324 45.9528 89.2073 46.1998 89.1231C46.4469 89.0389 46.708 89 46.9974 89C47.3573 89 47.6961 89.0583 48.0208 89.1749C48.3525 89.2916 48.6419 89.5184 48.903 89.8618C48.9383 89.9006 48.9524 89.9395 48.9453 89.9849C48.9383 90.0302 48.9101 90.0691 48.8465 90.108L48.289 90.4968C48.2325 90.5292 48.1831 90.5356 48.1266 90.5162C48.0772 90.4968 48.0349 90.4644 48.0067 90.4255C47.7737 90.108 47.4491 89.9525 47.0256 89.9525C46.7362 89.9525 46.5174 90.0302 46.3692 90.1857C46.221 90.3413 46.1504 90.5227 46.1504 90.73V93.3153C46.1504 93.5162 46.2281 93.6912 46.3763 93.8337C46.5245 93.9762 46.7504 94.0475 47.0397 94.0475C47.2303 94.0475 47.4138 94.0022 47.5761 93.9179C47.7384 93.8337 47.8796 93.73 47.9996 93.6004C48.0349 93.568 48.0702 93.5356 48.1055 93.4968C48.1407 93.4644 48.1972 93.4644 48.2678 93.5032L48.8889 93.8531C48.9383 93.8791 48.9665 93.9114 48.9877 93.9568C49.0089 93.9957 49.0018 94.041 48.9736 94.0799C48.7336 94.4168 48.4442 94.6501 48.1125 94.7862C47.7879 94.9287 47.4279 95 47.0327 95Z" fill="white"/>
<path d="M53.8312 95.0222C53.9486 95.0222 54 95.0754 54 95.1885V95.8271C54 95.9401 53.9413 96 53.8312 96H50.1982C50.0661 96 50 95.9468 50 95.8337V90.1663C50 90.0532 50.0661 90 50.1982 90H53.7725C53.8239 90 53.8605 90.0133 53.8972 90.0333C53.9339 90.0599 53.9486 90.0931 53.9486 90.153V90.7849C53.9486 90.898 53.8899 90.9579 53.7798 90.9579H51.3872C51.3138 90.9579 51.2697 90.9712 51.2477 90.9845C51.2257 91.0044 51.2183 91.0377 51.2183 91.0776V92.2417C51.2183 92.3548 51.2771 92.408 51.3872 92.408H53.3615C53.4789 92.408 53.5376 92.4679 53.5376 92.5809V93.2062C53.5376 93.3193 53.4789 93.3725 53.3615 93.3725H51.3798C51.3138 93.3725 51.2697 93.3858 51.2477 93.4058C51.2257 93.4257 51.2183 93.4656 51.2183 93.5189V94.8625C51.2183 94.9224 51.233 94.9623 51.2624 94.9823C51.2917 95.0022 51.3431 95.0089 51.4165 95.0089H53.8312V95.0222Z" fill="white"/>
<path d="M58.8319 96H58.1594C58.0535 96 58.0037 95.9534 58.0037 95.8537V92.7539C58.0037 92.7206 57.9913 92.7206 57.9539 92.7539L57.5803 93.8115L56.9141 95.6475C56.8892 95.7007 56.8643 95.7406 56.8331 95.7738C56.802 95.8071 56.7584 95.8204 56.6961 95.8204H56.279C56.2167 95.8204 56.1669 95.8137 56.1357 95.8004C56.0984 95.7871 56.0672 95.7472 56.0361 95.6741L55.3886 93.8581L55.0274 92.7738C55.0212 92.7672 55.0149 92.7605 55.0025 92.7605C54.99 92.7539 54.99 92.7605 54.99 92.7738V95.8537C54.99 95.9534 54.934 96 54.8281 96H54.1619C54.0498 96 54 95.9468 54 95.8337V90.1929C54 90.0665 54.0623 90 54.193 90H54.7597C54.8344 90 54.8904 90.0067 54.9278 90.02C54.9651 90.0333 55.0025 90.0798 55.0399 90.1663C55.0585 90.2195 55.0959 90.3126 55.1457 90.4523C55.1955 90.592 55.2578 90.7517 55.32 90.9379C55.3885 91.1242 55.457 91.3171 55.5318 91.5233C55.6065 91.7295 55.675 91.9291 55.7435 92.1087C55.8057 92.2949 55.8618 92.4545 55.9178 92.6009C55.9676 92.7406 56.005 92.8337 56.0237 92.8869L56.4657 94.1574C56.4907 94.2239 56.5156 94.2239 56.5467 94.1574C56.5592 94.1109 56.5841 94.031 56.6276 93.9047C56.6712 93.7783 56.7148 93.6519 56.7646 93.5122C56.8144 93.3725 56.858 93.2461 56.9016 93.1264C56.9452 93 56.9701 92.9202 56.995 92.8736L57.9788 90.1663C58.0287 90.0532 58.122 90 58.2653 90H58.807C58.9315 90 59 90.0665 59 90.1929V95.8337C59 95.9468 58.944 96 58.8319 96Z" fill="white"/>
<path d="M65 94.1641C65 94.4302 64.9547 94.6763 64.8641 94.8958C64.7799 95.1219 64.6505 95.3149 64.4887 95.4745C64.3269 95.6342 64.1327 95.7672 63.9062 95.8603C63.6731 95.9534 63.4207 96 63.1424 96H61.1812C61.0647 96 61 95.9401 61 95.8271V90.1397C61 90.0466 61.0583 90 61.1812 90H61.8867C62.0097 90 62.068 90.0466 62.068 90.1397V92.2284C62.068 92.3082 62.1068 92.3415 62.178 92.3415H63.1748C63.466 92.3415 63.7249 92.388 63.9514 92.4812C64.178 92.5743 64.3657 92.7007 64.521 92.867C64.6764 93.0266 64.7929 93.2195 64.8705 93.4457C64.9612 93.6718 65 93.9113 65 94.1641ZM63.932 94.184C63.932 93.9246 63.8608 93.7184 63.7184 93.5588C63.5761 93.3991 63.3883 93.3193 63.1489 93.3193H62.2103C62.165 93.3193 62.1327 93.3259 62.1133 93.3459C62.0874 93.3659 62.0809 93.4058 62.0809 93.4656V94.8825C62.0809 94.9291 62.0874 94.9623 62.1068 94.9889C62.1262 95.0155 62.1651 95.0288 62.2233 95.0288H63.1489C63.3883 95.0288 63.5761 94.9424 63.7184 94.7694C63.8608 94.6031 63.932 94.4036 63.932 94.184Z" fill="white"/>
<path d="M71.9931 93.3182C71.9931 93.5909 71.9445 93.8312 71.8405 94.039C71.7364 94.2468 71.5977 94.4221 71.4243 94.5649C71.2509 94.7078 71.0428 94.8182 70.8 94.8896C70.5572 94.961 70.3006 95 70.0231 95C69.7457 95 69.489 94.961 69.2393 94.8896C68.9965 94.8182 68.7884 94.7143 68.6081 94.5714C68.4347 94.4351 68.296 94.2597 68.1919 94.0455C68.0879 93.8377 68.0393 93.5909 68.0393 93.3182V92.552C68.0393 92.513 68.0324 92.4805 68.0185 92.4545C68.0046 92.4286 67.9699 92.4156 67.9144 92.4156H67.2832C67.2208 92.4156 67.1792 92.4286 67.1653 92.4481C67.1514 92.4675 67.1445 92.5065 67.1445 92.5584V94.7987C67.1445 94.9026 67.089 94.9481 66.9711 94.9481H66.1803C66.0555 94.9481 66 94.9026 66 94.8052V89.2338C66 89.1364 66.0624 89.0909 66.1803 89.0909H66.9642C67.0821 89.0909 67.1445 89.1364 67.1445 89.2338V91.3052C67.1445 91.3701 67.1584 91.4156 67.1723 91.4416C67.1931 91.4675 67.2208 91.474 67.2624 91.474H67.9006C67.9561 91.4675 67.9977 91.461 68.0185 91.448C68.0324 91.4351 68.0462 91.4026 68.0532 91.3506V90.6883C68.0532 90.4221 68.1017 90.1883 68.2058 89.9805C68.3029 89.7727 68.4416 89.5974 68.622 89.4481C68.7954 89.3052 69.0035 89.1883 69.2462 89.1169C69.4821 89.039 69.7457 89 70.0231 89C70.2936 89 70.5503 89.039 70.7931 89.1169C71.0358 89.1948 71.2439 89.2987 71.4243 89.4416C71.5977 89.5844 71.7364 89.7597 71.8405 89.9675C71.9445 90.1753 72 90.4156 72 90.6883V93.3182H71.9931ZM70.8486 90.6948C70.8486 90.474 70.7722 90.2922 70.6266 90.1558C70.4809 90.0195 70.2798 89.9545 70.0301 89.9545C69.7665 89.9545 69.5584 90.026 69.4127 90.1623C69.267 90.2987 69.1907 90.4805 69.1907 90.6948V93.3117C69.1907 93.5325 69.267 93.7143 69.4127 93.8442C69.5584 93.974 69.7665 94.0455 70.0231 94.0455C70.2798 94.0455 70.4809 93.9805 70.6335 93.8442C70.7861 93.7143 70.8555 93.5325 70.8555 93.3117V90.6948H70.8486Z" fill="white"/>
</svg>
