<svg width="249" height="113" viewBox="0 0 249 113" fill="none" xmlns="http://www.w3.org/2000/svg">
<path opacity="0.6" d="M5.76336 53.107C5.21271 53.1455 4.74794 53.0578 4.36906 52.8437C4.01215 52.604 3.73508 52.3107 3.53786 51.9636C3.33866 51.5926 3.22523 51.2397 3.19758 50.9048C3.15807 50.4265 3.33502 49.945 3.72843 49.4604C4.14579 48.9741 4.6789 48.4317 5.32777 47.833C5.97664 47.2343 6.67845 46.5477 7.43319 45.7733C8.2299 44.9237 8.97971 44.0894 9.68262 43.2704C10.3836 42.4276 11.0915 41.524 11.8065 40.5599L13.2116 42.2659C11.3723 42.1539 9.80944 41.8903 8.52299 41.4751C7.23457 41.036 6.20259 40.4947 5.42706 39.8513C4.65152 39.2078 4.07653 38.5143 3.70207 37.7707C3.32762 37.0271 3.11273 36.3204 3.05742 35.6507C2.99223 34.8614 3.12659 34.01 3.4605 33.0965C3.81638 32.1575 4.45253 31.259 5.36894 30.401C6.28338 29.5192 7.54584 28.7693 9.15632 28.1515C10.7888 27.5081 12.8499 27.0994 15.3399 26.9253C16.7285 26.8281 17.9245 26.8768 18.9278 27.0713C19.9291 27.2418 20.7059 27.6085 21.2581 28.1713C21.8322 28.7085 22.1588 29.4555 22.2378 30.4123C22.2595 30.6754 22.2641 31.1682 22.2515 31.8908C22.2629 32.6117 22.2622 33.4778 22.2494 34.4891C22.2586 35.4747 22.2737 36.5322 22.2947 37.6614C22.3377 38.765 22.4007 39.8191 22.4836 40.8236C22.5765 41.9478 22.7252 43.02 22.9299 44.0401C23.1326 45.0363 23.3104 45.8779 23.4635 46.5648C23.6405 47.2501 23.7408 47.7362 23.7645 48.0233C23.8021 48.4777 23.694 48.9183 23.4403 49.345C23.1846 49.7478 22.8392 50.0847 22.404 50.3557C21.9669 50.6027 21.497 50.7439 20.9942 50.779C20.2999 50.8276 19.7175 50.6277 19.2471 50.1795C18.8005 49.7296 18.4748 49.1389 18.27 48.4075C18.2342 48.2656 18.1387 47.8393 17.9837 47.1284C17.8267 46.3936 17.6439 45.4923 17.4353 44.4243C17.2506 43.3547 17.1129 42.2697 17.022 41.1695C16.9768 40.3307 16.9367 39.4073 16.9016 38.3993C16.8904 37.3897 16.8822 36.416 16.877 35.4782C16.8938 34.5147 16.8965 33.6726 16.8851 32.9517C16.8957 32.2052 16.9021 31.6995 16.9043 31.4347L17.4271 32.5168C17.1079 32.4429 16.6811 32.3765 16.1464 32.3177C15.6358 32.2572 14.9974 32.2537 14.2312 32.3073C13.489 32.3592 12.7638 32.47 12.0554 32.6399C11.371 32.808 10.7633 33.0309 10.2324 33.3086C9.70151 33.5863 9.29328 33.8915 9.00772 34.2242C8.72216 34.5569 8.59518 34.9146 8.62679 35.2973C8.69198 36.0866 9.31091 36.729 10.4836 37.2243C11.6562 37.7197 13.229 38.1029 15.2018 38.3739C16.0057 38.486 16.5752 38.6748 16.9101 38.94C17.2451 39.2053 17.4343 39.601 17.4777 40.1272C17.5073 40.486 17.3563 40.9897 17.0246 41.6384C16.6929 42.2871 16.2574 42.9911 15.7181 43.7505C15.2008 44.4843 14.6476 45.2207 14.0585 45.9595C13.4933 46.6967 12.9801 47.334 12.5188 47.8714C11.5982 48.9702 10.7246 49.9094 9.89801 50.6889C9.0934 51.4428 8.34679 52.0243 7.65818 52.4333C6.96956 52.8423 6.33796 53.0669 5.76336 53.107ZM47.7605 50.2786C46.4676 50.369 45.3376 50.2435 44.3703 49.9022C43.4269 49.5592 42.6143 49.0507 41.9326 48.3766C41.2748 47.7009 40.7637 46.9067 40.3994 45.994C40.0331 45.0573 39.8045 44.0389 39.7136 42.9386C39.6306 41.9341 39.6055 40.9014 39.6383 39.8406C39.6711 38.7798 39.7577 37.7874 39.8981 36.8634C40.0385 35.9395 40.2167 35.1813 40.4326 34.5888C40.6106 34.1193 40.8882 33.6909 41.2656 33.3037C41.643 32.9164 42.0742 32.5976 42.5592 32.3472C43.0661 32.0711 43.571 31.9156 44.0738 31.8804C44.5526 31.8469 44.9724 31.9739 45.3333 32.2614C45.6922 32.525 45.8924 32.9079 45.9339 33.4102C45.9694 33.8408 45.9271 34.3489 45.8069 34.9347C45.6867 35.5205 45.5386 36.2044 45.3624 36.9865C45.1842 37.7448 45.0518 38.6201 44.9652 39.6124C44.8766 40.5809 44.8807 41.6511 44.9775 42.8231C45.0546 43.756 45.3103 44.5199 45.7447 45.115C46.1792 45.7101 46.8273 45.9775 47.6892 45.9173C48.3835 45.8687 49.051 45.6416 49.6918 45.236C50.3564 44.8286 50.9125 44.2725 51.36 43.5676C51.8055 42.8388 52.0605 41.9911 52.1251 41.0243L53.1596 42.1788C52.6689 42.0688 52.0605 41.9911 51.3344 41.9456C50.6082 41.9002 49.8342 41.8581 49.0123 41.8193C48.1904 41.7805 47.3953 41.776 46.6272 41.8057C45.8572 41.8114 45.1729 41.8352 44.5743 41.877L44.7356 38.582C45.4738 38.4823 46.1942 38.3116 46.8966 38.0701C47.621 37.8029 48.2807 37.4801 48.8755 37.1017C49.4703 36.7233 49.9325 36.3422 50.2619 35.9583C50.5895 35.5505 50.7374 35.1552 50.7058 34.7725C50.6801 34.4616 50.5417 34.2428 50.2904 34.116C50.0371 33.9653 49.6591 33.9075 49.1564 33.9427C48.5339 33.9862 47.9073 34.1263 47.2767 34.3628C46.6441 34.5754 46.0245 34.7992 45.4178 35.0341C44.8351 35.2673 44.2594 35.4398 43.6907 35.5518C43.0223 35.6226 42.4928 35.4792 42.102 35.1216C41.7113 34.764 41.5042 34.2974 41.4807 33.7216C41.4333 33.1476 41.6273 32.5807 42.0627 32.021C42.52 31.4357 43.1318 30.972 43.8982 30.6297C44.8781 30.2484 45.9467 29.9211 47.104 29.6477C48.2853 29.3727 49.3667 29.2008 50.3483 29.1322C51.4975 29.0518 52.5039 29.1378 53.3676 29.3902C54.2551 29.6408 54.9511 30.0493 55.4553 30.6154C55.9836 31.1799 56.2832 31.8927 56.3543 32.7537C56.4215 33.567 56.2463 34.3611 55.8287 35.136C55.4351 35.9093 54.8579 36.6473 54.0972 37.35C53.3585 38.0272 52.4822 38.6417 51.4683 39.1938C50.4524 39.7219 49.3797 40.1457 48.2503 40.4653L48.5753 38.2774C49.6746 38.1765 50.731 38.1387 51.7444 38.1641C52.7559 38.1655 53.6675 38.2702 54.4793 38.478C55.3151 38.6842 55.9802 39.0106 56.4746 39.4571C56.9909 39.8781 57.2827 40.4952 57.3499 41.3085C57.4289 42.2652 57.2336 43.2531 56.7639 44.2723C56.2942 45.2915 55.6142 46.2412 54.7237 47.1214C53.8551 47.976 52.8191 48.6979 51.6156 49.2873C50.4341 49.851 49.1491 50.1815 47.7605 50.2786ZM68.0712 49.5078C66.6825 49.6049 65.4757 49.4247 64.4506 48.9671C63.4236 48.4856 62.6072 47.785 62.0015 46.865C61.4177 45.9195 61.0715 44.789 60.9629 43.4735C60.8522 42.1341 60.7774 40.9365 60.7384 39.8807C60.6993 38.8249 60.6861 37.9358 60.6986 37.2132C60.7112 36.4906 60.7266 35.9482 60.7449 35.5861C60.7772 35.1027 60.9053 34.6126 61.1291 34.1158C61.351 33.5951 61.6526 33.1651 62.0339 32.8257C62.4133 32.4624 62.8423 32.264 63.3212 32.2305C63.9676 32.1853 64.546 32.3373 65.0565 32.6865C65.5889 33.0101 65.8837 33.5188 65.941 34.2124C65.9825 34.7147 66.0139 35.3861 66.0351 36.2266C66.0564 37.0671 66.0767 37.8956 66.0959 38.7122C66.1036 39.0966 66.1013 39.5057 66.0889 39.9396C66.0986 40.3479 66.1102 40.7801 66.1238 41.2362C66.1374 41.6923 66.1659 42.1835 66.2094 42.7097C66.2627 43.3555 66.4748 43.8819 66.8455 44.289C67.2143 44.6722 67.6979 44.8429 68.2964 44.801C68.5598 44.7826 68.8432 44.7147 69.1465 44.5972C69.4498 44.4798 69.7363 44.3034 70.0058 44.0681C70.2753 43.8327 70.484 43.5896 70.6318 43.3387C70.8016 43.0622 70.8737 42.7684 70.848 42.4575C70.8105 42.003 70.6132 41.656 70.2563 41.4163C69.9234 41.175 69.4986 40.9882 68.982 40.8559C68.6389 40.7837 68.199 40.7062 67.6625 40.6234C67.1259 40.5406 66.5903 40.4698 66.0556 40.411C65.521 40.3522 65.0832 40.2986 64.7421 40.2503L64.5357 36.4397C65.328 36.1197 66.1901 35.7707 67.1221 35.3928C68.078 35.0132 69.0569 34.62 70.0587 34.2131C71.0586 33.7824 72.0455 33.3405 73.0194 32.8875C74.1789 32.3493 75.2048 31.7964 76.0971 31.2289C77.0132 30.6596 77.8156 30.1705 78.5043 29.7615C79.2168 29.3508 79.8484 29.1262 80.3991 29.0877C81.7159 28.9956 82.751 29.2841 83.5046 29.9531C84.2562 30.5982 84.6834 31.5426 84.7861 32.7864C84.8414 33.4561 84.8897 34.1864 84.9309 34.9774C84.9702 35.7445 85.0274 36.5825 85.1024 37.4914C85.1419 37.9697 85.1984 38.5071 85.2717 39.1034C85.345 39.6997 85.4433 40.3062 85.5665 40.9231C85.7136 41.5383 85.8707 42.1287 86.0378 42.6944C86.1373 43.0242 86.2229 43.331 86.2944 43.6147C86.39 43.8967 86.4466 44.1453 86.4644 44.3606C86.5039 44.8389 86.4098 45.3026 86.182 45.7515C85.9761 46.1749 85.6576 46.546 85.2264 46.8648C84.7933 47.1597 84.2774 47.3281 83.6789 47.37C82.8888 47.4252 82.2605 47.2526 81.794 46.8522C81.3495 46.4262 81.0307 45.9193 80.8377 45.3314C80.5173 44.3675 80.2777 43.3618 80.1189 42.3144C79.9582 41.2431 79.8393 40.241 79.7623 39.3082C79.7109 38.6863 79.6596 38.0644 79.6082 37.4426C79.5808 36.819 79.5553 36.2194 79.5319 35.6436C79.5084 35.0679 79.4779 34.5528 79.4404 34.0984C79.4268 33.6423 79.4101 33.2946 79.3903 33.0554L80.6884 33.9029C80.349 34.1672 79.7991 34.5063 79.0387 34.9203C78.3022 35.3327 77.4111 35.7679 76.3653 36.2259C75.3195 36.6839 74.2029 37.159 73.0155 37.651C71.85 38.1174 70.6816 38.5479 69.5102 38.9425C68.3388 39.3372 67.2333 39.6551 66.1937 39.8962L65.984 36.4827C66.1497 36.4471 66.423 36.4039 66.8041 36.3532C67.2072 36.2769 67.672 36.2204 68.1987 36.1835C68.5339 36.1601 69.0067 36.1992 69.6171 36.3009C70.2275 36.4025 70.8937 36.5965 71.6156 36.8828C72.3596 37.1435 73.0635 37.5033 73.7275 37.962C74.3914 38.4208 74.9556 38.9828 75.4199 39.6479C75.8842 40.3131 76.1568 41.136 76.2378 42.1167C76.3208 43.1213 76.1335 44.0606 75.6759 44.9345C75.2183 45.8085 74.5833 46.5746 73.7708 47.2329C72.9583 47.8911 72.0511 48.4236 71.0493 48.8305C70.0455 49.2134 69.0528 49.4392 68.0712 49.5078ZM100.177 50.1135C98.4288 50.2357 96.9039 49.9936 95.6016 49.387C94.3253 48.8026 93.2437 47.9521 92.3568 46.8353C91.468 45.6946 90.7678 44.3603 90.2563 42.8324C89.7668 41.2789 89.45 39.6291 89.3058 37.8831C89.1477 35.9696 89.2139 34.293 89.5044 32.8534C89.7948 31.4137 90.2457 30.1673 90.8571 29.1142C91.4664 28.0371 92.1644 27.1584 92.951 26.4779C93.7356 25.7735 94.5211 25.2254 95.3075 24.8336C96.0938 24.4418 97.0188 24.1246 98.0823 23.8818C99.1439 23.6151 100.145 23.3407 101.084 23.0584C102.144 22.7678 103.024 22.4898 103.725 22.2243C104.447 21.9332 105.036 21.7717 105.491 21.7399C105.921 21.7098 106.36 21.7753 106.807 21.9366C107.254 22.0978 107.638 22.3716 107.959 22.7582C108.277 23.1208 108.463 23.613 108.514 24.2349C108.565 24.8568 108.357 25.4006 107.89 25.8663C107.445 26.3064 106.814 26.6873 105.998 27.009C104.733 27.4342 103.577 27.7315 102.532 27.9009C101.51 28.0685 100.573 28.2423 99.7215 28.4221C98.8675 28.5781 98.0822 28.8375 97.3657 29.2003C96.741 29.5086 96.191 29.9921 95.7157 30.6509C95.2403 31.3096 94.8985 32.1273 94.6902 33.1042C94.4819 34.081 94.4331 35.2391 94.5437 36.5786C94.6959 38.4203 94.9819 39.9881 95.4017 41.2818C95.8216 42.5756 96.3964 43.5578 97.126 44.2285C97.8537 44.8752 98.7442 45.1618 99.7976 45.0881C100.42 45.0446 100.996 44.872 101.525 44.5704C102.078 44.2671 102.539 43.874 102.908 43.3911C103.3 42.8826 103.592 42.3449 103.786 41.7781C103.98 41.2112 104.054 40.6407 104.006 40.0667C103.953 39.4209 103.753 38.8936 103.406 38.4848C103.081 38.0505 102.67 37.7424 102.174 37.5606C101.677 37.3788 101.106 37.3105 100.459 37.3557C99.4059 37.4294 98.3752 37.7781 97.3672 38.4019C96.3812 39.0001 95.4828 39.7846 94.672 40.7555L92.3869 39.3275C92.7489 38.1715 93.3453 37.0834 94.1761 36.063C95.0308 35.041 96.034 34.213 97.1856 33.5792C98.3592 32.9198 99.6283 32.5424 100.993 32.4469C102.406 32.3482 103.721 32.5328 104.94 33.0009C106.182 33.4673 107.207 34.2136 108.014 35.2397C108.821 36.2658 109.292 37.5921 109.426 39.2186C109.525 40.4145 109.361 41.6288 108.933 42.8616C108.527 44.0688 107.898 45.2073 107.048 46.2772C106.221 47.3453 105.222 48.2211 104.05 48.9045C102.88 49.6117 101.589 50.0147 100.177 50.1135ZM118.069 44.0631C117.111 44.13 116.292 43.9828 115.612 43.6214C114.954 43.2344 114.404 42.6955 113.962 42.0047C113.541 41.2884 113.211 40.4936 112.97 39.6203C112.729 38.747 112.569 37.832 112.49 36.8753C112.437 36.2295 112.405 35.5461 112.393 34.8252C112.38 34.0804 112.367 33.3356 112.353 32.5908C112.364 31.8443 112.379 31.1576 112.4 30.5307C112.42 29.9037 112.451 29.3964 112.491 29.0087C112.537 28.1154 112.736 27.452 113.085 27.0186C113.456 26.5596 113.906 26.3117 114.432 26.2748C114.983 26.2363 115.509 26.3438 116.012 26.5974C116.537 26.8253 116.973 27.1557 117.322 27.5883C117.695 28.0194 117.905 28.5219 117.952 29.0959C117.976 29.383 117.973 29.7801 117.942 30.2874C117.91 30.7708 117.858 31.3037 117.785 31.8861C117.737 32.4669 117.702 33.0588 117.679 33.6617C117.657 34.2647 117.667 34.8293 117.711 35.3555C117.752 35.8578 117.805 36.3473 117.868 36.824C117.931 37.3007 118.037 37.7023 118.184 38.0288C118.356 38.3536 118.585 38.506 118.872 38.4859C119.423 38.4474 119.971 37.9399 120.516 36.9636C121.06 35.9633 121.576 34.6282 122.064 32.9582C122.456 31.8723 122.78 30.8393 123.036 29.8591C123.316 28.8772 123.591 27.9799 123.861 27.1672C124.155 26.3527 124.499 25.7032 124.892 25.2187C125.307 24.7085 125.838 24.4308 126.485 24.3856C127.466 24.3169 128.231 24.5401 128.779 25.0551C129.352 25.5684 129.742 26.2147 129.951 26.9939C130.12 27.5835 130.311 28.2919 130.524 29.119C130.76 29.9444 130.984 30.7587 131.195 31.5619C131.428 32.3395 131.651 32.9975 131.864 33.5359C132.238 34.5682 132.621 35.4195 133.014 36.0897C133.428 36.7343 133.788 37.2985 134.093 37.7824C134.396 38.2424 134.569 38.7354 134.612 39.2617C134.654 39.7639 134.561 40.2515 134.336 40.7244C134.108 41.1733 133.777 41.5453 133.344 41.8402C132.935 42.1334 132.467 42.2985 131.94 42.3353C130.911 42.4073 130.04 41.9269 129.329 40.8941C128.642 39.8596 127.974 38.4869 127.327 36.776C127.019 35.9556 126.734 35.1335 126.474 34.3097C126.213 33.486 125.966 32.6853 125.733 31.9077C125.523 31.1045 125.328 30.3483 125.149 29.6392L127.663 29.0303C127.541 29.5922 127.335 30.4486 127.044 31.5995C126.754 32.7505 126.391 34.0389 125.955 35.4647C125.405 37.2593 124.712 38.7872 123.877 40.0484C123.04 41.2857 122.133 42.2513 121.155 42.9451C120.175 43.6151 119.146 43.9877 118.069 44.0631ZM148.806 43.5015C147.297 43.6069 145.927 43.4863 144.694 43.1394C143.462 42.7926 142.47 42.2967 141.718 41.6516C140.966 41.0065 140.557 40.2773 140.49 39.4641C140.456 39.0575 140.581 38.6759 140.865 38.3192C141.146 37.9387 141.491 37.7342 141.898 37.7057C142.305 37.6773 142.693 37.7103 143.062 37.8048C143.431 37.8992 143.825 38.004 144.244 38.1191C144.66 38.2102 145.125 38.298 145.638 38.3824C146.149 38.4429 146.763 38.4481 147.481 38.3978C148.391 38.3342 149.106 38.1038 149.627 37.7065C150.172 37.3075 150.419 36.7971 150.368 36.1752C150.332 35.7447 150.166 35.3353 149.869 34.9471C149.57 34.535 149.156 34.1791 148.625 33.8794C148.119 33.578 147.486 33.3576 146.728 33.2182C145.968 33.0548 145.11 33.0066 144.152 33.0736C143.434 33.1238 142.886 33.1982 142.509 33.2967C142.156 33.3936 141.752 33.4579 141.297 33.4897C140.818 33.5232 140.341 33.4363 139.867 33.2289C139.39 32.9976 138.991 32.6887 138.67 32.3021C138.371 31.89 138.201 31.4328 138.16 30.9305C138.067 29.8064 138.423 29.0117 139.227 28.5465C140.053 28.0557 141.316 27.7508 143.016 27.632C144.692 27.5148 146.29 27.6195 147.81 27.9463C149.33 28.273 150.687 28.8156 151.881 29.5741C153.098 30.3069 154.081 31.2727 154.83 32.4712C155.579 33.6698 156.021 35.0823 156.155 36.7088C156.222 37.522 156.084 38.3255 155.74 39.1194C155.418 39.8877 154.923 40.5959 154.254 41.2441C153.607 41.8667 152.819 42.3789 151.889 42.7807C150.959 43.1825 149.931 43.4228 148.806 43.5015ZM142.515 54.8029C142.06 54.8348 141.596 54.747 141.121 54.5396C140.646 54.3322 140.245 53.9874 139.916 53.5052C139.587 53.023 139.391 52.3992 139.328 51.6338C139.286 51.1316 139.273 50.6754 139.287 50.2655C139.327 49.8777 139.366 49.4781 139.405 49.0664C139.443 48.6548 139.465 48.1961 139.472 47.6905C139.504 47.2071 139.491 46.6066 139.431 45.8891C139.323 44.5736 139.137 43.3476 138.875 42.2112C138.636 41.0732 138.353 39.9744 138.024 38.9148C137.718 37.8296 137.423 36.7316 137.138 35.6208C136.852 34.4861 136.621 33.2875 136.444 32.0248C136.39 31.6677 136.396 31.2944 136.46 30.9051C136.524 30.5157 136.678 30.1922 136.922 29.9346C137.163 29.653 137.535 29.4947 138.038 29.4595C138.732 29.411 139.392 29.5213 140.016 29.7903C140.638 30.0355 141.163 30.4078 141.589 30.9072C142.038 31.3811 142.287 31.917 142.336 32.5149C142.514 33.8015 142.738 35.0489 143.006 36.257C143.273 37.4412 143.562 38.6118 143.874 39.7687C144.186 40.9257 144.463 42.0851 144.703 43.2471C144.968 44.4074 145.151 45.6094 145.254 46.8532C145.333 47.8099 145.362 48.7461 145.341 49.6617C145.345 50.5756 145.257 51.4117 145.079 52.1699C144.927 52.9504 144.641 53.5718 144.222 54.0341C143.826 54.4948 143.257 54.751 142.515 54.8029ZM165.651 44.4526C164.406 44.5396 163.297 44.3766 162.323 43.9635C161.352 43.5744 160.569 42.9796 159.973 42.1793C159.377 41.379 159.032 40.4168 158.94 39.2926C158.841 38.0967 158.945 36.8745 159.251 35.6262C159.555 34.354 160.008 33.1315 160.609 31.9588C161.235 30.7844 161.978 29.7221 162.839 28.7718C163.721 27.7959 164.668 27.02 165.68 26.4441C166.714 25.8425 167.782 25.5032 168.883 25.4262C169.793 25.3626 170.57 25.5849 171.214 26.0932C171.882 26.5998 172.26 27.3913 172.349 28.4676C172.383 28.8742 172.301 29.1927 172.103 29.423C171.905 29.6534 171.641 29.8042 171.309 29.8755C169.799 30.2457 168.495 30.9263 167.397 31.9172C166.32 32.8826 165.501 34.0345 164.937 35.373C164.395 36.6859 164.18 38.012 164.29 39.3515C164.328 39.8059 164.396 40.1981 164.496 40.5279C164.595 40.8577 164.75 41.2679 164.959 41.7585L162.214 38.2697C162.826 38.684 163.354 38.9478 163.797 39.0612C164.263 39.1729 164.796 39.2078 165.395 39.166C166.616 39.0806 167.692 38.2596 168.623 36.703C169.554 35.1464 170.114 32.894 170.304 29.9458C170.354 29.3889 170.57 28.9408 170.951 28.6014C171.355 28.2364 171.832 28.0347 172.382 27.9962C173.316 27.9309 174.127 28.1268 174.815 28.5839C175.527 29.0393 176.032 29.6174 176.331 30.3182C176.856 31.4362 177.326 32.4618 177.74 33.3951C178.155 34.3284 178.638 35.2208 179.19 36.0723C179.764 36.8982 180.509 37.7603 181.426 38.6584C181.791 38.9937 181.995 39.4245 182.038 39.9507C182.106 40.4753 182.054 41.0201 181.884 41.5853C181.714 42.1505 181.429 42.6276 181.027 43.0165C180.626 43.4054 180.126 43.6208 179.528 43.6626C179.097 43.6928 178.743 43.6333 178.465 43.4843C178.19 43.3592 177.947 43.1838 177.736 42.958C177.182 42.3713 176.663 41.782 176.181 41.1903C175.723 40.5969 175.285 39.9659 174.869 39.2974C174.476 38.6272 174.09 37.8844 173.71 37.069C173.327 36.2297 172.945 35.246 172.563 34.118L174.487 33.803C174.072 36.358 173.411 38.413 172.504 39.9679C171.595 41.4989 170.543 42.6069 169.347 43.292C168.152 43.977 166.92 44.3638 165.651 44.4526ZM203.619 37.0704C201.871 37.1926 200.39 37.0436 199.176 36.6234C197.983 36.1775 197.006 35.5723 196.244 34.8076C195.505 34.0173 194.951 33.1419 194.583 32.1813C194.212 31.1968 193.989 30.2382 193.912 29.3053C193.856 28.6356 193.916 27.8977 194.09 27.0917C194.264 26.2856 194.544 25.4481 194.93 24.5792C195.34 23.7085 195.827 22.9046 196.392 22.1675C196.979 21.4047 197.663 20.7915 198.444 20.328C199.222 19.8406 200.09 19.5633 201.048 19.4964C201.503 19.4646 201.91 19.5805 202.269 19.844C202.649 20.082 202.951 20.3857 203.175 20.755C203.42 21.0987 203.556 21.438 203.584 21.7728C203.601 21.9881 203.549 22.2323 203.427 22.5055C203.328 22.753 203.182 23.0278 202.99 23.3299C202.82 23.6064 202.626 23.8846 202.409 24.1645C202.215 24.4426 202.019 24.6969 201.821 24.9272C201.152 25.8641 200.465 26.7301 199.761 27.5251C199.056 28.3202 198.291 28.975 197.467 29.4898C196.666 30.0028 195.763 30.2945 194.758 30.3648C194.039 30.415 193.419 30.4825 192.896 30.5672C192.397 30.6501 191.949 30.7657 191.552 30.9137C191.179 31.0601 190.825 31.2894 190.489 31.6015C190.13 31.9153 189.825 32.3095 189.576 32.784C189.35 33.2569 189.172 33.7264 189.042 34.1926C188.912 34.6588 188.801 35.0635 188.709 35.4067C188.531 36.1649 188.24 36.7265 187.836 37.0915C187.457 37.4548 186.992 37.6557 186.441 37.6942C185.723 37.7445 185.058 37.5624 184.446 37.1482C183.856 36.7083 183.524 36.0459 183.451 35.1609C183.431 34.9217 183.446 34.5117 183.494 33.931C183.564 33.3247 183.642 32.6577 183.726 31.9301C183.834 31.2008 183.909 30.498 183.949 29.8216C184.012 29.1195 184.023 28.5294 183.984 28.051C183.934 27.453 183.812 26.8481 183.617 26.2363C183.444 25.5989 183.277 25.0332 183.116 24.5393C182.954 24.0453 182.862 23.6549 182.838 23.3678C182.783 22.6981 182.973 22.0834 183.408 21.5237C183.844 20.964 184.444 20.6574 185.211 20.6038C185.881 20.557 186.471 20.7081 186.982 21.0573C187.516 21.4049 187.917 21.8821 188.184 22.4889C188.303 22.7692 188.431 23.1572 188.569 23.6528C188.706 24.1483 188.837 24.7165 188.962 25.3573C189.109 25.9725 189.208 26.5791 189.257 27.177C189.301 27.7032 189.301 28.2926 189.259 28.9451C189.24 29.5959 189.188 30.2732 189.101 30.9769C189.039 31.6789 188.961 32.3339 188.866 32.9419C188.794 33.5243 188.725 33.9982 188.659 34.3637C188.616 34.7275 188.595 34.9094 188.595 34.9094L184.014 34.1111C184.063 33.8191 184.149 33.4041 184.273 32.8662C184.397 32.3282 184.555 31.7639 184.747 31.1731C184.939 30.5823 185.205 30.0104 185.544 29.4574C185.882 28.8805 186.273 28.36 186.716 27.896C187.389 27.2957 188.083 26.8141 188.8 26.4512C189.54 26.0867 190.384 25.8112 191.332 25.6246C192.28 25.4381 193.412 25.2987 194.729 25.2067C194.921 25.1933 195.147 25.1654 195.408 25.1231C195.692 25.0551 195.975 24.9872 196.258 24.9193C196.566 24.8497 196.885 24.7792 197.216 24.708C197.571 24.635 197.917 24.5868 198.252 24.5634L201.953 24.7737C201.512 24.9729 201.111 25.2175 200.75 25.5073C200.388 25.7972 200.078 26.1197 199.818 26.4746C199.557 26.8056 199.36 27.1923 199.228 27.6345C199.118 28.0512 199.081 28.4868 199.119 28.9412C199.164 29.4913 199.353 30.0314 199.686 30.5615C200.017 31.0676 200.472 31.4688 201.05 31.7652C201.652 32.0598 202.372 32.1779 203.21 32.1193C203.785 32.0791 204.305 31.9586 204.77 31.7576C205.233 31.5328 205.607 31.254 205.892 30.9213C206.2 30.563 206.421 30.1747 206.555 29.7564C206.687 29.3141 206.732 28.8419 206.691 28.3396C206.643 27.7655 206.444 27.2502 206.093 26.7936C205.766 26.3353 205.256 25.9861 204.562 25.746C203.866 25.4819 202.967 25.3884 201.866 25.4654C201.267 25.5072 200.736 25.3399 200.271 24.9634C199.829 24.5614 199.589 24.1331 199.551 23.6786C199.51 23.1764 199.638 22.6863 199.935 22.2084C200.231 21.7066 200.607 21.2954 201.062 20.9749C201.515 20.6305 201.981 20.4415 202.46 20.408C204.04 20.2975 205.4 20.443 206.541 20.8443C207.704 21.2201 208.677 21.7775 209.46 22.5166C210.242 23.2318 210.84 24.056 211.254 24.9893C211.668 25.9226 211.917 26.8916 212 27.8962C212.073 28.7811 211.958 29.7274 211.656 30.7348C211.354 31.7423 210.857 32.7153 210.164 33.6538C209.47 34.5924 208.572 35.3769 207.468 36.0074C206.387 36.6123 205.103 36.9666 203.619 37.0704ZM26.4505 98.4748C25.5647 98.5367 24.8437 98.2624 24.2876 97.6517C23.7295 97.0172 23.2884 96.0497 22.9643 94.7492C22.6621 93.4232 22.4291 91.7675 22.2651 89.7823C22.2078 89.0886 22.1616 88.2379 22.1265 87.2299C22.0895 86.1981 22.0475 85.1064 22.0005 83.955C21.9536 82.8036 21.8937 81.641 21.8208 80.4673C21.7719 79.292 21.7079 78.2259 21.6289 77.2692L22.8248 78.6289C22.3122 78.5445 21.7187 78.5018 21.0444 78.5008C20.394 78.4982 19.6848 78.5117 18.9167 78.5414C18.1705 78.5454 17.3785 78.5768 16.5405 78.6354C15.5589 78.704 14.5314 78.7999 13.458 78.9231C12.4085 79.0446 11.4548 79.1594 10.5969 79.2675C9.76286 79.3739 9.14235 79.4414 8.73535 79.4698C8.06498 79.5167 7.5005 79.3878 7.0419 79.0831C6.58329 78.7783 6.24044 78.4174 6.01335 78.0003C5.8102 77.5814 5.6948 77.2046 5.66714 76.8698C5.6059 76.1283 5.7889 75.5742 6.21613 75.2075C6.64139 74.8169 7.22116 74.5479 7.95545 74.4003C8.7117 74.2271 9.52077 74.1104 10.3827 74.0501C11.2685 73.9882 12.2032 73.9349 13.1868 73.8901C14.1684 73.8215 15.151 73.7648 16.1346 73.7201C17.1421 73.6737 18.1017 73.6307 19.0135 73.591C19.9492 73.5496 20.7761 73.5038 21.4944 73.4536C23.3877 73.3452 24.773 73.6453 25.6503 74.3538C26.5255 75.0383 27.0194 76.0623 27.132 77.4256C27.2091 78.3585 27.2652 79.3288 27.3002 80.3368C27.3593 81.343 27.4053 82.3381 27.4385 83.3221C27.4716 84.3062 27.4997 85.2304 27.523 86.0948C27.5462 86.9592 27.5855 87.7263 27.6408 88.396C27.7472 89.9763 27.9615 91.4047 28.2837 92.6812C28.6298 93.9561 28.8334 94.9643 28.8947 95.7057C28.9243 96.0645 28.8482 96.4548 28.6663 96.8764C28.4824 97.2742 28.1988 97.6308 27.8155 97.9463C27.4562 98.2601 27.0012 98.4363 26.4505 98.4748ZM12.8978 97.943C12.2993 97.9848 11.7607 97.8782 11.2821 97.623C10.8255 97.3421 10.4418 96.9239 10.131 96.3683C9.81828 95.7888 9.6303 95.1163 9.56708 94.3509C9.51967 93.7768 9.48336 93.0457 9.45815 92.1573C9.45688 91.2673 9.44969 90.3055 9.43657 89.272C9.42147 88.2146 9.37145 87.1716 9.2865 86.1431C9.21539 85.282 9.10342 84.3637 8.9506 83.3881C8.81975 82.3868 8.63102 81.4137 8.38441 80.4687C8.15976 79.4981 7.85922 78.629 7.48279 77.8614L12.8018 76.2265C13.2141 77.1359 13.5325 78.0759 13.7571 79.0465C13.9818 80.0171 14.1605 81.015 14.2934 82.0402C14.4242 83.0414 14.5331 84.0682 14.62 85.1206C14.6714 85.7425 14.7177 86.4489 14.7589 87.2399C14.8241 88.0292 14.8783 88.8314 14.9216 89.6463C14.9648 90.4612 15.006 91.2522 15.0453 92.0192C15.0826 92.7624 15.113 93.4218 15.1365 93.9975C15.1599 94.5732 15.1596 95.0063 15.1354 95.2967C15.1068 96.1166 14.9068 96.756 14.5353 97.215C14.1858 97.6484 13.64 97.8911 12.8978 97.943ZM42.1301 97.7392C40.3105 97.8664 38.6538 97.6335 37.16 97.0403C35.6663 96.4471 34.463 95.581 33.5502 94.442C32.6354 93.2791 32.1138 91.9202 31.9854 90.3655C31.8965 89.2892 32.05 88.232 32.4459 87.1939C32.8418 86.1559 33.4141 85.2137 34.1629 84.3675C34.9357 83.5196 35.7811 82.823 36.6993 82.2776C37.6414 81.7306 38.5673 81.4253 39.4771 81.3617C39.908 81.3316 40.309 81.3757 40.68 81.4941C41.051 81.6125 41.356 81.8077 41.5952 82.0796C41.8564 82.326 42.0067 82.6883 42.0462 83.1667C42.1114 83.956 41.9881 84.6503 41.6764 85.2494C41.3647 85.8486 40.6969 86.3644 39.6732 86.7968C39.278 86.9688 38.8907 87.2364 38.5114 87.5998C38.154 87.9375 37.8614 88.3308 37.6336 88.7798C37.4278 89.2031 37.3456 89.666 37.3871 90.1682C37.4543 90.9815 37.8548 91.603 38.5886 92.0328C39.3444 92.4371 40.3328 92.5965 41.5538 92.5111C42.6072 92.4374 43.4474 92.1141 44.0743 91.541C44.7012 90.9679 44.9791 90.2508 44.9079 89.3897C44.8388 88.5526 44.4962 87.903 43.8801 87.4409C43.264 86.9787 42.5011 86.7795 41.5913 86.8431C41.0407 86.8816 40.5966 87.045 40.2593 87.3332C39.9438 87.5958 39.5774 87.9703 39.1601 88.4565C38.8745 88.7892 38.607 89.0485 38.3574 89.2344C38.1079 89.4202 37.8425 89.559 37.5611 89.6509C37.3037 89.7411 36.9954 89.7987 36.6363 89.8238C36.2053 89.854 35.8104 89.7372 35.4515 89.4736C35.1166 89.2084 34.9155 88.6691 34.8483 87.8559C34.795 87.2101 34.9212 86.5517 35.227 85.8808C35.5548 85.1843 35.9962 84.552 36.5513 83.984C37.1283 83.3903 37.7741 82.9001 38.4886 82.5134C39.2271 82.1249 39.9794 81.9039 40.7455 81.8504C42.6369 81.7181 44.2667 81.9169 45.6348 82.4467C47.001 82.9526 48.0786 83.7553 48.8678 84.8548C49.6549 85.9304 50.1137 87.2576 50.2441 88.8362C50.3725 90.3909 50.094 91.8297 49.4086 93.1526C48.7472 94.4739 47.7877 95.5393 46.5302 96.349C45.2727 97.1586 43.806 97.622 42.1301 97.7392ZM58.0249 100.489C56.9476 100.564 56.0849 100.324 55.437 99.7677C54.813 99.2099 54.4536 98.357 54.3588 97.2089C54.3035 96.5391 54.2603 95.5799 54.2294 94.3311C54.1966 93.0584 54.2885 91.6928 54.5051 90.2342C54.7983 87.9524 55.1458 86.184 55.5479 84.929C55.9718 83.6484 56.4504 82.7368 56.9835 82.1944C57.5406 81.6502 58.1662 81.3539 58.8605 81.3053C59.4112 81.2668 59.9827 81.3351 60.5751 81.5102C61.1675 81.6853 61.7069 81.9483 62.1934 82.2992C62.7038 82.6484 63.0636 83.0683 63.2727 83.5588C63.5474 84.2613 63.9168 85.0895 64.3809 86.0434C64.8449 86.9973 65.3488 87.9965 65.8926 89.041C66.4584 90.0599 67.0182 91.0071 67.5721 91.8825C68.15 92.7563 68.6631 93.4301 69.1116 93.9039L66.2353 94.502C66.6553 93.1735 67.0793 91.8929 67.5073 90.6602C67.9352 89.4274 68.3681 88.2544 68.8059 87.1413C69.2677 86.0264 69.7094 84.9611 70.1312 83.9453C70.593 82.8304 71.1094 81.9403 71.6805 81.2749C72.2516 80.6095 72.9083 80.2508 73.6505 80.1989C74.0814 80.1688 74.5332 80.2455 75.0059 80.4289C75.4766 80.5885 75.8645 80.7658 76.1696 80.961C76.702 81.2846 77.1176 81.6525 77.4165 82.0646C77.7155 82.4767 77.9205 83.0638 78.0316 83.8259C78.3214 85.5858 78.6204 87.1647 78.9284 88.5625C79.2585 89.9347 79.5977 91.1258 79.946 92.1359C80.4495 93.5681 80.9035 94.6911 81.3078 95.5048C81.7361 96.3169 81.9621 96.8664 81.9858 97.1534C82.0292 97.6796 81.8244 98.1149 81.3712 98.4594C80.9201 98.8277 80.3114 99.0387 79.5453 99.0922C78.827 99.1425 78.1359 98.9382 77.472 98.4794C76.808 98.0207 76.2978 97.3828 75.9414 96.5657C75.6168 95.8426 75.2674 94.965 74.8931 93.9326C74.5429 92.8986 74.1917 91.7083 73.8397 90.3617C73.5116 89.0134 73.2166 87.4824 72.9547 85.7686L74.577 85.2943C74.2591 86.1104 73.9232 86.9999 73.5693 87.9629C73.2394 88.9242 72.8984 89.8983 72.5465 90.8851C72.1946 91.872 71.8526 92.8341 71.5207 93.7715C71.1868 94.685 70.8829 95.5241 70.6089 96.2891C70.393 96.8815 70.0943 97.3474 69.713 97.6868C69.3576 98.0485 68.8447 98.2528 68.1744 98.2996C67.4561 98.3499 66.8467 98.2602 66.3461 98.0305C65.8476 97.8248 65.3989 97.4954 65.0003 97.0421C64.6256 96.5872 64.2201 96.0502 63.7837 95.4312C63.5665 95.1336 63.2785 94.7087 62.9199 94.1564C62.5832 93.5786 62.2166 92.9306 61.8202 92.2126C61.4238 91.4945 61.0393 90.7757 60.6669 90.0559C60.2924 89.3123 59.9708 88.6251 59.702 87.9944C59.4551 87.3381 59.291 86.8083 59.2095 86.405L61.068 86.1668C60.7783 86.7404 60.5153 87.4925 60.2792 88.4231C60.041 89.3299 59.8577 90.317 59.7291 91.3845C59.6225 92.4264 59.6117 93.4616 59.6967 94.4901C59.7638 95.3033 59.848 96.0311 59.9492 96.6736C60.0744 97.3144 60.1508 97.8022 60.1785 98.1371C60.2318 98.7829 60.0478 99.325 59.6265 99.7634C59.2291 100.2 58.6953 100.442 58.0249 100.489ZM93.6372 93.0188C91.6979 93.1545 89.9555 92.9034 88.4098 92.2657C86.8642 91.6281 85.6071 90.6936 84.6386 89.4622C83.692 88.2053 83.1505 86.7516 83.0142 85.1013C82.9213 83.9771 83.0829 82.8712 83.4987 81.7836C83.9146 80.6961 84.4949 79.7053 85.2398 78.8112C86.0086 77.9154 86.864 77.1941 87.8061 76.647C88.7722 76.0984 89.734 75.7905 90.6917 75.7236C91.0987 75.6951 91.4877 75.7401 91.8587 75.8585C92.2277 75.953 92.5318 76.1362 92.7709 76.4081C93.0341 76.6784 93.1844 77.0408 93.2219 77.4952C93.2911 78.3324 93.1708 79.0625 92.861 79.6856C92.5513 80.3086 91.8725 80.8372 90.8248 81.2714C90.4077 81.4689 89.9985 81.7622 89.5972 82.1511C89.2178 82.5144 88.9152 82.9325 88.6894 83.4054C88.4855 83.8526 88.4053 84.3394 88.4488 84.8656C88.5318 85.8702 88.981 86.6446 89.7965 87.189C90.634 87.7078 91.7231 87.9204 93.0638 87.8266C94.1891 87.7479 95.0732 87.3734 95.7161 86.7029C96.381 86.0069 96.671 85.1446 96.5861 84.1161C96.5051 83.1355 96.1416 82.3791 95.4957 81.8469C94.8497 81.3147 94.024 81.0837 93.0184 81.154C92.4678 81.1926 92.0237 81.3559 91.6864 81.6441C91.349 81.9323 90.9726 82.3315 90.5572 82.8417C90.2716 83.1744 90.0051 83.4457 89.7575 83.6554C89.51 83.8652 89.2585 84.0271 89.003 84.1412C88.7456 84.2314 88.4373 84.289 88.0782 84.3141C87.6472 84.3443 87.2523 84.2275 86.8934 83.964C86.5326 83.6765 86.3166 83.1022 86.2455 82.2411C86.1901 81.5714 86.3264 80.8883 86.6541 80.1918C86.9819 79.4953 87.4223 78.851 87.9754 78.259C88.5524 77.6654 89.1982 77.1752 89.9128 76.7884C90.6512 76.4 91.4035 76.179 92.1697 76.1254C94.1089 75.9898 95.7886 76.2091 97.2085 76.7834C98.6265 77.3338 99.7441 78.1819 100.561 79.3276C101.378 80.4733 101.856 81.8833 101.994 83.5576C102.13 85.2079 101.847 86.7313 101.143 88.1277C100.464 89.5224 99.4745 90.6621 98.175 91.5468C96.8736 92.4076 95.361 92.8983 93.6372 93.0188ZM135.802 99.1638C135.203 99.2057 134.666 99.111 134.189 98.8797C133.738 98.6706 133.389 98.3823 133.142 98.0147C132.897 97.671 132.762 97.3436 132.736 97.0327C132.693 96.5065 132.705 95.9282 132.773 95.298C132.866 94.6661 132.976 93.9607 133.104 93.1819C133.233 92.4031 133.333 91.5782 133.406 90.7071L134.156 91.0515C133.763 91.2474 133.071 91.4642 132.079 91.702C131.109 91.9141 129.949 92.1516 128.598 92.4145C127.269 92.6517 125.858 92.9068 124.363 93.1797C122.869 93.4526 121.395 93.688 119.943 93.8858C118.492 94.1075 117.159 94.2969 115.944 94.454C114.729 94.6112 113.739 94.7165 112.972 94.7701C111.823 94.8505 110.829 94.7636 109.989 94.5096C109.147 94.2317 108.45 93.8113 107.898 93.2485C107.346 92.6857 106.918 92.018 106.613 91.2454C106.307 90.4489 106.114 89.5723 106.035 88.6156C105.989 88.0655 105.956 87.3702 105.935 86.5297C105.935 85.6636 105.957 84.7599 106 83.8187C106.042 82.8775 106.089 81.9842 106.14 81.1387C106.212 80.2675 106.298 79.5519 106.396 78.9917C106.552 78.2591 106.781 77.6778 107.082 77.2477C107.382 76.7937 107.891 76.5416 108.609 76.4914C109.112 76.4563 109.602 76.5543 110.078 76.7856C110.577 76.9913 110.987 77.2874 111.308 77.674C111.628 78.0605 111.808 78.481 111.845 78.9354C111.877 79.3181 111.83 79.9228 111.706 80.7494C111.582 81.576 111.462 82.6068 111.347 83.8417C111.257 85.075 111.277 86.4929 111.41 88.0954C111.459 88.6934 111.63 89.1625 111.923 89.5029C112.214 89.8193 112.695 89.9541 113.365 89.9072C114.946 89.7967 116.674 89.5917 118.552 89.292C120.429 88.9923 122.291 88.6456 124.137 88.2519C126.004 87.8326 127.753 87.4337 129.384 87.055C131.014 86.6764 132.385 86.3641 133.496 86.1179C134.63 85.8462 135.376 85.6978 135.735 85.6727C136.788 85.599 137.6 85.8069 138.17 86.2963C138.764 86.784 139.12 87.7334 139.236 89.1446C139.323 90.197 139.322 91.2075 139.234 92.1759C139.143 93.1205 139.011 93.9958 138.837 94.8018C138.662 95.6079 138.489 96.2816 138.317 96.8228C138.109 97.511 137.806 98.0615 137.406 98.4743C137.031 98.8854 136.496 99.1153 135.802 99.1638ZM118.362 90.9291C118.147 90.3667 117.953 89.7669 117.78 89.1294C117.629 88.4664 117.504 87.8256 117.404 87.2071C117.303 86.5646 117.228 85.9444 117.179 85.3465C117.111 84.5332 117.07 83.7423 117.055 82.9735C117.061 82.1792 117.08 81.384 117.111 80.588C117.141 79.792 117.343 79.1764 117.717 78.7414C118.09 78.3063 118.636 78.0636 119.354 78.0134C119.833 77.9799 120.309 78.0549 120.781 78.2384C121.254 78.4218 121.664 78.7179 122.011 79.1267C122.355 79.5116 122.555 80.0269 122.608 80.6727C122.622 80.8401 122.613 81.1775 122.583 81.6848C122.577 82.1904 122.565 82.7806 122.549 83.4554C122.556 84.1284 122.586 84.7759 122.637 85.3978C122.714 86.3306 122.838 87.1038 123.009 87.7173C123.18 88.3308 123.342 88.8367 123.496 89.2349C123.649 89.6332 123.748 89.963 123.794 90.2245L118.362 90.9291ZM134.107 89.1424L128.885 89.7602C128.877 89.3759 128.871 88.8711 128.868 88.2458C128.888 87.6189 128.881 86.9459 128.846 86.2266C128.81 85.5074 128.767 84.8368 128.716 84.215C128.635 83.2343 128.487 82.3184 128.272 81.4674C128.079 80.5908 127.885 79.8466 127.69 79.2347C127.519 78.6212 127.423 78.1829 127.401 77.9198C127.346 77.2501 127.49 76.6627 127.833 76.1575C128.201 75.6507 128.732 75.373 129.426 75.3244C130.168 75.2725 130.869 75.452 131.529 75.863C132.213 76.2722 132.687 76.9007 132.949 77.7484C133.115 78.2901 133.276 78.9284 133.433 79.6632C133.588 80.374 133.721 81.1105 133.832 81.8725C133.941 82.6106 134.023 83.3146 134.078 83.9843C134.138 84.7018 134.168 85.3613 134.17 85.9626C134.195 86.5622 134.206 87.1268 134.201 87.6564C134.197 88.1859 134.165 88.6813 134.107 89.1424ZM150.248 94.4008C148.836 94.4996 147.623 94.3919 146.61 94.0779C145.621 93.7621 144.811 93.2895 144.181 92.66C143.553 92.0543 143.073 91.3422 142.74 90.5234C142.432 89.703 142.241 88.8503 142.168 87.9653C142.059 86.6498 142.073 85.3618 142.21 84.1013C142.371 82.8391 142.413 81.7536 142.338 80.8447C142.291 80.2706 142.204 79.7956 142.076 79.4196C141.971 79.018 141.904 78.6498 141.877 78.3149C141.839 77.8605 141.899 77.4232 142.057 77.0032C142.239 76.5815 142.512 76.2377 142.875 75.9717C143.26 75.6802 143.704 75.5168 144.207 75.4817C145.093 75.4197 145.837 75.6804 146.439 76.2638C147.065 76.8455 147.425 77.7104 147.52 78.8585C147.563 79.3847 147.577 79.9852 147.56 80.6599C147.566 81.3091 147.549 81.9838 147.511 82.6842C147.472 83.3845 147.443 84.0481 147.422 84.675C147.424 85.2763 147.444 85.8162 147.484 86.2945C147.529 86.8447 147.598 87.3812 147.689 87.904C147.781 88.4269 147.996 88.8449 148.335 89.158C148.673 89.471 149.202 89.6025 149.92 89.5523C150.351 89.5221 150.774 89.3963 151.189 89.1748C151.628 88.9517 152.014 88.6601 152.345 88.3001C152.701 87.9385 152.979 87.5221 153.181 87.0509C153.381 86.5558 153.459 86.0451 153.416 85.5189C153.404 85.3754 153.251 85.2778 152.958 85.2261C152.665 85.1745 152.279 85.1654 151.8 85.1989C151.154 85.2441 150.462 85.3285 149.726 85.4521C148.99 85.5758 148.302 85.7081 147.664 85.8489C147.047 85.9642 146.573 86.0575 146.242 86.1288C145.763 86.1623 145.292 86.1351 144.827 86.0473C144.384 85.9339 144.007 85.7438 143.696 85.4769C143.407 85.1843 143.242 84.7869 143.2 84.2846C143.145 83.6149 143.298 83.1351 143.659 82.8452C144.045 82.5537 144.54 82.2785 145.144 82.0197C145.472 81.9006 145.929 81.7483 146.515 81.563C147.126 81.3759 147.797 81.1967 148.53 81.0252C149.284 80.8281 150.04 80.6549 150.798 80.5057C151.557 80.3564 152.259 80.2592 152.905 80.214C154.126 80.1286 155.161 80.2608 156.008 80.6105C156.854 80.9362 157.501 81.4804 157.949 82.2429C158.419 82.9799 158.701 83.9104 158.794 85.0346C158.885 86.1348 158.698 87.2304 158.234 88.3213C157.769 89.3883 157.116 90.3722 156.275 91.273C155.432 92.1498 154.48 92.866 153.418 93.4213C152.382 93.999 151.326 94.3255 150.248 94.4008Z" fill="#F5B02B"/>
</svg>
