<svg width="102" height="63" viewBox="0 0 102 63" fill="none" xmlns="http://www.w3.org/2000/svg">
<path opacity="0.6" fill-rule="evenodd" clip-rule="evenodd" d="M0.82869 0.159353C0.0884552 0.531391 -0.211586 1.43618 0.158531 2.18026C6.12639 14.1779 12.6378 24.0718 21.0485 31.9039C29.4735 39.7492 39.738 45.4644 53.1251 49.2023C68.4999 53.4953 82.9684 55.2036 98.6286 55.3054C98.4445 55.7638 98.2336 56.2439 98.0018 56.7089C97.5331 57.6491 97.0409 58.4012 96.5953 58.8242C96.5315 58.8848 96.4667 58.9403 96.3711 59.0223C96.3404 59.0486 96.3065 59.0776 96.2684 59.1104C96.1327 59.2275 95.9489 59.3888 95.7734 59.5785C95.4128 59.9684 94.975 60.5997 94.975 61.4937C94.975 62.3256 95.6459 63 96.4735 63C97.2545 63 97.8959 62.3995 97.9657 61.6327C97.9665 61.6318 97.9674 61.6309 97.9682 61.63C98.0211 61.5728 98.0953 61.5043 98.2198 61.397C98.2386 61.3807 98.2599 61.3626 98.2829 61.3428C98.3869 61.2539 98.5279 61.1333 98.6531 61.0144C99.4831 60.2265 100.163 59.0976 100.681 58.0585C101.213 56.991 101.64 55.8834 101.923 55.0298C101.991 54.8233 102.013 54.6125 101.993 54.409C102.01 54.23 101.996 54.0448 101.945 53.8612C101.193 51.1413 99.2601 48.2295 97.8697 46.1353C97.8192 46.0591 97.7694 45.9841 97.7203 45.9101C97.2612 45.2179 96.3309 45.0309 95.6422 45.4923C94.9536 45.9538 94.7676 46.889 95.2266 47.5812L95.2406 47.6023C96.222 49.0819 97.3004 50.7079 98.0986 52.2886C82.872 52.1523 68.8295 50.4606 53.9273 46.2996C40.9463 42.6751 31.1203 37.1761 23.0853 29.6939C15.036 22.1983 8.71784 12.6513 2.83917 0.832988C2.46905 0.0889119 1.56892 -0.212685 0.82869 0.159353Z" fill="#F5B02B"/>
</svg>
