<svg width="249" height="113" viewBox="0 0 249 113" fill="none" xmlns="http://www.w3.org/2000/svg">
<path opacity="0.6" d="M5.76336 53.107C5.21271 53.1455 4.74794 53.0578 4.36906 52.8437C4.01215 52.604 3.73508 52.3107 3.53786 51.9636C3.33866 51.5926 3.22523 51.2397 3.19758 50.9048C3.15807 50.4265 3.33502 49.945 3.72843 49.4604C4.14579 48.9741 4.6789 48.4317 5.32777 47.833C5.97664 47.2343 6.67845 46.5477 7.43319 45.7733C8.2299 44.9237 8.97971 44.0894 9.68262 43.2704C10.3836 42.4276 11.0915 41.524 11.8065 40.5599L13.2116 42.2659C11.3723 42.1539 9.80944 41.8903 8.52299 41.4751C7.23457 41.036 6.20259 40.4947 5.42706 39.8513C4.65152 39.2078 4.07653 38.5143 3.70207 37.7707C3.32762 37.0271 3.11273 36.3204 3.05742 35.6507C2.99223 34.8614 3.12659 34.01 3.4605 33.0965C3.81638 32.1575 4.45253 31.259 5.36894 30.401C6.28338 29.5192 7.54584 28.7693 9.15632 28.1515C10.7888 27.5081 12.8499 27.0994 15.3399 26.9253C16.7285 26.8281 17.9245 26.8768 18.9278 27.0713C19.9291 27.2418 20.7059 27.6085 21.2581 28.1713C21.8322 28.7085 22.1588 29.4555 22.2378 30.4123C22.2595 30.6754 22.2641 31.1682 22.2515 31.8908C22.2629 32.6117 22.2622 33.4778 22.2494 34.4891C22.2586 35.4747 22.2737 36.5322 22.2947 37.6614C22.3377 38.765 22.4007 39.8191 22.4836 40.8236C22.5765 41.9478 22.7252 43.02 22.9299 44.0401C23.1326 45.0363 23.3104 45.8779 23.4635 46.5648C23.6405 47.2501 23.7408 47.7362 23.7645 48.0233C23.8021 48.4777 23.694 48.9183 23.4403 49.345C23.1846 49.7478 22.8392 50.0847 22.404 50.3557C21.9669 50.6027 21.497 50.7439 20.9942 50.779C20.2999 50.8276 19.7175 50.6277 19.2471 50.1795C18.8005 49.7296 18.4748 49.1389 18.27 48.4075C18.2342 48.2656 18.1387 47.8393 17.9837 47.1284C17.8267 46.3936 17.6439 45.4923 17.4353 44.4243C17.2506 43.3547 17.1129 42.2697 17.022 41.1695C16.9768 40.3307 16.9367 39.4073 16.9016 38.3993C16.8904 37.3897 16.8822 36.416 16.877 35.4782C16.8938 34.5147 16.8965 33.6726 16.8851 32.9517C16.8957 32.2052 16.9021 31.6995 16.9043 31.4347L17.4271 32.5168C17.1079 32.4429 16.6811 32.3765 16.1464 32.3177C15.6358 32.2572 14.9974 32.2537 14.2312 32.3073C13.489 32.3592 12.7638 32.47 12.0554 32.6399C11.371 32.808 10.7633 33.0309 10.2324 33.3086C9.70151 33.5863 9.29328 33.8915 9.00772 34.2242C8.72216 34.5569 8.59518 34.9146 8.62679 35.2973C8.69198 36.0866 9.31091 36.729 10.4836 37.2243C11.6562 37.7197 13.229 38.1029 15.2018 38.3739C16.0057 38.486 16.5752 38.6748 16.9101 38.94C17.2451 39.2053 17.4343 39.601 17.4777 40.1272C17.5073 40.486 17.3563 40.9897 17.0246 41.6384C16.6929 42.2871 16.2574 42.9911 15.7181 43.7505C15.2008 44.4843 14.6476 45.2207 14.0585 45.9595C13.4933 46.6967 12.9801 47.334 12.5188 47.8714C11.5982 48.9702 10.7246 49.9094 9.89801 50.6889C9.0934 51.4428 8.34679 52.0243 7.65818 52.4333C6.96956 52.8423 6.33796 53.0669 5.76336 53.107ZM47.7605 50.2786C46.4676 50.369 45.3376 50.2435 44.3703 49.9022C43.4269 49.5592 42.6143 49.0507 41.9326 48.3766C41.2748 47.7009 40.7637 46.9067 40.3994 45.994C40.0331 45.0573 39.8045 44.0389 39.7136 42.9386C39.6306 41.9341 39.6055 40.9014 39.6383 39.8406C39.6711 38.7798 39.7577 37.7874 39.8981 36.8634C40.0385 35.9395 40.2167 35.1813 40.4326 34.5888C40.6106 34.1193 40.8882 33.6909 41.2656 33.3037C41.643 32.9164 42.0742 32.5976 42.5592 32.3472C43.0661 32.0711 43.571 31.9156 44.0738 31.8804C44.5526 31.8469 44.9724 31.9739 45.3333 32.2614C45.6922 32.525 45.8924 32.9079 45.9339 33.4102C45.9694 33.8408 45.9271 34.3489 45.8069 34.9347C45.6867 35.5205 45.5386 36.2044 45.3624 36.9865C45.1842 37.7448 45.0518 38.6201 44.9652 39.6124C44.8766 40.5809 44.8807 41.6511 44.9775 42.8231C45.0546 43.756 45.3103 44.5199 45.7447 45.115C46.1792 45.7101 46.8273 45.9775 47.6892 45.9173C48.3835 45.8687 49.051 45.6416 49.6918 45.236C50.3564 44.8286 50.9125 44.2725 51.36 43.5676C51.8055 42.8388 52.0605 41.9911 52.1251 41.0243L53.1596 42.1788C52.6689 42.0688 52.0605 41.9911 51.3344 41.9456C50.6082 41.9002 49.8342 41.8581 49.0123 41.8193C48.1904 41.7805 47.3953 41.776 46.6272 41.8057C45.8572 41.8114 45.1729 41.8352 44.5743 41.877L44.7356 38.582C45.4738 38.4823 46.1942 38.3116 46.8966 38.0701C47.621 37.8029 48.2807 37.4801 48.8755 37.1017C49.4703 36.7233 49.9325 36.3422 50.2619 35.9583C50.5895 35.5505 50.7374 35.1552 50.7058 34.7725C50.6801 34.4616 50.5417 34.2428 50.2904 34.116C50.0371 33.9653 49.6591 33.9075 49.1564 33.9427C48.5339 33.9862 47.9073 34.1263 47.2767 34.3628C46.6441 34.5754 46.0245 34.7992 45.4178 35.0341C44.8351 35.2673 44.2594 35.4398 43.6907 35.5518C43.0223 35.6226 42.4928 35.4792 42.102 35.1216C41.7113 34.764 41.5042 34.2974 41.4807 33.7216C41.4333 33.1476 41.6273 32.5807 42.0627 32.021C42.52 31.4357 43.1318 30.972 43.8982 30.6297C44.8781 30.2484 45.9467 29.9211 47.104 29.6477C48.2853 29.3727 49.3667 29.2008 50.3483 29.1322C51.4975 29.0518 52.5039 29.1378 53.3676 29.3902C54.2551 29.6408 54.9511 30.0493 55.4553 30.6154C55.9836 31.1799 56.2832 31.8927 56.3543 32.7537C56.4215 33.567 56.2463 34.3611 55.8287 35.136C55.4351 35.9093 54.8579 36.6473 54.0972 37.35C53.3585 38.0272 52.4822 38.6417 51.4683 39.1938C50.4524 39.7219 49.3797 40.1457 48.2503 40.4653L48.5753 38.2774C49.6746 38.1765 50.731 38.1387 51.7444 38.1641C52.7559 38.1655 53.6675 38.2702 54.4793 38.478C55.3151 38.6842 55.9802 39.0106 56.4746 39.4571C56.9909 39.8781 57.2827 40.4952 57.3499 41.3085C57.4289 42.2652 57.2336 43.2531 56.7639 44.2723C56.2942 45.2915 55.6142 46.2412 54.7237 47.1214C53.8551 47.976 52.8191 48.6979 51.6156 49.2873C50.4341 49.851 49.1491 50.1815 47.7605 50.2786ZM68.0712 49.5078C66.6825 49.6049 65.4757 49.4247 64.4506 48.9671C63.4236 48.4856 62.6072 47.785 62.0015 46.865C61.4177 45.9195 61.0715 44.789 60.9629 43.4735C60.8522 42.1341 60.7774 40.9365 60.7384 39.8807C60.6993 38.8249 60.6861 37.9358 60.6986 37.2132C60.7112 36.4906 60.7266 35.9482 60.7449 35.5861C60.7772 35.1027 60.9053 34.6126 61.1291 34.1158C61.351 33.5951 61.6526 33.1651 62.0339 32.8257C62.4133 32.4624 62.8423 32.264 63.3212 32.2305C63.9676 32.1853 64.546 32.3373 65.0565 32.6865C65.5889 33.0101 65.8837 33.5188 65.941 34.2124C65.9825 34.7147 66.0139 35.3861 66.0351 36.2266C66.0564 37.0671 66.0767 37.8956 66.0959 38.7122C66.1036 39.0966 66.1013 39.5057 66.0889 39.9396C66.0986 40.3479 66.1102 40.7801 66.1238 41.2362C66.1374 41.6923 66.1659 42.1835 66.2094 42.7097C66.2627 43.3555 66.4748 43.8819 66.8455 44.289C67.2143 44.6722 67.6979 44.8429 68.2964 44.801C68.5598 44.7826 68.8432 44.7147 69.1465 44.5972C69.4498 44.4798 69.7363 44.3034 70.0058 44.0681C70.2753 43.8327 70.484 43.5896 70.6318 43.3387C70.8016 43.0622 70.8737 42.7684 70.848 42.4575C70.8105 42.003 70.6132 41.656 70.2563 41.4163C69.9234 41.175 69.4986 40.9882 68.982 40.8559C68.6389 40.7837 68.199 40.7062 67.6625 40.6234C67.1259 40.5406 66.5903 40.4698 66.0556 40.411C65.521 40.3522 65.0832 40.2986 64.7421 40.2503L64.5357 36.4397C65.328 36.1197 66.1901 35.7707 67.1221 35.3928C68.078 35.0132 69.0569 34.62 70.0587 34.2131C71.0586 33.7824 72.0455 33.3405 73.0194 32.8875C74.1789 32.3493 75.2048 31.7964 76.0971 31.2289C77.0132 30.6596 77.8156 30.1705 78.5043 29.7615C79.2168 29.3508 79.8484 29.1262 80.3991 29.0877C81.7159 28.9956 82.751 29.2841 83.5046 29.9531C84.2562 30.5982 84.6834 31.5426 84.7861 32.7864C84.8414 33.4561 84.8897 34.1864 84.9309 34.9774C84.9702 35.7445 85.0274 36.5825 85.1024 37.4914C85.1419 37.9697 85.1984 38.5071 85.2717 39.1034C85.345 39.6997 85.4433 40.3062 85.5665 40.9231C85.7136 41.5383 85.8707 42.1287 86.0378 42.6944C86.1373 43.0242 86.2229 43.331 86.2944 43.6147C86.39 43.8967 86.4466 44.1453 86.4644 44.3606C86.5039 44.8389 86.4098 45.3026 86.182 45.7515C85.9761 46.1749 85.6576 46.546 85.2264 46.8648C84.7933 47.1597 84.2774 47.3281 83.6789 47.37C82.8888 47.4252 82.2605 47.2526 81.794 46.8522C81.3495 46.4262 81.0307 45.9193 80.8377 45.3314C80.5173 44.3675 80.2777 43.3618 80.1189 42.3144C79.9582 41.2431 79.8393 40.241 79.7623 39.3082C79.7109 38.6863 79.6596 38.0644 79.6082 37.4426C79.5808 36.819 79.5553 36.2194 79.5319 35.6436C79.5084 35.0679 79.4779 34.5528 79.4404 34.0984C79.4268 33.6423 79.4101 33.2946 79.3903 33.0554L80.6884 33.9029C80.349 34.1672 79.7991 34.5063 79.0387 34.9203C78.3022 35.3327 77.4111 35.7679 76.3653 36.2259C75.3195 36.6839 74.2029 37.159 73.0155 37.651C71.85 38.1174 70.6816 38.5479 69.5102 38.9425C68.3388 39.3372 67.2333 39.6551 66.1937 39.8962L65.984 36.4827C66.1497 36.4471 66.423 36.4039 66.8041 36.3532C67.2072 36.2769 67.672 36.2204 68.1987 36.1835C68.5339 36.1601 69.0067 36.1992 69.6171 36.3009C70.2275 36.4025 70.8937 36.5965 71.6156 36.8828C72.3596 37.1435 73.0635 37.5033 73.7275 37.962C74.3914 38.4208 74.9556 38.9828 75.4199 39.6479C75.8842 40.3131 76.1568 41.136 76.2378 42.1167C76.3208 43.1213 76.1335 44.0606 75.6759 44.9345C75.2183 45.8085 74.5833 46.5746 73.7708 47.2329C72.9583 47.8911 72.0511 48.4236 71.0493 48.8305C70.0455 49.2134 69.0528 49.4392 68.0712 49.5078ZM100.177 50.1135C98.4288 50.2357 96.9039 49.9936 95.6016 49.387C94.3253 48.8026 93.2437 47.9521 92.3568 46.8353C91.468 45.6946 90.7678 44.3603 90.2563 42.8324C89.7668 41.2789 89.45 39.6291 89.3058 37.8831C89.1477 35.9696 89.2139 34.293 89.5044 32.8534C89.7948 31.4137 90.2457 30.1673 90.8571 29.1142C91.4664 28.0371 92.1644 27.1584 92.951 26.4779C93.7356 25.7735 94.5211 25.2254 95.3075 24.8336C96.0938 24.4418 97.0188 24.1246 98.0823 23.8818C99.1439 23.6151 100.145 23.3407 101.084 23.0584C102.144 22.7678 103.024 22.4898 103.725 22.2243C104.447 21.9332 105.036 21.7717 105.491 21.7399C105.921 21.7098 106.36 21.7753 106.807 21.9366C107.254 22.0978 107.638 22.3716 107.959 22.7582C108.277 23.1208 108.463 23.613 108.514 24.2349C108.565 24.8568 108.357 25.4006 107.89 25.8663C107.445 26.3064 106.814 26.6873 105.998 27.009C104.733 27.4342 103.577 27.7315 102.532 27.9009C101.51 28.0685 100.573 28.2423 99.7215 28.4221C98.8675 28.5781 98.0822 28.8375 97.3657 29.2003C96.741 29.5086 96.191 29.9921 95.7157 30.6509C95.2403 31.3096 94.8985 32.1273 94.6902 33.1042C94.4819 34.081 94.4331 35.2391 94.5437 36.5786C94.6959 38.4203 94.9819 39.9881 95.4017 41.2818C95.8216 42.5756 96.3964 43.5578 97.126 44.2285C97.8537 44.8752 98.7442 45.1618 99.7976 45.0881C100.42 45.0446 100.996 44.872 101.525 44.5704C102.078 44.2671 102.539 43.874 102.908 43.3911C103.3 42.8826 103.592 42.3449 103.786 41.7781C103.98 41.2112 104.054 40.6407 104.006 40.0667C103.953 39.4209 103.753 38.8936 103.406 38.4848C103.081 38.0505 102.67 37.7424 102.174 37.5606C101.677 37.3788 101.106 37.3105 100.459 37.3557C99.4059 37.4294 98.3752 37.7781 97.3672 38.4019C96.3812 39.0001 95.4828 39.7846 94.672 40.7555L92.3869 39.3275C92.7489 38.1715 93.3453 37.0834 94.1761 36.063C95.0308 35.041 96.034 34.213 97.1856 33.5792C98.3592 32.9198 99.6283 32.5424 100.993 32.4469C102.406 32.3482 103.721 32.5328 104.94 33.0009C106.182 33.4673 107.207 34.2136 108.014 35.2397C108.821 36.2658 109.292 37.5921 109.426 39.2186C109.525 40.4145 109.361 41.6288 108.933 42.8616C108.527 44.0688 107.898 45.2073 107.048 46.2772C106.221 47.3453 105.222 48.2211 104.05 48.9045C102.88 49.6117 101.589 50.0147 100.177 50.1135ZM118.069 44.0631C117.111 44.13 116.292 43.9828 115.612 43.6214C114.954 43.2344 114.404 42.6955 113.962 42.0047C113.541 41.2884 113.211 40.4936 112.97 39.6203C112.729 38.747 112.569 37.832 112.49 36.8753C112.437 36.2295 112.405 35.5461 112.393 34.8252C112.38 34.0804 112.367 33.3356 112.353 32.5908C112.364 31.8443 112.379 31.1576 112.4 30.5307C112.42 29.9037 112.451 29.3964 112.491 29.0087C112.537 28.1154 112.736 27.452 113.085 27.0186C113.456 26.5596 113.906 26.3117 114.432 26.2748C114.983 26.2363 115.509 26.3438 116.012 26.5974C116.537 26.8253 116.973 27.1557 117.322 27.5883C117.695 28.0194 117.905 28.5219 117.952 29.0959C117.976 29.383 117.973 29.7801 117.942 30.2874C117.91 30.7708 117.858 31.3037 117.785 31.8861C117.737 32.4669 117.702 33.0588 117.679 33.6617C117.657 34.2647 117.667 34.8293 117.711 35.3555C117.752 35.8578 117.805 36.3473 117.868 36.824C117.931 37.3007 118.037 37.7023 118.184 38.0288C118.356 38.3536 118.585 38.506 118.872 38.4859C119.423 38.4474 119.971 37.9399 120.516 36.9636C121.06 35.9633 121.576 34.6282 122.064 32.9582C122.456 31.8723 122.78 30.8393 123.036 29.8591C123.316 28.8772 123.591 27.9799 123.861 27.1672C124.155 26.3527 124.499 25.7032 124.892 25.2187C125.307 24.7085 125.838 24.4308 126.485 24.3856C127.466 24.3169 128.231 24.5401 128.779 25.0551C129.352 25.5684 129.742 26.2147 129.951 26.9939C130.12 27.5835 130.311 28.2919 130.524 29.119C130.76 29.9444 130.984 30.7587 131.195 31.5619C131.428 32.3395 131.651 32.9975 131.864 33.5359C132.238 34.5682 132.621 35.4195 133.014 36.0897C133.428 36.7343 133.788 37.2985 134.093 37.7824C134.396 38.2424 134.569 38.7354 134.612 39.2617C134.654 39.7639 134.561 40.2515 134.336 40.7244C134.108 41.1733 133.777 41.5453 133.344 41.8402C132.935 42.1334 132.467 42.2985 131.94 42.3353C130.911 42.4073 130.04 41.9269 129.329 40.8941C128.642 39.8596 127.974 38.4869 127.327 36.776C127.019 35.9556 126.734 35.1335 126.474 34.3097C126.213 33.486 125.966 32.6853 125.733 31.9077C125.523 31.1045 125.328 30.3483 125.149 29.6392L127.663 29.0303C127.541 29.5922 127.335 30.4486 127.044 31.5995C126.754 32.7505 126.391 34.0389 125.955 35.4647C125.405 37.2593 124.712 38.7872 123.877 40.0484C123.04 41.2857 122.133 42.2513 121.155 42.9451C120.175 43.6151 119.146 43.9877 118.069 44.0631ZM148.806 43.5015C147.297 43.6069 145.927 43.4863 144.694 43.1394C143.462 42.7926 142.47 42.2967 141.718 41.6516C140.966 41.0065 140.557 40.2773 140.49 39.4641C140.456 39.0575 140.581 38.6759 140.865 38.3192C141.146 37.9387 141.491 37.7342 141.898 37.7057C142.305 37.6773 142.693 37.7103 143.062 37.8048C143.431 37.8992 143.825 38.004 144.244 38.1191C144.66 38.2102 145.125 38.298 145.638 38.3824C146.149 38.4429 146.763 38.4481 147.481 38.3978C148.391 38.3342 149.106 38.1038 149.627 37.7065C150.172 37.3075 150.419 36.7971 150.368 36.1752C150.332 35.7447 150.166 35.3353 149.869 34.9471C149.57 34.535 149.156 34.1791 148.625 33.8794C148.119 33.578 147.486 33.3576 146.728 33.2182C145.968 33.0548 145.11 33.0066 144.152 33.0736C143.434 33.1238 142.886 33.1982 142.509 33.2967C142.156 33.3936 141.752 33.4579 141.297 33.4897C140.818 33.5232 140.341 33.4363 139.867 33.2289C139.39 32.9976 138.991 32.6887 138.67 32.3021C138.371 31.89 138.201 31.4328 138.16 30.9305C138.067 29.8064 138.423 29.0117 139.227 28.5465C140.053 28.0557 141.316 27.7508 143.016 27.632C144.692 27.5148 146.29 27.6195 147.81 27.9463C149.33 28.273 150.687 28.8156 151.881 29.5741C153.098 30.3069 154.081 31.2727 154.83 32.4712C155.579 33.6698 156.021 35.0823 156.155 36.7088C156.222 37.522 156.084 38.3255 155.74 39.1194C155.418 39.8877 154.923 40.5959 154.254 41.2441C153.607 41.8667 152.819 42.3789 151.889 42.7807C150.959 43.1825 149.931 43.4228 148.806 43.5015ZM142.515 54.8029C142.06 54.8348 141.596 54.747 141.121 54.5396C140.646 54.3322 140.245 53.9874 139.916 53.5052C139.587 53.023 139.391 52.3992 139.328 51.6338C139.286 51.1316 139.273 50.6754 139.287 50.2655C139.327 49.8777 139.366 49.4781 139.405 49.0664C139.443 48.6548 139.465 48.1961 139.472 47.6905C139.504 47.2071 139.491 46.6066 139.431 45.8891C139.323 44.5736 139.137 43.3476 138.875 42.2112C138.636 41.0732 138.353 39.9744 138.024 38.9148C137.718 37.8296 137.423 36.7316 137.138 35.6208C136.852 34.4861 136.621 33.2875 136.444 32.0248C136.39 31.6677 136.396 31.2944 136.46 30.9051C136.524 30.5157 136.678 30.1922 136.922 29.9346C137.163 29.653 137.535 29.4947 138.038 29.4595C138.732 29.411 139.392 29.5213 140.016 29.7903C140.638 30.0355 141.163 30.4078 141.589 30.9072C142.038 31.3811 142.287 31.917 142.336 32.5149C142.514 33.8015 142.738 35.0489 143.006 36.257C143.273 37.4412 143.562 38.6118 143.874 39.7687C144.186 40.9257 144.463 42.0851 144.703 43.2471C144.968 44.4074 145.151 45.6094 145.254 46.8532C145.333 47.8099 145.362 48.7461 145.341 49.6617C145.345 50.5756 145.257 51.4117 145.079 52.1699C144.927 52.9504 144.641 53.5718 144.222 54.0341C143.826 54.4948 143.257 54.751 142.515 54.8029ZM165.651 44.4526C164.406 44.5396 163.297 44.3766 162.323 43.9635C161.352 43.5744 160.569 42.9796 159.973 42.1793C159.377 41.379 159.032 40.4168 158.94 39.2926C158.841 38.0967 158.945 36.8745 159.251 35.6262C159.555 34.354 160.008 33.1315 160.609 31.9588C161.235 30.7844 161.978 29.7221 162.839 28.7718C163.721 27.7959 164.668 27.02 165.68 26.4441C166.714 25.8425 167.782 25.5032 168.883 25.4262C169.793 25.3626 170.57 25.5849 171.214 26.0932C171.882 26.5998 172.26 27.3913 172.349 28.4676C172.383 28.8742 172.301 29.1927 172.103 29.423C171.905 29.6534 171.641 29.8042 171.309 29.8755C169.799 30.2457 168.495 30.9263 167.397 31.9172C166.32 32.8826 165.501 34.0345 164.937 35.373C164.395 36.6859 164.18 38.012 164.29 39.3515C164.328 39.8059 164.396 40.1981 164.496 40.5279C164.595 40.8577 164.75 41.2679 164.959 41.7585L162.214 38.2697C162.826 38.684 163.354 38.9478 163.797 39.0612C164.263 39.1729 164.796 39.2078 165.395 39.166C166.616 39.0806 167.692 38.2596 168.623 36.703C169.554 35.1464 170.114 32.894 170.304 29.9458C170.354 29.3889 170.57 28.9408 170.951 28.6014C171.355 28.2364 171.832 28.0347 172.382 27.9962C173.316 27.9309 174.127 28.1268 174.815 28.5839C175.527 29.0393 176.032 29.6174 176.331 30.3182C176.856 31.4362 177.326 32.4618 177.74 33.3951C178.155 34.3284 178.638 35.2208 179.19 36.0723C179.764 36.8982 180.509 37.7603 181.426 38.6584C181.791 38.9937 181.995 39.4245 182.038 39.9507C182.106 40.4753 182.054 41.0201 181.884 41.5853C181.714 42.1505 181.429 42.6276 181.027 43.0165C180.626 43.4054 180.126 43.6208 179.528 43.6626C179.097 43.6928 178.743 43.6333 178.465 43.4843C178.19 43.3592 177.947 43.1838 177.736 42.958C177.182 42.3713 176.663 41.782 176.181 41.1903C175.723 40.5969 175.285 39.9659 174.869 39.2974C174.476 38.6272 174.09 37.8844 173.71 37.069C173.327 36.2297 172.945 35.246 172.563 34.118L174.487 33.803C174.072 36.358 173.411 38.413 172.504 39.9679C171.595 41.4989 170.543 42.6069 169.347 43.292C168.152 43.977 166.92 44.3638 165.651 44.4526ZM203.619 37.0704C201.871 37.1926 200.39 37.0436 199.176 36.6234C197.983 36.1775 197.006 35.5723 196.244 34.8076C195.505 34.0173 194.951 33.1419 194.583 32.1813C194.212 31.1968 193.989 30.2382 193.912 29.3053C193.856 28.6356 193.916 27.8977 194.09 27.0917C194.264 26.2856 194.544 25.4481 194.93 24.5792C195.34 23.7085 195.827 22.9046 196.392 22.1675C196.979 21.4047 197.663 20.7915 198.444 20.328C199.222 19.8406 200.09 19.5633 201.048 19.4964C201.503 19.4646 201.91 19.5805 202.269 19.844C202.649 20.082 202.951 20.3857 203.175 20.755C203.42 21.0987 203.556 21.438 203.584 21.7728C203.601 21.9881 203.549 22.2323 203.427 22.5055C203.328 22.753 203.182 23.0278 202.99 23.3299C202.82 23.6064 202.626 23.8846 202.409 24.1645C202.215 24.4426 202.019 24.6969 201.821 24.9272C201.152 25.8641 200.465 26.7301 199.761 27.5251C199.056 28.3202 198.291 28.975 197.467 29.4898C196.666 30.0028 195.763 30.2945 194.758 30.3648C194.039 30.415 193.419 30.4825 192.896 30.5672C192.397 30.6501 191.949 30.7657 191.552 30.9137C191.179 31.0601 190.825 31.2894 190.489 31.6015C190.13 31.9153 189.825 32.3095 189.576 32.784C189.35 33.2569 189.172 33.7264 189.042 34.1926C188.912 34.6588 188.801 35.0635 188.709 35.4067C188.531 36.1649 188.24 36.7265 187.836 37.0915C187.457 37.4548 186.992 37.6557 186.441 37.6942C185.723 37.7445 185.058 37.5624 184.446 37.1482C183.856 36.7083 183.524 36.0459 183.451 35.1609C183.431 34.9217 183.446 34.5117 183.494 33.931C183.564 33.3247 183.642 32.6577 183.726 31.9301C183.834 31.2008 183.909 30.498 183.949 29.8216C184.012 29.1195 184.023 28.5294 183.984 28.051C183.934 27.453 183.812 26.8481 183.617 26.2363C183.444 25.5989 183.277 25.0332 183.116 24.5393C182.954 24.0453 182.862 23.6549 182.838 23.3678C182.783 22.6981 182.973 22.0834 183.408 21.5237C183.844 20.964 184.444 20.6574 185.211 20.6038C185.881 20.557 186.471 20.7081 186.982 21.0573C187.516 21.4049 187.917 21.8821 188.184 22.4889C188.303 22.7692 188.431 23.1572 188.569 23.6528C188.706 24.1483 188.837 24.7165 188.962 25.3573C189.109 25.9725 189.208 26.5791 189.257 27.177C189.301 27.7032 189.301 28.2926 189.259 28.9451C189.24 29.5959 189.188 30.2732 189.101 30.9769C189.039 31.6789 188.961 32.3339 188.866 32.9419C188.794 33.5243 188.725 33.9982 188.659 34.3637C188.616 34.7275 188.595 34.9094 188.595 34.9094L184.014 34.1111C184.063 33.8191 184.149 33.4041 184.273 32.8662C184.397 32.3282 184.555 31.7639 184.747 31.1731C184.939 30.5823 185.205 30.0104 185.544 29.4574C185.882 28.8805 186.273 28.36 186.716 27.896C187.389 27.2957 188.083 26.8141 188.8 26.4512C189.54 26.0867 190.384 25.8112 191.332 25.6246C192.28 25.4381 193.412 25.2987 194.729 25.2067C194.921 25.1933 195.147 25.1654 195.408 25.1231C195.692 25.0551 195.975 24.9872 196.258 24.9193C196.566 24.8497 196.885 24.7792 197.216 24.708C197.571 24.635 197.917 24.5868 198.252 24.5634L201.953 24.7737C201.512 24.9729 201.111 25.2175 200.75 25.5073C200.388 25.7972 200.078 26.1197 199.818 26.4746C199.557 26.8056 199.36 27.1923 199.228 27.6345C199.118 28.0512 199.081 28.4868 199.119 28.9412C199.164 29.4913 199.353 30.0314 199.686 30.5615C200.017 31.0676 200.472 31.4688 201.05 31.7652C201.652 32.0598 202.372 32.1779 203.21 32.1193C203.785 32.0791 204.305 31.9586 204.77 31.7576C205.233 31.5328 205.607 31.254 205.892 30.9213C206.2 30.563 206.421 30.1747 206.555 29.7564C206.687 29.3141 206.732 28.8419 206.691 28.3396C206.643 27.7655 206.444 27.2502 206.093 26.7936C205.766 26.3353 205.256 25.9861 204.562 25.746C203.866 25.4819 202.967 25.3884 201.866 25.4654C201.267 25.5072 200.736 25.3399 200.271 24.9634C199.829 24.5614 199.589 24.1331 199.551 23.6786C199.51 23.1764 199.638 22.6863 199.935 22.2084C200.231 21.7066 200.607 21.2954 201.062 20.9749C201.515 20.6305 201.981 20.4415 202.46 20.408C204.04 20.2975 205.4 20.443 206.541 20.8443C207.704 21.2201 208.677 21.7775 209.46 22.5166C210.242 23.2318 210.84 24.056 211.254 24.9893C211.668 25.9226 211.917 26.8916 212 27.8962C212.073 28.7811 211.958 29.7274 211.656 30.7348C211.354 31.7423 210.857 32.7153 210.164 33.6538C209.47 34.5924 208.572 35.3769 207.468 36.0074C206.387 36.6123 205.103 36.9666 203.619 37.0704ZM25.6443 92.6493C25.3061 91.4701 24.945 90.3046 24.5609 89.1526C24.1768 88.0007 23.7737 86.9103 23.3516 85.8813C22.9275 84.8284 22.4974 83.8481 22.0612 82.9404C21.6231 82.0087 21.1928 81.1728 20.7705 80.4325C20.3721 79.6906 19.9936 79.0434 19.6349 78.4912L20.8207 77.5422C20.455 78.3616 20.0812 79.2298 19.6994 80.1466C19.3415 81.0617 18.9986 82.0118 18.6706 82.997C18.3646 83.9567 18.0686 84.8915 17.7826 85.8016C17.5945 86.4402 17.3965 87.1036 17.1884 87.7917C17.0043 88.4782 16.8202 89.1647 16.6361 89.8511C16.45 90.5137 16.2739 91.1515 16.1079 91.7645C15.9418 92.3775 15.7937 92.9171 15.6636 93.3833L10.0917 93.2677C10.3898 92.2125 10.6659 91.1828 10.9201 90.1787C11.1743 89.1746 11.4405 88.1696 11.7186 87.1639C11.9967 86.1581 12.2878 85.1634 12.5919 84.1799C13.2197 82.452 13.7825 80.9572 14.2803 79.6955C14.8001 78.4082 15.3097 77.2901 15.8092 76.341C16.079 75.8169 16.3617 75.304 16.6574 74.8022C16.975 74.2748 17.3724 73.838 17.8495 73.4919C18.3246 73.1219 18.9332 72.911 19.6754 72.8591C20.2021 72.8222 20.7617 72.8914 21.3541 73.0664C21.9464 73.2415 22.5247 73.5379 23.089 73.9555C23.6772 74.3714 24.1665 74.9026 24.557 75.5488C24.9475 76.1951 25.3718 76.9593 25.83 77.8414C26.2881 78.7236 26.7651 79.6886 27.261 80.7364C27.7569 81.7843 28.2478 82.9167 28.7335 84.1337C29.2174 85.3268 29.6812 86.5693 30.125 87.8614C30.5689 89.1535 30.9658 90.4609 31.3158 91.7836L25.6443 92.6493ZM33.4192 103.256C32.5812 103.314 31.8881 103.086 31.3399 102.571C30.8157 102.055 30.52 101.39 30.4528 100.577C30.4153 100.122 30.3698 99.572 30.3165 98.9262C30.2851 98.2548 30.2528 97.5714 30.2194 96.8761C30.1861 96.1808 30.1496 95.5939 30.1101 95.1156L31.1512 95.4758C30.7422 95.4803 30.1896 95.4949 29.4933 95.5195C28.819 95.5186 28.0858 95.5338 27.2938 95.5651C26.5017 95.5964 25.6858 95.6294 24.8458 95.6641C24.0298 95.6971 23.2627 95.7387 22.5445 95.7889C19.9109 95.9731 17.5676 96.173 15.5145 96.3888C13.4615 96.6045 11.8134 96.9122 10.5702 97.3119L11.6493 95.0713C11.7984 95.7104 11.9654 96.4205 12.1503 97.2014C12.3591 97.9807 12.5301 98.7385 12.6631 99.475C12.8182 100.186 12.9154 100.78 12.955 101.259C12.9984 101.785 12.9033 102.237 12.6696 102.614C12.4378 103.015 12.1144 103.326 11.6992 103.548C11.308 103.768 10.873 103.894 10.3942 103.928C9.96322 103.958 9.5962 103.887 9.2931 103.716C9.01591 103.567 8.76773 103.332 8.54854 103.01C8.35329 102.687 8.18001 102.338 8.02869 101.964C7.87935 101.614 7.70619 101.121 7.5092 100.485C7.31221 99.8491 7.13621 99.1758 6.98118 98.465C6.82417 97.7302 6.72097 97.0638 6.67159 96.4659C6.61232 95.7483 6.65475 95.0958 6.79887 94.5084C6.94102 93.897 7.28358 93.3799 7.82657 92.957C8.36759 92.5102 9.19677 92.1996 10.3141 92.0253C10.767 91.9696 11.3756 91.903 12.1397 91.8255C12.9019 91.7241 13.8317 91.6109 14.929 91.4861C16.0264 91.3612 17.2804 91.2375 18.6909 91.1148C20.1015 90.9921 21.6567 90.8713 23.3566 90.7524C24.5536 90.6687 25.6799 90.602 26.7353 90.5522C27.8146 90.5008 28.7753 90.4697 29.6172 90.459C30.4571 90.4243 31.1424 90.4125 31.6731 90.4235C32.6645 90.4744 33.4285 90.6856 33.9648 91.0571C34.5231 91.403 34.9257 91.9041 35.1726 92.5604C35.4194 93.2167 35.5794 93.9874 35.6525 94.8723C35.7157 95.6377 35.7569 96.4287 35.7762 97.2453C35.8194 98.0602 35.8448 98.8042 35.8522 99.4773C35.8836 100.149 35.8991 100.629 35.8989 100.917C35.8644 101.666 35.6096 102.225 35.1344 102.595C34.6613 102.989 34.0895 103.209 33.4192 103.256ZM47.075 97.3934C45.2555 97.5207 43.5988 97.2877 42.105 96.6945C40.6112 96.1013 39.4079 95.2352 38.4952 94.0962C37.5804 92.9333 37.0588 91.5745 36.9304 90.0198C36.8415 88.9434 36.995 87.8862 37.3908 86.8482C37.7867 85.8101 38.359 84.868 39.1079 84.0217C39.8806 83.1738 40.7261 82.4772 41.6442 81.9318C42.5863 81.3848 43.5123 81.0795 44.4221 81.0159C44.853 80.9858 45.254 81.0299 45.6249 81.1483C45.9959 81.2667 46.301 81.4619 46.5402 81.7338C46.8013 81.9802 46.9516 82.3426 46.9912 82.8209C47.0563 83.6102 46.9331 84.3045 46.6214 84.9036C46.3097 85.5028 45.6419 86.0186 44.6181 86.451C44.223 86.623 43.8357 86.8907 43.4564 87.254C43.099 87.5917 42.8064 87.985 42.5786 88.434C42.3728 88.8573 42.2906 89.3202 42.3321 89.8225C42.3992 90.6357 42.7997 91.2572 43.5335 91.687C44.2893 92.0913 45.2777 92.2507 46.4987 92.1653C47.5522 92.0916 48.3923 91.7683 49.0192 91.1952C49.6461 90.6221 49.924 89.905 49.8529 89.044C49.7838 88.2068 49.4412 87.5572 48.8251 87.0951C48.209 86.633 47.4461 86.4337 46.5363 86.4973C45.9856 86.5358 45.5416 86.6992 45.2042 86.9874C44.8888 87.25 44.5224 87.6245 44.105 88.1107C43.8195 88.4434 43.5519 88.7027 43.3024 88.8886C43.0529 89.0744 42.7874 89.2133 42.5061 89.3051C42.2486 89.3953 41.9403 89.4529 41.5812 89.478C41.1503 89.5082 40.7554 89.3914 40.3965 89.1279C40.0615 88.8626 39.8605 88.3234 39.7933 87.5101C39.74 86.8643 39.8662 86.206 40.172 85.5351C40.4997 84.8385 40.9411 84.2063 41.4962 83.6382C42.0733 83.0445 42.719 82.5543 43.4336 82.1676C44.1721 81.7791 44.9244 81.5581 45.6905 81.5046C47.5819 81.3723 49.2116 81.5711 50.5798 82.1009C51.9459 82.6068 53.0236 83.4095 53.8127 84.509C54.5999 85.5846 55.0586 86.9118 55.189 88.4904C55.3174 90.0451 55.0389 91.4839 54.3536 92.8069C53.6921 94.1281 52.7327 95.1936 51.4752 96.0032C50.2176 96.8128 48.7509 97.2762 47.075 97.3934ZM68.9868 100.408C67.239 100.53 65.7141 100.288 64.4118 99.6814C63.1355 99.097 62.0539 98.2465 61.167 97.1297C60.2782 95.989 59.578 94.6547 59.0665 93.1268C58.577 91.5733 58.2602 89.9235 58.116 88.1775C57.9579 86.264 58.0241 84.5874 58.3146 83.1478C58.605 81.7081 59.0559 80.4617 59.6673 79.4086C60.2766 78.3315 60.9746 77.4528 61.7612 76.7723C62.5458 76.0679 63.3313 75.5198 64.1177 75.128C64.904 74.7362 65.829 74.419 66.8925 74.1762C67.9541 73.9095 68.9548 73.6351 69.8947 73.3528C70.9543 73.0622 71.8343 72.7842 72.5348 72.5187C73.2572 72.2276 73.8458 72.0661 74.3007 72.0343C74.7317 72.0042 75.1705 72.0697 75.6173 72.231C76.064 72.3922 76.4479 72.666 76.7687 73.0526C77.0876 73.4152 77.2728 73.9074 77.3241 74.5293C77.3755 75.1512 77.1676 75.695 76.7004 76.1607C76.2551 76.6008 75.6244 76.9817 74.8082 77.3034C73.543 77.7286 72.3876 78.0259 71.3421 78.1953C70.3205 78.3629 69.3837 78.5367 68.5317 78.7165C67.6777 78.8725 66.8924 79.1319 66.1759 79.4947C65.5512 79.803 65.0012 80.2865 64.5259 80.9453C64.0505 81.604 63.7087 82.4217 63.5004 83.3986C63.2921 84.3754 63.2433 85.5335 63.3539 86.873C63.5061 88.7147 63.7921 90.2825 64.2119 91.5762C64.6318 92.87 65.2066 93.8522 65.9362 94.5229C66.6639 95.1696 67.5544 95.4562 68.6078 95.3825C69.2303 95.339 69.806 95.1664 70.335 94.8648C70.8878 94.5615 71.349 94.1684 71.7185 93.6855C72.1099 93.177 72.4026 92.6393 72.5966 92.0725C72.7906 91.5056 72.8638 90.9351 72.8164 90.3611C72.7631 89.7153 72.563 89.188 72.2162 88.7792C71.8914 88.3449 71.4807 88.0368 70.9841 87.855C70.4875 87.6732 69.9159 87.6049 69.2695 87.6501C68.2161 87.7238 67.1854 88.0725 66.1774 88.6963C65.1914 89.2945 64.293 90.079 63.4822 91.0499L61.1971 89.6219C61.5591 88.4659 62.1555 87.3778 62.9863 86.3574C63.841 85.3354 64.8442 84.5074 65.9958 83.8736C67.1694 83.2142 68.4385 82.8368 69.8032 82.7413C71.2158 82.6426 72.5313 82.8272 73.7499 83.2953C74.9924 83.7617 76.0172 84.508 76.8244 85.5341C77.6315 86.5602 78.1023 87.8865 78.2366 89.513C78.3354 90.7089 78.1708 91.9232 77.7428 93.156C77.3369 94.3632 76.7085 95.5017 75.8578 96.5716C75.0309 97.6397 74.0317 98.5155 72.8601 99.1989C71.6904 99.9061 70.3993 100.309 68.9868 100.408ZM92.121 93.1249C90.6606 93.227 89.325 93.0918 88.1143 92.7194C86.9276 92.3453 85.9565 91.8118 85.2009 91.1189C84.4693 90.4243 84.068 89.6465 83.9968 88.7854C83.9633 88.3788 84.0883 87.9972 84.3718 87.6405C84.6535 87.26 84.9978 87.0555 85.4048 87.027C85.7878 87.0002 86.1529 87.0469 86.4999 87.167C86.8689 87.2614 87.2529 87.391 87.6517 87.5555C88.0486 87.6962 88.4924 87.8215 88.9831 87.9315C89.4957 88.016 90.0992 88.0339 90.7935 87.9854C91.7512 87.9184 92.5135 87.6726 93.0804 87.2481C93.6454 86.7996 93.8962 86.1927 93.833 85.4273C93.7836 84.8293 93.5836 84.302 93.2328 83.8454C92.904 83.3632 92.4375 82.9628 91.8333 82.6442C91.251 82.3 90.5679 82.0471 89.784 81.8854C89.0241 81.722 88.1892 81.6722 87.2794 81.7358C86.7048 81.776 86.2409 81.8445 85.8877 81.9414C85.5585 82.0366 85.1664 82.1001 84.7115 82.1319C84.2566 82.1637 83.7919 82.0759 83.3172 81.8685C82.8426 81.6611 82.4438 81.3522 82.121 80.9418C81.822 80.5297 81.6518 80.0725 81.6104 79.5702C81.5175 78.446 81.8733 77.6513 82.6776 77.1861C83.504 76.6953 84.7551 76.3913 86.431 76.2741C88.1309 76.1552 89.7417 76.2711 91.2636 76.6218C92.7856 76.9724 94.1457 77.5509 95.344 78.3572C96.5404 79.1396 97.5161 80.166 98.2712 81.4363C99.0263 82.7066 99.4739 84.1909 99.6142 85.8891C99.6873 86.7741 99.5659 87.6366 99.25 88.4766C98.9321 89.2927 98.4397 90.0368 97.7728 90.7089C97.106 91.381 96.2965 91.9308 95.3446 92.3582C94.3926 92.7856 93.3181 93.0412 92.121 93.1249ZM85.9596 103.804C85.5287 103.834 85.0759 103.745 84.6013 103.538C84.1266 103.331 83.7129 102.987 83.3602 102.506C83.0314 102.024 82.8364 101.412 82.7752 100.671C82.7317 100.144 82.7291 99.6755 82.7673 99.2639C82.8076 98.8761 82.8468 98.4765 82.885 98.0648C82.9233 97.6532 82.9456 97.1946 82.952 96.6889C82.9843 96.2055 82.9718 95.617 82.9145 94.9234C82.7664 93.1295 82.4984 91.4883 82.1106 89.9999C81.7208 88.4875 81.308 86.9887 80.8723 85.5036C80.4606 84.0169 80.1247 82.4285 79.8648 80.7387C79.8193 80.1886 79.8976 79.6779 80.0994 79.2067C80.3233 78.7099 80.7943 78.4364 81.5126 78.3862C82.2069 78.3376 82.8661 78.4479 83.4904 78.717C84.1146 78.9861 84.639 79.3584 85.0635 79.8339C85.4861 80.2855 85.735 80.8214 85.8103 81.4416C85.9669 82.7538 86.1793 84.0139 86.4476 85.222C86.716 86.4302 87.0063 87.6127 87.3186 88.7696C87.6308 89.9266 87.9192 91.0852 88.1836 92.2455C88.4479 93.4058 88.6315 94.6078 88.7342 95.8516C88.8132 96.8083 88.8424 97.7445 88.8217 98.6601C88.8269 99.5979 88.7404 100.446 88.5623 101.204C88.408 101.961 88.1213 102.57 87.7019 103.033C87.3065 103.493 86.7258 103.75 85.9596 103.804ZM112.587 92.8124C110.767 92.9396 109.111 92.7066 107.617 92.1135C106.123 91.5203 104.92 90.6542 104.007 89.5152C103.092 88.3522 102.571 86.9934 102.442 85.4387C102.353 84.3624 102.507 83.3052 102.903 82.2671C103.299 81.2291 103.871 80.2869 104.62 79.4407C105.393 78.5928 106.238 77.8961 107.156 77.3508C108.098 76.8038 109.024 76.4985 109.934 76.4349C110.365 76.4047 110.766 76.4489 111.137 76.5673C111.508 76.6857 111.813 76.8808 112.052 77.1528C112.313 77.3992 112.464 77.7615 112.503 78.2399C112.568 79.0292 112.445 79.7234 112.133 80.3226C111.822 80.9218 111.154 81.4376 110.13 81.87C109.735 82.042 109.348 82.3096 108.968 82.6729C108.611 83.0107 108.318 83.404 108.09 83.853C107.885 84.2763 107.802 84.7391 107.844 85.2414C107.911 86.0547 108.312 86.6762 109.045 87.106C109.801 87.5102 110.79 87.6697 112.011 87.5843C113.064 87.5106 113.904 87.1872 114.531 86.6141C115.158 86.0411 115.436 85.324 115.365 84.4629C115.296 83.6258 114.953 82.9761 114.337 82.514C113.721 82.0519 112.958 81.8527 112.048 81.9163C111.498 81.9548 111.054 82.1182 110.716 82.4064C110.401 82.669 110.034 83.0434 109.617 83.5297C109.331 83.8624 109.064 84.1217 108.814 84.3075C108.565 84.4934 108.299 84.6322 108.018 84.7241C107.761 84.8142 107.452 84.8719 107.093 84.897C106.662 84.9271 106.267 84.8104 105.908 84.5468C105.573 84.2816 105.372 83.7423 105.305 82.9291C105.252 82.2833 105.378 81.6249 105.684 80.954C106.012 80.2575 106.453 79.6252 107.008 79.0572C107.585 78.4635 108.231 77.9733 108.945 77.5865C109.684 77.1981 110.436 76.9771 111.202 76.9235C113.094 76.7913 114.724 76.99 116.092 77.5198C117.458 78.0257 118.535 78.8284 119.325 79.928C120.112 81.0036 120.571 82.3307 120.701 83.9094C120.829 85.4641 120.551 86.9029 119.865 88.2258C119.204 89.5471 118.245 90.6125 116.987 91.4222C115.73 92.2318 114.263 92.6952 112.587 92.8124Z" fill="#F5B02B"/>
</svg>
