<svg width="1000" height="442" viewBox="0 0 1000 442" fill="none" xmlns="http://www.w3.org/2000/svg">
<path d="M92.4378 412.701C116.898 427.748 150.929 437.078 188.559 437.078C231.015 437.078 268.888 425.202 293.606 406.638C317.924 427.998 358.619 442 404.717 442C438.346 442 469.099 434.549 492.717 422.226C507.651 428.487 525.779 432.156 545.322 432.156C574.93 432.156 601.289 423.736 618.219 410.635C620.77 410.763 623.352 410.828 625.958 410.828C637.486 410.828 648.521 409.551 658.699 407.219C683.221 422.594 717.626 432.156 755.721 432.156C790.853 432.156 822.846 424.024 846.845 410.7C853.391 411.589 860.199 412.059 867.188 412.059C878.473 412.059 889.286 410.835 899.285 408.596C922.926 420.976 966.285 428.875 1000 428.875V13.7403C969.36 13.7403 955.623 20.934 932.25 33.1737L931.81 33.4043C921.811 31.1648 910.999 29.9416 899.714 29.9416C892.724 29.9416 885.916 30.4108 879.37 31.3001C855.372 17.976 823.378 9.84381 788.246 9.84381C750.152 9.84381 715.747 19.4057 691.224 34.7807C681.046 32.4485 670.011 31.172 658.484 31.172C655.877 31.172 653.296 31.2373 650.744 31.3653C633.815 18.2645 607.456 9.84381 577.848 9.84381C558.304 9.84381 540.177 13.5126 525.242 19.7745C501.624 7.45107 470.871 0 437.243 0C391.145 0 350.45 14.0015 326.131 35.362C301.414 16.7983 263.541 4.9219 221.085 4.9219C183.454 4.9219 149.424 14.2521 124.963 29.2992C113.307 25.7731 83 17.4922 68.5 15C38.5 9.84381 0.000289917 9.84381 0.000289917 9.84381L0 428.055C27 432 58.5 428.055 92.4378 412.701Z" fill="white"/>
</svg>
