<svg width="768" height="866" viewBox="0 0 768 866" fill="none" xmlns="http://www.w3.org/2000/svg">
<path d="M70.9922 836.701C89.778 851.748 115.913 861.078 144.814 861.078C177.42 861.078 206.506 849.202 225.489 830.638C244.166 851.998 275.42 866 310.823 866C336.65 866 360.268 858.549 378.406 846.226C389.876 852.487 403.798 856.156 418.808 856.156C441.547 856.156 461.79 847.735 474.792 834.635C476.752 834.763 478.734 834.828 480.736 834.828C489.589 834.828 498.064 833.552 505.881 831.219C524.714 846.594 551.137 856.156 580.394 856.156C607.375 856.156 631.946 848.024 650.377 834.7C655.404 835.589 660.633 836.058 666.001 836.058C674.668 836.058 682.972 834.835 690.651 832.596C708.808 844.976 742.108 852.875 768 852.875V13.7403C744.469 13.7403 733.919 20.934 715.969 33.1737L715.63 33.4043C707.951 31.1648 699.647 29.9416 690.98 29.9416C685.613 29.9416 680.384 30.4108 675.357 31.3001C656.926 17.976 632.355 9.84381 605.374 9.84381C576.117 9.84381 549.694 19.4057 530.86 34.7807C523.044 32.4485 514.569 31.172 505.716 31.172C503.714 31.172 501.731 31.2373 499.772 31.3653C486.77 18.2645 466.526 9.84381 443.787 9.84381C428.778 9.84381 414.856 13.5126 403.386 19.7745C385.248 7.45107 361.629 0 335.803 0C300.399 0 269.146 14.0015 250.469 35.362C231.486 16.7983 202.399 4.9219 169.793 4.9219C140.893 4.9219 114.757 14.2521 95.9717 29.2992C87.0201 25.7731 63.744 17.4922 52.608 15C29.568 9.84381 0.000222656 9.84381 0.000222656 9.84381L0 852.055C20.736 856 44.928 852.055 70.9922 836.701Z" fill="white"/>
</svg>
