<svg width="1918" height="734" viewBox="0 0 1918 734" fill="none" xmlns="http://www.w3.org/2000/svg">
<path d="M0 646.816L0.00126747 710.842C20.516 711.863 26.5207 706.755 38.2648 694.272C70.1489 709.029 108.654 717.653 150.119 717.653C212.4 717.653 268.003 698.196 304.523 667.726C317.893 670.946 332.282 672.699 347.273 672.699C373.535 672.699 397.951 667.32 418.272 658.094C441.519 680.136 479.501 694.495 522.41 694.495C542.964 694.495 562.387 691.2 579.602 685.345C615.728 710.332 665.988 725.827 721.565 725.827C784.27 725.827 840.205 706.104 876.711 675.277C912.628 710.749 972.731 734 1040.81 734C1090.48 734 1135.9 721.626 1170.78 701.162C1192.84 711.56 1219.61 717.653 1248.48 717.653C1292.21 717.653 1331.14 703.669 1356.14 681.914C1359.91 682.126 1363.72 682.235 1367.57 682.235C1384.6 682.235 1400.89 680.115 1415.93 676.242C1452.14 701.774 1502.96 717.653 1559.22 717.653C1611.11 717.653 1658.36 704.148 1693.8 682.022C1703.47 683.499 1713.53 684.278 1723.85 684.278C1740.52 684.278 1756.48 682.247 1771.25 678.528C1806.17 699.086 1870.21 712.204 1920 712.204V22.8176C1874.75 22.8176 1854.46 34.7637 1819.94 55.0893L1819.29 55.4722C1804.52 51.7534 1788.55 49.722 1771.89 49.722C1761.56 49.722 1751.51 50.5012 1741.84 51.978C1706.4 29.8515 1659.14 16.347 1607.26 16.347C1550.99 16.347 1500.18 32.2257 1463.96 57.7579C1448.93 53.8851 1432.63 51.7653 1415.61 51.7653C1411.76 51.7653 1407.95 51.8737 1404.18 52.0862C1379.17 30.3307 1340.24 16.347 1296.51 16.347C1267.65 16.347 1240.88 22.4395 1218.82 32.8382C1183.94 12.3735 1138.52 0 1088.85 0C1020.77 0 960.665 23.2514 924.749 58.7233C888.243 27.8959 832.307 8.17348 769.603 8.17348C714.026 8.17348 663.765 23.6675 627.639 48.6552C610.424 42.7997 591.001 39.5051 570.447 39.5051C527.538 39.5051 489.557 53.8636 466.31 75.9061C445.988 66.6795 421.572 61.3011 395.311 61.3011C380.32 61.3011 365.93 63.0536 352.56 66.2741C316.041 35.804 260.437 16.347 198.157 16.347C156.692 16.347 118.186 24.9714 86.3023 39.7283C63.4246 25.2219 33.7364 16.347 0.00169505 16.347V124.646L0 646.816Z" fill="white"/>
</svg>
