<svg width="247" height="113" viewBox="0 0 247 113" fill="none" xmlns="http://www.w3.org/2000/svg">
<path opacity="0.6" d="M6.68215 36.5578C6.13149 36.5192 5.68346 36.3676 5.33807 36.1029C5.01798 35.8159 4.78444 35.4868 4.63744 35.1157C4.49181 34.7206 4.4286 34.3553 4.44782 34.0199C4.47527 33.5407 4.71751 33.0885 5.17453 32.6634C5.6555 32.24 6.25892 31.777 6.9848 31.2744C7.71067 30.7719 8.5012 30.1896 9.35639 29.5277C10.2636 28.7973 11.1222 28.0755 11.9323 27.3623C12.7437 26.6252 13.5705 25.829 14.4127 24.9737L15.5667 26.8587C13.7609 26.4919 12.2499 26.0133 11.0338 25.4231C9.81901 24.8089 8.8724 24.1293 8.19396 23.3842C7.51552 22.6391 7.04264 21.8723 6.77532 21.0838C6.50801 20.2953 6.39356 19.5656 6.43199 18.8947C6.47729 18.104 6.72883 17.2796 7.18662 16.4215C7.66973 15.5411 8.42473 14.7399 9.45163 14.0178C10.4799 13.2718 11.8344 12.705 13.5152 12.3173C15.2213 11.9074 17.3193 11.7894 19.8093 11.9636C21.1979 12.0607 22.3754 12.2753 23.3419 12.6075C24.3098 12.9158 25.028 13.387 25.4964 14.0212C25.9902 14.633 26.2096 15.4182 26.1547 16.3766C26.1396 16.6402 26.0756 17.1289 25.9626 17.8427C25.8735 18.5582 25.7523 19.4157 25.5989 20.4154C25.4708 21.3927 25.3386 22.442 25.2022 23.5631C25.0912 24.662 25.0069 25.7146 24.9492 26.7209C24.8847 27.8471 24.8828 28.9295 24.9435 29.9682C25.0055 30.9829 25.0646 31.841 25.1205 32.5426C25.2004 33.2458 25.2321 33.7412 25.2157 34.0287C25.1896 34.484 25.0212 34.9052 24.7106 35.2925C24.4013 35.6558 24.0124 35.9413 23.5438 36.1491C23.0765 36.3329 22.5915 36.4073 22.0888 36.3721C21.3945 36.3236 20.8456 36.0446 20.4421 35.5353C20.0625 35.0276 19.8222 34.3973 19.7211 33.6445C19.7054 33.4991 19.6702 33.0636 19.6156 32.3381C19.5624 31.5886 19.5068 30.6706 19.4489 29.5839C19.4149 28.499 19.4295 27.4055 19.4926 26.3033C19.5646 25.4663 19.6533 24.5463 19.7589 23.5433C19.8883 22.542 20.0158 21.5766 20.1411 20.6472C20.2918 19.6954 20.4116 18.8618 20.5007 18.1464C20.6151 17.4086 20.6918 16.9088 20.7308 16.6469L21.098 17.7912C20.7922 17.6736 20.3787 17.5484 19.8575 17.4158C19.3602 17.2848 18.7285 17.1925 17.9624 17.1389C17.2202 17.087 16.4865 17.0959 15.7614 17.1654C15.0603 17.2367 14.4275 17.3729 13.8631 17.574C13.2987 17.7751 12.852 18.0205 12.5229 18.3102C12.1938 18.5999 12.0183 18.9365 11.9963 19.3199C11.951 20.1106 12.4746 20.8328 13.5669 21.4865C14.6592 22.1403 16.1633 22.7386 18.0792 23.2815C18.8597 23.5045 19.3973 23.7706 19.6921 24.0799C19.9868 24.3892 20.1191 24.8074 20.0889 25.3346C20.0683 25.694 19.8487 26.1718 19.4299 26.768C19.0112 27.3642 18.4819 28.0008 17.8422 28.6777C17.2278 29.3324 16.5775 29.9846 15.8913 30.6342C15.229 31.2856 14.6321 31.8452 14.1005 32.3133C13.0359 33.2733 12.0401 34.0817 11.1131 34.7386C10.2114 35.3732 9.39113 35.8451 8.65229 36.1542C7.91346 36.4634 7.25674 36.5979 6.68215 36.5578ZM48.6642 39.6017C47.3713 39.5113 46.2697 39.2298 45.3593 38.7571C44.4729 38.2862 43.739 37.6695 43.1577 36.9072C42.6004 36.1465 42.2048 35.2889 41.971 34.3343C41.7386 33.3558 41.654 32.3155 41.7171 31.2133C41.7748 30.2069 41.8937 29.1808 42.0738 28.1349C42.2539 27.089 42.4777 26.1183 42.7454 25.2229C43.013 24.3274 43.295 23.6014 43.5913 23.0448C43.8328 22.6046 44.1674 22.219 44.595 21.8881C45.0226 21.5571 45.4939 21.3014 46.0091 21.1209C46.5495 20.9181 47.0711 20.8343 47.5739 20.8695C48.0527 20.9029 48.4508 21.0872 48.7681 21.4221C49.0868 21.733 49.2318 22.1401 49.203 22.6433C49.1783 23.0746 49.0656 23.5719 48.8651 24.1352C48.6646 24.6986 48.4226 25.3552 48.1393 26.1052C47.8573 26.8313 47.6044 27.6796 47.3806 28.6503C47.1581 29.597 47.0132 30.6574 46.9459 31.8315C46.8924 32.766 47.0393 33.5581 47.3867 34.2078C47.7341 34.8576 48.3387 35.2126 49.2006 35.2729C49.8949 35.3214 50.5875 35.1895 51.2785 34.8769C51.9934 34.5661 52.6214 34.0928 53.1626 33.457C53.7052 32.7973 54.0758 31.9933 54.2743 31.0449L55.1381 32.3322C54.6675 32.1549 54.0758 31.9933 53.363 31.8472C52.6503 31.7011 51.8896 31.5517 51.0811 31.399C50.2726 31.2462 49.4859 31.131 48.7212 31.0535C47.9578 30.952 47.2768 30.8803 46.6783 30.8385L47.2966 27.598C48.0415 27.602 48.7786 27.5332 49.5078 27.3918C50.2624 27.228 50.9605 27.0002 51.6022 26.7082C52.2439 26.4163 52.7546 26.1032 53.1343 25.7689C53.5154 25.4107 53.7169 25.0398 53.7389 24.6565C53.7567 24.345 53.6501 24.109 53.4189 23.9485C53.1891 23.764 52.8228 23.6542 52.32 23.619C51.6975 23.5755 51.0576 23.627 50.4002 23.7735C49.7442 23.896 49.0994 24.0313 48.466 24.1795C47.8564 24.3293 47.2623 24.4201 46.6836 24.4518C46.0119 24.4289 45.5074 24.2132 45.1703 23.8047C44.8331 23.3962 44.693 22.9053 44.7498 22.3319C44.7828 21.7568 45.0538 21.2225 45.5628 20.7288C46.0971 20.2129 46.7676 19.8388 47.5741 19.6065C48.5975 19.3653 49.7013 19.1899 50.8854 19.0803C52.0934 18.9723 53.1883 18.9526 54.1699 19.0213C55.3191 19.1016 56.3037 19.3268 57.1238 19.6969C57.9679 20.0687 58.6002 20.57 59.0208 21.2008C59.4653 21.8333 59.6628 22.5808 59.6134 23.4434C59.5667 24.2581 59.2827 25.0201 58.7613 25.7294C58.2639 26.4404 57.5896 27.0908 56.7386 27.6809C55.9128 28.2486 54.9595 28.7352 53.8786 29.1408C52.7991 29.5224 51.6779 29.7928 50.515 29.952L51.1413 27.8307C52.244 27.8838 53.2953 27.9934 54.2954 28.1596C55.2968 28.3017 56.185 28.5323 56.96 28.8511C57.7589 29.1716 58.3721 29.5873 58.7995 30.0983C59.2523 30.5871 59.4553 31.2388 59.4086 32.0534C59.3537 33.0119 59.0228 33.963 58.4159 34.9069C57.809 35.8508 57.0033 36.6966 55.999 37.4443C55.02 38.1697 53.8936 38.7405 52.6198 39.1566C51.3713 39.5504 50.0528 39.6988 48.6642 39.6017ZM68.8845 41.6651C67.4959 41.568 66.3259 41.2216 65.3745 40.6258C64.4244 40.0061 63.7135 39.1986 63.2417 38.2033C62.7952 37.1858 62.6097 36.0181 62.6852 34.7003C62.762 33.3585 62.8546 32.1621 62.9629 31.1112C63.0712 30.0602 63.1818 29.1779 63.2948 28.4641C63.4078 27.7503 63.4985 27.2154 63.567 26.8593C63.6663 26.3851 63.8613 25.9176 64.1521 25.4568C64.4443 24.972 64.8028 24.5882 65.2277 24.3051C65.6539 23.9981 66.1064 23.8614 66.5853 23.8949C67.2317 23.9401 67.7833 24.1711 68.2402 24.588C68.7224 24.9825 68.9436 25.5272 68.9038 26.2221C68.8749 26.7253 68.8126 27.3945 68.7167 28.2298C68.6207 29.065 68.5255 29.8883 68.4309 30.6997C68.385 31.0814 68.3258 31.4862 68.2532 31.9141C68.2059 32.3198 68.1573 32.7494 68.1073 33.203C68.0572 33.6566 68.0171 34.1469 67.9869 34.6741C67.9499 35.321 68.0866 35.8718 68.3971 36.3266C68.7089 36.7573 69.1641 36.9936 69.7626 37.0355C70.026 37.0539 70.316 37.0261 70.6328 36.952C70.9495 36.8779 71.2577 36.7431 71.5573 36.5475C71.857 36.352 72.0975 36.1403 72.2788 35.9124C72.4854 35.6622 72.5977 35.3814 72.6155 35.0699C72.6416 34.6146 72.4946 34.2435 72.1745 33.9565C71.8784 33.6712 71.4837 33.4271 70.9905 33.2242C70.6608 33.1049 70.2361 32.9669 69.7162 32.8103C69.1964 32.6537 68.6758 32.509 68.1546 32.3763C67.6334 32.2437 67.2072 32.1297 66.8762 32.0343L67.2022 28.2321C68.0313 28.0255 68.9336 27.7999 69.9091 27.5554C70.9085 27.3125 71.9326 27.0594 72.9813 26.7959C74.0314 26.5085 75.0702 26.2082 76.0977 25.8952C77.3208 25.5236 78.4137 25.1189 79.3762 24.681C80.3627 24.2448 81.2254 23.8721 81.9642 23.5629C82.727 23.2554 83.3837 23.1209 83.9344 23.1594C85.2511 23.2515 86.2361 23.6812 86.8892 24.4486C87.5437 25.192 87.8353 26.1867 87.7639 27.4327C87.7255 28.1036 87.6716 28.8335 87.6024 29.6226C87.5345 30.3876 87.4745 31.2254 87.4224 32.1359C87.3949 32.6151 87.376 33.1551 87.3656 33.7558C87.3553 34.3565 87.3681 34.9708 87.4043 35.5988C87.4644 36.2285 87.5378 36.8351 87.6246 37.4185C87.6772 37.759 87.7192 38.0746 87.7506 38.3655C87.8059 38.6581 87.8274 38.9122 87.8151 39.1278C87.7876 39.607 87.6299 40.0531 87.3418 40.4659C87.0791 40.8565 86.712 41.1797 86.2407 41.4354C85.7707 41.6672 85.2364 41.7621 84.6379 41.7203C83.8478 41.665 83.2496 41.4067 82.8434 40.9453C82.4625 40.4615 82.2173 39.9151 82.108 39.3061C81.9249 38.307 81.8276 37.2777 81.8161 36.2184C81.8061 35.1352 81.8278 34.1263 81.8814 33.1919C81.917 32.5689 81.9527 31.9459 81.9884 31.3229C82.048 30.7016 82.1063 30.1043 82.1632 29.5309C82.2201 28.9575 82.2615 28.4432 82.2876 27.9879C82.3376 27.5344 82.3695 27.1878 82.3832 26.9482L83.5507 27.968C83.1779 28.1825 82.5861 28.4418 81.7755 28.746C80.9887 29.0518 80.0457 29.3588 78.9464 29.6668C77.8471 29.9748 76.6752 30.2898 75.4309 30.6118C74.2118 30.9114 72.9949 31.1752 71.7799 31.403C70.565 31.6307 69.426 31.7917 68.363 31.8857L68.6304 28.4763C68.7994 28.4641 69.0761 28.4594 69.4605 28.4622C69.8703 28.4428 70.3385 28.4514 70.8652 28.4883C71.2004 28.5117 71.6631 28.6162 72.2534 28.8019C72.8437 28.9875 73.4764 29.2723 74.1515 29.6563C74.8519 30.018 75.499 30.4722 76.0926 31.0189C76.6863 31.5656 77.1667 32.2006 77.5339 32.9239C77.9011 33.6473 78.0566 34.5001 78.0003 35.4825C77.9426 36.4889 77.6264 37.3929 77.0517 38.1947C76.4769 38.9965 75.7415 39.6668 74.8452 40.2055C73.949 40.7443 72.9766 41.1454 71.9279 41.4089C70.8805 41.6484 69.8661 41.7338 68.8845 41.6651ZM100.593 46.7332C98.8454 46.6109 97.369 46.1589 96.1638 45.377C94.9812 44.6207 94.0285 43.6279 93.3057 42.3986C92.5843 41.1453 92.0766 39.7265 91.7828 38.1423C91.5143 36.5358 91.4301 34.8579 91.5303 33.1088C91.6401 31.1919 91.939 29.5409 92.427 28.1557C92.915 26.7705 93.5349 25.5989 94.2869 24.6411C95.0402 23.6594 95.8537 22.8863 96.7273 22.3219C97.6023 21.7336 98.4565 21.3001 99.2897 21.0216C100.123 20.7431 101.083 20.5576 102.17 20.4652C103.258 20.3489 104.288 20.2164 105.258 20.0677C106.347 19.9274 107.257 19.7745 107.988 19.6091C108.744 19.4214 109.349 19.3434 109.804 19.3753C110.235 19.4054 110.661 19.5314 111.081 19.7532C111.501 19.975 111.843 20.2996 112.107 20.7271C112.372 21.1305 112.487 21.6437 112.451 22.2667C112.415 22.8897 112.134 23.3992 111.606 23.7954C111.104 24.1692 110.426 24.4586 109.573 24.6636C108.261 24.9087 107.076 25.0423 106.017 25.0645C104.982 25.0883 104.03 25.13 103.161 25.1895C102.294 25.2251 101.48 25.3727 100.72 25.6323C100.059 25.8506 99.4467 26.2529 98.8843 26.8391C98.3219 27.4252 97.8696 28.1874 97.5274 29.1258C97.1852 30.0641 96.9757 31.2042 96.8988 32.546C96.7931 34.391 96.8582 35.9833 97.0939 37.3229C97.3297 38.6625 97.7621 39.7151 98.3913 40.4808C99.0219 41.2226 99.8639 41.6303 100.917 41.7039C101.54 41.7474 102.134 41.6567 102.7 41.4316C103.289 41.2082 103.801 40.8831 104.234 40.4563C104.692 40.0073 105.057 39.5155 105.328 38.9812C105.599 38.4468 105.751 37.8921 105.784 37.3171C105.821 36.6701 105.696 36.1201 105.41 35.6671C105.148 35.1917 104.785 34.8295 104.318 34.5804C103.852 34.3312 103.295 34.1841 102.649 34.1389C101.595 34.0652 100.526 34.2671 99.4411 34.7445C98.3814 35.1997 97.3825 35.8515 96.4445 36.7001L94.3804 34.968C94.8998 33.8737 95.6418 32.8791 96.6065 31.9843C97.5951 31.0911 98.7038 30.4109 99.9324 29.9435C101.186 29.4538 102.496 29.2567 103.86 29.3521C105.273 29.4509 106.55 29.8168 107.692 30.45C108.857 31.0848 109.768 31.9664 110.425 33.0949C111.081 34.2233 111.363 35.6022 111.269 37.2315C111.201 38.4296 110.869 39.6092 110.273 40.7704C109.703 41.9093 108.923 42.9493 107.931 43.8904C106.964 44.8331 105.852 45.5613 104.597 46.0749C103.34 46.6125 102.006 46.8319 100.593 46.7332ZM119.153 43.2317C118.195 43.1647 117.405 42.905 116.782 42.4524C116.184 41.9776 115.714 41.3674 115.372 40.6218C115.056 39.8539 114.839 39.0208 114.722 38.1225C114.606 37.2243 114.575 36.2959 114.63 35.3375C114.667 34.6906 114.73 34.0094 114.819 33.2939C114.909 32.5544 115 31.815 115.09 31.0756C115.204 30.3378 115.315 29.66 115.423 29.042C115.53 28.424 115.631 27.9259 115.725 27.5475C115.895 26.6694 116.184 26.04 116.59 25.6595C117.022 25.2566 117.501 25.0736 118.028 25.1105C118.578 25.149 119.085 25.3287 119.547 25.6497C120.035 25.9485 120.421 26.3363 120.707 26.8134C121.016 27.292 121.154 27.8189 121.121 28.394C121.104 28.6815 121.046 29.0743 120.945 29.5725C120.846 30.0467 120.72 30.5671 120.567 31.1338C120.439 31.7022 120.321 32.2834 120.215 32.8774C120.109 33.4713 120.041 34.0319 120.01 34.559C119.982 35.0622 119.965 35.5543 119.962 36.0351C119.958 36.516 120.007 36.9284 120.107 37.2722C120.232 37.6177 120.438 37.8005 120.725 37.8206C121.276 37.8591 121.889 37.4329 122.565 36.5419C123.242 35.627 123.939 34.3767 124.655 32.7909C125.194 31.7701 125.659 30.7922 126.049 29.8572C126.463 28.9239 126.86 28.0736 127.241 27.3063C127.645 26.5407 128.076 25.9454 128.533 25.5203C129.015 25.0729 129.579 24.8718 130.226 24.917C131.207 24.9856 131.934 25.3131 132.405 25.8993C132.9 26.4872 133.197 27.1816 133.295 27.9823C133.381 28.5897 133.471 29.3177 133.567 30.1664C133.686 31.0168 133.795 31.8543 133.892 32.679C134.014 33.4814 134.143 34.164 134.279 34.7269C134.506 35.8012 134.767 36.6975 135.063 37.4158C135.383 38.1119 135.661 38.7207 135.895 39.2422C136.131 39.7399 136.234 40.2523 136.204 40.7794C136.175 41.2826 136.016 41.7526 135.727 42.1894C135.438 42.6023 135.059 42.9246 134.589 43.1564C134.143 43.3898 133.657 43.4881 133.13 43.4513C132.101 43.3793 131.306 42.7824 130.745 41.6607C130.208 40.5406 129.739 39.0884 129.336 37.3041C129.145 36.4487 128.977 35.595 128.834 34.743C128.69 33.891 128.557 33.0638 128.435 32.2613C128.338 31.4366 128.25 30.6607 128.172 29.9335L130.746 29.6805C130.547 30.2199 130.224 31.0392 129.776 32.1386C129.329 33.238 128.79 34.4633 128.159 35.8145C127.365 37.5151 126.466 38.9317 125.464 40.0645C124.463 41.1733 123.43 42.0031 122.365 42.5541C121.301 43.0812 120.23 43.307 119.153 43.2317ZM149.669 46.9533C148.161 46.8479 146.821 46.5376 145.648 46.0226C144.476 45.5076 143.562 44.8784 142.908 44.135C142.253 43.3916 141.95 42.6125 141.996 41.7979C142.02 41.3906 142.196 41.03 142.527 40.7164C142.859 40.3787 143.228 40.2241 143.635 40.2526C144.042 40.281 144.422 40.3677 144.774 40.5126C145.126 40.6576 145.502 40.8161 145.901 40.9884C146.301 41.1366 146.749 41.2882 147.245 41.4432C147.742 41.5742 148.35 41.6648 149.068 41.715C149.978 41.7786 150.718 41.65 151.29 41.3291C151.885 41.0099 152.2 40.5388 152.236 39.9158C152.261 39.4845 152.153 39.056 151.913 38.6302C151.674 38.1805 151.313 37.7704 150.83 37.3997C150.37 37.0308 149.775 36.7246 149.043 36.481C148.313 36.2134 147.47 36.0462 146.512 35.9792C145.794 35.929 145.241 35.9264 144.854 35.9715C144.491 36.0183 144.082 36.0258 143.627 35.9939C143.148 35.9605 142.688 35.808 142.247 35.5366C141.807 35.2412 141.455 34.8798 141.191 34.4524C140.952 34.0027 140.848 33.5263 140.876 33.0231C140.941 31.8969 141.404 31.1595 142.265 30.8107C143.152 30.4397 144.445 30.3136 146.145 30.4325C147.821 30.5497 149.388 30.8758 150.848 31.4109C152.308 31.946 153.576 32.6722 154.653 33.5895C155.756 34.4846 156.595 35.5776 157.17 36.8688C157.745 38.16 157.986 39.6202 157.892 41.2495C157.846 42.0642 157.597 42.8407 157.146 43.579C156.72 44.295 156.131 44.9273 155.379 45.4761C154.651 46.0026 153.799 46.4001 152.823 46.6686C151.846 46.9371 150.795 47.032 149.669 46.9533ZM141.867 57.2693C141.412 57.2375 140.964 57.0859 140.523 56.8145C140.082 56.5431 139.732 56.1457 139.474 55.6225C139.215 55.0992 139.108 54.4542 139.152 53.6875C139.181 53.1843 139.231 52.7307 139.302 52.3267C139.396 51.9484 139.49 51.5581 139.585 51.1557C139.68 50.7534 139.766 50.3024 139.843 49.8025C139.942 49.3283 140.013 48.7318 140.054 48.013C140.129 46.6952 140.116 45.4553 140.014 44.2935C139.937 43.1333 139.809 42.0058 139.631 40.9108C139.479 39.7935 139.339 38.6651 139.212 37.5256C139.087 36.3621 139.024 35.1429 139.025 33.8679C139.022 33.5068 139.079 33.138 139.197 32.7613C139.314 32.3846 139.512 32.0857 139.789 31.8645C140.067 31.6193 140.458 31.5143 140.961 31.5495C141.655 31.598 142.293 31.799 142.873 32.1523C143.455 32.4817 143.923 32.9234 144.276 33.4773C144.654 34.0089 144.826 34.5743 144.791 35.1733C144.789 36.4722 144.837 37.7385 144.934 38.9722C145.033 40.182 145.157 41.3814 145.305 42.5705C145.453 43.7597 145.566 44.9463 145.642 46.1304C145.742 47.3162 145.757 48.5321 145.686 49.7781C145.631 50.7365 145.529 51.6676 145.381 52.5714C145.257 53.4769 145.054 54.2927 144.772 55.0187C144.513 55.7704 144.143 56.346 143.664 56.7455C143.208 57.1466 142.609 57.3212 141.867 57.2693ZM166.218 50.2395C164.973 50.1525 163.897 49.8367 162.991 49.2922C162.083 48.7716 161.39 48.0736 160.912 47.1982C160.433 46.3227 160.226 45.3219 160.29 44.1958C160.359 42.9977 160.632 41.8019 161.109 40.6084C161.587 39.3909 162.206 38.2434 162.965 37.1658C163.747 36.0898 164.631 35.1412 165.615 34.32C166.625 33.4764 167.671 32.8399 168.754 32.4104C169.861 31.9586 170.966 31.7712 172.067 31.8482C172.977 31.9118 173.715 32.2401 174.282 32.8331C174.873 33.4277 175.137 34.2641 175.076 35.3424C175.052 35.7497 174.927 36.0536 174.699 36.2542C174.471 36.4548 174.188 36.5673 173.85 36.5918C172.303 36.7482 170.917 37.2407 169.691 38.0692C168.491 38.8754 167.519 39.9019 166.775 41.1489C166.056 42.3737 165.658 43.6569 165.581 44.9987C165.555 45.454 165.568 45.8518 165.62 46.1923C165.673 46.5328 165.769 46.9605 165.908 47.4754L163.675 43.6386C164.224 44.134 164.71 44.4687 165.132 44.6426C165.579 44.8182 166.102 44.9269 166.7 44.9687C167.921 45.0541 169.101 44.3909 170.239 42.979C171.378 41.5671 172.246 39.4146 172.845 36.5215C172.972 35.9771 173.248 35.5634 173.673 35.2804C174.123 34.975 174.624 34.8416 175.174 34.8801C176.108 34.9454 176.884 35.2523 177.501 35.8007C178.143 36.3507 178.563 36.9935 178.761 37.7291C179.126 38.9093 179.449 39.9904 179.729 40.9722C180.009 41.9541 180.363 42.9051 180.791 43.8251C181.245 44.7228 181.863 45.6802 182.646 46.6972C182.961 47.0801 183.103 47.5351 183.073 48.0622C183.066 48.591 182.94 49.1235 182.693 49.6595C182.446 50.1955 182.096 50.6282 181.645 50.9574C181.193 51.2867 180.668 51.4304 180.07 51.3886C179.639 51.3584 179.296 51.2503 179.043 51.0642C178.788 50.902 178.571 50.6944 178.393 50.4414C177.926 49.7833 177.495 49.1276 177.1 48.4745C176.728 47.8231 176.383 47.1374 176.064 46.4174C175.768 45.6991 175.489 44.9098 175.226 44.0494C174.964 43.165 174.723 42.1377 174.501 40.9675L176.451 40.9234C175.684 43.3958 174.743 45.3387 173.629 46.7523C172.516 48.1419 171.319 49.0927 170.04 49.6047C168.761 50.1166 167.487 50.3283 166.218 50.2395ZM204.844 48.2134C203.096 48.0912 201.65 47.7375 200.506 47.1523C199.387 46.5448 198.504 45.8094 197.856 44.9462C197.234 44.0607 196.807 43.1167 196.576 42.1142C196.347 41.0878 196.258 40.1073 196.312 39.1729C196.35 38.502 196.512 37.7795 196.797 37.0056C197.081 36.2316 197.475 35.4412 197.978 34.6344C198.505 33.8293 199.1 33.101 199.762 32.4497C200.449 31.7761 201.212 31.2641 202.049 30.9137C202.888 30.5393 203.786 30.3856 204.744 30.4525C205.199 30.4844 205.586 30.6557 205.904 30.9667C206.248 31.2554 206.505 31.5981 206.675 31.9949C206.87 32.3694 206.957 32.7243 206.938 33.0598C206.926 33.2754 206.84 33.51 206.682 33.7635C206.548 33.9948 206.365 34.2466 206.133 34.5191C205.927 34.7692 205.696 35.0177 205.442 35.2646C205.211 35.5131 204.982 35.7376 204.754 35.9382C203.961 36.7728 203.16 37.5348 202.352 38.224C201.543 38.9132 200.695 39.4553 199.807 39.8503C198.943 40.2469 198.008 40.4101 197.002 40.3398C196.284 40.2896 195.66 40.27 195.131 40.2811C194.625 40.2938 194.166 40.3459 193.752 40.4372C193.362 40.5303 192.979 40.708 192.603 40.9704C192.204 41.2311 191.847 41.5791 191.534 42.0142C191.245 42.4511 191.003 42.8913 190.809 43.3348C190.616 43.7783 190.449 44.1636 190.31 44.4907C190.029 45.2168 189.662 45.7324 189.212 46.0378C188.786 46.3448 188.298 46.479 187.747 46.4405C187.029 46.3903 186.395 46.1174 185.847 45.622C185.324 45.1043 185.087 44.4021 185.138 43.5156C185.152 43.276 185.223 42.872 185.352 42.3036C185.506 41.713 185.675 41.0633 185.86 40.3545C186.069 39.6474 186.24 38.9618 186.375 38.2976C186.534 37.6111 186.628 37.0282 186.655 36.549C186.689 35.95 186.652 35.334 186.545 34.7009C186.462 34.0456 186.375 33.4622 186.284 32.9506C186.193 32.4391 186.156 32.0396 186.173 31.752C186.211 31.0811 186.485 30.4989 186.994 30.0052C187.503 29.5116 188.14 29.2915 188.907 29.3451C189.577 29.392 190.141 29.6238 190.597 30.0407C191.078 30.4592 191.408 30.9875 191.588 31.6255C191.668 31.9198 191.741 32.3218 191.808 32.8317C191.875 33.3416 191.925 33.9225 191.96 34.5744C192.02 35.2041 192.033 35.8185 191.999 36.4175C191.969 36.9446 191.887 37.5283 191.754 38.1686C191.645 38.8105 191.499 39.4738 191.316 40.1587C191.156 40.8451 190.988 41.4829 190.81 42.0718C190.657 42.6385 190.522 43.0982 190.406 43.4509C190.314 43.8053 190.267 43.9825 190.267 43.9825L185.842 42.5545C185.931 42.2719 186.074 41.873 186.271 41.3576C186.469 40.8422 186.704 40.3053 186.977 39.747C187.249 39.1887 187.592 38.6593 188.005 38.159C188.42 37.6347 188.879 37.1736 189.382 36.7758C190.132 36.2749 190.887 35.8947 191.647 35.6351C192.431 35.3772 193.305 35.2218 194.27 35.169C195.234 35.1161 196.375 35.1358 197.692 35.2278C197.883 35.2412 198.111 35.2451 198.376 35.2396C198.666 35.2118 198.956 35.1839 199.246 35.1561C199.56 35.1299 199.886 35.1046 200.224 35.0801C200.586 35.0573 200.935 35.0577 201.27 35.0811L204.906 35.8045C204.442 35.9404 204.01 36.1267 203.612 36.3635C203.214 36.6003 202.862 36.8764 202.555 37.1917C202.25 37.4831 202.001 37.8386 201.809 38.2582C201.642 38.6555 201.545 39.0817 201.519 39.537C201.488 40.0881 201.6 40.6492 201.855 41.2204C202.113 41.7676 202.507 42.2282 203.038 42.6022C203.594 42.9778 204.29 43.1949 205.128 43.2535C205.703 43.2937 206.234 43.2467 206.723 43.1124C207.213 42.9542 207.622 42.7303 207.951 42.4405C208.306 42.1285 208.578 41.7747 208.769 41.3791C208.961 40.9595 209.072 40.4982 209.101 39.995C209.134 39.4199 209.008 38.8819 208.725 38.3809C208.465 37.8816 208.008 37.4648 207.354 37.1304C206.701 36.772 205.825 36.5543 204.723 36.4773C204.125 36.4355 203.622 36.1958 203.214 35.7583C202.832 35.2986 202.654 34.8411 202.68 34.3858C202.709 33.8826 202.904 33.4151 203.265 32.9833C203.627 32.5275 204.056 32.1726 204.552 31.9186C205.048 31.6406 205.536 31.5183 206.015 31.5518C207.595 31.6623 208.922 31.9957 209.996 32.5519C211.095 33.0858 211.981 33.7733 212.654 34.6142C213.328 35.4312 213.806 36.3306 214.086 37.3124C214.366 38.2943 214.478 39.2884 214.42 40.2948C214.369 41.1813 214.124 42.1024 213.685 43.058C213.245 44.0136 212.617 44.9079 211.8 45.7409C210.984 46.5738 209.985 47.2257 208.804 47.6964C207.648 48.1449 206.329 48.3172 204.844 48.2134ZM21.9517 85.342C20.9941 85.275 20.2239 84.8723 19.6412 84.1339C19.0839 83.3733 18.7027 82.2641 18.4978 80.8063C18.2928 79.3486 18.2528 77.5295 18.3777 75.3491C18.5479 72.378 18.7481 69.7217 18.9784 67.3802C19.234 65.0165 19.4016 63.1397 19.4812 61.75C19.5347 60.8155 19.7893 60.1477 20.245 59.7466C20.702 59.3215 21.3136 59.1357 22.0797 59.1893C23.0374 59.2562 23.7682 59.7163 24.2722 60.5695C24.8015 61.4003 25.0215 62.5945 24.9323 64.152C24.8623 65.374 24.7636 66.6781 24.6361 68.0645C24.5325 69.4526 24.4184 70.8158 24.2936 72.1543C24.1942 73.4704 24.1122 74.6916 24.0477 75.8177C24.0113 76.8737 24.0176 77.8123 24.0667 78.6337C24.1158 79.4551 24.1683 80.2165 24.2243 80.9181C24.3042 81.6213 24.3348 82.3452 24.3162 83.0896C24.2976 83.8341 24.0725 84.4077 23.6407 84.8105C23.233 85.215 22.67 85.3922 21.9517 85.342ZM8.44916 81.8718C7.41968 81.7998 6.59103 81.369 5.96321 80.5794C5.3354 79.7897 5.07945 78.593 5.19535 76.9893C5.3201 75.6509 5.40687 74.3458 5.45568 73.0743C5.5298 71.7804 5.57791 70.5208 5.60003 69.2954C5.64746 68.0478 5.68155 66.8233 5.7023 65.6219C5.74699 64.4222 5.77833 63.2456 5.79633 62.0921C5.83964 60.9164 5.89356 59.7654 5.95807 58.6393C6.01709 57.609 6.2758 56.8693 6.7342 56.4202C7.21791 55.9488 7.9386 55.7466 8.89626 55.8136C9.75815 55.8739 10.4924 56.274 11.099 57.0141C11.707 57.7302 11.9691 58.819 11.8854 60.2807C11.7468 62.7007 11.6291 64.9658 11.5322 67.076C11.4607 69.164 11.3792 71.2151 11.2879 73.2295C11.2218 75.2216 11.1291 77.2599 11.0097 79.3445C10.9589 80.231 10.705 80.8869 10.248 81.312C9.79096 81.7371 9.19135 81.9237 8.44916 81.8718ZM7.73554 73.5584C6.44269 73.468 5.40947 73.2514 4.63587 72.9087C3.88758 72.5436 3.34692 72.1209 3.01388 71.6405C2.70477 71.1618 2.56532 70.6589 2.59552 70.1318C2.61885 69.7245 2.74649 69.3846 2.97843 69.1121C3.23569 68.8174 3.64377 68.6173 4.20266 68.5121C6.09755 68.1635 8.03209 67.9619 10.0063 67.9075C12.0058 67.8308 14.0244 67.8397 16.0622 67.9341C18.1 68.0285 20.1244 68.146 22.1355 68.2866C23.4283 68.377 24.4482 68.6167 25.1951 69.0057C25.942 69.3948 26.4687 69.8526 26.775 70.3792C27.1067 70.8835 27.2581 71.3873 27.2293 71.8904C27.195 72.4895 26.9887 72.9441 26.6103 73.2545C26.2559 73.5665 25.7435 73.699 25.0732 73.6522C22.3678 73.463 20.054 73.3613 18.1318 73.3472C16.211 73.3091 14.5874 73.3279 13.261 73.4035C11.9599 73.4569 10.863 73.5125 9.97033 73.5704C9.10295 73.6059 8.35802 73.602 7.73554 73.5584ZM38.2103 90.8091C36.5104 90.6902 35.0518 90.3476 33.8343 89.7814C32.6393 89.2407 31.6708 88.5235 30.9288 87.6296C30.1868 86.7357 29.6578 85.6884 29.342 84.4875C29.0262 83.2867 28.9088 81.9794 28.9898 80.5657C29.0749 79.0801 29.4121 77.6002 30.0013 76.1258C30.6159 74.6291 31.4377 73.2913 32.4667 72.1123C33.5197 70.935 34.7624 70.0115 36.195 69.3419C37.6275 68.6722 39.1817 68.396 40.8576 68.5132C42.3659 68.6187 43.6676 68.9743 44.7627 69.5802C45.8577 70.186 46.687 71.0258 47.2505 72.0996C47.8392 73.1512 48.0911 74.4198 48.006 75.9053C47.9346 77.1513 47.6095 78.2111 47.0306 79.0848C46.477 79.9362 45.7402 80.6304 44.82 81.1675C43.8999 81.7045 42.857 82.0767 41.6913 82.2838C40.551 82.4687 39.3822 82.5193 38.1852 82.4356C36.5811 82.3234 35.4231 81.9778 34.7111 81.3988C34.0004 80.7958 33.665 80.1469 33.7048 79.452C33.7364 78.9009 33.8429 78.5114 34.0242 78.2835C34.2308 78.0334 34.5376 77.9225 34.9446 77.951C35.2798 77.9744 35.6594 78.0611 36.0835 78.211C36.5316 78.3626 37.1147 78.4636 37.8329 78.5138C38.7188 78.5757 39.5157 78.5112 40.2237 78.3201C40.9571 78.1068 41.5403 77.7867 41.9734 77.3599C42.4065 76.9331 42.6388 76.4442 42.6704 75.8931C42.7006 75.3659 42.5443 74.946 42.2017 74.6334C41.8843 74.2985 41.3546 74.1051 40.6124 74.0532C39.7984 73.9962 39.0199 74.1583 38.2769 74.5394C37.5593 74.8982 36.9165 75.4186 36.3486 76.1005C35.8061 76.7602 35.3657 77.5233 35.0277 78.3898C34.6896 79.2562 34.4931 80.1687 34.4382 81.1271C34.386 82.0376 34.4618 82.8127 34.6655 83.4525C34.8693 84.0922 35.2368 84.599 35.7683 84.973C36.3011 85.323 37.0344 85.5306 37.9681 85.5959C39.5243 85.7047 40.8254 85.6514 41.8713 85.4358C42.9173 85.2203 43.7984 84.9451 44.5147 84.6103C45.2309 84.2755 45.8606 83.9827 46.4038 83.732C46.947 83.4813 47.446 83.3719 47.9009 83.4037C48.4037 83.4388 48.7546 83.6077 48.9536 83.9103C49.1526 84.2129 49.2356 84.6517 49.2027 85.2268C49.1588 85.9935 48.8522 86.7299 48.2829 87.4358C47.7376 88.1434 46.9802 88.7761 46.0108 89.3338C45.0414 89.8915 43.888 90.304 42.5507 90.5713C41.2372 90.8403 39.7904 90.9196 38.2103 90.8091ZM78.0643 93.3794C77.2024 93.3192 76.3197 92.9928 75.4161 92.4004C74.5366 91.8096 73.5383 90.982 72.4215 89.9176C70.9859 88.5422 69.8752 87.37 69.0894 86.4009C68.3289 85.4095 67.8054 84.6873 67.5189 84.2342C67.4102 84.0342 67.3141 83.823 67.2307 83.6006C67.1473 83.3783 67.1131 83.1353 67.1282 82.8717C67.1515 82.4644 67.2925 82.1014 67.5512 81.7827C67.8098 81.464 68.1023 81.1837 68.4286 80.9419C69.056 80.4806 69.7466 79.9636 70.5006 79.3908C71.2798 78.7958 72.0225 78.2102 72.7285 77.6341C73.4585 77.0597 74.1013 76.5393 74.6568 76.0729C75.2377 75.5843 75.7918 75.1419 76.3193 74.7458C76.8707 74.3513 77.3858 74.1708 77.8647 74.2043C78.4153 74.2428 78.8859 74.4201 79.2765 74.7361C79.667 75.052 79.9576 75.4332 80.1484 75.8796C80.3631 76.3276 80.4574 76.7793 80.4314 77.2345C80.3998 77.7856 80.1907 78.2882 79.8041 78.7423C79.4415 79.1981 78.9472 79.6447 78.3212 80.082C77.7205 80.4971 77.0593 80.92 76.3376 81.3506C75.8888 81.632 75.4653 81.891 75.0671 82.1278C74.669 82.3646 74.332 82.5816 74.0563 82.7788C73.782 82.9521 73.5689 83.1056 73.417 83.2393C73.2665 83.3491 73.1885 83.4519 73.183 83.5477C73.1747 83.6915 73.2821 83.9155 73.505 84.2198C73.728 84.5241 74.1031 84.8991 74.6304 85.3449C75.1817 85.7925 75.907 86.3484 76.8065 87.0127C77.6156 87.5744 78.2971 88.0551 78.8512 88.4547C79.4052 88.8543 79.8148 89.2558 80.0802 89.6593C80.3708 90.0405 80.5017 90.4826 80.4729 90.9858C80.4317 91.7046 80.2059 92.2903 79.7954 92.7427C79.4074 93.2208 78.8304 93.433 78.0643 93.3794ZM53.7855 91.7178C53.3545 91.6876 52.9558 91.5154 52.5892 91.2011C52.2465 90.8885 51.9685 90.4961 51.7552 90.0242C51.5658 89.5538 51.4848 89.0791 51.5123 88.5998C51.5452 88.0248 51.8436 87.4322 52.4073 86.8221C52.9725 86.188 53.7305 85.5434 54.6815 84.8882C55.6564 84.2347 56.7397 83.5767 57.9315 82.9143C58.7757 82.444 59.4208 82.0922 59.8668 81.8588C60.3382 81.6031 60.685 81.4228 60.9074 81.3181C61.155 81.1911 61.3408 81.0958 61.4646 81.0323L62.5138 83.4873C62.2094 83.3457 61.6239 83.0762 60.7573 82.6788C59.9146 82.2831 58.7885 81.5909 57.3788 80.6023C56.5697 80.0405 55.8345 79.4478 55.1731 78.8242C54.5117 78.2006 53.9834 77.5622 53.5882 76.9091C53.2182 76.2337 53.0525 75.5606 53.0909 74.8897C53.1128 74.5063 53.2306 74.1296 53.4441 73.7596C53.6576 73.3897 53.9507 73.0974 54.3236 72.8829C54.6978 72.6445 55.1124 72.5411 55.5672 72.573C56.07 72.6081 56.595 72.8854 57.1421 73.4048C57.7132 73.9259 58.338 74.5589 59.0164 75.304C59.7188 76.0508 60.4817 76.7897 61.3052 77.5209C61.8325 77.9667 62.393 78.463 62.9867 79.0097C63.6056 79.5341 64.1702 79.9585 64.6805 80.2829L64.3657 84.5189C63.6494 84.8537 62.9783 85.2398 62.3523 85.6772C61.7503 86.1162 61.0589 86.6452 60.2783 87.2642C59.3725 87.9707 58.5153 88.6686 57.7066 89.3578C56.8965 90.0709 56.1546 90.6445 55.4807 91.0785C54.8294 91.5382 54.2643 91.7513 53.7855 91.7178ZM65.4549 92.5699C64.9522 92.5347 64.4942 92.3463 64.0811 92.0047C63.668 91.6631 63.3462 91.1955 63.1158 90.6021C62.908 90.0342 62.8267 89.3549 62.872 88.5642C62.9077 87.9413 63.0156 87.1068 63.1957 86.0609C63.3772 84.9911 63.5084 83.7493 63.5894 82.3356C63.6429 81.4011 63.7406 80.3254 63.8824 79.1084C64.0495 77.8692 64.2591 76.7291 64.511 75.6882C64.6425 75.072 64.8789 74.5111 65.2203 74.0058C65.5857 73.5021 66.1395 73.2762 66.8817 73.3281C67.7915 73.3917 68.4939 73.7174 68.9891 74.3054C69.5082 74.895 69.7457 75.5731 69.7018 76.3399C69.6661 76.9629 69.5518 77.7006 69.3587 78.5532C69.167 79.3818 68.9613 80.2454 68.7415 81.1442C68.5218 82.043 68.3886 82.8997 68.3419 83.7144C68.3268 83.978 68.3154 84.3861 68.3078 84.9389C68.3002 85.4917 68.2778 86.0915 68.2408 86.7385C68.229 87.3631 68.2187 87.9638 68.2097 88.5406C68.202 89.0933 68.1879 89.5494 68.1673 89.9088C68.1179 90.7714 67.8514 91.4384 67.3677 91.9098C66.8826 92.4051 66.245 92.6251 65.4549 92.5699ZM87.612 88.7787C86.8219 88.7234 86.1294 88.4344 85.5343 87.9117C84.9407 87.365 84.477 86.6469 84.1434 85.7576C83.835 84.8459 83.7131 83.827 83.7776 82.7008C83.86 81.2632 84.1506 80.1769 84.6494 79.442C85.1721 78.7087 85.6825 78.1911 86.1806 77.8891C86.431 77.7142 86.7378 77.6033 87.101 77.5566C87.4882 77.5115 87.8734 77.5023 88.2564 77.5291C90.0041 77.6513 91.8066 77.6571 93.6638 77.5464C95.545 77.4374 97.2682 77.1489 98.8334 76.681L100.27 81.1838C99.0654 81.6529 97.7485 81.9818 96.3195 82.1705C94.8919 82.3353 93.4331 82.4137 91.9432 82.4058C90.4787 82.3756 89.0521 82.3119 87.6635 82.2148L84.7086 80.9256C84.791 79.488 84.9 78.0041 85.0357 76.4739C85.1728 74.9198 85.2778 73.5078 85.3505 72.2379C85.3944 71.4712 85.5765 70.8103 85.8968 70.2553C86.217 69.7004 86.7243 69.4472 87.4186 69.4957C88.5917 69.5777 89.445 69.9983 89.9784 70.7573C90.5371 71.494 90.7808 72.4853 90.7095 73.7313C90.6765 74.3063 90.6155 74.9516 90.5264 75.6671C90.4374 76.3825 90.3476 77.11 90.2572 77.8494C90.1668 78.5889 90.0784 79.2924 89.9921 79.9599C89.9071 80.6035 89.8516 81.1529 89.8256 81.6082C89.7775 82.4468 89.7394 83.3222 89.7112 84.2344C89.683 85.1466 89.6462 85.998 89.6009 86.7887C89.5652 87.4117 89.3561 87.9143 88.9737 88.2965C88.6165 88.6564 88.1626 88.8172 87.612 88.7787ZM100.286 90.3505C99.3761 90.2869 98.6664 89.8764 98.1569 89.1191C97.6488 88.3378 97.2995 87.303 97.1089 86.0147C96.9183 84.7263 96.871 83.2435 96.9671 81.5663C97.0837 79.5296 97.239 77.8685 97.4328 76.583C97.6266 75.2975 97.8413 74.2781 98.0767 73.5247C98.2814 72.8895 98.6728 72.3516 99.2509 71.9109C99.829 71.4701 100.477 71.2749 101.195 71.3251C101.866 71.372 102.414 71.6629 102.84 72.1979C103.291 72.7106 103.499 73.2904 103.462 73.9374C103.415 74.752 103.254 75.679 102.978 76.7182C102.726 77.7591 102.563 78.9145 102.491 80.1844C102.414 81.5262 102.431 82.6941 102.542 83.6882C102.654 84.6823 102.761 85.5319 102.865 86.2368C102.994 86.9194 103.044 87.5243 103.014 88.0514C102.975 88.7223 102.702 89.2926 102.194 89.7623C101.712 90.2097 101.076 90.4058 100.286 90.3505ZM115.778 91.3617C113.958 91.2344 112.35 90.7732 110.954 89.9778C109.557 89.1825 108.486 88.1574 107.74 86.9024C106.996 85.6235 106.669 84.2053 106.758 82.6479C106.82 81.5697 107.119 80.5441 107.656 79.5712C108.192 78.5984 108.89 77.7451 109.749 77.0113C110.633 76.2792 111.567 75.707 112.552 75.2947C113.561 74.8842 114.52 74.7107 115.43 74.7743C115.861 74.8044 116.252 74.9039 116.603 75.0728C116.954 75.2417 117.229 75.4774 117.428 75.78C117.652 76.0603 117.75 76.4401 117.723 76.9193C117.678 77.71 117.459 78.3803 117.067 78.9303C116.675 79.4802 115.942 79.8981 114.868 80.1838C114.453 80.2991 114.032 80.5103 113.606 80.8173C113.205 81.102 112.86 81.4508 112.572 81.8636C112.309 82.2542 112.164 82.7011 112.135 83.2043C112.088 84.0189 112.398 84.6902 113.065 85.2179C113.757 85.7234 114.714 86.0188 115.935 86.1042C116.988 86.1779 117.865 85.9746 118.566 85.4943C119.266 85.0141 119.641 84.3426 119.691 83.4801C119.739 82.6414 119.49 81.9504 118.944 81.4071C118.398 80.8637 117.671 80.5602 116.761 80.4966C116.21 80.4581 115.748 80.5581 115.374 80.7966C115.025 81.0127 114.61 81.3325 114.129 81.756C113.8 82.0457 113.499 82.2652 113.226 82.4145C112.953 82.5638 112.671 82.6644 112.379 82.7162C112.112 82.7696 111.798 82.7838 111.439 82.7587C111.008 82.7286 110.633 82.558 110.315 82.2471C110.02 81.9378 109.896 81.3758 109.943 80.5611C109.98 79.9142 110.196 79.2798 110.592 78.658C111.014 78.0139 111.539 77.4492 112.168 76.9639C112.822 76.4563 113.53 76.0607 114.291 75.7772C115.076 75.4953 115.852 75.3812 116.618 75.4347C118.51 75.567 120.096 75.9907 121.377 76.7057C122.659 77.3968 123.615 78.3417 124.243 79.5404C124.873 80.7151 125.143 82.0931 125.052 83.6745C124.963 85.232 124.487 86.618 123.624 87.8327C122.785 89.049 121.687 89.9706 120.329 90.5973C118.971 91.2241 117.454 91.4789 115.778 91.3617ZM136.149 96.2143C134.21 96.0786 132.59 95.6165 131.289 94.8279C130.011 94.0649 129.06 93.0482 128.435 91.7776C127.836 90.4848 127.582 89.0477 127.673 87.4663C127.759 85.9567 128.138 84.588 128.809 83.3599C129.504 82.1335 130.419 81.0668 131.553 80.1597C132.71 79.2543 133.998 78.5866 135.417 78.1566C136.861 77.7043 138.373 77.5334 139.954 77.6439C140.696 77.6958 141.335 77.8608 141.872 78.1389C142.409 78.417 142.819 78.8185 143.101 79.3435C143.385 79.8444 143.506 80.4543 143.465 81.1732C143.416 82.0357 143.194 82.754 142.801 83.3279C142.407 83.9018 141.888 84.1662 141.241 84.121C140.906 84.0975 140.671 84.0089 140.535 83.8551C140.401 83.6773 140.254 83.5107 140.095 83.3552C139.96 83.2014 139.676 83.1094 139.246 83.0793C138.144 83.0023 137.148 83.1852 136.258 83.6281C135.368 84.0471 134.649 84.6463 134.099 85.4258C133.551 86.1814 133.25 87.0264 133.197 87.9608C133.167 88.488 133.236 88.9499 133.406 89.3467C133.6 89.7451 133.929 90.0809 134.394 90.354C134.884 90.6048 135.584 90.762 136.494 90.8256C137.428 90.8909 138.164 90.8341 138.703 90.6553C139.244 90.4525 139.678 90.2183 140.006 89.9525C140.357 89.6884 140.684 89.4466 140.985 89.2271C141.286 89.0076 141.652 88.9129 142.083 88.943C142.657 88.9832 143.066 89.1922 143.309 89.57C143.575 89.9495 143.687 90.5107 143.645 91.2535C143.586 92.2838 143.221 93.1965 142.551 93.9916C141.904 94.7883 141.017 95.3758 139.89 95.7541C138.785 96.158 137.538 96.3114 136.149 96.2143ZM148.192 81.7202C147.473 81.6699 146.842 81.3612 146.298 80.7939C145.753 80.2265 145.502 79.5715 145.545 78.8287C145.575 78.3016 145.744 77.8683 146.052 77.529C146.385 77.1674 146.844 76.9109 147.43 76.7594C148.287 76.4825 149.49 76.2539 151.039 76.0735C152.613 75.8708 154.573 75.8515 156.919 76.0156C158.356 76.116 159.635 76.2416 160.756 76.3921C161.877 76.5427 163.091 76.7479 164.398 77.0077C165.229 77.1861 165.872 77.5077 166.326 77.9724C166.806 78.4149 167.027 78.9596 166.99 79.6066C166.964 80.0618 166.807 80.4839 166.521 80.8728C166.258 81.2634 165.903 81.5754 165.457 81.8089C165.013 82.0184 164.515 82.1038 163.964 82.0653C163.533 82.0352 162.912 81.9677 162.101 81.8629C161.291 81.7341 160.421 81.6011 159.492 81.4639C158.562 81.3267 157.642 81.2263 156.733 81.1627C155.105 81.0489 153.77 81.0518 152.73 81.1715C151.69 81.2912 150.817 81.4226 150.111 81.5657C149.43 81.7105 148.79 81.762 148.192 81.7202ZM155.901 93.157C155.327 93.1168 154.856 92.9515 154.488 92.6612C154.121 92.3469 153.799 91.8793 153.522 91.2585C153.29 90.689 153.116 89.9551 152.999 89.0569C152.907 88.1603 152.854 87.1943 152.841 86.159C152.853 85.1014 152.888 84.0814 152.944 83.099C153.018 81.8051 153.045 80.7004 153.026 79.7849C153.007 78.8454 153.015 78.0881 153.048 77.513L158.489 77.5688C158.479 77.7365 158.471 78.0848 158.465 78.6136C158.459 79.1424 158.447 79.767 158.43 80.4875C158.413 81.208 158.393 81.9645 158.372 82.7568C158.352 83.5252 158.324 84.2329 158.287 84.8799C158.24 85.6945 158.247 86.4167 158.307 87.0464C158.368 87.6521 158.434 88.1859 158.503 88.6479C158.597 89.1115 158.681 89.5264 158.757 89.8925C158.833 90.2346 158.862 90.5614 158.845 90.8729C158.817 91.3521 158.661 91.7742 158.375 92.1392C158.092 92.4802 157.728 92.7434 157.285 92.9289C156.841 93.1145 156.38 93.1905 155.901 93.157ZM175.742 96.3125C174.305 96.2121 173.119 95.9367 172.184 95.4864C171.248 95.036 170.511 94.4673 169.974 93.7802C169.438 93.0691 169.061 92.297 168.845 91.4639C168.653 90.6086 168.584 89.7256 168.636 88.8151C168.696 87.7608 168.876 86.7269 169.174 85.7134C169.496 84.7015 169.678 83.8361 169.719 83.1173C169.758 82.4464 169.743 81.868 169.674 81.3821C169.608 80.8722 169.586 80.4136 169.609 80.0063C169.636 79.527 169.77 79.0913 170.008 78.699C170.247 78.3068 170.565 78.0042 170.962 77.7914C171.36 77.5546 171.822 77.4547 172.349 77.4915C173.235 77.5534 173.935 77.9271 174.448 78.6126C174.963 79.2741 175.188 80.1679 175.124 81.294C175.097 81.7732 175.03 82.3098 174.924 82.9038C174.843 83.4756 174.737 84.0695 174.605 84.6858C174.498 85.3038 174.392 85.8858 174.289 86.4319C174.209 86.9796 174.158 87.4572 174.135 87.8645C174.103 88.4156 174.095 88.9684 174.112 89.5228C174.129 90.0533 174.272 90.4963 174.54 90.8518C174.832 91.2091 175.338 91.4128 176.056 91.463C176.487 91.4931 176.935 91.4283 177.401 91.2684C177.867 91.1085 178.29 90.8614 178.669 90.5271C179.073 90.1945 179.408 89.8089 179.673 89.3704C179.94 88.9079 180.089 88.4131 180.119 87.886C180.128 87.7183 179.992 87.5884 179.708 87.4965C179.427 87.3805 179.034 87.305 178.532 87.2698C178.029 87.2347 177.464 87.2313 176.837 87.2596C176.235 87.2897 175.667 87.3342 175.135 87.3932C174.627 87.4539 174.228 87.4861 173.94 87.49C173.485 87.4582 173.033 87.3665 172.585 87.2149C172.161 87.0649 171.815 86.8242 171.545 86.4926C171.3 86.1627 171.191 85.7462 171.22 85.243C171.26 84.5481 171.467 84.0815 171.841 83.843C172.241 83.5823 172.781 83.3795 173.462 83.2347C173.779 83.1606 174.204 83.0821 174.738 82.9991C175.297 82.8939 175.903 82.8039 176.556 82.7293C177.211 82.6308 177.864 82.5562 178.516 82.5055C179.192 82.4565 179.805 82.4513 180.356 82.4898C181.577 82.5752 182.583 82.85 183.373 83.3143C184.164 83.7785 184.728 84.4194 185.066 85.2369C185.429 86.0321 185.578 87.0048 185.512 88.1549C185.449 89.2571 185.112 90.316 184.5 91.3318C183.889 92.3476 183.093 93.2421 182.111 94.0155C181.153 94.7905 180.121 95.3919 179.015 95.8197C177.91 96.2236 176.819 96.3879 175.742 96.3125Z" fill="#F5B02B"/>
</svg>
