<svg width="102" height="63" viewBox="0 0 102 63" fill="none" xmlns="http://www.w3.org/2000/svg">
<path opacity="0.6" fill-rule="evenodd" clip-rule="evenodd" d="M101.171 0.159353C101.912 0.531391 102.212 1.43618 101.841 2.18026C95.8736 14.1779 89.3622 24.0718 80.9515 31.9039C72.5265 39.7492 62.262 45.4644 48.8749 49.2023C33.5001 53.4953 19.0316 55.2036 3.37136 55.3054C3.55545 55.7638 3.76643 56.2439 3.99823 56.7089C4.46686 57.6491 4.95914 58.4012 5.4047 58.8242C5.46851 58.8848 5.53329 58.9403 5.6289 59.0223C5.65961 59.0486 5.6935 59.0776 5.73156 59.1104C5.86732 59.2275 6.05109 59.3888 6.2266 59.5785C6.5872 59.9684 7.02505 60.5997 7.02505 61.4937C7.02505 62.3256 6.35414 63 5.52653 63C4.74555 63 4.10411 62.3995 4.03432 61.6327C4.03348 61.6318 4.03264 61.6309 4.03177 61.63C3.97894 61.5728 3.90469 61.5043 3.78019 61.397C3.76136 61.3807 3.74013 61.3626 3.71707 61.3428C3.61314 61.2539 3.47215 61.1333 3.34687 61.0144C2.51692 60.2265 1.8367 59.0976 1.31873 58.0585C0.786641 56.991 0.360376 55.8834 0.0773056 55.0298C0.00884607 54.8233 -0.0126714 54.6125 0.00693239 54.409C-0.0102918 54.23 0.00432108 54.0448 0.0550756 53.8612C0.806689 51.1413 2.73987 48.2295 4.13025 46.1353C4.18081 46.0591 4.23065 45.9841 4.27969 45.9101C4.73876 45.2179 5.66915 45.0309 6.35776 45.4923C7.04637 45.9538 7.23245 46.889 6.77337 47.5812L6.75937 47.6023C5.77805 49.0819 4.69964 50.7079 3.90137 52.2886C19.128 52.1523 33.1705 50.4606 48.0727 46.2996C61.0537 42.6751 70.8797 37.1761 78.9147 29.6939C86.964 22.1983 93.2822 12.6513 99.1608 0.832988C99.531 0.0889119 100.431 -0.212685 101.171 0.159353Z" fill="#F5B02B"/>
</svg>
