<svg width="433" height="397" viewBox="0 0 433 397" fill="none" xmlns="http://www.w3.org/2000/svg">
<path opacity="0.3" fill-rule="evenodd" clip-rule="evenodd" d="M164.185 296.365C163.542 294.639 168.369 292.311 178.405 291.216C189.151 290.044 206.315 289.854 222.255 290.028C238.794 290.208 254.905 291.52 265.176 293.193C274.556 294.722 273.221 296.538 272.849 298.272C272.489 299.947 272.794 301.734 263.106 302.826C252.945 303.971 237.292 304.41 222.012 304C207.64 303.615 190.917 302.746 180.705 301.398C170.438 300.042 164.811 298.042 164.185 296.365Z" fill="#CFE1C3"/>
<path d="M197.996 174.536C196.211 183.772 194.465 193.084 191.415 202.006C190.882 203.576 193.175 204.787 193.768 203.187C196.711 195.239 199.548 187.066 199.848 178.52C199.898 177.004 197.532 176.937 197.256 178.367L191.338 208.975C191.006 210.694 193.41 211.055 193.917 209.479C197.118 199.566 199.122 189.338 201.098 179.118L198.519 178.614C196.509 189.29 196.87 200.43 196.159 211.238C196.072 212.596 197.99 213.584 198.62 212.073C203.27 201.096 203.267 189.086 201.36 177.481C201.081 175.779 198.821 176.004 198.738 177.69C198.241 187.954 198.041 198.848 200.733 208.837C201.12 210.261 202.895 209.75 203.256 208.65C206.382 199.335 205.716 189.143 204.905 179.494C204.758 177.805 202.139 178.001 202.283 179.703C203.138 189.823 203.189 200.535 207.063 210.074C207.585 211.361 209.213 211.121 209.586 209.887C213.008 198.969 210.005 187.095 208.17 176.17C207.896 174.51 205.266 174.691 205.548 176.379C207.36 187.422 207.569 198.859 211.099 209.542C211.541 210.895 213.262 210.523 213.623 209.355C216.748 199.414 214.797 189.297 212.673 179.379C212.318 177.716 209.848 178.609 210.192 180.255C212.157 189.53 213.003 198.995 213.803 208.423C213.952 210.168 216.348 209.874 216.425 208.214C216.665 202.638 215.44 197.02 214.184 191.628C213.07 186.904 211.696 182.265 210.394 177.599L207.913 178.476C212.339 190.124 216.241 202.106 217.899 214.507C218.115 216.183 220.745 216.003 220.521 214.298C218.841 201.661 214.915 189.457 210.41 177.588C209.801 175.985 207.476 176.824 207.929 178.465C210.606 188.111 214.251 198.272 213.831 208.415L216.454 208.206C215.622 198.526 214.717 188.873 212.704 179.358L210.223 180.234C212.256 189.713 214.072 199.34 211.075 208.83L213.598 208.642C210.147 198.178 209.963 186.964 208.188 176.147L205.566 176.356C207.366 187.042 210.373 198.685 207.025 209.359L209.549 209.171C205.77 199.841 205.751 189.381 204.91 179.468L202.288 179.677C203.087 189.106 203.744 198.996 200.682 208.119L203.206 207.932C200.588 198.189 200.864 187.459 201.353 177.452L198.73 177.661C200.556 188.774 200.713 200.337 196.259 210.863L198.72 211.698C199.43 200.89 199.083 189.753 201.08 179.073C201.402 177.407 198.825 176.89 198.501 178.569C196.525 188.79 194.52 199.018 191.32 208.931L193.899 209.435L199.816 178.827L197.223 178.674C196.941 186.706 194.165 194.496 191.41 201.964L193.763 203.145C196.884 193.993 198.736 184.484 200.57 174.998C200.892 173.332 198.315 172.815 197.991 174.494L197.996 174.536Z" fill="#FAD3D5"/>
<path d="M198.996 218.536C197.211 227.772 195.465 237.084 192.415 246.006C191.882 247.576 194.175 248.787 194.768 247.187C197.711 239.239 200.548 231.066 200.848 222.52C200.898 221.004 198.532 220.937 198.256 222.367L192.338 252.975C192.006 254.694 194.41 255.055 194.917 253.479C198.118 243.566 200.122 233.338 202.098 223.118L199.519 222.614C197.509 233.29 197.87 244.43 197.159 255.238C197.072 256.596 198.99 257.584 199.62 256.073C204.27 245.096 204.267 233.086 202.36 221.481C202.081 219.779 199.821 220.004 199.738 221.69C199.241 231.954 199.041 242.848 201.733 252.837C202.12 254.261 203.895 253.75 204.256 252.65C207.382 243.335 206.716 233.143 205.905 223.494C205.758 221.805 203.139 222.001 203.283 223.703C204.138 233.823 204.189 244.535 208.063 254.074C208.585 255.361 210.213 255.121 210.586 253.887C214.008 242.969 211.005 231.095 209.17 220.17C208.896 218.51 206.266 218.691 206.548 220.379C208.36 231.422 208.569 242.859 212.099 253.542C212.541 254.895 214.262 254.523 214.623 253.355C217.748 243.414 215.797 233.297 213.673 223.379C213.318 221.716 210.848 222.609 211.192 224.255C213.157 233.53 214.003 242.995 214.803 252.423C214.952 254.168 217.348 253.874 217.425 252.214C217.665 246.638 216.44 241.02 215.184 235.628C214.07 230.904 212.696 226.265 211.394 221.599L208.913 222.476C213.339 234.124 217.241 246.106 218.899 258.507C219.115 260.183 221.745 260.003 221.521 258.298C219.841 245.661 215.915 233.457 211.41 221.588C210.801 219.985 208.476 220.824 208.929 222.465C211.606 232.111 215.251 242.272 214.831 252.415L217.454 252.206C216.622 242.526 215.717 232.873 213.704 223.358L211.223 224.234C213.256 233.713 215.072 243.34 212.075 252.83L214.598 252.642C211.147 242.178 210.963 230.964 209.188 220.147L206.566 220.356C208.366 231.042 211.373 242.685 208.025 253.359L210.549 253.171C206.77 243.841 206.751 233.381 205.91 223.468L203.288 223.677C204.087 233.106 204.744 242.996 201.682 252.119L204.206 251.932C201.588 242.189 201.864 231.459 202.353 221.452L199.73 221.661C201.556 232.774 201.713 244.337 197.259 254.863L199.72 255.698C200.43 244.89 200.083 233.753 202.08 223.073C202.402 221.407 199.825 220.89 199.501 222.569C197.525 232.79 195.52 243.018 192.32 252.931L194.899 253.435L200.816 222.827L198.223 222.674C197.941 230.706 195.165 238.496 192.41 245.964L194.763 247.145C197.884 237.993 199.736 228.484 201.57 218.998C201.892 217.332 199.315 216.815 198.991 218.494L198.996 218.536Z" fill="#F49800"/>
<path d="M188.453 230.244C188.772 236.21 189.843 242.337 187.625 248.082L190.111 248.568C189.902 243.779 190.656 239.179 191.561 234.498L188.969 234.35C188.99 240.395 189.137 246.547 188.036 252.524C187.723 254.211 190.262 254.707 190.613 253.028C191.314 249.683 192.809 246.563 194.833 243.849L192.566 242.717C191.78 247.064 192.123 251.507 191.337 255.853C191.135 256.969 192.415 257.894 193.358 257.211C195.899 255.382 198.457 252.497 199.21 249.369L196.618 249.22C197.105 252.921 197.94 256.565 198.425 260.279C198.603 261.594 200.253 261.93 200.911 260.765C202.692 257.563 204.751 254.25 205.549 250.608L203.17 251.106C204.341 253.083 204.376 256.117 204.003 258.328C203.836 259.328 204.765 260.184 205.724 259.834C207.045 259.363 207.958 258.413 208.519 257.119C208.909 256.218 209.039 254.359 209.797 253.722L207.83 253.063C208.536 255.912 208.365 258.754 210.749 260.816C211.109 261.121 211.601 261.231 212.051 261.071C213.345 260.594 214.151 259.637 214.467 258.282C214.627 257.597 214.37 255.153 214.858 254.725L213.544 254.812C213.453 254.795 213.621 254.415 213.584 254.958C213.568 255.106 213.684 255.349 213.723 255.494C213.865 256.086 213.95 256.694 214.118 257.292C214.468 258.557 215.078 259.667 216.061 260.52C216.812 261.176 218.026 260.766 218.219 259.772C218.921 256.139 219.768 252.176 218.896 248.51L216.571 249.707C218.536 252.747 220.024 256.162 220.997 259.654C221.368 260.951 223.277 260.719 223.52 259.459C224.535 254.209 225.047 249.327 223.681 244.092L221.199 244.983C222.976 249.349 224.768 253.704 226.545 258.069C227.132 259.505 229.061 259.029 229.096 257.522C229.27 249.561 227.19 241.875 225.742 234.133C225.438 232.491 222.904 232.602 223.12 234.35C224.195 242.624 226.315 250.731 229.081 258.578C229.519 259.806 231.363 259.699 231.604 258.383C233.558 247.715 230.229 237.336 226.916 227.358C226.362 225.682 224.101 226.616 224.434 228.249C226.376 237.629 227.245 247.321 230.841 256.253C231.315 257.433 233.128 257.415 233.364 256.058C235.241 245.788 232.055 235.229 229.939 225.28C229.628 223.815 227.108 224.341 227.388 225.827C228.609 232.368 230.267 238.816 231.488 245.357C231.721 246.599 233.314 247.09 233.974 245.843C235.902 242.16 235.356 238.558 234.839 234.59C234.613 232.895 231.996 233.085 232.217 234.807C232.672 238.254 233.314 241.434 231.621 244.667L234.108 245.153C232.887 238.612 231.229 232.164 230.008 225.623L227.457 226.171C229.462 235.645 232.566 245.788 230.786 255.554L233.31 255.359C229.727 246.43 228.861 236.724 226.903 227.356L224.421 228.247C227.579 237.767 230.886 247.702 229.014 257.877L231.537 257.682C228.85 250.057 226.764 242.19 225.716 234.128L223.094 234.345C224.542 242.086 226.62 249.786 226.448 257.733L228.999 257.186C227.222 252.821 225.429 248.466 223.653 244.101C223.003 242.501 220.736 243.324 221.17 244.992C222.399 249.745 221.832 254.217 220.914 258.964L223.438 258.769C222.399 255.057 220.791 251.426 218.713 248.199C217.851 246.861 216.04 247.98 216.388 249.396C217.133 252.528 216.215 256.16 215.615 259.263L217.773 258.515C216.142 257.095 216.832 252.689 214.364 252.317C212.987 252.103 212.336 253.723 212.163 254.831C211.989 255.94 212.422 258.102 211.169 258.573L212.471 258.827C210.619 257.227 210.847 254.437 210.294 252.196C210.097 251.4 208.941 251.023 208.328 251.536C206.594 252.959 206.977 256.57 204.856 257.339L206.577 258.845C207.066 255.899 206.896 252.233 205.349 249.619C204.737 248.591 203.205 249.035 202.969 250.117C202.235 253.497 200.214 256.611 198.558 259.59L201.044 260.075C200.557 256.375 199.722 252.73 199.237 249.016C199.038 247.533 197.003 247.369 196.646 248.868C196.072 251.274 193.852 253.606 191.907 255.001L193.927 256.359C194.714 252.013 194.37 247.57 195.157 243.224C195.382 241.988 193.698 240.985 192.89 242.093C190.585 245.206 188.868 248.71 188.062 252.529L190.639 253.033C191.784 246.831 191.633 240.416 191.617 234.138C191.616 232.61 189.305 232.544 189.026 233.989C188.075 238.908 187.313 243.755 187.533 248.766C187.586 250.028 189.534 250.505 190.02 249.251C192.434 242.981 191.466 236.53 191.116 230.022C191.028 228.312 188.409 228.516 188.494 230.239L188.453 230.244Z" fill="#F49800"/>
<path d="M198.421 147.762C202.895 147.798 209.305 148.212 212.363 152.11C213.952 154.139 213.671 156.724 211.767 158.373C209.29 160.515 205.611 160.113 202.837 158.842C198.645 156.922 194.492 153.099 192.902 148.677C190.006 140.686 195.973 132.791 202.436 128.76C208.899 124.729 218.845 123.386 224.295 130.323C227.321 134.173 228.925 139.519 228.253 144.407C227.649 148.731 225.323 152.566 222.071 155.396C216.336 160.394 206.328 163.539 199.455 159.02C195.939 156.71 194.529 152.625 194.416 148.547C194.301 144.193 195.005 139.353 197.87 135.911C202.599 130.249 211.172 130.357 217.41 133.144C223.321 135.784 228.489 141.703 225.541 148.47C223.742 152.615 219.909 156.472 215.661 158.021C211.636 159.475 207.347 158.692 203.665 156.68C196.389 152.686 190.414 143.736 191.043 135.182C191.703 126.112 201.784 120.327 210.193 122.768C217.514 124.9 221.494 132.938 221.626 140.169C221.787 148.946 215.971 155.853 207.379 157.323C198.323 158.867 187.948 156.207 182.418 148.416C178.412 142.779 177.226 134.709 180.984 128.624C185.619 121.114 195.29 121.34 202.736 123.676C211.738 126.508 222.882 133.319 221.18 144.386C219.882 152.864 212.08 159.301 204.005 160.926C199.173 161.893 194.158 161.188 189.738 159.032C185.055 156.755 180.396 152.655 178.324 147.753C174.82 139.45 180.46 131.546 187.364 127.285C194.858 122.658 205.061 121.119 212.928 125.723C217.163 128.2 220.545 132.615 221.94 137.343C223.255 141.78 222.211 146.471 219.455 150.127C214.236 157.054 203.629 161.032 195.474 157.279C187.319 153.526 183.855 140.983 187.616 132.697C190.689 125.914 197.925 122.268 205.045 121.624C211.76 121.025 219.608 122.972 223.443 129.002C228.403 136.777 224.129 148.07 218.828 154.501C213.527 160.931 204.806 163.214 197.29 159.05C190.405 155.23 186.784 147.248 188.764 139.549C190.104 134.311 193.705 129.748 197.831 126.43C200.872 123.985 204.809 121.716 208.864 122.508C216.052 123.913 218.567 133.164 218.703 139.46C218.889 147.472 215.338 156.156 207.224 158.764C203.857 159.853 199.084 160.446 195.831 158.683C193.42 157.373 192.631 154.743 192.725 152.135C192.967 145.087 197.914 137.873 203.264 133.665C206.004 131.506 209.28 129.822 212.823 129.731C216.629 129.622 220.417 131.724 222.59 134.83C227.797 142.242 220.496 150.963 213.987 154.38C211.144 155.873 207.158 157.129 204.139 155.425C200.457 153.344 200.33 147.778 201.035 144.134C201.614 141.14 203.296 138.374 206.5 137.914C209.283 137.51 212.207 138.713 214.326 140.475C216.444 142.237 218.041 144.721 217.642 147.49C217.014 151.726 212.335 154.167 208.828 155.626C207.046 156.364 204.269 157.513 202.426 156.3C201.191 155.481 201.066 153.724 201.178 152.371C201.565 147.964 204.501 143.519 208.309 141.348L206.466 140.988C208.217 144.3 209.056 148.369 207.327 151.868C205.599 155.366 202.182 156.858 198.599 157.23L200.001 158.81C200.431 156.584 200.756 153.21 202.713 151.709C204.67 150.207 207.772 150.346 210.001 150.053L208.642 149.168C209.783 153.585 208.405 157.813 204.425 160.17C200.444 162.527 195.73 162.458 191.557 161.147L191.402 163.785C198.142 163.411 204.831 162.449 211.593 162.382L211.385 159.715C209.356 160.033 207.55 160.822 205.783 161.838C204.17 162.76 202.634 163.917 200.846 164.475C199.218 164.982 200.096 167.505 201.725 166.998C205.23 165.896 207.872 162.975 211.593 162.382C213.27 162.118 213.11 159.695 211.385 159.715C204.622 159.782 197.936 160.73 191.193 161.118C189.592 161.203 189.698 163.342 191.039 163.755C196.113 165.352 202.106 165.024 206.585 161.926C211.065 158.827 212.492 153.496 211.139 148.268C210.996 147.731 210.326 147.311 209.779 147.383C206.948 147.751 203.403 147.787 201.04 149.621C198.514 151.589 197.947 155.37 197.381 158.298C197.22 159.133 197.932 159.973 198.784 159.878C203.284 159.424 207.611 157.258 209.683 153.043C211.754 148.828 210.844 143.645 208.641 139.488C208.293 138.815 207.367 138.799 206.798 139.128C202.345 141.667 198.972 146.962 198.522 152.113C198.341 154.182 198.684 156.504 200.27 157.983C202.086 159.685 204.711 159.607 206.978 159.046C211.712 157.881 217.714 154.75 219.657 149.932C221.025 146.528 220.062 142.889 217.749 140.154C213.22 134.814 203.608 132.591 199.681 139.827C197.41 144.017 197.337 150.328 199.647 154.492C201.724 158.239 205.93 159.378 209.906 158.601C218.352 156.965 228.02 148.226 226.919 138.866C226.347 134.052 222.746 129.993 218.391 128.138C214.566 126.51 210.317 126.794 206.575 128.482C198.88 131.956 192.759 139.945 190.663 148.102C189.804 151.413 189.645 155.274 191.568 158.262C193.753 161.659 197.948 162.506 201.711 162.334C206.718 162.089 211.474 160.599 215.095 156.989C218.343 153.76 220.232 149.289 220.963 144.798C222.282 136.777 220.476 125.974 213.05 121.346C203.674 115.499 192.549 125.837 188.286 133.612C183.617 142.146 185.126 152.644 192.598 159.013C199.634 165.022 209.945 165.608 217.267 159.751C222.034 155.939 225.111 150.338 226.939 144.563C228.382 139.991 228.842 134.856 227.056 130.313C223.946 122.376 215.344 118.88 207.358 118.845C199.015 118.823 190.201 122.573 185.948 130.089C180.821 139.152 183.594 153.073 192.509 158.693C201.424 164.313 213.948 160.518 220.538 153.006C223.903 149.167 225.792 144.064 225.005 138.946C224.153 133.389 220.634 127.985 216.15 124.675C207.527 118.328 195.696 119.453 186.758 124.554C178.68 129.163 171.984 138.36 175.561 147.983C177.647 153.589 182.598 158.296 187.779 161.042C192.959 163.787 198.435 164.65 203.914 163.659C213.29 161.944 222.448 154.576 223.819 144.654C225.558 132.055 213.66 124.339 203.24 121.065C194.39 118.291 183.493 118.897 178.381 127.812C174.237 135.046 175.914 144.601 180.977 150.925C187.81 159.466 200.369 162.347 210.617 159.304C220.025 156.508 225.233 147.447 224.128 137.826C223.139 129.231 217.216 120.579 208.112 119.68C202.873 119.151 197.322 121.009 193.41 124.562C189.779 127.867 188.107 132.628 188.396 137.497C188.965 147.275 196.316 157.237 205.515 160.465C210.248 162.133 215.312 161.734 219.623 159.084C223.933 156.433 227.677 151.981 228.783 147.109C230.714 138.604 223.21 132.118 215.927 129.788C208.002 127.249 198.328 128.947 194.097 136.838C191.638 141.431 191.108 147.708 192.265 152.747C193.291 157.196 196.261 160.912 200.513 162.595C209.385 166.103 220.479 161.932 226.389 154.823C229.686 150.847 231.414 145.795 230.995 140.612C230.576 135.428 228.033 129.431 223.744 126.035C216.026 119.948 205.046 122.89 198.043 128.657C191.039 134.425 186.485 144.838 192.363 153.371C195.276 157.598 200.239 161.607 205.41 162.425C209.016 162.992 213.003 161.874 215.022 158.638C216.825 155.745 216.165 152.234 213.898 149.824C210.042 145.743 203.486 145.163 198.236 145.113C196.531 145.096 196.74 147.763 198.444 147.78L198.421 147.762Z" fill="#FFE4C4"/>
<path d="M155.807 228.892C156.074 228.944 156.341 228.996 156.589 229.072L156.253 228.951C156.333 228.967 156.394 229.007 156.469 229.049L156.175 228.853C156.175 228.853 156.236 228.893 156.258 228.925L156.029 228.673C156.029 228.673 156.062 228.72 156.072 228.736L155.924 228.431C155.924 228.431 155.951 228.505 155.959 228.535L155.887 228.189C155.901 228.261 155.899 228.343 155.897 228.426L155.91 228.069C155.902 228.33 155.837 228.594 155.785 228.86C155.749 229.046 155.745 229.211 155.808 229.389C155.83 229.559 155.895 229.724 155.992 229.867C156.087 230.024 156.218 230.133 156.368 230.217C156.513 230.328 156.679 230.402 156.852 230.436L157.21 230.451C157.45 230.429 157.657 230.359 157.862 230.233C158.151 230.027 158.36 229.736 158.429 229.377C158.47 229.164 158.511 228.951 158.553 228.738C158.589 228.551 158.585 228.357 158.594 228.165C158.59 228.04 158.568 227.939 158.549 227.825C158.499 227.58 158.453 227.461 158.305 227.225C158.221 227.084 158.105 226.965 157.985 226.872C157.864 226.779 157.706 226.666 157.554 226.594C157.388 226.52 157.203 226.471 157.021 226.407C156.797 226.35 156.557 226.303 156.33 226.258C156.143 226.222 155.977 226.217 155.799 226.279C155.629 226.301 155.464 226.365 155.32 226.462C155.164 226.555 155.055 226.686 154.971 226.836C154.86 226.98 154.786 227.145 154.753 227.318L154.739 227.675C154.762 227.914 154.833 228.121 154.96 228.326C155.167 228.615 155.46 228.824 155.82 228.894L155.807 228.892Z" fill="#FFE4C4"/>
<path d="M235.698 142.94C233.133 155.716 222.794 165.941 209.837 167.944C196.784 169.954 183.668 163.44 177.316 151.853C170.963 140.266 172.823 125.451 181.681 115.724C190.468 106.078 204.773 102.859 216.858 107.896C230.564 113.602 238.4 128.398 235.7 142.926C235.379 144.588 237.98 145.11 238.29 143.433C240.907 129.404 234.492 114.981 222.202 107.637C209.912 100.293 193.936 101.624 183.075 110.756C172.186 119.896 168.003 135.289 172.99 148.672C177.945 162.009 190.967 170.976 205.159 170.939C221.237 170.905 235.156 159.085 238.29 143.433C238.611 141.771 236.037 141.255 235.7 142.926L235.698 142.94Z" fill="#565656"/>
<path d="M193.796 170.481C189.71 191.686 187.487 213.256 184.219 234.594C183.432 239.723 182.618 244.847 181.673 249.946C181.466 251.022 181.273 252.087 181.052 253.16C180.877 254.066 180.299 255.437 180.603 256.327C180.742 256.735 181.114 257.067 181.412 257.356C182.915 258.808 184.86 259.869 186.734 260.739C191.139 262.812 195.95 264.051 200.715 264.969C203.942 265.6 207.229 266.201 210.523 266.273C213.818 266.345 217.245 265.939 220.551 265.319C227.305 264.039 233.94 261.904 240.139 258.922C240.619 258.689 241.14 258.178 241.013 257.567C236.348 233.603 223.473 212.174 217.612 188.548C216.012 182.107 215.011 175.526 215.042 168.887C215.044 167.185 212.404 167.391 212.402 169.093C212.362 180.918 215.539 192.513 219.415 203.592C223.554 215.417 228.635 226.881 232.864 238.668C235.102 244.906 237.1 251.261 238.373 257.773L239.248 256.419C234.522 258.682 229.536 260.458 224.453 261.752C219.37 263.046 214.043 263.979 208.829 263.559C203.614 263.139 198.337 261.985 193.375 260.471C190.534 259.602 187.684 258.501 185.159 256.918C184.503 256.504 183.885 256.042 183.289 255.531C183.16 255.424 183.004 255.176 182.854 255.106C182.754 255.059 183.084 255.396 182.91 255.171L183.113 256.164C187.844 233.451 190.18 210.242 193.633 187.306C194.456 181.857 195.304 176.413 196.349 171.007C196.671 169.341 194.076 168.82 193.751 170.499L193.796 170.481Z" fill="#565656"/>
<path d="M211.97 188.348C214.481 192.127 217.355 195.866 221.013 198.588C222.748 199.874 224.616 200.894 226.685 201.508C228.56 202.069 230.366 202.771 232.34 202.892C235.125 203.06 237.524 202.038 239.859 200.571C240.808 199.976 241.731 199.307 242.781 198.899C244.052 198.408 245.198 198.563 246.503 198.748C249.486 199.164 256.91 200.448 256.65 204.619C256.482 207.332 253.361 209.397 250.823 209.793C245.58 210.594 243.6 205.204 243.2 200.834C243.042 199.103 240.39 199.309 240.545 201.054C240.989 205.906 242.999 211.566 248.338 212.457C252.02 213.079 256.114 211.217 258.167 208.023C260.538 204.32 258.688 200.516 255.19 198.523C252.258 196.849 248.653 196.186 245.335 195.872C242.569 195.61 240.386 197.065 238.13 198.477C236.808 199.306 235.429 199.998 233.878 200.169C231.474 200.437 229.116 199.475 226.878 198.745C221.322 196.92 217.316 191.539 214.165 186.826C213.213 185.386 210.991 186.902 211.957 188.345L211.97 188.348Z" fill="#565656"/>
<path d="M219.762 262.979C221.716 270.037 222.301 277.381 222.942 284.641C223.027 285.602 224.181 286.218 224.985 285.634C228.617 283.026 233.963 281.643 237.726 284.738C238.368 285.269 238.818 285.748 239.214 286.499C239.42 286.904 239.606 287.763 239.593 288.044C239.525 288.745 239.337 289.154 238.833 289.662C238.281 290.202 237.412 290.638 236.574 290.906C232.658 292.178 228.079 291.417 224.148 290.663L224.989 291.218C223.538 288.912 224.24 286.054 224.72 283.572C225.039 281.922 222.457 281.404 222.136 283.067C221.558 286.056 220.866 289.563 222.594 292.328C223.39 293.603 225.282 293.555 226.654 293.742C228.118 293.947 229.583 294.072 231.064 294.119C234.323 294.216 238.512 293.915 240.878 291.343C242.543 289.524 242.572 286.994 241.348 284.92C240.015 282.637 237.481 281.17 234.949 280.608C230.911 279.711 226.808 281.107 223.538 283.449L225.581 284.442C224.917 276.948 224.263 269.402 222.258 262.118C221.814 260.494 219.331 261.357 219.775 262.981L219.762 262.979Z" fill="#565656"/>
<path d="M194.391 262.896C194.966 270.202 194.144 277.527 193.393 284.78C193.294 285.74 194.309 286.566 195.209 286.146C199.269 284.28 204.777 283.946 207.88 287.707C208.409 288.351 208.759 288.907 209.005 289.722C209.131 290.158 209.15 291.038 209.083 291.311C208.883 291.987 208.622 292.352 208.03 292.754C207.387 293.179 206.45 293.441 205.577 293.544C201.494 294.043 197.145 292.419 193.432 290.925L194.151 291.631C193.167 289.088 194.398 286.416 195.34 284.071C195.967 282.511 193.533 281.507 192.901 283.08C191.766 285.905 190.421 289.216 191.59 292.263C192.129 293.667 193.994 293.982 195.305 294.429C196.702 294.911 198.117 295.314 199.561 295.643C202.739 296.363 206.906 296.87 209.717 294.797C211.697 293.33 212.206 290.85 211.399 288.579C210.525 286.081 208.318 284.156 205.94 283.119C202.149 281.464 197.858 282.05 194.205 283.723L196.02 285.09C196.793 277.603 197.586 270.067 197.003 262.529C196.876 260.849 194.276 261.221 194.403 262.901L194.391 262.896Z" fill="#565656"/>
<path d="M197.475 156.795C199.456 160.11 201.899 161.45 204.837 162.325C211.513 164.315 218.596 161.939 222.209 153.24C222.869 151.658 220.757 150.515 220.097 152.096C218.606 155.669 217.121 158.097 213.189 159.742C209.256 161.387 202.192 159.802 199.483 155.256C198.643 153.851 196.635 155.389 197.475 156.795Z" fill="#565656"/>
<path d="M186.74 212.745C191.628 217.461 199.061 218.967 205.626 218.835C211.691 218.713 219.06 217.067 222.828 211.846C223.804 210.486 221.854 208.744 220.862 210.114C217.464 214.814 210.875 216.114 205.431 216.223C199.542 216.338 192.844 215.002 188.466 210.777C187.255 209.597 185.526 211.577 186.74 212.745Z" fill="#565656"/>
<path d="M226.884 218.885C225.08 220.381 221.926 220.529 219.538 219.647C215.905 218.311 214.358 214.948 214.02 211.311C215.293 211.169 216.54 210.874 217.822 210.841C220.564 210.773 222.772 211.938 224.96 213.493C226.142 214.336 227.508 215.556 227.756 216.843C227.916 217.596 227.62 218.274 226.884 218.885Z" fill="white"/>
<path fill-rule="evenodd" clip-rule="evenodd" d="M191.489 196.466C193.77 199.93 196.991 202.838 200.323 205.257C201.848 206.377 203.54 207.644 205.322 208.314C207.105 208.984 208.995 208.931 210.778 208.817C214.167 208.609 217.806 207.622 221.167 208.48C223.602 209.105 226.231 210.877 228.063 212.584C230.466 214.826 231.48 218.29 228.789 220.757C226.354 222.981 222.497 223.267 219.443 222.432C214.454 221.067 211.457 216.394 211.057 211.474C211.057 211.474 208.642 211.529 207.876 211.477C203.967 211.208 200.755 208.986 197.74 206.643C194.437 204.095 191.402 201.15 189.1 197.649C188.16 196.208 190.565 195.036 191.499 196.45L191.489 196.466ZM226.884 218.885C225.08 220.381 221.926 220.529 219.538 219.647C215.905 218.311 214.358 214.948 214.02 211.311C215.293 211.169 216.54 210.874 217.822 210.841C220.564 210.773 222.772 211.938 224.96 213.493C226.142 214.336 227.508 215.556 227.756 216.843C227.916 217.596 227.62 218.274 226.884 218.885Z" fill="#565656"/>
<path d="M216.882 141.393C221.486 141.961 222.129 137.003 217.488 136.43C212.848 135.857 212.242 140.82 216.882 141.393Z" fill="#565656"/>
<path d="M199.613 142C204.113 140.872 202.945 136.01 198.409 137.147C193.874 138.284 195.077 143.137 199.613 142Z" fill="#565656"/>
<path d="M183.953 116.012C182.495 121.929 180.615 127.151 176.352 131.61L178.259 133.554C183.735 126.568 189.278 119.651 195.476 113.303L193.365 111.637C189.251 118.526 183.394 124.498 176.638 128.693L178.273 130.846C184.143 123.373 190.177 116.026 196.811 109.248L194.563 107.914C191.948 115.623 186.023 121.817 179.294 125.984L181.133 127.859C185.437 121.526 190.095 113.748 197.056 110.123C204.016 106.497 211.793 110.609 217.678 114.859L218.713 112.345C213.047 111.011 207.149 112.331 201.51 110.998C199.957 110.636 199.262 112.609 200.475 113.512C203.989 116.137 208.293 117.776 212.379 119.22C215.485 120.317 218.999 121.72 222.336 121.804C223.834 121.845 224.202 119.429 222.69 119.109C216.479 117.762 211.371 114.025 205.8 111.15L204.765 113.664C210.84 116.151 216.942 118.762 223.303 120.415C224.107 120.623 225.06 119.998 225.006 119.095C224.924 117.803 224.529 116.734 223.535 115.873C222.663 115.123 221.478 114.845 220.633 114.067C219.339 112.887 217.432 114.831 218.726 116.012C219.762 116.956 222.213 117.498 222.309 119.095L224.011 117.776C217.65 116.123 211.562 113.512 205.473 111.025C204.057 110.442 203.076 112.845 204.438 113.539C210.213 116.526 215.539 120.387 221.968 121.776L222.322 119.081C219.258 119.012 215.934 117.609 213.087 116.595C209.205 115.22 205.174 113.664 201.823 111.164L200.788 113.678C206.454 115.012 212.352 113.692 217.991 115.026C219.53 115.387 220.266 113.4 219.026 112.512C212.42 107.747 204.261 103.733 196.293 107.47C192.942 109.039 190.136 111.706 187.698 114.484C184.416 118.234 181.583 122.387 178.777 126.512C177.987 127.665 179.512 129.082 180.615 128.387C187.971 123.818 194.277 117.067 197.124 108.664C197.573 107.331 195.789 106.386 194.876 107.331C188.257 114.123 182.209 121.456 176.339 128.929C175.44 130.068 176.57 131.957 177.973 131.082C185.11 126.637 191.308 120.331 195.666 113.039C196.47 111.706 194.631 110.261 193.555 111.373C187.358 117.72 181.828 124.637 176.339 131.623C175.276 132.971 177.006 134.86 178.245 133.568C182.822 128.79 184.974 123.123 186.541 116.762C186.963 115.039 184.361 114.317 183.939 116.026L183.953 116.012Z" fill="#FDEE63"/>
<path d="M174.934 139.709C180.288 135.514 185.82 131.543 190.719 126.803C195.618 122.063 200.036 116.512 201.467 109.745L199.196 110.36C208.169 120.483 221.229 127.992 234.702 129.18C236.45 129.334 236.436 126.566 234.702 126.412C221.959 125.279 209.587 117.953 201.123 108.403C200.449 107.648 199.059 108.011 198.852 109.018C197.476 115.506 193.086 120.763 188.435 125.195C183.783 129.628 178.609 133.375 173.572 137.332C172.209 138.408 173.572 140.813 174.948 139.723L174.934 139.709Z" fill="#565656"/>
<path d="M186.231 90.1456C189.63 92.243 193.142 94.2284 196.253 96.5984C199.364 98.9683 202.169 101.744 203.077 105.127L201.636 104.82C207.333 99.7583 215.625 96.0041 224.179 95.4099C225.289 95.333 225.28 96.7172 224.179 96.7941C216.088 97.3604 208.233 101.024 202.859 105.799C202.431 106.176 201.548 105.994 201.417 105.491C200.543 102.247 197.756 99.6185 194.803 97.4023C191.849 95.1862 188.564 93.3126 185.366 91.3341C184.501 90.7958 185.366 89.5934 186.24 90.1387L186.231 90.1456Z" fill="#565656"/>
<path d="M185.657 108.016C179.901 107.876 173.499 108.615 169.048 112.631C165.483 115.852 164.205 120.649 164.037 125.278C163.601 136.935 168.206 148.48 171.126 159.593C172.418 164.502 174.117 170.149 173.204 175.266C172.895 177.009 175.563 177.748 175.885 176.005C176.672 171.613 175.759 167.039 174.776 162.759C173.499 157.181 171.8 151.701 170.298 146.18C168.81 140.714 167.378 135.136 166.929 129.475C166.592 125.069 166.746 120.147 169.414 116.396C172.993 111.348 179.971 110.665 185.671 110.79C187.454 110.832 187.454 108.071 185.671 108.03L185.657 108.016Z" fill="#565656"/>
<path d="M221.481 106.291C227.19 105.547 233.633 105.609 238.477 109.136C242.358 111.964 244.127 116.601 244.776 121.187C246.42 132.735 243.041 144.702 241.293 156.062C240.519 161.079 239.416 166.874 240.856 171.868C241.344 173.569 238.768 174.585 238.266 172.885C237.028 168.599 237.46 163.954 237.992 159.594C238.683 153.912 239.802 148.283 240.722 142.634C241.634 137.041 242.478 131.343 242.336 125.666C242.213 121.248 241.548 116.369 238.505 112.918C234.42 108.274 227.41 108.328 221.755 109.052C219.986 109.281 219.699 106.535 221.468 106.306L221.481 106.291Z" fill="#565656"/>
<path d="M249.565 144.719C251.801 142.385 254.714 140.878 257.995 141.252C261.016 141.592 263.389 144.487 265.448 146.641C270.421 151.83 273.252 159.59 272.612 166.777C272.294 170.364 270.973 173.874 268.529 176.549C265.558 179.794 261.365 181.442 257.101 182.13C256.959 182.153 256.816 182.175 256.673 182.196C256.188 182.269 255.697 182.333 255.202 182.387C250.975 182.851 246.432 182.615 242.441 181.102C241.479 180.737 240.548 180.297 239.662 179.775C239.512 179.687 239.363 179.596 239.215 179.502C234.741 176.673 232.125 171.958 231.637 166.718C230.552 155.145 238.793 143.761 249.683 140.413C251.206 139.946 252.773 139.641 254.345 139.454C255.664 139.299 255.964 141.356 254.651 141.518C243.752 142.824 234.607 152.102 233.683 163.129C233.302 167.727 234.538 172.575 237.898 175.857C239.279 177.205 240.864 178.193 242.57 178.9C243.226 179.172 244.587 179.597 244.587 179.597C247.536 180.428 250.723 180.577 253.767 180.401C257.943 180.166 262.253 179.161 265.585 176.494C268.065 174.503 269.656 171.631 270.284 168.525C271.587 162.163 269.413 155.124 265.596 150.008C262.557 145.929 257.645 141.301 252.805 144.641C252.187 145.068 251.635 145.561 251.107 146.109C250.18 147.074 248.636 145.698 249.557 144.725L249.565 144.719Z" fill="#565656"/>
<path d="M255.202 182.387C250.975 182.851 246.432 182.615 242.441 181.102C237.681 182.486 233.026 184.461 228.629 186.701C225.923 188.085 223.273 189.611 220.825 191.414C218.822 192.889 216.774 194.61 215.497 196.786C214.531 198.447 214.143 200.318 215.044 202.102C216.339 204.659 219.298 206.381 221.857 207.371C228.982 210.134 236.49 207.066 242.107 202.511C248.108 197.646 253.367 190.45 255.032 182.785C255.066 182.628 255.125 182.496 255.202 182.387Z" fill="white"/>
<path d="M249.565 144.719C251.006 143.214 252.729 142.053 254.651 141.518C243.752 142.824 234.607 152.102 233.683 163.129C233.302 167.727 234.538 172.575 237.898 175.857C239.279 177.205 240.864 178.193 242.57 178.9L244.587 179.597C247.536 180.428 250.723 180.577 253.767 180.401C257.943 180.166 262.253 179.161 265.585 176.494C268.065 174.503 269.656 171.631 270.284 168.525C271.587 162.163 269.413 155.124 265.596 150.008C262.557 145.929 257.645 141.301 252.805 144.641C252.187 145.068 251.635 145.561 251.107 146.109C250.18 147.074 248.636 145.698 249.557 144.725L249.565 144.719Z" fill="white"/>
<path d="M245.173 202.57C250.686 197.521 255.442 190.617 257.046 183.207L257.051 183.216C257.151 182.755 256.967 182.402 256.673 182.196C256.188 182.269 255.697 182.333 255.202 182.387C255.125 182.496 255.066 182.628 255.032 182.785C253.367 190.45 248.108 197.646 242.107 202.511C236.49 207.066 228.982 210.134 221.857 207.371C219.298 206.381 216.339 204.659 215.044 202.102C214.143 200.318 214.531 198.447 215.497 196.786C216.774 194.61 218.822 192.889 220.825 191.414C223.273 189.611 225.923 188.085 228.629 186.701C233.026 184.461 237.681 182.486 242.441 181.102C241.479 180.737 240.548 180.297 239.662 179.775C234.415 181.484 229.293 183.842 224.541 186.555C221.763 188.141 219.063 189.94 216.713 192.134C214.901 193.832 213.178 195.927 212.616 198.415C211.174 204.784 218.833 209.093 223.958 210.144C231.838 211.768 239.66 207.619 245.173 202.57Z" fill="#565656"/>
<path d="M243.582 183.494C245.743 185.475 248.259 187.008 250.426 188.998C251.234 189.733 250.323 191.218 249.324 190.632C246.83 189.168 244.201 187.938 241.701 186.466L242.803 184.833C244.622 186.58 246.153 188.877 248.476 189.982C249.661 190.544 248.751 192.197 247.589 191.764C244.595 190.652 241.59 189.522 238.467 188.819L239.11 186.955C241.774 188.572 244.18 190.562 247.11 191.704L246.223 193.486C241.971 191.643 237.617 190.216 232.956 190.119L233.559 188.378C236.24 191.054 239.71 192.699 243.054 194.353C244.037 194.842 243.503 196.562 242.41 196.217C237.409 194.634 232.539 192.629 227.312 191.952L227.955 190.088C232.162 192.562 236.647 194.506 241.118 196.447C242.14 196.886 241.553 198.653 240.474 198.311C235.332 196.676 230.153 194.007 224.676 193.866L225.279 192.125C228.443 195.677 232.823 197.256 237.07 199.09L236.183 200.872C231.721 198.926 227.247 196.999 222.485 195.934L223.343 194.219C227.142 197.5 231.742 199.586 235.88 202.358C236.922 203.049 236.121 204.798 234.993 204.14C231.164 201.9 227.013 200.436 222.828 199.03L223.686 197.315C226.775 200.603 231.025 202.424 234.527 205.189C235.403 205.881 234.397 207.404 233.426 206.823C229.886 204.719 226.048 201.728 221.839 201.336L222.697 199.621C224.778 201.57 226.879 203.495 229.326 204.977C230.41 205.64 229.54 207.411 228.439 206.759C227.281 206.072 226.145 205.346 224.981 204.65C224.319 204.252 223.648 203.86 222.966 203.487C222.712 203.352 222.439 203.242 222.196 203.088C221.683 202.773 221.961 203.241 222.548 202.858L222.976 202.23C222.996 202.168 222.879 201.655 222.896 201.644C222.921 201.628 222.821 201.657 222.979 201.735C223.197 201.833 223.457 202.18 223.633 202.342C224.59 203.197 223.274 204.682 222.322 203.836C221.706 203.288 220.552 202.405 221.197 201.467C221.783 200.603 222.854 201.191 223.552 201.553C225.542 202.587 227.414 203.843 229.331 204.985L228.445 206.767C225.852 205.188 223.599 203.194 221.392 201.123C220.611 200.394 221.307 199.313 222.25 199.408C226.636 199.816 230.635 202.871 234.315 205.064L233.213 206.697C229.703 203.937 225.458 202.125 222.372 198.822C221.768 198.182 222.191 196.752 223.23 197.107C227.57 198.568 231.895 200.063 235.874 202.386L234.987 204.167C230.695 201.304 225.955 199.13 222.02 195.732C221.267 195.081 221.926 193.797 222.879 194.017C227.802 195.109 232.447 197.116 237.056 199.124C238.23 199.632 237.338 201.405 236.169 200.906C231.77 199.002 227.23 197.323 223.956 193.638C223.441 193.06 223.611 191.867 224.56 191.897C230.244 192.046 235.529 194.695 240.863 196.385L240.22 198.249C235.757 196.302 231.273 194.358 227.057 191.89C226.064 191.311 226.581 189.879 227.701 190.026C232.928 190.703 237.797 192.708 242.799 194.291L242.156 196.154C238.66 194.431 235.031 192.686 232.237 189.891C231.668 189.324 231.924 188.135 232.84 188.15C237.853 188.257 242.52 189.745 247.09 191.729C248.278 192.241 247.376 193.961 246.204 193.511C243.265 192.374 240.873 190.387 238.203 188.762C237.279 188.199 237.7 186.637 238.847 186.899C242.131 187.629 245.293 188.836 248.448 190.013L247.561 191.795C245.048 190.597 243.429 188.237 241.464 186.357C240.68 185.605 241.553 184.133 242.565 184.723C245.059 186.186 247.689 187.417 250.188 188.888L249.087 190.522C246.925 188.541 244.41 187.007 242.243 185.018C241.303 184.152 242.614 182.658 243.554 183.524L243.582 183.494Z" fill="#5C92CD"/>
<path d="M254.562 146.936C259.562 152.135 262.947 158.555 266.827 164.581C267.413 165.488 266.146 166.659 265.343 165.858C260.558 161.085 257.447 154.996 253.82 149.362C253.223 148.438 254.475 147.336 255.304 148.085C259.265 151.619 261.64 156.532 263.18 161.552C263.444 162.421 262.551 163.028 261.794 162.741C260.514 162.251 259.383 161.237 258.385 160.338C256.898 159.012 255.524 157.53 254.326 155.933C252.758 153.855 250.183 149.665 253.221 147.587C256.258 145.508 259.846 147.286 262.014 149.646C264.704 152.578 266.631 156.445 267.451 160.35C268.092 163.388 268.246 167.644 265.132 169.475C261.787 171.447 258.264 169.604 256.023 166.982C253.423 163.933 251.553 159.673 251.456 155.617C251.378 152.4 253.306 148.549 257.138 149.267C260.97 149.984 262.569 154.836 263.329 158.022C264.249 161.86 264.735 166.87 262.64 170.463C260.696 173.793 256.498 174.001 253.594 171.883C250.182 169.4 248.452 164.788 247.934 160.723C247.476 157.103 248.055 152.286 251.702 150.413C255.349 148.541 259.096 150.178 261.381 153.292C263.813 156.616 264.907 161.147 264.762 165.254C264.631 169.068 263.26 173.137 259.31 174.485C255.002 175.96 250.102 173.737 246.885 170.949C243.668 168.16 241.242 163.742 242.984 159.325C243.639 157.667 244.749 155.995 246.539 155.43C248.073 154.949 249.713 155.406 251.043 156.194C254.415 158.207 256.922 162.016 258.009 165.745C258.5 167.425 258.733 169.262 258.265 170.988C258.127 171.492 257.635 171.873 257.093 171.753C255.62 171.425 254.254 170.6 252.967 169.842C251.172 168.777 249.425 167.621 247.656 166.503C245.887 165.386 244.273 164.38 242.48 163.502C241.804 163.174 241.097 162.854 240.361 162.672C239.883 162.558 239.353 162.549 239.189 162.609C239.164 162.625 239.074 162.707 239.06 162.74C238.991 162.892 238.945 163.041 238.924 163.303C238.863 164.242 239.137 165.2 239.398 166.083C240.26 168.965 241.488 171.88 243.357 174.259C245.227 176.637 248.474 178.329 250.843 175.491C252.699 173.261 252.795 169.706 250.8 167.575C249.044 165.704 243.675 163.693 242.714 167.421C241.754 171.15 245.502 173.912 248.694 174.266C251.41 174.564 254.345 173.69 256.756 172.447C258.237 171.681 259.84 170.587 260.444 168.962C261.416 166.338 259.237 163.795 257.187 162.482C254.82 160.973 251.461 160.195 248.946 161.885C245.434 164.261 245.031 169.792 248.158 172.533C251.595 175.533 257.653 175.661 260.996 172.342C264.34 169.022 264.649 163.457 261.874 159.694C259.602 156.619 255.488 154.286 251.569 154.667C246.541 155.157 245.902 160.581 246.468 164.627C247.198 169.904 250.45 175.345 256.469 174.896C262.02 174.479 266.126 168.803 266.203 163.485C266.277 158.275 263.114 154.243 258.009 153.232C253.559 152.35 248.362 153.719 245.335 157.27C242.308 160.821 241.78 167.523 245.978 170.393C250.177 173.262 255.99 171.906 259.763 169.252C263.891 166.356 265.77 160.677 263.005 156.268C260.431 152.172 254.961 149.765 250.171 150.679C244.775 151.704 241.987 157.1 242.215 162.243C242.635 171.759 253.158 180.514 262.365 175.308C266.469 172.983 269.87 168.998 269.504 164.064C269.194 159.768 266.34 156.032 263.038 153.5C259.453 150.75 254.343 148.772 249.747 149.488C244.57 150.299 239.573 153.823 237.339 158.62C236.334 160.768 235.98 163.224 236.701 165.5C237.576 168.255 239.856 170.294 242.334 171.624C246.13 173.668 251.261 172.637 255.131 171.259C259.002 169.88 263.894 167.171 265.002 162.824C266.004 158.903 263.162 155.017 259.52 153.82C252.129 151.389 242.766 157.55 243.597 165.673C244.087 170.432 247.489 174.887 252.248 175.935C255.938 176.746 260.537 175.483 262.362 171.876C264.361 167.931 261.841 162.592 258.255 160.541C254.945 158.642 250.392 158.798 247.211 161.005C245.977 161.858 244.945 163.136 244.787 164.659C244.588 166.636 245.821 168.435 247.114 169.793C247.982 170.694 246.674 172.188 245.8 171.278C244.114 169.515 242.656 167.294 242.818 164.726C242.953 162.613 244.19 160.823 245.847 159.575C249.526 156.794 255.094 156.532 259.05 158.732C263.531 161.228 266.466 167.468 264.279 172.412C262.311 176.846 256.97 178.712 252.47 177.992C246.685 177.07 242.526 171.995 241.698 166.345C240.983 161.497 243.376 156.927 247.352 154.165C251.108 151.559 256.201 150.506 260.526 152.098C264.851 153.689 268.174 158.575 266.898 163.327C265.473 168.602 259.819 171.808 254.993 173.385C249.834 175.072 244.209 175.466 239.621 172.27C237.068 170.493 235.05 167.939 234.499 164.819C234.002 162.041 234.711 159.176 236.096 156.732C239.063 151.504 245.246 147.384 251.325 147.416C256.844 147.447 262.282 149.803 266.202 153.624C269.72 157.045 272.228 161.942 271.298 166.988C270.276 172.556 264.92 177.273 259.534 178.481C254.149 179.689 248.397 177.325 244.75 173.172C241.103 169.018 239.178 162.923 240.832 157.357C241.704 154.432 243.408 151.744 246.074 150.158C248.599 148.651 251.6 148.266 254.463 148.717C260.014 149.591 265.553 153.799 266.251 159.653C266.983 165.817 262.316 171.03 256.778 172.942C251.745 174.677 244.799 174.169 242.106 168.931C239.414 163.693 241.696 156.852 246.531 153.612C251.019 150.61 257.39 150.061 262.151 152.623C267.924 155.72 269.335 162.659 267.05 168.519C264.903 174.005 259.148 178.177 253.167 176.566C246.541 174.784 243.888 167.212 244.334 160.918C244.512 158.411 245.344 155.902 247.378 154.278C249.09 152.912 251.315 152.524 253.442 152.722C258.25 153.181 262.869 156.499 264.842 160.881C267.121 165.939 265.087 172.76 260.061 175.427C255.349 177.935 248.556 176.89 245.419 172.439C242.646 168.496 244.266 162.028 248.62 159.813C252.06 158.064 256.241 159.229 259.137 161.446C261.847 163.523 263.76 167.222 261.866 170.519C260.666 172.605 258.475 173.893 256.324 174.801C253.464 175.993 250.184 176.738 247.128 175.987C243.17 175.02 239.515 170.908 240.915 166.608C242.49 161.803 248.935 163.158 251.808 165.781C254.68 168.404 254.966 172.846 252.861 176.055C250.479 179.683 246.181 179.754 243.163 176.943C240.688 174.64 239.216 171.422 238.072 168.287C237.418 166.5 236.343 163.804 237.3 161.913C239.056 158.422 244.969 162.528 246.898 163.707C248.826 164.887 250.862 166.233 252.864 167.471C254.289 168.352 255.865 169.465 257.532 169.833L256.359 170.599C257.193 167.521 255.54 164.078 253.832 161.618C252.545 159.772 249.867 156.548 247.214 157.286C245.822 157.674 245.1 159.211 244.665 160.454C244.071 162.132 244.279 163.855 245.028 165.438C246.663 168.928 250.336 171.667 254.024 172.621C257.213 173.45 260.584 172.717 261.981 169.461C263.377 166.206 262.95 162.448 262.035 159.281C261.219 156.451 259.633 153 256.689 151.869C253.744 150.737 250.844 152.808 250.102 155.732C249.227 159.168 250.051 163.116 251.604 166.222C252.88 168.786 255.261 171.884 258.523 171.258C261.784 170.631 262.091 166.572 262.099 163.986C262.109 160.464 261.377 156.585 259.499 153.585C258.881 152.592 257.977 151.394 256.738 151.209C255.618 151.041 254.503 151.71 253.976 152.681C252.568 155.293 253.853 159.107 254.951 161.562C256.049 164.018 258.186 167.677 261.176 168.27C263.805 168.803 265.618 167.039 265.848 164.521C266.154 161.291 264.883 157.848 263.39 155.058C262.135 152.728 260.228 149.664 257.527 148.836C256.577 148.544 255.002 148.613 254.207 149.298C253.412 149.983 253.861 151.158 254.192 151.948C255.378 154.796 257.824 157.295 260.129 159.259C260.898 159.916 261.723 160.621 262.677 160.993L261.29 162.182C259.849 157.5 257.687 152.898 253.984 149.598L255.468 148.321C258.985 153.802 261.999 159.778 266.648 164.414L265.163 165.691C261.386 159.823 258.115 153.506 253.242 148.449C252.374 147.548 253.683 146.054 254.556 146.963L254.562 146.936Z" fill="#FCD2A0"/>
<path d="M255.256 158.227C254.139 158.956 253.054 157.276 254.171 156.547C255.287 155.818 256.372 157.498 255.256 158.227Z" fill="#565656"/>
<path d="M245.256 161.227C244.139 161.956 243.054 160.276 244.171 159.547C245.287 158.818 246.372 160.498 245.256 161.227Z" fill="#565656"/>
<path d="M252.293 174.71C249.143 175.801 248.496 173.908 251.645 172.818C254.795 171.727 255.443 173.62 252.293 174.71Z" fill="#565656"/>
<path d="M272.368 168.008C272.517 168.021 272.661 168.031 272.808 168.036C272.875 168.038 272.942 168.041 273.007 168.035C272.906 168.038 273.002 168.032 273.017 168.04C273.061 168.039 273.105 168.038 273.152 168.03C273.415 168.014 273.683 167.977 273.95 167.916C274.013 167.901 274.077 167.887 274.14 167.872C274.161 167.867 274.186 167.855 274.212 167.853C274.3 167.827 274.108 167.887 274.196 167.86C274.316 167.819 274.431 167.775 274.55 167.725C274.652 167.683 274.753 167.632 274.857 167.574C274.901 167.549 274.947 167.518 274.996 167.495C275.077 167.458 274.891 167.568 274.961 167.516C274.991 167.493 275.024 167.478 275.054 167.454C275.237 167.326 275.399 167.179 275.57 167.037C275.627 166.987 275.51 167.094 275.515 167.096C275.533 167.074 275.556 167.054 275.575 167.04C275.615 166.997 275.652 166.961 275.688 166.916C275.76 166.834 275.831 166.744 275.893 166.657C275.921 166.616 275.95 166.583 275.977 166.541C276.078 166.403 275.911 166.658 275.97 166.554C276.023 166.462 276.084 166.367 276.132 166.273C276.176 166.185 276.224 166.09 276.264 166C276.276 165.975 276.351 165.791 276.302 165.925C276.253 166.058 276.321 165.863 276.332 165.829C276.396 165.641 276.438 165.448 276.476 165.262C276.511 165.082 276.467 165.353 276.479 165.256C276.483 165.211 276.493 165.168 276.497 165.123C276.507 165.017 276.514 164.918 276.516 164.816C276.519 164.723 276.518 164.627 276.514 164.538C276.508 164.377 276.524 164.614 276.515 164.523C276.509 164.472 276.504 164.422 276.495 164.378C276.466 164.189 276.41 164.018 276.373 163.833C276.421 163.96 276.37 163.815 276.373 163.833C276.357 163.792 276.338 163.743 276.321 163.703C276.282 163.62 276.244 163.537 276.2 163.451C276.18 163.417 276.16 163.383 276.14 163.349C276.131 163.329 276.035 163.2 276.1 163.281C276.16 163.359 276.081 163.256 276.06 163.237C276.03 163.198 275.995 163.156 275.962 163.124C275.906 163.063 275.844 163 275.785 162.946C275.754 162.922 275.725 162.891 275.694 162.867C275.593 162.784 275.801 162.938 275.664 162.852C275.513 162.759 275.363 162.674 275.196 162.612C275.176 162.602 275.151 162.589 275.128 162.586C275.013 162.542 275.225 162.603 275.153 162.598C275.097 162.585 275.045 162.566 274.989 162.554C274.882 162.531 274.773 162.514 274.66 162.504C274.601 162.497 274.534 162.495 274.472 162.495C274.418 162.491 274.282 162.5 274.41 162.494C274.274 162.504 274.139 162.514 274 162.53C273.862 162.546 273.726 162.58 273.586 162.611C273.51 162.627 273.435 162.652 273.355 162.674C273.243 162.712 273.334 162.679 273.355 162.674C273.318 162.687 273.285 162.702 273.251 162.708C272.906 162.824 272.565 162.982 272.228 163.157C271.91 163.318 271.574 163.123 271.507 162.788C271.435 162.427 271.654 162.032 271.972 161.871C273.088 161.287 274.353 160.914 275.436 161.192C276.3 161.414 277.035 161.988 277.405 162.889C278.127 164.628 277.518 167.046 275.869 168.385C274.675 169.356 273.254 169.546 271.998 169.425C271.682 169.398 271.504 169.014 271.6 168.652C271.705 168.262 272.048 168.002 272.36 168.036L272.368 168.008Z" fill="#565656"/>
<path d="M233.722 165.153C233.576 165.171 233.434 165.187 233.291 165.198C233.225 165.203 233.159 165.209 233.096 165.206C233.195 165.205 233.101 165.203 233.086 165.211C233.043 165.212 233 165.213 232.954 165.208C232.698 165.206 232.438 165.184 232.18 165.141C232.119 165.13 232.057 165.119 231.996 165.108C231.975 165.105 231.952 165.096 231.927 165.095C231.842 165.075 232.027 165.121 231.942 165.101C231.826 165.069 231.716 165.034 231.602 164.994C231.504 164.96 231.408 164.917 231.309 164.87C231.267 164.849 231.223 164.822 231.176 164.804C231.099 164.773 231.276 164.865 231.21 164.822C231.181 164.801 231.15 164.789 231.121 164.769C230.948 164.661 230.797 164.534 230.636 164.413C230.583 164.369 230.692 164.461 230.687 164.464C230.671 164.444 230.649 164.427 230.631 164.415C230.594 164.378 230.559 164.347 230.526 164.307C230.459 164.236 230.394 164.157 230.337 164.08C230.312 164.044 230.285 164.015 230.261 163.979C230.168 163.857 230.319 164.082 230.266 163.99C230.219 163.909 230.164 163.824 230.121 163.741C230.082 163.663 230.039 163.579 230.005 163.498C229.993 163.476 229.929 163.312 229.971 163.431C230.012 163.55 229.955 163.376 229.946 163.345C229.891 163.176 229.859 163.003 229.83 162.835C229.804 162.673 229.835 162.917 229.827 162.829C229.825 162.788 229.818 162.75 229.816 162.709C229.811 162.613 229.809 162.523 229.811 162.43C229.812 162.345 229.818 162.258 229.826 162.176C229.838 162.029 229.812 162.247 229.825 162.162C229.833 162.116 229.841 162.07 229.851 162.03C229.888 161.856 229.95 161.697 229.994 161.527C229.942 161.645 229.999 161.511 229.994 161.527C230.013 161.49 230.033 161.444 230.051 161.407C230.093 161.329 230.134 161.251 230.181 161.171C230.202 161.139 230.223 161.108 230.244 161.076C230.253 161.057 230.353 160.935 230.287 161.012C230.225 161.086 230.306 160.988 230.327 160.97C230.358 160.933 230.394 160.893 230.428 160.862C230.486 160.804 230.549 160.744 230.609 160.692C230.641 160.668 230.67 160.64 230.702 160.616C230.804 160.536 230.594 160.686 230.731 160.601C230.883 160.509 231.034 160.425 231.2 160.361C231.22 160.351 231.245 160.338 231.267 160.334C231.381 160.289 231.172 160.354 231.242 160.346C231.297 160.332 231.35 160.312 231.405 160.298C231.51 160.273 231.618 160.252 231.728 160.238C231.786 160.229 231.852 160.224 231.913 160.221C231.965 160.215 232.097 160.218 231.973 160.218C232.105 160.221 232.237 160.223 232.372 160.232C232.507 160.24 232.637 160.265 232.773 160.287C232.847 160.298 232.919 160.317 232.996 160.334C233.104 160.363 233.016 160.338 232.996 160.334C233.032 160.344 233.063 160.356 233.096 160.36C233.428 160.45 233.754 160.579 234.076 160.723C234.379 160.856 234.716 160.662 234.796 160.354C234.883 160.021 234.687 159.672 234.383 159.539C233.319 159.057 232.1 158.775 231.028 159.077C230.174 159.318 229.431 159.875 229.029 160.714C228.245 162.332 228.732 164.509 230.283 165.655C231.407 166.486 232.786 166.595 234.02 166.428C234.329 166.389 234.521 166.03 234.443 165.704C234.358 165.354 234.035 165.133 233.728 165.177L233.722 165.153Z" fill="#565656"/>
<path d="M196.771 197.1C197.594 199.416 198.653 202.127 199.358 204.565C210.09 198.706 213.741 199.526 217.325 200.75C218.399 201.525 217.198 203.264 216.115 202.487C213.158 201.721 209.056 201.01 199.018 206.502C198.427 206.819 197.672 206.391 197.578 205.746C196.73 203.058 197.446 205.171 194.904 198.019C194.453 196.753 196.329 195.837 196.777 197.113L196.771 197.1Z" fill="#565656"/>
<path d="M197.771 189.1C198.594 191.416 199.653 194.127 200.358 196.565C211.09 190.706 214.741 191.526 218.325 192.75C219.399 193.525 218.198 195.264 217.115 194.487C214.158 193.721 210.056 193.01 200.018 198.502C199.427 198.819 198.672 198.391 198.578 197.746C197.73 195.058 198.446 197.171 195.904 190.019C195.453 188.753 197.329 187.837 197.777 189.113L197.771 189.1Z" fill="#565656"/>
<path d="M223.739 176.814C223.409 176.304 223.135 176.392 222.857 176.574C220.427 178.137 221.32 177.485 218.657 178.59C217.933 178.888 218.375 180.184 219.104 179.883C221.872 178.733 221.087 179.355 223.606 177.733C223.606 177.733 224.068 177.324 223.739 176.814Z" fill="#565656"/>
<path d="M224.905 177.406C225.412 176.978 225.305 176.72 225.101 176.477C223.347 174.34 223.764 175.028 222.469 172.572C222.119 171.904 220.808 172.595 221.162 173.267C222.509 175.82 222.13 175.234 223.95 177.448C223.95 177.448 224.398 177.833 224.905 177.406Z" fill="#565656"/>
<path d="M224.185 177.262C224.435 176.608 224.193 176.42 223.867 176.294C221.032 175.176 222.33 175.952 219.758 174.304C219.061 173.854 218.19 175.157 218.893 175.609C221.567 177.321 220.36 176.622 223.299 177.781C223.299 177.781 223.936 177.916 224.185 177.262Z" fill="#565656"/>
<path d="M238.409 185.962C239.372 186.638 240.533 184.915 239.825 184.369C232.881 179.475 233.664 182.881 223.932 176.37C223.932 176.37 223.035 175.942 222.504 176.84C222.186 177.376 222.516 177.962 222.968 178.262C232.538 184.674 231.641 181.208 238.409 185.962Z" fill="#565656"/>
<path d="M267.566 185.657C268.247 185.906 268.428 185.674 268.541 185.36C269.554 182.632 271.162 180.191 272.73 177.722C273.158 177.053 271.783 176.194 271.354 176.869C269.725 179.436 268.043 181.964 266.994 184.794C266.994 184.794 266.885 185.408 267.566 185.657Z" fill="#565656"/>
<path d="M266.75 185.625C266.588 186.332 266.841 186.484 267.166 186.559C269.996 187.241 272.614 188.548 275.255 189.812C275.972 190.157 276.652 188.688 275.93 188.342C273.184 187.029 270.469 185.659 267.535 184.953C267.535 184.953 266.912 184.919 266.75 185.625Z" fill="#565656"/>
<path d="M267.803 185.685C268.002 186.382 268.296 186.392 268.617 186.299C271.42 185.516 274.34 185.383 277.259 185.201C278.052 185.154 277.938 183.538 277.14 183.586C274.105 183.777 271.071 183.901 268.165 184.715C268.165 184.715 267.604 184.988 267.803 185.685Z" fill="#565656"/>
<path d="M251.503 187.721C250.327 187.761 250.435 189.835 251.33 189.844C259.825 189.569 257.15 187.323 268.847 186.661C268.847 186.661 269.821 186.462 269.705 185.426C269.637 184.807 269.021 184.538 268.479 184.57C256.972 185.215 259.773 187.441 251.503 187.721Z" fill="#565656"/>
</svg>
