<svg width="666" height="77" viewBox="0 0 666 77" fill="none" xmlns="http://www.w3.org/2000/svg">
<path d="M4.76426 70.7188L3.19172 53.9926L4.74792 53.8838L12.5446 62.4782L18.634 52.9128L20.1902 52.804L21.7628 69.5302L19.9671 69.6558L18.6866 56.0358L12.8142 65.3456L5.27937 56.9733L6.55988 70.5933L4.76426 70.7188ZM33.1331 68.7351L32.9871 67.1819C32.7791 67.5332 32.4971 67.8656 32.1627 68.1536C31.5589 68.6528 30.6896 69.1465 29.4446 69.2335C27.0505 69.401 25.2173 67.8455 25.0601 66.1729C24.8803 64.2613 25.9412 62.9846 28.0861 62.4738L32.4479 61.4472C32.2884 59.7507 31.0052 58.6619 29.3054 58.7808C28.2759 58.8528 27.5262 59.3381 27.0138 59.7828C26.7273 60.0674 26.4647 60.3504 26.2305 60.6794L25.0521 59.6795C25.3251 59.2515 25.6745 58.8663 26.0762 58.5255C26.7667 57.9241 27.7468 57.3264 29.1593 57.2276C31.7929 57.0435 33.888 58.8211 34.1238 61.33L34.809 68.6179L33.1331 68.7351ZM32.6501 63.5978L32.5827 62.8809L28.6998 63.874C27.288 64.2373 26.6349 64.9804 26.736 66.0557C26.8258 67.0115 27.7424 67.7892 29.2986 67.6804C31.4773 67.528 32.8658 65.8916 32.6501 63.5978ZM38.6284 68.3508L37.5501 56.8814L38.8669 56.7893L43.955 62.2059L47.9647 56.1531L49.2815 56.0611L50.3598 67.5305L48.6839 67.6477L47.8864 59.1651L44.1908 64.7149L39.5068 59.751L40.3044 68.2336L38.6284 68.3508ZM61.1428 66.7765L60.9968 65.2233C60.7889 65.5746 60.5068 65.907 60.1724 66.1949C59.5687 66.6941 58.6993 67.1879 57.4544 67.2749C55.0602 67.4423 53.2271 65.8869 53.0698 64.2143C52.8901 62.3027 53.9509 61.0259 56.0959 60.5152L60.4577 59.4886C60.2982 57.7921 59.0149 56.7033 57.3151 56.8221C56.2856 56.8941 55.536 57.3795 55.0235 57.8242C54.737 58.1088 54.4744 58.3917 54.2402 58.7208L53.0618 57.7209C53.3348 57.2929 53.6842 56.9077 54.0859 56.5669C54.7765 55.9654 55.7565 55.3678 57.1691 55.269C59.8026 55.0848 61.8977 56.8625 62.1336 59.3714L62.8187 66.6593L61.1428 66.7765ZM60.6598 61.6391L60.5925 60.9223L56.7095 61.9154C55.2977 62.2786 54.6446 63.0218 54.7457 64.0971C54.8356 65.0529 55.7521 65.8306 57.3083 65.7218C59.487 65.5694 60.8755 63.933 60.6598 61.6391ZM70.2429 59.8867L70.0969 58.3335L79.4341 57.6806L79.5801 59.2338L70.2429 59.8867ZM88.1949 64.8848L87.1166 53.4154L92.3837 53.0471C94.5624 52.8947 95.9766 54.0946 96.1361 55.7911C96.2147 56.6275 95.9117 57.2499 95.5886 57.6574C95.3933 57.8875 95.1719 58.0954 94.9242 58.2811C95.2946 58.3754 95.6215 58.5209 95.9313 58.7398C96.4483 59.1125 96.9923 59.772 97.0979 60.895C97.2888 62.926 96.0956 64.3323 93.7015 64.4997L88.1949 64.8848ZM89.2306 57.9576L92.8218 57.7065C94.0428 57.6211 94.5612 56.9836 94.4714 56.0278C94.3815 55.072 93.7508 54.5148 92.5298 54.6002L88.9385 54.8513L89.2306 57.9576ZM89.7248 63.2145L93.5554 62.9466C94.8962 62.8528 95.5253 62.1113 95.4108 60.8927C95.2962 59.6741 94.5367 59.0297 93.196 59.1235L89.3654 59.3913L89.7248 63.2145ZM107.459 63.5377L107.313 61.9845C107.105 62.3358 106.823 62.6682 106.489 62.9562C105.885 63.4554 105.016 63.9491 103.771 64.0361C101.377 64.2036 99.5436 62.6481 99.3864 60.9755C99.2067 59.0639 100.267 57.7872 102.412 57.2764L106.774 56.2498C106.615 54.5533 105.332 53.4645 103.632 53.5834C102.602 53.6554 101.853 54.1407 101.34 54.5854C101.054 54.87 100.791 55.153 100.557 55.482L99.3784 54.4821C99.6514 54.0541 100.001 53.6689 100.403 53.3281C101.093 52.7267 102.073 52.129 103.486 52.0302C106.119 51.8461 108.214 53.6237 108.45 56.1326L109.135 63.4205L107.459 63.5377ZM106.976 58.4004L106.909 57.6835L103.026 58.6766C101.614 59.0399 100.961 59.783 101.062 60.8583C101.152 61.8141 102.069 62.5918 103.625 62.483C105.804 62.3306 107.192 60.6942 106.976 58.4004ZM111.279 63.2706L115.547 56.1174L110.679 51.7677L112.714 51.6254L118.379 56.7612L117.862 51.2655L119.538 51.1483L120.054 56.644L124.685 50.7883L126.72 50.646L122.729 55.6152L128.277 62.082L126.362 62.2159L121.764 56.8853L120.257 58.7946L120.616 62.6177L118.94 62.7349L118.581 58.9117L116.736 57.2368L113.194 63.1367L111.279 63.2706ZM130.443 61.9305L129.365 50.4611L131.041 50.3439L131.501 55.2423L138.085 54.7819L137.625 49.8835L139.301 49.7663L140.379 61.2357L138.703 61.3529L138.231 56.3351L131.647 56.7954L132.119 61.8133L130.443 61.9305ZM144.214 60.9675L143.136 49.4981L144.812 49.3809L145.171 53.2041L148.044 53.0032C150.702 52.8173 152.378 54.2394 152.594 56.5333C152.809 58.8272 151.397 60.4653 148.787 60.6478L144.214 60.9675ZM155.108 60.2058L154.029 48.7364L155.705 48.6192L156.784 60.0886L155.108 60.2058ZM145.744 59.2972L148.641 59.0946C150.173 58.9875 151.043 57.9886 150.918 56.6505C150.792 55.3124 149.747 54.4475 148.19 54.5563L145.317 54.7572L145.744 59.2972ZM160.827 42.9697L162.144 42.8776C162.27 44.2157 163.029 44.8601 164.25 44.7747C165.471 44.6893 166.1 43.9478 165.975 42.6097L167.291 42.5176C167.471 44.4292 166.278 45.8355 164.362 45.9694C162.447 46.1034 161.007 44.8812 160.827 42.9697ZM160.604 59.8215L159.526 48.352L161.202 48.2349L162.01 56.8369L168.145 47.7493L169.581 47.6489L170.659 59.1183L168.984 59.2355L168.175 50.6334L162.041 59.721L160.604 59.8215ZM186.473 58.0125L186.035 53.3531C185.787 53.5388 185.492 53.7278 185.17 53.8946C184.62 54.1976 183.85 54.4679 182.893 54.5349C180.283 54.7174 178.293 53.0286 178.048 50.4241L177.733 47.0788L179.409 46.9616L179.724 50.3069C179.883 52.0034 181.167 53.0922 182.866 52.9733C183.824 52.9064 184.566 52.59 185.091 52.2886C185.387 52.0996 185.635 51.9139 185.878 51.6804L185.395 46.5431L187.071 46.4259L188.149 57.8953L186.473 58.0125ZM200.296 53.7989L201.475 54.7989C201.182 55.2763 200.811 55.6871 200.366 56.079C199.584 56.7349 198.467 57.4143 196.911 57.5231C193.775 57.7425 190.918 55.2965 190.603 51.9513C190.289 48.606 192.675 45.7935 195.668 45.5842C198.804 45.3649 201.399 47.5886 201.714 50.9339C201.738 51.1967 201.709 51.3912 201.7 51.5601L201.675 51.8024L192.335 52.4315C192.646 54.4541 194.586 56.1223 196.765 55.97C197.986 55.8846 198.827 55.3448 199.428 54.8217C199.761 54.5098 200.067 54.1758 200.296 53.7989ZM192.201 50.9978L199.982 50.4537C199.527 48.4411 197.849 46.9951 195.814 47.1374C193.755 47.2813 192.284 49.0678 192.201 50.9978ZM203.345 56.8327L203.188 55.1601C203.264 55.2028 203.365 55.2439 203.487 55.2595C203.685 55.3178 203.905 55.3505 204.168 55.3321C205.485 55.24 206.242 54.3212 205.694 48.4909L205.379 45.1456L213.759 44.5597L214.837 56.0291L213.161 56.1463L212.229 46.23L207.201 46.5816L207.37 48.3737C208.021 55.3031 206.72 56.8373 204.565 56.9879C204.254 57.0097 203.962 56.982 203.716 56.9271C203.594 56.9115 203.469 56.8721 203.345 56.8327ZM223.708 55.6493C220.476 55.8753 217.595 53.4311 217.28 50.0858C216.966 46.7406 219.352 43.928 222.585 43.702C225.817 43.476 228.697 45.9203 229.012 49.2655C229.326 52.6108 226.94 55.4233 223.708 55.6493ZM223.562 54.0962C225.836 53.9371 227.572 51.8916 227.336 49.3827C227.1 46.8738 225.005 45.0961 222.731 45.2552C220.456 45.4142 218.72 47.4597 218.956 49.9687C219.19 52.4537 221.287 54.2552 223.562 54.0962ZM232.546 54.7908L231.467 43.3214L236.734 42.9531C238.913 42.8007 240.327 44.0006 240.487 45.6972C240.565 46.5335 240.262 47.156 239.939 47.5634C239.744 47.7935 239.522 48.0014 239.275 48.1871C239.645 48.2814 239.972 48.4269 240.282 48.6458C240.799 49.0185 241.343 49.678 241.449 50.801C241.639 52.8321 240.446 54.2384 238.052 54.4058L232.546 54.7908ZM233.581 47.8637L237.172 47.6125C238.393 47.5272 238.912 46.8896 238.822 45.9338C238.732 44.978 238.101 44.4209 236.88 44.5062L233.289 44.7574L233.581 47.8637ZM234.075 53.1205L237.906 52.8526C239.247 52.7589 239.876 52.0174 239.761 50.7987C239.647 49.5801 238.887 48.9357 237.547 49.0295L233.716 49.2973L234.075 53.1205ZM253.183 50.1007L254.361 51.1007C254.069 51.5781 253.698 51.9889 253.252 52.3808C252.471 53.0367 251.354 53.7161 249.798 53.825C246.661 54.0443 243.804 51.5984 243.49 48.2531C243.175 44.9079 245.562 42.0953 248.555 41.886C251.691 41.6667 254.286 43.8904 254.6 47.2357C254.625 47.4985 254.595 47.693 254.587 47.862L254.561 48.1043L245.222 48.7333C245.533 50.756 247.473 52.4242 249.651 52.2718C250.872 52.1864 251.713 51.6466 252.315 51.1235C252.647 50.8117 252.953 50.4776 253.183 50.1007ZM245.087 47.2996L252.868 46.7555C252.414 44.7429 250.736 43.2969 248.701 43.4392C246.642 43.5831 245.171 45.3696 245.087 47.2996ZM258.147 53.0006L257.069 41.5312L258.745 41.414L259.318 47.5071L264.491 41.0122L266.526 40.8699L262.535 45.839L268.083 52.3058L266.168 52.4397L261.57 47.1091L259.52 49.6576L259.823 52.8834L258.147 53.0006ZM273.148 54.8378L272.733 50.4173L273.571 50.3587C273.915 49.9257 274.201 49.3766 274.428 48.7114C274.83 47.6009 275.203 45.9393 274.988 43.6454L274.673 40.3001L282.574 39.7477L283.506 49.6639L285.302 49.5384L285.718 53.9589L284.042 54.0761L283.772 51.2087L274.555 51.8533L274.824 54.7206L273.148 54.8378ZM275.366 50.2332L281.83 49.7811L281.044 41.418L276.495 41.7361L276.664 43.5282C276.87 45.7265 276.544 47.3848 276.171 48.5414C275.944 49.2066 275.683 49.754 275.366 50.2332ZM286.159 51.0418L286.001 49.3692C286.078 49.412 286.178 49.4531 286.3 49.4686C286.498 49.5269 286.718 49.5596 286.982 49.5412C288.298 49.4491 289.055 48.5303 288.507 42.7L288.193 39.3548L296.572 38.7688L297.651 50.2382L295.975 50.3554L295.042 40.4392L290.015 40.7907L290.183 42.5828C290.835 49.5123 289.533 51.0464 287.378 51.1971C287.067 51.2188 286.775 51.1911 286.529 51.1362C286.407 51.1207 286.283 51.0812 286.159 51.0418ZM300.513 50.0381L302.754 45.6723C302.285 45.5608 301.882 45.3725 301.496 45.1109C300.85 44.651 300.169 43.8087 300.034 42.375C299.832 40.2245 301.35 38.4347 303.864 38.2589L308.772 37.9157L309.851 49.3851L308.175 49.5023L307.815 45.6792L304.463 45.9136L302.429 49.9041L300.513 50.0381ZM304.437 44.352L307.669 44.126L307.242 39.5861L304.01 39.8121C302.454 39.9209 301.584 40.9197 301.71 42.2578C301.836 43.5959 302.881 44.4609 304.437 44.352ZM318.702 48.7662L317.624 37.2967L319.3 37.1795L319.873 43.2727L325.046 36.7777L327.081 36.6354L323.09 41.6046L328.638 48.0714L326.723 48.2053L322.125 42.8747L320.075 45.4232L320.378 48.649L318.702 48.7662ZM337.499 47.4517L337.353 45.8986C337.145 46.2499 336.863 46.5823 336.529 46.8702C335.925 47.3694 335.056 47.8631 333.811 47.9502C331.417 48.1176 329.583 46.5622 329.426 44.8895C329.247 42.978 330.307 41.7012 332.452 41.1904L336.814 40.1639C336.655 38.4674 335.371 37.3786 333.672 37.4974C332.642 37.5694 331.892 38.0548 331.38 38.4995C331.093 38.7841 330.831 39.067 330.597 39.3961L329.418 38.3961C329.691 37.9682 330.041 37.583 330.442 37.2422C331.133 36.6407 332.113 36.043 333.525 35.9443C336.159 35.7601 338.254 37.5378 338.49 40.0467L339.175 47.3346L337.499 47.4517ZM337.016 42.3144L336.949 41.5976L333.066 42.5906C331.654 42.9539 331.001 43.6971 331.102 44.7724C331.192 45.7281 332.109 46.5059 333.665 46.397C335.843 46.2447 337.232 44.6083 337.016 42.3144ZM341.319 47.1847L345.586 40.0315L340.719 35.6818L342.754 35.5395L348.418 40.6753L347.902 35.1795L349.578 35.0623L350.094 40.5581L354.725 34.7024L356.76 34.5601L352.769 39.5292L358.317 45.996L356.402 46.1299L351.804 40.7993L350.296 42.7086L350.656 46.5317L348.98 46.6489L348.621 42.8258L346.776 41.1509L343.234 47.0507L341.319 47.1847ZM358.837 48.8458L358.422 44.4253L359.26 44.3667C359.605 43.9337 359.89 43.3846 360.117 42.7194C360.519 41.609 360.893 39.9473 360.677 37.6534L360.362 34.3082L368.263 33.7557L369.195 43.672L370.991 43.5464L371.407 47.9669L369.731 48.0841L369.461 45.2167L360.244 45.8613L360.513 48.7287L358.837 48.8458ZM361.055 44.2412L367.52 43.7892L366.733 35.426L362.184 35.7441L362.353 37.5362C362.56 39.7345 362.234 41.3928 361.86 42.5494C361.634 43.2146 361.372 43.7621 361.055 44.2412ZM378.813 44.8033C375.581 45.0293 372.701 42.5851 372.386 39.2398C372.072 35.8946 374.458 33.082 377.69 32.856C380.922 32.63 383.803 35.0742 384.117 38.4195C384.432 41.7647 382.046 44.5773 378.813 44.8033ZM378.667 43.2501C380.942 43.0911 382.677 41.0456 382.442 38.5367C382.206 36.0277 380.111 34.2501 377.836 34.4091C375.562 34.5682 373.826 36.6137 374.062 39.1226C374.296 41.6077 376.393 43.4092 378.667 43.2501ZM387.651 43.9448L386.573 32.4754L394.234 31.9396L394.38 33.4928L388.395 33.9113L389.327 43.8276L387.651 43.9448ZM402.287 43.1618C399.055 43.3878 396.175 40.9436 395.86 37.5983C395.546 34.2531 397.932 31.4405 401.164 31.2145C404.396 30.9885 407.277 33.4328 407.591 36.778C407.906 40.1233 405.519 42.9358 402.287 43.1618ZM402.141 41.6087C404.416 41.4496 406.151 39.4041 405.915 36.8952C405.68 34.3863 403.585 32.6086 401.31 32.7677C399.036 32.9267 397.3 34.9722 397.536 37.4812C397.77 39.9662 399.867 41.7677 402.141 41.6087ZM416.624 46.9697L415.074 30.4824L416.749 30.3652L416.907 32.0378C417.136 31.661 417.418 31.3286 417.798 31.0134C418.4 30.4903 419.337 29.9438 420.677 29.85C423.79 29.6324 426.54 31.9655 426.865 35.4303C427.191 38.895 424.913 41.5797 421.801 41.7973C420.46 41.8911 419.433 41.4818 418.742 41.0491C418.308 40.7909 417.968 40.502 417.671 40.162L418.3 46.8525L416.624 46.9697ZM421.655 40.2442C423.833 40.0918 425.434 38.152 425.189 35.5474C424.944 32.9429 423.002 31.2508 420.823 31.4032C418.812 31.5438 417.053 33.591 417.289 36.0999C417.525 38.6088 419.644 40.3848 421.655 40.2442ZM438.706 37.1277L439.885 38.1276C439.592 38.605 439.221 39.0158 438.776 39.4077C437.994 40.0637 436.877 40.7431 435.321 40.8519C432.185 41.0712 429.328 38.6253 429.013 35.28C428.699 31.9348 431.085 29.1222 434.078 28.913C437.214 28.6936 439.809 30.9174 440.124 34.2626C440.149 34.5254 440.119 34.72 440.11 34.8889L440.085 35.1312L430.746 35.7602C431.056 37.7829 432.996 39.4511 435.175 39.2987C436.396 39.2134 437.237 38.6735 437.838 38.1504C438.171 37.8386 438.477 37.5045 438.706 37.1277ZM430.611 34.3265L438.392 33.7824C437.937 31.7698 436.259 30.3238 434.224 30.4661C432.165 30.6101 430.694 32.3965 430.611 34.3265ZM451.368 21.9315L452.329 23.1871C452.13 23.3695 451.834 23.5585 451.443 23.7542C450.778 24.1134 449.712 24.5727 447.927 25.0584C445.556 25.7292 443.95 27.6213 444.145 30.975C444.37 30.5503 444.669 30.1446 445.045 29.7816C445.661 29.1612 446.589 28.5191 448.002 28.4204C450.97 28.2128 453.744 30.5442 454.047 33.77C454.351 36.9958 452.073 39.6805 448.96 39.8981C445.728 40.1242 442.978 37.791 442.518 32.8926C441.97 27.0623 444.243 24.3298 447.541 23.522C448.953 23.1587 449.881 22.7811 450.503 22.473C450.846 22.2807 451.144 22.1155 451.368 21.9315ZM448.814 38.345C450.993 38.1927 452.596 36.2767 452.371 33.8872C452.147 31.4977 450.207 29.8295 448.028 29.9819C445.849 30.1342 444.246 32.0502 444.471 34.4397C444.695 36.8291 446.636 38.4973 448.814 38.345ZM465.991 35.2197L467.17 36.2197C466.877 36.6971 466.506 37.1079 466.061 37.4998C465.279 38.1557 464.162 38.8351 462.606 38.9439C459.47 39.1633 456.613 36.7173 456.298 33.3721C455.984 30.0268 458.37 27.2143 461.363 27.005C464.499 26.7857 467.094 29.0094 467.409 32.3547C467.433 32.6175 467.404 32.812 467.395 32.9809L467.37 33.2232L458.03 33.8523C458.341 35.8749 460.281 37.5431 462.46 37.3908C463.681 37.3054 464.522 36.7656 465.123 36.2425C465.456 35.9306 465.762 35.5966 465.991 35.2197ZM457.896 32.4186L465.677 31.8745C465.222 29.8619 463.544 28.4159 461.509 28.5582C459.45 28.7021 457.979 30.4886 457.896 32.4186ZM470.956 38.1196L469.877 26.6501L471.553 26.533L472.014 31.4314L478.598 30.971L478.137 26.0726L479.813 25.9554L480.891 37.4248L479.215 37.542L478.744 32.5241L472.16 32.9845L472.631 38.0024L470.956 38.1196ZM484.727 37.1566L483.648 25.6872L485.324 25.57L485.897 31.6631L491.07 25.1682L493.105 25.0259L489.114 29.9951L494.662 36.4618L492.747 36.5958L488.149 31.2651L486.099 33.8136L486.403 37.0394L484.727 37.1566ZM503.524 35.8422L503.378 34.289C503.17 34.6403 502.888 34.9727 502.553 35.2607C501.949 35.7599 501.08 36.2536 499.835 36.3406C497.441 36.5081 495.608 34.9526 495.45 33.28C495.271 31.3684 496.332 30.0917 498.477 29.5809L502.838 28.5543C502.679 26.8578 501.396 25.769 499.696 25.8879C498.666 25.9599 497.917 26.4452 497.404 26.8899C497.118 27.1745 496.855 27.4575 496.621 27.7865L495.442 26.7866C495.716 26.3586 496.065 25.9734 496.467 25.6326C497.157 25.0312 498.137 24.4335 499.55 24.3347C502.183 24.1506 504.278 25.9282 504.514 28.4371L505.199 35.725L503.524 35.8422ZM503.041 30.7048L502.973 29.988L499.09 30.9811C497.678 31.3444 497.025 32.0875 497.126 33.1628C497.216 34.1186 498.133 34.8963 499.689 34.7875C501.868 34.6351 503.256 32.9987 503.041 30.7048ZM509.714 31.3205L508.165 18.6815L510.319 18.5308L511.151 31.2201L509.714 31.3205ZM509.528 34.4603C509.458 33.7196 509.87 33.2337 510.612 33.1818C511.354 33.1299 511.852 33.5521 511.922 34.2929C511.991 35.0336 511.579 35.5194 510.837 35.5713C510.095 35.6232 509.597 35.201 509.528 34.4603Z" fill="#414141"/>
</svg>
