<svg width="247" height="113" viewBox="0 0 247 113" fill="none" xmlns="http://www.w3.org/2000/svg">
<path opacity="0.6" d="M6.68215 36.5578C6.13149 36.5192 5.68346 36.3676 5.33807 36.1029C5.01798 35.8159 4.78444 35.4868 4.63744 35.1157C4.49181 34.7206 4.4286 34.3553 4.44782 34.0199C4.47527 33.5407 4.71751 33.0885 5.17453 32.6634C5.6555 32.24 6.25892 31.777 6.9848 31.2744C7.71067 30.7719 8.5012 30.1896 9.35639 29.5277C10.2636 28.7973 11.1222 28.0755 11.9323 27.3623C12.7437 26.6252 13.5705 25.829 14.4127 24.9737L15.5667 26.8587C13.7609 26.4919 12.2499 26.0133 11.0338 25.4231C9.81901 24.8089 8.8724 24.1293 8.19396 23.3842C7.51552 22.6391 7.04264 21.8723 6.77532 21.0838C6.50801 20.2953 6.39356 19.5656 6.43199 18.8947C6.47729 18.104 6.72883 17.2796 7.18662 16.4215C7.66973 15.5411 8.42473 14.7399 9.45163 14.0178C10.4799 13.2718 11.8344 12.705 13.5152 12.3173C15.2213 11.9074 17.3193 11.7894 19.8093 11.9636C21.1979 12.0607 22.3754 12.2753 23.3419 12.6075C24.3098 12.9158 25.028 13.387 25.4964 14.0212C25.9902 14.633 26.2096 15.4182 26.1547 16.3766C26.1396 16.6402 26.0756 17.1289 25.9626 17.8427C25.8735 18.5582 25.7523 19.4157 25.5989 20.4154C25.4708 21.3927 25.3386 22.442 25.2022 23.5631C25.0912 24.662 25.0069 25.7146 24.9492 26.7209C24.8847 27.8471 24.8828 28.9295 24.9435 29.9682C25.0055 30.9829 25.0646 31.841 25.1205 32.5426C25.2004 33.2458 25.2321 33.7412 25.2157 34.0287C25.1896 34.484 25.0212 34.9052 24.7106 35.2925C24.4013 35.6558 24.0124 35.9413 23.5438 36.1491C23.0765 36.3329 22.5915 36.4073 22.0888 36.3721C21.3945 36.3236 20.8456 36.0446 20.4421 35.5353C20.0625 35.0276 19.8222 34.3973 19.7211 33.6445C19.7054 33.4991 19.6702 33.0636 19.6156 32.3381C19.5624 31.5886 19.5068 30.6706 19.4489 29.5839C19.4149 28.499 19.4295 27.4055 19.4926 26.3033C19.5646 25.4663 19.6533 24.5463 19.7589 23.5433C19.8883 22.542 20.0158 21.5766 20.1411 20.6472C20.2918 19.6954 20.4116 18.8618 20.5007 18.1464C20.6151 17.4086 20.6918 16.9088 20.7308 16.6469L21.098 17.7912C20.7922 17.6736 20.3787 17.5484 19.8575 17.4158C19.3602 17.2848 18.7285 17.1925 17.9624 17.1389C17.2202 17.087 16.4865 17.0959 15.7614 17.1654C15.0603 17.2367 14.4275 17.3729 13.8631 17.574C13.2987 17.7751 12.852 18.0205 12.5229 18.3102C12.1938 18.5999 12.0183 18.9365 11.9963 19.3199C11.951 20.1106 12.4746 20.8328 13.5669 21.4865C14.6592 22.1403 16.1633 22.7386 18.0792 23.2815C18.8597 23.5045 19.3973 23.7706 19.6921 24.0799C19.9868 24.3892 20.1191 24.8074 20.0889 25.3346C20.0683 25.694 19.8487 26.1718 19.4299 26.768C19.0112 27.3642 18.4819 28.0008 17.8422 28.6777C17.2278 29.3324 16.5775 29.9846 15.8913 30.6342C15.229 31.2856 14.6321 31.8452 14.1005 32.3133C13.0359 33.2733 12.0401 34.0817 11.1131 34.7386C10.2114 35.3732 9.39113 35.8451 8.65229 36.1542C7.91346 36.4634 7.25674 36.5979 6.68215 36.5578ZM48.6642 39.6017C47.3713 39.5113 46.2697 39.2298 45.3593 38.7571C44.4729 38.2862 43.739 37.6695 43.1577 36.9072C42.6004 36.1465 42.2048 35.2889 41.971 34.3343C41.7386 33.3558 41.654 32.3155 41.7171 31.2133C41.7748 30.2069 41.8937 29.1808 42.0738 28.1349C42.2539 27.089 42.4777 26.1183 42.7454 25.2229C43.013 24.3274 43.295 23.6014 43.5913 23.0448C43.8328 22.6046 44.1674 22.219 44.595 21.8881C45.0226 21.5571 45.4939 21.3014 46.0091 21.1209C46.5495 20.9181 47.0711 20.8343 47.5739 20.8695C48.0527 20.9029 48.4508 21.0872 48.7681 21.4221C49.0868 21.733 49.2318 22.1401 49.203 22.6433C49.1783 23.0746 49.0656 23.5719 48.8651 24.1352C48.6646 24.6986 48.4226 25.3552 48.1393 26.1052C47.8573 26.8313 47.6044 27.6796 47.3806 28.6503C47.1581 29.597 47.0132 30.6574 46.9459 31.8315C46.8924 32.766 47.0393 33.5581 47.3867 34.2078C47.7341 34.8576 48.3387 35.2126 49.2006 35.2729C49.8949 35.3214 50.5875 35.1895 51.2785 34.8769C51.9934 34.5661 52.6214 34.0928 53.1626 33.457C53.7052 32.7973 54.0758 31.9933 54.2743 31.0449L55.1381 32.3322C54.6675 32.1549 54.0758 31.9933 53.363 31.8472C52.6503 31.7011 51.8896 31.5517 51.0811 31.399C50.2726 31.2462 49.4859 31.131 48.7212 31.0535C47.9578 30.952 47.2768 30.8803 46.6783 30.8385L47.2966 27.598C48.0415 27.602 48.7786 27.5332 49.5078 27.3918C50.2624 27.228 50.9605 27.0002 51.6022 26.7082C52.2439 26.4163 52.7546 26.1032 53.1343 25.7689C53.5154 25.4107 53.7169 25.0398 53.7389 24.6565C53.7567 24.345 53.6501 24.109 53.4189 23.9485C53.1891 23.764 52.8228 23.6542 52.32 23.619C51.6975 23.5755 51.0576 23.627 50.4002 23.7735C49.7442 23.896 49.0994 24.0313 48.466 24.1795C47.8564 24.3293 47.2623 24.4201 46.6836 24.4518C46.0119 24.4289 45.5074 24.2132 45.1703 23.8047C44.8331 23.3962 44.693 22.9053 44.7498 22.3319C44.7828 21.7568 45.0538 21.2225 45.5628 20.7288C46.0971 20.2129 46.7676 19.8388 47.5741 19.6065C48.5975 19.3653 49.7013 19.1899 50.8854 19.0803C52.0934 18.9723 53.1883 18.9526 54.1699 19.0213C55.3191 19.1016 56.3037 19.3268 57.1238 19.6969C57.9679 20.0687 58.6002 20.57 59.0208 21.2008C59.4653 21.8333 59.6628 22.5808 59.6134 23.4434C59.5667 24.2581 59.2827 25.0201 58.7613 25.7294C58.2639 26.4404 57.5896 27.0908 56.7386 27.6809C55.9128 28.2486 54.9595 28.7352 53.8786 29.1408C52.7991 29.5224 51.6779 29.7928 50.515 29.952L51.1413 27.8307C52.244 27.8838 53.2953 27.9934 54.2954 28.1596C55.2968 28.3017 56.185 28.5323 56.96 28.8511C57.7589 29.1716 58.3721 29.5873 58.7995 30.0983C59.2523 30.5871 59.4553 31.2388 59.4086 32.0534C59.3537 33.0119 59.0228 33.963 58.4159 34.9069C57.809 35.8508 57.0033 36.6966 55.999 37.4443C55.02 38.1697 53.8936 38.7405 52.6198 39.1566C51.3713 39.5504 50.0528 39.6988 48.6642 39.6017ZM68.8845 41.6651C67.4959 41.568 66.3259 41.2216 65.3745 40.6258C64.4244 40.0061 63.7135 39.1986 63.2417 38.2033C62.7952 37.1858 62.6097 36.0181 62.6852 34.7003C62.762 33.3585 62.8546 32.1621 62.9629 31.1112C63.0712 30.0602 63.1818 29.1779 63.2948 28.4641C63.4078 27.7503 63.4985 27.2154 63.567 26.8593C63.6663 26.3851 63.8613 25.9176 64.1521 25.4568C64.4443 24.972 64.8028 24.5882 65.2277 24.3051C65.6539 23.9981 66.1064 23.8614 66.5853 23.8949C67.2317 23.9401 67.7833 24.1711 68.2402 24.588C68.7224 24.9825 68.9436 25.5272 68.9038 26.2221C68.8749 26.7253 68.8126 27.3945 68.7167 28.2298C68.6207 29.065 68.5255 29.8883 68.4309 30.6997C68.385 31.0814 68.3258 31.4862 68.2532 31.9141C68.2059 32.3198 68.1573 32.7494 68.1073 33.203C68.0572 33.6566 68.0171 34.1469 67.9869 34.6741C67.9499 35.321 68.0866 35.8718 68.3971 36.3266C68.7089 36.7573 69.1641 36.9936 69.7626 37.0355C70.026 37.0539 70.316 37.0261 70.6328 36.952C70.9495 36.8779 71.2577 36.7431 71.5573 36.5475C71.857 36.352 72.0975 36.1403 72.2788 35.9124C72.4854 35.6622 72.5977 35.3814 72.6155 35.0699C72.6416 34.6146 72.4946 34.2435 72.1745 33.9565C71.8784 33.6712 71.4837 33.4271 70.9905 33.2242C70.6608 33.1049 70.2361 32.9669 69.7162 32.8103C69.1964 32.6537 68.6758 32.509 68.1546 32.3763C67.6334 32.2437 67.2072 32.1297 66.8762 32.0343L67.2022 28.2321C68.0313 28.0255 68.9336 27.7999 69.9091 27.5554C70.9085 27.3125 71.9326 27.0594 72.9813 26.7959C74.0314 26.5085 75.0702 26.2082 76.0977 25.8952C77.3208 25.5236 78.4137 25.1189 79.3762 24.681C80.3627 24.2448 81.2254 23.8721 81.9642 23.5629C82.727 23.2554 83.3837 23.1209 83.9344 23.1594C85.2511 23.2515 86.2361 23.6812 86.8892 24.4486C87.5437 25.192 87.8353 26.1867 87.7639 27.4327C87.7255 28.1036 87.6716 28.8335 87.6024 29.6226C87.5345 30.3876 87.4745 31.2254 87.4224 32.1359C87.3949 32.6151 87.376 33.1551 87.3656 33.7558C87.3553 34.3565 87.3681 34.9708 87.4043 35.5988C87.4644 36.2285 87.5378 36.8351 87.6246 37.4185C87.6772 37.759 87.7192 38.0746 87.7506 38.3655C87.8059 38.6581 87.8274 38.9122 87.8151 39.1278C87.7876 39.607 87.6299 40.0531 87.3418 40.4659C87.0791 40.8565 86.712 41.1797 86.2407 41.4354C85.7707 41.6672 85.2364 41.7621 84.6379 41.7203C83.8478 41.665 83.2496 41.4067 82.8434 40.9453C82.4625 40.4615 82.2173 39.9151 82.108 39.3061C81.9249 38.307 81.8276 37.2777 81.8161 36.2184C81.8061 35.1352 81.8278 34.1263 81.8814 33.1919C81.917 32.5689 81.9527 31.9459 81.9884 31.3229C82.048 30.7016 82.1063 30.1043 82.1632 29.5309C82.2201 28.9575 82.2615 28.4432 82.2876 27.9879C82.3376 27.5344 82.3695 27.1878 82.3832 26.9482L83.5507 27.968C83.1779 28.1825 82.5861 28.4418 81.7755 28.746C80.9887 29.0518 80.0457 29.3588 78.9464 29.6668C77.8471 29.9748 76.6752 30.2898 75.4309 30.6118C74.2118 30.9114 72.9949 31.1752 71.7799 31.403C70.565 31.6307 69.426 31.7917 68.363 31.8857L68.6304 28.4763C68.7994 28.4641 69.0761 28.4594 69.4605 28.4622C69.8703 28.4428 70.3385 28.4514 70.8652 28.4883C71.2004 28.5117 71.6631 28.6162 72.2534 28.8019C72.8437 28.9875 73.4764 29.2723 74.1515 29.6563C74.8519 30.018 75.499 30.4722 76.0926 31.0189C76.6863 31.5656 77.1667 32.2006 77.5339 32.9239C77.9011 33.6473 78.0566 34.5001 78.0003 35.4825C77.9426 36.4889 77.6264 37.3929 77.0517 38.1947C76.4769 38.9965 75.7415 39.6668 74.8452 40.2055C73.949 40.7443 72.9766 41.1454 71.9279 41.4089C70.8805 41.6484 69.8661 41.7338 68.8845 41.6651ZM100.593 46.7332C98.8454 46.6109 97.369 46.1589 96.1638 45.377C94.9812 44.6207 94.0285 43.6279 93.3057 42.3986C92.5843 41.1453 92.0766 39.7265 91.7828 38.1423C91.5143 36.5358 91.4301 34.8579 91.5303 33.1088C91.6401 31.1919 91.939 29.5409 92.427 28.1557C92.915 26.7705 93.5349 25.5989 94.2869 24.6411C95.0402 23.6594 95.8537 22.8863 96.7273 22.3219C97.6023 21.7336 98.4565 21.3001 99.2897 21.0216C100.123 20.7431 101.083 20.5576 102.17 20.4652C103.258 20.3489 104.288 20.2164 105.258 20.0677C106.347 19.9274 107.257 19.7745 107.988 19.6091C108.744 19.4214 109.349 19.3434 109.804 19.3753C110.235 19.4054 110.661 19.5314 111.081 19.7532C111.501 19.975 111.843 20.2996 112.107 20.7271C112.372 21.1305 112.487 21.6437 112.451 22.2667C112.415 22.8897 112.134 23.3992 111.606 23.7954C111.104 24.1692 110.426 24.4586 109.573 24.6636C108.261 24.9087 107.076 25.0423 106.017 25.0645C104.982 25.0883 104.03 25.13 103.161 25.1895C102.294 25.2251 101.48 25.3727 100.72 25.6323C100.059 25.8506 99.4467 26.2529 98.8843 26.8391C98.3219 27.4252 97.8696 28.1874 97.5274 29.1258C97.1852 30.0641 96.9757 31.2042 96.8988 32.546C96.7931 34.391 96.8582 35.9833 97.0939 37.3229C97.3297 38.6625 97.7621 39.7151 98.3913 40.4808C99.0219 41.2226 99.8639 41.6303 100.917 41.7039C101.54 41.7474 102.134 41.6567 102.7 41.4316C103.289 41.2082 103.801 40.8831 104.234 40.4563C104.692 40.0073 105.057 39.5155 105.328 38.9812C105.599 38.4468 105.751 37.8921 105.784 37.3171C105.821 36.6701 105.696 36.1201 105.41 35.6671C105.148 35.1917 104.785 34.8295 104.318 34.5804C103.852 34.3312 103.295 34.1841 102.649 34.1389C101.595 34.0652 100.526 34.2671 99.4411 34.7445C98.3814 35.1997 97.3825 35.8515 96.4445 36.7001L94.3804 34.968C94.8998 33.8737 95.6418 32.8791 96.6065 31.9843C97.5951 31.0911 98.7038 30.4109 99.9324 29.9435C101.186 29.4538 102.496 29.2567 103.86 29.3521C105.273 29.4509 106.55 29.8168 107.692 30.45C108.857 31.0848 109.768 31.9664 110.425 33.0949C111.081 34.2233 111.363 35.6022 111.269 37.2315C111.201 38.4296 110.869 39.6092 110.273 40.7704C109.703 41.9093 108.923 42.9493 107.931 43.8904C106.964 44.8331 105.852 45.5613 104.597 46.0749C103.34 46.6125 102.006 46.8319 100.593 46.7332ZM119.153 43.2317C118.195 43.1647 117.405 42.905 116.782 42.4524C116.184 41.9776 115.714 41.3674 115.372 40.6218C115.056 39.8539 114.839 39.0208 114.722 38.1225C114.606 37.2243 114.575 36.2959 114.63 35.3375C114.667 34.6906 114.73 34.0094 114.819 33.2939C114.909 32.5544 115 31.815 115.09 31.0756C115.204 30.3378 115.315 29.66 115.423 29.042C115.53 28.424 115.631 27.9259 115.725 27.5475C115.895 26.6694 116.184 26.04 116.59 25.6595C117.022 25.2566 117.501 25.0736 118.028 25.1105C118.578 25.149 119.085 25.3287 119.547 25.6497C120.035 25.9485 120.421 26.3363 120.707 26.8134C121.016 27.292 121.154 27.8189 121.121 28.394C121.104 28.6815 121.046 29.0743 120.945 29.5725C120.846 30.0467 120.72 30.5671 120.567 31.1338C120.439 31.7022 120.321 32.2834 120.215 32.8774C120.109 33.4713 120.041 34.0319 120.01 34.559C119.982 35.0622 119.965 35.5543 119.962 36.0351C119.958 36.516 120.007 36.9284 120.107 37.2722C120.232 37.6177 120.438 37.8005 120.725 37.8206C121.276 37.8591 121.889 37.4329 122.565 36.5419C123.242 35.627 123.939 34.3767 124.655 32.7909C125.194 31.7701 125.659 30.7922 126.049 29.8572C126.463 28.9239 126.86 28.0736 127.241 27.3063C127.645 26.5407 128.076 25.9454 128.533 25.5203C129.015 25.0729 129.579 24.8718 130.226 24.917C131.207 24.9856 131.934 25.3131 132.405 25.8993C132.9 26.4872 133.197 27.1816 133.295 27.9823C133.381 28.5897 133.471 29.3177 133.567 30.1664C133.686 31.0168 133.795 31.8543 133.892 32.679C134.014 33.4814 134.143 34.164 134.279 34.7269C134.506 35.8012 134.767 36.6975 135.063 37.4158C135.383 38.1119 135.661 38.7207 135.895 39.2422C136.131 39.7399 136.234 40.2523 136.204 40.7794C136.175 41.2826 136.016 41.7526 135.727 42.1894C135.438 42.6023 135.059 42.9246 134.589 43.1564C134.143 43.3898 133.657 43.4881 133.13 43.4513C132.101 43.3793 131.306 42.7824 130.745 41.6607C130.208 40.5406 129.739 39.0884 129.336 37.3041C129.145 36.4487 128.977 35.595 128.834 34.743C128.69 33.891 128.557 33.0638 128.435 32.2613C128.338 31.4366 128.25 30.6607 128.172 29.9335L130.746 29.6805C130.547 30.2199 130.224 31.0392 129.776 32.1386C129.329 33.238 128.79 34.4633 128.159 35.8145C127.365 37.5151 126.466 38.9317 125.464 40.0645C124.463 41.1733 123.43 42.0031 122.365 42.5541C121.301 43.0812 120.23 43.307 119.153 43.2317ZM149.669 46.9533C148.161 46.8479 146.821 46.5376 145.648 46.0226C144.476 45.5076 143.562 44.8784 142.908 44.135C142.253 43.3916 141.95 42.6125 141.996 41.7979C142.02 41.3906 142.196 41.03 142.527 40.7164C142.859 40.3787 143.228 40.2241 143.635 40.2526C144.042 40.281 144.422 40.3677 144.774 40.5126C145.126 40.6576 145.502 40.8161 145.901 40.9884C146.301 41.1366 146.749 41.2882 147.245 41.4432C147.742 41.5742 148.35 41.6648 149.068 41.715C149.978 41.7786 150.718 41.65 151.29 41.3291C151.885 41.0099 152.2 40.5388 152.236 39.9158C152.261 39.4845 152.153 39.056 151.913 38.6302C151.674 38.1805 151.313 37.7704 150.83 37.3997C150.37 37.0308 149.775 36.7246 149.043 36.481C148.313 36.2134 147.47 36.0462 146.512 35.9792C145.794 35.929 145.241 35.9264 144.854 35.9715C144.491 36.0183 144.082 36.0258 143.627 35.9939C143.148 35.9605 142.688 35.808 142.247 35.5366C141.807 35.2412 141.455 34.8798 141.191 34.4524C140.952 34.0027 140.848 33.5263 140.876 33.0231C140.941 31.8969 141.404 31.1595 142.265 30.8107C143.152 30.4397 144.445 30.3136 146.145 30.4325C147.821 30.5497 149.388 30.8758 150.848 31.4109C152.308 31.946 153.576 32.6722 154.653 33.5895C155.756 34.4846 156.595 35.5776 157.17 36.8688C157.745 38.16 157.986 39.6202 157.892 41.2495C157.846 42.0642 157.597 42.8407 157.146 43.579C156.72 44.295 156.131 44.9273 155.379 45.4761C154.651 46.0026 153.799 46.4001 152.823 46.6686C151.846 46.9371 150.795 47.032 149.669 46.9533ZM141.867 57.2693C141.412 57.2375 140.964 57.0859 140.523 56.8145C140.082 56.5431 139.732 56.1457 139.474 55.6225C139.215 55.0992 139.108 54.4542 139.152 53.6875C139.181 53.1843 139.231 52.7307 139.302 52.3267C139.396 51.9484 139.49 51.5581 139.585 51.1557C139.68 50.7534 139.766 50.3024 139.843 49.8025C139.942 49.3283 140.013 48.7318 140.054 48.013C140.129 46.6952 140.116 45.4553 140.014 44.2935C139.937 43.1333 139.809 42.0058 139.631 40.9108C139.479 39.7935 139.339 38.6651 139.212 37.5256C139.087 36.3621 139.024 35.1429 139.025 33.8679C139.022 33.5068 139.079 33.138 139.197 32.7613C139.314 32.3846 139.512 32.0857 139.789 31.8645C140.067 31.6193 140.458 31.5143 140.961 31.5495C141.655 31.598 142.293 31.799 142.873 32.1523C143.455 32.4817 143.923 32.9234 144.276 33.4773C144.654 34.0089 144.826 34.5743 144.791 35.1733C144.789 36.4722 144.837 37.7385 144.934 38.9722C145.033 40.182 145.157 41.3814 145.305 42.5705C145.453 43.7597 145.566 44.9463 145.642 46.1304C145.742 47.3162 145.757 48.5321 145.686 49.7781C145.631 50.7365 145.529 51.6676 145.381 52.5714C145.257 53.4769 145.054 54.2927 144.772 55.0187C144.513 55.7704 144.143 56.346 143.664 56.7455C143.208 57.1466 142.609 57.3212 141.867 57.2693ZM166.218 50.2395C164.973 50.1525 163.897 49.8367 162.991 49.2922C162.083 48.7716 161.39 48.0736 160.912 47.1982C160.433 46.3227 160.226 45.3219 160.29 44.1958C160.359 42.9977 160.632 41.8019 161.109 40.6084C161.587 39.3909 162.206 38.2434 162.965 37.1658C163.747 36.0898 164.631 35.1412 165.615 34.32C166.625 33.4764 167.671 32.8399 168.754 32.4104C169.861 31.9586 170.966 31.7712 172.067 31.8482C172.977 31.9118 173.715 32.2401 174.282 32.8331C174.873 33.4277 175.137 34.2641 175.076 35.3424C175.052 35.7497 174.927 36.0536 174.699 36.2542C174.471 36.4548 174.188 36.5673 173.85 36.5918C172.303 36.7482 170.917 37.2407 169.691 38.0692C168.491 38.8754 167.519 39.9019 166.775 41.1489C166.056 42.3737 165.658 43.6569 165.581 44.9987C165.555 45.454 165.568 45.8518 165.62 46.1923C165.673 46.5328 165.769 46.9605 165.908 47.4754L163.675 43.6386C164.224 44.134 164.71 44.4687 165.132 44.6426C165.579 44.8182 166.102 44.9269 166.7 44.9687C167.921 45.0541 169.101 44.3909 170.239 42.979C171.378 41.5671 172.246 39.4146 172.845 36.5215C172.972 35.9771 173.248 35.5634 173.673 35.2804C174.123 34.975 174.624 34.8416 175.174 34.8801C176.108 34.9454 176.884 35.2523 177.501 35.8007C178.143 36.3507 178.563 36.9935 178.761 37.7291C179.126 38.9093 179.449 39.9904 179.729 40.9722C180.009 41.9541 180.363 42.9051 180.791 43.8251C181.245 44.7228 181.863 45.6802 182.646 46.6972C182.961 47.0801 183.103 47.5351 183.073 48.0622C183.066 48.591 182.94 49.1235 182.693 49.6595C182.446 50.1955 182.096 50.6282 181.645 50.9574C181.193 51.2867 180.668 51.4304 180.07 51.3886C179.639 51.3584 179.296 51.2503 179.043 51.0642C178.788 50.902 178.571 50.6944 178.393 50.4414C177.926 49.7833 177.495 49.1276 177.1 48.4745C176.728 47.8231 176.383 47.1374 176.064 46.4174C175.768 45.6991 175.489 44.9098 175.226 44.0494C174.964 43.165 174.723 42.1377 174.501 40.9675L176.451 40.9234C175.684 43.3958 174.743 45.3387 173.629 46.7523C172.516 48.1419 171.319 49.0927 170.04 49.6047C168.761 50.1166 167.487 50.3283 166.218 50.2395ZM204.844 48.2134C203.096 48.0912 201.65 47.7375 200.506 47.1523C199.387 46.5448 198.504 45.8094 197.856 44.9462C197.234 44.0607 196.807 43.1167 196.576 42.1142C196.347 41.0878 196.258 40.1073 196.312 39.1729C196.35 38.502 196.512 37.7795 196.797 37.0056C197.081 36.2316 197.475 35.4412 197.978 34.6344C198.505 33.8293 199.1 33.101 199.762 32.4497C200.449 31.7761 201.212 31.2641 202.049 30.9137C202.888 30.5393 203.786 30.3856 204.744 30.4525C205.199 30.4844 205.586 30.6557 205.904 30.9667C206.248 31.2554 206.505 31.5981 206.675 31.9949C206.87 32.3694 206.957 32.7243 206.938 33.0598C206.926 33.2754 206.84 33.51 206.682 33.7635C206.548 33.9948 206.365 34.2466 206.133 34.5191C205.927 34.7692 205.696 35.0177 205.442 35.2646C205.211 35.5131 204.982 35.7376 204.754 35.9382C203.961 36.7728 203.16 37.5348 202.352 38.224C201.543 38.9132 200.695 39.4553 199.807 39.8503C198.943 40.2469 198.008 40.4101 197.002 40.3398C196.284 40.2896 195.66 40.27 195.131 40.2811C194.625 40.2938 194.166 40.3459 193.752 40.4372C193.362 40.5303 192.979 40.708 192.603 40.9704C192.204 41.2311 191.847 41.5791 191.534 42.0142C191.245 42.4511 191.003 42.8913 190.809 43.3348C190.616 43.7783 190.449 44.1636 190.31 44.4907C190.029 45.2168 189.662 45.7324 189.212 46.0378C188.786 46.3448 188.298 46.479 187.747 46.4405C187.029 46.3903 186.395 46.1174 185.847 45.622C185.324 45.1043 185.087 44.4021 185.138 43.5156C185.152 43.276 185.223 42.872 185.352 42.3036C185.506 41.713 185.675 41.0633 185.86 40.3545C186.069 39.6474 186.24 38.9618 186.375 38.2976C186.534 37.6111 186.628 37.0282 186.655 36.549C186.689 35.95 186.652 35.334 186.545 34.7009C186.462 34.0456 186.375 33.4622 186.284 32.9506C186.193 32.4391 186.156 32.0396 186.173 31.752C186.211 31.0811 186.485 30.4989 186.994 30.0052C187.503 29.5116 188.14 29.2915 188.907 29.3451C189.577 29.392 190.141 29.6238 190.597 30.0407C191.078 30.4592 191.408 30.9875 191.588 31.6255C191.668 31.9198 191.741 32.3218 191.808 32.8317C191.875 33.3416 191.925 33.9225 191.96 34.5744C192.02 35.2041 192.033 35.8185 191.999 36.4175C191.969 36.9446 191.887 37.5283 191.754 38.1686C191.645 38.8105 191.499 39.4738 191.316 40.1587C191.156 40.8451 190.988 41.4829 190.81 42.0718C190.657 42.6385 190.522 43.0982 190.406 43.4509C190.314 43.8053 190.267 43.9825 190.267 43.9825L185.842 42.5545C185.931 42.2719 186.074 41.873 186.271 41.3576C186.469 40.8422 186.704 40.3053 186.977 39.747C187.249 39.1887 187.592 38.6593 188.005 38.159C188.42 37.6347 188.879 37.1736 189.382 36.7758C190.132 36.2749 190.887 35.8947 191.647 35.6351C192.431 35.3772 193.305 35.2218 194.27 35.169C195.234 35.1161 196.375 35.1358 197.692 35.2278C197.883 35.2412 198.111 35.2451 198.376 35.2396C198.666 35.2118 198.956 35.1839 199.246 35.1561C199.56 35.1299 199.886 35.1046 200.224 35.0801C200.586 35.0573 200.935 35.0577 201.27 35.0811L204.906 35.8045C204.442 35.9404 204.01 36.1267 203.612 36.3635C203.214 36.6003 202.862 36.8764 202.555 37.1917C202.25 37.4831 202.001 37.8386 201.809 38.2582C201.642 38.6555 201.545 39.0817 201.519 39.537C201.488 40.0881 201.6 40.6492 201.855 41.2204C202.113 41.7676 202.507 42.2282 203.038 42.6022C203.594 42.9778 204.29 43.1949 205.128 43.2535C205.703 43.2937 206.234 43.2467 206.723 43.1124C207.213 42.9542 207.622 42.7303 207.951 42.4405C208.306 42.1285 208.578 41.7747 208.769 41.3791C208.961 40.9595 209.072 40.4982 209.101 39.995C209.134 39.4199 209.008 38.8819 208.725 38.3809C208.465 37.8816 208.008 37.4648 207.354 37.1304C206.701 36.772 205.825 36.5543 204.723 36.4773C204.125 36.4355 203.622 36.1958 203.214 35.7583C202.832 35.2986 202.654 34.8411 202.68 34.3858C202.709 33.8826 202.904 33.4151 203.265 32.9833C203.627 32.5275 204.056 32.1726 204.552 31.9186C205.048 31.6406 205.536 31.5183 206.015 31.5518C207.595 31.6623 208.922 31.9957 209.996 32.5519C211.095 33.0858 211.981 33.7733 212.654 34.6142C213.328 35.4312 213.806 36.3306 214.086 37.3124C214.366 38.2943 214.478 39.2884 214.42 40.2948C214.369 41.1813 214.124 42.1024 213.685 43.058C213.245 44.0136 212.617 44.9079 211.8 45.7409C210.984 46.5738 209.985 47.2257 208.804 47.6964C207.648 48.1449 206.329 48.3172 204.844 48.2134ZM4.61478 81.4594C4.15989 81.4275 3.74847 81.2665 3.3805 80.9761C3.01253 80.6858 2.72051 80.3285 2.50443 79.9045C2.31366 79.4581 2.22994 79.0313 2.25328 78.6239C2.2821 78.1208 2.47547 77.4727 2.83337 76.6798C3.21522 75.8886 3.68773 74.9834 4.25089 73.9643C4.838 72.9469 5.42854 71.8695 6.02251 70.7323C6.53642 69.7338 7.07358 68.7489 7.634 67.7777C8.1958 66.7826 8.72884 65.8696 9.23315 65.0388C9.73882 64.1841 10.1897 63.4458 10.5859 62.824C11.0061 62.2038 11.3088 61.7439 11.4943 61.4441C11.9931 60.7092 12.5569 60.0991 13.1856 59.6138C13.8383 59.1302 14.5477 58.9152 15.3138 58.9687C16.3672 59.0424 17.2958 59.408 18.0994 60.0656C18.9044 60.6993 19.588 61.565 20.15 62.6628C20.3901 63.0886 20.6776 63.7342 21.0126 64.5996C21.349 65.441 21.7018 66.4159 22.071 67.5243C22.4415 68.6087 22.8073 69.777 23.1682 71.0291C23.5306 72.2573 23.857 73.4829 24.1475 74.7061C24.4393 75.9053 24.6508 77.0387 24.782 78.1064C24.9384 79.1517 24.9954 80.0458 24.9528 80.7886C24.924 81.2918 24.7522 81.7729 24.4375 82.232C24.1241 82.6672 23.7197 83.0118 23.2244 83.2659C22.7291 83.5199 22.2062 83.6277 21.6555 83.5892C21.057 83.5473 20.597 83.3949 20.2755 83.1318C19.9794 82.8465 19.7626 82.4344 19.6252 81.8955C19.4878 81.3567 19.3467 80.6732 19.2018 79.8452C18.9702 78.4337 18.6815 76.9701 18.3356 75.4544C17.9898 73.9387 17.5926 72.4795 17.1441 71.077C16.721 69.6521 16.2769 68.3821 15.812 67.267C15.3723 66.1297 14.9535 65.2584 14.5555 64.6532L16.0238 64.8281C15.6146 65.2565 15.2 65.7808 14.7799 66.401C14.3837 67.0228 13.9721 67.7037 13.5451 68.4437C13.1195 69.1597 12.6911 69.9236 12.26 70.7354C11.8529 71.5489 11.4331 72.3736 11.0006 73.2094C10.4039 74.3946 9.86259 75.4513 9.37674 76.3796C8.91483 77.3096 8.49707 78.0983 8.12345 78.7457C7.74984 79.3932 7.43234 79.9002 7.17097 80.2669C6.8309 80.7483 6.46316 81.0834 6.06775 81.2723C5.69764 81.4388 5.21332 81.5012 4.61478 81.4594ZM48.2894 85.9207C46.5417 85.7985 45.095 85.4568 43.9493 84.8955C42.8289 84.312 41.9569 83.5894 41.3332 82.7279C40.7095 81.8664 40.2815 80.9463 40.0491 79.9678C39.8167 78.9893 39.7266 78.0448 39.7787 77.1343C39.8144 76.5113 39.9732 75.8368 40.2552 75.1107C40.5385 74.3607 40.9296 73.6183 41.4284 72.8833C41.9286 72.1244 42.5204 71.4441 43.2039 70.8424C43.8874 70.2406 44.6351 69.7757 45.4472 69.4476C46.2831 69.1211 47.168 68.9906 48.1017 69.0559C48.5566 69.0877 48.9554 69.2599 49.298 69.5725C49.6421 69.8612 49.8989 70.2039 50.0684 70.6007C50.2394 70.9735 50.3159 71.3156 50.2981 71.6271C50.2843 71.8667 50.2108 72.1022 50.0773 72.3334C49.9439 72.5646 49.7612 72.8165 49.5293 73.089C49.3226 73.3391 49.104 73.5885 48.8735 73.837C48.6429 74.0855 48.4144 74.298 48.1879 74.4746C47.4004 75.2134 46.5924 75.8907 45.7639 76.5063C44.9594 77.1237 44.1152 77.5939 43.2313 77.917C42.3728 78.2178 41.4407 78.333 40.4352 78.2627C39.6691 78.2092 39.0093 78.1871 38.4559 78.1965C37.9039 78.1819 37.4083 78.2315 36.9691 78.3451C36.5313 78.4348 36.1133 78.598 35.7151 78.8348C35.3156 79.0955 34.9725 79.4204 34.6858 79.8093C34.4244 80.1759 34.1983 80.557 34.0073 80.9526C33.8178 81.3243 33.6549 81.6497 33.5187 81.9289C33.2368 82.6549 32.8707 83.1706 32.4205 83.4759C31.9943 83.7829 31.5059 83.9171 30.9552 83.8786C30.237 83.8284 29.6036 83.5556 29.0551 83.0601C28.5305 82.5664 28.2943 81.8642 28.3464 80.9537C28.3602 80.7141 28.43 80.3341 28.556 79.8137C28.7073 79.2709 28.8739 78.6691 29.056 78.0083C29.2381 77.3474 29.3949 76.7089 29.5263 76.0926C29.6831 75.454 29.7738 74.9191 29.7985 74.4878C29.8287 73.9607 29.7998 73.4174 29.7116 72.8579C29.6248 72.2745 29.5347 71.7509 29.441 71.2873C29.3474 70.8237 29.3068 70.484 29.3191 70.2684C29.3575 69.5975 29.6313 69.0152 30.1403 68.5216C30.6493 68.0279 31.2869 67.8079 32.053 67.8615C32.7234 67.9083 33.299 68.141 33.7798 68.5596C34.2606 68.9781 34.5789 69.5055 34.7348 70.1419C34.8182 70.3643 34.8821 70.7175 34.9265 71.2018C34.9961 71.6637 35.0511 72.1728 35.0914 72.7289C35.1569 73.2627 35.1739 73.8052 35.1424 74.3563C35.1163 74.8115 35.0375 75.3473 34.9061 75.9636C34.7999 76.5576 34.6685 77.1739 34.5117 77.8124C34.3563 78.427 34.191 79.0049 34.0158 79.5459C33.8645 80.0886 33.7307 80.5364 33.6143 80.8891C33.5219 81.2435 33.4757 81.4207 33.4757 81.4207L29.0526 79.9566C29.1648 79.6758 29.3058 79.3128 29.4755 78.8676C29.6706 78.4001 29.9029 77.9111 30.1725 77.4007C30.4661 76.892 30.7942 76.4098 31.1568 75.954C31.5447 75.4759 32.0011 75.0628 32.5258 74.7146C33.2996 74.2154 34.0784 73.8368 34.8624 73.5789C35.6703 73.3227 36.5685 73.169 37.557 73.1178C38.5707 73.0444 39.748 73.0545 41.0887 73.1483C41.3042 73.1633 41.5436 73.1801 41.807 73.1985C42.0956 73.1946 42.3956 73.2036 42.7068 73.2253C43.0434 73.2248 43.3799 73.2243 43.7165 73.2238C44.077 73.2249 44.4242 73.2492 44.758 73.2966L48.268 74.3359C47.8527 74.4512 47.4474 74.6033 47.052 74.7921C46.6805 74.9827 46.3429 75.2117 46.0391 75.4791C45.7607 75.7243 45.5154 76.0198 45.3033 76.3659C45.1151 76.7136 45.0093 77.0911 44.986 77.4984C44.9572 78.0016 45.06 78.514 45.2946 79.0355C45.553 79.5588 45.9487 79.9954 46.4815 80.3454C47.0382 80.6971 47.7356 80.9022 48.5735 80.9608C49.1481 81.001 49.655 80.9643 50.0942 80.8507C50.5348 80.7131 50.9189 80.5114 51.2466 80.2456C51.5743 79.9799 51.8323 79.6731 52.0205 79.3254C52.21 78.9538 52.3178 78.5403 52.3439 78.0851C52.3713 77.6059 52.2531 77.1525 51.9891 76.7251C51.7265 76.2737 51.2789 75.9056 50.6462 75.6208C50.0135 75.336 49.1585 75.156 48.0811 75.0806C47.5065 75.0404 47.0161 74.7896 46.6098 74.3282C46.2275 73.8685 46.0494 73.4109 46.0755 72.9557C46.103 72.4765 46.2853 72.0201 46.6227 71.5866C46.9853 71.1309 47.415 70.764 47.9116 70.486C48.4322 70.2096 48.932 70.0882 49.4108 70.1217C50.9431 70.2288 52.2468 70.5485 53.322 71.0808C54.3986 71.5891 55.2628 72.2389 55.9146 73.0303C56.5677 73.7976 57.0365 74.6363 57.3209 75.5463C57.6053 76.4563 57.7207 77.3785 57.6672 78.313C57.6191 79.1516 57.3761 80.0367 56.9381 80.9684C56.5002 81.9 55.8741 82.7584 55.0599 83.5434C54.2697 84.3301 53.3088 84.9486 52.1773 85.3987C51.0458 85.8488 49.7499 86.0228 48.2894 85.9207ZM69.6863 92.6853C67.9386 92.5631 66.4621 92.1111 65.257 91.3291C64.0744 90.5729 63.1217 89.5801 62.3989 88.3507C61.6774 87.0974 61.1698 85.6787 60.8759 84.0945C60.6074 82.4879 60.5232 80.8101 60.6234 79.061C60.7333 77.1441 61.0321 75.4931 61.5201 74.1079C62.0081 72.7226 62.6281 71.5511 63.38 70.5933C64.1334 69.6116 64.9469 68.8385 65.8205 68.2741C66.6955 67.6858 67.5496 67.2523 68.3829 66.9738C69.2161 66.6953 70.1762 66.5098 71.2632 66.4174C72.3515 66.3011 73.3807 66.1686 74.3507 66.0199C75.4404 65.8796 76.3506 65.7267 77.0812 65.5613C77.8371 65.3736 78.4425 65.2956 78.8974 65.3274C79.3283 65.3576 79.7538 65.4835 80.1738 65.7054C80.5937 65.9272 80.9357 66.2518 81.1997 66.6792C81.465 67.0827 81.5798 67.5959 81.5441 68.2189C81.5085 68.8419 81.2269 69.3514 80.6994 69.7476C80.1972 70.1214 79.5196 70.4108 78.6666 70.6158C77.3545 70.8608 76.169 70.9945 75.1101 71.0166C74.0751 71.0405 73.1233 71.0822 72.2545 71.1417C71.3871 71.1773 70.5734 71.3249 69.8134 71.5845C69.1519 71.8028 68.5399 72.2051 67.9775 72.7912C67.4151 73.3774 66.9628 74.1396 66.6206 75.078C66.2784 76.0163 66.0689 77.1564 65.992 78.4982C65.8863 80.3431 65.9513 81.9354 66.1871 83.275C66.4228 84.6146 66.8553 85.6673 67.4845 86.433C68.115 87.1747 68.957 87.5824 70.0105 87.6561C70.633 87.6996 71.2271 87.6089 71.7928 87.3838C72.3825 87.1604 72.8939 86.8353 73.327 86.4085C73.7854 85.9594 74.1501 85.4677 74.4211 84.9334C74.6921 84.399 74.844 83.8443 74.877 83.2693C74.914 82.6223 74.7893 82.0723 74.5027 81.6193C74.2415 81.1439 73.8777 80.7817 73.4112 80.5325C72.9447 80.2834 72.3883 80.1363 71.7418 80.091C70.6884 80.0174 69.6192 80.2193 68.5342 80.6967C67.4745 81.1519 66.4757 81.8037 65.5377 82.6523L63.4735 80.9202C63.9929 79.8258 64.735 78.8313 65.6997 77.9365C66.6883 77.0433 67.7969 76.3631 69.0256 75.8957C70.2795 75.406 71.5888 75.2089 72.9535 75.3043C74.3661 75.4031 75.6431 75.769 76.7847 76.4022C77.9502 77.037 78.8612 77.9186 79.5177 79.047C80.1742 80.1755 80.4557 81.5544 80.3624 83.1837C80.2938 84.3818 79.9618 85.5614 79.3664 86.7226C78.7964 87.8615 78.0157 88.9015 77.0243 89.8425C76.0569 90.7853 74.9455 91.5135 73.6902 92.0271C72.4335 92.5647 71.0989 92.7841 69.6863 92.6853ZM92.4598 88.6125C90.5205 88.4769 88.83 87.9858 87.3882 87.1392C85.9463 86.2926 84.8315 85.1922 84.0438 83.8381C83.2813 82.4617 82.9474 80.9468 83.0421 79.2935C83.1066 78.1673 83.4205 77.0947 83.9836 76.0756C84.5468 75.0565 85.2594 74.1561 86.1215 73.3744C87.0075 72.5943 87.955 71.999 88.964 71.5885C89.997 71.1796 90.9924 71.0086 91.95 71.0756C92.357 71.104 92.736 71.2027 93.0869 71.3716C93.4391 71.5165 93.7148 71.7402 93.9138 72.0428C94.1367 72.3471 94.2351 72.7269 94.2091 73.1821C94.161 74.0207 93.9403 74.727 93.5468 75.3009C93.1534 75.8748 92.4077 76.3038 91.3098 76.5879C90.8692 76.7255 90.4232 76.9589 89.9716 77.2882C89.5454 77.5952 89.1876 77.9671 88.8981 78.4039C88.634 78.8185 88.4868 79.2893 88.4567 79.8165C88.399 80.8228 88.7361 81.6523 89.4679 82.3049C90.225 82.9352 91.274 83.2972 92.6147 83.391C93.7399 83.4696 94.6676 83.2218 95.3976 82.6473C96.1529 82.0506 96.56 81.2371 96.619 80.2068C96.6753 79.2244 96.4207 78.4248 95.8551 77.8079C95.2895 77.1909 94.5039 76.8473 93.4983 76.777C92.9477 76.7385 92.4853 76.8385 92.111 77.0769C91.7368 77.3154 91.3085 77.6583 90.8262 78.1057C90.4971 78.3955 90.1954 78.627 89.9211 78.8002C89.6467 78.9735 89.3751 79.0988 89.1063 79.1763C88.8388 79.2297 88.5255 79.2439 88.1664 79.2188C87.7354 79.1887 87.3606 79.0181 87.0419 78.7071C86.7246 78.3722 86.5906 77.7735 86.64 76.9109C86.6784 76.24 86.9084 75.5825 87.3299 74.9384C87.7514 74.2942 88.2772 73.7176 88.9073 73.2083C89.5614 72.7008 90.2691 72.3052 91.0305 72.0216C91.8158 71.7398 92.5916 71.6256 93.3577 71.6792C95.297 71.8148 96.9297 72.2658 98.2559 73.0321C99.5836 73.7745 100.572 74.7698 101.222 76.018C101.871 77.2663 102.148 78.729 102.052 80.4063C101.957 82.0596 101.465 83.5287 100.574 84.8135C99.7068 86.1001 98.5683 87.091 97.1584 87.7863C95.7498 88.4576 94.1836 88.733 92.4598 88.6125ZM112.066 92.7259C110.797 92.6372 109.707 92.3565 108.797 91.8839C107.911 91.4129 107.189 90.7971 106.631 90.0365C106.099 89.2535 105.716 88.3847 105.483 87.4302C105.274 86.4533 105.201 85.4258 105.263 84.3476C105.318 83.3891 105.432 82.4469 105.605 81.5208C105.779 80.5707 105.973 79.7182 106.184 78.9631C106.397 78.1842 106.6 77.5729 106.794 77.1294C107.063 76.619 107.413 76.1743 107.844 75.7955C108.299 75.3943 108.798 75.0804 109.34 74.8536C109.882 74.6269 110.404 74.5311 110.907 74.5663C111.41 74.6014 111.821 74.7625 112.141 75.0495C112.461 75.3365 112.608 75.7196 112.58 76.1988C112.558 76.5822 112.448 77.0436 112.248 77.583C112.051 78.0984 111.823 78.7199 111.565 79.4477C111.332 80.1531 111.106 80.9552 110.886 81.854C110.69 82.7544 110.559 83.7917 110.491 84.9658C110.438 85.9003 110.586 86.6804 110.934 87.3062C111.284 87.908 111.854 88.2366 112.645 88.2918C113.387 88.3437 114.116 88.2023 114.832 87.8674C115.55 87.5087 116.181 86.9874 116.725 86.3038C117.292 85.6218 117.678 84.7587 117.883 83.7145L119.021 85.2375C118.455 85.0535 117.803 84.8877 117.067 84.7399C116.331 84.5682 115.558 84.43 114.747 84.3251C113.937 84.1963 113.138 84.0923 112.349 84.0131C111.561 83.9099 110.868 83.8494 110.268 83.8315L110.966 80.4523C111.687 80.4546 112.425 80.3739 113.18 80.2101C113.934 80.0464 114.608 79.8169 115.202 79.5216C115.82 79.228 116.319 78.9021 116.7 78.5438C117.081 78.1855 117.283 77.8147 117.305 77.4314C117.324 77.0959 117.219 76.8359 116.989 76.6515C116.759 76.467 116.417 76.3589 115.962 76.3271C115.459 76.2919 114.904 76.3253 114.298 76.4272C113.691 76.5291 113.071 76.6541 112.437 76.8023C111.829 76.9282 111.212 77.0053 110.585 77.0336C109.818 77.004 109.267 76.749 108.934 76.2687C108.601 75.7883 108.451 75.2726 108.482 74.7215C108.515 74.1464 108.8 73.577 109.337 73.0131C109.874 72.4492 110.583 72.0417 111.462 71.7905C112.29 71.6078 113.296 71.4616 114.48 71.352C115.688 71.244 116.759 71.2226 117.693 71.2879C118.866 71.37 119.861 71.62 120.679 72.038C121.496 72.456 122.125 73.0172 122.565 73.7216C123.007 74.402 123.202 75.1975 123.15 76.108C123.103 76.9226 122.83 77.6974 122.332 78.4324C121.833 79.1673 121.17 79.8186 120.345 80.3864C119.543 80.9558 118.626 81.433 117.595 81.8179C116.587 82.2045 115.525 82.4911 114.408 82.6776L114.917 80.7285C115.97 80.8022 116.986 80.9093 117.963 81.0498C118.942 81.1664 119.808 81.3712 120.56 81.6644C121.312 81.9576 121.902 82.3717 122.328 82.9067C122.779 83.4193 122.981 84.095 122.933 84.9336C122.878 85.8921 122.546 86.8552 121.938 87.823C121.33 88.7909 120.523 89.6606 119.517 90.4323C118.535 91.2056 117.395 91.8115 116.096 92.2499C114.822 92.666 113.479 92.8247 112.066 92.7259ZM133.493 96.8224C132.08 96.7236 130.894 96.4482 129.935 95.9962C128.999 95.5458 128.263 94.9651 127.727 94.2541C127.189 93.5669 126.813 92.7949 126.598 91.9378C126.406 91.0825 126.336 90.2115 126.387 89.3249C126.462 88.0071 126.655 86.7336 126.966 85.5044C127.301 84.2768 127.494 83.2078 127.546 82.2973C127.579 81.7222 127.559 81.2397 127.485 80.8496C127.437 80.4372 127.422 80.0633 127.441 79.7279C127.467 79.2726 127.588 78.848 127.803 78.4541C128.041 78.0618 128.359 77.7593 128.756 77.5465C129.178 77.3114 129.641 77.2114 130.143 77.2466C131.029 77.3085 131.73 77.6702 132.245 78.3317C132.783 78.9949 133.02 79.9015 132.954 81.0516C132.924 81.5787 132.854 82.1752 132.743 82.8411C132.659 83.4847 132.548 84.1506 132.413 84.8388C132.277 85.5269 132.156 86.18 132.048 86.7979C131.966 87.3936 131.911 87.931 131.884 88.4103C131.852 88.9614 131.845 89.5022 131.863 90.0326C131.88 90.5631 132.035 91.007 132.327 91.3642C132.619 91.7214 133.124 91.9251 133.843 91.9753C134.274 92.0055 134.71 91.9398 135.152 91.7782C135.618 91.6183 136.04 91.3832 136.418 91.0729C136.821 90.7642 137.155 90.3906 137.42 89.9521C137.687 89.4897 137.835 88.9949 137.866 88.4677C137.874 88.324 137.736 88.2061 137.453 88.1141C137.17 88.0221 136.789 87.9594 136.31 87.9259C135.664 87.8807 134.967 87.8681 134.221 87.8881C133.475 87.9081 132.776 87.9434 132.124 87.994C131.497 88.0224 131.015 88.0488 130.677 88.0733C130.198 88.0398 129.735 87.9473 129.287 87.7957C128.864 87.6218 128.517 87.381 128.246 87.0734C128.001 86.7435 127.893 86.3269 127.921 85.8238C127.96 85.1529 128.178 84.699 128.576 84.4622C128.998 84.2271 129.527 84.0235 130.162 83.8514C130.502 83.779 130.976 83.6918 131.583 83.5899C132.214 83.4897 132.903 83.4056 133.652 83.3377C134.427 83.2475 135.2 83.1813 135.971 83.139C136.743 83.0967 137.452 83.0982 138.099 83.1434C139.32 83.2288 140.325 83.5036 141.116 83.9679C141.908 84.4082 142.473 85.0371 142.811 85.8545C143.174 86.6497 143.323 87.6104 143.259 88.7366C143.195 89.8388 142.858 90.8978 142.247 91.9135C141.638 92.9053 140.854 93.7887 139.896 94.5637C138.94 95.3148 137.897 95.8914 136.768 96.2936C135.662 96.7215 134.57 96.8977 133.493 96.8224Z" fill="#F5B02B"/>
</svg>
