<svg width="382" height="279" viewBox="0 0 382 279" fill="none" xmlns="http://www.w3.org/2000/svg">
<g opacity="0.7">
<path d="M66.7774 175.366C66.1918 175.501 65.6271 175.418 65.0831 175.117C64.5616 174.81 64.1466 174.348 63.8382 173.731C63.4206 172.95 63.0714 172.105 62.7907 171.197C62.51 170.289 62.276 169.43 62.0888 168.619C61.8661 167.654 61.6929 166.795 61.5692 166.041C60.8813 167.155 60.0687 168.112 59.1316 168.91C58.1009 169.789 56.955 170.374 55.6938 170.665C54.6579 170.904 53.7553 170.899 52.9861 170.65C52.2168 170.4 51.5628 169.982 51.024 169.395C50.4799 168.785 50.0243 168.095 49.6569 167.326C49.3069 166.529 49.0383 165.725 48.8511 164.914C48.7107 164.306 48.5721 163.602 48.4351 162.803C48.3155 161.977 48.1725 161.203 48.0061 160.482C47.8346 159.739 47.8614 159.033 48.0865 158.364C48.329 157.668 48.7993 157.239 49.4974 157.077C49.9704 156.968 50.4494 156.988 50.9345 157.137C51.4421 157.281 51.8917 157.533 52.2832 157.893C52.6748 158.254 52.9356 158.715 53.0655 159.279C53.1331 159.571 53.1938 159.937 53.2476 160.375C53.3238 160.809 53.4053 161.264 53.492 161.743C53.5734 162.198 53.6687 162.663 53.7779 163.136C53.8975 163.654 54.0491 164.105 54.2328 164.49C54.4113 164.852 54.6391 165.12 54.9163 165.293C55.2109 165.438 55.5495 165.467 55.9324 165.378C56.4729 165.254 56.9744 164.96 57.4369 164.497C57.9167 164.007 58.3533 163.432 58.7465 162.771C59.1345 162.089 59.4722 161.394 59.7597 160.687C60.042 159.957 60.2646 159.277 60.4274 158.646C60.6664 157.832 60.8508 157.089 60.9807 156.419C61.1279 155.72 61.2924 155.149 61.4743 154.703C61.6786 154.253 61.961 153.986 62.3213 153.903C62.7943 153.793 63.2733 153.813 63.7584 153.962C64.266 154.106 64.7017 154.349 65.0655 154.693C65.4519 155.03 65.7049 155.458 65.8245 155.976C65.9752 156.63 66.0663 157.487 66.0976 158.547C66.1236 159.585 66.1965 160.826 66.3162 162.269C66.4584 163.707 66.7401 165.339 67.1612 167.163C67.3432 167.951 67.5511 168.698 67.7851 169.403C68.0363 170.081 68.2555 170.671 68.4427 171.173C68.6524 171.671 68.7858 172.043 68.843 172.291C68.947 172.742 68.908 173.189 68.7262 173.635C68.5616 174.052 68.3027 174.421 67.9493 174.74C67.6184 175.053 67.2278 175.262 66.7774 175.366Z" fill="#73B064"/>
<path d="M72.2605 164.597C71.5623 164.759 70.8858 164.654 70.2309 164.283C69.5985 163.907 69.2018 163.37 69.0406 162.672C68.9262 162.176 68.9651 161.728 69.1574 161.328C69.3445 160.905 69.6849 160.53 70.1786 160.203C70.894 159.705 71.9412 159.155 73.3201 158.552C74.7216 157.943 76.5371 157.382 78.7667 156.867C80.1405 156.55 81.3756 156.3 82.4722 156.118C83.5914 155.931 84.7997 155.77 86.0973 155.637C86.9115 155.568 87.5906 155.684 88.1346 155.985C88.6959 156.259 89.0468 156.7 89.1872 157.308C89.2808 157.713 89.2505 158.147 89.0964 158.61C88.9595 159.045 88.717 159.433 88.3689 159.775C88.0155 160.093 87.5798 160.313 87.0618 160.432C86.6339 160.531 86.0319 160.646 85.2558 160.778C84.4745 160.887 83.6144 161.015 82.6754 161.16C82.3618 161.209 82.0529 161.261 81.7486 161.315C81.7849 161.467 81.821 161.621 81.8569 161.777C82.0354 162.447 82.1896 163.064 82.3196 163.627C82.4964 164.393 82.6974 165.058 82.9227 165.623C83.1428 166.165 83.3585 166.638 83.5699 167.04C83.7813 167.442 83.971 167.801 84.1391 168.118C84.302 168.413 84.4172 168.706 84.4848 168.999C84.5888 169.45 84.5585 169.884 84.394 170.301C84.2242 170.697 83.9601 171.042 83.6015 171.339C83.2654 171.63 82.8496 171.833 82.3542 171.947C81.8137 172.072 81.3347 172.052 80.9172 171.887C80.5169 171.695 80.1055 171.351 79.6827 170.856C79.3154 170.395 78.9567 169.766 78.6067 168.969C78.2792 168.166 77.9699 167.289 77.6787 166.336C77.4049 165.355 77.1614 164.403 76.9483 163.479C76.8834 163.198 76.8183 162.929 76.753 162.672L76.2622 162.819C75.3354 163.223 74.5775 163.588 73.9885 163.914C73.3995 164.24 72.8235 164.467 72.2605 164.597Z" fill="#73B064"/>
<path fill-rule="evenodd" clip-rule="evenodd" d="M130.792 162.008C131.758 162.188 132.85 162.137 134.066 161.857C135.372 161.555 136.548 161.046 137.592 160.331C138.654 159.587 139.538 158.742 140.245 157.796C140.969 156.822 141.484 155.814 141.788 154.771C142.093 153.727 142.142 152.755 141.934 151.854C141.757 151.088 141.394 150.544 140.845 150.22C140.313 149.868 139.635 149.657 138.812 149.586C138.363 149.543 137.888 149.536 137.388 149.565C137.718 149.24 138.019 148.907 138.293 148.567C138.918 147.782 139.364 146.991 139.631 146.194C139.92 145.391 139.976 144.607 139.799 143.841C139.612 143.03 139.228 142.395 138.648 141.936C138.09 141.472 137.372 141.187 136.494 141.081C135.638 140.971 134.669 141.04 133.588 141.29C132.665 141.503 131.661 141.829 130.577 142.27C129.515 142.705 128.545 143.178 127.666 143.689C126.986 144.131 126.469 144.666 126.115 145.293C125.912 145.656 125.793 146.008 125.758 146.349C125.681 146.442 125.607 146.538 125.536 146.637C125.231 147.063 125.027 147.514 124.923 147.988C124.8 148.586 124.736 149.336 124.731 150.239C124.725 151.142 124.781 152.102 124.897 153.119C125.013 154.136 125.181 155.118 125.399 156.064C125.638 157.1 125.997 158.037 126.475 158.876C126.948 159.692 127.544 160.373 128.263 160.919C129.005 161.459 129.847 161.822 130.792 162.008ZM130.386 155.162C130.588 156.04 130.938 156.73 131.433 157.233C131.929 157.735 132.582 157.893 133.392 157.706C134.046 157.555 134.648 157.238 135.201 156.754C135.776 156.266 136.227 155.651 136.555 154.911C136.764 154.417 136.89 153.886 136.932 153.32C136.734 153.331 136.525 153.347 136.305 153.368C135.609 153.433 134.867 153.51 134.081 153.596C133.294 153.683 132.538 153.798 131.812 153.942C131.217 154.041 130.678 154.143 130.194 154.247C130.25 154.545 130.314 154.85 130.386 155.162ZM129.941 149.534C130 148.762 130.045 148.036 130.078 147.459C130.509 147.215 130.948 146.976 131.396 146.743C131.962 146.422 132.538 146.194 133.124 146.059C133.597 145.95 133.964 145.948 134.226 146.054C134.482 146.137 134.644 146.325 134.712 146.618C134.795 146.978 134.709 147.378 134.454 147.816C134.195 148.232 133.808 148.665 133.296 149.116C132.783 149.566 132.201 149.973 131.549 150.337C131.015 150.62 130.463 150.858 129.891 151.048C129.884 150.504 129.901 149.999 129.941 149.534Z" fill="#73B064"/>
<path d="M130.078 147.459C130.045 148.036 130 148.762 129.941 149.534C129.901 149.999 129.884 150.504 129.891 151.048C130.463 150.858 131.015 150.62 131.549 150.337C132.201 149.973 132.783 149.566 133.296 149.116C133.808 148.665 134.195 148.232 134.454 147.816C134.709 147.378 134.795 146.978 134.712 146.618C134.644 146.325 134.482 146.137 134.226 146.054C133.964 145.948 133.597 145.95 133.124 146.059C132.538 146.194 131.962 146.422 131.396 146.743C130.948 146.976 130.509 147.215 130.078 147.459Z" fill="#FFE49F"/>
<path fill-rule="evenodd" clip-rule="evenodd" d="M153.262 158.065C151.955 158.366 150.783 158.376 149.746 158.093C148.703 157.789 147.83 157.243 147.126 156.456C146.44 155.642 145.954 154.615 145.668 153.376C145.377 152.115 145.139 150.983 144.956 149.982C144.772 148.98 144.636 148.134 144.547 147.443C144.459 146.751 144.398 146.231 144.365 145.883C144.329 145.417 144.383 144.93 144.526 144.422C144.665 143.892 144.892 143.436 145.207 143.055C145.517 142.651 145.897 142.398 146.348 142.294C146.956 142.153 147.527 142.211 148.06 142.468C148.611 142.696 148.962 143.137 149.113 143.79C149.205 144.188 149.306 144.701 149.418 145.329C149.618 145.208 149.823 145.085 150.032 144.96C150.153 144.887 150.275 144.813 150.399 144.739C151.255 144.233 152.131 143.71 153.026 143.171C153.917 142.61 154.793 142.04 155.656 141.461C156.683 140.773 157.581 140.091 158.351 139.415C159.142 138.734 159.837 138.147 160.434 137.653C161.055 137.154 161.624 136.844 162.142 136.725C163.38 136.439 164.404 136.558 165.213 137.083C166.017 137.585 166.554 138.422 166.825 139.594C166.97 140.224 167.118 140.914 167.267 141.663C167.41 142.389 167.581 143.18 167.779 144.036C167.883 144.486 168.011 144.99 168.163 145.548C168.316 146.106 168.494 146.67 168.696 147.24C168.922 147.805 169.153 148.345 169.39 148.859C169.531 149.159 169.655 149.439 169.762 149.699C169.892 149.954 169.98 150.182 170.027 150.385C170.131 150.836 170.106 151.292 169.952 151.755C169.815 152.19 169.564 152.592 169.198 152.961C168.828 153.308 168.361 153.546 167.798 153.676C167.055 153.847 166.434 153.777 165.935 153.465C165.453 153.126 165.08 152.69 164.814 152.158C164.376 151.287 164.009 150.363 163.712 149.388C163.411 148.39 163.159 147.451 162.956 146.573L162.55 144.816C162.438 144.225 162.33 143.657 162.228 143.111C162.167 142.784 162.106 142.478 162.046 142.193C161.925 142.289 161.796 142.39 161.659 142.495C161.016 142.999 160.23 143.548 159.299 144.143C158.405 144.715 157.45 145.311 156.435 145.933C156.637 146.012 156.836 146.1 157.034 146.196C157.728 146.534 158.343 146.986 158.876 147.55C159.41 148.115 159.783 148.859 159.996 149.783C160.215 150.729 160.167 151.654 159.854 152.556C159.54 153.459 159.043 154.286 158.362 155.036C157.682 155.786 156.893 156.431 155.998 156.97C155.097 157.486 154.185 157.851 153.262 158.065ZM150.548 151.858C150.434 151.362 150.338 150.898 150.262 150.465C150.215 150.197 150.17 149.937 150.126 149.686C150.628 149.663 151.132 149.65 151.639 149.649C152.161 149.647 152.589 149.655 152.926 149.672C153.435 149.72 153.865 149.835 154.215 150.015C154.587 150.19 154.823 150.491 154.921 150.919C154.989 151.212 154.961 151.503 154.838 151.793C154.733 152.054 154.568 152.318 154.345 152.583C154.121 152.848 153.874 153.059 153.602 153.217C153.33 153.375 153.07 153.482 152.822 153.539C152.259 153.669 151.776 153.579 151.372 153.269C150.963 152.937 150.688 152.466 150.548 151.858Z" fill="#73B064"/>
<path fill-rule="evenodd" clip-rule="evenodd" d="M183.858 153.811C182.214 154.191 180.731 154.189 179.409 153.806C178.115 153.441 176.969 152.792 175.971 151.86C174.968 150.905 174.117 149.737 173.419 148.356C172.738 146.948 172.207 145.421 171.828 143.777C171.412 141.975 171.242 140.365 171.318 138.948C171.394 137.53 171.65 136.273 172.084 135.176C172.514 134.057 173.055 133.113 173.708 132.345C174.356 131.555 175.026 130.914 175.719 130.422C176.412 129.93 177.247 129.488 178.224 129.096C179.196 128.682 180.109 128.269 180.963 127.859C181.93 127.422 182.728 127.024 183.356 126.665C184.003 126.279 184.54 126.036 184.967 125.938C185.373 125.844 185.799 125.84 186.246 125.927C186.693 126.014 187.096 126.217 187.454 126.538C187.808 126.836 188.052 127.278 188.187 127.863C188.322 128.449 188.2 128.999 187.821 129.514C187.459 130.001 186.912 130.459 186.181 130.889C185.038 131.485 183.981 131.943 183.011 132.261C182.064 132.575 181.197 132.882 180.413 133.182C179.623 133.459 178.913 133.825 178.282 134.279C177.731 134.667 177.276 135.211 176.915 135.911C176.555 136.611 176.344 137.443 176.281 138.406C176.233 139.153 176.291 139.988 176.455 140.913C177.08 139.978 177.834 139.168 178.719 138.484C179.743 137.678 180.896 137.127 182.18 136.831C183.509 136.524 184.785 136.502 186.008 136.765C187.254 137.024 188.331 137.581 189.241 138.439C190.15 139.297 190.782 140.491 191.135 142.023C191.395 143.149 191.408 144.333 191.172 145.574C190.954 146.786 190.515 147.967 189.855 149.116C189.218 150.26 188.39 151.246 187.371 152.074C186.358 152.925 185.187 153.504 183.858 153.811ZM180.141 148.655C179.355 148.124 178.672 147.274 178.093 146.102C177.948 145.809 177.809 145.497 177.675 145.168C178.23 144.354 178.859 143.65 179.561 143.059C180.433 142.312 181.364 141.824 182.355 141.595C182.963 141.455 183.515 141.434 184.013 141.533C184.51 141.631 184.943 141.863 185.312 142.229C185.698 142.567 185.962 143.04 186.102 143.648C186.227 144.189 186.236 144.744 186.131 145.314C186.025 145.884 185.822 146.441 185.52 146.985C185.236 147.502 184.853 147.946 184.369 148.319C183.908 148.686 183.385 148.938 182.8 149.073C181.809 149.302 180.923 149.162 180.141 148.655Z" fill="#73B064"/>
<path d="M200.022 145.345C199.121 145.553 198.322 145.536 197.626 145.293C196.947 145.023 196.349 144.592 195.833 143.999C195.334 143.379 194.909 142.67 194.559 141.873C194.209 141.076 193.93 140.227 193.722 139.326C193.582 138.718 193.456 138.071 193.345 137.385L192.997 135.258C192.903 134.545 192.822 133.887 192.755 133.286C192.687 132.685 192.645 132.196 192.63 131.82C192.55 130.96 192.646 130.298 192.918 129.831C193.207 129.338 193.6 129.033 194.095 128.919C194.613 128.799 195.129 128.823 195.641 128.989C196.172 129.128 196.632 129.377 197.024 129.738C197.438 130.093 197.707 130.541 197.832 131.081C197.895 131.352 197.947 131.731 197.988 132.22C198.025 132.686 198.049 133.202 198.061 133.769C198.096 134.33 198.144 134.9 198.207 135.479C198.269 136.058 198.358 136.595 198.472 137.09C198.581 137.563 198.699 138.023 198.826 138.468C198.952 138.913 199.108 139.281 199.293 139.57C199.501 139.854 199.74 139.965 200.011 139.903C200.529 139.783 200.979 139.216 201.362 138.203C201.739 137.166 202.044 135.815 202.276 134.148C202.498 133.053 202.662 132.018 202.77 131.044C202.899 130.065 203.036 129.168 203.18 128.352C203.346 127.53 203.583 126.859 203.889 126.337C204.213 125.788 204.679 125.443 205.287 125.303C206.21 125.089 206.968 125.187 207.561 125.596C208.176 126 208.637 126.558 208.944 127.27C209.186 127.807 209.466 128.454 209.783 129.211C210.123 129.963 210.448 130.707 210.76 131.441C211.09 132.148 211.393 132.743 211.67 133.224C212.169 134.153 212.652 134.908 213.118 135.488C213.601 136.041 214.021 136.525 214.378 136.941C214.73 137.334 214.963 137.778 215.077 138.274C215.187 138.747 215.167 139.226 215.018 139.711C214.864 140.174 214.601 140.579 214.23 140.925C213.882 141.267 213.46 141.495 212.965 141.609C211.997 141.833 211.103 141.505 210.283 140.627C209.486 139.743 208.661 138.534 207.809 136.999C207.402 136.262 207.017 135.521 206.655 134.774L206.53 134.516C206.467 134.978 206.398 135.457 206.322 135.954C206.049 137.749 205.603 139.311 204.985 140.64C204.361 141.947 203.633 143.005 202.799 143.814C201.961 144.601 201.035 145.111 200.022 145.345Z" fill="#73B064"/>
<path fill-rule="evenodd" clip-rule="evenodd" d="M229.155 140.184C227.737 140.511 226.417 140.602 225.198 140.457L225.184 140.455L225.221 140.558C225.634 141.626 225.975 142.745 226.245 143.916C226.453 144.817 226.611 145.706 226.719 146.583C226.849 147.455 226.882 148.266 226.817 149.016C226.781 149.783 226.596 150.419 226.262 150.924C225.95 151.423 225.445 151.753 224.747 151.914C224.319 152.013 223.865 151.999 223.385 151.873C222.905 151.746 222.475 151.478 222.096 151.067C221.717 150.656 221.444 150.091 221.277 149.37C221.168 148.897 221.092 148.464 221.048 148.07C221.033 147.694 221.015 147.307 220.994 146.909C220.973 146.51 220.93 146.069 220.866 145.586C220.83 145.119 220.734 144.549 220.578 143.873C220.292 142.634 219.945 141.492 219.538 140.447C219.153 139.397 218.731 138.391 218.272 137.43C217.83 136.44 217.397 135.437 216.973 134.42C216.543 133.38 216.156 132.271 215.813 131.093C215.713 130.76 215.666 130.404 215.673 130.022C215.68 129.641 215.781 129.309 215.977 129.027C216.167 128.722 216.499 128.515 216.972 128.406C217.079 128.381 217.186 128.36 217.292 128.344C217.41 127.957 217.638 127.628 217.975 127.355C218.692 126.763 219.85 126.282 221.449 125.913C223.026 125.548 224.559 125.408 226.049 125.491C227.539 125.574 228.904 125.888 230.144 126.432C231.402 126.948 232.47 127.721 233.348 128.752C234.227 129.783 234.843 131.064 235.196 132.596C235.373 133.362 235.353 134.15 235.137 134.959C234.938 135.74 234.565 136.491 234.02 137.21C233.491 137.901 232.813 138.509 231.985 139.032C231.157 139.555 230.214 139.939 229.155 140.184ZM225.434 135.776C224.935 135.772 224.481 135.759 224.072 135.734C223.778 135.701 223.497 135.671 223.229 135.644C223.028 135.148 222.83 134.648 222.637 134.144C222.303 133.263 221.991 132.354 221.703 131.417L221.734 131.403L221.754 131.394C222.098 131.243 222.609 131.09 223.284 130.934C224.185 130.726 225.008 130.643 225.753 130.684C226.493 130.703 227.124 130.818 227.647 131.03C228.193 131.236 228.637 131.513 228.978 131.861C229.314 132.187 229.529 132.553 229.622 132.958C229.758 133.544 229.594 134.068 229.131 134.531C228.691 134.988 228.044 135.316 227.188 135.513C226.512 135.669 225.928 135.757 225.434 135.776Z" fill="#73B064"/>
<path fill-rule="evenodd" clip-rule="evenodd" d="M245.296 138.556C244.125 138.827 243.049 138.838 242.066 138.59C241.089 138.365 240.262 137.915 239.585 137.242C238.907 136.568 238.446 135.701 238.202 134.642C237.942 133.516 237.871 132.334 237.988 131.097C238.101 129.838 238.362 128.603 238.77 127.393C239.202 126.179 239.76 125.053 240.446 124.017C241.149 122.953 241.942 122.07 242.824 121.368C243.723 120.639 244.69 120.154 245.726 119.915C246.582 119.717 247.351 119.813 248.034 120.201C248.633 120.526 249.063 121.08 249.322 121.862C249.35 121.855 249.379 121.847 249.408 121.841C250.287 121.638 251.085 121.703 251.802 122.035C252.542 122.363 253.102 122.838 253.483 123.462C254.138 124.45 254.727 125.358 255.251 126.186C255.774 127.014 256.357 127.793 257 128.522C257.66 129.224 258.488 129.934 259.484 130.653C259.877 130.918 260.131 131.299 260.246 131.794C260.383 132.285 260.409 132.812 260.326 133.377C260.243 133.942 260.038 134.44 259.711 134.872C259.383 135.303 258.938 135.584 258.375 135.714C257.97 135.808 257.625 135.804 257.341 135.704C257.062 135.626 256.806 135.495 256.574 135.311C255.966 134.835 255.392 134.351 254.851 133.859C254.333 133.361 253.83 132.825 253.341 132.25C252.883 131.679 252.42 131.04 251.953 130.333C251.781 131.425 251.526 132.396 251.187 133.246C250.536 134.843 249.69 136.059 248.648 136.892C247.607 137.726 246.49 138.281 245.296 138.556ZM243.357 130C243.707 128.638 244.326 127.415 245.215 126.332C245.91 125.48 246.745 124.784 247.722 124.244C247.921 126.976 247.695 129.133 247.045 130.714C246.376 132.34 245.467 133.285 244.319 133.55C243.94 133.638 243.585 133.688 243.253 133.7C243.007 132.499 243.042 131.266 243.357 130Z" fill="#73B064"/>
<path fill-rule="evenodd" clip-rule="evenodd" d="M271.258 130.39C269.208 130.864 267.436 130.893 265.941 130.479C264.441 130.043 263.23 129.267 262.308 128.151C261.381 127.012 260.73 125.632 260.356 124.011C260.044 122.659 259.968 121.253 260.129 119.792C260.313 118.326 260.714 116.929 261.332 115.6C261.968 114.243 262.838 113.081 263.943 112.114C265.049 111.147 266.401 110.479 268 110.11C269.351 109.798 270.588 109.761 271.711 110C272.856 110.234 273.828 110.745 274.626 111.533C275.425 112.322 275.98 113.392 276.292 114.743C276.625 116.185 276.484 117.475 275.869 118.613C275.277 119.747 274.357 120.694 273.11 121.457C271.885 122.214 270.496 122.772 268.942 123.131C267.545 123.454 266.441 123.448 265.628 123.113C265.588 123.096 265.548 123.078 265.51 123.06C265.515 123.086 265.521 123.111 265.527 123.137C265.704 123.903 265.965 124.519 266.309 124.985C266.649 125.428 267.098 125.728 267.656 125.884C268.213 126.04 268.909 126.021 269.742 125.829C271.139 125.507 272.278 125.101 273.162 124.612C274.045 124.124 274.763 123.637 275.316 123.154C275.869 122.671 276.353 122.25 276.769 121.893C277.179 121.514 277.61 121.272 278.06 121.168C278.51 121.064 278.868 121.124 279.133 121.347C279.398 121.571 279.593 121.953 279.718 122.493C279.874 123.169 279.794 123.9 279.477 124.685C279.177 125.442 278.653 126.203 277.905 126.969C277.174 127.708 276.25 128.383 275.135 128.997C274.014 129.588 272.722 130.052 271.258 130.39ZM267.606 119.81C266.975 119.955 266.447 120.03 266.021 120.033L265.378 120.055C265.479 119.347 265.66 118.683 265.922 118.063C266.244 117.301 266.676 116.655 267.218 116.127C267.783 115.593 268.448 115.238 269.214 115.061C269.867 114.91 270.36 114.939 270.692 115.146C271.042 115.327 271.277 115.676 271.397 116.194C271.506 116.667 271.405 117.153 271.093 117.652C270.804 118.146 270.347 118.583 269.723 118.965C269.122 119.341 268.416 119.622 267.606 119.81Z" fill="#73B064"/>
<path d="M292.301 126.884C290.679 127.258 289.29 127.353 288.132 127.17C286.998 126.981 286.043 126.597 285.269 126.016C284.512 125.408 283.902 124.671 283.442 123.804C282.998 122.91 282.657 121.945 282.417 120.909C282.183 119.895 282.04 118.861 281.986 117.806C281.954 116.745 281.966 115.663 282.019 114.559C282.045 113.747 282.146 113.106 282.323 112.639C282.522 112.166 282.96 111.851 283.635 111.695C284.356 111.529 285.047 111.594 285.709 111.892C286.388 112.163 286.827 112.726 287.024 113.582C287.076 113.807 287.083 114.197 287.045 114.751C287.029 115.301 287.023 115.943 287.027 116.677C287.053 117.407 287.165 118.199 287.362 119.055C287.524 119.754 287.771 120.361 288.103 120.877C288.458 121.389 288.937 121.764 289.538 122.005C290.134 122.224 290.871 122.231 291.749 122.028C292.447 121.867 293.298 121.647 294.301 121.368C294.478 121.315 294.658 121.261 294.839 121.207C294.715 120.982 294.6 120.748 294.493 120.505C294.294 120.053 294.117 119.595 293.963 119.133C293.804 118.648 293.674 118.191 293.576 117.763C293.357 116.817 293.221 115.971 293.167 115.224C293.114 114.477 293.127 113.916 293.206 113.542C293.281 113.145 293.425 112.744 293.64 112.339C293.877 111.928 294.345 111.642 295.043 111.481C295.494 111.377 295.936 111.393 296.371 111.53C296.823 111.639 297.217 111.857 297.554 112.182C297.907 112.48 298.141 112.877 298.255 113.373C298.312 113.62 298.349 113.932 298.365 114.308C298.397 114.657 298.418 115.055 298.427 115.504C298.453 115.925 298.523 116.383 298.638 116.879C298.726 117.262 298.851 117.648 299.012 118.038C299.173 118.428 299.332 118.807 299.488 119.174C299.573 119.375 299.649 119.568 299.717 119.752C300.112 119.63 300.502 119.507 300.888 119.384C301.966 119.017 302.931 118.675 303.783 118.36C304.635 118.044 305.262 117.781 305.664 117.57C305.981 117.402 306.194 117.246 306.304 117.102C306.43 116.93 306.462 116.709 306.4 116.439C306.244 115.763 305.94 115.062 305.487 114.336C305.058 113.605 304.586 112.896 304.071 112.208C303.551 111.497 303.086 110.869 302.675 110.323C302.265 109.778 302.023 109.347 301.95 109.032C301.794 108.356 301.915 107.747 302.311 107.204C302.708 106.662 303.278 106.305 304.021 106.133C304.539 106.014 305.048 106.062 305.549 106.279C306.072 106.49 306.524 106.801 306.903 107.212C307.189 107.525 307.578 108.029 308.07 108.722C308.579 109.387 309.096 110.134 309.619 110.962C310.165 111.785 310.638 112.601 311.038 113.41C311.461 114.214 311.74 114.909 311.875 115.495C312.213 116.959 312.109 118.205 311.563 119.233C311.035 120.232 310.002 121.1 308.464 121.835C307.949 122.072 307.189 122.378 306.185 122.752C305.202 123.121 304.08 123.499 302.817 123.886C301.559 124.295 300.274 124.687 298.961 125.061C297.653 125.458 296.407 125.817 295.224 126.137C294.063 126.453 293.089 126.702 292.301 126.884Z" fill="#73B064"/>
<path fill-rule="evenodd" clip-rule="evenodd" d="M324.087 121.11C322.759 121.416 321.591 121.496 320.584 121.349C319.6 121.197 318.765 120.867 318.079 120.362C317.398 119.878 316.843 119.271 316.413 118.54C316.006 117.803 315.706 117.018 315.514 116.185C315.228 114.946 315.062 113.715 315.017 112.492C314.995 111.263 314.885 110.221 314.687 109.365C314.562 108.824 314.413 108.384 314.24 108.045C314.084 107.677 313.97 107.336 313.897 107.021C313.798 106.593 313.794 106.166 313.886 105.742C314.001 105.312 314.212 104.943 314.52 104.634C314.846 104.298 315.245 104.076 315.718 103.966C316.551 103.774 317.295 103.911 317.948 104.377C318.623 104.838 319.086 105.609 319.336 106.69C319.45 107.185 319.546 107.756 319.624 108.403C319.654 108.593 319.681 108.786 319.707 108.982C319.991 108.857 320.287 108.731 320.596 108.605C321.286 108.304 321.98 108.025 322.68 107.768C323.38 107.512 324.034 107.313 324.642 107.173C325.791 106.908 326.792 106.878 327.646 107.084C328.495 107.268 329.185 107.69 329.717 108.35C330.267 108.982 330.663 109.828 330.908 110.886C331.147 111.923 331.122 112.996 330.833 114.107C330.538 115.195 330.054 116.232 329.38 117.218C328.701 118.182 327.896 119.008 326.964 119.698C326.06 120.405 325.101 120.876 324.087 121.11ZM320.753 115.296C320.593 114.81 320.454 114.309 320.334 113.791C320.306 113.667 320.278 113.54 320.251 113.407L320.443 113.338C321.031 113.108 321.665 112.878 322.348 112.649C323.031 112.421 323.676 112.236 324.284 112.096C324.734 111.992 325.102 111.942 325.388 111.947C325.674 111.953 325.833 112.023 325.864 112.158C325.978 112.653 325.975 113.153 325.854 113.655C325.727 114.135 325.52 114.574 325.233 114.973C324.968 115.366 324.642 115.702 324.256 115.981C323.892 116.255 323.507 116.439 323.102 116.533C322.426 116.689 321.906 116.643 321.54 116.395C321.175 116.147 320.912 115.781 320.753 115.296Z" fill="#73B064"/>
<path fill-rule="evenodd" clip-rule="evenodd" d="M104.126 171.546C102.189 171.993 100.378 172.008 98.6919 171.591C97.0062 171.173 95.5769 170.377 94.404 169.2C93.2535 168.018 92.4781 166.56 92.0778 164.826C91.8178 163.7 91.8134 162.55 92.0645 161.377C92.3156 160.204 92.7416 159.121 93.3427 158.128C93.9611 157.107 94.6886 156.251 95.5253 155.56C96.3793 154.84 97.268 154.374 98.1913 154.161C98.5967 154.067 98.9839 154.049 99.3529 154.106C99.5008 154.12 99.6406 154.15 99.7722 154.195C99.8588 154.17 99.946 154.147 100.034 154.127C101.926 153.69 103.625 153.654 105.132 154.017C106.639 154.381 107.885 155.102 108.869 156.18C109.876 157.252 110.577 158.644 110.972 160.356C111.372 162.091 111.337 163.736 110.866 165.292C110.395 166.848 109.575 168.176 108.405 169.277C107.241 170.4 105.815 171.156 104.126 171.546ZM99.2138 166.452C98.2089 165.901 97.5635 165.007 97.2775 163.768C97.2114 163.481 97.1875 163.189 97.206 162.89C97.2171 162.889 97.2282 162.887 97.2393 162.885C97.2501 162.883 97.2609 162.881 97.2718 162.879C97.2875 162.875 97.3033 162.872 97.319 162.868C97.6794 162.785 97.9617 162.672 98.1661 162.53C98.3931 162.383 98.607 162.179 98.8079 161.919C99.0089 161.66 99.2306 161.335 99.4731 160.947C99.8195 160.393 100.13 159.941 100.406 159.593C100.704 159.24 101.101 159.006 101.596 158.891C102.654 158.647 103.574 158.778 104.356 159.286C105.137 159.794 105.655 160.599 105.91 161.703C106.196 162.942 106.056 164.03 105.489 164.968C104.923 165.905 104.043 166.512 102.849 166.787C101.453 167.11 100.241 166.998 99.2138 166.452Z" fill="#73B064"/>
<path d="M176.291 186.782C175.615 186.938 174.95 186.83 174.295 186.46C173.64 186.089 173.232 185.554 173.071 184.856C172.957 184.361 172.996 183.913 173.188 183.512C173.398 183.084 173.752 182.718 174.251 182.413C174.966 181.915 176.013 181.365 177.392 180.762C178.788 180.131 180.59 179.561 182.797 179.051C184.148 178.739 185.361 178.495 186.435 178.318C187.509 178.141 188.684 177.989 189.959 177.86C190.773 177.791 191.452 177.907 191.996 178.208C192.558 178.482 192.908 178.923 193.049 179.531C193.148 179.959 193.117 180.393 192.958 180.833C192.821 181.268 192.579 181.656 192.23 181.998C191.877 182.317 191.441 182.536 190.923 182.656C190.518 182.749 189.927 182.862 189.151 182.994C188.37 183.103 187.532 183.225 186.638 183.36C186.29 183.413 185.945 183.47 185.602 183.533C185.717 183.966 185.834 184.411 185.955 184.871C186.144 185.586 186.309 186.248 186.449 186.856C186.626 187.622 186.827 188.287 187.052 188.852C187.272 189.395 187.477 189.869 187.665 190.277L187.876 190.677C188.005 190.921 188.125 191.147 188.235 191.355C188.398 191.65 188.513 191.943 188.58 192.236C188.684 192.687 188.654 193.121 188.49 193.538C188.32 193.934 188.056 194.279 187.697 194.576C187.338 194.872 186.934 195.072 186.484 195.176C185.943 195.301 185.464 195.281 185.047 195.116C184.624 194.929 184.201 194.588 183.778 194.093C183.411 193.632 183.052 193.003 182.702 192.206C182.375 191.403 182.065 190.526 181.774 189.573C181.501 188.592 181.257 187.64 181.044 186.716C180.89 186.05 180.738 185.439 180.589 184.885C180.571 184.893 180.553 184.9 180.535 184.907C180.521 184.913 180.507 184.919 180.494 184.925C180.479 184.931 180.464 184.937 180.45 184.943C180.428 184.952 180.405 184.962 180.383 184.971C180.364 184.979 180.345 184.988 180.326 184.996C179.4 185.4 178.631 185.767 178.019 186.098C177.43 186.424 176.854 186.652 176.291 186.782Z" fill="#73B064"/>
<path fill-rule="evenodd" clip-rule="evenodd" d="M204.815 193.612C203.509 193.914 202.337 193.924 201.299 193.641C200.256 193.336 199.383 192.791 198.679 192.004C197.993 191.19 197.507 190.163 197.221 188.924C196.93 187.663 196.693 186.531 196.509 185.53C196.325 184.528 196.189 183.682 196.101 182.99C196.012 182.299 195.952 181.779 195.919 181.431C195.882 180.965 195.936 180.478 196.08 179.97C196.218 179.44 196.445 178.984 196.76 178.603C197.07 178.199 197.451 177.945 197.901 177.841C198.509 177.701 199.08 177.759 199.613 178.015C200.164 178.244 200.515 178.685 200.666 179.338L200.966 180.879C201.092 180.804 201.219 180.727 201.348 180.65C201.546 180.531 201.747 180.41 201.952 180.287C202.808 179.781 203.684 179.258 204.58 178.719C205.47 178.158 206.346 177.588 207.209 177.009C208.236 176.321 209.135 175.639 209.904 174.963C210.695 174.282 211.39 173.694 211.988 173.201C212.608 172.701 213.177 172.392 213.695 172.272C214.934 171.986 215.957 172.106 216.766 172.631C217.57 173.133 218.107 173.97 218.378 175.142C218.523 175.772 218.671 176.462 218.82 177.21C218.964 177.936 219.134 178.727 219.332 179.583C219.436 180.034 219.564 180.538 219.717 181.096C219.869 181.654 220.047 182.218 220.25 182.788C220.475 183.353 220.706 183.893 220.944 184.407C221.084 184.707 221.208 184.987 221.315 185.247C221.445 185.501 221.534 185.73 221.58 185.933C221.684 186.383 221.659 186.84 221.505 187.303C221.368 187.738 221.117 188.14 220.752 188.509C220.381 188.855 219.914 189.094 219.351 189.224C218.608 189.395 217.987 189.325 217.488 189.013C217.006 188.674 216.633 188.238 216.368 187.706C215.929 186.834 215.562 185.911 215.266 184.935C214.964 183.937 214.712 182.999 214.509 182.121L214.104 180.364C213.991 179.773 213.883 179.204 213.781 178.659C213.72 178.331 213.659 178.026 213.599 177.741C213.478 177.837 213.349 177.938 213.212 178.043C212.569 178.547 211.783 179.096 210.853 179.691C209.958 180.262 209.003 180.859 207.988 181.48C208.19 181.56 208.389 181.648 208.587 181.744C209.282 182.082 209.896 182.533 210.429 183.098C210.963 183.663 211.336 184.407 211.55 185.331C211.768 186.277 211.72 187.201 211.407 188.104C211.094 189.007 210.596 189.834 209.916 190.584C209.235 191.334 208.447 191.979 207.551 192.518C206.65 193.034 205.738 193.399 204.815 193.612ZM202.101 187.406C201.987 186.91 201.892 186.446 201.815 186.013C201.768 185.744 201.723 185.485 201.68 185.234C202.181 185.211 202.686 185.198 203.192 185.196C203.714 185.195 204.143 185.202 204.479 185.22C204.988 185.268 205.418 185.383 205.768 185.563C206.14 185.738 206.376 186.039 206.475 186.467C206.542 186.76 206.515 187.051 206.392 187.34C206.286 187.602 206.121 187.866 205.898 188.131C205.674 188.396 205.427 188.607 205.155 188.765C204.883 188.923 204.623 189.03 204.375 189.087C203.812 189.217 203.329 189.127 202.925 188.817C202.516 188.484 202.242 188.014 202.101 187.406Z" fill="#73B064"/>
<path d="M231.653 189.693C230.572 189.942 229.648 189.895 228.88 189.55C228.135 189.2 227.656 188.563 227.443 187.64C227.23 186.716 227.319 185.972 227.711 185.407C228.119 184.814 228.729 184.425 229.54 184.237C230.846 183.936 231.867 184.044 232.604 184.562C233.363 185.075 233.833 185.725 234.015 186.514C234.186 187.257 234.077 187.911 233.685 188.476C233.321 189.058 232.644 189.464 231.653 189.693Z" fill="#73B064"/>
<path d="M230.153 181.498C229.365 181.68 228.625 181.661 227.934 181.441C227.242 181.221 226.66 180.857 226.187 180.349C225.709 179.819 225.389 179.205 225.228 178.507C225.145 178.146 225.121 177.784 225.155 177.42C225.185 177.034 225.296 176.64 225.488 176.24C225.697 175.812 226.011 175.372 226.428 174.92C226.841 174.445 227.394 173.914 228.089 173.326C228.754 172.817 229.227 172.399 229.508 172.073C229.811 171.742 229.987 171.476 230.035 171.275C230.101 171.047 230.11 170.831 230.064 170.628C229.97 170.223 229.697 169.965 229.245 169.856C228.788 169.725 228.052 169.776 227.039 170.01C225.958 170.259 225.114 170.561 224.508 170.915C223.896 171.246 223.377 171.567 222.951 171.879C222.542 172.163 222.09 172.362 221.595 172.477C220.919 172.633 220.287 172.565 219.698 172.274C219.131 171.978 218.752 171.413 218.559 170.58C218.435 170.039 218.441 169.551 218.578 169.116C218.737 168.676 219.036 168.275 219.474 167.913C220.208 167.293 221.155 166.718 222.314 166.189C223.495 165.656 224.593 165.272 225.606 165.038C227.453 164.611 229.042 164.505 230.372 164.72C231.725 164.93 232.81 165.415 233.626 166.175C234.459 166.908 235.019 167.894 235.305 169.133C235.497 169.967 235.509 170.735 235.339 171.439C235.192 172.137 234.894 172.799 234.445 173.424C233.996 174.05 233.436 174.654 232.764 175.236C232.069 175.824 231.55 176.299 231.207 176.663C230.859 177.005 230.636 177.27 230.537 177.459C230.433 177.625 230.397 177.776 230.428 177.911C230.459 178.046 230.535 178.171 230.657 178.285C230.773 178.377 230.891 178.48 231.013 178.594C231.151 178.681 231.275 178.807 231.384 178.971C231.511 179.108 231.598 179.278 231.644 179.481C231.733 179.864 231.658 180.26 231.421 180.671C231.206 181.077 230.783 181.352 230.153 181.498Z" fill="#73B064"/>
<path fill-rule="evenodd" clip-rule="evenodd" d="M381.806 130.098C378.934 89.0042 344.669 56.3814 299.741 47.3074C292.485 18.1755 260.64 -2.34175 224.084 0.215004C201.836 1.77104 182.506 11.5476 170.076 25.6928C161.157 24.4156 151.878 24.0537 142.39 24.7174C81.4402 28.9803 34.9325 73.9422 38.512 125.143C38.6388 126.956 38.8266 128.752 39.0738 130.531C14.4803 141.892 -1.6065 164.477 0.127658 189.282C2.48895 223.057 36.9969 248.157 77.2032 245.345C84.3965 244.842 91.2848 243.48 97.7335 241.388C108.931 265.242 137.59 281.047 169.938 278.785C204.259 276.385 231.638 254.421 237.449 227.034C250.146 230.227 263.805 231.511 277.929 230.523C338.878 226.261 385.386 181.299 381.806 130.098ZM227.934 181.441C228.625 181.661 229.365 181.68 230.153 181.498C230.783 181.352 231.206 181.077 231.421 180.671C231.658 180.26 231.733 179.864 231.644 179.481C231.598 179.278 231.511 179.108 231.384 178.971C231.275 178.807 231.151 178.681 231.013 178.594C230.891 178.48 230.773 178.377 230.657 178.285C230.535 178.171 230.459 178.046 230.428 177.911C230.397 177.776 230.433 177.625 230.537 177.459C230.636 177.27 230.859 177.005 231.207 176.663C231.55 176.299 232.069 175.824 232.764 175.236C233.436 174.654 233.996 174.05 234.445 173.424C234.894 172.799 235.192 172.137 235.339 171.439C235.509 170.735 235.497 169.967 235.305 169.133C235.019 167.894 234.459 166.908 233.626 166.175C232.81 165.415 231.725 164.93 230.372 164.72C229.042 164.505 227.453 164.611 225.606 165.038C224.593 165.272 223.495 165.656 222.314 166.189C221.155 166.718 220.208 167.293 219.474 167.913C219.036 168.275 218.737 168.676 218.578 169.116C218.441 169.551 218.435 170.039 218.559 170.58C218.752 171.413 219.131 171.978 219.698 172.274C220.287 172.565 220.919 172.633 221.595 172.477C222.09 172.362 222.542 172.163 222.951 171.879C223.377 171.567 223.896 171.246 224.508 170.915C225.114 170.561 225.958 170.259 227.039 170.01C228.052 169.776 228.788 169.725 229.245 169.856C229.697 169.965 229.97 170.223 230.064 170.628C230.11 170.831 230.101 171.047 230.035 171.275C229.987 171.476 229.811 171.742 229.508 172.073C229.227 172.399 228.754 172.817 228.089 173.326C227.394 173.914 226.841 174.445 226.428 174.92C226.011 175.372 225.697 175.812 225.488 176.24C225.296 176.64 225.185 177.034 225.155 177.42C225.121 177.784 225.145 178.146 225.228 178.507C225.389 179.205 225.709 179.819 226.187 180.349C226.66 180.857 227.242 181.221 227.934 181.441ZM228.88 189.55C229.648 189.895 230.572 189.942 231.653 189.693C232.644 189.464 233.321 189.058 233.685 188.476C234.077 187.911 234.186 187.257 234.015 186.514C233.833 185.725 233.363 185.075 232.604 184.562C231.867 184.044 230.846 183.936 229.54 184.237C228.729 184.425 228.119 184.814 227.711 185.407C227.319 185.972 227.23 186.716 227.443 187.64C227.656 188.563 228.135 189.2 228.88 189.55ZM201.299 193.641C202.337 193.924 203.509 193.914 204.815 193.612C205.738 193.399 206.65 193.034 207.551 192.518C208.447 191.979 209.235 191.334 209.916 190.584C210.596 189.834 211.094 189.007 211.407 188.104C211.72 187.201 211.768 186.277 211.55 185.331C211.336 184.407 210.963 183.663 210.429 183.098C209.896 182.533 209.282 182.082 208.587 181.744C208.389 181.648 208.19 181.56 207.988 181.48C209.003 180.859 209.958 180.262 210.853 179.691C211.783 179.096 212.569 178.547 213.212 178.043C213.349 177.938 213.478 177.837 213.599 177.741C213.659 178.026 213.72 178.331 213.781 178.659C213.883 179.204 213.991 179.773 214.104 180.364L214.509 182.121C214.712 182.999 214.964 183.937 215.266 184.935C215.562 185.911 215.929 186.834 216.368 187.706C216.633 188.238 217.006 188.674 217.488 189.013C217.987 189.325 218.608 189.395 219.351 189.224C219.914 189.094 220.381 188.855 220.752 188.509C221.117 188.14 221.368 187.738 221.505 187.303C221.659 186.84 221.684 186.383 221.58 185.933C221.534 185.73 221.445 185.501 221.315 185.247C221.208 184.987 221.084 184.707 220.944 184.407C220.706 183.893 220.475 183.353 220.25 182.788C220.047 182.218 219.869 181.654 219.717 181.096C219.564 180.538 219.436 180.034 219.332 179.583C219.134 178.727 218.964 177.936 218.82 177.21C218.671 176.462 218.523 175.772 218.378 175.142C218.107 173.97 217.57 173.133 216.766 172.631C215.957 172.106 214.934 171.986 213.695 172.272C213.177 172.392 212.608 172.701 211.988 173.201C211.39 173.694 210.695 174.282 209.904 174.963C209.135 175.639 208.236 176.321 207.209 177.009C206.346 177.588 205.47 178.158 204.58 178.719C203.684 179.258 202.808 179.781 201.952 180.287L201.348 180.65L200.966 180.879L200.666 179.338C200.515 178.685 200.164 178.244 199.613 178.015C199.08 177.759 198.509 177.701 197.901 177.841C197.451 177.945 197.07 178.199 196.76 178.603C196.445 178.984 196.218 179.44 196.08 179.97C195.936 180.478 195.882 180.965 195.919 181.431C195.952 181.779 196.012 182.299 196.101 182.99C196.189 183.682 196.325 184.528 196.509 185.53C196.693 186.531 196.93 187.663 197.221 188.924C197.507 190.163 197.993 191.19 198.679 192.004C199.383 192.791 200.256 193.336 201.299 193.641ZM174.295 186.46C174.95 186.83 175.615 186.938 176.291 186.782C176.854 186.652 177.43 186.424 178.019 186.098C178.631 185.767 179.4 185.4 180.326 184.996L180.383 184.971C180.405 184.962 180.428 184.952 180.45 184.943L180.494 184.925L180.535 184.907L180.589 184.885C180.738 185.439 180.89 186.05 181.044 186.716C181.257 187.64 181.501 188.592 181.774 189.573C182.065 190.526 182.375 191.403 182.702 192.206C183.052 193.003 183.411 193.632 183.778 194.093C184.201 194.588 184.624 194.929 185.047 195.116C185.464 195.281 185.943 195.301 186.484 195.176C186.934 195.072 187.338 194.872 187.697 194.576C188.056 194.279 188.32 193.934 188.49 193.538C188.654 193.121 188.684 192.687 188.58 192.236C188.513 191.943 188.398 191.65 188.235 191.355C188.125 191.147 188.005 190.921 187.876 190.677L187.665 190.277C187.477 189.869 187.272 189.395 187.052 188.852C186.827 188.287 186.626 187.622 186.449 186.856C186.309 186.248 186.144 185.586 185.955 184.871C185.834 184.411 185.717 183.966 185.602 183.533C185.945 183.47 186.29 183.413 186.638 183.36C187.532 183.225 188.37 183.103 189.151 182.994C189.927 182.862 190.518 182.749 190.923 182.656C191.441 182.536 191.877 182.317 192.23 181.998C192.579 181.656 192.821 181.268 192.958 180.833C193.117 180.393 193.148 179.959 193.049 179.531C192.908 178.923 192.558 178.482 191.996 178.208C191.452 177.907 190.773 177.791 189.959 177.86C188.684 177.989 187.509 178.141 186.435 178.318C185.361 178.495 184.148 178.739 182.797 179.051C180.59 179.561 178.788 180.131 177.392 180.762C176.013 181.365 174.966 181.915 174.251 182.413C173.752 182.718 173.398 183.084 173.188 183.512C172.996 183.913 172.957 184.361 173.071 184.856C173.232 185.554 173.64 186.089 174.295 186.46ZM320.584 121.349C321.591 121.496 322.759 121.416 324.087 121.11C325.101 120.876 326.06 120.405 326.964 119.698C327.896 119.008 328.701 118.182 329.38 117.218C330.054 116.232 330.538 115.195 330.833 114.107C331.122 112.996 331.147 111.923 330.908 110.886C330.663 109.828 330.267 108.982 329.717 108.35C329.185 107.69 328.495 107.268 327.646 107.084C326.792 106.878 325.791 106.908 324.642 107.173C324.034 107.313 323.38 107.512 322.68 107.768C321.98 108.025 321.286 108.304 320.596 108.605C320.287 108.731 319.991 108.857 319.707 108.982C319.681 108.786 319.654 108.593 319.624 108.403C319.546 107.756 319.45 107.185 319.336 106.69C319.086 105.609 318.623 104.838 317.948 104.377C317.295 103.911 316.551 103.774 315.718 103.966C315.245 104.076 314.846 104.298 314.52 104.634C314.212 104.943 314.001 105.312 313.886 105.742C313.794 106.166 313.798 106.593 313.897 107.021C313.97 107.336 314.084 107.677 314.24 108.045C314.413 108.384 314.562 108.824 314.687 109.365C314.885 110.221 314.995 111.263 315.017 112.492C315.062 113.715 315.228 114.946 315.514 116.185C315.706 117.018 316.006 117.803 316.413 118.54C316.843 119.271 317.398 119.878 318.079 120.362C318.765 120.867 319.6 121.197 320.584 121.349ZM288.132 127.17C289.29 127.353 290.679 127.258 292.301 126.884C293.089 126.702 294.063 126.453 295.224 126.137C296.407 125.817 297.653 125.458 298.961 125.061C300.274 124.687 301.559 124.295 302.817 123.886C304.08 123.499 305.202 123.121 306.185 122.752C307.189 122.378 307.949 122.072 308.464 121.835C310.002 121.1 311.035 120.232 311.563 119.233C312.109 118.205 312.213 116.959 311.875 115.495C311.74 114.909 311.461 114.214 311.038 113.41C310.638 112.601 310.165 111.785 309.619 110.962C309.096 110.134 308.579 109.387 308.07 108.722C307.578 108.029 307.189 107.525 306.903 107.212C306.524 106.801 306.072 106.49 305.549 106.279C305.048 106.062 304.539 106.014 304.021 106.133C303.278 106.305 302.708 106.662 302.311 107.204C301.915 107.747 301.794 108.356 301.95 109.032C302.023 109.347 302.265 109.778 302.675 110.323C303.086 110.869 303.551 111.497 304.071 112.208C304.586 112.896 305.058 113.605 305.487 114.336C305.94 115.062 306.244 115.763 306.4 116.439C306.462 116.709 306.43 116.93 306.304 117.102C306.194 117.246 305.981 117.402 305.664 117.57C305.262 117.781 304.635 118.044 303.783 118.36C302.931 118.675 301.966 119.017 300.888 119.384C300.502 119.507 300.112 119.63 299.717 119.752C299.649 119.568 299.573 119.375 299.488 119.174C299.332 118.807 299.173 118.428 299.012 118.038C298.851 117.648 298.726 117.262 298.638 116.879C298.523 116.383 298.453 115.925 298.427 115.504C298.418 115.055 298.397 114.657 298.365 114.308C298.349 113.932 298.312 113.62 298.255 113.373C298.141 112.877 297.907 112.48 297.554 112.182C297.217 111.857 296.823 111.639 296.371 111.53C295.936 111.393 295.494 111.377 295.043 111.481C294.345 111.642 293.877 111.928 293.64 112.339C293.425 112.744 293.281 113.145 293.206 113.542C293.127 113.916 293.114 114.477 293.167 115.224C293.221 115.971 293.357 116.817 293.576 117.763C293.674 118.191 293.804 118.648 293.963 119.133C294.117 119.595 294.294 120.053 294.493 120.505C294.6 120.748 294.715 120.982 294.839 121.207C294.658 121.261 294.478 121.315 294.301 121.368C293.298 121.647 292.447 121.867 291.749 122.028C290.871 122.231 290.134 122.224 289.538 122.005C288.937 121.764 288.458 121.389 288.103 120.877C287.771 120.361 287.524 119.754 287.362 119.055C287.165 118.199 287.053 117.407 287.027 116.677C287.023 115.943 287.029 115.301 287.045 114.751C287.083 114.197 287.076 113.807 287.024 113.582C286.827 112.726 286.388 112.163 285.709 111.892C285.047 111.594 284.356 111.529 283.635 111.695C282.96 111.851 282.522 112.166 282.323 112.639C282.146 113.106 282.045 113.747 282.019 114.559C281.966 115.663 281.954 116.745 281.986 117.806C282.04 118.861 282.183 119.895 282.417 120.909C282.657 121.945 282.998 122.91 283.442 123.804C283.902 124.671 284.512 125.408 285.269 126.016C286.043 126.597 286.998 126.981 288.132 127.17ZM265.941 130.479C267.436 130.893 269.208 130.864 271.258 130.39C272.722 130.052 274.014 129.588 275.135 128.997C276.25 128.383 277.174 127.708 277.905 126.969C278.653 126.203 279.177 125.442 279.477 124.685C279.794 123.9 279.874 123.169 279.718 122.493C279.593 121.953 279.398 121.571 279.133 121.347C278.868 121.124 278.51 121.064 278.06 121.168C277.61 121.272 277.179 121.514 276.769 121.893C276.353 122.25 275.869 122.671 275.316 123.154C274.763 123.637 274.045 124.124 273.162 124.612C272.278 125.101 271.139 125.507 269.742 125.829C268.909 126.021 268.213 126.04 267.656 125.884C267.098 125.728 266.649 125.428 266.309 124.985C265.965 124.519 265.704 123.903 265.527 123.137C265.521 123.111 265.515 123.086 265.51 123.06C265.548 123.078 265.588 123.096 265.628 123.113C266.441 123.448 267.545 123.454 268.942 123.131C270.496 122.772 271.885 122.214 273.11 121.457C274.357 120.694 275.277 119.747 275.869 118.613C276.484 117.475 276.625 116.185 276.292 114.743C275.98 113.392 275.425 112.322 274.626 111.533C273.828 110.745 272.856 110.234 271.711 110C270.588 109.761 269.351 109.798 268 110.11C266.401 110.479 265.049 111.147 263.943 112.114C262.838 113.081 261.968 114.243 261.332 115.6C260.714 116.929 260.313 118.326 260.129 119.792C259.968 121.253 260.044 122.659 260.356 124.011C260.73 125.632 261.381 127.012 262.308 128.151C263.23 129.267 264.441 130.043 265.941 130.479ZM242.066 138.59C243.049 138.838 244.125 138.827 245.296 138.556C246.49 138.281 247.607 137.726 248.648 136.892C249.69 136.059 250.536 134.843 251.187 133.246C251.526 132.396 251.781 131.425 251.953 130.333C252.42 131.04 252.883 131.679 253.341 132.25C253.83 132.825 254.333 133.361 254.851 133.859C255.392 134.351 255.966 134.835 256.574 135.311C256.806 135.495 257.062 135.626 257.341 135.704C257.625 135.804 257.97 135.808 258.375 135.714C258.938 135.584 259.383 135.303 259.711 134.872C260.038 134.44 260.243 133.942 260.326 133.377C260.409 132.812 260.383 132.285 260.246 131.794C260.131 131.299 259.877 130.918 259.484 130.653C258.488 129.934 257.66 129.224 257 128.522C256.357 127.793 255.774 127.014 255.251 126.186C254.727 125.358 254.138 124.45 253.483 123.462C253.102 122.838 252.542 122.363 251.802 122.035C251.085 121.703 250.287 121.638 249.408 121.841C249.379 121.847 249.35 121.855 249.322 121.862C249.063 121.08 248.633 120.526 248.034 120.201C247.351 119.813 246.582 119.717 245.726 119.915C244.69 120.154 243.723 120.639 242.824 121.368C241.942 122.07 241.149 122.953 240.446 124.017C239.76 125.053 239.202 126.179 238.77 127.393C238.362 128.603 238.101 129.838 237.988 131.097C237.871 132.334 237.942 133.516 238.202 134.642C238.446 135.701 238.907 136.568 239.585 137.242C240.262 137.915 241.089 138.365 242.066 138.59ZM225.198 140.457C226.417 140.602 227.737 140.511 229.155 140.184C230.214 139.939 231.157 139.555 231.985 139.032C232.813 138.509 233.491 137.901 234.02 137.21C234.565 136.491 234.938 135.74 235.137 134.959C235.353 134.15 235.373 133.362 235.196 132.596C234.843 131.064 234.227 129.783 233.348 128.752C232.47 127.721 231.402 126.948 230.144 126.432C228.904 125.888 227.539 125.574 226.049 125.491C224.559 125.408 223.026 125.548 221.449 125.913C219.85 126.282 218.692 126.763 217.975 127.355C217.638 127.628 217.41 127.957 217.292 128.344C217.186 128.36 217.079 128.381 216.972 128.406C216.499 128.515 216.167 128.722 215.977 129.027C215.781 129.309 215.68 129.641 215.673 130.022C215.666 130.404 215.713 130.76 215.813 131.093C216.156 132.271 216.543 133.38 216.973 134.42C217.397 135.437 217.83 136.44 218.272 137.43C218.731 138.391 219.153 139.397 219.538 140.447C219.945 141.492 220.292 142.634 220.578 143.873C220.734 144.549 220.83 145.119 220.866 145.586C220.93 146.069 220.973 146.51 220.994 146.909C221.015 147.307 221.033 147.694 221.048 148.07C221.092 148.464 221.168 148.897 221.277 149.37C221.444 150.091 221.717 150.656 222.096 151.067C222.475 151.478 222.905 151.746 223.385 151.873C223.865 151.999 224.319 152.013 224.747 151.914C225.445 151.753 225.95 151.423 226.262 150.924C226.596 150.419 226.781 149.783 226.817 149.016C226.882 148.266 226.849 147.455 226.719 146.583C226.611 145.706 226.453 144.817 226.245 143.916C225.975 142.745 225.634 141.626 225.221 140.558L225.184 140.455L225.198 140.457ZM197.626 145.293C198.322 145.536 199.121 145.553 200.022 145.345C201.035 145.111 201.961 144.601 202.799 143.814C203.633 143.005 204.361 141.947 204.985 140.64C205.603 139.311 206.049 137.749 206.322 135.954C206.398 135.457 206.467 134.978 206.53 134.516L206.655 134.774C207.017 135.521 207.402 136.262 207.809 136.999C208.661 138.534 209.486 139.743 210.283 140.627C211.103 141.505 211.997 141.833 212.965 141.609C213.46 141.495 213.882 141.267 214.23 140.925C214.601 140.579 214.864 140.174 215.018 139.711C215.167 139.226 215.187 138.747 215.077 138.274C214.963 137.778 214.73 137.334 214.378 136.941C214.021 136.525 213.601 136.041 213.118 135.488C212.652 134.908 212.169 134.153 211.67 133.224C211.393 132.743 211.09 132.148 210.76 131.441C210.448 130.707 210.123 129.963 209.783 129.211C209.466 128.454 209.186 127.807 208.944 127.27C208.637 126.558 208.176 126 207.561 125.596C206.968 125.187 206.21 125.089 205.287 125.303C204.679 125.443 204.213 125.788 203.889 126.337C203.583 126.859 203.346 127.53 203.18 128.352C203.036 129.168 202.899 130.065 202.77 131.044C202.662 132.018 202.498 133.053 202.276 134.148C202.044 135.815 201.739 137.166 201.362 138.203C200.979 139.216 200.529 139.783 200.011 139.903C199.74 139.965 199.501 139.854 199.293 139.57C199.108 139.281 198.952 138.913 198.826 138.468C198.699 138.023 198.581 137.563 198.472 137.09C198.358 136.595 198.269 136.058 198.207 135.479C198.144 134.9 198.096 134.33 198.061 133.769C198.049 133.202 198.025 132.686 197.988 132.22C197.947 131.731 197.895 131.352 197.832 131.081C197.707 130.541 197.438 130.093 197.024 129.738C196.632 129.377 196.172 129.128 195.641 128.989C195.129 128.823 194.613 128.799 194.095 128.919C193.6 129.033 193.207 129.338 192.918 129.831C192.646 130.298 192.55 130.96 192.63 131.82C192.645 132.196 192.687 132.685 192.755 133.286C192.822 133.887 192.903 134.545 192.997 135.258L193.345 137.385C193.456 138.071 193.582 138.718 193.722 139.326C193.93 140.227 194.209 141.076 194.559 141.873C194.909 142.67 195.334 143.379 195.833 143.999C196.349 144.592 196.947 145.023 197.626 145.293ZM179.409 153.806C180.731 154.189 182.214 154.191 183.858 153.811C185.187 153.504 186.358 152.925 187.371 152.074C188.39 151.246 189.218 150.26 189.855 149.116C190.515 147.967 190.954 146.786 191.172 145.574C191.408 144.333 191.395 143.149 191.135 142.023C190.782 140.491 190.15 139.297 189.241 138.439C188.331 137.581 187.254 137.024 186.008 136.765C184.785 136.502 183.509 136.524 182.18 136.831C180.896 137.127 179.743 137.678 178.719 138.484C177.834 139.168 177.08 139.978 176.455 140.913C176.291 139.988 176.233 139.153 176.281 138.406C176.344 137.443 176.555 136.611 176.915 135.911C177.276 135.211 177.731 134.667 178.282 134.279C178.913 133.825 179.623 133.459 180.413 133.182C181.197 132.882 182.064 132.575 183.011 132.261C183.981 131.943 185.038 131.485 186.181 130.889C186.912 130.459 187.459 130.001 187.821 129.514C188.2 128.999 188.322 128.449 188.187 127.863C188.052 127.278 187.808 126.836 187.454 126.538C187.096 126.217 186.693 126.014 186.246 125.927C185.799 125.84 185.373 125.844 184.967 125.938C184.54 126.036 184.003 126.279 183.356 126.665C182.728 127.024 181.93 127.422 180.963 127.859C180.109 128.269 179.196 128.682 178.224 129.096C177.247 129.488 176.412 129.93 175.719 130.422C175.026 130.914 174.356 131.555 173.708 132.345C173.055 133.113 172.514 134.057 172.084 135.176C171.65 136.273 171.394 137.53 171.318 138.948C171.242 140.365 171.412 141.975 171.828 143.777C172.207 145.421 172.738 146.948 173.419 148.356C174.117 149.737 174.968 150.905 175.971 151.86C176.969 152.792 178.115 153.441 179.409 153.806ZM149.746 158.093C150.783 158.376 151.955 158.366 153.262 158.065C154.185 157.851 155.097 157.486 155.998 156.97C156.893 156.431 157.682 155.786 158.362 155.036C159.043 154.286 159.54 153.459 159.854 152.556C160.167 151.654 160.215 150.729 159.996 149.783C159.783 148.859 159.41 148.115 158.876 147.55C158.343 146.986 157.728 146.534 157.034 146.196C156.836 146.1 156.637 146.012 156.435 145.933C157.45 145.311 158.405 144.715 159.299 144.143C160.23 143.548 161.016 142.999 161.659 142.495C161.796 142.39 161.925 142.289 162.046 142.193C162.106 142.478 162.167 142.784 162.228 143.111C162.33 143.657 162.438 144.225 162.55 144.816L162.956 146.573C163.159 147.451 163.411 148.39 163.712 149.388C164.009 150.363 164.376 151.287 164.814 152.158C165.08 152.69 165.453 153.126 165.935 153.465C166.434 153.777 167.055 153.847 167.798 153.676C168.361 153.546 168.828 153.308 169.198 152.961C169.564 152.592 169.815 152.19 169.952 151.755C170.106 151.292 170.131 150.836 170.027 150.385C169.98 150.182 169.892 149.954 169.762 149.699C169.655 149.439 169.531 149.159 169.39 148.859C169.153 148.345 168.922 147.805 168.696 147.24C168.494 146.67 168.316 146.106 168.163 145.548C168.011 144.99 167.883 144.486 167.779 144.036C167.581 143.18 167.41 142.389 167.267 141.663C167.118 140.914 166.97 140.224 166.825 139.594C166.554 138.422 166.017 137.585 165.213 137.083C164.404 136.558 163.38 136.439 162.142 136.725C161.624 136.844 161.055 137.154 160.434 137.653C159.837 138.147 159.142 138.734 158.351 139.415C157.581 140.091 156.683 140.773 155.656 141.461C154.793 142.04 153.917 142.61 153.026 143.171C152.131 143.71 151.255 144.233 150.399 144.739L150.032 144.96L149.418 145.329C149.306 144.701 149.205 144.188 149.113 143.79C148.962 143.137 148.611 142.696 148.06 142.468C147.527 142.211 146.956 142.153 146.348 142.294C145.897 142.398 145.517 142.651 145.207 143.055C144.892 143.436 144.665 143.892 144.526 144.422C144.383 144.93 144.329 145.417 144.365 145.883C144.398 146.231 144.459 146.751 144.547 147.443C144.636 148.134 144.772 148.98 144.956 149.982C145.139 150.983 145.377 152.115 145.668 153.376C145.954 154.615 146.44 155.642 147.126 156.456C147.83 157.243 148.703 157.789 149.746 158.093ZM130.792 162.008C131.758 162.188 132.85 162.137 134.066 161.857C135.372 161.555 136.548 161.046 137.592 160.331C138.654 159.587 139.538 158.742 140.245 157.796C140.969 156.822 141.484 155.814 141.788 154.771C142.093 153.727 142.142 152.755 141.934 151.854C141.757 151.088 141.394 150.544 140.845 150.22C140.313 149.868 139.635 149.657 138.812 149.586C138.363 149.543 137.888 149.536 137.388 149.565C137.718 149.24 138.019 148.907 138.293 148.567C138.918 147.782 139.364 146.991 139.631 146.194C139.92 145.391 139.976 144.607 139.799 143.841C139.612 143.03 139.228 142.395 138.648 141.936C138.09 141.472 137.372 141.187 136.494 141.081C135.638 140.971 134.669 141.04 133.588 141.29C132.665 141.503 131.661 141.829 130.577 142.27C129.515 142.705 128.545 143.178 127.666 143.689C126.986 144.131 126.469 144.666 126.115 145.293C125.912 145.656 125.793 146.008 125.758 146.349C125.681 146.442 125.607 146.538 125.536 146.637C125.231 147.063 125.027 147.514 124.923 147.988C124.8 148.586 124.736 149.336 124.731 150.239C124.725 151.142 124.781 152.102 124.897 153.119C125.013 154.136 125.181 155.118 125.399 156.064C125.638 157.1 125.997 158.037 126.475 158.876C126.948 159.692 127.544 160.373 128.263 160.919C129.005 161.459 129.847 161.822 130.792 162.008ZM98.6919 171.591C100.378 172.008 102.189 171.993 104.126 171.546C105.815 171.156 107.241 170.4 108.405 169.277C109.575 168.176 110.395 166.848 110.866 165.292C111.337 163.736 111.372 162.091 110.972 160.356C110.577 158.644 109.876 157.252 108.869 156.18C107.885 155.102 106.639 154.381 105.132 154.017C103.625 153.654 101.926 153.69 100.034 154.127C99.946 154.147 99.8588 154.17 99.7722 154.195C99.6406 154.15 99.5008 154.12 99.3529 154.106C98.9839 154.049 98.5967 154.067 98.1913 154.161C97.268 154.374 96.3793 154.84 95.5253 155.56C94.6886 156.251 93.9611 157.107 93.3427 158.128C92.7416 159.121 92.3156 160.204 92.0645 161.377C91.8134 162.55 91.8178 163.7 92.0778 164.826C92.4781 166.56 93.2535 168.018 94.404 169.2C95.5769 170.377 97.0062 171.173 98.6919 171.591ZM70.2309 164.283C70.8858 164.654 71.5623 164.759 72.2605 164.597C72.8235 164.467 73.3995 164.24 73.9885 163.914C74.5775 163.588 75.3354 163.223 76.2622 162.819L76.753 162.672C76.8183 162.929 76.8834 163.198 76.9483 163.479C77.1614 164.403 77.4049 165.355 77.6787 166.336C77.9699 167.289 78.2792 168.166 78.6067 168.969C78.9567 169.766 79.3154 170.395 79.6827 170.856C80.1055 171.351 80.5169 171.695 80.9172 171.887C81.3347 172.052 81.8137 172.072 82.3542 171.947C82.8496 171.833 83.2654 171.63 83.6015 171.339C83.9601 171.042 84.2242 170.697 84.394 170.301C84.5585 169.884 84.5888 169.45 84.4848 168.999C84.4172 168.706 84.302 168.413 84.1391 168.118C83.971 167.801 83.7813 167.442 83.5699 167.04C83.3585 166.638 83.1428 166.165 82.9227 165.623C82.6974 165.058 82.4964 164.393 82.3196 163.627C82.1896 163.064 82.0354 162.447 81.8569 161.777C81.821 161.621 81.7849 161.467 81.7486 161.315C82.0529 161.261 82.3618 161.209 82.6754 161.16C83.6144 161.015 84.4745 160.887 85.2558 160.778C86.0319 160.646 86.6339 160.531 87.0618 160.432C87.5798 160.313 88.0155 160.093 88.3689 159.775C88.717 159.433 88.9595 159.045 89.0964 158.61C89.2505 158.147 89.2808 157.713 89.1872 157.308C89.0468 156.7 88.6959 156.259 88.1346 155.985C87.5906 155.684 86.9115 155.568 86.0973 155.637C84.7997 155.77 83.5914 155.931 82.4722 156.118C81.3756 156.3 80.1405 156.55 78.7667 156.867C76.5371 157.382 74.7216 157.943 73.3201 158.552C71.9412 159.155 70.894 159.705 70.1786 160.203C69.6849 160.53 69.3445 160.905 69.1574 161.328C68.9651 161.728 68.9262 162.176 69.0406 162.672C69.2018 163.37 69.5985 163.907 70.2309 164.283ZM65.0831 175.117C65.6271 175.418 66.1918 175.501 66.7774 175.366C67.2278 175.262 67.6184 175.053 67.9493 174.74C68.3027 174.421 68.5616 174.052 68.7262 173.635C68.908 173.189 68.947 172.742 68.843 172.291C68.7858 172.043 68.6524 171.671 68.4427 171.173C68.2555 170.671 68.0363 170.081 67.7851 169.403C67.5511 168.698 67.3432 167.951 67.1612 167.163C66.7401 165.339 66.4584 163.707 66.3162 162.269C66.1965 160.826 66.1236 159.585 66.0976 158.547C66.0663 157.487 65.9752 156.63 65.8245 155.976C65.7049 155.458 65.4519 155.03 65.0655 154.693C64.7017 154.349 64.266 154.106 63.7584 153.962C63.2733 153.813 62.7943 153.793 62.3213 153.903C61.961 153.986 61.6786 154.253 61.4743 154.703C61.2924 155.149 61.1279 155.72 60.9807 156.419C60.8508 157.089 60.6664 157.832 60.4274 158.646C60.2646 159.277 60.042 159.957 59.7597 160.687C59.4722 161.394 59.1345 162.089 58.7465 162.771C58.3533 163.432 57.9167 164.007 57.4369 164.497C56.9744 164.96 56.4729 165.254 55.9324 165.378C55.5495 165.467 55.2109 165.438 54.9163 165.293C54.6391 165.12 54.4113 164.852 54.2328 164.49C54.0491 164.105 53.8975 163.654 53.7779 163.136C53.6687 162.663 53.5734 162.198 53.492 161.743C53.4053 161.264 53.3238 160.809 53.2476 160.375C53.1938 159.937 53.1331 159.571 53.0655 159.279C52.9356 158.715 52.6748 158.254 52.2832 157.893C51.8917 157.533 51.4421 157.281 50.9345 157.137C50.4494 156.988 49.9704 156.968 49.4974 157.077C48.7993 157.239 48.329 157.668 48.0865 158.364C47.8614 159.033 47.8346 159.739 48.0061 160.482C48.1725 161.203 48.3155 161.977 48.4351 162.803C48.5721 163.602 48.7107 164.306 48.8511 164.914C49.0383 165.725 49.3069 166.529 49.6569 167.326C50.0243 168.095 50.4799 168.785 51.024 169.395C51.5628 169.982 52.2168 170.4 52.9861 170.65C53.7553 170.899 54.6579 170.904 55.6938 170.665C56.955 170.374 58.1009 169.789 59.1316 168.91C60.0687 168.112 60.8813 167.155 61.5692 166.041C61.6929 166.795 61.8661 167.654 62.0888 168.619C62.276 169.43 62.51 170.289 62.7907 171.197C63.0714 172.105 63.4206 172.95 63.8382 173.731C64.1466 174.348 64.5616 174.81 65.0831 175.117Z" fill="#FFE49F"/>
<path d="M97.2775 163.768C97.5635 165.007 98.2089 165.901 99.2138 166.452C100.241 166.998 101.453 167.11 102.849 166.787C104.043 166.512 104.923 165.905 105.489 164.968C106.056 164.03 106.196 162.942 105.91 161.703C105.655 160.599 105.137 159.794 104.356 159.286C103.574 158.778 102.654 158.647 101.596 158.891C101.101 159.006 100.704 159.24 100.406 159.593C100.13 159.941 99.8195 160.393 99.4731 160.947C99.2306 161.335 99.0089 161.66 98.8079 161.919C98.607 162.179 98.3931 162.383 98.1661 162.53C97.9617 162.672 97.6794 162.785 97.319 162.868C97.3033 162.872 97.2875 162.875 97.2718 162.879C97.2609 162.881 97.2501 162.883 97.2393 162.885C97.2282 162.887 97.2171 162.889 97.206 162.89C97.1875 163.189 97.2114 163.481 97.2775 163.768Z" fill="#FFE49F"/>
<path d="M130.386 155.162C130.588 156.04 130.938 156.73 131.433 157.233C131.929 157.735 132.582 157.893 133.392 157.706C134.046 157.555 134.648 157.238 135.201 156.754C135.776 156.266 136.227 155.651 136.555 154.911C136.764 154.417 136.89 153.886 136.932 153.32C136.734 153.331 136.525 153.347 136.305 153.368C135.609 153.433 134.867 153.51 134.081 153.596C133.294 153.683 132.538 153.798 131.812 153.942C131.217 154.041 130.678 154.143 130.194 154.247C130.25 154.545 130.314 154.85 130.386 155.162Z" fill="#FFE49F"/>
<path d="M150.262 150.465C150.338 150.898 150.434 151.362 150.548 151.858C150.688 152.466 150.963 152.937 151.372 153.269C151.776 153.579 152.259 153.669 152.822 153.539C153.07 153.482 153.33 153.375 153.602 153.217C153.874 153.059 154.121 152.848 154.345 152.583C154.568 152.318 154.733 152.054 154.838 151.793C154.961 151.503 154.989 151.212 154.921 150.919C154.823 150.491 154.587 150.19 154.215 150.015C153.865 149.835 153.435 149.72 152.926 149.672C152.589 149.655 152.161 149.647 151.639 149.649C151.132 149.65 150.628 149.663 150.126 149.686C150.17 149.937 150.215 150.197 150.262 150.465Z" fill="#FFE49F"/>
<path d="M178.093 146.102C178.672 147.274 179.355 148.124 180.141 148.655C180.923 149.162 181.809 149.302 182.8 149.073C183.385 148.938 183.908 148.686 184.369 148.319C184.853 147.946 185.236 147.502 185.52 146.985C185.822 146.441 186.025 145.884 186.131 145.314C186.236 144.744 186.227 144.189 186.102 143.648C185.962 143.04 185.698 142.567 185.312 142.229C184.943 141.863 184.51 141.631 184.013 141.533C183.515 141.434 182.963 141.455 182.355 141.595C181.364 141.824 180.433 142.312 179.561 143.059C178.859 143.65 178.23 144.354 177.675 145.168C177.809 145.497 177.948 145.809 178.093 146.102Z" fill="#FFE49F"/>
<path d="M245.215 126.332C244.326 127.415 243.707 128.638 243.357 130C243.042 131.266 243.007 132.499 243.253 133.7C243.585 133.688 243.94 133.638 244.319 133.55C245.467 133.285 246.376 132.34 247.045 130.714C247.695 129.133 247.921 126.976 247.722 124.244C246.745 124.784 245.91 125.48 245.215 126.332Z" fill="#FFE49F"/>
<path d="M224.072 135.734C224.481 135.759 224.935 135.772 225.434 135.776C225.928 135.757 226.512 135.669 227.188 135.513C228.044 135.316 228.691 134.988 229.131 134.531C229.594 134.068 229.758 133.544 229.622 132.958C229.529 132.553 229.314 132.187 228.978 131.861C228.637 131.513 228.193 131.236 227.647 131.03C227.124 130.818 226.493 130.703 225.753 130.684C225.008 130.643 224.185 130.726 223.284 130.934C222.609 131.09 222.098 131.243 221.754 131.394L221.734 131.403L221.703 131.417C221.991 132.354 222.303 133.263 222.637 134.144C222.83 134.648 223.028 135.148 223.229 135.644C223.497 135.671 223.778 135.701 224.072 135.734Z" fill="#FFE49F"/>
<path d="M266.021 120.033C266.447 120.03 266.975 119.955 267.606 119.81C268.416 119.622 269.122 119.341 269.723 118.965C270.347 118.583 270.804 118.146 271.093 117.652C271.405 117.153 271.506 116.667 271.397 116.194C271.277 115.676 271.042 115.327 270.692 115.146C270.36 114.939 269.867 114.91 269.214 115.061C268.448 115.238 267.783 115.593 267.218 116.127C266.676 116.655 266.244 117.301 265.922 118.063C265.66 118.683 265.479 119.347 265.378 120.055L266.021 120.033Z" fill="#FFE49F"/>
<path d="M320.334 113.791C320.454 114.309 320.593 114.81 320.753 115.296C320.912 115.781 321.175 116.147 321.54 116.395C321.906 116.643 322.426 116.689 323.102 116.533C323.507 116.439 323.892 116.255 324.256 115.981C324.642 115.702 324.968 115.366 325.233 114.973C325.52 114.574 325.727 114.135 325.854 113.655C325.975 113.153 325.978 112.653 325.864 112.158C325.833 112.023 325.674 111.953 325.388 111.947C325.102 111.942 324.734 111.992 324.284 112.096C323.676 112.236 323.031 112.421 322.348 112.649C321.665 112.878 321.031 113.108 320.443 113.338L320.251 113.407C320.278 113.54 320.306 113.667 320.334 113.791Z" fill="#FFE49F"/>
<path d="M201.815 186.013C201.892 186.446 201.987 186.91 202.101 187.406C202.242 188.014 202.516 188.484 202.925 188.817C203.329 189.127 203.812 189.217 204.375 189.087C204.623 189.03 204.883 188.923 205.155 188.765C205.427 188.607 205.674 188.396 205.898 188.131C206.121 187.866 206.286 187.602 206.392 187.34C206.515 187.051 206.542 186.76 206.475 186.467C206.376 186.039 206.14 185.738 205.768 185.563C205.418 185.383 204.988 185.268 204.479 185.22C204.143 185.202 203.714 185.195 203.192 185.196C202.686 185.198 202.181 185.211 201.68 185.234C201.723 185.485 201.768 185.744 201.815 186.013Z" fill="#FFE49F"/>
</g>
</svg>
