<svg width="225" height="86" viewBox="0 0 225 86" fill="none" xmlns="http://www.w3.org/2000/svg">
<path opacity="0.9" d="M204.234 32.2133C208.763 44.0582 215.946 55.7958 224.767 67.0539L218.082 67.3911C215.457 58.5718 210.744 49.7727 206.377 41.0686L213.044 41.3217C212.045 46.961 214.512 53.3026 216.176 59.1335C217.028 62.1218 210.355 61.7303 209.25 58.8948C204.818 47.2759 195.991 36.3821 185.333 26.0189L191.553 25.1276C195.792 39.6757 203.052 54.1023 210.251 68.4705C211.705 71.3792 205.784 72.2416 203.803 69.4054C194.006 55.2245 186.463 40.0763 170.818 27.4356L177.037 26.5443C180.832 43.1469 190.542 59.594 201.6 75.5466C203.298 78.0036 197.723 79.4639 195.617 77.0356C180.501 59.5714 171.156 40.7564 153.831 23.8806L159.815 22.3916C166.88 39.2446 180.557 55.0827 191.853 71.2905C193.611 73.8059 188.222 75.0769 185.869 72.7796C170.988 58.2887 161.54 41.645 142.877 28.6011L148.473 27.2138C149.269 40.4475 157.262 53.3372 167.626 65.7405C169.89 68.453 164.471 70.5401 162.072 67.7764C148.433 52.1059 136.978 35.9563 125.722 19.7339L132.407 19.3967C135.695 37.3324 152.466 53.7268 166.711 69.9807C168.645 72.1902 164.871 74.7814 161.785 72.4908C139.103 55.7274 134.869 34.0527 116.444 16.0102L122.664 15.1188C122.66 33.9191 138.497 52.9506 149.239 71.2129C150.79 73.8447 145.817 74.8828 143.256 72.702C122.187 54.7229 113.105 33.6783 98.5308 14.043L105.215 13.7059C107.77 36.9022 129.142 59.0569 143.551 81.1477C145.251 83.7651 140.059 84.803 137.568 82.6368C114.251 62.3825 107.76 38.6365 90.8303 16.8861L97.497 17.1391C97.2866 27.4208 103.545 38.0283 110.229 48.0168C116.913 58.0052 124.727 68.0017 129.955 78.3023C131.266 80.861 126.549 82.0669 123.972 79.7914C97.0223 56.0582 92.8585 26.951 65.9391 3.24702L72.1588 2.35564C73.2629 15.5167 81.419 28.6688 90.4602 41.2751C99.8055 54.3334 110.557 67.1378 118.869 80.414C120.444 82.9365 115.27 84.2295 112.886 81.9031C87.987 57.6396 81.7166 28.9824 54.8531 5.35868L61.0729 4.46734C62.4783 17.4173 69.7229 30.5615 77.1063 43.232C84.896 56.5587 93.6955 69.7769 100.471 83.234C101.7 85.6615 96.7935 87.2388 94.4873 84.723C71.3063 59.6084 58.3356 32.0389 33.0643 7.46911L39.3012 7.17535C37.265 17.6232 43.6772 29.0396 50.9081 39.371C58.5896 50.322 68.2328 60.8156 77.6523 71.3308L72.0988 73.3668C53.3095 50.245 39.2361 26.2598 22.8865 2.66624L29.5712 2.32905C31.2024 29.9697 60.9182 55.9494 75.8194 82.5294C77.1886 84.9861 72.0767 86.4977 69.8357 84.0184C50.4451 62.6669 39.1905 39.5001 20.138 18.1051L26.375 17.8112C25.4907 40.0138 48.978 62.0171 65.156 82.5135C67.1893 85.1093 61.6081 86.0886 59.1725 84.0026C37.918 65.8704 28.6917 44.4759 11.5222 25.1883L17.7591 24.8946C17.3333 44.6345 37.5219 63.9828 47.285 83.2281C48.744 86.1149 42.6989 87.0428 40.8366 84.1629C27.3477 63.2241 19.6714 41.0803 1.77438 20.9323L8.0113 20.6386C4.74075 36.9733 15.7559 53.465 25.3192 69.7443L18.8708 70.6792C13.6377 60.4004 5.83921 50.4987 0.606107 40.2199L7.27301 40.473C5.54066 49.6823 11.5887 59.4005 18.5038 68.3179C20.6788 71.1033 14.2001 72.009 12.0554 69.2528C4.51291 59.5187 -1.54955 49.0208 0.352669 39.0247C0.731016 36.9336 5.86674 37.0033 7.01958 39.2777C12.2527 49.5565 20.0511 59.4583 25.2842 69.737C26.7432 72.6238 20.5489 73.5661 18.8358 70.6719C8.75943 53.5541 -2.39367 36.3482 1.05619 19.1829C1.43838 17.4125 5.61708 17.0077 7.29313 18.8891C25.5435 39.4309 33.4871 61.8591 47.2151 83.2134L40.7668 84.1483C30.4584 63.8752 10.3265 44.2646 10.769 23.4316C10.8158 21.5225 15.4461 21.395 17.0059 23.1378C34.1405 42.4181 43.432 63.8491 64.6563 81.9521L58.6728 83.4411C41.6653 61.8802 18.4791 39.6657 19.4199 16.3556C19.5017 14.4538 24.1017 14.2971 25.6568 16.0618C44.7093 37.4568 55.9638 60.6236 75.3545 81.9752L69.371 83.4642C54.2307 56.4687 24.3221 30.1974 22.6804 2.09769C22.5306 -0.423709 27.5509 -0.835092 29.365 1.7605C45.4661 24.9822 59.2117 48.6246 77.6826 71.36C79.8764 74.0579 74.6325 76.1815 72.1288 73.3959C62.1142 62.2535 51.9201 51.0964 43.8766 39.4528C36.3953 28.5893 30.306 16.6922 32.4112 5.7562C32.782 3.86918 36.8342 3.71207 38.6481 5.46237C63.9193 30.0321 76.8948 57.5798 100.071 82.7163L94.0876 84.2053C87.129 70.4129 78.0623 56.9103 70.1592 43.2629C62.7852 30.5487 55.5733 17.2515 54.1727 4.27966C53.9314 2.01323 58.0922 1.35347 60.3926 3.38835C87.3167 27.0704 93.531 55.6474 118.425 79.9327L112.442 81.4217C96.2637 55.5111 67.5323 29.3719 65.2588 2.16801C65.0874 -0.0837908 69.1478 -0.787399 71.4785 1.27666C98.4281 25.0098 102.592 54.1171 129.511 77.821L123.528 79.3101C112.781 58.1913 90.1808 37.493 90.5977 15.7637C90.6577 13.2862 95.8379 14.1648 97.2646 16.0168C113.911 37.388 120.188 60.7695 143.107 80.6665L137.124 82.1555C122.436 59.6636 100.88 37.1736 98.3105 13.54C98.0351 10.9238 103.157 10.7166 104.995 13.2029C119.281 32.4809 128.12 53.1318 148.825 70.7608L142.842 72.2499C131.851 53.6157 115.81 34.176 115.789 14.9822C115.794 12.9273 119.721 11.8301 122.009 14.0909C139.985 31.6739 144.109 53.3485 166.098 69.6013L161.173 72.1114C146.287 55.1065 128.939 37.9975 125.502 19.2309C125.012 16.5927 130.459 16.4075 132.187 18.8938C143.199 34.7224 154.33 50.5075 167.647 65.8134L162.093 67.8493C151.158 54.7096 142.418 41.0469 141.573 27.0261C141.482 25.2481 144.693 23.9098 147.169 25.6388C166.375 39.0475 176.114 55.8661 191.413 70.7874L185.43 72.2764C174.094 56.0831 160.457 40.2305 153.392 23.3775C152.382 20.9502 156.811 19.387 159.376 21.8885C176.696 38.7861 186.045 57.5792 201.161 75.0434L195.177 76.5324C183.87 60.208 174.036 43.3237 170.142 26.3348C169.575 23.8859 174.159 23.6345 176.362 25.4434C192.379 38.3905 200.191 53.9834 210.242 68.5143L203.793 69.4491C196.42 54.7018 188.991 39.8743 184.618 24.9326C183.953 22.6003 188.817 22.0649 190.838 24.0413C202.317 35.1703 211.36 46.7491 216.126 59.1917L209.201 58.953C207.412 52.6848 205.016 46.0153 206.074 39.9316C206.452 37.8406 211.623 37.9176 212.741 40.1847C217.278 49.2897 222.199 58.4751 224.919 67.7025C225.744 70.4795 220.01 70.3074 218.235 68.0397C209.135 56.3807 201.918 44.2932 197.224 32.0256C196.103 29.0953 203.054 29.385 204.149 32.2642L204.234 32.2133Z" fill="#FFE49F"/>
</svg>
