<svg width="665" height="136" viewBox="0 0 665 136" fill="none" xmlns="http://www.w3.org/2000/svg">
<path d="M6.51355 24.1319L7.52959 7.36261L17.9442 8.09086L17.8426 9.76779L9.2236 9.16509L8.91879 14.1959L13.5874 14.5223C16.5561 14.7299 18.7181 17.1425 18.5497 19.9214C18.3813 22.7003 15.9465 24.7915 12.9778 24.5839L6.51355 24.1319ZM8.41076 22.5805L13.0794 22.907C15.1144 23.0493 16.638 21.7123 16.7541 19.7959C16.8702 17.8794 15.5208 16.3416 13.4858 16.1993L8.81718 15.8728L8.41076 22.5805ZM19.4541 25.0367L19.5557 23.3598C19.6247 23.4128 19.7175 23.4674 19.8358 23.4997C20.023 23.585 20.2355 23.6479 20.4989 23.6664C21.8157 23.7584 22.7059 22.9546 23.06 17.1093L23.2632 13.7555L31.6428 14.3414L30.9461 25.8403L29.2702 25.7232L29.8725 15.7814L24.8448 15.4298L24.7359 17.2265C24.315 24.1738 22.7914 25.5107 20.6367 25.36C20.3255 25.3383 20.0411 25.2703 19.806 25.1816C19.6877 25.1493 19.5709 25.093 19.4541 25.0367ZM41.7095 26.593L41.8038 25.0358C41.5441 25.3545 41.214 25.6442 40.8389 25.8826C40.1649 26.2925 39.229 26.6601 37.984 26.5731C35.5899 26.4056 34.0156 24.6115 34.1172 22.9346C34.2333 21.0181 35.479 19.9023 37.6795 19.6954L42.1522 19.2864C42.2552 17.5855 41.1532 16.3296 39.4534 16.2108C38.4239 16.1388 37.6077 16.5147 37.0324 16.8835C36.7052 17.1252 36.4019 17.3687 36.1197 17.6617L35.1076 16.5083C35.4435 16.1228 35.8484 15.7903 36.2982 15.509C37.0738 15.0099 38.1352 14.5548 39.5477 14.6536C42.1813 14.8378 43.9805 16.8882 43.8281 19.4036L43.3854 26.7102L41.7095 26.593ZM42.0215 21.4424L42.0651 20.7238L38.0712 21.1662C36.6187 21.3293 35.8584 21.9738 35.7931 23.0518C35.735 24.01 36.5222 24.9071 38.0784 25.0159C40.2571 25.1683 41.8822 23.7422 42.0215 21.4424ZM47.2048 26.9773L47.9015 15.4784L55.5628 16.0141L55.4685 17.5712L49.4831 17.1527L48.8807 27.0945L47.2048 26.9773ZM61.804 28.2387C58.5719 28.0127 56.098 25.1934 56.3012 21.8395C56.5044 18.4857 59.2976 16.0347 62.5297 16.2607C65.7618 16.4867 68.2357 19.306 68.0325 22.6599C67.8293 26.0137 65.0361 28.4647 61.804 28.2387ZM61.8983 26.6816C64.1728 26.8406 66.2042 25.0581 66.3566 22.5427C66.509 20.0273 64.7098 17.9769 62.4354 17.8178C60.1609 17.6588 58.1295 19.4413 57.9771 21.9567C57.8261 24.4482 59.6239 26.5225 61.8983 26.6816ZM68.5892 31.3595L68.8578 26.9276L69.6957 26.9862C70.1035 26.6058 70.4706 26.1022 70.7971 25.4755C71.3651 24.4326 71.9906 22.8404 72.1299 20.5406L72.3331 17.1868L80.2338 17.7392L79.6315 27.681L81.4271 27.8066L81.1585 32.2384L79.4826 32.1213L79.6568 29.2465L70.4393 28.602L70.2651 31.4767L68.5892 31.3595ZM71.4913 27.1118L77.9555 27.5638L78.4636 19.1792L73.9147 18.8611L73.8058 20.6578C73.6723 22.8618 73.0947 24.4573 72.5477 25.5498C72.2212 26.1765 71.878 26.6817 71.4913 27.1118ZM90.9019 30.0329L90.9962 28.4757C90.7365 28.7944 90.4064 29.084 90.0313 29.3224C89.3573 29.7324 88.4214 30.1 87.1764 30.0129C84.7822 29.8455 83.2079 28.0514 83.3095 26.3745C83.4257 24.458 84.6714 23.3422 86.8718 23.1352L91.3446 22.7263C91.4476 21.0254 90.3456 19.7695 88.6458 19.6506C87.6163 19.5786 86.8001 19.9546 86.2247 20.3234C85.8975 20.5651 85.5943 20.8085 85.312 21.1015L84.3 19.9482C84.6359 19.5627 85.0407 19.2301 85.4906 18.9488C86.2661 18.4498 87.3275 17.9947 88.7401 18.0935C91.3737 18.2776 93.1729 20.3281 93.0205 22.8434L92.5778 30.1501L90.9019 30.0329ZM91.2139 24.8823L91.2575 24.1636L87.2636 24.6061C85.8111 24.7691 85.0508 25.4136 84.9855 26.4917C84.9274 27.4499 85.7145 28.347 87.2707 28.4558C89.4494 28.6081 91.0746 27.1821 91.2139 24.8823ZM96.0924 35.4479L97.0939 18.9182L98.7698 19.0354L98.6682 20.7123C98.9533 20.3714 99.2834 20.0817 99.7079 19.8227C100.383 19.3888 101.394 18.9783 102.735 19.0721C105.847 19.2897 108.209 21.9809 107.998 25.4545C107.788 28.9282 105.121 31.2678 102.009 31.0501C100.668 30.9564 99.7156 30.4086 99.0982 29.8843C98.7087 29.5683 98.4163 29.2352 98.1747 28.8574L97.7683 35.5651L96.0924 35.4479ZM102.103 29.493C104.282 29.6453 106.164 27.9485 106.322 25.3373C106.48 22.7261 104.819 20.7816 102.64 20.6292C100.629 20.4886 98.5739 22.2695 98.4215 24.7849C98.269 27.3003 100.092 29.3523 102.103 29.493ZM109.678 31.3458L112.566 27.3377C112.12 27.1621 111.75 26.9197 111.408 26.6072C110.84 26.0622 110.295 25.134 110.382 23.6966C110.513 21.5406 112.29 19.9808 114.804 20.1566L119.712 20.4998L119.015 31.9987L117.339 31.8816L117.572 28.0486L114.22 27.8142L111.594 31.4798L109.678 31.3458ZM114.434 26.2654L117.666 26.4914L117.942 21.9398L114.71 21.7138C113.154 21.605 112.139 22.4723 112.058 23.8138C111.977 25.1554 112.878 26.1566 114.434 26.2654ZM127.562 37.6485L128.564 21.1188L130.24 21.236L130.138 22.9129C130.423 22.572 130.753 22.2823 131.178 22.0233C131.853 21.5894 132.864 21.1789 134.205 21.2727C137.317 21.4903 139.679 24.1815 139.468 27.6551C139.258 31.1288 136.591 33.4684 133.479 33.2507C132.138 33.157 131.186 32.6092 130.568 32.0849C130.179 31.7689 129.886 31.4358 129.645 31.058L129.238 37.7657L127.562 37.6485ZM133.573 31.6936C135.752 31.8459 137.634 30.1491 137.792 27.5379C137.95 24.9267 136.289 22.9822 134.11 22.8298C132.099 22.6892 130.044 24.4701 129.891 26.9855C129.739 29.5009 131.562 31.5529 133.573 31.6936ZM149.049 34.0989L149.143 32.5418C148.884 32.8604 148.553 33.1501 148.178 33.3885C147.504 33.7984 146.568 34.166 145.323 34.079C142.929 33.9116 141.355 32.1174 141.457 30.4405C141.573 28.524 142.818 27.4083 145.019 27.2013L149.492 26.7923C149.595 25.0914 148.493 23.8355 146.793 23.7167C145.763 23.6447 144.947 24.0206 144.372 24.3894C144.045 24.6311 143.741 24.8746 143.459 25.1676L142.447 24.0142C142.783 23.6287 143.188 23.2962 143.638 23.0149C144.413 22.5158 145.475 22.0608 146.887 22.1595C149.521 22.3437 151.32 24.3941 151.168 26.9095L150.725 34.2161L149.049 34.0989ZM149.361 28.9483L149.405 28.2297L145.411 28.6721C143.958 28.8352 143.198 29.4797 143.133 30.5577C143.074 31.5159 143.862 32.413 145.418 32.5218C147.597 32.6742 149.222 31.2481 149.361 28.9483ZM164.941 17.6482L165.699 19.0243C165.474 19.177 165.152 19.3229 164.735 19.4621C164.022 19.725 162.897 20.0313 161.056 20.2634C158.607 20.5974 156.728 22.2462 156.405 25.5917C156.693 25.2029 157.052 24.843 157.479 24.5361C158.184 24.008 159.201 23.5017 160.613 23.6005C163.582 23.8081 165.967 26.5009 165.772 29.735C165.576 32.9691 162.909 35.3087 159.797 35.091C156.565 34.865 154.203 32.1739 154.501 27.2629C154.855 21.4176 157.524 19.0301 160.911 18.6895C162.363 18.5264 163.34 18.282 164.002 18.0637C164.372 17.9211 164.691 17.7991 164.941 17.6482ZM159.891 33.5339C162.07 33.6862 163.95 32.0134 164.096 29.6178C164.241 27.2222 162.578 25.3016 160.399 25.1493C158.221 24.9969 156.34 26.6697 156.195 29.0654C156.05 31.461 157.713 33.3816 159.891 33.5339ZM173.562 36.0536C170.33 35.8276 167.856 33.0083 168.06 29.6544C168.263 26.3006 171.056 23.8496 174.288 24.0756C177.52 24.3016 179.994 27.1209 179.791 30.4748C179.588 33.8286 176.794 36.2796 173.562 36.0536ZM173.657 34.4965C175.931 34.6555 177.963 32.873 178.115 30.3576C178.267 27.8422 176.468 25.7918 174.194 25.6327C171.919 25.4737 169.888 27.2562 169.735 29.7716C169.584 32.2631 171.382 34.3374 173.657 34.4965ZM184.837 36.6014L185.439 26.6597L181.369 26.3751L181.464 24.8179L191.28 25.5043L191.185 27.0615L187.115 26.7769L186.513 36.7186L184.837 36.6014ZM201.563 34.5233L202.575 35.6766C202.212 36.1083 201.782 36.4632 201.281 36.789C200.407 37.3293 199.198 37.8462 197.641 37.7374C194.505 37.5181 192.055 34.7004 192.258 31.3466C192.461 27.9927 195.255 25.5417 198.247 25.751C201.384 25.9703 203.609 28.5316 203.406 31.8855C203.39 32.149 203.33 32.3373 203.296 32.5033L203.234 32.7395L193.898 32.0627C193.894 34.1073 195.557 36.0279 197.736 36.1802C198.957 36.2656 199.872 35.8484 200.547 35.4145C200.924 35.1522 201.278 34.8642 201.563 34.5233ZM193.985 30.6253L201.766 31.1694C201.626 29.1147 200.188 27.4504 198.153 27.3081C196.094 27.1642 194.364 28.7272 193.985 30.6253ZM216.496 43.8673L216.786 39.0761C212.86 38.8016 210.362 35.9806 210.565 32.6267C210.768 29.2729 213.585 26.8235 217.512 27.0981L217.817 22.0673L219.493 22.1845L219.188 27.2153C223.114 27.4898 225.612 30.3108 225.409 33.6647C225.206 37.0185 222.388 39.4679 218.462 39.1933L218.172 43.9845L216.496 43.8673ZM216.881 37.519L217.418 28.6552C214.425 28.446 212.393 30.2285 212.241 32.7439C212.086 35.3072 213.888 37.3097 216.881 37.519ZM219.093 28.7724L218.556 37.6362C221.549 37.8454 223.578 36.1108 223.733 33.5475C223.885 31.0321 222.086 28.9817 219.093 28.7724ZM233.065 40.2145C229.833 39.9885 227.359 37.1691 227.563 33.8153C227.766 30.4614 230.559 28.0104 233.791 28.2365C237.023 28.4625 239.497 31.2818 239.294 34.6356C239.091 37.9895 236.298 40.4405 233.065 40.2145ZM233.16 38.6573C235.434 38.8164 237.466 37.0338 237.618 34.5184C237.771 32.0031 235.971 29.9526 233.697 29.7936C231.422 29.6345 229.391 31.4171 229.239 33.9325C229.088 36.4239 230.885 38.4983 233.16 38.6573ZM241.94 40.5945L242.637 29.0956L244.313 29.2128L244.015 34.1238L250.599 34.5842L250.897 29.6732L252.573 29.7904L251.876 41.2893L250.2 41.1721L250.505 36.1413L243.921 35.6809L243.616 40.7117L241.94 40.5945ZM253.622 44.2983L253.89 39.8664L254.728 39.925C255.136 39.5445 255.503 39.0409 255.83 38.4142C256.398 37.3713 257.023 35.7791 257.162 33.4794L257.366 30.1255L265.266 30.678L264.664 40.6198L266.46 40.7453L266.191 45.1772L264.515 45.06L264.689 42.1853L255.472 41.5407L255.298 44.4154L253.622 44.2983ZM256.524 40.0505L262.988 40.5026L263.496 32.1179L258.947 31.7998L258.838 33.5966C258.705 35.8005 258.127 37.396 257.58 38.4885C257.254 39.1152 256.911 39.6205 256.524 40.0505ZM275.934 42.9716L276.029 41.4145C275.769 41.7331 275.439 42.0228 275.064 42.2612C274.39 42.6711 273.454 43.0387 272.209 42.9517C269.815 42.7842 268.24 40.9901 268.342 39.3132C268.458 37.3967 269.704 36.281 271.904 36.074L276.377 35.665C276.48 33.9641 275.378 32.7082 273.678 32.5894C272.649 32.5174 271.833 32.8933 271.257 33.2621C270.93 33.5038 270.627 33.7473 270.345 34.0403L269.333 32.8869C269.668 32.5014 270.073 32.1689 270.523 31.8876C271.299 31.3885 272.36 30.9334 273.773 31.0322C276.406 31.2164 278.205 33.2668 278.053 35.7822L277.61 43.0888L275.934 42.9716ZM276.246 37.821L276.29 37.1024L272.296 37.5448C270.844 37.7079 270.083 38.3524 270.018 39.4304C269.96 40.3886 270.747 41.2857 272.303 41.3945C274.482 41.5469 276.107 40.1208 276.246 37.821ZM285.924 30.679L288.938 26.5595L289.979 27.2337L287.541 31.7545L285.924 30.679ZM289.634 30.9385L292.649 26.8189L293.69 27.4932L291.252 32.0139L289.634 30.9385ZM295.799 44.3607L296.815 27.5914L298.611 27.717L298.161 35.1434L307.498 35.7963L307.948 28.3699L309.744 28.4955L308.728 45.2647L306.932 45.1392L307.397 37.4732L298.059 36.8203L297.595 44.4862L295.799 44.3607ZM320.1 46.06L320.194 44.5028C319.935 44.8215 319.604 45.1111 319.229 45.3495C318.555 45.7595 317.62 46.1271 316.375 46.04C313.98 45.8726 312.406 44.0785 312.508 42.4016C312.624 40.4851 313.87 39.3693 316.07 39.1623L320.543 38.7534C320.646 37.0525 319.544 35.7966 317.844 35.6777C316.814 35.6057 315.998 35.9817 315.423 36.3504C315.096 36.5922 314.792 36.8356 314.51 37.1286L313.498 35.9753C313.834 35.5898 314.239 35.2572 314.689 34.9759C315.464 34.4769 316.526 34.0218 317.938 34.1206C320.572 34.3047 322.371 36.3552 322.219 38.8705L321.776 46.1771L320.1 46.06ZM320.412 40.9094L320.456 40.1907L316.462 40.6332C315.009 40.7962 314.249 41.4407 314.184 42.5188C314.126 43.477 314.913 44.3741 316.469 44.4829C318.648 44.6352 320.273 43.2092 320.412 40.9094ZM328.407 29.8005L329.724 29.8926C329.642 31.2342 330.295 31.9774 331.516 32.0628C332.737 32.1482 333.473 31.502 333.554 30.1605L334.871 30.2526C334.755 32.169 333.358 33.3946 331.443 33.2606C329.528 33.1267 328.291 31.717 328.407 29.8005ZM325.595 46.4442L326.292 34.9453L327.968 35.0625L327.445 43.6867L334.911 35.548L336.347 35.6485L335.651 47.1474L333.975 47.0302L334.497 38.406L327.032 46.5447L325.595 46.4442ZM337.394 50.1562L337.662 45.7243L338.5 45.7829C338.908 45.4024 339.275 44.8988 339.602 44.2721C340.17 43.2292 340.795 41.6371 340.934 39.3373L341.138 35.9834L349.038 36.5359L348.436 46.4777L350.232 46.6032L349.963 51.0351L348.287 50.9179L348.461 48.0432L339.244 47.3986L339.07 50.2734L337.394 50.1562ZM340.296 45.9084L346.76 46.3605L347.268 37.9758L342.719 37.6578L342.61 39.4545C342.477 41.6584 341.899 43.2539 341.352 44.3464C341.026 44.9731 340.683 45.4784 340.296 45.9084ZM352.763 48.344L353.46 36.8451L355.136 36.9623L354.613 45.5865L362.079 37.4478L363.516 37.5482L362.819 49.0471L361.143 48.93L361.665 40.3058L354.2 48.4444L352.763 48.344ZM380.373 47.0269L381.505 48.1886C381.118 48.6187 380.664 48.9719 380.164 49.2977C379.289 49.838 378.08 50.3549 376.572 50.2494C373.435 50.0301 370.985 47.2124 371.189 43.8586C371.392 40.5047 374.161 38.0521 377.297 38.2714C378.806 38.3768 379.92 39.0322 380.675 39.6623C381.11 40.0295 381.494 40.4413 381.828 40.8737L380.558 41.9878C380.317 41.61 380.048 41.2785 379.731 40.9676C379.185 40.4483 378.328 39.9072 377.203 39.8285C375.048 39.6778 373.017 41.4604 372.864 43.9758C372.712 46.4912 374.511 48.5416 376.666 48.6923C377.791 48.771 378.706 48.3538 379.382 47.9199C379.758 47.6575 380.088 47.3678 380.373 47.0269ZM392.581 47.8805L393.593 49.0339C393.23 49.4656 392.8 49.8205 392.299 50.1463C391.425 50.6866 390.215 51.2035 388.659 51.0947C385.523 50.8753 383.073 48.0577 383.276 44.7038C383.479 41.35 386.273 38.899 389.265 39.1083C392.402 39.3276 394.627 41.8889 394.424 45.2428C394.408 45.5063 394.348 45.6946 394.314 45.8606L394.252 46.0968L384.916 45.4199C384.912 47.4646 386.575 49.3852 388.754 49.5375C389.975 49.6229 390.89 49.2057 391.565 48.7718C391.942 48.5094 392.296 48.2215 392.581 47.8805ZM385.003 43.9826L392.784 44.5267C392.644 42.472 391.206 40.8077 389.171 40.6654C387.112 40.5214 385.382 42.0845 385.003 43.9826ZM397.046 51.4405L397.743 39.9416L399.059 40.0337L403.26 46.1012L408.157 40.6699L409.474 40.762L408.777 52.2609L407.101 52.1437L407.617 43.6393L403.107 48.6166L399.237 43.0533L398.722 51.5577L397.046 51.4405ZM412.617 52.5294L413.314 41.0305L414.99 41.1477L414.758 44.9806L417.75 45.1899C420.408 45.3757 421.847 47.0161 421.708 49.3159C421.568 51.6156 419.919 53.04 417.31 52.8575L412.617 52.5294ZM414.387 51.0894L417.404 51.3004C418.936 51.4075 419.951 50.5402 420.032 49.1987C420.113 47.8571 419.212 46.8559 417.656 46.7471L414.663 46.5378L414.387 51.0894ZM424.471 53.3583L425.168 41.8594L426.844 41.9766L426.546 46.8876L429.06 47.0634C429.61 44.3352 432.125 42.1053 435.118 42.3146C438.254 42.5339 440.704 45.3516 440.501 48.7054C440.298 52.0593 437.529 54.5119 434.392 54.2926C431.4 54.0834 429.175 51.522 428.966 48.6205L426.452 48.4447L426.147 53.4755L424.471 53.3583ZM434.487 52.7355C436.641 52.8862 438.673 51.1036 438.825 48.5882C438.978 46.0728 437.178 44.0224 435.024 43.8717C432.869 43.7211 430.838 45.5036 430.685 48.019C430.533 50.5344 432.332 52.5848 434.487 52.7355ZM442.597 41.9956L445.035 37.4748L446.653 38.5503L443.638 42.6698L442.597 41.9956ZM446.308 42.2551L448.746 37.7343L450.364 38.8097L447.349 42.9293L446.308 42.2551ZM454.834 58.3684L455.102 53.9365L455.94 53.9951C456.348 53.6146 456.715 53.111 457.041 52.4843C457.609 51.4414 458.235 49.8492 458.374 47.5495L458.577 44.1956L466.478 44.7481L465.876 54.6899L467.671 54.8154L467.403 59.2473L465.727 59.1301L465.901 56.2554L456.684 55.6108L456.509 58.4855L454.834 58.3684ZM457.736 54.1206L464.2 54.5727L464.708 46.188L460.159 45.8699L460.05 47.6667C459.917 49.8706 459.339 51.4661 458.792 52.5586C458.466 53.1853 458.122 53.6906 457.736 54.1206ZM479.018 53.9248L480.03 55.0782C479.667 55.5099 479.237 55.8647 478.737 56.1906C477.862 56.7309 476.653 57.2478 475.097 57.139C471.96 56.9196 469.51 54.102 469.714 50.7481C469.917 47.3943 472.71 44.9433 475.703 45.1525C478.839 45.3719 481.064 47.9332 480.861 51.2871C480.845 51.5506 480.785 51.7389 480.751 51.9049L480.689 52.1411L471.353 51.4642C471.35 53.5089 473.012 55.4295 475.191 55.5818C476.412 55.6672 477.327 55.25 478.002 54.8161C478.379 54.5537 478.733 54.2657 479.018 53.9248ZM471.44 50.0269L479.221 50.571C479.081 48.5163 477.643 46.852 475.608 46.7097C473.549 46.5657 471.82 48.1288 471.44 50.0269ZM485.883 57.6526L486.485 47.7109L482.415 47.4263L482.51 45.8691L492.326 46.5555L492.231 48.1127L488.161 47.8281L487.559 57.7698L485.883 57.6526ZM494.028 58.2222L494.725 46.7233L496.4 46.8404L495.878 55.4646L503.343 47.326L504.78 47.4264L504.083 58.9253L502.407 58.8081L502.93 50.1839L495.464 58.3226L494.028 58.2222ZM512.943 59.5448L513.639 48.0459L514.956 48.138L519.157 54.2055L524.054 48.7742L525.371 48.8662L524.674 60.3652L522.998 60.248L523.513 51.7436L519.004 56.7209L515.134 51.1576L514.618 59.662L512.943 59.5448ZM533.527 61.2248C530.295 60.9988 527.821 58.1795 528.024 54.8256C528.227 51.4718 531.021 49.0208 534.253 49.2468C537.485 49.4728 539.959 52.2921 539.756 55.646C539.552 58.9998 536.759 61.4508 533.527 61.2248ZM533.621 59.6677C535.896 59.8267 537.927 58.0442 538.08 55.5288C538.232 53.0134 536.433 50.963 534.158 50.8039C531.884 50.6449 529.853 52.4274 529.7 54.9428C529.549 57.4342 531.347 59.5086 533.621 59.6677ZM542.402 61.6048L543.099 50.1059L550.76 50.6416L550.666 52.1988L544.68 51.7802L544.078 61.722L542.402 61.6048ZM551.093 67.0241L551.188 65.467C551.305 65.5232 551.445 65.5812 551.564 65.6135C551.799 65.7021 552.059 65.7685 552.37 65.7902C553.448 65.8656 554.105 65.3341 554.634 64.1442L555.334 62.5091L551.362 50.6837L553.158 50.8093L556.303 60.4117L560.58 51.3283L562.375 51.4539L556.31 64.2614C555.207 66.59 554.167 67.4796 552.515 67.3641C552.108 67.3356 551.776 67.2643 551.493 67.1723C551.327 67.1367 551.21 67.0804 551.093 67.0241ZM566.592 63.2964L567.195 53.3546L563.124 53.07L563.219 51.5128L573.035 52.1993L572.94 53.7564L568.87 53.4718L568.268 63.4136L566.592 63.2964ZM4.10065 54.0351L4.79736 42.5362L14.7331 43.2309L14.0364 54.7299L12.3605 54.6127L12.9614 44.6949L6.37747 44.2345L5.77655 54.1523L4.10065 54.0351ZM22.8849 55.5892C19.6528 55.3632 17.1789 52.5438 17.3821 49.19C17.5853 45.8361 20.3786 43.3851 23.6107 43.6112C26.8428 43.8372 29.3167 46.6565 29.1135 50.0103C28.9103 53.3642 26.117 55.8152 22.8849 55.5892ZM22.9793 54.032C25.2537 54.1911 27.2852 52.4085 27.4376 49.8931C27.59 47.3778 25.7908 45.3273 23.5163 45.1683C21.2419 45.0092 19.2104 46.7918 19.058 49.3072C18.9071 51.7986 20.7048 53.873 22.9793 54.032ZM38.9477 56.4718L39.2308 51.8004C38.9573 51.9497 38.6359 52.0956 38.292 52.2159C37.7014 52.4392 36.8983 52.5996 35.9406 52.5326C33.331 52.3501 31.6217 50.4022 31.78 47.791L31.9832 44.4372L33.6591 44.5544L33.4559 47.9082C33.3528 49.6091 34.4548 50.865 36.1547 50.9839C37.1123 51.0508 37.8944 50.8409 38.461 50.6159C38.7824 50.4699 39.056 50.3207 39.3324 50.1235L39.6445 44.9729L41.3204 45.0901L40.6236 56.589L38.9477 56.4718ZM43.327 61.5896L43.4213 60.0324C43.5381 60.0887 43.6789 60.1467 43.7971 60.179C44.0322 60.2676 44.2926 60.3339 44.6039 60.3557C45.6813 60.431 46.3386 59.8996 46.8675 58.7097L47.5676 57.0746L43.5957 45.2492L45.3914 45.3748L48.5362 54.9771L52.8132 45.8938L54.6089 46.0193L48.5434 58.8269C47.4406 61.1555 46.4009 62.0451 44.749 61.9296C44.342 61.9011 44.0097 61.8298 43.7267 61.7378C43.5606 61.7021 43.4438 61.6459 43.327 61.5896ZM56.1922 57.6777L56.8889 46.1788L62.156 46.5471C64.3347 46.6994 65.5492 48.0835 65.4461 49.7843C65.3953 50.6228 64.9999 51.1966 64.6176 51.5548C64.389 51.7553 64.138 51.9302 63.8645 52.0795C64.2164 52.2244 64.5174 52.4138 64.7902 52.6735C65.2444 53.1142 65.6811 53.8424 65.6129 54.9684C65.4895 57.0046 64.0929 58.2302 61.6987 58.0627L56.1922 57.6777ZM58.2818 50.9674L61.873 51.2185C63.094 51.3039 63.7049 50.7452 63.763 49.7869C63.821 48.8287 63.2827 48.1896 62.0617 48.1042L58.4705 47.8531L58.2818 50.9674ZM57.9625 56.2377L61.7931 56.5056C63.1338 56.5993 63.8702 55.9532 63.9442 54.7314C64.0183 53.5097 63.3661 52.7664 62.0253 52.6726L58.1947 52.4048L57.9625 56.2377ZM77.2089 55.8995L78.3406 57.0613C77.9539 57.4913 77.4998 57.8445 76.9992 58.1703C76.1249 58.7106 74.9155 59.2275 73.4072 59.122C70.2708 58.9027 67.8209 56.0851 68.0241 52.7312C68.2273 49.3774 70.9966 46.9247 74.1329 47.144C75.6412 47.2495 76.7556 47.9048 77.5108 48.535C77.9454 48.9022 78.3292 49.3139 78.6636 49.7463L77.394 50.8604C77.1524 50.4826 76.884 50.1511 76.5662 49.8402C76.0206 49.3209 75.1638 48.7798 74.0386 48.7012C71.8838 48.5505 69.8524 50.333 69.7 52.8484C69.5476 55.3638 71.3468 57.4142 73.5015 57.5649C74.6268 57.6436 75.5416 57.2264 76.2171 56.7925C76.5936 56.5301 76.9237 56.2405 77.2089 55.8995ZM83.4687 59.585L84.0711 49.6433L80.001 49.3587L80.0954 47.8015L89.9114 48.4879L89.8171 50.0451L85.747 49.7605L85.1446 59.7022L83.4687 59.585ZM91.6135 60.1546L92.3102 48.6557L97.5774 49.024C99.756 49.1763 100.971 50.5604 100.867 52.2612C100.817 53.0997 100.421 53.6735 100.039 54.0317C99.8104 54.2322 99.5593 54.4071 99.2858 54.5564C99.6377 54.7013 99.9388 54.8907 100.212 55.1504C100.666 55.5911 101.102 56.3193 101.034 57.4453C100.911 59.4815 99.5142 60.7071 97.1201 60.5396L91.6135 60.1546ZM93.7031 53.4443L97.2943 53.6954C98.5153 53.7808 99.1262 53.2221 99.1843 52.2638C99.2423 51.3056 98.704 50.6665 97.483 50.5811L93.8918 50.33L93.7031 53.4443ZM93.3838 58.7146L97.2144 58.9825C98.5551 59.0762 99.2915 58.4301 99.3656 57.2083C99.4396 55.9866 98.7874 55.2433 97.4467 55.1495L93.616 54.8817L93.3838 58.7146ZM108.948 61.6073C105.716 61.3813 103.242 58.562 103.445 55.2081C103.649 51.8543 106.442 49.4033 109.674 49.6293C112.906 49.8553 115.38 52.6746 115.177 56.0285C114.974 59.3823 112.18 61.8333 108.948 61.6073ZM109.043 60.0502C111.317 60.2092 113.348 58.4267 113.501 55.9113C113.653 53.3959 111.854 51.3455 109.58 51.1864C107.305 51.0274 105.274 52.8099 105.121 55.3253C104.97 57.8168 106.768 59.8911 109.043 60.0502ZM117.823 61.9873L118.52 50.4884L123.787 50.8567C125.965 51.0091 127.18 52.3931 127.077 54.094C127.026 54.9324 126.631 55.5062 126.248 55.8644C126.02 56.065 125.769 56.2399 125.495 56.3891C125.847 56.534 126.148 56.7235 126.421 56.9831C126.875 57.4239 127.312 58.1521 127.244 59.278C127.12 61.3143 125.724 62.5398 123.33 62.3724L117.823 61.9873ZM119.913 55.277L123.504 55.5282C124.725 55.6135 125.336 55.0548 125.394 54.0966C125.452 53.1383 124.913 52.4993 123.692 52.4139L120.101 52.1627L119.913 55.277ZM119.593 60.5474L123.424 60.8152C124.765 60.909 125.501 60.2628 125.575 59.0411C125.649 57.8193 124.997 57.076 123.656 56.9823L119.825 56.7144L119.593 60.5474ZM137.087 63.3344L137.182 61.7773C136.922 62.0959 136.592 62.3856 136.217 62.624C135.543 63.034 134.607 63.4016 133.362 63.3145C130.968 63.1471 129.394 61.353 129.495 59.676C129.611 57.7596 130.857 56.6438 133.057 56.4368L137.53 56.0278C137.633 54.3269 136.531 53.0711 134.831 52.9522C133.802 52.8802 132.986 53.2562 132.41 53.6249C132.083 53.8667 131.78 54.1101 131.498 54.4031L130.486 53.2498C130.822 52.8643 131.226 52.5317 131.676 52.2504C132.452 51.7513 133.513 51.2963 134.926 51.3951C137.559 51.5792 139.358 53.6296 139.206 56.145L138.763 63.4516L137.087 63.3344ZM137.4 58.1839L137.443 57.4652L133.449 57.9076C131.997 58.0707 131.236 58.7152 131.171 59.7932C131.113 60.7515 131.9 61.6485 133.456 61.7574C135.635 61.9097 137.26 60.4837 137.4 58.1839ZM144.983 63.8865L145.585 53.9447L141.515 53.6601L141.609 52.103L151.425 52.7894L151.331 54.3465L147.261 54.0619L146.658 64.0037L144.983 63.8865ZM153.127 64.456L153.824 52.9571L155.5 53.0743L155.268 56.9073L158.26 57.1166C160.918 57.3024 162.357 58.9427 162.218 61.2425C162.079 63.5423 160.43 64.9667 157.82 64.7842L153.127 64.456ZM154.898 63.0161L157.914 63.227C159.447 63.3342 160.461 62.4669 160.542 61.1253C160.623 59.7838 159.722 58.7825 158.166 58.6737L155.173 58.4644L154.898 63.0161ZM168.093 65.5025L168.194 63.8256C168.263 63.8785 168.356 63.9331 168.474 63.9655C168.662 64.0507 168.874 64.1137 169.137 64.1321C170.454 64.2242 171.344 63.4204 171.699 57.5751L171.902 54.2213L180.281 54.8072L179.585 66.3061L177.909 66.1889L178.511 56.2472L173.483 55.8956L173.375 57.6923C172.954 64.6396 171.43 65.9765 169.275 65.8258C168.964 65.804 168.68 65.736 168.445 65.6474C168.326 65.6151 168.21 65.5588 168.093 65.5025ZM183.405 66.5733L184.102 55.0744L185.778 55.1915L185.48 60.1025L187.994 60.2783C188.544 57.5502 191.059 55.3203 194.052 55.5296C197.188 55.7489 199.638 58.5665 199.435 61.9204C199.232 65.2742 196.463 67.7269 193.326 67.5076C190.334 67.2983 188.108 64.737 187.9 61.8355L185.386 61.6597L185.081 66.6905L183.405 66.5733ZM193.421 65.9505C195.575 66.1011 197.607 64.3186 197.759 61.8032C197.912 59.2878 196.112 57.2374 193.958 57.0867C191.803 56.936 189.771 58.7186 189.619 61.234C189.467 63.7494 191.266 65.7998 193.421 65.9505ZM212.483 51.0446L213.241 52.4207C213.015 52.5734 212.694 52.7193 212.277 52.8585C211.563 53.1214 210.439 53.4277 208.598 53.6598C206.149 53.9938 204.27 55.6426 203.947 58.9881C204.235 58.5993 204.593 58.2394 205.021 57.9325C205.726 57.4044 206.742 56.8981 208.155 56.9969C211.124 57.2045 213.509 59.8973 213.313 63.1314C213.117 66.3655 210.451 68.7051 207.339 68.4874C204.106 68.2614 201.745 65.5703 202.043 60.6593C202.397 54.814 205.066 52.4265 208.453 52.0859C209.905 51.9228 210.882 51.6784 211.544 51.4601C211.913 51.3175 212.233 51.1955 212.483 51.0446ZM207.433 66.9303C209.612 67.0826 211.492 65.4098 211.637 63.0142C211.782 60.6186 210.12 58.698 207.941 58.5457C205.762 58.3933 203.882 60.0661 203.737 62.4617C203.591 64.8574 205.254 66.7779 207.433 66.9303ZM221.104 69.45C217.872 69.224 215.398 66.4047 215.601 63.0508C215.804 59.697 218.598 57.246 221.83 57.472C225.062 57.698 227.536 60.5173 227.333 63.8712C227.129 67.225 224.336 69.676 221.104 69.45ZM221.198 67.8929C223.473 68.0519 225.504 66.2694 225.657 63.754C225.809 61.2386 224.01 59.1882 221.735 59.0291C219.461 58.8701 217.43 60.6526 217.277 63.168C217.126 65.6595 218.924 67.7338 221.198 67.8929ZM229.979 69.83L230.675 58.3311L235.943 58.6994C238.121 58.8518 239.336 60.2358 239.233 61.9367C239.182 62.7751 238.786 63.3489 238.404 63.7071C238.176 63.9077 237.925 64.0826 237.651 64.2318C238.003 64.3767 238.304 64.5662 238.577 64.8258C239.031 65.2666 239.468 65.9948 239.399 67.1207C239.276 69.157 237.879 70.3825 235.485 70.2151L229.979 69.83ZM232.068 63.1197L235.66 63.3709C236.881 63.4562 237.491 62.8975 237.55 61.9393C237.608 60.981 237.069 60.3419 235.848 60.2566L232.257 60.0054L232.068 63.1197ZM231.749 68.3901L235.58 68.6579C236.92 68.7517 237.657 68.1055 237.731 66.8838C237.805 65.662 237.153 64.9187 235.812 64.825L231.981 64.5571L231.749 68.3901ZM242.3 70.6916L242.997 59.1927L244.673 59.3099L244.441 63.1429L247.433 63.3521C250.091 63.538 251.53 65.1783 251.391 67.4781C251.252 69.7779 249.602 71.2022 246.993 71.0198L242.3 70.6916ZM244.07 69.2517L247.087 69.4626C248.619 69.5698 249.634 68.7024 249.715 67.3609C249.796 66.0194 248.895 65.0181 247.339 64.9093L244.346 64.7L244.07 69.2517ZM252.086 73.902L254.524 69.3812L256.142 70.4567L253.127 74.5762L252.086 73.902ZM264.441 72.2399L265.138 60.741L275.074 61.4358L274.377 72.9347L272.701 72.8175L273.302 62.8997L266.718 62.4393L266.117 72.3571L264.441 72.2399ZM283.226 73.794C279.994 73.568 277.52 70.7487 277.723 67.3948C277.926 64.041 280.719 61.5899 283.952 61.816C287.184 62.042 289.658 64.8613 289.454 68.2151C289.251 71.569 286.458 74.02 283.226 73.794ZM283.32 72.2368C285.595 72.3959 287.626 70.6133 287.778 68.098C287.931 65.5826 286.132 63.5321 283.857 63.3731C281.583 63.2141 279.551 64.9966 279.399 67.512C279.248 70.0034 281.046 72.0778 283.32 72.2368ZM290.011 76.9148L290.28 72.4829L291.117 72.5415C291.525 72.161 291.892 71.6575 292.219 71.0307C292.787 69.9879 293.412 68.3957 293.552 66.0959L293.755 62.7421L301.656 63.2945L301.053 73.2363L302.849 73.3619L302.58 77.7937L300.904 77.6765L301.079 74.8018L291.861 74.1573L291.687 77.032L290.011 76.9148ZM292.913 72.6671L299.377 73.1191L299.885 64.7345L295.336 64.4164L295.228 66.2131C295.094 68.417 294.517 70.0126 293.969 71.105C293.643 71.7318 293.3 72.237 292.913 72.6671ZM303.759 77.8761L304.027 73.4443L304.865 73.5028C305.273 73.1224 305.64 72.6188 305.967 71.9921C306.535 70.9492 307.16 69.357 307.299 67.0572L307.503 63.7034L315.403 64.2559L314.801 74.1976L316.597 74.3232L316.328 78.7551L314.652 78.6379L314.826 75.7631L305.609 75.1186L305.435 77.9933L303.759 77.8761ZM306.661 73.6284L313.125 74.0804L313.633 65.6958L309.084 65.3777L308.975 67.1744C308.842 69.3784 308.264 70.9739 307.717 72.0664C307.391 72.6931 307.047 73.1984 306.661 73.6284ZM327.943 73.4326L328.955 74.5859C328.592 75.0177 328.162 75.3725 327.662 75.6984C326.787 76.2387 325.578 76.7555 324.022 76.6467C320.885 76.4274 318.435 73.6098 318.639 70.2559C318.842 66.9021 321.635 64.4511 324.628 64.6603C327.764 64.8796 329.989 67.441 329.786 70.7948C329.77 71.0583 329.711 71.2466 329.676 71.4127L329.614 71.6489L320.278 70.972C320.275 73.0166 321.937 74.9372 324.116 75.0896C325.337 75.175 326.252 74.7578 326.927 74.3239C327.304 74.0615 327.658 73.7735 327.943 73.4326ZM320.365 69.5346L328.146 70.0787C328.006 68.0241 326.568 66.3598 324.533 66.2175C322.474 66.0735 320.745 67.6366 320.365 69.5346ZM332.104 82.0234L333.105 65.4937L334.781 65.6109L334.679 67.2878C334.964 66.9469 335.295 66.6572 335.719 66.3982C336.394 65.9643 337.405 65.5538 338.746 65.6475C341.858 65.8652 344.22 68.5564 344.009 72.03C343.799 75.5036 341.132 77.8432 338.02 77.6256C336.679 77.5318 335.727 76.9841 335.109 76.4597C334.72 76.1438 334.427 75.8106 334.186 75.4329L333.779 82.1406L332.104 82.0234ZM338.114 76.0684C340.293 76.2208 342.175 74.524 342.333 71.9128C342.492 69.3016 340.83 67.357 338.651 67.2047C336.64 67.0641 334.585 68.8449 334.433 71.3603C334.28 73.8757 336.103 75.9278 338.114 76.0684ZM344.737 77.8547L350.059 71.3704L345.913 66.3893L347.948 66.5316L352.761 72.4014L353.095 66.8915L354.771 67.0087L354.437 72.5186L359.919 67.3687L361.954 67.511L357.241 71.8727L361.736 79.0434L359.82 78.9094L356.092 72.9952L354.307 74.6747L354.074 78.5076L352.399 78.3904L352.631 74.5575L351.064 72.6436L346.653 77.9887L344.737 77.8547ZM363.902 79.1948L364.598 67.6959L366.274 67.8131L365.904 73.9219L372.02 68.2149L374.055 68.3572L369.343 72.7189L373.837 79.8896L371.922 79.7557L368.193 73.8414L365.774 76.078L365.578 79.312L363.902 79.1948ZM374.861 84.7727L374.956 83.2156C375.072 83.2718 375.213 83.3298 375.331 83.3621C375.566 83.4507 375.827 83.5171 376.138 83.5388C377.215 83.6142 377.873 83.0827 378.402 81.8928L379.102 80.2577L375.13 68.4323L376.926 68.5579L380.07 78.1603L384.347 69.0769L386.143 69.2025L380.078 82.01C378.975 84.3386 377.935 85.2282 376.283 85.1127C375.876 85.0842 375.544 85.0129 375.261 84.9209C375.095 84.8853 374.978 84.829 374.861 84.7727ZM392.286 81.1796L392.982 69.6807L394.658 69.7979L394.136 78.4221L401.601 70.2834L403.038 70.3839L402.341 81.8828L400.665 81.7656L401.188 73.1414L393.722 81.2801L392.286 81.1796ZM409.992 80.6135L411.135 79.6108C411.38 79.9406 411.651 80.2242 411.949 80.4616C412.477 80.8834 413.243 81.322 414.273 81.394C416.188 81.5279 417.077 80.748 417.142 79.67C417.208 78.592 416.42 77.6949 414.505 77.561L413.188 77.4689L413.283 75.9118L414.599 76.0038C416.036 76.1043 416.925 75.3244 416.983 74.3662C417.041 73.4079 416.366 72.639 414.81 72.5302C413.876 72.4649 413.187 72.7295 412.662 73.0537C412.363 73.2252 412.087 73.4224 411.857 73.6469L410.733 72.3654C411.039 72.074 411.414 71.8356 411.837 71.6006C412.556 71.2419 413.564 70.8793 414.904 70.9731C417.298 71.1405 418.759 72.8304 418.659 74.4834C418.596 75.5135 418.102 76.1285 417.625 76.456C417.349 76.6532 417.028 76.7991 416.711 76.8732C417.112 76.9975 417.485 77.192 417.807 77.431C418.358 77.8545 418.892 78.5654 418.818 79.7872C418.709 81.5839 417.147 83.1587 414.178 82.9511C412.742 82.8506 411.719 82.2739 411.007 81.7189C410.618 81.403 410.279 81.0425 409.992 80.6135ZM428.688 83.7251L428.782 82.168C428.523 82.4866 428.192 82.7763 427.817 83.0147C427.143 83.4247 426.207 83.7922 424.962 83.7052C422.568 83.5378 420.994 81.7437 421.096 80.0667C421.212 78.1502 422.457 77.0345 424.658 76.8275L429.131 76.4185C429.234 74.7176 428.132 73.4618 426.432 73.3429C425.402 73.2709 424.586 73.6469 424.011 74.0156C423.684 74.2574 423.38 74.5008 423.098 74.7938L422.086 73.6404C422.422 73.255 422.827 72.9224 423.277 72.6411C424.052 72.142 425.114 71.687 426.526 71.7857C429.16 71.9699 430.959 74.0203 430.807 76.5357L430.364 83.8423L428.688 83.7251ZM429 78.5746L429.044 77.8559L425.05 78.2983C423.597 78.4614 422.837 79.1059 422.772 80.1839C422.713 81.1422 423.501 82.0392 425.057 82.148C427.235 82.3004 428.861 80.8743 429 78.5746ZM444.58 67.2744L445.338 68.6506C445.113 68.8032 444.791 68.9491 444.374 69.0883C443.661 69.3512 442.536 69.6575 440.695 69.8896C438.246 70.2236 436.367 71.8725 436.044 75.2179C436.332 74.8291 436.691 74.4692 437.118 74.1623C437.823 73.6343 438.84 73.1279 440.252 73.2267C443.221 73.4343 445.606 76.1272 445.41 79.3612C445.215 82.5953 442.548 84.9349 439.436 84.7173C436.204 84.4913 433.842 81.8001 434.14 76.8891C434.494 71.0438 437.163 68.6563 440.55 68.3157C442.002 68.1527 442.979 67.9082 443.641 67.6899C444.011 67.5473 444.33 67.4253 444.58 67.2744ZM439.53 83.1601C441.709 83.3125 443.589 81.6397 443.735 79.244C443.88 76.8484 442.217 74.9278 440.038 74.7755C437.86 74.6231 435.979 76.296 435.834 78.6916C435.689 81.0872 437.352 83.0078 439.53 83.1601ZM453.201 85.6798C449.969 85.4538 447.495 82.6345 447.699 79.2807C447.902 75.9268 450.695 73.4758 453.927 73.7018C457.159 73.9278 459.633 76.7471 459.43 80.101C459.227 83.4548 456.433 85.9059 453.201 85.6798ZM453.296 84.1227C455.57 84.2817 457.602 82.4992 457.754 79.9838C457.906 77.4684 456.107 75.418 453.833 75.259C451.558 75.0999 449.527 76.8825 449.374 79.3978C449.223 81.8893 451.021 83.9637 453.296 84.1227ZM464.476 86.2277L465.078 76.2859L461.008 76.0013L461.102 74.4441L470.919 75.1305L470.824 76.6877L466.754 76.4031L466.152 86.3448L464.476 86.2277ZM471.492 91.5298L471.587 89.9727C471.704 90.029 471.844 90.0869 471.963 90.1192C472.198 90.2078 472.458 90.2742 472.769 90.2959C473.847 90.3713 474.504 89.8399 475.033 88.6499L475.733 87.0148L471.761 75.1895L473.557 75.315L476.702 84.9174L480.979 75.834L482.774 75.9596L476.709 88.7671C475.606 91.0957 474.566 91.9853 472.914 91.8698C472.507 91.8414 472.175 91.77 471.892 91.6781C471.726 91.6424 471.609 91.5861 471.492 91.5298ZM488.917 87.9367L489.614 76.4378L499.549 77.1326L498.853 88.6315L497.177 88.5143L497.778 78.5965L491.194 78.1361L490.593 88.0539L488.917 87.9367ZM502.383 93.9305L503.385 77.4008L505.06 77.518L504.959 79.1949C505.244 78.854 505.574 78.5643 505.999 78.3053C506.674 77.8714 507.685 77.4609 509.025 77.5547C512.138 77.7723 514.499 80.4635 514.289 83.9371C514.078 87.4107 511.412 89.7503 508.3 89.5327C506.959 89.4389 506.006 88.8912 505.389 88.3668C504.999 88.0509 504.707 87.7177 504.465 87.34L504.059 94.0477L502.383 93.9305ZM508.394 87.9755C510.573 88.1279 512.455 86.4311 512.613 83.8199C512.771 81.2087 511.11 79.2641 508.931 79.1118C506.92 78.9712 504.865 80.752 504.712 83.2674C504.56 85.7828 506.383 87.8349 508.394 87.9755ZM516.927 89.8954L517.623 78.3965L519.299 78.5136L518.777 87.1378L526.242 78.9991L527.679 79.0996L526.982 90.5985L525.306 90.4813L525.829 81.8571L518.363 89.9958L516.927 89.8954ZM539.629 88.2351L540.641 89.3885C540.279 89.8202 539.848 90.1751 539.348 90.5009C538.474 91.0412 537.264 91.5581 535.708 91.4493C532.572 91.23 530.122 88.4123 530.325 85.0585C530.528 81.7046 533.321 79.2536 536.314 79.4629C539.45 79.6822 541.675 82.2435 541.472 85.5974C541.456 85.8609 541.397 86.0492 541.363 86.2152L541.3 86.4514L531.965 85.7745C531.961 87.8192 533.624 89.7398 535.802 89.8921C537.023 89.9775 537.938 89.5603 538.614 89.1264C538.99 88.864 539.344 88.5761 539.629 88.2351ZM532.052 84.3372L539.833 84.8813C539.693 82.8266 538.255 81.1623 536.22 81.02C534.161 80.876 532.431 82.4391 532.052 84.3372ZM544.095 91.7951L544.791 80.2962L546.108 80.3883L550.309 86.4558L555.206 81.0245L556.523 81.1166L555.826 92.6155L554.15 92.4983L554.665 83.9939L550.156 88.9712L546.286 83.4079L545.77 91.9123L544.095 91.7951ZM559.666 92.884L560.363 81.3851L562.039 81.5023L561.741 86.4133L568.325 86.8737L568.622 81.9627L570.298 82.0799L569.602 93.5788L567.926 93.4616L568.231 88.4308L561.647 87.9704L561.342 93.0012L559.666 92.884ZM573.437 93.847L574.134 82.348L575.81 82.4652L575.577 86.2982L578.45 86.4991C581.108 86.6849 582.547 88.3253 582.408 90.6251C582.269 92.9248 580.619 94.3492 578.01 94.1667L573.437 93.847ZM584.33 94.6087L585.027 83.1098L586.703 83.227L586.006 94.7259L584.33 94.6087ZM575.207 92.407L578.104 92.6096C579.636 92.7167 580.651 91.8494 580.732 90.5079C580.813 89.1663 579.912 88.1651 578.356 88.0563L575.483 87.8554L575.207 92.407ZM588.27 94.8842L592.943 89.1965L589.326 83.4104L591.361 83.5527L594.1 87.9543L597.347 83.9713L599.382 84.1136L595.098 89.3472L599.044 95.6376L597.009 95.4953L593.94 90.5895L590.305 95.0265L588.27 94.8842ZM1.98147 89.0109L2.983 72.4813L4.65891 72.5984L4.5573 74.2754C4.84243 73.9344 5.17254 73.6448 5.59697 73.3858C6.27242 72.9518 7.28305 72.5414 8.62378 72.6351C11.7362 72.8528 14.0976 75.5439 13.8872 79.0176C13.6767 82.4912 11.0104 84.8308 7.89803 84.6132C6.55731 84.5194 5.60473 83.9716 4.98734 83.4473C4.59775 83.1314 4.30538 82.7982 4.0638 82.4204L3.65738 89.1281L1.98147 89.0109ZM7.99238 83.056C10.1711 83.2084 12.053 81.5116 12.2113 78.9004C12.3695 76.2892 10.7081 74.3446 8.52943 74.1923C6.51834 74.0516 4.46296 75.8325 4.31055 78.3479C4.15815 80.8633 5.98129 82.9154 7.99238 83.056ZM21.5382 85.567C18.3061 85.341 15.8321 82.5216 16.0354 79.1678C16.2386 75.8139 19.0318 73.3629 22.2639 73.5889C25.496 73.8149 27.9699 76.6343 27.7667 79.9881C27.5635 83.342 24.7703 85.793 21.5382 85.567ZM21.6325 84.0098C23.907 84.1689 25.9384 82.3863 26.0908 79.8709C26.2432 77.3555 24.444 75.3051 22.1696 75.1461C19.8951 74.987 17.8637 76.7696 17.7113 79.285C17.5603 81.7764 19.3581 83.8508 21.6325 84.0098ZM28.3234 88.6878L28.5919 84.2559L29.4299 84.3145C29.8376 83.934 30.2047 83.4304 30.5312 82.8037C31.0993 81.7608 31.7247 80.1687 31.8641 77.8689L32.0673 74.515L39.968 75.0675L39.3656 85.0093L41.1612 85.1348L40.8927 89.5667L39.2168 89.4495L39.391 86.5748L30.1735 85.9302L29.9993 88.805L28.3234 88.6878ZM31.2255 84.4401L37.6897 84.8921L38.1977 76.5075L33.6489 76.1894L33.54 77.9861C33.4065 80.19 32.8289 81.7856 32.2819 82.878C31.9554 83.5047 31.6122 84.01 31.2255 84.4401ZM43.693 86.8756L44.3897 75.3767L46.0656 75.4939L45.5431 84.1181L53.0087 75.9794L54.4451 76.0798L53.7484 87.5788L52.0725 87.4616L52.5951 78.8374L45.1295 86.9761L43.693 86.8756ZM60.2145 88.0309L60.8169 78.0891L56.7468 77.8045L56.8412 76.2474L66.6572 76.9338L66.5629 78.4909L62.4928 78.2063L61.8904 88.1481L60.2145 88.0309ZM76.9404 85.9527L77.9525 87.1061C77.5897 87.5378 77.1595 87.8926 76.6589 88.2185C75.7846 88.7588 74.5752 89.2757 73.019 89.1669C69.8827 88.9475 67.4327 86.1299 67.6359 82.776C67.8391 79.4222 70.6324 76.9712 73.6251 77.1805C76.7614 77.3998 78.9865 79.9611 78.7833 83.315C78.7673 83.5785 78.7078 83.7668 78.6737 83.9328L78.6113 84.169L69.2755 83.4921C69.2719 85.5368 70.9347 87.4574 73.1134 87.6097C74.3344 87.6951 75.2492 87.2779 75.9247 86.844C76.3012 86.5816 76.6553 86.2936 76.9404 85.9527ZM69.3626 82.0548L77.1436 82.5989C77.0036 80.5442 75.5657 78.8799 73.5307 78.7376C71.4717 78.5936 69.7421 80.1567 69.3626 82.0548ZM79.4903 89.3788L79.5919 87.7019C79.6608 87.7548 79.7537 87.8094 79.8719 87.8417C80.0591 87.927 80.2717 87.99 80.535 88.0084C81.8518 88.1005 82.742 87.2967 83.0962 81.4514L83.2994 78.0975L91.6789 78.6835L90.9822 90.1824L89.3063 90.0652L89.9087 80.1234L84.8809 79.7719L84.7721 81.5686C84.3511 88.5158 82.8276 89.8527 80.6728 89.7021C80.3616 89.6803 80.0772 89.6123 79.8421 89.5237C79.7239 89.4914 79.6071 89.4351 79.4903 89.3788ZM103.617 87.8182L104.63 88.9715C104.267 89.4033 103.837 89.7581 103.336 90.0839C102.462 90.6243 101.252 91.1411 99.6961 91.0323C96.5597 90.813 94.1098 87.9953 94.313 84.6415C94.5162 81.2876 97.3094 78.8366 100.302 79.0459C103.438 79.2652 105.664 81.8266 105.46 85.1804C105.444 85.4439 105.385 85.6322 105.351 85.7982L105.288 86.0345L95.9526 85.3576C95.9489 87.4022 97.6117 89.3228 99.7904 89.4752C101.011 89.5605 101.926 89.1434 102.602 88.7094C102.978 88.4471 103.332 88.1591 103.617 87.8182ZM96.0397 83.9202L103.821 84.4643C103.681 82.4096 102.243 80.7453 100.208 80.603C98.1488 80.4591 96.4192 82.0221 96.0397 83.9202ZM110.894 74.7345L112.211 74.8266C112.13 76.1681 112.782 76.9114 114.003 76.9968C115.224 77.0821 115.96 76.436 116.042 75.0944L117.359 75.1865C117.242 77.103 115.846 78.3285 113.93 78.1946C112.015 78.0606 110.778 76.651 110.894 74.7345ZM108.083 91.3782L108.779 79.8793L110.455 79.9964L109.933 88.6206L117.398 80.482L118.835 80.5824L118.138 92.0813L116.462 91.9641L116.985 83.3399L109.519 91.4786L108.083 91.3782ZM126.997 92.7008L127.694 81.2019L129.37 81.3191L128.847 89.9433L136.313 81.8046L137.75 81.9051L137.053 93.404L135.377 93.2868L135.899 84.6626L128.434 92.8013L126.997 92.7008ZM145.912 94.0235L146.609 82.5246L151.876 82.8929C154.055 83.0452 155.269 84.4292 155.166 86.1301C155.115 86.9686 154.72 87.5424 154.338 87.9006C154.109 88.1011 153.858 88.276 153.584 88.4253C153.936 88.5702 154.237 88.7596 154.51 89.0193C154.964 89.46 155.401 90.1882 155.333 91.3142C155.209 93.3504 153.813 94.5759 151.419 94.4085L145.912 94.0235ZM148.002 87.3132L151.593 87.5643C152.814 87.6497 153.425 87.091 153.483 86.1327C153.541 85.1745 153.003 84.5354 151.782 84.45L148.19 84.1989L148.002 87.3132ZM147.682 92.5835L151.513 92.8514C152.854 92.9451 153.59 92.299 153.664 91.0772C153.738 89.8554 153.086 89.1122 151.745 89.0184L147.915 88.7505L147.682 92.5835ZM166.929 92.2453L168.061 93.4071C167.674 93.8371 167.22 94.1903 166.719 94.5161C165.845 95.0564 164.635 95.5733 163.127 95.4678C159.991 95.2485 157.541 92.4309 157.744 89.077C157.947 85.7232 160.717 83.2705 163.853 83.4898C165.361 83.5953 166.476 84.2506 167.231 84.8808C167.665 85.248 168.049 85.6597 168.384 86.0921L167.114 87.2062C166.872 86.8284 166.604 86.4969 166.286 86.186C165.741 85.6667 164.884 85.1256 163.759 85.0469C161.604 84.8963 159.572 86.6788 159.42 89.1942C159.268 91.7096 161.067 93.76 163.221 93.9107C164.347 93.9894 165.262 93.5722 165.937 93.1383C166.314 92.8759 166.644 92.5862 166.929 92.2453ZM179.136 93.0989L180.148 94.2523C179.785 94.684 179.355 95.0389 178.855 95.3647C177.98 95.905 176.771 96.4219 175.215 96.3131C172.078 96.0938 169.628 93.2761 169.832 89.9223C170.035 86.5684 172.828 84.1174 175.821 84.3267C178.957 84.546 181.182 87.1073 180.979 90.4612C180.963 90.7247 180.904 90.913 180.869 91.079L180.807 91.3152L171.471 90.6384C171.468 92.683 173.13 94.6036 175.309 94.7559C176.53 94.8413 177.445 94.4241 178.12 93.9902C178.497 93.7279 178.851 93.4399 179.136 93.0989ZM171.558 89.201L179.339 89.7451C179.199 87.6904 177.762 86.0261 175.726 85.8838C173.667 85.7398 171.938 87.3029 171.558 89.201ZM183.601 96.659L184.298 85.16L191.959 85.6958L191.865 87.2529L185.88 86.8344L185.277 96.7761L183.601 96.659ZM190.864 100.054L191.133 95.6218L191.97 95.6804C192.378 95.3 192.745 94.7964 193.072 94.1697C193.64 93.1268 194.265 91.5346 194.405 89.2348L194.608 85.881L202.509 86.4334L201.906 96.3752L203.702 96.5008L203.433 100.933L201.757 100.815L201.932 97.9407L192.714 97.2962L192.54 100.171L190.864 100.054ZM193.766 95.806L200.23 96.258L200.738 87.8734L196.189 87.5553L196.081 89.352C195.947 91.556 195.37 93.1515 194.822 94.244C194.496 94.8707 194.153 95.3759 193.766 95.806ZM213.177 98.7271L213.271 97.1699C213.011 97.4886 212.681 97.7782 212.306 98.0166C211.632 98.4266 210.696 98.7942 209.451 98.7071C207.057 98.5397 205.483 96.7456 205.584 95.0687C205.7 93.1522 206.946 92.0364 209.147 91.8294L213.619 91.4205C213.722 89.7196 212.62 88.4637 210.921 88.3448C209.891 88.2728 209.075 88.6488 208.5 89.0176C208.172 89.2593 207.869 89.5027 207.587 89.7957L206.575 88.6424C206.911 88.2569 207.316 87.9243 207.765 87.643C208.541 87.144 209.602 86.6889 211.015 86.7877C213.648 86.9718 215.448 89.0223 215.295 91.5376L214.853 98.8442L213.177 98.7271ZM213.489 93.5765L213.532 92.8578L209.538 93.3003C208.086 93.4633 207.326 94.1078 207.26 95.1859C207.202 96.1441 207.989 97.0412 209.546 97.15C211.724 97.3023 213.349 95.8763 213.489 93.5765ZM234.096 82.6278L234.854 84.004C234.628 84.1566 234.307 84.3026 233.889 84.4418C233.176 84.7047 232.052 85.011 230.21 85.2431C227.762 85.577 225.883 87.2259 225.56 90.5714C225.848 90.1826 226.206 89.8227 226.634 89.5158C227.339 88.9877 228.355 88.4814 229.768 88.5802C232.737 88.7878 235.122 91.4806 234.926 94.7147C234.73 97.9488 232.064 100.288 228.951 100.071C225.719 99.8447 223.358 97.1535 223.655 92.2425C224.01 86.3973 226.679 84.0097 230.065 83.6692C231.518 83.5061 232.494 83.2616 233.157 83.0433C233.526 82.9008 233.846 82.7788 234.096 82.6278ZM229.046 98.5136C231.224 98.6659 233.105 96.9931 233.25 94.5975C233.395 92.2019 231.732 90.2813 229.554 90.1289C227.375 89.9766 225.495 91.6494 225.349 94.045C225.204 96.4406 226.867 98.3612 229.046 98.5136ZM237.704 100.442L238.4 88.9432L240.076 89.0604L239.844 92.8934L242.717 93.0943C245.374 93.2801 246.814 94.9205 246.675 97.2202C246.535 99.52 244.886 100.944 242.276 100.762L237.704 100.442ZM248.597 101.204L249.294 89.705L250.97 89.8222L250.273 101.321L248.597 101.204ZM239.474 99.0022L242.371 99.2048C243.903 99.3119 244.917 98.4446 244.999 97.1031C245.08 95.7615 244.179 94.7603 242.623 94.6514L239.75 94.4505L239.474 99.0022ZM256.727 101.772L257.329 91.8306L253.259 91.546L253.354 89.9889L263.17 90.6753L263.075 92.2324L259.005 91.9478L258.403 101.89L256.727 101.772ZM264.872 102.342L265.568 90.843L267.244 90.9602L267.012 94.7932L270.005 95.0024C272.662 95.1883 274.102 96.8286 273.962 99.1284C273.823 101.428 272.174 102.853 269.564 102.67L264.872 102.342ZM266.642 100.902L269.659 101.113C271.191 101.22 272.205 100.353 272.286 99.0112C272.368 97.6697 271.467 96.6684 269.91 96.5596L266.918 96.3503L266.642 100.902ZM281.752 103.522L282.449 92.0234L287.716 92.3917C289.895 92.5441 291.109 93.9281 291.006 95.629C290.955 96.4675 290.56 97.0413 290.178 97.3994C289.949 97.6 289.698 97.7749 289.425 97.9242C289.776 98.0691 290.078 98.2585 290.35 98.5182C290.804 98.9589 291.241 99.6871 291.173 100.813C291.05 102.849 289.653 104.075 287.259 103.907L281.752 103.522ZM283.842 96.812L287.433 97.0632C288.654 97.1486 289.265 96.5898 289.323 95.6316C289.381 94.6733 288.843 94.0343 287.622 93.9489L284.031 93.6978L283.842 96.812ZM283.523 102.082L287.353 102.35C288.694 102.444 289.43 101.798 289.504 100.576C289.578 99.3543 288.926 98.611 287.585 98.5173L283.755 98.2494L283.523 102.082ZM294.074 104.384L294.77 92.885L296.087 92.9771L300.288 99.0447L305.185 93.6133L306.502 93.7054L305.805 105.204L304.129 105.087L304.645 96.5827L300.135 101.56L296.265 95.9967L295.75 104.501L294.074 104.384ZM318.46 102.841L319.472 103.995C319.109 104.427 318.679 104.781 318.178 105.107C317.304 105.648 316.095 106.164 314.539 106.056C311.402 105.836 308.952 103.019 309.156 99.6647C309.359 96.3109 312.152 93.8599 315.145 94.0692C318.281 94.2885 320.506 96.8498 320.303 100.204C320.287 100.467 320.227 100.655 320.193 100.821L320.131 101.058L310.795 100.381C310.791 102.425 312.454 104.346 314.633 104.498C315.854 104.584 316.769 104.167 317.444 103.733C317.821 103.47 318.175 103.182 318.46 102.841ZM310.882 98.9435L318.663 99.4876C318.523 97.4329 317.085 95.7686 315.05 95.6263C312.991 95.4823 311.262 97.0454 310.882 98.9435ZM331.62 103.762L332.752 104.923C332.365 105.353 331.911 105.707 331.411 106.032C330.536 106.573 329.327 107.09 327.819 106.984C324.682 106.765 322.232 103.947 322.436 100.593C322.639 97.2395 325.408 94.7868 328.544 95.0062C330.053 95.1116 331.167 95.7669 331.922 96.3971C332.357 96.7643 332.741 97.1761 333.075 97.6084L331.806 98.7225C331.564 98.3448 331.295 98.0133 330.978 97.7024C330.432 97.183 329.575 96.642 328.45 96.5633C326.295 96.4126 324.264 98.1952 324.112 100.711C323.959 103.226 325.758 105.276 327.913 105.427C329.038 105.506 329.953 105.089 330.629 104.655C331.005 104.392 331.335 104.103 331.62 103.762ZM337.88 107.447L338.483 97.5054L334.413 97.2208L334.507 95.6637L344.323 96.3501L344.229 97.9072L340.159 97.6226L339.556 107.564L337.88 107.447ZM354.606 105.369L355.618 106.522C355.255 106.954 354.825 107.309 354.325 107.635C353.45 108.175 352.241 108.692 350.685 108.583C347.548 108.364 345.098 105.546 345.302 102.192C345.505 98.8385 348.298 96.3875 351.291 96.5967C354.427 96.816 356.652 99.3774 356.449 102.731C356.433 102.995 356.374 103.183 356.339 103.349L356.277 103.585L346.941 102.908C346.938 104.953 348.6 106.874 350.779 107.026C352 107.111 352.915 106.694 353.59 106.26C353.967 105.998 354.321 105.71 354.606 105.369ZM347.028 101.471L354.809 102.015C354.669 99.9605 353.231 98.2962 351.196 98.1539C349.137 98.0099 347.408 99.573 347.028 101.471ZM358.531 107.929C358.576 107.186 359.058 106.763 359.8 106.815C360.543 106.867 360.97 107.354 360.925 108.096C360.88 108.839 360.398 109.262 359.655 109.21C358.913 109.159 358.486 108.672 358.531 107.929Z" fill="#414141"/>
</svg>
