<svg width="247" height="113" viewBox="0 0 247 113" fill="none" xmlns="http://www.w3.org/2000/svg">
<path opacity="0.6" d="M6.68215 36.5578C6.13149 36.5192 5.68346 36.3676 5.33807 36.1029C5.01798 35.8159 4.78444 35.4868 4.63744 35.1157C4.49181 34.7206 4.4286 34.3553 4.44782 34.0199C4.47527 33.5407 4.71751 33.0885 5.17453 32.6634C5.6555 32.24 6.25892 31.777 6.9848 31.2744C7.71067 30.7719 8.5012 30.1896 9.35639 29.5277C10.2636 28.7973 11.1222 28.0755 11.9323 27.3623C12.7437 26.6252 13.5705 25.829 14.4127 24.9737L15.5667 26.8587C13.7609 26.4919 12.2499 26.0133 11.0338 25.4231C9.81901 24.8089 8.8724 24.1293 8.19396 23.3842C7.51552 22.6391 7.04264 21.8723 6.77532 21.0838C6.50801 20.2953 6.39356 19.5656 6.43199 18.8947C6.47729 18.104 6.72883 17.2796 7.18662 16.4215C7.66973 15.5411 8.42473 14.7399 9.45163 14.0178C10.4799 13.2718 11.8344 12.705 13.5152 12.3173C15.2213 11.9074 17.3193 11.7894 19.8093 11.9636C21.1979 12.0607 22.3754 12.2753 23.3419 12.6075C24.3098 12.9158 25.028 13.387 25.4964 14.0212C25.9902 14.633 26.2096 15.4182 26.1547 16.3766C26.1396 16.6402 26.0756 17.1289 25.9626 17.8427C25.8735 18.5582 25.7523 19.4157 25.5989 20.4154C25.4708 21.3927 25.3386 22.442 25.2022 23.5631C25.0912 24.662 25.0069 25.7146 24.9492 26.7209C24.8847 27.8471 24.8828 28.9295 24.9435 29.9682C25.0055 30.9829 25.0646 31.841 25.1205 32.5426C25.2004 33.2458 25.2321 33.7412 25.2157 34.0287C25.1896 34.484 25.0212 34.9052 24.7106 35.2925C24.4013 35.6558 24.0124 35.9413 23.5438 36.1491C23.0765 36.3329 22.5915 36.4073 22.0888 36.3721C21.3945 36.3236 20.8456 36.0446 20.4421 35.5353C20.0625 35.0276 19.8222 34.3973 19.7211 33.6445C19.7054 33.4991 19.6702 33.0636 19.6156 32.3381C19.5624 31.5886 19.5068 30.6706 19.4489 29.5839C19.4149 28.499 19.4295 27.4055 19.4926 26.3033C19.5646 25.4663 19.6533 24.5463 19.7589 23.5433C19.8883 22.542 20.0158 21.5766 20.1411 20.6472C20.2918 19.6954 20.4116 18.8618 20.5007 18.1464C20.6151 17.4086 20.6918 16.9088 20.7308 16.6469L21.098 17.7912C20.7922 17.6736 20.3787 17.5484 19.8575 17.4158C19.3602 17.2848 18.7285 17.1925 17.9624 17.1389C17.2202 17.087 16.4865 17.0959 15.7614 17.1654C15.0603 17.2367 14.4275 17.3729 13.8631 17.574C13.2987 17.7751 12.852 18.0205 12.5229 18.3102C12.1938 18.5999 12.0183 18.9365 11.9963 19.3199C11.951 20.1106 12.4746 20.8328 13.5669 21.4865C14.6592 22.1403 16.1633 22.7386 18.0792 23.2815C18.8597 23.5045 19.3973 23.7706 19.6921 24.0799C19.9868 24.3892 20.1191 24.8074 20.0889 25.3346C20.0683 25.694 19.8487 26.1718 19.4299 26.768C19.0112 27.3642 18.4819 28.0008 17.8422 28.6777C17.2278 29.3324 16.5775 29.9846 15.8913 30.6342C15.229 31.2856 14.6321 31.8452 14.1005 32.3133C13.0359 33.2733 12.0401 34.0817 11.1131 34.7386C10.2114 35.3732 9.39113 35.8451 8.65229 36.1542C7.91346 36.4634 7.25674 36.5979 6.68215 36.5578ZM48.6642 39.6017C47.3713 39.5113 46.2697 39.2298 45.3593 38.7571C44.4729 38.2862 43.739 37.6695 43.1577 36.9072C42.6004 36.1465 42.2048 35.2889 41.971 34.3343C41.7386 33.3558 41.654 32.3155 41.7171 31.2133C41.7748 30.2069 41.8937 29.1808 42.0738 28.1349C42.2539 27.089 42.4777 26.1183 42.7454 25.2229C43.013 24.3274 43.295 23.6014 43.5913 23.0448C43.8328 22.6046 44.1674 22.219 44.595 21.8881C45.0226 21.5571 45.4939 21.3014 46.0091 21.1209C46.5495 20.9181 47.0711 20.8343 47.5739 20.8695C48.0527 20.9029 48.4508 21.0872 48.7681 21.4221C49.0868 21.733 49.2318 22.1401 49.203 22.6433C49.1783 23.0746 49.0656 23.5719 48.8651 24.1352C48.6646 24.6986 48.4226 25.3552 48.1393 26.1052C47.8573 26.8313 47.6044 27.6796 47.3806 28.6503C47.1581 29.597 47.0132 30.6574 46.9459 31.8315C46.8924 32.766 47.0393 33.5581 47.3867 34.2078C47.7341 34.8576 48.3387 35.2126 49.2006 35.2729C49.8949 35.3214 50.5875 35.1895 51.2785 34.8769C51.9934 34.5661 52.6214 34.0928 53.1626 33.457C53.7052 32.7973 54.0758 31.9933 54.2743 31.0449L55.1381 32.3322C54.6675 32.1549 54.0758 31.9933 53.363 31.8472C52.6503 31.7011 51.8896 31.5517 51.0811 31.399C50.2726 31.2462 49.4859 31.131 48.7212 31.0535C47.9578 30.952 47.2768 30.8803 46.6783 30.8385L47.2966 27.598C48.0415 27.602 48.7786 27.5332 49.5078 27.3918C50.2624 27.228 50.9605 27.0002 51.6022 26.7082C52.2439 26.4163 52.7546 26.1032 53.1343 25.7689C53.5154 25.4107 53.7169 25.0398 53.7389 24.6565C53.7567 24.345 53.6501 24.109 53.4189 23.9485C53.1891 23.764 52.8228 23.6542 52.32 23.619C51.6975 23.5755 51.0576 23.627 50.4002 23.7735C49.7442 23.896 49.0994 24.0313 48.466 24.1795C47.8564 24.3293 47.2623 24.4201 46.6836 24.4518C46.0119 24.4289 45.5074 24.2132 45.1703 23.8047C44.8331 23.3962 44.693 22.9053 44.7498 22.3319C44.7828 21.7568 45.0538 21.2225 45.5628 20.7288C46.0971 20.2129 46.7676 19.8388 47.5741 19.6065C48.5975 19.3653 49.7013 19.1899 50.8854 19.0803C52.0934 18.9723 53.1883 18.9526 54.1699 19.0213C55.3191 19.1016 56.3037 19.3268 57.1238 19.6969C57.9679 20.0687 58.6002 20.57 59.0208 21.2008C59.4653 21.8333 59.6628 22.5808 59.6134 23.4434C59.5667 24.2581 59.2827 25.0201 58.7613 25.7294C58.2639 26.4404 57.5896 27.0908 56.7386 27.6809C55.9128 28.2486 54.9595 28.7352 53.8786 29.1408C52.7991 29.5224 51.6779 29.7928 50.515 29.952L51.1413 27.8307C52.244 27.8838 53.2953 27.9934 54.2954 28.1596C55.2968 28.3017 56.185 28.5323 56.96 28.8511C57.7589 29.1716 58.3721 29.5873 58.7995 30.0983C59.2523 30.5871 59.4553 31.2388 59.4086 32.0534C59.3537 33.0119 59.0228 33.963 58.4159 34.9069C57.809 35.8508 57.0033 36.6966 55.999 37.4443C55.02 38.1697 53.8936 38.7405 52.6198 39.1566C51.3713 39.5504 50.0528 39.6988 48.6642 39.6017ZM68.8845 41.6651C67.4959 41.568 66.3259 41.2216 65.3745 40.6258C64.4244 40.0061 63.7135 39.1986 63.2417 38.2033C62.7952 37.1858 62.6097 36.0181 62.6852 34.7003C62.762 33.3585 62.8546 32.1621 62.9629 31.1112C63.0712 30.0602 63.1818 29.1779 63.2948 28.4641C63.4078 27.7503 63.4985 27.2154 63.567 26.8593C63.6663 26.3851 63.8613 25.9176 64.1521 25.4568C64.4443 24.972 64.8028 24.5882 65.2277 24.3051C65.6539 23.9981 66.1064 23.8614 66.5853 23.8949C67.2317 23.9401 67.7833 24.1711 68.2402 24.588C68.7224 24.9825 68.9436 25.5272 68.9038 26.2221C68.8749 26.7253 68.8126 27.3945 68.7167 28.2298C68.6207 29.065 68.5255 29.8883 68.4309 30.6997C68.385 31.0814 68.3258 31.4862 68.2532 31.9141C68.2059 32.3198 68.1573 32.7494 68.1073 33.203C68.0572 33.6566 68.0171 34.1469 67.9869 34.6741C67.9499 35.321 68.0866 35.8718 68.3971 36.3266C68.7089 36.7573 69.1641 36.9936 69.7626 37.0355C70.026 37.0539 70.316 37.0261 70.6328 36.952C70.9495 36.8779 71.2577 36.7431 71.5573 36.5475C71.857 36.352 72.0975 36.1403 72.2788 35.9124C72.4854 35.6622 72.5977 35.3814 72.6155 35.0699C72.6416 34.6146 72.4946 34.2435 72.1745 33.9565C71.8784 33.6712 71.4837 33.4271 70.9905 33.2242C70.6608 33.1049 70.2361 32.9669 69.7162 32.8103C69.1964 32.6537 68.6758 32.509 68.1546 32.3763C67.6334 32.2437 67.2072 32.1297 66.8762 32.0343L67.2022 28.2321C68.0313 28.0255 68.9336 27.7999 69.9091 27.5554C70.9085 27.3125 71.9326 27.0594 72.9813 26.7959C74.0314 26.5085 75.0702 26.2082 76.0977 25.8952C77.3208 25.5236 78.4137 25.1189 79.3762 24.681C80.3627 24.2448 81.2254 23.8721 81.9642 23.5629C82.727 23.2554 83.3837 23.1209 83.9344 23.1594C85.2511 23.2515 86.2361 23.6812 86.8892 24.4486C87.5437 25.192 87.8353 26.1867 87.7639 27.4327C87.7255 28.1036 87.6716 28.8335 87.6024 29.6226C87.5345 30.3876 87.4745 31.2254 87.4224 32.1359C87.3949 32.6151 87.376 33.1551 87.3656 33.7558C87.3553 34.3565 87.3681 34.9708 87.4043 35.5988C87.4644 36.2285 87.5378 36.8351 87.6246 37.4185C87.6772 37.759 87.7192 38.0746 87.7506 38.3655C87.8059 38.6581 87.8274 38.9122 87.8151 39.1278C87.7876 39.607 87.6299 40.0531 87.3418 40.4659C87.0791 40.8565 86.712 41.1797 86.2407 41.4354C85.7707 41.6672 85.2364 41.7621 84.6379 41.7203C83.8478 41.665 83.2496 41.4067 82.8434 40.9453C82.4625 40.4615 82.2173 39.9151 82.108 39.3061C81.9249 38.307 81.8276 37.2777 81.8161 36.2184C81.8061 35.1352 81.8278 34.1263 81.8814 33.1919C81.917 32.5689 81.9527 31.9459 81.9884 31.3229C82.048 30.7016 82.1063 30.1043 82.1632 29.5309C82.2201 28.9575 82.2615 28.4432 82.2876 27.9879C82.3376 27.5344 82.3695 27.1878 82.3832 26.9482L83.5507 27.968C83.1779 28.1825 82.5861 28.4418 81.7755 28.746C80.9887 29.0518 80.0457 29.3588 78.9464 29.6668C77.8471 29.9748 76.6752 30.2898 75.4309 30.6118C74.2118 30.9114 72.9949 31.1752 71.7799 31.403C70.565 31.6307 69.426 31.7917 68.363 31.8857L68.6304 28.4763C68.7994 28.4641 69.0761 28.4594 69.4605 28.4622C69.8703 28.4428 70.3385 28.4514 70.8652 28.4883C71.2004 28.5117 71.6631 28.6162 72.2534 28.8019C72.8437 28.9875 73.4764 29.2723 74.1515 29.6563C74.8519 30.018 75.499 30.4722 76.0926 31.0189C76.6863 31.5656 77.1667 32.2006 77.5339 32.9239C77.9011 33.6473 78.0566 34.5001 78.0003 35.4825C77.9426 36.4889 77.6264 37.3929 77.0517 38.1947C76.4769 38.9965 75.7415 39.6668 74.8452 40.2055C73.949 40.7443 72.9766 41.1454 71.9279 41.4089C70.8805 41.6484 69.8661 41.7338 68.8845 41.6651ZM100.593 46.7332C98.8454 46.6109 97.369 46.1589 96.1638 45.377C94.9812 44.6207 94.0285 43.6279 93.3057 42.3986C92.5843 41.1453 92.0766 39.7265 91.7828 38.1423C91.5143 36.5358 91.4301 34.8579 91.5303 33.1088C91.6401 31.1919 91.939 29.5409 92.427 28.1557C92.915 26.7705 93.5349 25.5989 94.2869 24.6411C95.0402 23.6594 95.8537 22.8863 96.7273 22.3219C97.6023 21.7336 98.4565 21.3001 99.2897 21.0216C100.123 20.7431 101.083 20.5576 102.17 20.4652C103.258 20.3489 104.288 20.2164 105.258 20.0677C106.347 19.9274 107.257 19.7745 107.988 19.6091C108.744 19.4214 109.349 19.3434 109.804 19.3753C110.235 19.4054 110.661 19.5314 111.081 19.7532C111.501 19.975 111.843 20.2996 112.107 20.7271C112.372 21.1305 112.487 21.6437 112.451 22.2667C112.415 22.8897 112.134 23.3992 111.606 23.7954C111.104 24.1692 110.426 24.4586 109.573 24.6636C108.261 24.9087 107.076 25.0423 106.017 25.0645C104.982 25.0883 104.03 25.13 103.161 25.1895C102.294 25.2251 101.48 25.3727 100.72 25.6323C100.059 25.8506 99.4467 26.2529 98.8843 26.8391C98.3219 27.4252 97.8696 28.1874 97.5274 29.1258C97.1852 30.0641 96.9757 31.2042 96.8988 32.546C96.7931 34.391 96.8582 35.9833 97.0939 37.3229C97.3297 38.6625 97.7621 39.7151 98.3913 40.4808C99.0219 41.2226 99.8639 41.6303 100.917 41.7039C101.54 41.7474 102.134 41.6567 102.7 41.4316C103.289 41.2082 103.801 40.8831 104.234 40.4563C104.692 40.0073 105.057 39.5155 105.328 38.9812C105.599 38.4468 105.751 37.8921 105.784 37.3171C105.821 36.6701 105.696 36.1201 105.41 35.6671C105.148 35.1917 104.785 34.8295 104.318 34.5804C103.852 34.3312 103.295 34.1841 102.649 34.1389C101.595 34.0652 100.526 34.2671 99.4411 34.7445C98.3814 35.1997 97.3825 35.8515 96.4445 36.7001L94.3804 34.968C94.8998 33.8737 95.6418 32.8791 96.6065 31.9843C97.5951 31.0911 98.7038 30.4109 99.9324 29.9435C101.186 29.4538 102.496 29.2567 103.86 29.3521C105.273 29.4509 106.55 29.8168 107.692 30.45C108.857 31.0848 109.768 31.9664 110.425 33.0949C111.081 34.2233 111.363 35.6022 111.269 37.2315C111.201 38.4296 110.869 39.6092 110.273 40.7704C109.703 41.9093 108.923 42.9493 107.931 43.8904C106.964 44.8331 105.852 45.5613 104.597 46.0749C103.34 46.6125 102.006 46.8319 100.593 46.7332ZM119.153 43.2317C118.195 43.1647 117.405 42.905 116.782 42.4524C116.184 41.9776 115.714 41.3674 115.372 40.6218C115.056 39.8539 114.839 39.0208 114.722 38.1225C114.606 37.2243 114.575 36.2959 114.63 35.3375C114.667 34.6906 114.73 34.0094 114.819 33.2939C114.909 32.5544 115 31.815 115.09 31.0756C115.204 30.3378 115.315 29.66 115.423 29.042C115.53 28.424 115.631 27.9259 115.725 27.5475C115.895 26.6694 116.184 26.04 116.59 25.6595C117.022 25.2566 117.501 25.0736 118.028 25.1105C118.578 25.149 119.085 25.3287 119.547 25.6497C120.035 25.9485 120.421 26.3363 120.707 26.8134C121.016 27.292 121.154 27.8189 121.121 28.394C121.104 28.6815 121.046 29.0743 120.945 29.5725C120.846 30.0467 120.72 30.5671 120.567 31.1338C120.439 31.7022 120.321 32.2834 120.215 32.8774C120.109 33.4713 120.041 34.0319 120.01 34.559C119.982 35.0622 119.965 35.5543 119.962 36.0351C119.958 36.516 120.007 36.9284 120.107 37.2722C120.232 37.6177 120.438 37.8005 120.725 37.8206C121.276 37.8591 121.889 37.4329 122.565 36.5419C123.242 35.627 123.939 34.3767 124.655 32.7909C125.194 31.7701 125.659 30.7922 126.049 29.8572C126.463 28.9239 126.86 28.0736 127.241 27.3063C127.645 26.5407 128.076 25.9454 128.533 25.5203C129.015 25.0729 129.579 24.8718 130.226 24.917C131.207 24.9856 131.934 25.3131 132.405 25.8993C132.9 26.4872 133.197 27.1816 133.295 27.9823C133.381 28.5897 133.471 29.3177 133.567 30.1664C133.686 31.0168 133.795 31.8543 133.892 32.679C134.014 33.4814 134.143 34.164 134.279 34.7269C134.506 35.8012 134.767 36.6975 135.063 37.4158C135.383 38.1119 135.661 38.7207 135.895 39.2422C136.131 39.7399 136.234 40.2523 136.204 40.7794C136.175 41.2826 136.016 41.7526 135.727 42.1894C135.438 42.6023 135.059 42.9246 134.589 43.1564C134.143 43.3898 133.657 43.4881 133.13 43.4513C132.101 43.3793 131.306 42.7824 130.745 41.6607C130.208 40.5406 129.739 39.0884 129.336 37.3041C129.145 36.4487 128.977 35.595 128.834 34.743C128.69 33.891 128.557 33.0638 128.435 32.2613C128.338 31.4366 128.25 30.6607 128.172 29.9335L130.746 29.6805C130.547 30.2199 130.224 31.0392 129.776 32.1386C129.329 33.238 128.79 34.4633 128.159 35.8145C127.365 37.5151 126.466 38.9317 125.464 40.0645C124.463 41.1733 123.43 42.0031 122.365 42.5541C121.301 43.0812 120.23 43.307 119.153 43.2317ZM149.669 46.9533C148.161 46.8479 146.821 46.5376 145.648 46.0226C144.476 45.5076 143.562 44.8784 142.908 44.135C142.253 43.3916 141.95 42.6125 141.996 41.7979C142.02 41.3906 142.196 41.03 142.527 40.7164C142.859 40.3787 143.228 40.2241 143.635 40.2526C144.042 40.281 144.422 40.3677 144.774 40.5126C145.126 40.6576 145.502 40.8161 145.901 40.9884C146.301 41.1366 146.749 41.2882 147.245 41.4432C147.742 41.5742 148.35 41.6648 149.068 41.715C149.978 41.7786 150.718 41.65 151.29 41.3291C151.885 41.0099 152.2 40.5388 152.236 39.9158C152.261 39.4845 152.153 39.056 151.913 38.6302C151.674 38.1805 151.313 37.7704 150.83 37.3997C150.37 37.0308 149.775 36.7246 149.043 36.481C148.313 36.2134 147.47 36.0462 146.512 35.9792C145.794 35.929 145.241 35.9264 144.854 35.9715C144.491 36.0183 144.082 36.0258 143.627 35.9939C143.148 35.9605 142.688 35.808 142.247 35.5366C141.807 35.2412 141.455 34.8798 141.191 34.4524C140.952 34.0027 140.848 33.5263 140.876 33.0231C140.941 31.8969 141.404 31.1595 142.265 30.8107C143.152 30.4397 144.445 30.3136 146.145 30.4325C147.821 30.5497 149.388 30.8758 150.848 31.4109C152.308 31.946 153.576 32.6722 154.653 33.5895C155.756 34.4846 156.595 35.5776 157.17 36.8688C157.745 38.16 157.986 39.6202 157.892 41.2495C157.846 42.0642 157.597 42.8407 157.146 43.579C156.72 44.295 156.131 44.9273 155.379 45.4761C154.651 46.0026 153.799 46.4001 152.823 46.6686C151.846 46.9371 150.795 47.032 149.669 46.9533ZM141.867 57.2693C141.412 57.2375 140.964 57.0859 140.523 56.8145C140.082 56.5431 139.732 56.1457 139.474 55.6225C139.215 55.0992 139.108 54.4542 139.152 53.6875C139.181 53.1843 139.231 52.7307 139.302 52.3267C139.396 51.9484 139.49 51.5581 139.585 51.1557C139.68 50.7534 139.766 50.3024 139.843 49.8025C139.942 49.3283 140.013 48.7318 140.054 48.013C140.129 46.6952 140.116 45.4553 140.014 44.2935C139.937 43.1333 139.809 42.0058 139.631 40.9108C139.479 39.7935 139.339 38.6651 139.212 37.5256C139.087 36.3621 139.024 35.1429 139.025 33.8679C139.022 33.5068 139.079 33.138 139.197 32.7613C139.314 32.3846 139.512 32.0857 139.789 31.8645C140.067 31.6193 140.458 31.5143 140.961 31.5495C141.655 31.598 142.293 31.799 142.873 32.1523C143.455 32.4817 143.923 32.9234 144.276 33.4773C144.654 34.0089 144.826 34.5743 144.791 35.1733C144.789 36.4722 144.837 37.7385 144.934 38.9722C145.033 40.182 145.157 41.3814 145.305 42.5705C145.453 43.7597 145.566 44.9463 145.642 46.1304C145.742 47.3162 145.757 48.5321 145.686 49.7781C145.631 50.7365 145.529 51.6676 145.381 52.5714C145.257 53.4769 145.054 54.2927 144.772 55.0187C144.513 55.7704 144.143 56.346 143.664 56.7455C143.208 57.1466 142.609 57.3212 141.867 57.2693ZM166.218 50.2395C164.973 50.1525 163.897 49.8367 162.991 49.2922C162.083 48.7716 161.39 48.0736 160.912 47.1982C160.433 46.3227 160.226 45.3219 160.29 44.1958C160.359 42.9977 160.632 41.8019 161.109 40.6084C161.587 39.3909 162.206 38.2434 162.965 37.1658C163.747 36.0898 164.631 35.1412 165.615 34.32C166.625 33.4764 167.671 32.8399 168.754 32.4104C169.861 31.9586 170.966 31.7712 172.067 31.8482C172.977 31.9118 173.715 32.2401 174.282 32.8331C174.873 33.4277 175.137 34.2641 175.076 35.3424C175.052 35.7497 174.927 36.0536 174.699 36.2542C174.471 36.4548 174.188 36.5673 173.85 36.5918C172.303 36.7482 170.917 37.2407 169.691 38.0692C168.491 38.8754 167.519 39.9019 166.775 41.1489C166.056 42.3737 165.658 43.6569 165.581 44.9987C165.555 45.454 165.568 45.8518 165.62 46.1923C165.673 46.5328 165.769 46.9605 165.908 47.4754L163.675 43.6386C164.224 44.134 164.71 44.4687 165.132 44.6426C165.579 44.8182 166.102 44.9269 166.7 44.9687C167.921 45.0541 169.101 44.3909 170.239 42.979C171.378 41.5671 172.246 39.4146 172.845 36.5215C172.972 35.9771 173.248 35.5634 173.673 35.2804C174.123 34.975 174.624 34.8416 175.174 34.8801C176.108 34.9454 176.884 35.2523 177.501 35.8007C178.143 36.3507 178.563 36.9935 178.761 37.7291C179.126 38.9093 179.449 39.9904 179.729 40.9722C180.009 41.9541 180.363 42.9051 180.791 43.8251C181.245 44.7228 181.863 45.6802 182.646 46.6972C182.961 47.0801 183.103 47.5351 183.073 48.0622C183.066 48.591 182.94 49.1235 182.693 49.6595C182.446 50.1955 182.096 50.6282 181.645 50.9574C181.193 51.2867 180.668 51.4304 180.07 51.3886C179.639 51.3584 179.296 51.2503 179.043 51.0642C178.788 50.902 178.571 50.6944 178.393 50.4414C177.926 49.7833 177.495 49.1276 177.1 48.4745C176.728 47.8231 176.383 47.1374 176.064 46.4174C175.768 45.6991 175.489 44.9098 175.226 44.0494C174.964 43.165 174.723 42.1377 174.501 40.9675L176.451 40.9234C175.684 43.3958 174.743 45.3387 173.629 46.7523C172.516 48.1419 171.319 49.0927 170.04 49.6047C168.761 50.1166 167.487 50.3283 166.218 50.2395ZM204.844 48.2134C203.096 48.0912 201.65 47.7375 200.506 47.1523C199.387 46.5448 198.504 45.8094 197.856 44.9462C197.234 44.0607 196.807 43.1167 196.576 42.1142C196.347 41.0878 196.258 40.1073 196.312 39.1729C196.35 38.502 196.512 37.7795 196.797 37.0056C197.081 36.2316 197.475 35.4412 197.978 34.6344C198.505 33.8293 199.1 33.101 199.762 32.4497C200.449 31.7761 201.212 31.2641 202.049 30.9137C202.888 30.5393 203.786 30.3856 204.744 30.4525C205.199 30.4844 205.586 30.6557 205.904 30.9667C206.248 31.2554 206.505 31.5981 206.675 31.9949C206.87 32.3694 206.957 32.7243 206.938 33.0598C206.926 33.2754 206.84 33.51 206.682 33.7635C206.548 33.9948 206.365 34.2466 206.133 34.5191C205.927 34.7692 205.696 35.0177 205.442 35.2646C205.211 35.5131 204.982 35.7376 204.754 35.9382C203.961 36.7728 203.16 37.5348 202.352 38.224C201.543 38.9132 200.695 39.4553 199.807 39.8503C198.943 40.2469 198.008 40.4101 197.002 40.3398C196.284 40.2896 195.66 40.27 195.131 40.2811C194.625 40.2938 194.166 40.3459 193.752 40.4372C193.362 40.5303 192.979 40.708 192.603 40.9704C192.204 41.2311 191.847 41.5791 191.534 42.0142C191.245 42.4511 191.003 42.8913 190.809 43.3348C190.616 43.7783 190.449 44.1636 190.31 44.4907C190.029 45.2168 189.662 45.7324 189.212 46.0378C188.786 46.3448 188.298 46.479 187.747 46.4405C187.029 46.3903 186.395 46.1174 185.847 45.622C185.324 45.1043 185.087 44.4021 185.138 43.5156C185.152 43.276 185.223 42.872 185.352 42.3036C185.506 41.713 185.675 41.0633 185.86 40.3545C186.069 39.6474 186.24 38.9618 186.375 38.2976C186.534 37.6111 186.628 37.0282 186.655 36.549C186.689 35.95 186.652 35.334 186.545 34.7009C186.462 34.0456 186.375 33.4622 186.284 32.9506C186.193 32.4391 186.156 32.0396 186.173 31.752C186.211 31.0811 186.485 30.4989 186.994 30.0052C187.503 29.5116 188.14 29.2915 188.907 29.3451C189.577 29.392 190.141 29.6238 190.597 30.0407C191.078 30.4592 191.408 30.9875 191.588 31.6255C191.668 31.9198 191.741 32.3218 191.808 32.8317C191.875 33.3416 191.925 33.9225 191.96 34.5744C192.02 35.2041 192.033 35.8185 191.999 36.4175C191.969 36.9446 191.887 37.5283 191.754 38.1686C191.645 38.8105 191.499 39.4738 191.316 40.1587C191.156 40.8451 190.988 41.4829 190.81 42.0718C190.657 42.6385 190.522 43.0982 190.406 43.4509C190.314 43.8053 190.267 43.9825 190.267 43.9825L185.842 42.5545C185.931 42.2719 186.074 41.873 186.271 41.3576C186.469 40.8422 186.704 40.3053 186.977 39.747C187.249 39.1887 187.592 38.6593 188.005 38.159C188.42 37.6347 188.879 37.1736 189.382 36.7758C190.132 36.2749 190.887 35.8947 191.647 35.6351C192.431 35.3772 193.305 35.2218 194.27 35.169C195.234 35.1161 196.375 35.1358 197.692 35.2278C197.883 35.2412 198.111 35.2451 198.376 35.2396C198.666 35.2118 198.956 35.1839 199.246 35.1561C199.56 35.1299 199.886 35.1046 200.224 35.0801C200.586 35.0573 200.935 35.0577 201.27 35.0811L204.906 35.8045C204.442 35.9404 204.01 36.1267 203.612 36.3635C203.214 36.6003 202.862 36.8764 202.555 37.1917C202.25 37.4831 202.001 37.8386 201.809 38.2582C201.642 38.6555 201.545 39.0817 201.519 39.537C201.488 40.0881 201.6 40.6492 201.855 41.2204C202.113 41.7676 202.507 42.2282 203.038 42.6022C203.594 42.9778 204.29 43.1949 205.128 43.2535C205.703 43.2937 206.234 43.2467 206.723 43.1124C207.213 42.9542 207.622 42.7303 207.951 42.4405C208.306 42.1285 208.578 41.7747 208.769 41.3791C208.961 40.9595 209.072 40.4982 209.101 39.995C209.134 39.4199 209.008 38.8819 208.725 38.3809C208.465 37.8816 208.008 37.4648 207.354 37.1304C206.701 36.772 205.825 36.5543 204.723 36.4773C204.125 36.4355 203.622 36.1958 203.214 35.7583C202.832 35.2986 202.654 34.8411 202.68 34.3858C202.709 33.8826 202.904 33.4151 203.265 32.9833C203.627 32.5275 204.056 32.1726 204.552 31.9186C205.048 31.6406 205.536 31.5183 206.015 31.5518C207.595 31.6623 208.922 31.9957 209.996 32.5519C211.095 33.0858 211.981 33.7733 212.654 34.6142C213.328 35.4312 213.806 36.3306 214.086 37.3124C214.366 38.2943 214.478 39.2884 214.42 40.2948C214.369 41.1813 214.124 42.1024 213.685 43.058C213.245 44.0136 212.617 44.9079 211.8 45.7409C210.984 46.5738 209.985 47.2257 208.804 47.6964C207.648 48.1449 206.329 48.3172 204.844 48.2134ZM11.0181 83.6031C9.77318 83.5161 8.59425 83.3254 7.48136 83.031C6.3924 82.7384 5.42864 82.3582 4.59008 81.8906C3.77546 81.4247 3.13392 80.8747 2.66546 80.2405C2.22094 79.608 2.02133 78.8964 2.06663 78.1057C2.10369 77.4587 2.30353 76.9074 2.66616 76.4516C3.05411 75.9735 3.54735 75.7554 4.14589 75.7973C4.60078 75.8291 5.01358 75.9662 5.38429 76.2087C5.75638 76.4271 6.17429 76.6849 6.63802 76.9819C7.12569 77.2807 7.77105 77.5543 8.57408 77.8029C9.37711 78.0516 10.437 78.2219 11.7538 78.314C12.6636 78.3776 13.4704 78.3498 14.1743 78.2306C14.9022 78.1131 15.4792 77.9009 15.9055 77.5939C16.357 77.2646 16.5965 76.8604 16.6239 76.3812C16.6514 75.902 16.5417 75.5094 16.2948 75.2034C16.0493 74.8735 15.5616 74.5748 14.8318 74.3073C14.1033 74.0157 13.0503 73.7256 11.6726 73.4368C10.3894 73.1787 9.42426 72.8225 8.77723 72.3683C8.1302 71.9141 7.83002 71.2797 7.87668 70.465C7.89315 70.1775 7.96948 69.8941 8.10566 69.615C8.24321 69.3119 8.49704 69.077 8.86714 68.9104C9.2133 68.7422 9.7144 68.5968 10.3704 68.4743C11.0278 68.3278 11.7205 68.1958 12.4483 68.0783C13.7111 67.8539 14.6528 67.5709 15.2733 67.2294C15.9177 66.8895 16.2578 66.4081 16.2935 65.7851C16.3195 65.3299 16.0802 64.8922 15.5754 64.472C15.0707 64.0518 14.2677 63.8031 13.1664 63.7261C12.1847 63.6575 11.3174 63.6931 10.5642 63.8329C9.83497 63.9743 9.17688 64.1328 8.58993 64.3082C8.02829 64.4614 7.51454 64.618 7.04867 64.7778C6.58417 64.9137 6.14842 64.9675 5.74142 64.939C5.11894 64.8955 4.61723 64.6319 4.23631 64.1481C3.88069 63.6421 3.72073 63.0777 3.75642 62.4547C3.78798 61.9036 4.03366 61.3915 4.49343 60.9185C4.97851 60.4231 5.6517 60.0011 6.51299 59.6524C7.37565 59.2797 8.38844 59.0137 9.55136 58.8545C10.7396 58.6729 12.0759 58.6341 13.5603 58.7379C15.4517 58.8701 17.0167 59.2442 18.2554 59.86C19.518 60.4776 20.4472 61.2522 21.0428 62.184C21.6398 63.0918 21.9095 64.0488 21.8519 65.0552C21.8038 65.8938 21.5177 66.6917 20.9936 67.449C20.4934 68.2078 19.7094 68.8868 18.6415 69.4857C17.5749 70.0606 16.192 70.4932 14.4928 70.7833L15.8218 69.6133C17.4559 70.0403 18.7579 70.6004 19.7277 71.2937C20.7229 71.9647 21.4226 72.7594 21.8267 73.6777C22.2308 74.5961 22.4012 75.6064 22.3381 76.7086C22.2695 77.9066 21.9091 78.9519 21.2571 79.8445C20.605 80.7372 19.733 81.4821 18.6412 82.0793C17.5733 82.6782 16.3826 83.1122 15.0691 83.3812C13.7571 83.6262 12.4068 83.7002 11.0181 83.6031ZM30.5951 85.0803C29.3502 84.9933 28.2732 84.7015 27.3642 84.2049C26.4791 83.71 25.7958 83.0487 25.3144 82.2212C24.833 81.3937 24.6232 80.4408 24.6849 79.3625C24.7412 78.3802 24.9897 77.3992 25.4304 76.4196C25.8725 75.4161 26.4548 74.4825 27.1773 73.6189C27.9012 72.7313 28.7267 71.9591 29.6537 71.3022C30.5821 70.6213 31.5607 70.1124 32.5896 69.7754C33.6198 69.4144 34.6617 69.2708 35.7151 69.3444C36.7925 69.4198 37.5801 69.7274 38.078 70.2674C38.5773 70.7835 38.7926 71.6405 38.7239 72.8386C38.702 73.2219 38.5651 73.5131 38.3134 73.712C38.0855 73.9126 37.8139 74.0379 37.4986 74.088C36.0484 74.2272 34.766 74.5826 33.6516 75.1542C32.5372 75.7258 31.6539 76.4579 31.0019 77.3505C30.3751 78.2208 30.0322 79.1711 29.9732 80.2014C29.9512 80.5848 29.9672 80.9348 30.0212 81.2513C30.0766 81.5438 30.187 81.9244 30.3524 82.3931L28.0527 78.4794C28.6252 78.9765 29.1227 79.312 29.5455 79.4859C29.9682 79.6598 30.4788 79.7677 31.0773 79.8095C32.2505 79.8916 33.3875 79.3456 34.4883 78.1716C35.5906 76.9737 36.4032 75.1661 36.9263 72.7489C37.031 72.1789 37.3078 71.7532 37.7566 71.4719C38.2054 71.1905 38.7051 71.0691 39.2558 71.1076C40.1895 71.1729 40.9652 71.4797 41.5828 72.0281C42.2017 72.5525 42.6216 73.1953 42.8424 73.9565C43.2246 75.2582 43.5523 76.4599 43.8258 77.5616C44.1245 78.641 44.4964 79.7014 44.9415 80.7429C45.388 81.7605 46.0107 82.8505 46.8094 84.013C47.1001 84.3941 47.2296 84.8603 47.198 85.4114C47.1904 85.9641 47.0511 86.5077 46.7801 87.0421C46.5345 87.5541 46.1859 87.9748 45.7343 88.3041C45.2814 88.6573 44.7557 88.813 44.1571 88.7711C43.7262 88.741 43.3838 88.6329 43.1301 88.4467C42.8989 88.2862 42.6937 88.0915 42.5146 87.8624C42.0051 87.1051 41.5414 86.387 41.1236 85.7083C40.7071 85.0056 40.3413 84.2583 40.0261 83.4665C39.7123 82.6506 39.4279 81.7406 39.1729 80.7365C38.9433 79.7101 38.7465 78.5295 38.5826 77.195L40.5321 77.1509C40.0543 78.7774 39.4367 80.1174 38.6793 81.1711C37.9458 82.2264 37.1296 83.0474 36.2306 83.6341C35.3317 84.2207 34.3951 84.6244 33.421 84.8449C32.4708 85.0671 31.5288 85.1456 30.5951 85.0803ZM58.2884 91.8883C56.5406 91.7661 55.0642 91.314 53.859 90.5321C52.6765 89.7758 51.7238 88.783 51.0009 87.5537C50.2795 86.3004 49.7718 84.8817 49.478 83.2974C49.2095 81.6909 49.1253 80.0131 49.2255 78.264C49.3353 76.3471 49.6342 74.6961 50.1222 73.3108C50.6102 71.9256 51.2301 70.7541 51.9821 69.7963C52.7354 68.8145 53.5489 68.0415 54.4225 67.4771C55.2976 66.8887 56.1517 66.4553 56.9849 66.1768C57.8181 65.8983 58.7782 65.7128 59.8652 65.6204C60.9536 65.5041 61.9827 65.3715 62.9528 65.2229C64.0425 65.0826 64.9526 64.9297 65.6832 64.7643C66.4392 64.5766 67.0446 64.4986 67.4995 64.5304C67.9304 64.5605 68.3559 64.6865 68.7758 64.9083C69.1958 65.1302 69.5378 65.4548 69.8017 65.8822C70.0671 66.2857 70.1819 66.7989 70.1462 67.4219C70.1105 68.0449 69.8289 68.5544 69.3014 68.9505C68.7993 69.3244 68.1217 69.6138 67.2686 69.8188C65.9566 70.0638 64.7711 70.1974 63.7122 70.2196C62.6772 70.2435 61.7253 70.2852 60.8566 70.3447C59.9892 70.3803 59.1755 70.5279 58.4154 70.7874C57.7539 71.0058 57.1419 71.4081 56.5795 71.9942C56.0171 72.5804 55.5648 73.3426 55.2226 74.2809C54.8804 75.2193 54.6709 76.3594 54.594 77.7012C54.4884 79.5461 54.5534 81.1384 54.7891 82.478C55.0249 83.8176 55.4574 84.8703 56.0865 85.636C56.7171 86.3777 57.5591 86.7854 58.6125 86.8591C59.235 86.9026 59.8291 86.8118 60.3949 86.5868C60.9846 86.3634 61.496 86.0383 61.929 85.6115C62.3874 85.1624 62.7521 84.6707 63.0231 84.1363C63.2941 83.602 63.4461 83.0473 63.479 82.4722C63.5161 81.8253 63.3913 81.2753 63.1048 80.8222C62.8436 80.3469 62.4797 79.9847 62.0132 79.7355C61.5468 79.4864 60.9903 79.3392 60.3439 79.294C59.2905 79.2204 58.2213 79.4222 57.1363 79.8997C56.0766 80.3548 55.0777 81.0067 54.1397 81.8552L52.0756 80.1232C52.595 79.0288 53.337 78.0342 54.3017 77.1394C55.2903 76.2463 56.399 75.566 57.6276 75.0986C58.8816 74.609 60.1909 74.4118 61.5556 74.5073C62.9681 74.606 64.2452 74.972 65.3867 75.6051C66.5522 76.2399 67.4632 77.1216 68.1197 78.25C68.7762 79.3785 69.0578 80.7574 68.9644 82.3867C68.8958 83.5847 68.5638 84.7644 67.9685 85.9256C67.3985 87.0645 66.6178 88.1045 65.6264 89.0455C64.659 89.9883 63.5476 90.7164 62.2923 91.2301C61.0355 91.7677 59.7009 91.9871 58.2884 91.8883ZM81.0619 87.8154C79.1226 87.6798 77.432 87.1887 75.9902 86.3422C74.5484 85.4956 73.4336 84.3952 72.6458 83.0411C71.8833 81.6646 71.5495 80.1498 71.6442 78.4965C71.7087 77.3703 72.0225 76.2977 72.5857 75.2786C73.1489 74.2595 73.8615 73.3591 74.7235 72.5773C75.6095 71.7973 76.557 71.202 77.5661 70.7914C78.5991 70.3825 79.5944 70.2116 80.5521 70.2785C80.9591 70.307 81.338 70.4057 81.6889 70.5745C82.0412 70.7195 82.3168 70.9432 82.5158 71.2458C82.7388 71.5501 82.8372 71.9298 82.8111 72.3851C82.7631 73.2237 82.5423 73.93 82.1489 74.5039C81.7555 75.0778 81.0098 75.5068 79.9118 75.7909C79.4712 75.9285 79.0252 76.1619 78.5737 76.4912C78.1474 76.7982 77.7896 77.1701 77.5002 77.6069C77.2361 78.0215 77.0889 78.4923 77.0587 79.0194C77.0011 80.0258 77.3381 80.8553 78.07 81.5078C78.8271 82.1382 79.876 82.5002 81.2167 82.5939C82.342 82.6726 83.2696 82.4247 83.9996 81.8503C84.7549 81.2536 85.1621 80.4401 85.2211 79.4098C85.2774 78.4274 85.0227 77.6277 84.4571 77.0108C83.8915 76.3939 83.1059 76.0503 82.1004 75.98C81.5497 75.9415 81.0873 76.0415 80.7131 76.2799C80.3389 76.5184 79.9106 76.8613 79.4282 77.3087C79.0992 77.5984 78.7974 77.8299 78.5231 78.0032C78.2488 78.1765 77.9772 78.3018 77.7083 78.3792C77.4409 78.4327 77.1276 78.4469 76.7684 78.4218C76.3375 78.3916 75.9627 78.2211 75.6439 77.9101C75.3266 77.5752 75.1926 76.9764 75.2421 76.1139C75.2805 75.443 75.5105 74.7854 75.932 74.1413C76.3534 73.4972 76.8792 72.9205 77.5094 72.4113C78.1634 71.9037 78.8711 71.5082 79.6325 71.2246C80.4179 70.9427 81.1936 70.8286 81.9597 70.8822C83.899 71.0178 85.5318 71.4687 86.858 72.2351C88.1856 72.9774 89.1742 73.9727 89.8238 75.221C90.4735 76.4693 90.7502 77.932 90.6541 79.6093C90.5594 81.2626 90.0666 82.7316 89.1758 84.0165C88.3088 85.3031 87.1704 86.294 85.7604 86.9893C84.3518 87.6606 82.7856 87.936 81.0619 87.8154ZM95.1278 79.2726C94.3856 79.2207 93.7423 78.9111 93.1979 78.3437C92.6774 77.7781 92.4385 77.1239 92.481 76.3811C92.5112 75.854 92.6803 75.4207 92.9882 75.0814C93.2974 74.7181 93.7455 74.4488 94.3325 74.2733C95.1896 73.9964 96.3926 73.7678 97.9413 73.5874C99.514 73.4087 101.485 73.4023 103.856 73.568C105.316 73.6701 106.619 73.7973 107.764 73.9495C108.933 74.1035 110.183 74.3112 111.514 74.5726C112.345 74.751 112.988 75.0726 113.442 75.5374C113.921 75.9799 114.143 76.5246 114.106 77.1715C114.081 77.6028 113.924 78.0249 113.636 78.4378C113.374 78.8284 113.019 79.1404 112.573 79.3738C112.128 79.5833 111.631 79.6688 111.08 79.6303C110.625 79.5985 109.992 79.5301 109.181 79.4253C108.371 79.2965 107.477 79.1618 106.5 79.0213C105.522 78.8808 104.579 78.7787 103.669 78.7151C102.017 78.5996 100.671 78.6017 99.6303 78.7214C98.5898 78.8411 97.7289 78.9733 97.0476 79.1181C96.3663 79.2629 95.7263 79.3144 95.1278 79.2726ZM103.043 89.6412C102.468 89.601 101.997 89.4357 101.629 89.1454C101.287 88.8328 100.977 88.366 100.7 87.7453C100.468 87.1757 100.294 86.4419 100.177 85.5436C100.084 84.647 100.031 83.681 100.018 82.6457C100.031 81.5881 100.065 80.5681 100.122 79.5857C100.19 78.3877 100.2 77.378 100.151 76.5566C100.127 75.7129 100.131 75.0156 100.163 74.4645L105.64 74.5227C105.606 74.6888 105.588 75.0122 105.584 75.4931C105.605 75.9757 105.607 76.5652 105.591 77.2618C105.577 77.9343 105.548 78.642 105.506 79.3848C105.488 80.1053 105.463 80.7651 105.428 81.3641C105.382 82.1787 105.388 82.9009 105.448 83.5306C105.51 84.1363 105.587 84.671 105.681 85.1346C105.775 85.5982 105.859 86.0131 105.934 86.3792C106.011 86.7213 106.04 87.0482 106.022 87.3596C105.995 87.8389 105.838 88.2609 105.553 88.6259C105.269 88.9669 104.905 89.2302 104.462 89.4157C104.043 89.6028 103.57 89.678 103.043 89.6412ZM124.507 104.53C122.448 104.386 120.796 104.066 119.55 103.57C118.329 103.075 117.452 102.437 116.92 101.654C116.388 100.871 116.149 100.012 116.202 99.0774C116.282 97.6877 116.98 97.0389 118.297 97.131C118.68 97.1578 119.035 97.2548 119.362 97.422C119.689 97.5892 120.063 97.7717 120.484 97.9696C120.904 98.1914 121.434 98.3848 122.073 98.5498C122.736 98.7404 123.593 98.8726 124.647 98.9462C125.509 99.0065 126.187 98.9096 126.683 98.6556C127.2 98.4272 127.583 98.045 127.83 97.5089C128.077 96.9729 128.223 96.3215 128.266 95.5548C128.317 94.6682 128.339 93.8639 128.333 93.1417C128.351 92.3972 128.368 91.6767 128.384 90.9802C128.4 90.2837 128.406 89.5504 128.402 88.7803C128.423 87.9879 128.462 87.1005 128.519 86.1181L130.136 87.4581C129.571 88.5252 128.98 89.398 128.364 90.0767C127.75 90.7313 127.131 91.2414 126.51 91.6069C125.889 91.9484 125.275 92.1701 124.669 92.272C124.087 92.3517 123.545 92.3739 123.042 92.3387C120.648 92.1713 118.801 91.2603 117.502 89.6058C116.203 87.9512 115.652 85.3988 115.849 81.9485C115.95 80.1993 116.145 78.8898 116.435 78.02C116.726 77.1263 117.097 76.5387 117.545 76.2574C117.996 75.952 118.52 75.8203 119.119 75.8622C120.316 75.9459 121.136 76.304 121.581 76.9365C122.049 77.5707 122.259 78.319 122.209 79.1816C122.139 79.9946 122.018 80.8402 121.848 81.7184C121.703 82.5743 121.596 83.3847 121.528 84.1498C121.484 84.9166 121.556 85.5471 121.744 86.0414C121.958 86.5133 122.388 86.7719 123.034 86.8171C123.92 86.8791 124.72 86.5501 125.434 85.8303C126.15 85.0864 126.748 84.0818 127.229 82.8164C127.734 81.5527 128.115 80.1479 128.372 78.6022C128.511 77.8661 128.732 77.3524 129.037 77.061C129.366 76.7712 129.866 76.6498 130.537 76.6967C131.159 76.7402 131.725 76.9361 132.234 77.2845C132.744 77.6088 133.137 78.0934 133.412 78.7381C133.688 79.3829 133.738 80.1803 133.564 81.1303C133.349 82.3662 133.226 83.4523 133.197 84.3884C133.169 85.3006 133.179 86.1673 133.228 86.9887C133.279 87.7861 133.339 88.6203 133.409 89.4912C133.505 90.3399 133.571 91.2828 133.608 92.3198C133.646 93.3328 133.625 94.5342 133.546 95.9239C133.426 98.0085 132.956 99.7077 132.136 101.022C131.315 102.335 130.24 103.271 128.91 103.827C127.603 104.409 126.135 104.644 124.507 104.53Z" fill="#F5B02B"/>
</svg>
