<svg width="665" height="107" viewBox="0 0 665 107" fill="none" xmlns="http://www.w3.org/2000/svg">
<path d="M7.39152 70.542L6.35728 55.4574L1.09015 55.8257L0.97523 54.1497L13.3051 53.2875L13.42 54.9635L8.1529 55.3318L9.18714 70.4164L7.39152 70.542ZM22.3578 69.4954L22.2511 67.9391C22.0346 68.2911 21.7447 68.6241 21.4037 68.9126C20.7885 69.4127 19.9082 69.9073 18.6633 69.9944C16.2691 70.1618 14.4783 68.6029 14.3634 66.9269C14.232 65.0114 15.3231 63.7321 17.4772 63.2206L21.8571 62.1926C21.7405 60.4926 20.487 59.4014 18.7871 59.5202C17.7576 59.5922 16.9971 60.0785 16.4743 60.524C16.1812 60.8092 15.9119 61.0926 15.6699 61.4223L14.5187 60.4202C14.802 59.9914 15.1604 59.6054 15.57 59.264C16.2745 58.6614 17.2678 58.0627 18.6804 57.9639C21.314 57.7797 23.3606 59.5613 23.533 62.0754L24.0337 69.3783L22.3578 69.4954ZM22.0048 64.3475L21.9556 63.6292L18.0545 64.6238C16.636 64.9876 15.9654 65.7322 16.0393 66.8097C16.1049 67.7674 17.0004 68.5469 18.5566 68.438C20.7352 68.2857 22.1624 66.6461 22.0048 64.3475ZM27.8531 69.1112L27.0651 57.6182L28.3819 57.5261L33.3248 62.9545L37.4797 56.8899L38.7965 56.7978L39.5845 68.2908L37.9086 68.408L37.3258 59.908L33.4972 65.4686L28.9462 60.4939L29.529 68.994L27.8531 69.1112ZM41.6815 70.6704L43.5161 65.8506L45.2577 66.6912L42.7999 71.1936L41.6815 70.6704ZM53.7118 67.303L52.9239 55.8099L60.5852 55.2742L60.6919 56.8306L54.7065 57.2491L55.3878 67.1858L53.7118 67.303ZM61.3457 69.6562L61.042 65.2266L61.8799 65.168C62.2351 64.7342 62.5342 64.184 62.7771 63.5174C63.206 62.4048 63.6211 60.7397 63.4635 58.4411L63.2337 55.089L71.1344 54.5365L71.8157 64.4732L73.6113 64.3476L73.915 68.7772L72.2391 68.8944L72.0421 66.0212L62.8246 66.6657L63.0216 69.539L61.3457 69.6562ZM63.6756 65.0424L70.1398 64.5904L69.5652 56.2101L65.0163 56.5282L65.1394 58.3239C65.2905 60.5268 64.9233 62.1884 64.5216 63.3473C64.2786 64.0138 64.0035 64.5624 63.6756 65.0424ZM84.7414 61.8853L85.8927 62.8874C85.5887 63.3658 85.2079 63.7773 84.7537 64.17C83.9568 64.8271 82.8247 65.5078 81.2685 65.6166C78.1322 65.8359 75.342 63.3846 75.1121 60.0324C74.8823 56.6803 77.3353 53.8623 80.328 53.6531C83.4643 53.4338 85.9987 55.6624 86.2285 59.0145C86.2466 59.2779 86.2118 59.4728 86.1994 59.6421L86.1679 59.8849L76.8291 60.5138C77.0883 62.5407 78.9831 64.2126 81.1618 64.0602C82.3828 63.9749 83.2358 63.434 83.8494 62.91C84.1888 62.5975 84.5027 62.2628 84.7414 61.8853ZM76.7306 59.0772L84.5116 58.5331C84.1087 56.5163 82.4697 55.0671 80.4347 55.2094C78.3757 55.3534 76.8626 57.1433 76.7306 59.0772ZM94.6509 64.4402L93.863 52.9472L95.5389 52.83L95.8754 57.7385L102.459 57.2781L102.123 52.3696L103.799 52.2524L104.587 63.7454L102.911 63.8626L102.566 58.8344L95.9821 59.2948L96.3269 64.323L94.6509 64.4402ZM116.819 59.6421L117.971 60.6443C117.667 61.1226 117.286 61.5342 116.832 61.9268C116.035 62.584 114.903 63.2647 113.346 63.3735C110.21 63.5928 107.42 61.1415 107.19 57.7893C106.96 54.4372 109.413 51.6192 112.406 51.41C115.542 51.1906 118.077 53.4193 118.306 56.7714C118.325 57.0348 118.29 57.2297 118.277 57.399L118.246 57.6418L108.907 58.2707C109.166 60.2976 111.061 61.9695 113.24 61.8171C114.461 61.7318 115.314 61.1909 115.927 60.6669C116.267 60.3544 116.581 60.0197 116.819 59.6421ZM108.809 56.8341L116.59 56.29C116.187 54.2732 114.548 52.824 112.513 52.9663C110.454 53.1103 108.941 54.9002 108.809 56.8341ZM134.868 44.0652L135.796 45.3235C135.592 45.5062 135.292 45.6956 134.897 45.8916C134.224 46.2515 133.149 46.7116 131.354 47.198C128.97 47.8699 127.32 49.7656 127.43 53.1261C127.665 52.7007 127.974 52.2941 128.358 51.9304C128.989 51.3089 129.932 50.6656 131.344 50.5668C134.313 50.3592 137.023 52.6959 137.245 55.9283C137.466 59.1607 135.125 61.8506 132.012 62.0682C128.78 62.2942 126.094 59.9559 125.758 55.0475C125.357 49.2052 127.695 46.4674 131.008 45.6584C132.426 45.2945 133.362 44.9163 133.991 44.6077C134.338 44.415 134.64 44.2496 134.868 44.0652ZM131.906 60.5119C134.084 60.3595 135.733 58.4399 135.569 56.0455C135.405 53.6511 133.51 51.9792 131.331 52.1316C129.152 52.2839 127.504 54.2036 127.668 56.598C127.832 58.9923 129.727 60.6642 131.906 60.5119ZM140.734 61.2178L139.946 49.7248L141.622 49.6076L141.884 53.4386L144.757 53.2377C147.415 53.0519 149.052 54.4771 149.21 56.7757C149.367 59.0743 147.916 60.7155 145.307 60.898L140.734 61.2178ZM151.627 60.4561L150.839 48.963L152.515 48.8458L153.303 60.3389L151.627 60.4561ZM142.303 59.5443L145.2 59.3417C146.732 59.2345 147.626 58.2338 147.534 56.8929C147.442 55.5521 146.42 54.6852 144.864 54.794L141.991 54.9949L142.303 59.5443ZM155.208 60.2057L155.093 58.5296C155.168 58.5725 155.267 58.6136 155.389 58.6292C155.585 58.6877 155.804 58.7205 156.067 58.7021C157.384 58.61 158.163 57.6894 157.762 51.8471L157.532 48.495L165.912 47.909L166.7 59.4021L165.024 59.5192L164.343 49.5826L159.315 49.9341L159.438 51.7299C159.914 58.6736 158.576 60.2107 156.422 60.3614C156.11 60.3831 155.82 60.3553 155.575 60.3003C155.454 60.2847 155.331 60.2452 155.208 60.2057ZM175.565 59.0228C172.332 59.2488 169.518 56.7991 169.288 53.447C169.059 50.0949 171.512 47.2769 174.744 47.0509C177.976 46.8249 180.79 49.2745 181.02 52.6267C181.25 55.9788 178.797 58.7968 175.565 59.0228ZM175.458 57.4664C177.732 57.3074 179.516 55.2579 179.344 52.7439C179.171 50.2298 177.125 48.4482 174.85 48.6072C172.576 48.7663 170.792 50.8157 170.964 53.3298C171.135 55.82 173.183 57.6255 175.458 57.4664ZM187.995 56.1086L188.999 54.9557C189.283 55.2486 189.589 55.4919 189.915 55.6856C190.492 56.0302 191.308 56.3581 192.338 56.2861C194.253 56.1522 195.033 55.2555 194.959 54.1781C194.886 53.1006 193.99 52.3211 192.075 52.4551L190.758 52.5472L190.651 50.9908L191.968 50.8987C193.405 50.7983 194.185 49.9017 194.119 48.9439C194.054 47.9862 193.286 47.3181 191.73 47.4269C190.796 47.4922 190.147 47.8503 189.669 48.2446C189.395 48.4563 189.146 48.6902 188.947 48.9447L187.668 47.8312C187.934 47.4998 188.275 47.2114 188.664 46.9195C189.331 46.4639 190.283 45.9643 191.623 45.8705C194.018 45.7031 195.682 47.1746 195.795 48.8267C195.866 49.8563 195.455 50.5346 195.025 50.9256C194.777 51.1595 194.477 51.3488 194.172 51.4664C194.586 51.5337 194.98 51.6745 195.33 51.8666C195.931 52.2095 196.552 52.8397 196.635 54.0609C196.758 55.8566 195.413 57.6348 192.444 57.8424C191.008 57.9429 189.92 57.5137 189.143 57.0628C188.716 56.8039 188.334 56.4938 187.995 56.1086ZM199.98 57.0749L199.192 45.5819L200.868 45.4647L201.204 50.3732L207.788 49.9128L207.452 45.0043L209.127 44.8871L209.915 56.3801L208.24 56.4973L207.895 51.4691L201.311 51.9295L201.656 56.9577L199.98 57.0749ZM220.694 55.6264L220.587 54.0701C220.371 54.4221 220.081 54.7551 219.74 55.0436C219.124 55.5437 218.244 56.0383 216.999 56.1254C214.605 56.2928 212.814 54.7339 212.699 53.0579C212.568 51.1423 213.659 49.8631 215.813 49.3516L220.193 48.3236C220.077 46.6236 218.823 45.5324 217.123 45.6512C216.094 45.7232 215.333 46.2095 214.81 46.655C214.517 46.9402 214.248 47.2236 214.006 47.5533L212.855 46.5512C213.138 46.1224 213.496 45.7364 213.906 45.395C214.61 44.7924 215.604 44.1937 217.016 44.0949C219.65 43.9107 221.697 45.6923 221.869 48.2064L222.37 55.5093L220.694 55.6264ZM220.341 50.4785L220.292 49.7602L216.39 50.7548C214.972 51.1186 214.301 51.8632 214.375 52.9407C214.441 53.8984 215.336 54.6778 216.893 54.569C219.071 54.4167 220.498 52.7771 220.341 50.4785ZM233.377 54.7395L233.057 50.0705C232.805 50.2565 232.505 50.4459 232.18 50.613C231.624 50.9166 230.848 51.1873 229.891 51.2543C227.281 51.4367 225.337 49.7442 225.158 47.1344L224.928 43.7822L226.604 43.6651L226.834 47.0172C226.95 48.7172 228.204 49.8084 229.904 49.6895C230.861 49.6226 231.609 49.3056 232.142 49.0037C232.442 48.8144 232.694 48.6283 232.942 48.3944L232.589 43.2465L234.265 43.1293L235.053 54.6223L233.377 54.7395ZM238.885 54.3544L238.097 42.8614L239.773 42.7442L240.364 51.364L246.716 42.2587L248.152 42.1582L248.94 53.6513L247.264 53.7685L246.673 45.1487L240.321 54.254L238.885 54.3544ZM252.773 53.3833L251.985 41.8903L253.301 41.7982L258.244 47.2266L262.399 41.162L263.716 41.0699L264.504 52.5629L262.828 52.6801L262.245 44.1801L258.417 49.7407L253.866 44.766L254.449 53.2661L252.773 53.3833ZM273.388 52.1823C270.156 52.4083 267.342 49.9586 267.112 46.6065C266.882 43.2544 269.335 40.4364 272.567 40.2104C275.799 39.9844 278.614 42.434 278.843 45.7862C279.073 49.1383 276.62 51.9563 273.388 52.1823ZM273.281 50.6259C275.556 50.4669 277.34 48.4175 277.167 45.9034C276.995 43.3893 274.948 41.6077 272.674 41.7667C270.4 41.9258 268.616 43.9752 268.788 46.4893C268.959 48.9795 271.007 50.785 273.281 50.6259ZM282.232 51.3233L281.444 39.8303L289.105 39.2945L289.212 40.8509L283.227 41.2694L283.908 51.2061L282.232 51.3233ZM296.862 50.5408C293.63 50.7668 290.816 48.3172 290.586 44.965C290.356 41.6129 292.809 38.7949 296.041 38.5689C299.273 38.3429 302.088 40.7926 302.317 44.1447C302.547 47.4968 300.094 50.3148 296.862 50.5408ZM296.755 48.9845C299.03 48.8254 300.814 46.776 300.641 44.2619C300.469 41.7478 298.422 39.9662 296.148 40.1253C293.874 40.2843 292.09 42.3338 292.262 44.8479C292.433 47.338 294.481 49.1435 296.755 48.9845ZM310.733 49.3303L309.945 37.8373L315.212 37.469C317.391 37.3166 318.772 38.5192 318.889 40.2192C318.946 41.0572 318.628 41.6809 318.295 42.0892C318.094 42.3197 317.868 42.528 317.616 42.714C317.984 42.8086 318.306 42.9545 318.61 43.1738C319.117 43.5474 319.643 44.2083 319.72 45.3336C319.86 47.3689 318.633 48.7778 316.239 48.9453L310.733 49.3303ZM311.941 42.3891L315.532 42.138C316.753 42.0526 317.287 41.4139 317.221 40.4561C317.155 39.4984 316.54 38.9399 315.319 39.0253L311.727 39.2764L311.941 42.3891ZM312.302 47.6568L316.133 47.3889C317.473 47.2952 318.12 46.5522 318.036 45.3311C317.952 44.11 317.211 43.4642 315.87 43.5579L312.039 43.8258L312.302 47.6568ZM321.614 46.765L322.618 45.6122C322.902 45.9051 323.208 46.1483 323.534 46.3421C324.111 46.6867 324.927 47.0145 325.957 46.9425C327.872 46.8086 328.652 45.912 328.578 44.8345C328.505 43.757 327.609 42.9776 325.694 43.1115L324.377 43.2036L324.27 41.6473L325.587 41.5552C327.024 41.4547 327.804 40.5581 327.739 39.6004C327.673 38.6426 326.905 37.9745 325.349 38.0833C324.415 38.1486 323.766 38.5068 323.288 38.9011C323.014 39.1127 322.766 39.3466 322.566 39.6011L321.287 38.4877C321.553 38.1563 321.894 37.8678 322.283 37.576C322.95 37.1204 323.902 36.6207 325.242 36.527C327.637 36.3596 329.301 37.831 329.414 39.4832C329.485 40.5127 329.074 41.191 328.644 41.582C328.396 41.8159 328.096 42.0053 327.791 42.1228C328.205 42.1901 328.599 42.331 328.949 42.523C329.55 42.8659 330.171 43.4962 330.254 44.7173C330.378 46.5131 329.032 48.2913 326.063 48.4989C324.627 48.5993 323.539 48.1702 322.762 47.7193C322.335 47.4604 321.953 47.1503 321.614 46.765ZM333.943 52.7596L332.811 36.2383L334.487 36.1212L334.602 37.7972C334.84 37.4196 335.13 37.0866 335.517 36.7708C336.131 36.2467 337.08 35.6992 338.421 35.6055C341.533 35.3878 344.219 37.7261 344.457 41.198C344.695 44.6698 342.354 47.3597 339.241 47.5774C337.901 47.6711 336.886 47.2609 336.207 46.8272C335.78 46.5684 335.448 46.2788 335.16 45.9381L335.619 52.6424L333.943 52.7596ZM339.135 46.021C341.313 45.8687 342.96 43.9251 342.781 41.3152C342.602 38.7053 340.706 37.0095 338.527 37.1618C336.516 37.3025 334.708 39.3536 334.881 41.8677C335.053 44.3818 337.124 46.1617 339.135 46.021ZM352.882 46.6236C349.649 46.8496 346.835 44.3999 346.605 41.0478C346.376 37.6957 348.829 34.8777 352.061 34.6517C355.293 34.4257 358.107 36.8753 358.337 40.2274C358.567 43.5796 356.114 46.3976 352.882 46.6236ZM352.775 45.0672C355.049 44.9082 356.833 42.8587 356.661 40.3446C356.489 37.8305 354.442 36.049 352.167 36.208C349.893 36.3671 348.109 38.4165 348.281 40.9306C348.452 43.4207 350.5 45.2263 352.775 45.0672ZM370.003 41.9378L371.274 42.9316C370.946 43.4116 370.541 43.8249 370.087 44.2175C369.29 44.8747 368.158 45.5553 366.65 45.6608C363.513 45.8801 360.723 43.4288 360.493 40.0766C360.264 36.7245 362.693 33.9082 365.829 33.6889C367.337 33.5834 368.526 34.0777 369.355 34.5971C369.833 34.9005 370.266 35.2552 370.654 35.6371L369.539 36.918C369.251 36.5773 368.942 36.2861 368.587 36.0222C367.98 35.5835 367.061 35.1666 365.936 35.2452C363.781 35.3959 361.997 37.4454 362.169 39.9595C362.342 42.4735 364.388 44.2551 366.543 44.1044C367.668 44.0258 368.521 43.4849 369.135 42.9609C369.474 42.6484 369.764 42.3154 370.003 41.9378ZM372.131 45.0369L372.017 43.3608C372.092 43.4037 372.191 43.4449 372.312 43.4605C372.509 43.5189 372.727 43.5517 372.991 43.5333C374.307 43.4412 375.086 42.5206 374.686 36.6784L374.456 33.3262L382.835 32.7403L383.623 44.2333L381.948 44.3505L381.266 34.4138L376.239 34.7654L376.362 36.5612C376.838 43.5049 375.5 45.0419 373.345 45.1926C373.034 45.2144 372.743 45.1866 372.499 45.1315C372.377 45.1159 372.254 45.0764 372.131 45.0369ZM392.488 43.854C389.256 44.08 386.442 41.6304 386.212 38.2782C385.982 34.9261 388.435 32.1081 391.667 31.8821C394.899 31.6561 397.713 34.1058 397.943 37.4579C398.173 40.81 395.72 43.628 392.488 43.854ZM392.381 42.2977C394.656 42.1386 396.44 40.0892 396.267 37.5751C396.095 35.061 394.048 33.2794 391.774 33.4385C389.499 33.5975 387.715 35.6469 387.888 38.161C388.058 40.6512 390.107 42.4567 392.381 42.2977ZM401.332 42.995L400.544 31.502L408.205 30.9663L408.312 32.5226L402.326 32.9411L403.008 42.8778L401.332 42.995ZM415.962 42.2126C412.73 42.4386 409.916 39.9889 409.686 36.6368C409.456 33.2846 411.909 30.4667 415.141 30.2407C418.373 30.0146 421.187 32.4643 421.417 35.8164C421.647 39.1686 419.194 41.9865 415.962 42.2126ZM415.855 40.6562C418.13 40.4972 419.914 38.4477 419.741 35.9336C419.569 33.4195 417.522 31.638 415.248 31.797C412.973 31.9561 411.189 34.0055 411.362 36.5196C411.532 39.0097 413.581 40.8153 415.855 40.6562ZM423.063 44.0016L424.897 39.1819L426.639 40.0224L424.181 44.5248L423.063 44.0016ZM435.093 40.6342L434.305 29.1412L439.572 28.7729C441.751 28.6205 443.132 29.8231 443.249 31.5231C443.306 32.3611 442.988 32.9848 442.655 33.393C442.455 33.6236 442.228 33.8319 441.977 34.0179C442.344 34.1125 442.667 34.2584 442.97 34.4777C443.477 34.8513 444.004 35.5121 444.081 36.6375C444.22 38.6727 442.994 40.0817 440.6 40.2491L435.093 40.6342ZM436.301 33.693L439.892 33.4419C441.113 33.3565 441.647 32.7177 441.581 31.76C441.516 30.8022 440.9 30.2438 439.679 30.3292L436.088 30.5803L436.301 33.693ZM436.662 38.9606L440.493 38.6928C441.834 38.599 442.48 37.8561 442.397 36.635C442.313 35.4138 441.571 34.768 440.23 34.8618L436.4 35.1296L436.662 38.9606ZM455.692 35.9458L456.963 36.9396C456.635 37.4197 456.231 37.8329 455.776 38.2255C454.979 38.8827 453.847 39.5633 452.339 39.6688C449.203 39.8881 446.412 37.4368 446.183 34.0847C445.953 30.7325 448.382 27.9162 451.518 27.6969C453.026 27.5915 454.215 28.0857 455.045 28.6051C455.522 28.9086 455.956 29.2632 456.343 29.6451L455.228 30.926C454.94 30.5853 454.631 30.2941 454.276 30.0302C453.669 29.5915 452.75 29.1746 451.625 29.2533C449.47 29.4039 447.686 31.4534 447.858 33.9675C448.031 36.4816 450.078 38.2631 452.232 38.1125C453.358 38.0338 454.211 37.493 454.824 36.9689C455.164 36.6565 455.453 36.3234 455.692 35.9458ZM467.9 35.0922L469.051 36.0944C468.747 36.5727 468.366 36.9843 467.912 37.3769C467.115 38.0341 465.983 38.7147 464.427 38.8236C461.29 39.0429 458.5 36.5915 458.27 33.2394C458.04 29.8873 460.493 27.0693 463.486 26.86C466.622 26.6407 469.157 28.8694 469.387 32.2215C469.405 32.4849 469.37 32.6798 469.358 32.8491L469.326 33.0918L459.987 33.7208C460.246 35.7477 462.141 37.4196 464.32 37.2672C465.541 37.1818 466.394 36.641 467.008 36.1169C467.347 35.8045 467.661 35.4698 467.9 35.0922ZM459.889 32.2842L467.67 31.7401C467.267 29.7233 465.628 28.2741 463.593 28.4164C461.534 28.5604 460.021 30.3503 459.889 32.2842ZM472.782 37.9987L471.994 26.5057L479.656 25.9699L479.762 27.5263L473.777 27.9448L474.458 37.8815L472.782 37.9987ZM480.416 40.3519L480.112 35.9223L480.95 35.8637C481.306 35.4299 481.605 34.8797 481.848 34.2131C482.276 33.1005 482.692 31.4355 482.534 29.1369L482.304 25.7847L490.205 25.2323L490.886 35.1689L492.682 35.0434L492.985 39.473L491.31 39.5902L491.113 36.7169L481.895 37.3615L482.092 40.2347L480.416 40.3519ZM482.746 35.7382L489.21 35.2861L488.636 26.9058L484.087 27.2239L484.21 29.0197C484.361 31.2225 483.994 32.8842 483.592 34.043C483.349 34.7096 483.074 35.2581 482.746 35.7382ZM502.358 35.9306L502.251 34.3742C502.034 34.7262 501.745 35.0592 501.403 35.3477C500.788 35.8479 499.908 36.3425 498.663 36.4295C496.269 36.5969 494.478 35.0381 494.363 33.362C494.232 31.4465 495.323 30.1673 497.477 29.6558L501.857 28.6277C501.74 26.9277 500.487 25.8365 498.787 25.9554C497.757 26.0274 496.997 26.5136 496.474 26.9592C496.181 27.2443 495.912 27.5278 495.67 27.8575L494.518 26.8553C494.802 26.4265 495.16 26.0406 495.57 25.6992C496.274 25.0966 497.268 24.4978 498.68 24.399C501.314 24.2149 503.36 25.9964 503.533 28.5105L504.033 35.8134L502.358 35.9306ZM502.005 30.7827L501.955 30.0644L498.054 31.0589C496.636 31.4227 495.965 32.1673 496.039 33.2448C496.105 34.2026 497 34.982 498.556 34.8732C500.735 34.7208 502.162 33.0813 502.005 30.7827ZM521.277 31.3597L522.428 32.3618C522.124 32.8402 521.744 33.2518 521.289 33.6444C520.492 34.3016 519.36 34.9822 517.804 35.0911C514.668 35.3104 511.878 32.859 511.648 29.5069C511.418 26.1548 513.871 23.3368 516.864 23.1275C520 22.9082 522.534 25.1369 522.764 28.489C522.782 28.7524 522.747 28.9473 522.735 29.1165L522.704 29.3593L513.365 29.9883C513.624 32.0152 515.519 33.6871 517.697 33.5347C518.918 33.4493 519.771 32.9085 520.385 32.3844C520.724 32.072 521.038 31.7373 521.277 31.3597ZM513.266 28.5517L521.047 28.0076C520.644 25.9908 519.005 24.5416 516.97 24.6839C514.911 24.8279 513.398 26.6178 513.266 28.5517ZM534.437 30.4394L535.708 31.4332C535.38 31.9133 534.976 32.3265 534.522 32.7191C533.725 33.3763 532.593 34.0569 531.084 34.1624C527.948 34.3817 525.158 31.9304 524.928 28.5783C524.698 25.2261 527.127 22.4098 530.263 22.1905C531.772 22.0851 532.96 22.5793 533.79 23.0987C534.268 23.4022 534.701 23.7568 535.088 24.1387L533.973 25.4196C533.685 25.0789 533.376 24.7877 533.021 24.5238C532.414 24.0851 531.495 23.6682 530.37 23.7469C528.215 23.8975 526.431 25.947 526.604 28.4611C526.776 30.9752 528.823 32.7567 530.977 32.6061C532.103 32.5274 532.956 31.9866 533.569 31.4625C533.909 31.1501 534.199 30.817 534.437 30.4394ZM541.115 33.2204L540.434 23.2838L536.363 23.5684L536.257 22.012L546.073 21.3256L546.179 22.882L542.109 23.1666L542.791 33.1032L541.115 33.2204ZM549.26 32.6509L548.472 21.1579L550.148 21.0407L550.41 24.8717L553.403 24.6624C556.06 24.4766 557.698 25.9018 557.855 28.2004C558.013 30.499 556.562 32.1403 553.952 32.3227L549.26 32.6509ZM550.829 30.9773L553.845 30.7664C555.378 30.6593 556.271 29.6585 556.179 28.3176C556.087 26.9768 555.066 26.1099 553.51 26.2188L550.517 26.428L550.829 30.9773ZM566.14 31.4705L565.352 19.9775L566.669 19.8854L571.612 25.3138L575.767 19.2492L577.084 19.1571L577.872 30.6501L576.196 30.7673L575.613 22.2673L571.784 27.8279L567.233 22.8532L567.816 31.3533L566.14 31.4705ZM590.109 26.5465L591.26 27.5486C590.956 28.027 590.575 28.4386 590.121 28.8312C589.324 29.4884 588.192 30.169 586.636 30.2779C583.5 30.4972 580.709 28.0458 580.48 24.6937C580.25 21.3416 582.703 18.5236 585.696 18.3143C588.832 18.095 591.366 20.3237 591.596 23.6758C591.614 23.9392 591.579 24.1341 591.567 24.3033L591.535 24.5461L582.197 25.1751C582.456 27.202 584.351 28.8739 586.529 28.7215C587.75 28.6361 588.603 28.0953 589.217 27.5712C589.556 27.2588 589.87 26.9241 590.109 26.5465ZM582.098 23.7385L589.879 23.1944C589.476 21.1776 587.837 19.7284 585.802 19.8707C583.743 20.0147 582.23 21.8046 582.098 23.7385ZM603.269 25.6262L604.54 26.62C604.212 27.1001 603.808 27.5133 603.353 27.9059C602.557 28.5631 601.424 29.2437 599.916 29.3492C596.78 29.5685 593.99 27.1172 593.76 23.7651C593.53 20.4129 595.959 17.5966 599.095 17.3773C600.604 17.2719 601.792 17.7661 602.622 18.2855C603.1 18.589 603.533 18.9436 603.92 19.3255L602.805 20.6064C602.517 20.2657 602.208 19.9745 601.853 19.7106C601.246 19.2719 600.327 18.855 599.202 18.9337C597.047 19.0843 595.263 21.1338 595.436 23.6479C595.608 26.162 597.655 27.9435 599.809 27.7929C600.935 27.7142 601.788 27.1734 602.401 26.6493C602.741 26.3369 603.031 26.0038 603.269 25.6262ZM609.947 28.4072L609.265 18.4706L605.195 18.7552L605.089 17.1988L614.905 16.5124L615.011 18.0688L610.941 18.3534L611.623 28.29L609.947 28.4072ZM622.902 27.7419C619.67 27.9679 616.856 25.5183 616.626 22.1661C616.396 18.814 618.849 15.996 622.081 15.77C625.313 15.544 628.127 17.9937 628.357 21.3458C628.587 24.6979 626.134 27.5159 622.902 27.7419ZM622.795 26.1856C625.07 26.0265 626.854 23.9771 626.681 21.463C626.509 18.9489 624.462 17.1673 622.188 17.3264C619.913 17.4854 618.129 19.5348 618.302 22.0489C618.472 24.5391 620.521 26.3446 622.795 26.1856ZM5.61293 100.74L4.82494 89.2466L14.7607 88.5518L15.5487 100.045L13.8728 100.162L13.1931 90.2493L6.6092 90.7097L7.28884 100.622L5.61293 100.74ZM18.8744 104.624L18.7677 103.068C18.8907 103.107 19.0376 103.145 19.1589 103.161C19.4033 103.216 19.6699 103.245 19.9812 103.223C21.0585 103.148 21.6416 102.53 22.0128 101.277L22.4964 99.559L17.0398 88.3924L18.8354 88.2669L23.1866 97.3455L26.2573 87.7479L28.0529 87.6223L23.6887 101.16C22.8952 103.621 21.9792 104.647 20.3273 104.763C19.9203 104.791 19.5818 104.767 19.2896 104.715C19.1203 104.703 18.9974 104.663 18.8744 104.624ZM39.3986 95.1292L40.6695 96.1229C40.3416 96.603 39.9369 97.0162 39.4827 97.4088C38.6858 98.066 37.5537 98.7467 36.0454 98.8521C32.909 99.0714 30.1188 96.6201 29.889 93.268C29.6592 89.9159 32.0882 87.0996 35.2246 86.8802C36.7329 86.7748 37.9215 87.2691 38.7509 87.7885C39.2288 88.0919 39.6621 88.4465 40.0491 88.8284L38.9341 90.1093C38.6461 89.7686 38.3375 89.4774 37.9826 89.2135C37.3752 88.7748 36.4565 88.3579 35.3313 88.4366C33.1765 88.5873 31.3925 90.6367 31.5649 93.1508C31.7373 95.6649 33.7839 97.4465 35.9387 97.2958C37.0639 97.2171 37.9169 96.6763 38.5305 96.1522C38.8699 95.8398 39.1598 95.5067 39.3986 95.1292ZM46.076 97.9101L45.3947 87.9735L41.3247 88.2581L41.2179 86.7017L51.034 86.0153L51.1407 87.5717L47.0706 87.8563L47.7519 97.7929L46.076 97.9101ZM59.0311 97.2448C55.799 97.4708 52.9849 95.0212 52.755 91.669C52.5252 88.3169 54.9782 85.4989 58.2103 85.2729C61.4424 85.0469 64.2566 87.4966 64.4864 90.8487C64.7162 94.2008 62.2632 97.0188 59.0311 97.2448ZM58.9244 95.6885C61.1989 95.5294 62.9829 93.48 62.8105 90.9659C62.6381 88.4518 60.5915 86.6702 58.317 86.8293C56.0426 86.9883 54.2586 89.0377 54.431 91.5518C54.6017 94.042 56.65 95.8475 58.9244 95.6885ZM70.2747 96.218L69.5934 86.2813L65.5234 86.5659L65.4167 85.0096L75.2327 84.3232L75.3394 85.8795L71.2693 86.1641L71.9506 96.1008L70.2747 96.218ZM86.583 91.8297L87.7343 92.8318C87.4303 93.3102 87.0496 93.7218 86.5954 94.1144C85.7984 94.7716 84.6663 95.4522 83.1101 95.561C79.9738 95.7804 77.1836 93.329 76.9538 89.9769C76.7239 86.6248 79.1769 83.8068 82.1696 83.5975C85.306 83.3782 87.8403 85.6068 88.0702 88.959C88.0882 89.2224 88.0535 89.4173 88.041 89.5865L88.0096 89.8293L78.6707 90.4583C78.93 92.4852 80.8248 94.157 83.0034 94.0047C84.2245 93.9193 85.0775 93.3785 85.6911 92.8544C86.0305 92.542 86.3443 92.2073 86.583 91.8297ZM78.5722 89.0217L86.3532 88.4776C85.9503 86.4608 84.3114 85.0116 82.2763 85.1539C80.2174 85.2978 78.7042 87.0878 78.5722 89.0217ZM96.4926 94.3847L95.7046 82.8917L97.3805 82.7745L97.9715 91.3942L104.324 82.289L105.76 82.1885L106.548 93.6815L104.872 93.7987L104.281 85.179L97.9291 94.2842L96.4926 94.3847ZM120.451 92.9499C117.219 93.1759 114.405 90.7262 114.175 87.3741C113.946 84.022 116.399 81.204 119.631 80.978C122.863 80.752 125.677 83.2016 125.907 86.5538C126.137 89.9059 123.684 92.7239 120.451 92.9499ZM120.345 91.3935C122.619 91.2345 124.403 89.1851 124.231 86.671C124.058 84.1569 122.012 82.3753 119.737 82.5343C117.463 82.6934 115.679 84.7428 115.851 87.2569C116.022 89.7471 118.07 91.5526 120.345 91.3935ZM127.577 95.0981L127.273 90.6685L128.111 90.6099C128.466 90.176 128.765 89.6258 129.008 88.9593C129.437 87.8466 129.852 86.1816 129.695 83.883L129.465 80.5309L137.366 79.9784L138.047 89.9151L139.843 89.7895L140.146 94.2191L138.47 94.3363L138.273 91.4631L129.056 92.1076L129.253 94.9809L127.577 95.0981ZM129.907 90.4843L136.371 90.0323L135.796 81.652L131.248 81.9701L131.371 83.7658C131.522 85.9687 131.155 87.6303 130.753 88.7892C130.51 89.4557 130.235 90.0043 129.907 90.4843ZM142.575 91.1622L141.787 79.6692L143.463 79.552L144.054 88.1718L150.406 79.0665L151.843 78.9661L152.631 90.4591L150.955 90.5763L150.364 81.9565L144.012 91.0618L142.575 91.1622ZM156.463 90.1911L155.675 78.6981L157.351 78.5809L157.688 83.4894L164.272 83.029L163.935 78.1205L165.611 78.0033L166.399 89.4963L164.723 89.6135L164.378 84.5853L157.794 85.0457L158.139 90.0739L156.463 90.1911ZM175.279 89.116C172.046 89.342 169.232 86.8924 169.002 83.5402C168.773 80.1881 171.226 77.3701 174.458 77.1441C177.69 76.9181 180.504 79.3678 180.734 82.7199C180.964 86.072 178.511 88.89 175.279 89.116ZM175.172 87.5597C177.446 87.4006 179.23 85.3512 179.058 82.8371C178.886 80.323 176.839 78.5414 174.564 78.7005C172.29 78.8595 170.506 80.9089 170.678 83.423C170.849 85.9132 172.897 87.7187 175.172 87.5597ZM191.31 87.7544L190.99 83.0853C190.738 83.2713 190.439 83.4607 190.113 83.6278C189.557 83.9314 188.782 84.2021 187.824 84.2691C185.214 84.4516 183.27 82.7591 183.091 80.1492L182.861 76.7971L184.537 76.6799L184.767 80.032C184.883 81.732 186.137 82.8232 187.837 82.7044C188.795 82.6374 189.543 82.3204 190.075 82.0186C190.375 81.8292 190.627 81.6432 190.875 81.4093L190.522 76.2613L192.198 76.1441L192.986 87.6372L191.31 87.7544ZM205.215 83.5341L206.366 84.5363C206.062 85.0146 205.682 85.4262 205.228 85.8188C204.431 86.476 203.299 87.1567 201.742 87.2655C198.606 87.4848 195.816 85.0335 195.586 81.6813C195.356 78.3292 197.809 75.5112 200.802 75.302C203.938 75.0826 206.473 77.3113 206.702 80.6634C206.72 80.9268 206.686 81.1217 206.673 81.291L206.642 81.5338L197.303 82.1627C197.562 84.1896 199.457 85.8615 201.636 85.7091C202.857 85.6237 203.71 85.0829 204.323 84.5588C204.663 84.2464 204.977 83.9117 205.215 83.5341ZM197.204 80.7261L204.985 80.182C204.583 78.1652 202.944 76.716 200.909 76.8583C198.85 77.0023 197.336 78.7922 197.204 80.7261ZM218.376 82.6139L219.647 83.6076C219.319 84.0877 218.914 84.5009 218.46 84.8936C217.663 85.5507 216.531 86.2314 215.022 86.3368C211.886 86.5562 209.096 84.1048 208.866 80.7527C208.636 77.4006 211.065 74.5843 214.202 74.3649C215.71 74.2595 216.898 74.7538 217.728 75.2732C218.206 75.5766 218.639 75.9312 219.026 76.3131L217.911 77.594C217.623 77.2533 217.315 76.9621 216.96 76.6982C216.352 76.2595 215.434 75.8426 214.308 75.9213C212.154 76.072 210.37 78.1214 210.542 80.6355C210.714 83.1496 212.761 84.9312 214.916 84.7805C216.041 84.7018 216.894 84.161 217.508 83.6369C217.847 83.3245 218.137 82.9914 218.376 82.6139ZM225.053 85.3948L224.372 75.4582L220.302 75.7428L220.195 74.1864L230.011 73.5L230.118 75.0564L226.048 75.341L226.729 85.2777L225.053 85.3948ZM233.198 84.8253L232.41 73.3323L237.677 72.964C239.856 72.8116 241.237 74.0142 241.354 75.7142C241.411 76.5522 241.093 77.1759 240.76 77.5841C240.56 77.8147 240.333 78.023 240.081 78.209C240.449 78.3036 240.771 78.4495 241.075 78.6688C241.582 79.0424 242.108 79.7033 242.185 80.8286C242.325 82.8638 241.099 84.2728 238.704 84.4403L233.198 84.8253ZM234.406 77.8841L237.997 77.633C239.218 77.5476 239.752 76.9089 239.686 75.9511C239.62 74.9934 239.005 74.4349 237.784 74.5203L234.192 74.7714L234.406 77.8841ZM234.767 83.1518L238.598 82.8839C239.938 82.7902 240.585 82.0472 240.501 80.8261C240.418 79.605 239.676 78.9591 238.335 79.0529L234.504 79.3208L234.767 83.1518ZM245.01 88.8111L244.903 87.2547C245.026 87.2942 245.173 87.3321 245.294 87.3476C245.539 87.4027 245.805 87.4322 246.116 87.4104C247.194 87.3351 247.777 86.7169 248.148 85.464L248.632 83.7461L243.175 72.5795L244.971 72.4539L249.322 81.5325L252.393 71.935L254.188 71.8094L249.824 85.3468C249.03 87.8081 248.115 88.8345 246.463 88.95C246.056 88.9785 245.717 88.9541 245.425 88.9023C245.256 88.8901 245.133 88.8506 245.01 88.8111ZM255.166 82.3268C255.115 81.5846 255.539 81.0978 256.281 81.0459C257.023 80.994 257.509 81.4171 257.56 82.1594C257.611 82.9017 257.187 83.3884 256.445 83.4403C255.703 83.4922 255.217 83.0691 255.166 82.3268Z" fill="#414141"/>
</svg>
