<svg width="305" height="357" viewBox="0 0 305 357" fill="none" xmlns="http://www.w3.org/2000/svg">
<path opacity="0.3" fill-rule="evenodd" clip-rule="evenodd" d="M52.2743 340.625C50.8373 337.661 73.7368 335.632 95.9214 333.842C119.675 331.925 145.388 329.831 180.64 330.268C217.217 330.721 252.859 333.11 275.586 336.069C296.343 338.771 293.407 341.873 292.598 344.842C291.817 347.711 292.507 350.778 271.092 352.565C248.63 354.439 214.017 355.055 180.224 354.22C148.437 353.435 125.582 350.812 102.986 348.411C80.2688 345.997 53.6714 343.506 52.2743 340.625Z" fill="#C4C4C4"/>
<path d="M109.397 71.2635C112.851 69.1251 117.876 66.4058 121.724 68.0163C124.079 68.9931 125.257 72.1083 125.519 74.9331C126.121 81.1636 123.32 90.7733 116.699 92.5157C111.7 93.8093 106.884 89.5324 103.639 86.074L104.058 89.4268C110.287 79.2628 120.467 73.5867 131.931 71.5539L128.842 67.5146C123.189 77.4411 111.935 82.246 101.336 84.7012C90.0556 87.2884 77.938 87.6316 66.5794 85.414L67.7833 90.034C75.0853 82.8004 84.6642 77.6523 94.3216 74.4051C103.979 71.1579 115.756 69.2043 125.623 73.4283L124.367 70.3131C119.708 83.83 104.79 90.7469 92.0447 94.1261C78.5662 97.6901 63.0724 98.6933 49.7247 93.9149L51.6353 97.3205C52.211 93.3341 55.6396 90.2188 58.5185 87.7636C63.1247 83.83 68.4638 80.7412 73.8552 78.0484C79.7177 75.1179 85.8681 72.7155 92.2017 71.0523C97.3576 69.6795 103.011 68.5178 108.376 69.2835C111.804 69.7587 114.971 71.1843 115.756 74.8275C116.62 78.8404 115.128 82.1404 112.197 84.8332C103.796 92.6477 89.8986 95.0501 78.9849 96.4229C71.9185 97.3205 64.695 97.6901 57.5763 97.2677C53.1532 97.0037 47.788 96.6605 44.0454 94.2053L45.3017 97.3205C50.1173 85.6252 63.0986 78.0747 74.2216 73.6659C85.3447 69.2571 99.399 65.957 111.517 69.4683L109.606 66.0626C105.131 77.9427 91.783 83.3548 80.2935 85.4668C68.804 87.5788 54.7236 87.262 44.0454 81.4276L45.0138 85.2028C50.9548 75.8835 61.6068 69.9963 71.6306 66.221C81.6544 62.4458 92.9345 59.9378 103.796 61.0466L101.44 56.9017C94.5834 67.013 81.7068 72.7155 70.0865 74.6427C58.4661 76.5699 44.9614 74.4579 38.7063 63.2642L38.2876 66.617C50.0387 57.0074 70.4267 54.3409 83.4603 62.789V58.037C66.8935 68.2011 44.1239 66.4058 27.1907 58.037L26.5364 63.0794C41.9517 60.8882 58.0474 58.829 73.5673 60.9674L72.913 55.9249C59.9841 62.1818 44.3856 59.7266 30.7501 57.7729L31.4044 62.8154C46.4532 55.3705 64.1454 52.5457 80.6337 50.4337L79.9009 45.0216C69.6154 46.9752 58.597 44.6784 50.9286 37.2336L48.2591 41.8536C58.4661 43.992 67.0243 48.6385 74.4572 56.0305C76.106 57.6673 79.1681 56.5058 79.1158 54.0769C78.9849 45.8929 76.7603 37.8408 74.7974 29.9471C74.0384 26.9375 69.406 27.5711 69.4322 30.6863C69.5368 40.2696 71.4736 49.8001 73.7505 59.0666C74.4572 61.9442 78.1212 61.4162 79.0111 59.0666C83.3556 47.8465 85.4232 35.4912 83.2247 23.5583L77.9642 25.0367C82.2302 36.2304 82.0732 48.6385 82.0732 60.4658C82.0732 63.4754 86.9411 64.3466 87.4384 61.205C89.663 47.3449 89.663 33.1943 87.4384 19.3342C86.9411 16.2982 81.6806 16.9846 82.0732 20.0734C84.0884 36.7056 84.1146 54.0241 90.6052 69.7323C91.6783 72.3195 94.8189 72.3459 95.8658 69.7323C101.99 54.7897 100.079 38.6064 102.199 22.951H96.9388C99.1373 32.0855 99.5822 41.484 101.048 50.7505C102.33 58.8289 104.529 67.0394 110.287 73.0851C111.438 74.2995 113.82 74.1147 114.579 72.5307C123.242 54.3673 117.117 34.752 114.945 15.8494L109.58 16.5886C113.715 35.5704 114.71 55.9514 122.221 74.0091C123.163 76.2531 126.879 76.9923 127.481 74.0091C131.826 53.2321 125.492 32.2439 123.372 11.599L118.007 12.3382C124.393 36.1248 128.397 60.4394 132.768 84.6484C133.318 87.658 138.5 87.0244 138.133 83.9092C135.909 64.5314 129.811 45.8665 127.586 26.4887L122.928 28.4423C128.476 34.2239 131.067 42.1176 132.873 49.7737C134.862 58.1954 135.83 66.8283 136.877 75.4083C137.296 78.8404 142.295 79.0516 142.347 75.4083C142.399 70.4451 143.342 65.3498 146.508 61.4162C149.675 57.4826 154.438 55.5817 159.306 54.6841L155.852 52.0177C155.669 63.977 146.325 73.2171 136.982 79.3419C127.141 85.7836 115.469 90.5357 103.77 91.7765L105.157 96.9245C122.928 83.5924 143.944 74.0355 165.64 69.5475L162.552 65.5082C158.024 75.3819 148.34 81.1108 138.578 84.754C128.083 88.6612 116.96 90.6413 105.863 91.7765L107.251 96.9245C130.177 86.4436 153.994 77.3355 173.151 60.3338C175.324 58.4066 172.968 55.1857 170.482 55.7137C155.171 59.0666 123.687 59.489 123.346 37.1016L121.331 39.768C134.443 34.3824 147.634 41.3256 151.69 54.8689L156.689 52.7569C150.277 42.0912 142.373 31.9535 140.096 19.387L136.72 22.7926C149.099 25.1423 156.48 36.9432 162.499 47.0545C164.122 49.7737 168.153 47.9521 167.498 44.9424C164.96 33.3263 156.349 24.7199 147.267 17.7766C144.886 15.955 142.478 19.3606 143.525 21.5518C145.854 26.4095 147.503 31.5839 149.858 36.4415L152.947 32.4023C127.351 28.0727 101.65 21.8158 75.5825 26.0135C73.0439 26.4095 73.2009 29.8679 74.9282 31.0559C83.1462 36.7584 93.5103 37.7352 103.246 37.5768C113.977 37.392 124.629 35.7551 135.359 35.7023L133.972 30.5543C108.611 47.4241 74.4048 50.5129 57.079 78.3388C56.4509 79.3684 56.6603 80.8468 57.4978 81.6916C67.3908 91.354 82.1779 90.6941 94.7404 88.1068C109.056 85.15 122.561 79.3683 136.04 73.9035L133.37 69.2835C122.064 82.6156 104.372 88.1068 89.6369 96.5021C87.2814 97.8485 88.3283 101.677 91.024 101.65C111.019 101.465 129.654 93.0965 147.215 84.2524L144.467 79.5003C127.717 89.9812 109.58 98.2181 90.2912 102.627C86.8365 103.419 88.3283 108.646 91.7568 107.933C112.171 103.736 130.57 94.6541 147.215 82.1404C149.989 80.0547 147.398 75.3291 144.467 77.3884C124.367 91.4333 100.42 98.1389 76.263 100.409L77.6501 105.557C102.985 92.8325 130.413 82.0348 149.885 60.4658C151.141 59.0666 150.827 56.2417 148.681 55.8457C124.576 51.6481 101.048 59.5682 77.6501 64.3466L79.1158 69.6531C100.551 61.0466 123.634 54.6841 141.457 39.1608C143.446 37.4184 141.326 33.5375 138.788 34.5407C116.882 43.3584 94.5834 51.4633 71.3165 55.8194L73.4103 60.8618C90.5267 48.7441 112.249 44.2824 131.8 37.7352L128.712 33.6959C123.765 42.1704 115.547 48.5065 107.303 53.4433C98.5092 58.7234 88.6162 63.0002 78.383 64.241L80.3196 68.9402C95.2115 56.2681 114.553 50.8297 130.36 39.6096L126.618 35.8344C115.861 52.8625 97.6716 62.8946 82.7798 75.6723C80.0841 77.9691 83.9838 81.85 86.6533 79.5796C101.99 66.4059 120.284 56.1362 131.355 38.6064C132.768 36.3624 129.863 33.2207 127.612 34.8311C111.386 46.368 91.783 52.0177 76.4724 65.033C74.7451 66.485 76.0798 70.0227 78.4091 69.7323C89.6369 68.3594 100.42 64.0034 110.103 58.1954C119.159 52.7569 128.083 45.7345 133.475 36.468C134.626 34.4616 132.69 31.6367 130.387 32.4287C110.417 39.108 88.1974 43.728 70.6884 56.1098C68.1236 57.9314 69.6939 61.733 72.7822 61.1522C96.0228 56.8225 118.347 48.6913 140.253 39.8736L137.584 35.2535C120.546 50.0641 98.1428 56.0833 77.6501 64.3202C74.431 65.6138 75.5826 70.3659 79.1158 69.6267C101.414 65.0594 124.236 57.113 147.241 61.1258L146.037 56.5057C126.879 77.7051 99.7916 88.2124 74.9021 100.726C72.5466 101.914 73.5935 106.112 76.2892 105.874C101.362 103.498 126.33 96.7133 147.241 82.114L144.493 77.3619C128.188 89.6116 110.313 98.4821 90.3173 102.601L91.783 107.907C111.49 103.393 130.125 94.9445 147.241 84.226C150.251 82.3516 147.608 77.8899 144.493 79.4739C127.796 87.8692 110.051 95.9477 91.0501 96.1061L92.4373 101.254C107.591 92.5949 125.623 86.9188 137.27 73.1643C138.84 71.3163 137.401 67.4354 134.6 68.5443C122.221 73.5603 109.868 78.8139 96.8603 81.9556C85.4755 84.7012 70.6361 86.8132 61.3712 77.7579L61.79 81.1107C78.3306 54.5257 112.406 51.4633 136.72 35.3064C138.919 33.8543 138.16 30.1583 135.333 30.1583C125.283 30.2111 115.285 31.6631 105.235 31.9799C95.7873 32.2967 85.7111 31.8479 77.6763 26.2775L77.022 31.3199C101.99 27.3071 126.958 33.5376 151.481 37.7088C153.889 38.1048 155.669 35.9136 154.569 33.6696C152.24 28.8119 150.591 23.6374 148.236 18.7798L144.493 22.555C152.449 28.6535 159.987 36.2567 162.212 46.4208L167.21 44.3088C160.458 33.0095 151.978 20.1262 138.16 17.5126C136.013 17.1166 134.417 18.7534 134.783 20.9182C137.139 33.96 145.278 44.52 151.926 55.6081C153.496 58.2218 157.841 56.5322 156.925 53.4961C152.083 37.3656 135.752 27.9935 119.839 34.5672C118.714 35.016 117.824 35.9136 117.824 37.2336C118.217 64.0034 152.764 65.3498 171.895 61.1522L169.226 56.5321C150.487 73.1643 126.853 82.0084 104.424 92.2517C101.99 93.3605 103.168 97.6637 105.811 97.3997C117.955 96.1589 130.203 94.0733 141.614 89.5324C152.031 85.3876 162.342 78.9988 167.21 68.3859C168.231 66.1682 166.556 63.8186 164.122 64.3466C142.033 68.9139 120.415 78.7084 102.33 92.2781C100.446 93.7037 100.681 97.7429 103.717 97.4261C116.96 96.0005 130.151 90.8525 141.117 83.2756C152.083 75.6987 161.06 65.561 161.269 52.1233C161.296 50.1961 159.516 49.1665 157.815 49.4569C151.769 50.5657 146.037 53.2321 142.164 58.1425C138.29 63.053 136.903 69.2835 136.825 75.4875H142.295C140.201 58.565 139.206 37.6032 126.749 24.6143C125.231 23.0302 121.802 24.1127 122.09 26.5679C124.315 45.9457 130.413 64.6106 132.637 83.9884L138.003 83.2492C133.632 59.0402 129.628 34.7256 123.242 10.9389C122.456 8.03492 117.536 8.48372 117.876 11.6781C119.944 31.6895 126.408 52.4929 122.195 72.6099H127.455C119.944 54.5521 118.923 34.1712 114.814 15.1894C114.16 12.2062 109.083 12.8134 109.449 15.9286C111.464 33.4584 117.876 52.9417 109.815 69.8379L114.108 69.2835C108.611 63.5018 107.067 55.1329 105.968 47.4769C104.738 38.844 104.188 30.1055 102.147 21.5782C101.545 19.0966 97.2529 18.8062 96.8865 21.5782C94.7927 37.2072 96.6509 53.4961 90.5529 68.3595H95.8135C89.506 53.1001 89.4275 36.3624 87.4646 20.179L82.0994 20.9182C84.1408 33.7224 84.1408 47.0545 82.0994 59.8586L87.4646 60.5978C87.4646 48.3217 87.5693 35.3328 83.1462 23.7167C81.89 20.4166 77.2314 21.6574 77.8857 25.1951C79.9009 36.1248 77.624 47.5297 73.672 57.7466H78.9325C76.7864 48.9289 74.9021 39.9528 74.8236 30.8447L69.4583 31.5839C71.2904 39.0024 73.4626 46.5529 73.5673 54.2353L78.2259 52.2817C70.165 44.2824 60.6907 39.0024 49.62 36.6792C47.0552 36.1512 44.8829 39.2664 46.9505 41.2992C56.0845 50.1961 68.9872 52.8361 81.2357 50.5129C84.2193 49.9585 83.5912 44.7048 80.5029 45.1008C62.9939 47.3448 44.5165 50.3281 28.5254 58.2482C26.5364 59.225 26.8504 62.9474 29.1797 63.2906C44.4641 65.4818 61.1095 67.8843 75.5564 60.8882C77.5454 59.9378 77.2314 56.1625 74.9021 55.8457C58.3091 53.5753 41.4282 55.6081 24.9661 57.9578C22.6629 58.301 22.3227 62.0234 24.3118 63.0002C42.9985 72.2403 67.7833 74.2467 86.1037 63.0002C87.9095 61.8914 87.831 59.357 86.1037 58.2482C70.8716 48.3745 47.9189 51.7801 34.3095 62.921C33.3673 63.6866 33.3411 65.2706 33.8907 66.2738C41.1403 79.2363 56.32 82.4044 69.9818 80.398C83.6435 78.3916 98.1166 71.6331 106.099 59.885C107.381 57.9842 105.628 55.9249 103.744 55.7401C91.8877 54.5257 79.4298 57.3506 68.4376 61.7594C57.4454 66.1683 46.6888 72.5043 40.2243 82.642C39.4391 83.8564 39.9364 85.7308 41.1926 86.4172C53.4411 93.1229 69.0134 93.5189 82.4134 90.8789C95.8134 88.2388 109.685 81.322 114.788 67.7522C115.312 66.353 114.186 64.7426 112.878 64.3466C99.3205 60.413 83.8267 63.8978 71.1072 69.1779C58.3876 74.4579 45.3802 82.8268 39.9364 96.0269C39.4653 97.1621 40.2505 98.5349 41.1926 99.1421C45.2493 101.782 50.6145 102.363 55.2993 102.785C62.1302 103.393 69.0658 103.155 75.8966 102.442C89.0088 101.096 104.398 98.5085 114.919 89.8228C118.819 86.602 121.697 82.0084 121.383 76.7547C121.095 71.8179 118.949 67.5938 114.369 65.4818C109.24 63.1058 103.194 63.5282 97.7502 64.373C90.6052 65.4818 83.6958 67.8315 77.0482 70.6563C69.6939 73.7979 62.549 77.6523 56.2677 82.642C52.1064 85.9156 47.0813 90.4301 46.27 96.0269C46.0345 97.5845 46.6364 98.8781 48.1805 99.4325C62.863 104.686 80.1626 103.419 94.9236 99.2213C109.685 95.0237 124.393 86.9452 129.549 71.9763C129.889 70.9467 129.34 69.3098 128.293 68.861C117.274 64.109 104.895 65.3762 93.6935 68.9667C82.4919 72.5571 72.0494 78.1803 63.8314 86.3116C62.4443 87.6844 62.9939 90.5092 65.0353 90.9316C77.6763 93.4133 91.024 93.0701 103.534 90.034C115.233 87.2092 127.272 81.4276 133.475 70.5243C134.757 68.2802 132.663 66.0626 130.387 66.485C117.536 68.7819 106.178 75.5667 99.242 86.8924C98.5877 87.9484 98.8494 89.3476 99.6607 90.2453C103.796 94.6805 109.397 99.0101 115.809 98.4821C120.834 98.0597 124.838 94.6277 127.324 90.4036C131.669 83.0908 133.606 69.257 125.126 63.9506C119.211 60.2546 111.857 63.4754 106.544 66.7754C103.56 68.6235 106.282 73.4019 109.292 71.5275L109.397 71.2635Z" fill="#C4C4C4"/>
<path fill-rule="evenodd" clip-rule="evenodd" d="M9.22158 44.6376C18.4294 37.7797 29.265 38.7979 38.6507 43.1931C42.0998 44.8082 45.353 46.8793 48.2578 49.1832C47.0262 47.5345 45.4342 46.0835 43.8681 44.6561C42.5804 43.4825 41.3102 42.3247 40.2722 41.0862C38.2513 38.6746 37.1109 35.9566 38.4362 32.2175C39.5172 29.2005 41.8544 26.3091 45.5938 25.5046C47.4278 25.0976 49.0835 25.3065 50.6261 25.8584C52.6743 26.5912 54.5233 27.9289 56.3258 29.2329L56.3268 29.2337L56.4311 29.3091C56.6742 29.4849 56.9165 29.6599 57.1583 29.8324C54.901 27.7883 53.3788 25.7749 52.5282 23.8159C50.2193 18.4983 52.8592 13.5816 59.1786 9.5395C69.7251 2.77634 83.7773 3.15347 93.3013 11.0732C93.7767 10.5871 94.2312 10.1159 94.671 9.66C98.8262 5.35263 101.671 2.40327 108.435 1.01641C134.289 -4.28852 168.383 11.6765 164.79 37.1453C165.801 37.3943 166.826 37.6375 167.857 37.882C177.962 40.2793 188.611 42.8056 192.164 52.2052C195.202 60.3009 189.505 68.3463 183.575 74.2547C176.358 81.4704 167.127 87.3536 157.953 92.5077C148.78 97.6617 139.139 102.238 129.118 106.059C123.217 108.297 117.024 110.509 110.684 111.666C102.679 113.124 94.4115 113.602 86.2606 113.853C75.831 114.18 65.3721 113.979 54.9717 113.074C45.5646 112.269 35.9238 111.012 27.101 107.945C20.849 105.757 14.0712 102.338 12.2015 96.3292C10.3816 90.4668 14.1719 84.8003 18.5187 80.3046C19.3357 79.4596 20.1723 78.656 20.9951 77.9002C19.7734 77.7639 18.6091 77.6874 17.4977 77.6328C16.9053 77.6038 16.3278 77.581 15.7647 77.5587C10.5646 77.3535 6.58806 77.1965 3.29102 72.5953C-3.07778 63.7454 0.311119 51.2499 9.22158 44.6376ZM50.3372 51.2315C49.4023 52.1471 47.6715 52.0443 46.6466 51.2315C36.1429 42.9006 21.9098 38.4374 10.7701 46.734L10.7665 46.7367C2.70519 52.7188 0.0642295 63.655 5.39787 71.0665L5.40097 71.0708C7.08389 73.4194 8.86275 74.228 11.2138 74.6026C12.4879 74.8056 14.1699 74.8832 15.8844 74.9513C17.4917 75.0146 19.3139 75.0865 21.2821 75.306C22.296 75.4192 23.1502 76.1173 23.4664 77.0912C23.7826 78.0651 23.5023 79.1347 22.7496 79.8261C20.211 82.1581 17.7035 84.8117 16.0844 87.6068C14.4784 90.3794 13.8962 93.0157 14.6826 95.5508C15.3846 97.8051 17.5069 100.111 19.9364 101.796C22.368 103.482 25.1365 104.651 28.1677 105.711C36.6726 108.667 45.6698 109.696 55.028 110.496C65.3126 111.391 75.8379 111.568 86.1808 111.244C94.2999 110.994 102.411 110.52 110.22 109.098C116.305 107.987 122.304 105.853 128.196 103.619C138.09 99.8454 147.616 95.325 156.684 90.2298C165.802 85.1068 174.782 79.3631 181.74 72.4052L181.744 72.4017C184.614 69.5419 187.295 66.4513 188.896 63.0787C190.477 59.7469 190.928 56.3203 189.733 53.1311C188.124 48.8731 184.729 46.1866 180.087 44.201C176.247 42.5584 171.873 41.5194 167.35 40.4448C166.297 40.1946 165.235 39.9424 164.171 39.6803C162.874 39.361 162.029 38.1068 162.216 36.7791C163.808 25.4934 157.143 16.0141 146.362 9.80487C135.58 3.59497 121.235 1.05415 108.955 3.57378C103 4.79483 100.672 7.20262 96.5189 11.498C96.0864 11.9452 95.6342 12.413 95.156 12.9019C94.2098 13.8695 92.6835 13.9483 91.6434 13.0835C83.0614 5.94707 70.2538 5.53434 60.5777 11.7393L60.5751 11.741C56.5212 14.334 54.6759 16.9468 54.3563 19.27C54.0507 21.492 55.0266 24.3873 58.8991 27.8941C59.9218 28.8201 60.0477 30.3863 59.1864 31.4651C58.325 32.544 56.7752 32.7611 55.6527 31.9602C55.4348 31.8047 55.2215 31.6518 55.0121 31.5018C51.5845 29.0459 49.2427 27.368 46.1548 28.0533L46.1466 28.0551L46.1384 28.0568C43.5355 28.6168 41.7619 30.6487 40.8836 33.0971C40.3467 34.6142 40.3864 35.7477 40.6708 36.6929C40.9735 37.6993 41.619 38.7064 42.632 39.832C43.4868 40.7819 45.1884 42.3354 46.3004 43.3495C47.6471 44.5864 49.1248 45.9939 50.3372 47.617C51.1209 48.6661 51.2722 50.3158 50.3372 51.2315Z" fill="#565656"/>
<path d="M143.692 158.688C143.436 160.855 144.176 163.269 146.141 164.445C146.934 164.919 147.876 165.112 148.793 164.936C149.709 164.761 150.511 164.12 151.022 163.33C151.33 162.856 151.541 162.295 151.674 161.742C151.832 161.084 151.911 160.618 151.982 159.89C152.07 158.986 151.947 157.977 151.409 157.222C150.334 155.713 148.37 155.783 146.819 156.459C144.881 157.301 143.339 159.179 143.022 161.277C142.952 161.742 143.137 162.207 143.63 162.347C144.044 162.461 144.634 162.207 144.705 161.742C144.767 161.329 144.881 160.943 145.022 160.557C144.943 160.768 145.075 160.443 145.101 160.399C145.137 160.32 145.181 160.241 145.225 160.162C145.322 159.978 145.436 159.802 145.56 159.636C145.595 159.592 145.621 159.548 145.656 159.504C145.639 159.53 145.542 159.644 145.639 159.53C145.692 159.469 145.745 159.399 145.806 159.337C145.938 159.188 146.079 159.039 146.229 158.907C146.3 158.846 146.37 158.784 146.44 158.723C146.493 158.679 146.661 158.547 146.511 158.661C146.678 158.539 146.846 158.425 147.022 158.319C147.163 158.231 147.313 158.153 147.471 158.074C147.551 158.038 147.63 158.003 147.709 157.968C147.506 158.056 147.744 157.968 147.824 157.933C147.973 157.88 148.123 157.837 148.273 157.801C148.352 157.784 148.432 157.766 148.511 157.749C148.749 157.696 148.343 157.749 148.59 157.74C148.74 157.731 148.89 157.722 149.039 157.731C149.101 157.731 149.172 157.749 149.233 157.749C148.951 157.749 149.189 157.749 149.277 157.766C149.348 157.784 149.409 157.801 149.48 157.819C149.7 157.88 149.427 157.775 149.506 157.819C149.559 157.854 149.612 157.872 149.665 157.898C149.762 157.959 149.868 158.056 149.709 157.916C149.806 158.003 149.903 158.126 150 158.205C149.841 158.082 149.938 158.126 150 158.223C150.044 158.293 150.079 158.389 150.132 158.46C150.194 158.547 150.079 158.293 150.105 158.398C150.114 158.442 150.141 158.486 150.149 158.521C150.176 158.591 150.193 158.661 150.211 158.732C150.229 158.819 150.246 158.907 150.264 158.995C150.29 159.118 150.246 158.828 150.264 158.951C150.264 159.013 150.273 159.083 150.282 159.144C150.29 159.346 150.282 159.548 150.282 159.741C150.282 159.802 150.273 159.873 150.264 159.934C150.264 159.96 150.246 160.118 150.264 160.013C150.282 159.881 150.238 160.153 150.246 160.145C150.229 160.232 150.22 160.311 150.202 160.399C150.193 160.46 150.176 160.513 150.167 160.575C150.167 160.557 150.114 160.934 150.141 160.759C150.123 160.873 150.105 160.996 150.079 161.11C150.026 161.373 149.947 161.636 149.859 161.891C149.841 161.935 149.823 161.987 149.806 162.031C149.823 161.996 149.876 161.873 149.806 162.031C149.753 162.128 149.709 162.216 149.656 162.312C149.603 162.4 149.542 162.479 149.498 162.567C149.48 162.602 149.392 162.698 149.524 162.54C149.489 162.584 149.445 162.637 149.401 162.681C149.348 162.742 149.295 162.795 149.233 162.847C149.198 162.883 149.163 162.909 149.127 162.944C149.039 163.023 149.268 162.847 149.172 162.918C149.022 163.014 148.872 163.093 148.722 163.181C148.934 163.058 148.74 163.172 148.652 163.198C148.572 163.225 148.502 163.242 148.423 163.26C148.211 163.313 148.502 163.26 148.396 163.26C148.308 163.26 148.22 163.269 148.132 163.269C148.053 163.269 147.973 163.251 147.894 163.251C147.78 163.251 148.114 163.304 147.938 163.251C147.903 163.242 147.868 163.234 147.832 163.234C147.665 163.199 147.515 163.146 147.357 163.084C147.595 163.172 147.313 163.058 147.251 163.023C147.154 162.97 147.066 162.918 146.978 162.856C146.943 162.839 146.916 162.812 146.881 162.786C146.714 162.681 146.925 162.821 146.863 162.777C146.784 162.707 146.705 162.646 146.634 162.575C146.546 162.496 146.467 162.409 146.396 162.321C146.37 162.286 146.344 162.251 146.308 162.224C146.185 162.093 146.388 162.356 146.282 162.189C146.159 161.996 146.026 161.812 145.921 161.61C145.894 161.549 145.753 161.25 145.833 161.435C145.789 161.321 145.744 161.206 145.709 161.092C145.63 160.847 145.568 160.601 145.524 160.346C145.524 160.346 145.489 160.092 145.507 160.224C145.524 160.338 145.498 160.118 145.498 160.092C145.489 159.952 145.48 159.811 145.471 159.671C145.471 159.337 145.489 159.013 145.524 158.679C145.577 158.214 145.084 157.81 144.652 157.81C144.132 157.81 143.833 158.214 143.78 158.679L143.692 158.688Z" fill="#565656"/>
<path d="M129.692 261.688C129.436 263.855 130.176 266.269 132.141 267.445C132.934 267.919 133.876 268.112 134.793 267.936C135.709 267.761 136.511 267.12 137.022 266.33C137.33 265.856 137.541 265.295 137.674 264.742C137.832 264.084 137.911 263.618 137.982 262.89C138.07 261.986 137.947 260.977 137.409 260.222C136.334 258.713 134.37 258.783 132.819 259.459C130.881 260.301 129.339 262.179 129.022 264.277C128.952 264.742 129.137 265.207 129.63 265.347C130.044 265.461 130.634 265.207 130.705 264.742C130.767 264.329 130.881 263.943 131.022 263.557C130.943 263.768 131.075 263.443 131.101 263.399C131.137 263.32 131.181 263.241 131.225 263.162C131.322 262.978 131.436 262.802 131.56 262.636C131.595 262.592 131.621 262.548 131.656 262.504C131.639 262.53 131.542 262.644 131.639 262.53C131.692 262.469 131.745 262.399 131.806 262.337C131.938 262.188 132.079 262.039 132.229 261.907C132.3 261.846 132.37 261.784 132.44 261.723C132.493 261.679 132.661 261.547 132.511 261.661C132.678 261.539 132.846 261.425 133.022 261.319C133.163 261.231 133.313 261.153 133.471 261.074C133.551 261.038 133.63 261.003 133.709 260.968C133.506 261.056 133.744 260.968 133.824 260.933C133.973 260.88 134.123 260.837 134.273 260.801C134.352 260.784 134.432 260.766 134.511 260.749C134.749 260.696 134.343 260.749 134.59 260.74C134.74 260.731 134.89 260.722 135.039 260.731C135.101 260.731 135.172 260.749 135.233 260.749C134.951 260.749 135.189 260.749 135.277 260.766C135.348 260.784 135.409 260.801 135.48 260.819C135.7 260.88 135.427 260.775 135.506 260.819C135.559 260.854 135.612 260.872 135.665 260.898C135.762 260.959 135.868 261.056 135.709 260.916C135.806 261.003 135.903 261.126 136 261.205C135.841 261.082 135.938 261.126 136 261.223C136.044 261.293 136.079 261.389 136.132 261.46C136.194 261.547 136.079 261.293 136.105 261.398C136.114 261.442 136.141 261.486 136.149 261.521C136.176 261.591 136.193 261.661 136.211 261.732C136.229 261.819 136.246 261.907 136.264 261.995C136.29 262.118 136.246 261.828 136.264 261.951C136.264 262.013 136.273 262.083 136.282 262.144C136.29 262.346 136.282 262.548 136.282 262.741C136.282 262.802 136.273 262.873 136.264 262.934C136.264 262.96 136.246 263.118 136.264 263.013C136.282 262.881 136.238 263.153 136.246 263.145C136.229 263.232 136.22 263.311 136.202 263.399C136.193 263.46 136.176 263.513 136.167 263.575C136.167 263.557 136.114 263.934 136.141 263.759C136.123 263.873 136.105 263.996 136.079 264.11C136.026 264.373 135.947 264.636 135.859 264.891C135.841 264.935 135.823 264.987 135.806 265.031C135.823 264.996 135.876 264.873 135.806 265.031C135.753 265.128 135.709 265.216 135.656 265.312C135.603 265.4 135.542 265.479 135.498 265.567C135.48 265.602 135.392 265.698 135.524 265.54C135.489 265.584 135.445 265.637 135.401 265.681C135.348 265.742 135.295 265.795 135.233 265.847C135.198 265.883 135.163 265.909 135.127 265.944C135.039 266.023 135.268 265.847 135.172 265.918C135.022 266.014 134.872 266.093 134.722 266.181C134.934 266.058 134.74 266.172 134.652 266.198C134.572 266.225 134.502 266.242 134.423 266.26C134.211 266.313 134.502 266.26 134.396 266.26C134.308 266.26 134.22 266.269 134.132 266.269C134.053 266.269 133.973 266.251 133.894 266.251C133.78 266.251 134.114 266.304 133.938 266.251C133.903 266.242 133.868 266.234 133.832 266.234C133.665 266.199 133.515 266.146 133.357 266.084C133.595 266.172 133.313 266.058 133.251 266.023C133.154 265.97 133.066 265.918 132.978 265.856C132.943 265.839 132.916 265.812 132.881 265.786C132.714 265.681 132.925 265.821 132.863 265.777C132.784 265.707 132.705 265.646 132.634 265.575C132.546 265.496 132.467 265.409 132.396 265.321C132.37 265.286 132.344 265.251 132.308 265.224C132.185 265.093 132.388 265.356 132.282 265.189C132.159 264.996 132.026 264.812 131.921 264.61C131.894 264.549 131.753 264.25 131.833 264.435C131.789 264.321 131.744 264.206 131.709 264.092C131.63 263.847 131.568 263.601 131.524 263.346C131.524 263.346 131.489 263.092 131.507 263.224C131.524 263.338 131.498 263.118 131.498 263.092C131.489 262.952 131.48 262.811 131.471 262.671C131.471 262.337 131.489 262.013 131.524 261.679C131.577 261.214 131.084 260.81 130.652 260.81C130.132 260.81 129.833 261.214 129.78 261.679L129.692 261.688Z" fill="#565656"/>
<path d="M84.6918 203.688C84.4363 205.855 85.1764 208.269 87.141 209.445C87.9338 209.919 88.8765 210.112 89.7927 209.936C90.7089 209.761 91.5106 209.12 92.0216 208.33C92.33 207.856 92.5414 207.295 92.6736 206.742C92.8321 206.084 92.9114 205.618 92.9819 204.89C93.07 203.986 92.9466 202.977 92.4092 202.222C91.3344 200.713 89.3698 200.783 87.8193 201.459C85.8811 202.301 84.3394 204.179 84.0223 206.277C83.9518 206.742 84.1368 207.207 84.6301 207.347C85.0442 207.461 85.6345 207.207 85.7049 206.742C85.7666 206.329 85.8811 205.943 86.0221 205.557C85.9428 205.768 86.0749 205.443 86.1014 205.399C86.1366 205.32 86.1807 205.241 86.2247 205.162C86.3216 204.978 86.4362 204.802 86.5595 204.636C86.5947 204.592 86.6212 204.548 86.6564 204.504C86.6388 204.53 86.5419 204.644 86.6388 204.53C86.6917 204.469 86.7445 204.399 86.8062 204.337C86.9383 204.188 87.0793 204.039 87.229 203.907C87.2995 203.846 87.37 203.784 87.4405 203.723C87.4934 203.679 87.6607 203.547 87.511 203.661C87.6783 203.539 87.8458 203.425 88.0219 203.319C88.1629 203.231 88.3127 203.153 88.4712 203.074C88.5505 203.038 88.6298 203.003 88.7091 202.968C88.5065 203.056 88.7443 202.968 88.8236 202.933C88.9734 202.88 89.1232 202.837 89.2729 202.801C89.3522 202.784 89.4315 202.766 89.5108 202.749C89.7487 202.696 89.3434 202.749 89.5901 202.74C89.7399 202.731 89.8896 202.722 90.0394 202.731C90.1011 202.731 90.1715 202.749 90.2332 202.749C89.9513 202.749 90.1892 202.749 90.2773 202.766C90.3478 202.784 90.4094 202.801 90.4799 202.819C90.7001 202.88 90.427 202.775 90.5063 202.819C90.5592 202.854 90.6121 202.872 90.6649 202.898C90.7618 202.959 90.8675 203.056 90.7089 202.916C90.8059 203.003 90.9028 203.126 90.9997 203.205C90.8411 203.082 90.938 203.126 90.9997 203.223C91.0437 203.293 91.079 203.389 91.1318 203.46C91.1935 203.547 91.079 203.293 91.1054 203.398C91.1142 203.442 91.1406 203.486 91.1494 203.521C91.1759 203.591 91.1935 203.661 91.2111 203.732C91.2287 203.819 91.2464 203.907 91.264 203.995C91.2904 204.118 91.2464 203.828 91.264 203.951C91.264 204.013 91.2728 204.083 91.2816 204.144C91.2904 204.346 91.2816 204.548 91.2816 204.741C91.2816 204.802 91.2728 204.873 91.264 204.934C91.264 204.96 91.2464 205.118 91.264 205.013C91.2816 204.881 91.2375 205.153 91.2463 205.145C91.2287 205.232 91.2199 205.311 91.2023 205.399C91.1935 205.46 91.1759 205.513 91.1671 205.575C91.1671 205.557 91.1142 205.934 91.1406 205.759C91.123 205.873 91.1054 205.996 91.079 206.11C91.0261 206.373 90.9468 206.636 90.8587 206.891C90.8411 206.935 90.8235 206.987 90.8058 207.031C90.8235 206.996 90.8763 206.873 90.8058 207.031C90.753 207.128 90.709 207.216 90.6561 207.312C90.6032 207.4 90.5416 207.479 90.4975 207.567C90.4799 207.602 90.3918 207.698 90.5239 207.54C90.4887 207.584 90.4446 207.637 90.4006 207.681C90.3477 207.742 90.2949 207.795 90.2332 207.847C90.198 207.883 90.1627 207.909 90.1275 207.944C90.0394 208.023 90.2685 207.847 90.1716 207.918C90.0218 208.014 89.872 208.093 89.7222 208.181C89.9337 208.058 89.7399 208.172 89.6518 208.198C89.5725 208.225 89.502 208.242 89.4227 208.26C89.2113 208.313 89.502 208.26 89.3963 208.26C89.3082 208.26 89.2201 208.269 89.132 208.269C89.0527 208.269 88.9734 208.251 88.8941 208.251C88.7796 208.251 89.1144 208.304 88.9382 208.251C88.9029 208.242 88.8677 208.234 88.8324 208.234C88.6651 208.199 88.5153 208.146 88.3567 208.084C88.5946 208.172 88.3127 208.058 88.251 208.023C88.1541 207.97 88.066 207.918 87.9779 207.856C87.9426 207.839 87.9162 207.812 87.881 207.786C87.7136 207.681 87.925 207.821 87.8634 207.777C87.7841 207.707 87.7048 207.646 87.6343 207.575C87.5462 207.496 87.4669 207.409 87.3964 207.321C87.37 207.286 87.3436 207.251 87.3084 207.224C87.185 207.093 87.3876 207.356 87.2819 207.189C87.1586 206.996 87.0264 206.812 86.9207 206.61C86.8943 206.549 86.7533 206.25 86.8326 206.435C86.7886 206.321 86.7445 206.206 86.7093 206.092C86.63 205.847 86.5683 205.601 86.5243 205.346C86.5243 205.346 86.489 205.092 86.5066 205.224C86.5243 205.338 86.4978 205.118 86.4978 205.092C86.489 204.952 86.4802 204.811 86.4714 204.671C86.4714 204.337 86.489 204.013 86.5243 203.679C86.5771 203.214 86.0838 202.81 85.6521 202.81C85.1323 202.81 84.8328 203.214 84.7799 203.679L84.6918 203.688Z" fill="#565656"/>
<path d="M178.96 99.8483C178.515 101.292 178.397 102.871 178.987 104.296C179.449 105.42 180.347 106.224 181.399 106.66C183.503 107.532 186.078 106.679 187.312 104.654C188.708 102.367 187.874 99.1216 185.96 97.4744C184.292 96.0404 181.88 95.5656 179.876 96.4376C178.715 96.9415 177.79 97.8329 177.318 99.0925C176.783 100.497 177.001 102.106 177.509 103.482C177.69 103.966 178.107 104.296 178.615 104.15C179.041 104.024 179.422 103.453 179.241 102.968C179.132 102.668 179.032 102.367 178.96 102.057C178.923 101.922 178.896 101.786 178.869 101.65C178.86 101.573 178.842 101.505 178.833 101.428C178.824 101.36 178.833 101.369 178.833 101.466C178.833 101.408 178.824 101.35 178.815 101.302C178.796 101.059 178.787 100.827 178.815 100.585C178.815 100.536 178.815 100.488 178.824 100.43C178.842 100.178 178.787 100.633 178.824 100.391C178.842 100.275 178.869 100.158 178.896 100.042C178.923 99.9258 178.96 99.8192 178.996 99.7126C179.041 99.577 178.923 99.8386 179.032 99.6351C179.078 99.5382 179.123 99.4413 179.177 99.3444C179.214 99.2863 179.386 99.0247 179.313 99.1216C179.232 99.2378 179.413 99.0053 179.44 98.9762C179.513 98.8987 179.585 98.8212 179.658 98.7534C179.685 98.7243 179.721 98.6952 179.749 98.6662C179.903 98.5208 179.631 98.7534 179.73 98.6758C179.821 98.608 179.912 98.5402 180.012 98.4724C180.166 98.3658 180.338 98.2786 180.501 98.2011C180.265 98.3174 180.583 98.172 180.637 98.1526C180.737 98.1139 180.837 98.0848 180.937 98.0557C181.036 98.0267 181.145 97.9976 181.245 97.9782C181.29 97.9685 181.58 97.9201 181.444 97.9395C181.308 97.9589 181.599 97.9298 181.644 97.9201C181.771 97.9104 181.907 97.9007 182.034 97.9007C182.233 97.9007 182.433 97.9201 182.623 97.9395C182.787 97.9589 182.605 97.9395 182.587 97.9395C182.65 97.9492 182.723 97.9588 182.786 97.9782C182.895 97.9976 183.004 98.0267 183.113 98.0557C183.312 98.1042 183.503 98.172 183.693 98.2495C183.757 98.2786 183.82 98.298 183.884 98.327C183.857 98.3174 183.711 98.2398 183.857 98.3173C183.965 98.3755 184.083 98.4336 184.192 98.4918C184.383 98.5984 184.564 98.7243 184.736 98.8599C184.773 98.889 184.863 98.9762 184.718 98.8406C184.763 98.8793 184.809 98.9181 184.854 98.9568C184.945 99.044 185.045 99.1409 185.135 99.2378C185.208 99.3154 185.28 99.4026 185.344 99.4898C185.38 99.5382 185.416 99.5867 185.453 99.6351C185.434 99.606 185.344 99.4801 185.444 99.6254C185.58 99.8386 185.707 100.061 185.815 100.294C185.843 100.352 185.87 100.41 185.897 100.478C185.96 100.623 185.824 100.265 185.906 100.507C185.942 100.623 185.988 100.74 186.024 100.856C186.106 101.147 186.169 101.447 186.214 101.747C186.196 101.563 186.223 101.893 186.223 101.951C186.223 102.009 186.251 102.435 186.26 102.271C186.251 102.542 186.142 102.823 186.069 103.075C186.051 103.123 186.033 103.172 186.015 103.22C186.096 103.007 185.997 103.249 185.988 103.278C185.942 103.365 185.897 103.462 185.852 103.55C185.788 103.656 185.725 103.763 185.661 103.86C185.788 103.676 185.561 103.976 185.516 104.034C185.444 104.112 185.371 104.189 185.298 104.257C185.253 104.296 185.217 104.334 185.172 104.373C185.063 104.47 185.344 104.247 185.172 104.373C184.999 104.499 184.8 104.625 184.6 104.732C184.401 104.838 184.664 104.732 184.482 104.79C184.392 104.829 184.292 104.858 184.201 104.896C184.092 104.935 183.993 104.964 183.884 104.984C183.802 105.003 183.503 105.051 183.73 105.022C183.521 105.051 183.312 105.061 183.104 105.061C183.004 105.061 182.904 105.061 182.805 105.042C182.787 105.042 182.578 105.013 182.732 105.042C182.886 105.071 182.65 105.022 182.623 105.022C182.387 104.974 182.17 104.896 181.943 104.819C181.816 104.77 182.143 104.925 181.943 104.819C181.889 104.79 181.825 104.761 181.771 104.732C181.68 104.683 181.58 104.625 181.49 104.557C181.435 104.518 181.381 104.48 181.336 104.441C181.19 104.334 181.463 104.567 181.317 104.422C181.236 104.344 181.154 104.267 181.082 104.189C181.045 104.15 181.009 104.102 180.973 104.063C180.81 103.889 181.027 104.17 180.927 104.015C180.864 103.918 180.801 103.821 180.746 103.714C180.728 103.676 180.701 103.627 180.683 103.588C180.674 103.569 180.565 103.307 180.61 103.433C180.664 103.579 180.583 103.346 180.583 103.336C180.565 103.259 180.538 103.191 180.519 103.114C180.483 102.988 180.465 102.852 180.438 102.726C180.392 102.455 180.447 102.929 180.429 102.648C180.429 102.561 180.42 102.474 180.411 102.387C180.383 101.621 180.483 101.127 180.728 100.342C181.091 99.17 179.35 98.6662 178.996 99.8289L178.96 99.8483Z" fill="#565656"/>
<path d="M69.9649 140.435C69.9649 141.469 69.5954 142.509 69.8417 143.536C70.1701 144.893 71.7549 145.569 73.2083 145.974C73.5286 146.062 73.972 145.92 74.128 145.67C75.0476 144.137 75.45 142.232 74.3168 140.692C73.3315 139.348 71.4757 138.801 69.6446 139.064C68.3637 139.247 67.2223 139.827 66.2452 140.51C65.9085 140.746 65.9496 141.212 66.2452 141.455C66.5736 141.725 67.0581 141.692 67.3947 141.455C68.0927 140.969 68.8481 140.604 69.6775 140.422C70.0962 140.334 70.2194 140.314 70.6792 140.321C70.7696 140.321 70.8517 140.327 70.942 140.334C70.9748 140.334 71.1062 140.348 70.942 140.334C70.9748 140.334 71.0159 140.341 71.0488 140.348C71.2212 140.375 71.3936 140.408 71.5661 140.456C71.6071 140.469 71.796 140.53 71.7303 140.503C71.6646 140.476 71.8452 140.55 71.8863 140.564C71.9602 140.597 72.0259 140.625 72.0916 140.665C72.1244 140.679 72.1491 140.692 72.1819 140.712C72.1819 140.712 72.3543 140.807 72.264 140.76C72.1983 140.719 72.3625 140.827 72.3954 140.847C72.4529 140.888 72.5104 140.935 72.5678 140.982C72.6253 141.03 72.6746 141.084 72.732 141.131C72.7567 141.151 72.8224 141.232 72.732 141.131C72.7567 141.165 72.7895 141.192 72.8142 141.226C72.9045 141.34 72.9948 141.455 73.0687 141.577C73.0933 141.611 73.1098 141.651 73.1344 141.685C73.1344 141.692 73.1837 141.786 73.1508 141.712C73.118 141.638 73.159 141.739 73.1672 141.746C73.1837 141.793 73.2083 141.84 73.2247 141.888C73.2822 142.029 73.3233 142.171 73.3561 142.313C73.3561 142.347 73.3972 142.543 73.3807 142.428C73.389 142.516 73.3972 142.604 73.4054 142.698C73.4136 142.887 73.4054 143.07 73.389 143.259C73.3725 143.414 73.3479 143.536 73.2904 143.745C73.1673 144.184 72.9866 144.603 72.7485 145.008L73.6681 144.704C73.2658 144.589 72.9455 144.495 72.5843 144.326C72.42 144.252 72.264 144.171 72.1162 144.083C71.9766 144.002 72.1819 144.143 72.0587 144.042C72.0095 144.002 71.9602 143.968 71.9109 143.927C71.8617 143.887 71.8206 143.853 71.7795 143.813C71.7549 143.786 71.7303 143.758 71.6974 143.738C71.7549 143.799 71.7713 143.813 71.7385 143.772C71.6728 143.684 71.6153 143.596 71.5496 143.509C71.4675 143.387 71.5825 143.623 71.5496 143.502C71.5332 143.448 71.5086 143.401 71.4922 143.353C71.4757 143.306 71.4593 143.252 71.4511 143.198C71.4265 143.009 71.4347 143.151 71.4511 143.198C71.3443 142.286 71.6318 141.367 71.64 140.456C71.64 139.598 70.0223 139.591 70.0141 140.456L69.9649 140.435Z" fill="#565656"/>
<path d="M250.573 338.477C254.443 335.705 259.953 333.127 264.529 335.818L264.563 333.09C262.621 334.478 260.475 335.979 258.042 336.263C255.759 336.525 253.458 335.47 251.495 334.284L251.784 336.76C253.531 335.017 255.56 333.482 258.088 333.206C260.615 332.93 263.338 333.755 265.781 334.51L265.451 331.624C264.062 332.439 262.716 333.304 261.33 334.134C260.901 334.397 260.465 334.63 260.025 334.849C259.803 334.952 259.81 334.919 260.025 334.849C259.937 334.871 259.839 334.911 259.752 334.933C259.665 334.955 259.577 334.977 259.49 334.999C259.17 335.079 259.875 334.933 259.563 334.981C259.475 335.003 259.392 334.977 259.316 334.98C259.054 334.984 259.654 335.098 259.381 334.995C259.297 334.969 258.825 334.808 259.05 334.907C259.257 334.995 258.781 334.757 258.687 334.688C258.483 334.552 258.28 334.417 258.087 334.263C257.818 334.051 258.207 334.373 257.953 334.157C257.836 334.062 257.716 333.952 257.585 333.86C257.313 333.634 257.051 333.388 256.775 333.147C256.099 332.539 255.42 331.917 254.754 331.292L254.408 333.756C255.419 333.285 256.422 332.847 257.517 332.588C257.75 332.53 257.968 332.475 258.208 332.446C258.401 332.413 258.281 332.428 258.604 332.424C258.819 332.417 259.022 332.428 259.241 332.436C259.586 332.458 259.426 332.436 259.702 332.491C261.873 332.957 263.806 334.336 265.733 335.5L266.163 332.627C262.651 333.476 259.015 333.145 255.455 332.872L255.792 335.973L260.475 334.798C262.425 334.31 261.681 331.249 259.717 331.741L255.034 332.915C253.273 333.357 253.639 335.891 255.37 336.016C259.213 336.311 263.129 336.588 266.922 335.684C268.245 335.352 268.497 333.502 267.352 332.81C265.171 331.493 262.838 329.871 260.282 329.409C257.726 328.946 255.228 329.899 252.893 331.012C252.009 331.436 251.83 332.833 252.546 333.477C253.844 334.659 255.094 335.899 256.496 336.946C257.351 337.586 258.343 338.099 259.445 338.118C260.546 338.137 261.648 337.596 262.605 337.03C264.103 336.157 265.536 335.208 267.039 334.35C268.213 333.667 267.996 331.856 266.709 331.464C263.718 330.552 260.62 329.712 257.475 330.112C254.33 330.513 251.816 332.339 249.659 334.48C248.938 335.189 249.079 336.443 249.948 336.956C252.503 338.475 255.35 339.673 258.375 339.349C261.4 339.026 263.834 337.499 266.18 335.808C267.096 335.143 267.319 333.735 266.214 333.08C260.631 329.818 253.965 332.22 249.113 335.705C248.432 336.202 248.072 337.053 248.519 337.858C248.904 338.538 249.965 338.956 250.66 338.456L250.573 338.477Z" fill="#C4C4C4"/>
<path d="M203.367 343.627C203.442 343.441 203.118 344.038 203.273 343.804C203.365 343.683 203.44 343.553 203.514 343.423C203.683 343.186 203.612 343.329 203.485 343.43C203.572 343.353 203.642 343.266 203.726 343.175C203.839 343.077 203.955 342.992 204.067 342.894C204.217 342.759 204.002 342.938 203.948 342.966C204.028 342.918 204.104 342.857 204.183 342.809C204.328 342.717 204.476 342.639 204.627 342.573C204.71 342.538 204.792 342.504 204.875 342.469C205.037 342.386 204.577 342.557 204.861 342.473C205.061 342.422 205.259 342.359 205.459 342.309C205.574 342.28 205.674 342.255 205.778 342.243C205.892 342.214 206.074 342.21 205.849 342.225C207.127 342.099 208.283 342.283 209.483 342.581L209.608 339.833C207.689 340.315 205.964 340.538 203.994 340.572C202.024 340.606 199.964 340.524 197.952 340.568L198.217 343.358L205.137 341.623L203.337 339.887C203.314 339.977 203.287 340.053 203.26 340.129C203.345 339.982 203.342 339.969 203.257 340.116C203.076 340.37 203.442 339.944 203.195 340.173C202.947 340.403 203.418 340.09 203.13 340.218C202.979 340.283 202.834 340.375 202.68 340.428C202.942 340.32 202.694 340.424 202.565 340.457C202.436 340.489 202.293 340.525 202.164 340.557C201.835 340.64 201.505 340.722 201.176 340.805C199.506 341.252 198.057 341.977 197.081 343.378C195.994 344.946 198.581 346.359 199.683 344.788C200.04 344.266 200.38 344.042 201.088 343.767C200.811 343.878 201.375 343.695 201.414 343.671C201.558 343.635 201.701 343.599 201.859 343.559C202.188 343.477 202.518 343.394 202.847 343.312C204.388 342.898 205.801 342.153 206.257 340.618C206.563 339.58 205.618 338.591 204.457 338.882L197.538 340.617C195.876 341.033 196.047 343.442 197.803 343.406C199.88 343.373 201.954 343.452 204.027 343.406C206.1 343.36 208.222 343.079 210.288 342.575C211.778 342.201 211.861 340.202 210.413 339.827C207.978 339.211 205.039 338.959 202.721 340.348C201.713 340.949 200.831 341.811 200.408 342.864C200.102 343.596 200.656 344.418 201.403 344.607C202.231 344.817 203.023 344.326 203.331 343.608L203.367 343.627Z" fill="#C4C4C4"/>
<path d="M222.31 235.821C219.612 243.103 216.723 250.281 212.574 256.846L215.184 258.018C218.091 250.851 220.8 243.551 224.921 236.993L222.31 235.821C219.249 243.392 216.509 251.111 214.929 259.163C214.629 260.669 216.799 261.936 217.54 260.335C220.35 254.349 224.212 248.982 226.761 242.848L223.997 242.019C221.545 254.338 215.235 265.403 212.786 277.736C212.479 279.274 214.564 280.441 215.396 278.908C220.15 270.319 223.37 260.974 227.75 252.205L225.14 251.032C221.661 261.082 217.156 270.735 212.382 280.211C211.694 281.602 213.485 283.329 214.624 282.009C220.421 275.396 223.519 267.07 226.548 258.883L223.783 258.054C221.969 267.093 217.672 275.354 214.469 283.92C213.884 285.482 216.293 286.506 217.079 285.092C221.686 276.814 225.933 268.352 230.553 260.071L227.943 258.899C226.083 268.056 220.503 275.847 217.244 284.487C216.658 286.049 219.071 287.088 219.854 285.659C223.937 278.289 226.909 270.299 231.398 263.177L228.788 262.005C226.803 271.984 222.22 281.079 217.699 290.065C216.867 291.72 219.245 293.224 220.169 291.577C224.347 284.107 228.501 276.597 233.099 269.371L230.433 268.578C230.047 277.762 224.315 285.728 221.178 294.079C220.512 295.859 223.241 296.606 223.943 294.908C226.741 288.088 230.375 281.439 234.8 275.566L232.17 275.16C233.949 281.973 233.447 289.542 230.887 296.059L233.652 296.888C236.673 288.733 239.68 280.583 242.701 272.428L239.937 271.599C238.154 280.645 234.923 289.461 229.391 296.845L232.057 297.638C233.178 283.689 233.114 269.672 234.386 255.731C234.534 254.096 231.879 253.65 231.565 255.281C230.024 263.247 228.483 271.213 226.959 279.19L229.724 280.019C230.671 274.789 230.075 269.247 229.642 263.998C229.096 257.392 228.332 250.811 227.98 244.202L225.154 244.514C227.268 254.608 228.706 264.811 230.82 274.904L233.609 274.205C231.106 264.894 229.543 255.332 224.226 247.106C223.614 246.149 222.367 246.127 221.745 247.059C216.942 254.123 215.396 263.277 214.571 271.657C213.746 280.037 213.782 289.236 214.864 297.945C215.072 299.567 217.168 299.148 217.634 298.011C223.224 284.769 222.13 268.103 217.193 254.775C216.708 253.481 214.864 253.228 214.423 254.708C212.341 261.638 212.092 269.082 212.621 276.286C213.15 283.489 214.351 290.205 216.518 296.83C216.929 298.066 218.999 298.446 219.288 296.897C221.561 284.699 219.744 271.395 212.931 260.881C212.252 259.834 210.692 259.936 210.296 261.177C206.581 273.051 209.691 286.198 213.479 297.668C213.844 298.779 215.494 299.278 216.108 298.074C223.205 284.149 220.653 268.001 220.562 252.911L217.683 252.826C218.482 262.747 217.341 273.474 220.61 283.035C221.099 284.464 222.829 284.442 223.38 283.101C228.64 270.58 225.585 256.75 225.22 243.631L222.394 243.943C226.924 258.348 227.896 273.857 234.338 287.645C234.918 288.899 236.56 288.396 236.973 287.349C242.755 272.704 235.934 256.302 232.652 241.859C232.228 239.971 229.636 240.743 229.862 242.558C231.127 252.667 231.535 262.945 231.049 273.112C230.961 274.991 233.837 275.061 233.928 273.197C234.439 262.765 233.952 252.233 232.652 241.859L229.862 242.558C233.034 256.496 239.776 272.4 234.212 286.534L236.848 286.239C230.53 272.709 229.639 257.408 225.187 243.258C224.712 241.764 222.305 241.835 222.361 243.571C222.722 256.433 225.781 270.034 220.636 282.297L223.406 282.364C220.216 273.058 221.336 262.61 220.552 252.928C220.41 251.092 217.661 250.929 217.672 252.844C217.755 267.297 220.427 283.202 213.624 296.566L216.254 296.972C212.63 285.979 209.493 273.387 213.046 262.009L210.411 262.304C216.788 272.151 218.653 284.621 216.509 296.071L219.28 296.138C217.191 289.767 215.961 283.058 215.472 276.378C214.983 269.697 215.14 262.245 217.16 255.544L214.39 255.478C219.166 268.404 220.277 284.351 214.855 297.186L217.625 297.253C216.597 289.002 216.594 280.541 217.37 272.264C218.146 263.988 219.57 255.366 224.187 248.577L221.706 248.53C226.878 256.533 228.377 265.837 230.806 274.908C231.303 276.732 233.976 276.046 233.595 274.209C231.481 264.115 230.044 253.912 227.93 243.819C227.595 242.228 225.006 242.467 225.104 244.131C225.442 250.561 226.174 256.953 226.719 263.376C227.156 268.517 227.897 274.1 226.966 279.219C226.642 281.05 229.368 281.904 229.731 280.048C231.272 272.082 232.813 264.116 234.337 256.139L231.517 255.689C230.245 269.63 230.309 283.647 229.189 297.596C229.061 299.195 231.081 299.435 231.854 298.389C237.527 290.848 240.877 281.728 242.694 272.46C243.06 270.618 240.585 269.869 239.93 271.631C236.923 279.782 233.902 287.937 230.881 296.091C230.229 297.868 232.965 298.643 233.645 296.92C236.38 289.964 236.86 281.761 234.952 274.492C234.608 273.163 233.057 273.126 232.323 274.086C227.74 280.167 224.075 287.052 221.171 294.111L223.936 294.94C227.196 286.3 232.916 278.23 233.306 268.695C233.366 267.189 231.391 266.71 230.64 267.903C226.041 275.128 221.888 282.638 217.71 290.108L220.179 291.62C224.812 282.422 229.533 273.096 231.563 262.877C231.874 261.292 229.866 260.258 228.953 261.705C224.464 268.827 221.495 276.831 217.409 284.187L220.019 285.359C223.278 276.719 228.848 268.945 230.718 259.771C231.039 258.229 228.944 257.08 228.108 258.598C223.498 266.862 219.255 275.338 214.634 283.619L217.244 284.792C220.433 276.23 224.744 267.965 226.558 258.926C226.924 257.084 224.449 256.335 223.794 258.097C220.955 265.78 218.078 273.731 212.632 279.951L214.873 281.748C219.741 272.05 224.355 262.172 227.925 251.887C228.454 250.338 226.056 249.235 225.315 250.714C220.935 259.484 217.705 268.847 212.961 277.418L215.572 278.59C218.024 266.271 224.334 255.207 226.783 242.873C227.156 240.999 224.73 240.329 224.018 242.044C221.574 247.939 217.81 253.098 215.091 258.848L217.701 260.02C219.281 251.968 222.021 244.25 225.082 236.679C225.724 235.103 223.308 234.171 222.472 235.507C218.222 242.265 215.428 249.829 212.441 257.214C211.799 258.791 214.215 259.722 215.051 258.386C219.33 251.621 222.303 244.179 225.082 236.679C225.737 234.917 222.962 234.105 222.317 235.85L222.31 235.821Z" fill="#C4C4C4"/>
<path d="M213.42 161.032C203.377 165.282 195.003 173.124 188.355 181.597C187.337 182.9 189.515 184.618 190.627 183.382C193.571 180.137 196.409 176.767 198.896 173.15C200.958 170.157 202.921 166.885 203.694 163.303C204.007 161.858 202.407 160.876 201.278 161.858C194.26 167.856 189.391 176.065 188.993 185.402C188.951 186.521 190.211 187.238 191.177 186.708C201.833 180.815 210.348 171.571 218.263 162.492C219.331 161.267 218.053 159.369 216.53 160.176C208.822 164.251 202.722 170.384 197.948 177.627C197.261 178.665 198.343 180.141 199.552 179.792C210.133 176.729 217.554 167.501 223.568 158.807C224.453 157.522 222.826 156.183 221.605 156.792C208.556 163.178 198.718 175.261 192.875 188.333C192.374 189.446 193.141 190.819 194.479 190.498C202.006 188.703 208.447 183.943 213.789 178.502C219.131 173.061 223.902 166.426 227.8 159.645C228.671 158.12 226.793 156.875 225.528 157.86C213.522 167.16 202.504 179.462 196.25 193.397C195.749 194.51 196.516 195.882 197.854 195.562C205.882 193.641 212.655 188.008 218.192 182.123C224.189 175.758 229.3 168.461 233.429 160.771C234.254 159.243 232.447 157.979 231.157 158.986C218.511 168.78 207.74 181.583 200.191 195.645C199.733 196.504 200.224 197.991 201.408 197.846C210.28 196.868 217.296 190.308 222.866 183.822C229.084 176.567 234.143 168.447 239.36 160.469C240.133 159.288 238.621 157.616 237.397 158.455C229.941 163.484 223.423 169.964 217.865 176.994C212.308 184.024 207.433 191.778 206.47 200.558C206.348 201.728 207.734 202.337 208.653 201.864C216.77 197.717 223.328 190.969 228.939 183.91C234.551 176.852 239.354 169.237 243.591 161.308C244.344 159.919 242.492 158.226 241.32 159.522C235.167 166.306 229.201 173.286 223.889 180.755C218.578 188.225 214.173 195.664 211.605 204.117C211.305 205.119 212.284 206.301 213.353 205.942C221.093 203.349 226.66 197.031 231.37 190.639C236.465 183.71 240.619 176.06 246.179 169.47L243.763 168.025C239.146 182.78 229.817 196.239 219.887 207.95L222.159 209.736C225.91 202.673 229.296 195.367 233.806 188.722C237.931 182.674 243.583 176.335 251.312 175.476L249.889 173.979C250.531 181.916 245.983 189.209 240.898 194.95C235.814 200.691 229.494 205.816 222.722 209.67L224.843 211.341C229.092 197.682 239.041 180.451 254.973 179.116L253.55 177.619C253.609 185.109 248.922 192.149 244.154 197.567C239.112 203.298 232.809 208.676 225.621 211.466L227.369 213.291C228.538 207.741 232.246 202.345 235.534 197.844C237.568 195.041 239.83 192.362 242.424 190.04C244.387 188.303 246.855 186.392 249.555 186.095C251.987 185.82 253.843 187.406 254.981 189.414C256.205 191.584 256.199 194.016 255.224 196.296C252.789 202.026 246.583 206.074 241.37 209.022C238.163 210.843 234.796 212.447 231.319 213.668C228.936 214.509 226.309 215.41 223.753 215.367L225.138 216.463C223.869 208.517 229.989 201.605 236.513 197.979C240.207 195.913 249.56 192.384 251.375 198.598C252.277 201.684 251.119 205.742 249.552 208.459C247.687 211.692 244.754 214.25 241.612 216.207C235.468 220.011 226.907 222.674 219.844 220.069C212.781 217.465 210.785 207.756 213.771 201.173C216.757 194.591 224.826 190.927 231.947 190.813C238.278 190.715 245.599 193.559 246.017 200.777C246.602 210.946 237.855 218.942 228.102 219.321C218.35 219.7 208.207 214.327 204.353 205.297C200.868 197.146 204.025 188.424 209.992 182.371C218.796 173.433 240.228 165.387 247.563 180.275C249.489 184.167 249.92 188.981 249.719 193.271C249.517 197.56 247.854 201.547 245.249 204.874C239.947 211.642 231.063 215.647 222.512 215.526C213.059 215.39 205.51 209.656 201.998 201.026C198.803 193.182 201.16 184.676 206.443 178.323C216.892 165.753 240.835 158.368 252.169 173.833C258.924 183.063 259.348 196.022 253.618 205.921C247.887 215.819 235.925 220.687 224.786 216.704C220.051 215.004 215.847 211.941 213.414 207.477C211.209 203.441 210.691 198.71 211.327 194.205C212.708 184.348 219.34 175.196 228.133 170.576C236.925 165.957 249.339 164.941 257.226 171.669C264.531 177.89 265.385 188.341 261.311 196.685C256.65 206.224 247.075 213.714 236.283 214.323C226.558 214.877 217.28 209.667 214.33 200.107C208.618 181.561 225.819 157.437 246.352 163.836C256.114 166.874 260.56 176.014 262.98 185.221C264.769 192.004 265.684 199.629 262.97 206.326C258.61 217.142 245.988 219.653 235.561 218.606C224.131 217.445 211.68 212.287 204.473 203.079C201.322 199.038 199.496 194.072 200.076 188.913C200.8 182.427 205.074 176.858 209.696 172.509C218.053 164.656 230.109 159.431 241.624 162.469C246.188 163.665 250.418 166.281 252.766 170.463C255.492 175.309 255.043 181.119 253.33 186.258C250.153 195.82 242.801 203.482 233.883 208.027C227.697 211.173 218.997 213.643 212.539 209.914C204.875 205.5 205.937 194.842 207.648 187.546C208.08 185.721 205.271 184.906 204.84 186.731C202.784 195.466 202.099 207.518 211.242 212.548C218.831 216.723 228.579 214.112 235.781 210.332C245.679 205.131 253.733 196.184 256.659 185.302C258.177 179.68 258.079 173.445 254.919 168.388C252.135 163.921 247.478 161.002 242.438 159.667C229.884 156.373 216.777 161.847 207.64 170.427C202.278 175.478 197.65 181.955 197.067 189.5C196.06 202.772 208.073 212.492 219.052 217.245C230.031 221.997 246.204 224.521 257.362 217.333C262.789 213.831 266.12 208.271 267.133 201.97C267.786 197.902 267.571 193.778 266.901 189.723C266.04 184.469 264.542 178.981 262.128 174.223C257.563 165.219 248.433 159.258 238.138 160.031C227.843 160.804 218.83 167.545 214.145 176.62C208.79 186.987 208.268 201.11 216.709 210.008C224.113 217.799 236.094 218.973 245.785 215.086C256.559 210.774 265.579 199.944 266.579 188.239C267.449 177.979 261.333 168.497 251.525 165.274C240.572 161.67 227.382 165.645 219.159 173.419C211.492 180.673 206.554 191.862 208.508 202.447C210.692 214.266 222.378 221.5 233.981 221.083C246.49 220.636 256.224 211.207 259.346 199.456C262.468 187.705 259.184 174.156 249.244 167.016C241.379 161.361 230.893 161.179 221.958 164.3C213.023 167.421 204.523 173.776 200.234 182.417C195.696 191.53 197.293 201.476 203.449 209.397C216.075 225.648 244.249 218.357 251.163 200.14C252.965 195.419 252.846 190.147 252.038 185.23C251.343 181.013 249.562 176.841 246.365 173.906C240.274 168.338 231.197 168.365 223.705 170.729C215.477 173.324 207.679 178.758 203.256 186.247C197.941 195.237 199.219 206.356 206.57 213.811C213.922 221.265 226.489 224.678 236.517 220.371C245.221 216.624 252.079 204.818 247.568 195.663C244.013 188.457 234.542 187.079 227.4 188.398C219.089 189.92 211.176 195.625 209.772 204.348C209.058 208.781 209.564 213.896 212.121 217.691C214.313 220.939 217.807 222.92 221.638 223.615C230.148 225.174 239.496 221.812 246.164 216.555C249.34 214.057 252.113 210.795 253.407 206.915C254.542 203.501 255.307 199.025 253.243 195.805C249.052 189.23 238.785 193.064 233.696 196.27C226.549 200.765 220.85 208.453 222.246 217.219C222.341 217.848 223.021 218.316 223.631 218.315C226.201 218.354 228.802 217.596 231.224 216.791C234.687 215.634 238.051 214.138 241.267 212.42C247.364 209.16 254.327 204.664 257.481 198.267C260.066 193.016 258.488 185.299 252.226 183.466C245.964 181.633 239.597 188.227 235.986 192.535C233.112 195.945 230.586 199.647 228.406 203.521C226.843 206.313 225.2 209.338 224.535 212.497C224.329 213.446 225.157 214.757 226.284 214.323C234.136 211.26 241.042 205.609 246.512 199.27C251.626 193.339 256.507 185.796 256.45 177.697C256.438 176.971 255.834 176.135 255.027 176.201C237.618 177.663 226.718 195.421 222.006 210.534C221.623 211.754 223.018 212.832 224.128 212.205C231.395 208.073 238.139 202.63 243.576 196.284C249.014 189.938 253.484 182.391 252.8 174.04C252.748 173.339 252.223 172.452 251.377 172.543C243.218 173.449 237.187 179.062 232.535 185.44C227.367 192.508 223.729 200.515 219.632 208.212C218.893 209.597 220.774 211.344 221.903 209.997C232.161 197.885 241.781 184.064 246.547 168.801C246.966 167.48 245.095 166.202 244.131 167.356C238.891 173.576 234.845 180.683 230.163 187.31C225.481 193.938 220.283 200.513 212.658 203.078L214.406 204.903C216.909 196.68 221.425 189.197 226.388 182.226C231.35 175.254 237.371 168.184 243.354 161.58L241.082 159.795C237.021 167.391 232.431 174.755 227.103 181.545C221.775 188.335 215.192 195.226 207.212 199.308L209.395 200.614C210.299 192.397 215.382 184.742 220.429 178.417C225.475 172.093 231.845 165.696 238.831 160.982L236.868 158.967C231.998 166.432 227.288 174.054 221.548 180.902C216.491 186.94 209.8 194.011 201.505 194.92L202.722 197.122C210.18 183.25 220.758 170.708 233.224 161.051L230.952 159.265C227.021 166.586 222.231 173.514 216.579 179.61C211.311 185.291 204.897 190.895 197.184 192.737L198.788 194.903C204.966 181.154 215.75 169.138 227.602 159.953L225.33 158.168C221.645 164.576 217.352 170.681 212.196 176.015C207.041 181.348 201.038 185.968 193.799 187.691L195.402 189.857C201.072 177.193 210.407 165.54 223.065 159.359L221.102 157.344C215.559 165.357 208.659 174.167 198.889 176.996L200.493 179.161C204.989 172.337 210.73 166.598 218.008 162.753L216.275 160.438C208.525 169.324 200.234 178.421 189.793 184.199L191.976 185.505C192.343 176.905 196.923 169.497 203.377 163.99L200.961 162.545C200.221 165.891 198.377 168.905 196.451 171.712C194.112 175.125 191.422 178.291 188.646 181.356L190.918 183.142C197.263 175.049 205.357 167.672 214.901 163.623C216.623 162.888 215.185 160.346 213.463 161.082L213.42 161.032Z" fill="#FCD2A0"/>
<path d="M269.459 196.551C266.143 212.678 252.719 224.582 236.597 226.889C220.474 229.195 203.433 221.185 195.312 206.798C187.338 192.694 189.381 174.618 200.587 162.829C211.794 151.04 230.106 147.469 245.329 153.591C262.187 160.369 272.934 178.435 269.459 196.551C269.11 198.389 271.898 199.227 272.258 197.371C275.535 180.233 267.408 162.941 252.589 153.978C237.377 144.778 217.392 145.648 203.245 156.531C189.097 167.414 183.857 186.063 190.072 202.435C196.287 218.806 212.739 229.947 230.315 230.199C247.891 230.45 264.148 220.058 270.439 203.687C271.22 201.634 271.819 199.521 272.258 197.371C272.638 195.541 269.836 194.706 269.459 196.551Z" fill="#565656"/>
<path d="M245.068 193.288C249.689 193.695 250.159 188.717 245.501 188.307C240.843 187.898 240.41 192.879 245.068 193.288Z" fill="#565656"/>
<path d="M217.613 195C222.113 193.872 220.945 189.01 216.409 190.147C211.874 191.284 213.077 196.137 217.613 195Z" fill="#565656"/>
<path d="M253.617 216.697C246.855 207.091 230.763 202.735 219.793 208.722C216.656 210.431 214.183 213.038 212.63 216.15C211.976 217.46 213.973 218.607 214.625 217.287C221.512 203.418 244.005 207.093 251.55 217.834C252.379 219.006 254.44 217.893 253.605 216.7L253.617 216.697Z" fill="#565656"/>
<path d="M203.989 154.366C202.625 149.22 202.573 143.899 202.282 138.623C202.232 137.827 201.685 137.109 200.881 137.077C200.154 137.057 199.399 137.697 199.439 138.512C199.746 144.032 199.815 149.66 201.238 155.041C201.726 156.893 204.478 156.219 203.986 154.352L203.989 154.366Z" fill="#565656"/>
<path d="M211.552 149.147C212.609 143.756 214.565 138.603 216.859 133.645C217.199 132.925 217.072 132.043 216.353 131.604C215.724 131.22 214.679 131.373 214.343 132.108C211.938 137.295 209.839 142.669 208.735 148.305C208.578 149.087 208.935 149.912 209.74 150.144C210.448 150.353 211.395 149.93 211.548 149.133L211.552 149.147Z" fill="#565656"/>
<path d="M229.386 151.206C234.869 148.517 239.31 144.26 242.623 139.108C243.631 137.541 241.168 136.058 240.171 137.607C237.116 142.362 233.017 146.201 227.971 148.675C226.314 149.483 227.729 152.014 229.386 151.206Z" fill="#565656"/>
<path d="M246.798 155.486C251.889 154.055 256.784 151.716 261.161 148.719C261.793 148.283 262.087 147.437 261.683 146.705C261.325 146.038 260.38 145.688 259.734 146.128C255.548 148.999 250.942 151.25 246.07 152.611C244.312 153.098 245.012 155.98 246.784 155.489L246.798 155.486Z" fill="#565656"/>
<path d="M258.699 168.466C264.937 168.405 271.109 167.229 277.229 166.082C279.058 165.742 278.37 162.969 276.541 163.308C270.67 164.423 264.773 165.559 258.773 165.605C256.909 165.626 256.821 168.49 258.684 168.469L258.699 168.466Z" fill="#565656"/>
<path d="M272.324 185.29C273.649 185.503 274.972 185.458 276.324 185.406C277.03 185.372 277.739 185.352 278.443 185.376C278.817 185.383 279.194 185.403 279.557 185.427C279.778 185.443 279.999 185.459 280.224 185.489C280.477 185.511 280.046 185.462 280.303 185.498C280.434 185.522 280.561 185.533 280.691 185.558C281.451 185.683 282.333 185.361 282.542 184.578C282.731 183.9 282.386 183.011 281.565 182.888C279.95 182.633 278.335 182.565 276.692 182.633C276.045 182.652 275.405 182.698 274.754 182.703C274.46 182.705 274.166 182.707 273.883 182.692C273.727 182.688 273.567 182.671 273.408 182.653C273.364 182.664 273.122 182.625 273.328 182.645C273.553 182.674 273.216 182.63 273.198 182.62C272.438 182.495 271.556 182.817 271.347 183.6C271.158 184.278 271.502 185.167 272.324 185.29Z" fill="#565656"/>
<path d="M185.867 193.115C183.731 193.901 181.569 195.007 180.276 197.022C179.358 198.442 179.16 200.293 179.756 201.913C181.114 205.644 185.13 207.8 188.685 208.459C191.206 208.923 193.803 208.789 196.205 207.874C196.929 207.598 197.448 206.92 197.236 206.065C197.057 205.343 196.205 204.679 195.482 204.955C194.554 205.312 193.584 205.556 192.598 205.678C192.309 205.719 192.482 205.691 192.556 205.688C192.439 205.702 192.32 205.7 192.189 205.717C191.967 205.726 191.759 205.731 191.537 205.74C191.062 205.749 190.593 205.726 190.116 205.673C189.887 205.652 189.654 205.617 189.421 205.581C188.987 205.518 189.577 205.605 189.312 205.562C189.202 205.542 189.093 205.523 188.98 205.488C188.538 205.396 188.104 205.27 187.665 205.129C187.291 205.004 186.912 204.864 186.544 204.705C186.513 204.698 186.123 204.513 186.41 204.645C186.325 204.604 186.258 204.574 186.173 204.532C185.967 204.427 185.762 204.322 185.553 204.202C185.22 204.004 184.883 203.791 184.575 203.571C184.429 203.466 184.284 203.362 184.149 203.239C183.964 203.097 184.401 203.473 184.127 203.213C184.049 203.139 183.953 203.053 183.875 202.979C183.623 202.744 183.377 202.477 183.16 202.203C183.095 202.125 182.813 201.71 183.031 202.047C182.931 201.884 182.821 201.74 182.731 201.559C182.652 201.422 182.591 201.296 182.526 201.156C182.49 201.071 182.451 200.971 182.415 200.886C182.426 200.93 182.516 201.236 182.454 200.986C182.418 200.838 182.364 200.68 182.327 200.532C182.29 200.385 182.279 199.918 182.287 200.37C182.278 200.216 182.27 200.061 182.276 199.903C182.271 199.826 182.327 199.389 182.284 199.635C182.24 199.881 182.328 199.452 182.352 199.367C182.376 199.283 182.403 199.214 182.427 199.129C182.519 198.777 182.309 199.315 182.441 199.063C182.524 198.917 182.59 198.76 182.687 198.61C182.729 198.537 182.784 198.46 182.826 198.387C182.892 198.292 182.871 198.329 182.756 198.467C182.802 198.409 182.847 198.351 182.892 198.292C183.14 198.027 183.584 197.587 183.72 197.474C184.392 196.93 185.669 196.296 186.572 195.96C187.296 195.685 187.815 195.007 187.603 194.152C187.424 193.429 186.586 192.762 185.848 193.041L185.867 193.115Z" fill="#565656"/>
<path d="M266.354 204.734C267.136 204.522 267.91 204.344 268.699 204.224C268.871 204.197 269.028 204.173 269.204 204.16C269.274 204.143 269.348 204.14 269.421 204.137C269.074 204.177 269.337 204.158 269.421 204.137C269.772 204.112 270.109 204.09 270.464 204.079C271.071 204.068 271.693 204.116 272.295 204.2C272.354 204.201 272.418 204.216 272.467 204.235C272.143 204.128 272.263 204.192 272.358 204.215C272.499 204.243 272.639 204.27 272.766 204.301C273.034 204.359 273.291 204.436 273.552 204.527C273.763 204.599 273.982 204.701 274.193 204.773C274.404 204.845 274.063 204.728 274.059 204.713C274.059 204.713 274.246 204.807 274.26 204.803C274.362 204.856 274.468 204.923 274.571 204.976C274.747 205.088 274.924 205.201 275.101 205.313C275.175 205.373 275.292 205.484 275.373 205.511C275.373 205.511 275.086 205.254 275.242 205.403C275.285 205.455 275.338 205.488 275.394 205.537C275.533 205.674 275.671 205.812 275.809 205.95C275.873 206.027 275.951 206.102 276.019 206.195C276.044 206.235 276.065 206.261 276.104 206.298C276.275 206.506 276.051 206.265 276.033 206.191C276.073 206.353 276.268 206.539 276.35 206.691C276.454 206.869 276.53 207.053 276.619 207.234C276.748 207.515 276.489 206.828 276.601 207.161C276.626 207.264 276.662 207.349 276.688 207.452C276.736 207.644 276.783 207.835 276.831 208.027C276.849 208.101 276.853 208.178 276.875 208.266C276.915 208.428 276.849 207.803 276.864 208.222C276.87 208.424 276.889 208.623 276.877 208.814C276.875 208.987 276.845 209.166 276.833 209.357C276.828 209.515 276.906 208.932 276.832 209.295C276.816 209.409 276.796 209.508 276.765 209.625C276.722 209.808 276.674 209.977 276.613 210.149C276.578 210.251 276.541 210.339 276.507 210.441C276.445 210.613 276.494 210.272 276.582 210.266C276.582 210.266 276.517 210.423 276.507 210.441C276.327 210.8 276.127 211.132 275.913 211.467C275.771 211.675 276.117 211.212 276.003 211.351C275.968 211.391 275.933 211.431 275.899 211.471C275.843 211.547 275.77 211.613 275.715 211.689C275.562 211.853 275.419 211.998 275.248 212.151C275.175 212.216 275.102 212.281 275.015 212.35C274.747 212.589 275.27 212.177 275.015 212.35C274.823 212.476 274.635 212.618 274.439 212.729C274.244 212.841 274.048 212.953 273.835 213.053C273.779 213.067 273.597 213.113 273.566 213.167C273.638 213.04 273.905 213.035 273.65 213.146C273.58 213.164 273.513 213.196 273.433 213.232C272.897 213.413 272.351 213.55 271.79 213.628C271.72 213.646 271.646 213.649 271.572 213.652C271.432 213.687 271.937 213.623 271.6 213.645C271.439 213.654 271.277 213.663 271.102 213.676C270.779 213.694 270.449 213.683 270.119 213.671C269.771 213.649 269.423 213.627 269.068 213.575C268.959 213.555 268.867 213.547 268.758 213.527C268.681 213.515 268.354 213.456 268.698 213.526C268.512 213.495 268.34 213.46 268.153 213.428C267.287 213.238 266.449 212.978 265.618 212.686C264.881 212.416 264.057 212.936 263.857 213.691C263.641 214.497 264.105 215.289 264.855 215.555C267.622 216.568 270.714 217.093 273.565 216.347C275.674 215.787 277.614 214.486 278.746 212.511C279.713 210.828 280.015 208.685 279.448 206.76C278.795 204.606 277.259 202.971 275.308 202.066C272.263 200.653 268.762 200.998 265.652 201.841C264.913 202.041 264.429 202.852 264.627 203.648C264.824 204.444 265.623 204.964 266.376 204.76L266.354 204.734Z" fill="#565656"/>
<path d="M220.347 229.057C217.344 233.566 215.199 238.712 213.222 243.739C210.443 250.808 208.179 258.113 206.666 265.564C204.326 277.039 202.139 294.712 213.544 302.316C218.389 305.542 225.314 306.178 230.876 304.632C235.572 303.333 239.277 300.062 241.386 295.686C243.77 290.769 244.418 285.162 244.449 279.77C244.487 273.298 243.612 266.826 242.393 260.5C240.264 249.522 237.065 238.583 232.741 228.261C232.438 227.531 232.125 226.819 231.797 226.11C231.01 224.407 228.478 225.847 229.251 227.555C233.248 236.255 235.999 245.694 238.2 254.997C240.798 265.965 243.207 278.439 240.463 289.636C239.439 293.847 237.421 298.033 233.589 300.362C229.226 303.007 223.162 303.083 218.436 301.5C205.984 297.337 207.114 280.31 208.801 270.002C209.977 262.848 211.954 255.798 214.382 248.969C216.317 243.526 218.516 238.108 221.352 233.048C221.829 232.213 222.325 231.39 222.856 230.587C223.896 229.019 221.395 227.517 220.354 229.085L220.347 229.057Z" fill="#565656"/>
<path d="M237.285 250.047C238.664 261.517 242.955 272.535 249.008 282.256C249.375 282.852 250.076 282.996 250.696 282.834C254.331 281.873 258.395 282.834 260.499 286.145C262.603 289.455 261.806 294.719 259.335 297.815C257.416 300.216 255.413 297.305 254.535 295.461C253.007 292.283 252.477 288.198 253.736 284.824C254.398 283.053 251.78 281.752 251.111 283.537C249.741 287.206 249.888 291.269 251.162 294.937C252.112 297.682 253.999 301.168 257.122 301.702C260.853 302.334 262.872 298.036 263.851 295.139C265.218 291.103 264.85 286.582 262.026 283.301C258.949 279.73 254.165 278.864 249.752 280.043L251.441 280.622C245.656 271.332 241.514 260.785 240.198 249.828C239.973 247.956 237.047 248.167 237.278 250.06L237.285 250.047Z" fill="#565656"/>
<path d="M210.17 250.362C207.017 260.736 203.227 271.028 197.715 280.416C196.754 282.039 199.194 283.584 200.163 281.948C205.808 272.345 209.71 261.791 212.948 251.172C213.494 249.359 210.724 248.537 210.17 250.362Z" fill="#565656"/>
<path d="M196.052 278.59C192.736 279.965 189.967 283.275 188.483 286.481C186.782 290.145 186.716 294.412 190.157 296.969C193.181 299.23 197.669 299.832 200.474 296.824C202.917 294.202 203.851 290.197 203.231 286.727C202.89 284.849 201.97 283.1 200.406 281.998C198.577 280.713 196.16 280.759 194.079 281.366C192.278 281.885 192.908 284.732 194.71 284.213C195.631 283.949 196.189 283.825 197.064 283.883C197.13 283.888 197.631 283.939 197.333 283.893C197.488 283.92 197.655 283.955 197.815 284.002C197.974 284.049 198.114 284.102 198.261 284.141C198.515 284.23 198.261 284.141 198.224 284.118C198.323 284.18 198.417 284.221 198.524 284.271C198.648 284.348 198.771 284.425 198.895 284.503C199.241 284.72 198.857 284.426 199.023 284.601C199.131 284.703 199.239 284.806 199.326 284.913C199.397 284.992 199.728 285.427 199.514 285.136C199.686 285.384 199.83 285.649 199.954 285.919C200.018 286.064 200.082 286.209 200.134 286.347C200.013 286.044 200.196 286.578 200.226 286.667C200.306 286.98 200.378 287.305 200.425 287.615C200.449 287.77 200.477 287.946 200.493 288.113C200.47 287.819 200.503 288.4 200.506 288.506C200.517 288.846 200.508 289.191 200.479 289.541C200.475 289.713 200.45 289.89 200.433 290.055C200.431 290.141 200.409 290.232 200.394 290.311C200.359 290.587 200.417 290.22 200.38 290.389C200.253 291.116 200.049 291.829 199.787 292.523C199.748 292.586 199.587 293.011 199.641 292.869C199.699 292.748 199.485 293.174 199.45 293.258C199.286 293.575 199.105 293.865 198.892 294.152C198.805 294.291 198.694 294.414 198.603 294.532C198.461 294.705 198.774 294.341 198.619 294.507C198.567 294.562 198.516 294.617 198.456 294.685C198.214 294.936 197.967 295.167 197.683 295.374C197.519 295.499 197.887 295.24 197.706 295.337C197.642 295.384 197.586 295.419 197.51 295.459C197.377 295.533 197.245 295.608 197.12 295.67C197.051 295.697 196.983 295.725 196.907 295.764C196.713 295.854 197.145 295.686 196.947 295.755C196.79 295.814 196.628 295.853 196.466 295.892C196.385 295.911 196.312 295.918 196.244 295.945C195.888 296.02 196.435 295.942 196.203 295.955C196.045 295.961 195.887 295.967 195.728 295.973C195.57 295.978 195.395 295.956 195.232 295.942C195.011 295.909 195.444 295.987 195.232 295.942C195.122 295.926 195.019 295.897 194.917 295.868C194.071 295.653 193.182 295.342 192.516 294.978C191.693 294.533 191.408 294.302 190.844 293.581C190.798 293.517 190.668 293.366 190.844 293.581C190.798 293.517 190.747 293.432 190.709 293.356C190.632 293.203 190.548 293.063 190.471 292.91C190.302 292.576 190.434 292.886 190.377 292.675C190.32 292.464 190.267 292.274 190.222 292.07C190.186 291.908 190.17 291.74 190.154 291.572C190.184 291.854 190.15 291.413 190.148 291.306C190.148 290.921 190.176 290.518 190.229 290.13C190.186 290.419 190.285 289.903 190.291 289.837C190.336 289.655 190.373 289.485 190.43 289.311C190.544 288.909 190.689 288.51 190.848 288.118C190.882 288.035 190.925 287.939 190.96 287.856C191.064 287.606 190.936 287.893 191.01 287.747C191.103 287.543 191.201 287.359 191.307 287.162C191.541 286.731 191.796 286.295 192.068 285.887C192.627 285.046 193.026 284.543 193.602 283.922C194.829 282.589 195.795 281.757 197.374 281.099C198.095 280.797 198.325 279.767 197.99 279.12C197.6 278.368 196.767 278.214 196.038 278.529L196.052 278.59Z" fill="#565656"/>
<path d="M212.451 300.673C211.138 313.238 212.148 325.905 210.838 338.485L213.347 337.491C208.229 333.424 198.549 327.961 192.874 334.354C189.091 338.617 191.638 344.529 197.204 345.004C202.409 345.432 207.708 342.31 211.867 339.564C213.423 338.536 212.011 335.971 210.43 337.022C207.031 339.272 203.116 341.652 198.972 342.067C197.901 342.169 196.724 342.145 195.718 341.713C195.103 341.441 194.574 340.966 194.271 340.419C193.69 339.364 193.847 337.911 194.738 336.654C195.744 335.246 197.675 334.443 199.616 334.412C203.923 334.351 207.995 336.963 211.233 339.526C212.234 340.308 213.603 339.874 213.742 338.532C215.055 325.967 214.045 313.3 215.355 300.72C215.545 298.848 212.623 298.79 212.43 300.648L212.451 300.673Z" fill="#565656"/>
<path d="M230.63 303.282C234.711 314.22 235.871 326.027 240.885 336.639C241.343 337.62 242.923 337.604 243.429 336.671C245.043 333.695 248.784 332.042 251.864 331.072C255.259 330.008 259.498 329.249 262.897 330.619C265.856 331.825 266.988 335.771 265.032 338.423C262.676 341.631 256.913 341.204 253.518 340.716C249.479 340.115 243.269 338.628 241.125 334.753C240.21 333.111 237.63 334.549 238.548 336.205C240.951 340.564 247.04 342.492 251.634 343.349C256.228 344.206 262.927 344.687 266.68 340.977C269.718 337.978 269.631 332.111 266.39 329.332C263.149 326.553 257.76 326.702 253.654 327.564C249.052 328.535 243.281 330.804 240.888 335.162L243.432 335.194C238.54 324.825 237.451 313.244 233.467 302.571C232.82 300.831 229.948 301.521 230.601 303.289L230.63 303.282Z" fill="#565656"/>
</svg>
