<svg width="19" height="20" viewBox="0 0 19 20" fill="none" xmlns="http://www.w3.org/2000/svg">
<g clip-path="url(#clip0_220_4455)">
<path d="M5.93752 1.68749H1.18749V6.43748H5.93748V1.68749H5.93752ZM7.125 0.5V7.625H0V0.5H7.125ZM2.37501 2.87501H4.75003V5.25003H2.37501V2.87501ZM17.8125 1.68749H13.0625V6.43748H17.8125V1.68749ZM19 0.5V7.625H11.875V0.5H19ZM14.25 2.87501H16.625V5.25003H14.25V2.87501ZM5.93752 13.5625H1.18749V18.3125H5.93748V13.5625H5.93752ZM7.125 12.375V19.5H0V12.375H7.125ZM2.37501 14.75H4.75003V17.125H2.37501V14.75ZM8.31249 0.5H9.49998V1.68749H8.31249V0.5ZM9.50002 1.68749H10.6875V2.87498H9.50002V1.68749ZM8.31249 2.87501H9.49998V4.0625H8.31249V2.87501ZM9.50002 4.0625H10.6875V5.24999H9.50002V4.0625ZM8.31249 5.24999H9.49998V6.43748H8.31249V5.24999ZM9.50002 6.43752H10.6875V7.625H9.50002V6.43752ZM8.31249 7.625H9.49998V8.81249H8.31249V7.625ZM8.31249 10H9.49998V11.1875H8.31249V10ZM9.50002 11.1875H10.6875V12.375H9.50002V11.1875ZM8.31249 12.375H9.49998V13.5625H8.31249V12.375ZM9.50002 13.5625H10.6875V14.75H9.50002V13.5625ZM8.31249 14.75H9.49998V15.9375H8.31249V14.75ZM9.50002 15.9375H10.6875V17.125H9.50002V15.9375ZM8.31249 17.125H9.49998V18.3125H8.31249V17.125ZM9.50002 18.3125H10.6875V19.5H9.50002V18.3125ZM17.8125 10H19V11.1875H17.8125V10ZM1.18749 10H2.37498V11.1875H1.18749V10ZM2.37501 8.81249H3.5625V9.99998H2.37501V8.81249ZM0 8.81249H1.18749V9.99998H0V8.81249ZM4.74999 8.81249H5.93748V9.99998H4.74999V8.81249ZM5.93752 10H7.125V11.1875H5.93752V10ZM7.125 8.81249H8.31249V9.99998H7.125V8.81249ZM10.6875 10H11.875V11.1875H10.6875V10ZM11.875 8.81249H13.0625V9.99998H11.875V8.81249ZM13.0625 10H14.25V11.1875H13.0625V10ZM14.25 8.81249H15.4375V9.99998H14.25V8.81249ZM15.4375 10H16.625V11.1875H15.4375V10ZM16.625 8.81249H17.8125V9.99998H16.625V8.81249ZM17.8125 12.375H19V13.5625H17.8125V12.375ZM10.6875 12.375H11.875V13.5625H10.6875V12.375ZM11.875 11.1875H13.0625V12.375H11.875V11.1875ZM13.0625 12.375H14.25V13.5625H13.0625V12.375ZM15.4375 12.375H16.625V13.5625H15.4375V12.375ZM16.625 11.1875H17.8125V12.375H16.625V11.1875ZM17.8125 14.75H19V15.9375H17.8125V14.75ZM10.6875 14.75H11.875V15.9375H10.6875V14.75ZM11.875 13.5625H13.0625V14.75H11.875V13.5625ZM14.25 13.5625H15.4375V14.75H14.25V13.5625ZM15.4375 14.75H16.625V15.9375H15.4375V14.75ZM16.625 13.5625H17.8125V14.75H16.625V13.5625ZM17.8125 17.125H19V18.3125H17.8125V17.125ZM11.875 15.9375H13.0625V17.125H11.875V15.9375ZM13.0625 17.125H14.25V18.3125H13.0625V17.125ZM14.25 15.9375H15.4375V17.125H14.25V15.9375ZM15.4375 17.125H16.625V18.3125H15.4375V17.125ZM11.875 18.3125H13.0625V19.5H11.875V18.3125ZM14.25 18.3125H15.4375V19.5H14.25V18.3125ZM16.625 18.3125H17.8125V19.5H16.625V18.3125Z" fill="black"/>
</g>
<defs>
<clipPath id="clip0_220_4455">
<rect width="19" height="19" fill="white" transform="translate(0 0.5)"/>
</clipPath>
</defs>
</svg>
