<svg width="73" height="20" viewBox="0 0 73 20" fill="none" xmlns="http://www.w3.org/2000/svg">
<g clip-path="url(#clip0_178_1505)">
<path d="M6.49979 15.6238C9.56089 15.668 12.0778 13.1511 12.1227 10.0011C12.0778 6.85115 9.56089 4.33425 6.49979 4.3785C3.43682 4.33425 0.919879 6.85115 0.875 10.0011C0.919879 13.1511 3.43682 15.668 6.49979 15.6238Z" fill="#FFC800"/>
<path d="M8.92027 14.1908C7.01105 15.2933 4.93915 15.4896 3.61523 14.8296C5.37485 15.8745 7.53838 15.8918 9.31295 14.8719C11.0651 13.879 12.1459 11.976 12.1254 9.91895C12.0356 11.3929 10.8295 13.0882 8.92027 14.1908Z" fill="black"/>
<path d="M7.2127 4.79064C7.59978 5.46028 6.66481 6.72643 5.12211 7.61543C3.5794 8.50635 2.01613 8.68338 1.62905 8.01182C1.61222 7.97911 1.59726 7.94447 1.58604 7.90984C1.51311 7.49997 1.62718 7.08049 1.89458 6.76876C1.94133 6.70141 1.98995 6.63599 2.03857 6.57249C2.49109 5.9856 3.05021 5.49491 3.68599 5.13123C4.32551 4.76178 5.03048 4.52125 5.75789 4.42504C5.84016 4.41349 5.92057 4.40387 5.99911 4.3981C6.40489 4.32305 6.82188 4.43273 7.14164 4.7002C7.16969 4.72907 7.19213 4.75985 7.2127 4.79064Z" fill="black"/>
<path d="M9.60403 5.51627C10.2809 6.68621 8.91589 8.73938 6.55789 10.0998C4.19989 11.4603 1.73904 11.6161 1.06399 10.4462C0.951795 10.2499 0.888217 10.0286 0.878868 9.79963C0.848949 10.604 0.992934 11.4045 1.29961 12.1453C1.34635 12.2588 1.39871 12.3704 1.45294 12.482L1.46042 12.4955C1.67172 12.8515 1.97652 13.1401 2.34116 13.3248C3.66508 14.033 5.90154 13.7905 7.99401 12.5821C10.0827 11.3756 11.4123 9.56103 11.4628 8.06205C11.4833 7.65218 11.3861 7.24424 11.186 6.88826C11.1093 6.7728 11.0308 6.6612 10.9466 6.55536C10.4567 5.92421 9.84338 5.40852 9.14776 5.03906C9.33288 5.15837 9.48996 5.32193 9.60403 5.51627Z" fill="black"/>
</g>
<g clip-path="url(#clip1_178_1505)">
<path d="M29.0535 7.94567C29.7159 7.27231 30.1248 6.33816 30.1243 5.31687V4.59607C30.1243 4.14364 29.7576 3.77687 29.3052 3.77687C28.8519 3.77687 28.4855 4.14364 28.4855 4.59607V5.31687C28.4853 5.89976 28.2551 6.41828 27.8841 6.79699C27.5118 7.17465 27.0108 7.40253 26.4508 7.40277C25.8905 7.40253 25.3901 7.17465 25.0172 6.79699C24.6467 6.41828 24.4163 5.89976 24.4163 5.31687V4.59607C24.4163 4.14364 24.0494 3.77687 23.597 3.77687C23.1445 3.77687 22.7773 4.14364 22.7773 4.59607V5.31687C22.7771 6.33816 23.1859 7.27231 23.8481 7.94567C24.3256 8.43324 24.9423 8.78868 25.6312 8.94838V10.6731C24.9423 10.8327 24.3256 11.1885 23.8481 11.6763C23.1859 12.3497 22.7771 13.2832 22.7773 14.3052V15.0257C22.7773 15.4778 23.1445 15.8447 23.597 15.8447C24.0494 15.8447 24.4163 15.4778 24.4163 15.0257V14.3052C24.4163 13.7222 24.6467 13.2031 25.0172 12.8247C25.3901 12.447 25.8905 12.2192 26.4508 12.2187C27.0108 12.2192 27.5118 12.447 27.8841 12.8247C28.2551 13.2031 28.4853 13.7222 28.4855 14.3052V15.0257C28.4855 15.4778 28.8519 15.8447 29.3052 15.8447C29.7576 15.8447 30.1243 15.4778 30.1243 15.0257V14.3052C30.1248 13.2832 29.7159 12.3497 29.0535 11.6763C28.576 11.1885 27.9593 10.8327 27.2704 10.6731V8.94838C27.9593 8.78868 28.576 8.43324 29.0535 7.94567Z" fill="#47C4F3"/>
<path d="M26.4501 15.6719C27.2338 15.6719 27.869 15.0373 27.869 14.2533C27.869 13.4694 27.2338 12.8342 26.4501 12.8342C25.6665 12.8342 25.0312 13.4694 25.0312 14.2533C25.0312 15.0373 25.6665 15.6719 26.4501 15.6719Z" fill="#47C4F3"/>
</g>
<g clip-path="url(#clip2_178_1505)">
<mask id="mask0_178_1505" style="mask-type:luminance" maskUnits="userSpaceOnUse" x="40" y="4" width="13" height="12">
<path d="M52.5 4H40.5V16H52.5V4Z" fill="white"/>
</mask>
<g mask="url(#mask0_178_1505)">
<path d="M52.5 4H40.5V16H52.5V4Z" fill="#E40523"/>
<path d="M44.1501 4.92285L43.2681 6.75446L42.3862 4.92285H41.4238V7.69143H42.0983V5.71025L42.9605 7.38381H43.5758L44.4379 5.71025V7.69143H45.1139V4.92285H44.1501Z" fill="white"/>
<path d="M48.4961 4.92285V5.47459H49.7012L49.6984 7.69143H50.3729L50.3757 5.47459H51.5822V4.92285H48.4961Z" fill="white"/>
<path d="M50.9063 14.153C50.8893 14.2631 50.8456 14.3534 50.7736 14.4226C50.7059 14.4875 50.6156 14.5326 50.5027 14.5594C50.3912 14.5848 50.2289 14.6004 50.0554 14.6004C49.8818 14.6004 49.7181 14.5778 49.5841 14.5312C49.4542 14.4875 49.3512 14.4099 49.2793 14.3012C49.2059 14.1925 49.1692 14.0345 49.1692 13.8341V13.5505C49.1692 13.3487 49.2059 13.1921 49.2793 13.0834C49.3512 12.9748 49.4542 12.8986 49.5841 12.8534C49.7181 12.8083 49.8762 12.7843 50.0554 12.7843C50.2346 12.7843 50.3912 12.7984 50.5027 12.8252C50.6156 12.8506 50.7059 12.8972 50.7736 12.9621C50.8442 13.0312 50.8893 13.1215 50.9063 13.2316H51.5822C51.5638 13.003 51.4862 12.8083 51.3508 12.653C51.2266 12.5105 51.0558 12.4061 50.8428 12.3426C50.6353 12.2805 50.3644 12.248 50.0568 12.248C49.7336 12.248 49.4528 12.2946 49.2214 12.3863C48.9872 12.4795 48.8065 12.6347 48.6824 12.8478C48.5624 13.0524 48.5003 13.3247 48.4961 13.6591V13.6902L48.5328 13.6916L48.4961 13.693V13.7241C48.5003 14.0585 48.5624 14.3308 48.6824 14.5354C48.8065 14.7485 48.9886 14.9037 49.2214 14.9969C49.4514 15.0886 49.7322 15.1352 50.0568 15.1352C50.3813 15.1352 50.6367 15.1027 50.8428 15.0406C51.0558 14.9771 51.2266 14.8727 51.3508 14.7302C51.4862 14.575 51.5638 14.3802 51.5822 14.1516L50.9063 14.153Z" fill="white"/>
</g>
</g>
<g clip-path="url(#clip3_178_1505)">
<path d="M67.1464 4.19727V10.1897C67.1464 10.4636 66.9389 10.669 66.6623 10.669H65.9363C65.9018 10.669 65.8672 10.7033 65.8672 10.7375V15.7711C66.04 15.7711 66.2129 15.8054 66.4203 15.8054C69.6701 15.8054 72.2976 13.203 72.2976 9.9842C72.2976 7.00513 70.0504 4.53969 67.1464 4.19727ZM67.0081 13.1687C66.5932 13.1687 66.2821 12.8263 66.2821 12.4496C66.2821 12.0387 66.6278 11.7306 67.0081 11.7306C67.4229 11.7306 67.7341 12.073 67.7341 12.4496C67.7687 12.8263 67.4229 13.1687 67.0081 13.1687ZM68.7367 13.1687C68.3218 13.1687 68.0107 12.8263 68.0107 12.4496C68.0107 12.0387 68.3564 11.7306 68.7367 11.7306C69.1516 11.7306 69.4627 12.073 69.4627 12.4496C69.4627 12.8263 69.1516 13.1687 68.7367 13.1687ZM70.4653 13.1687C70.0504 13.1687 69.7393 12.8263 69.7393 12.4496C69.7393 12.0387 70.085 11.7306 70.4653 11.7306C70.8802 11.7306 71.1913 12.073 71.1913 12.4496C71.1913 12.8263 70.8802 13.1687 70.4653 13.1687Z" fill="#00985F" stroke="black" stroke-width="0.344069"/>
<path d="M66.639 4.16309C63.3892 4.16309 60.7617 6.7655 60.7617 9.98427C60.7617 12.7921 62.7323 15.1206 65.3944 15.6685V10.4294C65.3944 10.1897 65.6018 9.98427 65.8438 9.95002H66.0858H66.5699C66.6044 9.95002 66.639 9.91578 66.639 9.88154V4.16309ZM65.4981 8.957C65.0833 8.957 64.7721 8.61458 64.7721 8.23791C64.7721 7.82701 65.1178 7.51882 65.4981 7.51882C65.913 7.51882 66.2241 7.86125 66.2241 8.23791C66.2241 8.61458 65.913 8.957 65.4981 8.957Z" fill="#00985F" stroke="black" stroke-width="0.344069"/>
</g>
<defs>
<clipPath id="clip0_178_1505">
<rect width="12" height="12" fill="white" transform="translate(0.5 4)"/>
</clipPath>
<clipPath id="clip1_178_1505">
<rect width="12" height="12" fill="white" transform="translate(20.5 4)"/>
</clipPath>
<clipPath id="clip2_178_1505">
<rect width="12" height="12" fill="white" transform="translate(40.5 4)"/>
</clipPath>
<clipPath id="clip3_178_1505">
<rect width="12" height="12" fill="white" transform="translate(60.5 4)"/>
</clipPath>
</defs>
</svg>
