<svg width="117" height="20" viewBox="0 0 117 20" fill="none" xmlns="http://www.w3.org/2000/svg">
<g clip-path="url(#clip0_178_1468)">
<path d="M15.6274 4.06543L13.7762 15.9351H16.7306L18.5818 4.06543C18.5945 4.06543 15.6274 4.06543 15.6274 4.06543ZM24.5794 8.89931C23.5397 8.37813 22.9057 8.01331 22.9057 7.47911C22.9184 6.984 23.4383 6.48888 24.6175 6.48888C25.5812 6.46282 26.2912 6.69735 26.8238 6.93188L27.0901 7.04914L27.4958 4.56054C26.9126 4.32602 25.9742 4.06543 24.833 4.06543C21.904 4.06543 19.8372 5.62895 19.8245 7.86999C19.7991 9.52471 21.308 10.4368 22.4239 10.984C23.5777 11.5443 23.9581 11.9091 23.9581 12.4172C23.9455 13.186 23.0325 13.5377 22.1703 13.5377C20.991 13.5377 20.3444 13.3553 19.3807 12.9254L18.9876 12.743L18.5692 15.3228C19.2666 15.6355 20.5472 15.9221 21.8786 15.9351C24.9979 15.9351 27.014 14.3977 27.0394 12.0003C27.0774 10.7234 26.2912 9.72015 24.5794 8.89931ZM35.1038 4.09149H32.8087C32.0986 4.09149 31.5661 4.29996 31.2618 5.04263L26.8492 15.9221H29.9684L30.8306 13.5638H34.3176L34.7614 15.9351H37.513L35.1038 4.09149ZM31.6802 11.2055C31.7436 11.2055 32.8721 7.36185 32.8721 7.36185L33.7724 11.2055C33.7851 11.2055 32.2635 11.2055 31.6802 11.2055ZM11.2909 4.06543L8.37451 12.1306L8.05751 10.541C7.52496 8.70387 5.83853 6.71038 3.94922 5.72015L6.612 15.9221H9.75662L14.4228 4.06543H11.2909Z" fill="#2394BC"/>
<path d="M7.08088 5.58986C6.85264 4.69084 6.12988 4.07846 5.15353 4.06543H0.55072L0.5 4.28693C4.08842 5.19898 7.10624 8.00028 8.08259 10.6322L7.08088 5.58986Z" fill="#EFC75E"/>
</g>
<g clip-path="url(#clip1_178_1468)">
<path d="M51.6684 16C55.0751 16 57.8367 13.3137 57.8367 10C57.8367 6.68629 55.0751 4 51.6684 4C48.2617 4 45.5 6.68629 45.5 10C45.5 13.3137 48.2617 16 51.6684 16Z" fill="#EE0005"/>
<path d="M59.3324 16C62.7391 16 65.5008 13.3137 65.5008 10C65.5008 6.68629 62.7391 4 59.3324 4C55.9257 4 53.1641 6.68629 53.1641 10C53.1641 13.3137 55.9257 16 59.3324 16Z" fill="#F69E1E"/>
<path d="M53.166 10.0017C53.1653 10.9062 53.3752 11.7991 53.78 12.6135C54.1848 13.4278 54.7739 14.1424 55.5032 14.7036C56.2315 14.1416 56.8198 13.4268 57.2242 12.6126C57.6286 11.7984 57.8386 10.9059 57.8386 10.0017C57.8386 9.09746 57.6286 8.20492 57.2242 7.39074C56.8198 6.57656 56.2315 5.86179 55.5032 5.2998C54.7739 5.861 54.1848 6.57558 53.78 7.3899C53.3752 8.20423 53.1653 9.09716 53.166 10.0017Z" fill="#F26122"/>
</g>
<g clip-path="url(#clip2_178_1468)">
<path fill-rule="evenodd" clip-rule="evenodd" d="M85.0871 4V4.00524C85.0818 4.00524 83.4075 4 82.9611 5.57729C82.5518 7.02358 81.3984 11.0166 81.3665 11.1266H81.0476C81.0476 11.1266 79.8676 7.04454 79.453 5.57205C79.0066 3.99476 77.3269 4 77.3269 4H73.5V16H77.3269V8.87336H77.4864H77.6459L79.8782 16H82.5358L84.7682 8.8786H85.0871V16H88.9141V4H85.0871Z" fill="#4DB45E"/>
<path fill-rule="evenodd" clip-rule="evenodd" d="M99.0668 4C99.0668 4 97.9453 4.09956 97.4191 5.25764L94.7084 11.1266H94.3894V4H90.5625V16H94.1768C94.1768 16 95.3515 15.8952 95.8777 14.7424L98.5353 8.87336H98.8542V16H102.681V4H99.0668Z" fill="#4DB45E"/>
<path fill-rule="evenodd" clip-rule="evenodd" d="M104.381 9.4502V16.0004H108.208V12.1751H112.354C114.161 12.1751 115.692 11.038 116.26 9.4502H104.381Z" fill="#4DB45E"/>
<path fill-rule="evenodd" clip-rule="evenodd" d="M112.353 4H103.844C104.269 6.28472 106.007 8.11878 108.255 8.71616C108.766 8.8524 109.302 8.92576 109.855 8.92576H116.414C116.473 8.65328 116.499 8.37555 116.499 8.08734C116.499 5.82882 114.644 4 112.353 4Z" fill="url(#paint0_linear_178_1468)"/>
</g>
<defs>
<linearGradient id="paint0_linear_178_1468" x1="103.845" y1="6.46288" x2="116.499" y2="6.46288" gradientUnits="userSpaceOnUse">
<stop offset="0.3" stop-color="#00B4E6"/>
<stop offset="1" stop-color="#088CCB"/>
</linearGradient>
<clipPath id="clip0_178_1468">
<rect width="37" height="12" fill="white" transform="translate(0.5 4)"/>
</clipPath>
<clipPath id="clip1_178_1468">
<rect width="20" height="12" fill="white" transform="translate(45.5 4)"/>
</clipPath>
<clipPath id="clip2_178_1468">
<rect width="43" height="12" fill="white" transform="translate(73.5 4)"/>
</clipPath>
</defs>
</svg>
