<svg width="37" height="20" viewBox="0 0 37 20" fill="none" xmlns="http://www.w3.org/2000/svg">
<g clip-path="url(#clip0_178_1492)">
<path d="M31.0232 7.56742V12.4694H32.7466V9.01142H34.3934V12.4694H36.0785V7.56742H31.0232ZM27.8061 7.30142H29.3763L30.1806 5.85742H27.6529C25.8146 5.89542 24.5891 7.45342 24.5891 9.39142C24.5891 11.6714 25.8912 12.5834 27.4615 12.5834C29.07 12.5834 30.2572 11.5574 30.2189 10.1514C30.1806 9.04942 29.2615 7.98542 28.0359 7.98542C27.3466 7.98542 26.6955 8.21342 26.2742 8.63142C26.3125 7.83342 27.0019 7.30142 27.8061 7.30142ZM27.3849 9.23942C27.9976 9.23942 28.4189 9.73342 28.4189 10.3034C28.4189 10.8734 27.9593 11.3294 27.3466 11.3294C26.887 11.3294 26.3508 10.9114 26.3508 10.3034C26.3508 9.73342 26.8104 9.23942 27.3849 9.23942ZM21.87 8.85942C22.5976 8.82142 23.2104 9.23942 23.2104 9.23942L23.8615 8.09942C23.287 7.68142 22.7125 7.45342 21.9466 7.45342C20.2615 7.45342 19.0742 8.82142 19.0742 9.99942C19.0742 11.4054 20.338 12.5834 21.9083 12.5834C22.5976 12.5834 23.287 12.3554 23.8232 11.9374L23.2104 10.7594C23.2104 10.7594 22.6359 11.1394 21.87 11.1394C21.3721 11.1394 20.721 10.7214 20.721 9.99942C20.721 9.27742 21.3721 8.85942 21.87 8.85942Z" fill="#1B0A40"/>
<path d="M5.47864 10L2.98928 11.444L0.691406 15.434L10.151 10H5.47864Z" fill="#874691"/>
<path d="M12.64 5.89648L10.1506 7.34048L7.81445 11.3305L17.274 5.89648H12.64Z" fill="#DA1844"/>
<path d="M10.1506 4.49L7.81445 0.5V19.5L10.1506 15.51V4.49Z" fill="#F9B229"/>
<path d="M7.81445 0.5L10.1506 4.49L12.64 5.896H17.3123L7.81445 0.5Z" fill="#F07F1A"/>
<path d="M7.81445 8.66992V19.4999L10.1506 15.5099V12.6599L7.81445 8.66992Z" fill="#72B22C"/>
<path d="M12.64 14.1035L10.1506 15.5095L7.81445 19.4995L17.274 14.1035H12.64Z" fill="#00743E"/>
<path d="M0.691406 4.60352V15.4335L3.02758 11.4435V8.55552L0.691406 4.60352Z" fill="#5F5A94"/>
<path d="M7.81481 8.66952L0.691406 4.60352L3.02758 8.55552L12.6403 14.1035H17.3127L7.81481 8.66952Z" fill="#0D90CD"/>
</g>
<defs>
<clipPath id="clip0_178_1492">
<rect width="36" height="19" fill="white" transform="translate(0.5 0.5)"/>
</clipPath>
</defs>
</svg>
