<svg width="39" height="16" viewBox="0 0 39 16" fill="none" xmlns="http://www.w3.org/2000/svg">
<path d="M15.7435 8.00017C15.7435 12.1676 12.3947 15.5164 8.22722 15.5164C4.05977 15.5164 0.710938 12.1676 0.710938 8.00017C0.710938 3.83272 4.05977 0.483887 8.22722 0.483887C12.3947 0.483887 15.7435 3.83272 15.7435 8.00017Z" fill="#FF3815"/>
<path fill-rule="evenodd" clip-rule="evenodd" d="M6.99613 3.46037C7.59148 3.23712 8.26125 3.12549 9.04264 3.12549H10.8659V12.7255H9.15427V9.41386H8.11241L6.66125 12.7255H4.80078L6.4752 9.00456C6.14032 8.81851 5.87985 8.59526 5.6566 8.33479C5.43334 8.07433 5.2845 7.77665 5.17287 7.44177C5.06125 7.10688 5.02404 6.772 5.02404 6.3627V6.25107C5.02404 5.50688 5.21008 4.91153 5.58218 4.46502C5.91706 3.9813 6.36357 3.68363 6.99613 3.46037ZM7.6659 7.85107C7.96357 7.9627 8.29846 7.99991 8.67055 7.99991H9.11706V4.46502H8.63334C8.0752 4.46502 7.59148 4.61386 7.21939 4.87433C6.84729 5.13479 6.66125 5.54409 6.66125 6.21386V6.25107C6.66125 6.69758 6.77287 7.03247 6.92171 7.29293C7.14497 7.5534 7.40543 7.73944 7.6659 7.85107Z" fill="white"/>
<path d="M19.3125 4.16748H21.7683C22.6985 4.16748 23.4427 4.35353 23.9637 4.72562C24.4846 5.09771 24.7451 5.69306 24.7451 6.51167C24.7451 6.95818 24.6706 7.33027 24.5218 7.62795C24.373 7.96283 24.1869 8.22329 23.9265 8.40934C23.666 8.59539 23.3311 8.74422 22.9962 8.85585C22.6241 8.96748 22.2148 9.00469 21.7683 9.00469H20.8009V11.6093H19.3125V4.16748ZM20.8009 5.39539V7.77678H21.7683C22.252 7.77678 22.6241 7.70236 22.8846 7.51632C23.1451 7.33027 23.2939 6.99539 23.2939 6.54888C23.2939 6.13957 23.1823 5.87911 22.9218 5.69306C22.6613 5.50702 22.2892 5.39539 21.8055 5.39539H20.8009Z" fill="black"/>
<path d="M27.462 4.16748H29.248L31.8527 11.6093H30.3643L29.7317 9.78608H26.755L26.1224 11.6093H24.8945L27.462 4.16748ZM29.3224 8.55818L28.2434 5.46981L27.1643 8.55818H29.3224Z" fill="black"/>
<path d="M35.5377 8.44665V11.5722H34.0494V8.44665L31.668 4.13037H33.3052L34.9052 7.14432L36.5796 4.13037H37.9563L35.5377 8.44665Z" fill="black"/>
</svg>
