<svg width="50" height="50" viewBox="0 0 50 50" fill="none" xmlns="http://www.w3.org/2000/svg">
<path d="M50 25C50 38.8071 38.8071 50 25 50C11.1929 50 0 38.8071 0 25C0 11.1929 11.1929 0 25 0C38.8071 0 50 11.1929 50 25Z" fill="#73B064"/>
<path d="M13.4386 14.0244C12.9471 14.0244 12.4757 14.2388 12.1282 14.6204C11.7806 15.002 11.5854 15.5196 11.5854 16.0593C11.5854 16.599 11.7806 17.1165 12.1282 17.4982C12.4757 17.8798 12.9471 18.0942 13.4386 18.0942L35.3136 18.0941C35.8051 18.0941 36.2764 17.8797 36.624 17.4981C36.9715 17.1165 37.1668 16.5989 37.1668 16.0593C37.1668 15.5196 36.9715 15.002 36.624 14.6204C36.2764 14.2388 35.8051 14.0244 35.3136 14.0244L13.4386 14.0244Z" fill="white"/>
<path d="M13.4386 22.1639C12.9471 22.1639 12.4757 22.3783 12.1282 22.7599C11.7806 23.1416 11.5854 23.6591 11.5854 24.1988C11.5854 24.7385 11.7806 25.2561 12.1282 25.6377C12.4757 26.0193 12.9471 26.2337 13.4386 26.2337L35.3136 26.2337C35.8051 26.2337 36.2764 26.0193 36.624 25.6377C36.9715 25.2561 37.1668 24.7385 37.1668 24.1988C37.1668 23.6591 36.9715 23.1415 36.624 22.7599C36.2764 22.3783 35.8051 22.1639 35.3136 22.1639L13.4386 22.1639Z" fill="white"/>
<path d="M13.4386 30.3035C12.9471 30.3035 12.4757 30.5179 12.1282 30.8995C11.7806 31.2811 11.5854 31.7987 11.5854 32.3384C11.5854 32.878 11.7806 33.3956 12.1282 33.7772C12.4757 34.1588 12.9471 34.3732 13.4386 34.3732L35.3136 34.3732C35.8051 34.3732 36.2764 34.1588 36.624 33.7772C36.9715 33.3956 37.1668 32.878 37.1668 32.3383C37.1668 31.7987 36.9715 31.2811 36.624 30.8995C36.2764 30.5178 35.8051 30.3035 35.3136 30.3035L13.4386 30.3035Z" fill="white"/>
</svg>
