<svg width="28" height="28" viewBox="0 0 28 28" fill="none" xmlns="http://www.w3.org/2000/svg">
<path fill-rule="evenodd" clip-rule="evenodd" d="M0.288782 0.288782C0.673823 -0.0962603 1.2981 -0.0962607 1.68314 0.288782L14 12.6056L26.3169 0.288782C26.7019 -0.0962603 27.3262 -0.0962603 27.7112 0.288782C28.0963 0.673823 28.0963 1.2981 27.7112 1.68314L15.3944 14L27.7112 26.3169C28.0963 26.7019 28.0963 27.3262 27.7112 27.7112C27.3262 28.0963 26.7019 28.0963 26.3169 27.7112L14 15.3944L1.68314 27.7112C1.2981 28.0963 0.673823 28.0963 0.288782 27.7112C-0.0962603 27.3262 -0.0962607 26.7019 0.288782 26.3169L12.6056 14L0.288782 1.68314C-0.0962607 1.2981 -0.0962603 0.673823 0.288782 0.288782Z" fill="#414141"/>
</svg>
