<svg width="86" height="86" viewBox="0 0 86 86" fill="none" xmlns="http://www.w3.org/2000/svg">
<path d="M86 43C86 66.7482 66.7482 86 43 86C19.2518 86 0 66.7482 0 43C0 19.2518 19.2518 0 43 0C66.7482 0 86 19.2518 86 43Z" fill="#73B064"/>
<path d="M24.1143 25.2025C23.269 25.2025 22.4582 25.5713 21.8604 26.2276C21.2627 26.884 20.9268 27.7742 20.9268 28.7025C20.9268 29.6307 21.2627 30.521 21.8604 31.1774C22.4582 31.8337 23.269 32.2025 24.1143 32.2025L61.7393 32.2024C62.5847 32.2024 63.3955 31.8337 63.9932 31.1773C64.591 30.5209 64.9268 29.6307 64.9268 28.7025C64.9268 27.7742 64.591 26.884 63.9932 26.2276C63.3955 25.5712 62.5847 25.2025 61.7393 25.2025L24.1143 25.2025Z" fill="white"/>
<path d="M24.1143 39.2025C23.269 39.2025 22.4582 39.5713 21.8604 40.2276C21.2627 40.884 20.9268 41.7742 20.9268 42.7025C20.9268 43.6307 21.2627 44.521 21.8604 45.1774C22.4582 45.8337 23.269 46.2025 24.1143 46.2025L61.7393 46.2024C62.5847 46.2024 63.3955 45.8337 63.9932 45.1773C64.591 44.5209 64.9268 43.6307 64.9268 42.7025C64.9268 41.7742 64.591 40.884 63.9932 40.2276C63.3955 39.5712 62.5847 39.2025 61.7393 39.2025L24.1143 39.2025Z" fill="white"/>
<path d="M24.1143 53.2025C23.269 53.2025 22.4582 53.5713 21.8604 54.2276C21.2627 54.884 20.9268 55.7742 20.9268 56.7025C20.9268 57.6307 21.2627 58.521 21.8604 59.1774C22.4582 59.8337 23.269 60.2025 24.1143 60.2025L61.7393 60.2024C62.5847 60.2024 63.3955 59.8337 63.9932 59.1773C64.591 58.5209 64.9268 57.6307 64.9268 56.7025C64.9268 55.7742 64.591 54.884 63.9932 54.2276C63.3955 53.5712 62.5847 53.2025 61.7393 53.2025L24.1143 53.2025Z" fill="white"/>
</svg>
