<svg width="50" height="50" viewBox="0 0 50 50" fill="none" xmlns="http://www.w3.org/2000/svg">
<path fill-rule="evenodd" clip-rule="evenodd" d="M25 50C38.8071 50 50 38.8071 50 25C50 11.1929 38.8071 0 25 0C11.1929 0 0 11.1929 0 25C0 38.8071 11.1929 50 25 50ZM38.563 23.7065L26.9216 12.0651C26.2072 11.3507 25.049 11.3507 24.3346 12.0651C23.6202 12.7795 23.6202 13.9377 24.3346 14.6521L32.8532 23.1707H12.1951C11.1848 23.1707 10.3659 23.9897 10.3659 25C10.3659 26.0103 11.1848 26.8293 12.1951 26.8293H32.8532L24.3346 35.3479C23.6202 36.0623 23.6202 37.2205 24.3346 37.9349C25.049 38.6493 26.2072 38.6493 26.9216 37.9349L38.563 26.2935C39.2773 25.5791 39.2773 24.4209 38.563 23.7065Z" fill="#4DB45E"/>
</svg>
