<svg width="180" height="179" viewBox="0 0 180 179" fill="none" xmlns="http://www.w3.org/2000/svg">
<path d="M95.8902 109.465C109.234 107.75 120.332 97.3263 123.491 83.9488C123.882 82.2121 124.168 80.4511 124.286 78.6722C125.204 65.0886 117.863 52.2038 105.668 46.5857C93.4726 40.9676 78.6969 43.9506 69.2738 53.9305C59.8506 63.9103 57.3857 79.3477 63.3763 91.6612C69.3596 103.963 82.4847 111.186 95.8902 109.465Z" fill="#F9F07C"/>
<path fill-rule="evenodd" clip-rule="evenodd" d="M125.387 84.3864C128.594 70.1895 122.884 55.2627 111.081 47.3371C99.2771 39.4115 83.0691 40.0813 71.6941 49.0811C60.3192 58.0809 55.3751 73.8179 59.7467 87.7714C64.1184 101.725 76.7645 111.329 91.0054 111.711C105.027 112.083 118.438 103.086 123.735 89.6624C124.415 87.9405 124.961 86.1877 125.387 84.3864ZM95.8902 109.465C109.234 107.75 120.332 97.3263 123.491 83.9488C123.882 82.2121 124.168 80.4511 124.286 78.6722C125.204 65.0886 117.863 52.2038 105.668 46.5857C93.4726 40.9676 78.6969 43.9506 69.2738 53.9305C59.8506 63.9103 57.3857 79.3477 63.3763 91.6612C69.3596 103.963 82.4847 111.186 95.8902 109.465Z" fill="#565656"/>
<path d="M80.2588 66.5045C80.3094 66.2849 80.3626 66.0544 80.4028 65.8325C80.4477 65.5422 80.4951 65.241 80.4639 64.9447C80.4468 64.7789 80.4242 64.5887 80.3626 64.4241C80.2527 64.1328 80.1729 63.9988 79.9821 63.7698C79.8683 63.6394 79.7258 63.5372 79.5808 63.4459C79.5043 63.3935 79.4097 63.3717 79.3281 63.3413C79.236 63.3085 79.1465 63.2647 79.0413 63.2404C78.7785 63.1797 78.4668 63.2349 78.232 63.3888C77.9971 63.5427 77.8026 63.81 77.7497 64.0869C77.6969 64.3637 77.723 64.6819 77.8772 64.9256C78.0313 65.1693 78.2557 65.3483 78.5396 65.4138C78.5921 65.426 78.6447 65.4381 78.6973 65.4503L78.4341 65.3433C78.4972 65.3578 78.5552 65.3943 78.6106 65.4418L78.3837 65.2738C78.4312 65.3079 78.4761 65.353 78.5106 65.3956L78.3383 65.1824C78.3383 65.1824 78.3967 65.2652 78.4181 65.3164L78.3111 65.0605C78.3379 65.1361 78.3648 65.2116 78.3811 65.2848L78.3368 64.9971C78.359 65.1409 78.3576 65.2909 78.3377 65.4251L78.3615 65.1299C78.3272 65.4226 78.2587 65.719 78.1928 66.0044C78.1269 66.2898 78.1767 66.6019 78.3203 66.8432C78.4639 67.0845 78.7173 67.2817 78.9827 67.3314C79.248 67.3811 79.5547 67.3478 79.7921 67.183C80.0295 67.0181 80.2059 66.7814 80.2743 66.485L80.2588 66.5045Z" fill="#565656"/>
<path d="M104.916 71.9121C105.134 72.2614 105.395 72.5747 105.683 72.8711C105.86 73.05 106.051 73.2204 106.201 73.4161L106.02 73.202C106.082 73.2851 106.143 73.3683 106.188 73.4707L106.075 73.2146C106.106 73.2792 106.126 73.3414 106.144 73.4144L106.095 73.1272C106.113 73.2003 106.106 73.2792 106.102 73.3472L106.124 73.0534C106.124 73.0534 106.099 73.1625 106.086 73.2171C106.021 73.5009 106.075 73.8124 106.226 74.0543C106.369 74.2827 106.642 74.4951 106.917 74.5472C107.193 74.5993 107.51 74.5691 107.754 74.4071C107.999 74.2451 108.179 74.0108 108.247 73.7161C108.383 73.1266 108.274 72.5036 107.891 72.0241C107.721 71.8124 107.538 71.6092 107.339 71.4253C107.181 71.2624 107.021 71.1104 106.879 70.9282L107.059 71.1423C106.951 71.0138 106.856 70.8769 106.772 70.7426C106.621 70.5007 106.365 70.3152 106.081 70.2496C105.797 70.1841 105.475 70.2361 105.244 70.3898C105.013 70.5434 104.806 70.7945 104.751 71.0808C104.696 71.3671 104.732 71.6627 104.891 71.918L104.916 71.9121Z" fill="#565656"/>
<path d="M86.7538 113.216C86.9772 130.101 83.7386 146.774 82.3768 163.561C82.276 164.835 84.2337 164.731 84.3419 163.469C85.7037 146.682 88.9423 130.009 88.7189 113.124C88.6992 111.843 86.7341 111.935 86.7538 113.216Z" fill="#565656"/>
<path d="M102.952 110.707C107.707 117.281 110.956 124.858 114.246 132.257C117.536 139.656 120.412 146.575 124.977 152.814C125.728 153.839 127.421 152.786 126.663 151.748C122.033 145.432 118.979 138.036 115.811 130.914C112.642 123.792 109.329 116.138 104.628 109.64C103.879 108.604 102.184 109.668 102.942 110.705L102.952 110.707Z" fill="#565656"/>
<path d="M122.112 96.8025C128.219 101.255 135.608 103.23 142.224 106.752C146.741 109.152 150.117 113.193 154.641 115.564C156.445 116.509 158.588 117.044 160.2 115.521C161.109 114.664 159.666 113.343 158.769 114.193C157.258 115.63 154.141 113.065 152.958 112.203C150.569 110.445 148.367 108.45 145.934 106.751C139.032 101.916 130.283 100.414 123.447 95.4248C122.437 94.6929 121.091 96.0779 122.108 96.8215L122.112 96.8025Z" fill="#565656"/>
<path d="M129.211 78.8995C135.375 79.8177 141.656 79.9678 147.898 79.6688C154.141 79.3698 160.166 78.6554 166.14 77.0697C167.368 76.7408 166.809 74.7856 165.584 75.1042C159.773 76.6415 153.788 77.3116 147.84 77.6034C141.892 77.8953 135.664 77.7789 129.678 76.8802C128.448 76.6929 127.972 78.71 129.211 78.8995Z" fill="#565656"/>
<path d="M112.588 43.4661C116.844 39.1842 120.314 33.7751 122.497 28.0375C122.954 26.8294 121.295 25.8896 120.829 27.0955C118.697 32.6978 115.369 37.919 111.215 42.0985C110.313 43.0145 111.688 44.3721 112.588 43.4661Z" fill="#565656"/>
<path d="M85.0102 37.5398C86.0932 32.6785 85.5371 27.4388 84.4252 22.6941C83.3943 18.3213 81.7025 13.4116 78.3666 10.439C77.4463 9.62396 76.1278 11.0857 77.0459 11.9106C80.1551 14.675 81.6499 19.2484 82.6049 23.3127C83.6406 27.7074 84.1695 32.598 83.1661 37.114C82.8862 38.3688 84.728 38.8044 85.0102 37.5398Z" fill="#565656"/>
<path d="M60.3298 54.7749C51.0196 50.2747 40.285 51.5538 30.4186 49.3326C29.2118 49.054 28.7905 50.8354 30.0089 51.1072C39.6642 53.2891 50.3364 51.9768 59.4405 56.3727C60.5567 56.9136 61.4556 55.318 60.3394 54.7771L60.3298 54.7749Z" fill="#565656"/>
<path d="M47.6847 75.9576C36.5873 78.32 25.4688 80.7294 14.819 84.7916C13.629 85.2426 14.201 87.1578 15.4031 86.6993C26.0431 82.6347 37.1691 80.2375 48.2688 77.8652C49.5174 77.6041 48.9237 75.6942 47.6847 75.9576Z" fill="#565656"/>
<path d="M65.8643 119.398C63.3259 124.544 61.1875 129.95 59.0273 135.277C58.5403 136.477 60.2322 137.424 60.7193 136.224C62.8795 130.897 65.006 125.499 67.5562 120.345C68.1359 119.177 66.4417 118.24 65.8643 119.398Z" fill="#565656"/>
<path d="M78.4516 94.0956C79.6887 97.5891 82.5564 100.355 86.3 100.855C90.0437 101.355 93.7774 99.5607 96.0969 96.5237C96.8716 95.5048 95.4278 94.1195 94.641 95.1461C92.77 97.5887 89.9101 99.2823 86.7521 98.897C83.5941 98.5116 81.3645 96.3512 80.3617 93.5055C79.9363 92.2928 78.0163 92.8806 78.4493 94.1055L78.4516 94.0956Z" fill="#565656"/>
</svg>
