<svg width="180" height="180" viewBox="0 0 180 180" fill="none" xmlns="http://www.w3.org/2000/svg">
<path d="M95.9453 108.934C109.355 107.255 120.488 96.8959 123.634 83.5765C124.023 81.8473 124.306 80.0937 124.421 78.3219C125.314 64.7923 117.906 51.9406 105.635 46.3171C93.3641 40.6935 78.5179 43.6326 69.0676 53.5535C59.6173 63.4744 57.1736 78.8473 63.2226 91.1269C69.2642 103.395 82.4736 110.62 95.9453 108.934Z" fill="#F9F07C"/>
<path fill-rule="evenodd" clip-rule="evenodd" d="M125.541 84.0167C128.733 69.8812 122.96 54.9988 111.078 47.0775C99.1954 39.1562 82.9044 39.7877 71.4899 48.728C60.0754 57.6683 55.1403 73.3342 59.5655 87.244C63.9907 101.154 76.7239 110.749 91.04 111.161C105.135 111.562 118.597 102.629 123.892 89.2688C124.572 87.555 125.116 85.8101 125.541 84.0167ZM95.9453 108.934C109.355 107.255 120.488 96.8959 123.634 83.5765C124.023 81.8473 124.306 80.0937 124.421 78.3219C125.314 64.7923 117.906 51.9406 105.635 46.3171C93.3641 40.6935 78.5179 43.6326 69.0676 53.5535C59.6173 63.4744 57.1736 78.8473 63.2226 91.1269C69.2642 103.395 82.4736 110.62 95.9453 108.934Z" fill="#565656"/>
<path d="M79.8605 65.6875C79.9058 65.4912 79.9533 65.2852 79.989 65.0867C80.0287 64.8271 80.0706 64.5578 80.0406 64.2925C80.0241 64.144 80.0026 63.9736 79.9454 63.826C79.8435 63.5648 79.7698 63.4444 79.5942 63.2385C79.4895 63.1213 79.3586 63.0291 79.2255 62.9467C79.1553 62.8995 79.0687 62.8795 78.9939 62.8519C78.9095 62.8221 78.8274 62.7825 78.7311 62.7602C78.4904 62.7047 78.2055 62.7526 77.9914 62.8892C77.7773 63.0258 77.6006 63.264 77.5536 63.5116C77.5066 63.7591 77.5321 64.0441 77.6743 64.2629C77.8164 64.4818 78.0226 64.643 78.2826 64.7031C78.3307 64.7142 78.3788 64.7253 78.427 64.7364L78.1857 64.6394C78.2435 64.6527 78.2967 64.6857 78.3477 64.7284L78.1393 64.577C78.1829 64.6077 78.2242 64.6483 78.2559 64.6866L78.0973 64.4949C78.0973 64.4949 78.1512 64.5694 78.171 64.6153L78.0719 64.3857C78.0968 64.4535 78.1217 64.5212 78.137 64.5868L78.0951 64.3291C78.116 64.4579 78.1155 64.5922 78.0979 64.7121L78.1183 64.4481C78.0883 64.7099 78.0271 64.9748 77.9682 65.2299C77.9093 65.4851 77.9563 65.7646 78.0889 65.9813C78.2214 66.1979 78.4542 66.3757 78.6971 66.4214C78.9401 66.4672 79.2205 66.4389 79.4368 66.2925C79.6532 66.146 79.8135 65.935 79.8746 65.6701L79.8605 65.6875Z" fill="#565656"/>
<path d="M104.754 72.1589C104.946 72.4718 105.175 72.7522 105.428 73.0173C105.584 73.1773 105.752 73.3297 105.884 73.5049L105.725 73.3132C105.779 73.3877 105.833 73.4621 105.872 73.5539L105.773 73.3243C105.8 73.3823 105.818 73.438 105.833 73.5036L105.791 73.2458C105.807 73.3114 105.8 73.3823 105.796 73.4434L105.817 73.1794C105.817 73.1794 105.794 73.2775 105.783 73.3266C105.724 73.5817 105.771 73.8613 105.904 74.0779C106.029 74.2825 106.269 74.4723 106.512 74.518C106.755 74.5638 107.035 74.5355 107.252 74.3891C107.468 74.2427 107.628 74.0316 107.689 73.7667C107.812 73.2368 107.718 72.6777 107.381 72.2485C107.232 72.0591 107.071 71.8772 106.896 71.7128C106.757 71.5671 106.616 71.4312 106.491 71.268L106.65 71.4597C106.555 71.3447 106.472 71.2221 106.398 71.1018C106.265 70.8851 106.04 70.7194 105.79 70.6616C105.539 70.6038 105.254 70.6517 105.05 70.7906C104.846 70.9294 104.661 71.1556 104.612 71.413C104.563 71.6703 104.593 71.9356 104.733 72.1643L104.754 72.1589Z" fill="#565656"/>
<path d="M86.9401 113.428C87.1357 130.371 83.8804 147.107 82.4958 163.954C82.3933 165.233 84.345 165.125 84.4549 163.859C85.8395 147.011 89.0948 130.276 88.8992 113.332C88.8816 112.047 86.9225 112.142 86.9401 113.428Z" fill="#565656"/>
<path d="M103.012 111.039C107.691 117.566 110.882 125.094 114.114 132.444C117.346 139.794 120.17 146.668 124.663 152.863C125.401 153.881 127.074 152.83 126.328 151.8C121.772 145.529 118.773 138.181 115.66 131.106C112.547 124.031 109.293 116.427 104.667 109.975C103.931 108.947 102.256 110.007 103.002 111.037L103.012 111.039Z" fill="#565656"/>
<path d="M122.533 96.8827C128.601 101.436 135.973 103.417 142.558 107.004C147.055 109.448 150.396 113.599 154.899 116.013C156.695 116.976 158.833 117.511 160.458 115.922C161.374 115.028 159.942 113.674 159.038 114.561C157.515 116.059 154.42 113.433 153.244 112.551C150.871 110.753 148.686 108.708 146.267 106.972C139.407 102.029 130.672 100.55 123.879 95.4467C122.875 94.6983 121.517 96.1419 122.528 96.9024L122.533 96.8827Z" fill="#565656"/>
<path d="M129.758 78.2308C135.94 79.1723 142.232 79.3743 148.482 79.1429C154.732 78.9114 160.76 78.2775 166.729 76.803C167.956 76.4971 167.378 74.6067 166.154 74.9028C160.347 76.3322 154.359 76.9237 148.404 77.1509C142.45 77.3781 136.211 77.2091 130.207 76.288C128.973 76.0962 128.515 78.0368 129.758 78.2308Z" fill="#565656"/>
<path d="M112.925 43.5672C117.247 39.387 120.752 34.0881 122.935 28.4529C123.392 27.2664 121.682 26.324 121.216 27.5083C119.084 33.0105 115.723 38.1256 111.505 42.2059C110.589 43.1002 112.011 44.4517 112.925 43.5672Z" fill="#565656"/>
<path d="M85.5547 37.5468C86.6307 32.7103 86.0122 27.4825 84.8245 22.7434C83.7234 18.3758 81.9359 13.4672 78.4685 10.4756C77.5119 9.65533 76.164 11.1011 77.1183 11.9313C80.3501 14.7134 81.9314 19.285 82.9515 23.3446C84.0577 27.7341 84.6451 32.6136 83.6483 37.1067C83.3702 38.3551 85.2744 38.805 85.5547 37.5468Z" fill="#565656"/>
<path d="M60.6318 55.3566C51.2403 50.6149 40.2964 52.2018 30.2982 49.9555C29.0754 49.6732 28.615 51.6237 29.8497 51.8984C39.6337 54.1055 50.5148 52.4834 59.6985 57.1152C60.8244 57.6852 61.7674 55.9289 60.6415 55.3588L60.6318 55.3566Z" fill="#565656"/>
<path d="M47.0418 76.0542C36.0486 78.4255 25.0345 80.8437 14.482 84.9084C13.3028 85.3596 13.8664 87.2674 15.0574 86.8086C25.6003 82.7417 36.6218 80.3355 47.6173 77.9544C48.8542 77.6922 48.2691 75.7898 47.0418 76.0542Z" fill="#565656"/>
<path d="M65.4907 119.379C62.954 124.437 60.8239 129.754 58.6712 134.993C58.1859 136.173 59.9048 137.117 60.3902 135.937C62.5429 130.698 64.661 125.389 67.2096 120.324C67.789 119.176 66.0678 118.241 65.4907 119.379Z" fill="#565656"/>
<path d="M78.7328 93.7666C79.9318 97.2267 82.7286 99.9601 86.3896 100.444C90.0506 100.927 93.7093 99.1362 95.9884 96.1174C96.7495 95.1045 95.3415 93.7356 94.5684 94.756C92.73 97.1841 89.9265 98.8727 86.8381 98.5008C83.7497 98.1288 81.5754 95.9938 80.6035 93.1753C80.1911 91.9742 78.3108 92.5633 78.7305 93.7764L78.7328 93.7666Z" fill="#565656"/>
</svg>
