<svg width="62" height="65" viewBox="0 0 62 65" fill="none" xmlns="http://www.w3.org/2000/svg">
<path d="M12.2288 22.6934C10.0018 25.5659 8.84759 29.1026 6.64143 31.9619L9.39349 33.9736C11.7961 30.1093 15.5039 27.5968 18.3959 24.1534C19.5997 22.7108 17.9056 20.2732 16.2571 21.4864C13.0972 23.7813 12.3649 28.6469 11.5392 32.2233C11.1343 33.9771 13.2541 34.9555 14.445 33.7997C18.7819 29.6395 23.1774 25.4565 26.378 20.2914L23.3659 18.6361C19.948 25.4354 16.8368 32.5227 12.0493 38.4805C10.8545 39.9614 12.4712 42.2724 14.1881 41.1475C22.9155 35.5198 29.9151 27.7546 35.3347 18.8277L32.3227 17.1725C26.4476 26.9178 21.0299 36.9136 15.1548 46.659C14.0899 48.4234 16.5542 49.9884 17.9068 48.6708C26.5588 40.2909 32.4598 29.6641 40.0012 20.3216L37.0954 18.7452C34.4894 29.5713 27.3965 38.8181 21.7387 48.1609C20.6738 49.9253 23.1212 51.4864 24.4908 50.1726C33.2678 41.713 40.9164 32.2141 46.8451 21.467L43.8331 19.8117C38.1147 30.2634 31.9984 40.5144 26.2801 50.9661C25.2014 52.9446 28.1409 54.5288 29.2922 52.6213C34.9083 43.3051 40.6048 34.0257 47.4476 25.5541L44.6955 23.5424C40.9571 31.807 35.8034 39.274 30.7083 46.7183C29.447 48.5641 32.4669 50.1849 33.7204 48.3735C38.5356 41.3717 43.7797 34.6681 47.3226 26.8655L44.1527 25.6628C42.3724 33.2204 39.1112 41.0337 34.2583 47.1213C32.8609 48.8633 35.3491 51.2488 36.7464 49.5068C41.9963 42.9313 45.566 34.6278 47.4932 26.434C47.9259 24.5598 45.156 23.3951 44.3234 25.2313C40.7844 33.0167 35.5365 39.7375 30.7213 46.7393L33.7333 48.3946C38.8284 40.9503 43.982 33.4833 47.7204 25.2187C48.4876 23.5123 46.2873 21.5736 44.9684 23.2069C37.9311 31.9052 32.0699 41.4365 26.2891 51.0044L29.3011 52.6596C35.0194 42.208 41.1357 31.9569 46.854 21.5053C47.9328 19.5267 44.9168 17.8887 43.842 19.85C38.0612 30.3416 30.6021 39.5582 22.0116 47.8255L24.7637 49.8372C30.5981 40.1911 37.7803 30.7114 40.4488 19.5375C40.822 17.9213 38.6425 16.585 37.5429 17.9611C30.0054 27.2864 24.1045 37.9132 15.4485 46.3103L18.2006 48.322C24.0757 38.5767 29.5102 28.5847 35.3685 18.8355C36.5237 16.9108 33.5246 15.2767 32.3565 17.1803C27.2534 25.5826 20.6468 32.8771 12.4195 38.1857L14.5583 40.8527C19.5274 34.647 22.8291 27.3502 26.3989 20.2781C27.4181 18.2496 24.5508 16.7365 23.3867 18.6229C20.3589 23.5018 16.0825 27.4768 11.9778 31.4009L14.8837 32.9773C15.2608 31.3439 15.6379 29.7105 16.15 28.1082C16.5291 26.928 17.0183 25.1937 18.0673 24.4217L15.9286 21.7546C12.8382 25.442 8.99452 28.1586 6.40231 32.3051C5.36126 33.9663 7.93965 35.8837 9.15437 34.3168C11.3814 31.4443 12.5355 27.9076 14.7417 25.0484C16.1093 23.2814 13.6212 20.8959 12.2536 22.6629L12.2288 22.6934Z" fill="#F0696B"/>
<path d="M25.4202 22.811C22.4756 18.7083 17.8051 15.0765 12.6603 17.6557C8.33825 19.8272 6.03385 25.0362 5.52974 29.6829C4.11865 42.7227 15.8306 49.3384 25.9625 53.5611C31.5231 55.8771 38.105 57.8495 42.2723 62.5061C43.2756 63.6252 45.2675 62.618 45.1633 61.1451C44.6551 54.1096 48.5136 47.2491 51.5077 41.1309C54.351 35.3581 58.1589 28.7938 57.9544 22.1362C57.7766 16.2093 52.7112 10.7477 47.5971 8.49845C42.4831 6.24926 36.2991 6.32475 31.1116 8.85789C24.8464 11.9028 21.2043 17.9802 20.588 24.8829C20.3916 27.1195 23.8115 26.9311 24.0209 24.7156C25.0062 13.7508 36.8648 7.10733 46.5581 11.8444C51.1719 14.1049 55.2072 18.9484 54.4114 24.397C53.5401 30.4802 50.1192 36.1378 47.4774 41.5768C44.5329 47.6341 41.2361 54.3707 41.7344 61.2953L44.6254 59.9344C41.5597 56.51 37.2564 54.5204 33.1328 52.7535C28.4088 50.7392 23.5498 49.0016 19.0749 46.4472C14.5999 43.8928 10.9476 40.6228 9.40831 35.6674C8.15878 31.6119 8.8981 26.6392 11.4199 23.1828C12.5631 21.6176 14.276 20.202 16.2778 20.2295C18.9484 20.2846 21.0366 22.6321 22.4726 24.6479C23.7628 26.4489 26.6975 24.591 25.3904 22.7861L25.4202 22.811Z" fill="#565656"/>
</svg>
