<svg width="1000" height="2912" viewBox="0 0 1000 2912" fill="none" xmlns="http://www.w3.org/2000/svg">
<path d="M68.5 15.0006C38.5 9.84421 0.000289917 9.8442 0.000289917 9.8442L0 2912H1000V13.7409C969.36 13.7409 955.623 20.9348 932.251 33.175L931.81 33.4056C921.812 31.1661 910.999 29.9428 899.714 29.9428C892.725 29.9428 885.917 30.4121 879.371 31.3014C855.372 17.9767 823.378 9.8442 788.247 9.8442C750.152 9.8442 715.747 19.4065 691.224 34.7821C681.047 32.4498 670.012 31.1733 658.484 31.1733C655.878 31.1733 653.296 31.2386 650.744 31.3665C633.815 18.2653 607.456 9.8442 577.848 9.8442C558.305 9.8442 540.177 13.5132 525.242 19.7753C501.625 7.45137 470.871 0 437.243 0C391.145 0 350.45 14.0021 326.131 35.3634C301.414 16.799 263.541 4.9221 221.085 4.9221C183.454 4.9221 149.424 14.2527 124.963 29.3004C113.307 25.7741 83 17.4929 68.5 15.0006Z" fill="white"/>
</svg>
